<svg xmlns="http://www.w3.org/2000/svg" viewBox="0 0 170.92 96.23"><defs><style>.cls-1{fill:#575756;}.cls-2{fill:#238298;}</style></defs><g id="Layer_2" data-name="Layer 2"><g id="Layer_1-2" data-name="Layer 1"><path class="cls-1" d="M1.32,86.91H3.14l2.51,6.27,2.52-6.27H10L6.28,96.1H5Z"/><path class="cls-1" d="M10.85,87.47a1,1,0,0,1,.33-.77,1.12,1.12,0,0,1,1.57,0,1.08,1.08,0,0,1,0,1.55,1.15,1.15,0,0,1-1.57,0A1,1,0,0,1,10.85,87.47Zm2,8.63H11.11V89.73h1.71Z"/><path class="cls-1" d="M20.56,94.8a3.5,3.5,0,0,1-1.27,1.09,3.87,3.87,0,0,1-3,.08,3.08,3.08,0,0,1-1.08-.71,3.3,3.3,0,0,1-.71-1.05,3.2,3.2,0,0,1-.26-1.29,3.32,3.32,0,0,1,.26-1.3,3.36,3.36,0,0,1,.73-1.05,3.08,3.08,0,0,1,1.08-.71,3.58,3.58,0,0,1,1.36-.26,3.44,3.44,0,0,1,1.53.35,3.28,3.28,0,0,1,1.15.92l-1.21,1.07a2.11,2.11,0,0,0-.64-.55A1.79,1.79,0,0,0,17,91.31a1.8,1.8,0,0,0-.55.38,1.87,1.87,0,0,0-.36.55,1.72,1.72,0,0,0-.13.68,1.75,1.75,0,0,0,.13.7,1.7,1.7,0,0,0,.36.54,1.46,1.46,0,0,0,.55.36,1.88,1.88,0,0,0,.72.13,1.6,1.6,0,0,0,.92-.26,2.09,2.09,0,0,0,.6-.58Z"/><path class="cls-1" d="M26.67,96.1a2.19,2.19,0,0,1-.49.1l-.58,0A3.31,3.31,0,0,1,24.28,96a2.24,2.24,0,0,1-.88-.68,2,2,0,0,1-.36-.77,4.54,4.54,0,0,1-.11-1.13V91.18H21.15V89.73h1.78V88h1.7v1.77h2.1v1.45h-2.1V93.6a1.59,1.59,0,0,0,.06.49.86.86,0,0,0,.15.32.91.91,0,0,0,.34.22,1.36,1.36,0,0,0,.53.09l.39,0a1.53,1.53,0,0,0,.31,0Z"/><path class="cls-1" d="M28.11,87.47a1,1,0,0,1,.33-.77,1.1,1.1,0,0,1,.79-.32,1.08,1.08,0,0,1,.78.32,1.08,1.08,0,0,1,0,1.55,1.07,1.07,0,0,1-.78.31,1.09,1.09,0,0,1-.79-.31A1,1,0,0,1,28.11,87.47Zm2,8.63H28.37V89.73h1.71Z"/><path class="cls-1" d="M32.05,96.1V89.73h1.64v.51a2.48,2.48,0,0,1,.82-.49,2.82,2.82,0,0,1,2.11.12,2.67,2.67,0,0,1,.93.73,3.22,3.22,0,0,1,1-.7,2.8,2.8,0,0,1,1.3-.3,2.9,2.9,0,0,1,1.26.28,2.76,2.76,0,0,1,1,.74,2.91,2.91,0,0,1,.47.89,3.92,3.92,0,0,1,.17,1.21V96.1H41V92.66a2.07,2.07,0,0,0-.09-.68,1.25,1.25,0,0,0-.23-.41,1,1,0,0,0-.45-.31,1.51,1.51,0,0,0-.51-.08,1.53,1.53,0,0,0-.52.08,3,3,0,0,0-.44.21,1.88,1.88,0,0,0-.34.28,1.66,1.66,0,0,0-.23.27c0,.1,0,.21,0,.33s0,.24,0,.37V96.1H36.51V92.66a2.43,2.43,0,0,0-.08-.68,1.46,1.46,0,0,0-.23-.41,1,1,0,0,0-.46-.31,1.45,1.45,0,0,0-.5-.08,1.7,1.7,0,0,0-.51.07,2.71,2.71,0,0,0-.42.2,2.13,2.13,0,0,0-.32.26,1.69,1.69,0,0,0-.23.25V96.1Z"/><path class="cls-1" d="M44.72,94.16a2.29,2.29,0,0,0,.79.46,2.84,2.84,0,0,0,1,.17,1,1,0,0,0,.58-.16.43.43,0,0,0,.24-.38.46.46,0,0,0-.23-.39,3.79,3.79,0,0,0-.57-.28l-.75-.26A3.86,3.86,0,0,1,45,93a2.13,2.13,0,0,1-.57-.55,1.46,1.46,0,0,1-.23-.84,1.61,1.61,0,0,1,.21-.82,1.82,1.82,0,0,1,.54-.63,2.59,2.59,0,0,1,.78-.39,3.09,3.09,0,0,1,.91-.14,4.46,4.46,0,0,1,.63.05,5.26,5.26,0,0,1,.6.15,4.18,4.18,0,0,1,.53.21,4.34,4.34,0,0,1,.4.23L48,91.48a2.6,2.6,0,0,0-.57-.31,1.85,1.85,0,0,0-.66-.13,1.34,1.34,0,0,0-.61.14.4.4,0,0,0-.25.38.36.36,0,0,0,.23.33,4.08,4.08,0,0,0,.57.24l.74.26a3.2,3.2,0,0,1,.74.37,2,2,0,0,1,.57.6,1.54,1.54,0,0,1,.23.9,1.59,1.59,0,0,1-.21.82,2,2,0,0,1-.55.62,2.76,2.76,0,0,1-.81.39,3.43,3.43,0,0,1-1,.14A4.08,4.08,0,0,1,45.12,96a4.22,4.22,0,0,1-1.23-.63Z"/><path class="cls-1" d="M60.81,90.18a2.23,2.23,0,0,1,.09.32c0,.14.05.28.08.45s.05.33.07.51a3.52,3.52,0,0,1,0,.56A5.72,5.72,0,0,1,61,93.28a3.86,3.86,0,0,1-.42,1.09L62,96.1H59.92l-.49-.55a3.66,3.66,0,0,1-1.15.51,5.63,5.63,0,0,1-1.39.17A4,4,0,0,1,55.61,96a3.55,3.55,0,0,1-1.1-.6,3.25,3.25,0,0,1-.78-1,2.68,2.68,0,0,1-.28-1.25,2.61,2.61,0,0,1,.13-.85,2.76,2.76,0,0,1,.36-.73,4.3,4.3,0,0,1,.52-.61,6,6,0,0,1,.63-.5,4.14,4.14,0,0,1-.53-.87,2.1,2.1,0,0,1-.2-.89,1.72,1.72,0,0,1,.18-.78,1.92,1.92,0,0,1,.49-.64,2.19,2.19,0,0,1,.71-.42,2.44,2.44,0,0,1,1.71,0,2.12,2.12,0,0,1,1.16,1.14,2.15,2.15,0,0,1,.17.85,1.84,1.84,0,0,1-.37,1.17,4.93,4.93,0,0,1-.84.87l1.76,2c0-.15.07-.31.1-.48a4.12,4.12,0,0,0,0-.51,3.84,3.84,0,0,0-.07-.78,5.38,5.38,0,0,0-.15-.66Zm-5.66,3a1.14,1.14,0,0,0,.13.55,1.28,1.28,0,0,0,.36.45,2,2,0,0,0,.57.32,2.47,2.47,0,0,0,.75.11,2.53,2.53,0,0,0,1.38-.35l-2.19-2.53a2.88,2.88,0,0,0-.7.56A1.31,1.31,0,0,0,55.15,93.22Zm1.92-4.3a.65.65,0,0,0-.14-.4.47.47,0,0,0-.72,0,.65.65,0,0,0-.14.4.9.9,0,0,0,.13.44,2.59,2.59,0,0,0,.32.42,2.49,2.49,0,0,0,.39-.42A.68.68,0,0,0,57.07,88.92Z"/><path class="cls-1" d="M66.35,93.64a3.39,3.39,0,0,0,1,.73,2.72,2.72,0,0,0,1.21.28,1.39,1.39,0,0,0,1-.32,1.06,1.06,0,0,0,.37-.83.94.94,0,0,0-.28-.72,3.08,3.08,0,0,0-.73-.48,7.79,7.79,0,0,0-1-.39,5.15,5.15,0,0,1-1-.46,3.2,3.2,0,0,1-.91-.81,2,2,0,0,1-.39-1.28,2.18,2.18,0,0,1,.27-1.09,2.69,2.69,0,0,1,.68-.82,2.93,2.93,0,0,1,1-.5,3.92,3.92,0,0,1,1.13-.17A4.75,4.75,0,0,1,70,87a4.36,4.36,0,0,1,1.3.67L70.39,89a2.21,2.21,0,0,0-.7-.44,2.43,2.43,0,0,0-.89-.17,2.2,2.2,0,0,0-.5.06,1.7,1.7,0,0,0-.46.18.9.9,0,0,0-.33.31.84.84,0,0,0-.12.45.7.7,0,0,0,.31.6,3.42,3.42,0,0,0,.79.44l1,.41a5.18,5.18,0,0,1,1,.55,3,3,0,0,1,.79.84,2.41,2.41,0,0,1,.32,1.28,2.5,2.5,0,0,1-.26,1.13,2.85,2.85,0,0,1-.68.86,3.46,3.46,0,0,1-1,.57,3.61,3.61,0,0,1-1.18.2,4.46,4.46,0,0,1-1.78-.36,5.48,5.48,0,0,1-1.55-1Z"/><path class="cls-1" d="M79.11,89.73V96.1H77.47v-.51a2.59,2.59,0,0,1-.82.49,2.83,2.83,0,0,1-.9.15A2.65,2.65,0,0,1,74.52,96a3.12,3.12,0,0,1-.94-.74,2.91,2.91,0,0,1-.47-.89,3.92,3.92,0,0,1-.17-1.21V89.73h1.71v3.44a2.11,2.11,0,0,0,.08.68,1.25,1.25,0,0,0,.23.41,1,1,0,0,0,.45.31,1.51,1.51,0,0,0,.51.08,1.59,1.59,0,0,0,.5-.07,2,2,0,0,0,.42-.2,1.81,1.81,0,0,0,.33-.26,1.69,1.69,0,0,0,.23-.25V89.73Z"/><path class="cls-1" d="M85,91.24a1.3,1.3,0,0,0-.26,0,2.11,2.11,0,0,0-.36,0,1.5,1.5,0,0,0-.52.09,1.9,1.9,0,0,0-.45.23,1.74,1.74,0,0,0-.35.29,2.42,2.42,0,0,0-.23.3v4h-1.7V89.73h1.64v.64a2,2,0,0,1,.77-.56,2.74,2.74,0,0,1,1.08-.21h.31l.27,0Z"/><path class="cls-1" d="M89.52,93.62l1.74-3.89H93L90.11,96.1H88.93L86,89.73h1.77Z"/><path class="cls-1" d="M93.89,87.47a1,1,0,0,1,.33-.77,1.12,1.12,0,0,1,1.57,0,1.08,1.08,0,0,1,0,1.55,1.15,1.15,0,0,1-1.57,0A1,1,0,0,1,93.89,87.47Zm2,8.63H94.15V89.73h1.71Z"/><path class="cls-1" d="M100.49,93.62l1.75-3.89H104l-2.93,6.37H99.9L97,89.73h1.78Z"/><path class="cls-1" d="M104.4,92.92a3.34,3.34,0,0,1,.26-1.29,3.24,3.24,0,0,1,.71-1.06,3.38,3.38,0,0,1,1.08-.71,3.48,3.48,0,0,1,1.34-.26,3.57,3.57,0,0,1,1.35.26,3.45,3.45,0,0,1,1.07.71,3.09,3.09,0,0,1,.71,1.06,3.34,3.34,0,0,1,.26,1.29,3.2,3.2,0,0,1-.26,1.29A3.29,3.29,0,0,1,109.14,96a3.57,3.57,0,0,1-1.35.26,3.48,3.48,0,0,1-1.34-.26,3.08,3.08,0,0,1-1.08-.71,3.3,3.3,0,0,1-.71-1.05A3.2,3.2,0,0,1,104.4,92.92Zm1.71,0a1.67,1.67,0,0,0,.13.67,1.64,1.64,0,0,0,.34.55,1.66,1.66,0,0,0,.52.38,1.73,1.73,0,0,0,.69.13,1.68,1.68,0,0,0,.68-.13,1.75,1.75,0,0,0,.54-.38,2,2,0,0,0,.34-.55,1.85,1.85,0,0,0,.12-.67,1.89,1.89,0,0,0-.12-.67,2,2,0,0,0-.34-.56,1.75,1.75,0,0,0-.54-.38,1.68,1.68,0,0,0-.68-.13,1.73,1.73,0,0,0-.69.13,1.66,1.66,0,0,0-.52.38,1.59,1.59,0,0,0-.34.56A1.7,1.7,0,0,0,106.11,92.92Z"/><path class="cls-1" d="M116.49,91.24a1.18,1.18,0,0,0-.26,0,2,2,0,0,0-.35,0,1.55,1.55,0,0,0-.53.09,2.38,2.38,0,0,0-.45.23,2.08,2.08,0,0,0-.35.29,2.25,2.25,0,0,0-.22.3v4h-1.71V89.73h1.64v.64a2.09,2.09,0,0,1,.78-.56,2.65,2.65,0,0,1,1.07-.21h.31l.27,0Z"/><path class="cls-1" d="M118.2,94.16a2.24,2.24,0,0,0,.8.46,2.8,2.8,0,0,0,1,.17,1,1,0,0,0,.57-.16.43.43,0,0,0,.24-.38.46.46,0,0,0-.23-.39,3,3,0,0,0-.57-.28l-.74-.26a3.37,3.37,0,0,1-.74-.35,2,2,0,0,1-.57-.55,1.39,1.39,0,0,1-.23-.84,1.61,1.61,0,0,1,.2-.82,2.06,2.06,0,0,1,.54-.63,2.54,2.54,0,0,1,.79-.39,3,3,0,0,1,.91-.14,4.46,4.46,0,0,1,.63.05,4.61,4.61,0,0,1,.59.15,3.66,3.66,0,0,1,.53.21,3.32,3.32,0,0,1,.4.23l-.8,1.24a2.52,2.52,0,0,0-.56-.31,1.85,1.85,0,0,0-.66-.13,1.28,1.28,0,0,0-.61.14.41.41,0,0,0-.26.38.37.37,0,0,0,.23.33,5.46,5.46,0,0,0,.57.24l.75.26a3.41,3.41,0,0,1,.74.37,2.33,2.33,0,0,1,.57.6,1.62,1.62,0,0,1,.23.9,1.59,1.59,0,0,1-.21.82,2.07,2.07,0,0,1-.56.62,2.54,2.54,0,0,1-.81.39,3.32,3.32,0,0,1-1,.14A4.12,4.12,0,0,1,118.6,96a4.22,4.22,0,0,1-1.23-.63Z"/><path class="cls-1" d="M127.63,93.64a3.39,3.39,0,0,0,1,.73,2.64,2.64,0,0,0,1.2.28,1.4,1.4,0,0,0,1-.32,1.06,1.06,0,0,0,.37-.83,1,1,0,0,0-.29-.72,2.82,2.82,0,0,0-.72-.48,9.38,9.38,0,0,0-1-.39,4.88,4.88,0,0,1-1-.46,3.24,3.24,0,0,1-.92-.81,2.09,2.09,0,0,1-.38-1.28,2.28,2.28,0,0,1,.26-1.09,2.87,2.87,0,0,1,.69-.82,2.93,2.93,0,0,1,1-.5,3.85,3.85,0,0,1,1.12-.17,4.66,4.66,0,0,1,1.36.19,4.29,4.29,0,0,1,1.31.67L131.67,89a2.21,2.21,0,0,0-.7-.44,2.47,2.47,0,0,0-.89-.17,2.14,2.14,0,0,0-.5.06,1.47,1.47,0,0,0-.46.18.9.9,0,0,0-.33.31.77.77,0,0,0-.13.45.71.71,0,0,0,.32.6,3.42,3.42,0,0,0,.79.44l1,.41a5,5,0,0,1,1,.55,3,3,0,0,1,.79.84,2.4,2.4,0,0,1,.31,1.28,2.5,2.5,0,0,1-.25,1.13,2.73,2.73,0,0,1-.69.86,3.21,3.21,0,0,1-1,.57,3.57,3.57,0,0,1-1.18.2,4.45,4.45,0,0,1-1.77-.36,5.34,5.34,0,0,1-1.55-1Z"/><path class="cls-1" d="M139.9,95.09a2.9,2.9,0,0,1-1.16.84,3.66,3.66,0,0,1-1.45.3A3.56,3.56,0,0,1,136,96a3,3,0,0,1-1.06-.67,2.94,2.94,0,0,1-.7-1,3.51,3.51,0,0,1-.26-1.36,3.85,3.85,0,0,1,.22-1.27,3.17,3.17,0,0,1,.62-1.05,2.95,2.95,0,0,1,2.26-1,2.86,2.86,0,0,1,1.21.26,3,3,0,0,1,1,.71,2.9,2.9,0,0,1,.62,1,3.48,3.48,0,0,1,.23,1.26,3.32,3.32,0,0,1,0,.48h-4.41a1.6,1.6,0,0,0,.18.62,1.57,1.57,0,0,0,.38.47,1.6,1.6,0,0,0,.52.31,1.91,1.91,0,0,0,.64.11,1.87,1.87,0,0,0,1-.24,2.73,2.73,0,0,0,.64-.49Zm-1.59-3a1.59,1.59,0,0,0-.12-.41,1.36,1.36,0,0,0-.27-.36,1.25,1.25,0,0,0-.38-.25,1.3,1.3,0,0,0-.49-.09,1.33,1.33,0,0,0-.92.34,1.3,1.3,0,0,0-.44.77Z"/><path class="cls-1" d="M145.37,91.24a1.3,1.3,0,0,0-.26,0,2,2,0,0,0-.35,0,1.55,1.55,0,0,0-.53.09,1.9,1.9,0,0,0-.45.23,2.08,2.08,0,0,0-.35.29,1.61,1.61,0,0,0-.22.3v4H141.5V89.73h1.64v.64a2,2,0,0,1,.78-.56A2.65,2.65,0,0,1,145,89.6h.31l.27,0Z"/><path class="cls-1" d="M149.94,93.62l1.75-3.89h1.77l-2.93,6.37h-1.18l-2.93-6.37h1.78Z"/><path class="cls-1" d="M154.31,87.47a1,1,0,0,1,.33-.77,1.1,1.1,0,0,1,.79-.32,1.12,1.12,0,0,1,.79.32,1.1,1.1,0,0,1,0,1.55,1.11,1.11,0,0,1-.79.31,1.09,1.09,0,0,1-.79-.31A1,1,0,0,1,154.31,87.47Zm2,8.63h-1.71V89.73h1.71Z"/><path class="cls-1" d="M164,94.8a3.53,3.53,0,0,1-1.28,1.09,3.87,3.87,0,0,1-3,.08,3.08,3.08,0,0,1-1.08-.71,3.3,3.3,0,0,1-.71-1.05,3.19,3.19,0,0,1-.25-1.29,3.24,3.24,0,0,1,1-2.35,3.27,3.27,0,0,1,1.08-.71,3.58,3.58,0,0,1,1.36-.26,3.44,3.44,0,0,1,1.53.35,3.28,3.28,0,0,1,1.15.92l-1.21,1.07a2.07,2.07,0,0,0-.63-.55,1.69,1.69,0,0,0-.84-.21,1.72,1.72,0,0,0-.68.13,1.93,1.93,0,0,0-.55.38,1.87,1.87,0,0,0-.36.55,1.91,1.91,0,0,0-.13.68,1.94,1.94,0,0,0,.13.7,1.7,1.7,0,0,0,.36.54,1.5,1.5,0,0,0,.56.36,1.8,1.8,0,0,0,.71.13,1.58,1.58,0,0,0,.92-.26,2.09,2.09,0,0,0,.6-.58Z"/><path class="cls-1" d="M170.76,95.09a2.9,2.9,0,0,1-1.16.84,3.66,3.66,0,0,1-1.45.3,3.6,3.6,0,0,1-1.32-.24,3,3,0,0,1-1.06-.67,2.94,2.94,0,0,1-.7-1,3.51,3.51,0,0,1-.26-1.36,3.85,3.85,0,0,1,.22-1.27,3.35,3.35,0,0,1,.62-1.05,3.07,3.07,0,0,1,1-.73,3,3,0,0,1,1.28-.27,2.86,2.86,0,0,1,1.21.26,3,3,0,0,1,.95.71,2.9,2.9,0,0,1,.62,1,3.48,3.48,0,0,1,.23,1.26,2.33,2.33,0,0,1,0,.48h-4.41a1.79,1.79,0,0,0,.18.62,1.57,1.57,0,0,0,.38.47,1.6,1.6,0,0,0,.52.31,1.91,1.91,0,0,0,.64.11,1.85,1.85,0,0,0,1-.24,2.73,2.73,0,0,0,.64-.49Zm-1.59-3a1.28,1.28,0,0,0-.38-.77,1.25,1.25,0,0,0-.88-.34,1.33,1.33,0,0,0-.92.34,1.3,1.3,0,0,0-.44.77Z"/><path class="cls-2" d="M53.06,1.75,36,44.15a1.18,1.18,0,0,1-2.2,0L16.89,1.76A1.19,1.19,0,0,0,15.79,1H1.19A1.18,1.18,0,0,0,.09,2.64L28.9,73.91a1.18,1.18,0,0,0,1.1.74H40A1.17,1.17,0,0,0,41,73.91L69.86,2.64A1.19,1.19,0,0,0,68.76,1H54.16A1.18,1.18,0,0,0,53.06,1.75Z"/><path class="cls-2" d="M114.2,42.38a23.76,23.76,0,0,0-6.46-6.89,38.65,38.65,0,0,0-8.13-4.4c-2.8-1.12-5.43-2.19-7.81-3.18A26.49,26.49,0,0,1,86,24.75a4.14,4.14,0,0,1-1.85-3.5,4.78,4.78,0,0,1,.73-2.7,6.06,6.06,0,0,1,2-1.92,11.39,11.39,0,0,1,3.14-1.2,16.3,16.3,0,0,1,9.86.79,15.47,15.47,0,0,1,5,3l.21.21a1.19,1.19,0,0,0,1.79-.18L114.3,8.73A1.18,1.18,0,0,0,114,7.1l-.2-.15a34,34,0,0,0-10.51-5.43A38.66,38.66,0,0,0,92.46,0a30.24,30.24,0,0,0-9.08,1.38,24.27,24.27,0,0,0-7.89,4.14,22.22,22.22,0,0,0-5.63,6.7,18.85,18.85,0,0,0-2.19,9.13A17.15,17.15,0,0,0,70.89,32a25.75,25.75,0,0,0,7.48,6.63,43.35,43.35,0,0,0,7.79,3.66,69.77,69.77,0,0,1,7.18,3,21,21,0,0,1,5.21,3.45,5.38,5.38,0,0,1,1.63,2.95,7.35,7.35,0,0,1-3.06,7.42,9.8,9.8,0,0,1-5.67,1.54,18.77,18.77,0,0,1-8.6-2.07,24,24,0,0,1-7-5.24l-.18-.2a1.19,1.19,0,0,0-1.74,0L64.65,62.8a1.19,1.19,0,0,0,0,1.69l.19.17a43.25,43.25,0,0,0,12.34,8.1,35.67,35.67,0,0,0,14.22,2.9A28.09,28.09,0,0,0,101,74a26.4,26.4,0,0,0,8.08-4.6,23,23,0,0,0,5.61-7.12,20.38,20.38,0,0,0,2.12-9.3A19.82,19.82,0,0,0,114.2,42.38Z"/><path class="cls-2" d="M168.14,42.38a23.76,23.76,0,0,0-6.46-6.89,38.65,38.65,0,0,0-8.13-4.4c-2.8-1.12-5.43-2.19-7.81-3.18A26.49,26.49,0,0,1,140,24.75a4.14,4.14,0,0,1-1.85-3.5,4.78,4.78,0,0,1,.73-2.7,6.06,6.06,0,0,1,2-1.92,11.39,11.39,0,0,1,3.14-1.2,16.3,16.3,0,0,1,9.86.79,15.47,15.47,0,0,1,4.95,3l.21.21a1.19,1.19,0,0,0,1.79-.18l7.39-10.56A1.18,1.18,0,0,0,168,7.1l-.2-.15a34,34,0,0,0-10.51-5.43A38.66,38.66,0,0,0,146.4,0a30.24,30.24,0,0,0-9.08,1.38,24.27,24.27,0,0,0-7.89,4.14,22.22,22.22,0,0,0-5.63,6.7,18.85,18.85,0,0,0-2.2,9.13A17.15,17.15,0,0,0,124.83,32a25.75,25.75,0,0,0,7.48,6.63,43.35,43.35,0,0,0,7.79,3.66,69.77,69.77,0,0,1,7.18,3,21,21,0,0,1,5.21,3.45,5.38,5.38,0,0,1,1.63,2.95,7.35,7.35,0,0,1-3.06,7.42,9.8,9.8,0,0,1-5.67,1.54,18.84,18.84,0,0,1-8.61-2.07,24.06,24.06,0,0,1-7-5.24l-.18-.2a1.19,1.19,0,0,0-1.74,0l-9.26,9.68a1.19,1.19,0,0,0,0,1.69l.19.17a43.12,43.12,0,0,0,12.34,8.1,35.67,35.67,0,0,0,14.22,2.9A28.09,28.09,0,0,0,155,74a26.23,26.23,0,0,0,8.07-4.6,22.83,22.83,0,0,0,5.62-7.12,20.38,20.38,0,0,0,2.12-9.3A19.82,19.82,0,0,0,168.14,42.38Z"/></g></g></svg>