<svg xmlns="http://www.w3.org/2000/svg" viewBox="0 0 228.15 49.69"><title>logo_english</title><circle cx="26.53" cy="25.28" r="15.21" fill="#7ec143"/><polygon points="18.6 25.79 31.21 18.01 32.3 25.79 31.25 33.82 18.6 25.79" fill="#3278bc"/><path d="M32.13,37.23a74,74,0,0,1-6.39,12c-1.26,1.92,1.89-3,5.14-12.08A4.26,4.26,0,0,0,32.13,37.23Z" fill="#7ec143"/><path d="M35,15.7A58.62,58.62,0,0,0,40.81,7c0.85-1.57-1.32,2.38-6.21,7.86A3.58,3.58,0,0,1,35,15.7Z" fill="#7ec143"/><path d="M31.3,36.49A59.18,59.18,0,0,1,38.07,45c1,1.54-1.56-2.33-7.2-7.63A3.4,3.4,0,0,0,31.3,36.49Z" fill="#7ec143"/><path d="M33.74,13.54A77.1,77.1,0,0,0,28,1.54c-1.13-1.92,1.7,3,4.64,12.08A3.46,3.46,0,0,1,33.74,13.54Z" fill="#7ec143"/><path d="M13.43,24.57A58.62,58.62,0,0,0,3.26,22c-1.76-.29,2.68.47,9.47,3.27A3.58,3.58,0,0,1,13.43,24.57Z" fill="#7ec143"/><path d="M15.13,28.93A73.07,73.07,0,0,1,1.67,30.59c-2.26.07,3.45-.14,13-2.73A3.66,3.66,0,0,0,15.13,28.93Z" fill="#7ec143"/><path d="M1,21.69s21.21,0,40.1,26.4C41.08,48.09,31.12,21.79,1,21.69Z" fill="#fff"/><path d="M26.81,0S38,18,25.43,48C25.47,48,42.59,25.69,26.81,0Z" fill="#fff"/><path d="M41,4.91s-9,19.19-41,25C0,29.87,28,32.1,41,4.91Z" fill="#fff"/><path d="M64,17.79a6.5,6.5,0,0,0-3.12-.85A3.87,3.87,0,0,0,61,24.68a6.48,6.48,0,0,0,3.12-.89V24.5a6.7,6.7,0,0,1-3.11.82,4.46,4.46,0,0,1-4.66-4.26q0-.11,0-0.22a4.52,4.52,0,0,1,4.53-4.51h0.07a7.44,7.44,0,0,1,3.08.73v0.73Z" fill="#00529b"/><path d="M70.29,22.34a2.28,2.28,0,1,1,0-.11S70.29,22.3,70.29,22.34Zm0.66,0a2.94,2.94,0,1,0-2.93,3A2.89,2.89,0,0,0,71,22.49Q71,22.42,71,22.34Z" fill="#00529b"/><path d="M73,20.46h0a2,2,0,0,1,1.84-1.13,1.88,1.88,0,0,1,1.86,1.39,2.27,2.27,0,0,1,2-1.39,2.06,2.06,0,0,1,2,2.34v3.55H80.14V21.94c0-1.16-.49-2-1.5-2-0.71,0-1.17.39-1.75,1.35v3.93H76.27V21.93c0-1.43-.71-2-1.52-2A2,2,0,0,0,73,21.16v4H72.4V19.45H73v1h0Z" fill="#00529b"/><path d="M83.05,20.46h0a2,2,0,0,1,1.84-1.13,1.88,1.88,0,0,1,1.92,1.39,2.27,2.27,0,0,1,2-1.39,2.06,2.06,0,0,1,2,2.34v3.55H90.17V21.94c0-1.16-.49-2-1.5-2-0.71,0-1.17.39-1.75,1.35v3.93H86.3V21.93c0-1.43-.71-2-1.52-2a2,2,0,0,0-1.73,1.23v4H82.44V19.45h0.62v1h0Z" fill="#00529b"/><path d="M93.22,25.22H92.6V19.45h0.62v5.77Zm0-7.71H92.6V16.45h0.62v1h0Z" fill="#00529b"/><path d="M98.22,20.49a2.73,2.73,0,0,0-1.58-.59,1.11,1.11,0,0,0-1.23,1v0c0,1.39,3,.86,3,2.87a1.73,1.73,0,0,1-1.86,1.59h0a3.24,3.24,0,0,1-1.71-.57v-0.6a3.8,3.8,0,0,0,1.81.53,1.08,1.08,0,0,0,1.21-.93V23.72c0-1.37-3-1-3-2.81a1.72,1.72,0,0,1,1.85-1.58h0a3,3,0,0,1,1.54.49v0.67h0Z" fill="#00529b"/><path d="M102.89,20.49a2.72,2.72,0,0,0-1.58-.59,1.11,1.11,0,0,0-1.23,1v0c0,1.39,3,.86,3,2.87a1.73,1.73,0,0,1-1.86,1.59h0a3.24,3.24,0,0,1-1.73-.53v-0.6a3.8,3.8,0,0,0,1.81.53,1.08,1.08,0,0,0,1.21-.93V23.76c0-1.37-3-1-3-2.81a1.72,1.72,0,0,1,1.85-1.58h0a3,3,0,0,1,1.54.49v0.63Z" fill="#00529b"/><path d="M105.12,25.22H104.5V19.45h0.62v5.77Zm0-7.71H104.5V16.45h0.62v1h0Z" fill="#00529b"/><path d="M111.9,22.34a2.27,2.27,0,1,1,0-.13S111.9,22.3,111.9,22.34Zm0.66,0a2.94,2.94,0,1,0-2.93,3,2.89,2.89,0,0,0,2.93-2.85Q112.56,22.42,112.56,22.34Z" fill="#00529b"/><path d="M114.65,20.45h0a2.07,2.07,0,0,1,1.9-1.12,2.1,2.1,0,0,1,2.15,2.36v3.52h-0.59V21.93c0-1.3-.55-2-1.57-2a2.1,2.1,0,0,0-1.89,1.23v4H114V19.45h0.62v1Z" fill="#00529b"/><path d="M127.63,17.16a2.89,2.89,0,0,0-1-.22c-1,0-1.4.57-1.4,1.79v0.72h1.12V20h-1.12v5.27h-0.62V20h-1.07v-0.5h1.07v-1a2,2,0,0,1,1.83-2.15h0.17a2.57,2.57,0,0,1,1.05.24v0.58Z" fill="#00529b"/><path d="M132.21,22.34a2.28,2.28,0,1,1,0-.11S132.21,22.3,132.21,22.34Zm0.66,0a2.94,2.94,0,1,0-2.93,3,2.89,2.89,0,0,0,2.92-2.86s0-.09,0-0.14h0Z" fill="#00529b"/><path d="M138,20.59a1.78,1.78,0,0,0-1.16-.66c-0.57,0-1.22.59-1.85,1.66v3.62h-0.62V19.45H135V21h0c0.68-1.08,1.37-1.63,2-1.63a2,2,0,0,1,1.32.68Z" fill="#00529b"/><path d="M64.81,38.79a6.8,6.8,0,0,1-3.44.87c-3.41,0-5.1-2.21-5.1-4.47s1.91-4.52,5.27-4.52a6.18,6.18,0,0,1,3.17.77v2a6.12,6.12,0,0,0-3-.9c-1.86,0-3.17,1.11-3.17,2.66a2.83,2.83,0,0,0,3.12,2.69,6.81,6.81,0,0,0,3.17-1v1.9h0Z" fill="#00529b"/><path d="M70.81,36.57c0,1.3-.46,2-1.34,2-0.71,0-1.36-.45-1.36-2,0-1.34.55-2,1.36-2S70.81,35.42,70.81,36.57Zm2,0.05a3.35,3.35,0,1,0-3.62,3.06h0.29a3.07,3.07,0,0,0,3.32-2.8Q72.81,36.76,72.81,36.62Z" fill="#00529b"/><path d="M76.05,34.41a3.82,3.82,0,0,1,1-.67,2.77,2.77,0,0,1,1.07-.21,2.15,2.15,0,0,1,2.12,1.26,3,3,0,0,1,2.34-1.26,2.17,2.17,0,0,1,2.31,2.26v3.8H83V36.11a1.12,1.12,0,0,0-.9-1.3l-0.19,0a1.83,1.83,0,0,0-1.47,1v3.79H78.61V36.07a1.11,1.11,0,0,0-.93-1.27h-0.2a1.93,1.93,0,0,0-1.43.82v4H74.19V33.66h1.86v0.76h0Z" fill="#00529b"/><path d="M88.43,34.41a3.83,3.83,0,0,1,1-.67,2.77,2.77,0,0,1,1.07-.21,2.15,2.15,0,0,1,2.11,1.26A3,3,0,0,1,95,33.53a2.17,2.17,0,0,1,2.32,2.26v3.8H95.41V36.11a1.12,1.12,0,0,0-.9-1.3l-0.2,0a1.83,1.83,0,0,0-1.5,1v3.79H91V36.07A1.11,1.11,0,0,0,90,34.8H89.81a1.93,1.93,0,0,0-1.43.82v4H86.56V33.66h1.86v0.76h0Z" fill="#00529b"/><path d="M102.81,38.73a2.38,2.38,0,0,1-1.91,1,2.06,2.06,0,0,1-2.09-2.28V33.66h1.86v3.66a1,1,0,0,0,.86,1.12h0.08a1.42,1.42,0,0,0,1.27-1V33.66h1.88v5.92h-1.95V38.73Z" fill="#00529b"/><path d="M108.19,34.5a2.39,2.39,0,0,1,1.93-1,2.07,2.07,0,0,1,2.16,2.29v3.76h-1.87V36a1,1,0,0,0-.8-1.16l-0.13,0a1.59,1.59,0,0,0-1.3,1v3.82h-1.86V33.66h1.86v0.85h0Z" fill="#00529b"/><path d="M115.81,39.58H114V33.66h1.86v5.92Zm0.09-7.85a1,1,0,1,1-1-1,1,1,0,0,1,1,1h0Z" fill="#00529b"/><path d="M122.61,39.3a5.78,5.78,0,0,1-2,.4c-2.08,0-3.43-1.21-3.43-3.06a3.11,3.11,0,0,1,3.11-3.11h0.24a6.15,6.15,0,0,1,2,.39v1.39a3.43,3.43,0,0,0-1.52-.4,1.73,1.73,0,0,0-.06,3.46,4.57,4.57,0,0,0,1.67-.41v1.34h0Z" fill="#00529b"/><path d="M127.35,38.14a1.58,1.58,0,0,1-1,.45,0.62,0.62,0,0,1-.6-0.63c0-.59.53-0.85,1.63-1.25v1.43h0Zm2.88,0a1.21,1.21,0,0,1-.71.33c-0.19,0-.31-0.12-0.31-0.41v-2.7c0-1.3-1-1.8-2.51-1.8a4.82,4.82,0,0,0-2.57.72v1.51a3.24,3.24,0,0,1,2.18-1,0.87,0.87,0,0,1,1,1c-2.48.77-3.52,1.05-3.52,2.47a1.58,1.58,0,0,0,1.66,1.45,3.31,3.31,0,0,0,2-.67,0.89,0.89,0,0,0,1,.67,3.89,3.89,0,0,0,1.75-.54v-1Z" fill="#00529b"/><path d="M135.32,34.93h-2.16v2.44a0.86,0.86,0,0,0,.71,1h0.2a2.59,2.59,0,0,0,1.25-.35v1.35a4.22,4.22,0,0,1-1.72.37,2,2,0,0,1-2.3-2.22V34.93h-0.85V34.57l2.48-2.78h0.23v1.86h2.16v1.27h0Z" fill="#00529b"/><path d="M138.5,39.58h-1.86V33.66h1.86v5.92Zm0.09-7.85a1,1,0,1,1-1-1A1,1,0,0,1,138.59,31.73Z" fill="#00529b"/><path d="M144.54,36.57c0,1.3-.46,2-1.34,2-0.71,0-1.36-.45-1.36-2,0-1.34.55-2,1.36-2S144.54,35.42,144.54,36.57Zm2,0.05a3.35,3.35,0,1,0-3.62,3.06h0.29a3.07,3.07,0,0,0,3.31-2.81q0-.13,0-0.26h0Z" fill="#00529b"/><path d="M149.71,34.5a2.39,2.39,0,0,1,1.93-1,2.07,2.07,0,0,1,2.17,2.29v3.76H152V36a1,1,0,0,0-.8-1.16l-0.14,0a1.59,1.59,0,0,0-1.3,1v3.82h-1.9V33.66h1.86v0.85h0Z" fill="#00529b"/><path d="M159.47,35.3a4.16,4.16,0,0,0-2-.66,0.55,0.55,0,0,0-.66.41v0c0,0.69,3,.69,3,2.69,0,1.23-.87,1.93-2.42,1.93a5.38,5.38,0,0,1-2.12-.44V38a4.81,4.81,0,0,0,1.91.5c0.55,0,.9-0.17.9-0.44,0-.86-2.94-0.71-2.94-2.65,0-1.09,1-1.82,2.45-1.82a4,4,0,0,1,1.91.44V35.3h0Z" fill="#00529b"/><path d="M167,32.42h1.11a1,1,0,1,1,.27,2l-0.21,0H167v-2h0Zm-2.17-1.63v8.76H167V36h0.63c1.18,0,1.53,1.68,2.47,3.56h2.4c-1.23-2.57-1.5-3.65-2.4-4.1a2.27,2.27,0,0,0,1.5-2.15,2.63,2.63,0,0,0-2.71-2.55h-4.07Z" fill="#00529b"/><path d="M175,35.94a1.26,1.26,0,0,1,1.22-1.3h0.07a1.27,1.27,0,0,1,1.29,1.25s0,0,0,.05H175Zm4.11,1.8a3.48,3.48,0,0,1-2.2.85,1.73,1.73,0,0,1-2-1.67h4.25a3.1,3.1,0,1,0-6.18-.28c0,1.85,1.35,3.06,3.43,3.06a4.29,4.29,0,0,0,2.65-.78V37.79Z" fill="#00529b"/><path d="M182.12,35.84a1.06,1.06,0,0,1,1.07-1.05h0a1,1,0,0,1,1.07.93s0,0,0,.07a1.1,1.1,0,0,1-1.07,1.13h0A1.08,1.08,0,0,1,182.12,35.84Zm4.43-2.18H183c-2.13,0-2.65,1.43-2.65,2.16A1.89,1.89,0,0,0,182,37.64h0a1.11,1.11,0,0,0-1.08.87,0.83,0.83,0,0,0,.72.77h0c-1.31.33-1.58,1-1.58,1.48,0,0.78.67,1.72,3.16,1.72,1.91,0,3.13-.62,3.13-2a1.62,1.62,0,0,0-.48-1.14c-1-1-3.24-.4-3.24-1.08s1.72-.08,2.78-1.13a1.82,1.82,0,0,0,.54-1.3,1.87,1.87,0,0,0-.3-1h0.85V33.66h0Zm-1.86,7c0,0.4-.51.75-1.34,0.75-1,0-1.53-.24-1.53-0.69s0.54-.71,1.41-0.71,1.46,0.25,1.46.68v0Z" fill="#00529b"/><path d="M191.62,38.73a2.38,2.38,0,0,1-1.91,1,2.06,2.06,0,0,1-2.17-2.25V33.66h1.86v3.66a1,1,0,0,0,.86,1.12h0.08a1.42,1.42,0,0,0,1.27-1V33.66h1.88v5.92h-1.86V38.73h0Z" fill="#00529b"/><path d="M197,39.58h-1.86V30.79H197v8.79Z" fill="#00529b"/><path d="M201.81,38.14a1.57,1.57,0,0,1-1,.45,0.62,0.62,0,0,1-.6-0.63c0-.59.53-0.85,1.63-1.25v1.43h0Zm2.88,0a1.2,1.2,0,0,1-.71.33c-0.19,0-.31-0.12-0.31-0.41v-2.7c0-1.3-1-1.8-2.51-1.8a4.82,4.82,0,0,0-2.57.72v1.51a3.24,3.24,0,0,1,2.22-1,0.87,0.87,0,0,1,1,1c-2.48.77-3.52,1.05-3.52,2.47A1.58,1.58,0,0,0,200,39.71a3.31,3.31,0,0,0,2-.67,0.89,0.89,0,0,0,1,.67,3.88,3.88,0,0,0,1.75-.54v-1Z" fill="#00529b"/><path d="M209.81,34.93h-2.16v2.44a0.86,0.86,0,0,0,.71,1h0.2a2.59,2.59,0,0,0,1.25-.35v1.35a4.22,4.22,0,0,1-1.72.37,2,2,0,0,1-2.3-2.22V34.93h-0.88V34.57l2.48-2.78h0.23v1.86h2.19v1.27h0Z" fill="#00529b"/><path d="M213,39.58h-1.86V33.66H213v5.92Zm0.09-7.85a1,1,0,1,1-1-1A1,1,0,0,1,213.06,31.73Z" fill="#00529b"/><path d="M219,36.57c0,1.3-.46,2-1.34,2-0.71,0-1.36-.45-1.36-2,0-1.34.55-2,1.36-2S219,35.42,219,36.57Zm2,0.05a3.35,3.35,0,1,0-3.62,3.06h0.29A3.07,3.07,0,0,0,221,36.88q0-.13,0-0.26h0Z" fill="#00529b"/><path d="M224.17,34.5a2.39,2.39,0,0,1,1.93-1,2.07,2.07,0,0,1,2.16,2.29v3.76H226.4V36a1,1,0,0,0-.8-1.17h-0.12a1.59,1.59,0,0,0-1.3,1v3.82h-1.87V33.66h1.86v0.85h0Z" fill="#00529b"/></svg>