<svg xmlns="http://www.w3.org/2000/svg" width="182" height="41.9" viewBox="0 0 182 41.9"><path d="M134.8,339.276a14.584,14.584,0,0,1,22.9-11.77l.94.659v-2.935h6.006v27.824h-6.006v-2.636l-.94.659a14.583,14.583,0,0,1-22.9-11.8m5.854-.03a8.979,8.979,0,1,0,8.979-8.865A8.922,8.922,0,0,0,140.654,339.246Z" transform="translate(-101.979 -311.782)" fill="#2b2b2e"/><path d="M243,339.276a14.584,14.584,0,0,1,22.9-11.77l.94.659v-2.935h6.006v27.824h-6.006v-2.636l-.94.659a14.583,14.583,0,0,1-22.9-11.8m5.854-.03a8.979,8.979,0,1,0,8.979-8.865A8.922,8.922,0,0,0,248.854,339.246Z" transform="translate(-177.359 -311.782)" fill="#2b2b2e"/><path d="M56.448,286.1v39.744H50.442v-2.636l-.94.659a14.376,14.376,0,1,1,0-23.541l.94.659V286.13c.94-.03,5.066-.03,6.006-.03M32.454,312.067a8.979,8.979,0,1,0,8.979-8.865A8.941,8.941,0,0,0,32.454,312.067Z" transform="translate(-26.6 -284.603)" fill="#2b2b2e"/><path d="M480.826,316.5h28.362a5.924,5.924,0,0,0-5.945-5.9H480.735a38.385,38.385,0,0,1,.091,5.9m34.307,8.835a5.931,5.931,0,0,0-5.976-5.9h-28.7a38.779,38.779,0,0,1-1.365,5.9Zm-5.915,8.835a5.924,5.924,0,0,0-5.945-5.9H478.036a35.765,35.765,0,0,1-3.185,5.9ZM466.6,343.006h33.64a5.95,5.95,0,0,0-5.976-5.9h-21.6A37.462,37.462,0,0,1,466.6,343.006Z" transform="translate(-333.133 -301.765)" fill="#2b2b2e"/><path d="M405.072,281.1H387.63a25.15,25.15,0,0,0-15.015,5.9H399.1a5.931,5.931,0,0,0,5.976-5.9m-42.8,20.725c-3.337,10.722.7,20.336,11.132,20.516,7.887,0,12.952-2.755,17.5-5.9a142.984,142.984,0,0,1-29.09-2.965h32.79a32.364,32.364,0,0,0,5.035-5.9,243.942,243.942,0,0,1-37.977-2.965H401.4a30.512,30.512,0,0,0,2.4-5.9,253.693,253.693,0,0,1-38.705-2.965h39.433a34.135,34.135,0,0,0,.607-5.9,178.853,178.853,0,0,1-32.517-2.935A32.539,32.539,0,0,0,362.272,301.825Z" transform="translate(-259.654 -281.1)" fill="#2b2b2e"/></svg>