<svg xmlns="http://www.w3.org/2000/svg" width="180.427" height="64.811" viewBox="0 0 180.427 64.811"><g transform="translate(76.026 4.758)"><path d="M207,80.522a3.518,3.518,0,0,1-3.756,3.5c-1.528,0-2.546-.764-2.546-1.91,0-1.209.891-2.037,2.483-2.037H207Zm6.684,2.674a1.548,1.548,0,0,1-1.91-1.464l.064-5.156v-.318C211.651,71.546,208.723,69,204.2,69a9.614,9.614,0,0,0-7.766,3.692l2.546,2.992c1.591-1.719,2.865-2.419,4.711-2.419,2.164,0,3.31,1.146,3.31,3.119v.255h-4.456c-4.138,0-6.748,2.419-6.748,5.6,0,3.119,2.355,5.347,6.175,5.347a8.538,8.538,0,0,0,5.793-2.483c.318,1.464,1.464,2.164,3.247,2.355a3.906,3.906,0,0,0,2.164-.318Z" transform="translate(-148.756 -31.76)" fill="#2b2b2e"/><path d="M233.885,31.546a3.619,3.619,0,0,0-3.82-3.565,4.446,4.446,0,0,0-4.265,3.565ZM225.8,34.984c.573,2.292,2.419,3.5,4.965,3.5a8.182,8.182,0,0,0,4.965-1.782l2.037,3.31a10.8,10.8,0,0,1-7.13,2.674,9.3,9.3,0,0,1-9.74-9.294,9.108,9.108,0,0,1,9.294-9.294,8.133,8.133,0,0,1,8.4,8.276,12.778,12.778,0,0,1-.318,2.674H225.8Z" transform="translate(-157.876 -15.441)" fill="#2b2b2e"/><path d="M165.785,76.846a3.619,3.619,0,0,0-3.82-3.565,4.446,4.446,0,0,0-4.265,3.565ZM157.7,80.284c.573,2.292,2.419,3.5,4.965,3.5A8.182,8.182,0,0,0,167.631,82l2.037,3.31a10.8,10.8,0,0,1-7.13,2.674,9.3,9.3,0,0,1-9.74-9.294,9.108,9.108,0,0,1,9.294-9.294,8.133,8.133,0,0,1,8.4,8.276,12.778,12.778,0,0,1-.318,2.674H157.7Z" transform="translate(-133.128 -31.904)" fill="#2b2b2e"/><path d="M176,19.285h4.838V37.045H176Zm2.419-8.785a2.995,2.995,0,1,1-3.119,2.992,3.018,3.018,0,0,1,3.119-2.992" transform="translate(-141.306 -10.5)" fill="#2b2b2e"/><path d="M188.9,15.546l4.838-1.146V38.463H188.9Z" transform="translate(-146.248 -11.917)" fill="#2b2b2e"/><path d="M121.9,58h4.838V83.145H121.9Z" transform="translate(-121.9 -27.762)" fill="#2b2b2e"/><path d="M183.9,60.846l4.9-1.146V83.763h-4.9Z" transform="translate(-144.431 -28.38)" fill="#2b2b2e"/><path d="M243.66,87.143h-4.838V76.766a3.209,3.209,0,0,0-3.31-3.438,3.259,3.259,0,0,0-3.374,3.438V87.143H227.3V70.464l4.456-1.082V71.61a7.8,7.8,0,0,1,5.22-2.61c4.138,0,6.684,2.865,6.684,7.13Z" transform="translate(-160.203 -31.76)" fill="#2b2b2e"/><path d="M265.885,70.013a4.571,4.571,0,0,0-4.583,4.9c0,2.992,1.973,4.9,4.583,4.9,2.419,0,4.52-1.719,4.52-4.9s-2.037-4.9-4.52-4.9M275.179,59.7V83.763h-4.456V81.6a6.692,6.692,0,0,1-5.729,2.61c-4.965,0-8.594-3.947-8.594-9.294s3.692-9.294,8.594-9.294a6.953,6.953,0,0,1,5.347,2.1V60.846Z" transform="translate(-170.779 -28.38)" fill="#2b2b2e"/><path d="M162.7,10.9h-4.329L156.4,16.566h2.61l3.565-4.774Z" transform="translate(-134.438 -10.645)" fill="#2b2b2e"/><path d="M146.286,69.555a3.978,3.978,0,0,0-1.591-.255c-1.973,0-3.82,1.655-4.965,3.119l.127-2.865L135.4,70.637V87.379h4.838V78.4c0-3.056,1.846-4.647,4.774-4.647h.637Z" transform="translate(-126.806 -31.869)" fill="#2b2b2e"/><path d="M156.268,35.222a3.518,3.518,0,0,1-3.756,3.5c-1.528,0-2.546-.764-2.546-1.91s.891-2.037,2.483-2.037h3.82Zm6.621,2.674a1.548,1.548,0,0,1-1.91-1.464l.064-5.156v-.318c-.127-4.711-3.119-7.257-7.575-7.257a9.614,9.614,0,0,0-7.766,3.692l2.483,2.992c1.591-1.719,2.865-2.419,4.711-2.419,2.164,0,3.31,1.146,3.31,3.119v.382h-4.456c-4.138,0-6.748,2.419-6.748,5.6,0,3.119,2.355,5.347,6.175,5.347a8.538,8.538,0,0,0,5.793-2.483c.318,1.464,1.528,2.164,3.247,2.355a3.906,3.906,0,0,0,2.164-.318Z" transform="translate(-130.295 -15.297)" fill="#2b2b2e"/><path d="M212.032,35.633a4.375,4.375,0,0,1-1.4.191c-2.292,0-2.928-.955-2.928-2.928v-7h4.265l.637-4.074h-4.9V17.3l-4.838,1.082V21.82H200v4.074h2.8v7.448c0,4.456,2.61,6.811,7.13,6.684a4.749,4.749,0,0,0,1.528-.255Z" transform="translate(-150.282 -12.971)" fill="#2b2b2e"/></g><path d="M14.261,13.386c-6.812,8.721-6.048,21.071.255,30.556V44a.062.062,0,0,0-.064-.064c-.764-11.076,4.011-25.209,15.406-31.7a29.623,29.623,0,0,1,31.957,1.591c-7-8.657-17.888-12.1-28.647-10.376-7,1.082-14.387,4.138-18.907,9.931Z" transform="translate(-5.013 -3.025)" fill="#2b2b2e"/><path d="M27.826,80.841c10.949,1.528,21.262-5.284,26.355-15.533v-.064a.062.062,0,0,1-.064.064c-9.231,6.175-23.872,9.167-35.14,2.546A29.722,29.722,0,0,1,5.864,51.877,28.583,28.583,0,0,1,4.4,39.4C.389,49.776,2.872,60.916,9.684,69.383c4.52,5.538,10.822,10.44,18.143,11.458Z" transform="translate(-2.473 -16.245)" fill="#2b2b2e"/><path d="M88.4,31.215C84.135,21.03,72.995,15.555,61.664,16.446h0c10.058,4.774,20.053,15.914,20.053,28.964A30.179,30.179,0,0,1,74.65,64.89a29.33,29.33,0,0,1-9.994,7.575C75.605,70.619,83.944,62.789,87.764,52.6,90.247,45.984,91.265,38.026,88.4,31.215Z" transform="translate(-23.96 -7.869)" fill="#2b2b2e"/><path d="M40.275,43.032l.318-.509C38.938,40.995,36.9,39.085,35.946,38a6.988,6.988,0,0,1-1.655-4.583,5.375,5.375,0,0,1,5.6-5.22,5.456,5.456,0,0,1,4.52,2.355A5.391,5.391,0,0,1,49,28.327a5.449,5.449,0,0,1,5.475,5.347,6.638,6.638,0,0,1-1.719,4.52c-1.019,1.019-3.056,2.928-4.774,4.392l.382.7.255.446c2.164-.7,4.838-1.528,6.239-1.846a6.715,6.715,0,0,1,4.774.891,5.415,5.415,0,0,1,1.782,7.448,5.693,5.693,0,0,1-4.265,2.8,5.573,5.573,0,0,1-.318,5.093,5.467,5.467,0,0,1-7.384,2.1,6.822,6.822,0,0,1-3.119-3.756c-.382-1.4-1.019-4.138-1.464-6.3H43.585c-.509,2.228-1.146,4.9-1.591,6.3a6.8,6.8,0,0,1-3.183,3.692A5.549,5.549,0,0,1,31.3,52.835a5.557,5.557,0,0,1-2.228-10.249,6.754,6.754,0,0,1,4.774-.764c1.4.318,4.074,1.209,6.175,1.973Z" transform="translate(-11.165 -12.174)" fill="#2b2b2e"/><path d="M126.738,15.611h10.695l.637-4.711H121.9V37.191h4.838V26.433h8.849V22.04h-8.849Z" transform="translate(-45.874 -5.887)" fill="#2b2b2e"/></svg>