<svg xmlns="http://www.w3.org/2000/svg" width="580.528" height="156.502" viewBox="0 0 580.528 156.502">
  <g id="Group_626" data-name="Group 626" transform="translate(-16.873 -23.1)">
    <g id="Group_7" data-name="Group 7" transform="translate(191.95 23.1)">
      <g id="Group_6" data-name="Group 6">
        <path id="Path_57" data-name="Path 57" d="M90.319,39.356h26.393V51.44a45.092,45.092,0,0,1,15.046-11.118A43.962,43.962,0,0,1,149.8,36.646a33.56,33.56,0,0,1,17.8,4.834A34.981,34.981,0,0,1,180.377,55.6,42.638,42.638,0,0,1,195.809,41.48a42.105,42.105,0,0,1,19.981-4.834,37,37,0,0,1,19.735,5.223A30.165,30.165,0,0,1,247.763,55.5q3.729,8.413,3.726,27.363v61.684H224.9V91.177q0-17.885-4.451-24.219t-13.339-6.334a20.253,20.253,0,0,0-12.136,3.869A22.852,22.852,0,0,0,187,75.177q-2.61,6.815-2.608,21.9v47.47H157.8V93.594q0-14.113-2.083-20.45t-6.248-9.425a16.449,16.449,0,0,0-10.083-3.094,19.854,19.854,0,0,0-11.966,3.916,23.342,23.342,0,0,0-8.045,10.975q-2.66,7.058-2.665,22.236v46.8H90.319Z" transform="translate(-90.319 -4.356)" fill="#2d3844"/>
        <path id="Path_58" data-name="Path 58" d="M168.518,23.1h26.2V68.734a60.079,60.079,0,0,1,15.564-10.007,40.147,40.147,0,0,1,15.859-3.337,35.71,35.71,0,0,1,26.39,10.832q9.186,9.379,9.189,27.554v69.515H235.713V117.172q0-18.271-1.74-24.75t-5.947-9.668a16.7,16.7,0,0,0-10.393-3.192,19.593,19.593,0,0,0-13.778,5.318q-5.753,5.321-7.976,14.5-1.162,4.738-1.159,21.656v42.252h-26.2Z" transform="translate(17.889 -23.1)" fill="#2d3844"/>
        <path id="Path_59" data-name="Path 59" d="M323.156,60.624,301.183,72.71q-6.2-6.475-12.245-8.992a36.835,36.835,0,0,0-14.181-2.512q-14.814,0-23.959,8.834t-9.146,22.634q0,13.419,8.81,21.914t23.132,8.493q17.717,0,27.589-12.086L322,125.247q-16.92,22.008-47.761,22.007-27.747,0-43.46-16.436T215.063,92.337A54.172,54.172,0,0,1,244.021,44a63.622,63.622,0,0,1,30.6-7.349,62.036,62.036,0,0,1,28.133,6.238A53.407,53.407,0,0,1,323.156,60.624Z" transform="translate(82.295 -4.356)" fill="#2d3844"/>
      </g>
    </g>
    <g id="Group_8" data-name="Group 8" transform="translate(16.873 40.671)">
      <path id="Path_60" data-name="Path 60" d="M77.383,37.392C47.7,37.406,23.794,61.837,23.794,91.52v43.942a1.945,1.945,0,0,0,.465,1.263,69.759,69.759,0,0,0,6.167,6.312.97.97,0,0,0,1.616-.725V91A45.363,45.363,0,0,1,77.562,45.64c25.075.081,45.21,20.779,45.21,45.854v50.819a.971.971,0,0,0,1.616.725,69.759,69.759,0,0,0,6.167-6.312,1.945,1.945,0,0,0,.465-1.263V91A53.61,53.61,0,0,0,77.383,37.392Z" transform="translate(-7.296 -20.894)" fill="#0ae6c1"/>
      <path id="Path_61" data-name="Path 61" d="M76.775,80.078a20.62,20.62,0,0,0-39.124,8.26c-.01.267-.017.541-.017.813v24.7a1.444,1.444,0,0,0,1.037,1.39q2.986.869,6.069,1.473a.966.966,0,0,0,1.147-.951V89.151a12.372,12.372,0,0,1,24.743,0v26.612a.967.967,0,0,0,1.147.951q3.082-.6,6.062-1.468a1.445,1.445,0,0,0,1.039-1.392v-24.7c0-.272-.007-.541-.019-.808A20.4,20.4,0,0,0,76.775,80.078Z" transform="translate(11.855 22.199)" fill="#0ae6c1"/>
      <path id="Path_62" data-name="Path 62" d="M67.951,44.311A37.119,37.119,0,0,0,30.715,81.428v58.941a.969.969,0,0,0,.46.825,68.226,68.226,0,0,0,6.4,3.495.969.969,0,0,0,1.392-.87V81.428a28.868,28.868,0,1,1,57.734.362v62.027a.969.969,0,0,0,1.392.87,69.02,69.02,0,0,0,6.4-3.487.971.971,0,0,0,.458-.827V81.824C104.942,61.31,88.466,44.375,67.951,44.311Z" transform="translate(2.281 -11.32)" fill="#0ae6c1"/>
      <path id="Path_63" data-name="Path 63" d="M65.808,66.165a12.372,12.372,0,1,0-12.341,13.27A12.41,12.41,0,0,0,65.808,66.165Z" transform="translate(16.645 3.045)" fill="#0ae6c1"/>
      <path id="Path_64" data-name="Path 64" d="M157.094,100.579A70.111,70.111,0,1,0,23.276,129.89a.97.97,0,0,0,1.85-.408V101.109c0-34.083,27.885-62.447,61.968-62.39a61.858,61.858,0,0,1,61.749,61.861v28.9a.969.969,0,0,0,1.85.405A69.847,69.847,0,0,0,157.094,100.579Z" transform="translate(-16.873 -30.471)" fill="#0ae6c1"/>
    </g>
  </g>
</svg>
