<svg xmlns="http://www.w3.org/2000/svg" width="136.851" height="79.156" viewBox="0 0 136.851 79.156">
  <g id="M46dc0c569e5c4206b0bc16c51130c5331651144869511" transform="translate(0.3 -0.413)">
    <g id="Group_1600" data-name="Group 1600" transform="translate(-0.3 0.413)">
      <g id="Group_1596" data-name="Group 1596">
        <g id="Artwork_1_5_">
          <g id="Group_1595" data-name="Group 1595">
            <g id="Group_1594" data-name="Group 1594">
              <path id="Path_6331" data-name="Path 6331" d="M-.3,23.206l1.432,1.326c17.5-18.5,32.662-19.353,51.167-14C33.793,3.905,18.152,3.216-.3,23.206m106.946-4.825C73.242,4.542,46.943-6.328,21.6,5.39,36.975.883,51.98,7.3,69.371,14.775c5.779,2.492,11.718,5.037,18.134,7.423l1.326-3.606c-4.507-1.644-8.749-3.287-12.937-4.878C60.2,7.617,46.731,2.474,33.74,2.686c21.421-4.348,44.7,5.143,73.065,16.755C116.19,23.259,125.84,27.235,136.233,31l.318-.848C126,26.334,116.137,22.3,106.646,18.381" transform="translate(0.3 -0.413)" fill="#2b2b2e"/>
            </g>
          </g>
        </g>
      </g>
      <g id="Group_1599" data-name="Group 1599" transform="translate(4.719 24.172)">
        <g id="Group_1597" data-name="Group 1597" transform="translate(27.784)">
          <path id="Path_6332" data-name="Path 6332" d="M69.643,53.635H61V46H86.027v7.635H77.384V73.784H69.7Z" transform="translate(-61 -46)" fill="#2b2b2e"/>
        </g>
        <path id="Path_6333" data-name="Path 6333" d="M25.938,46V60.157L16.023,46H8.6V73.784h7.635V59.627L26.15,73.784h7.476V46Z" transform="translate(-8.6 -46)" fill="#2b2b2e"/>
        <g id="Group_1598" data-name="Group 1598" transform="translate(50.053)">
          <path id="Path_6334" data-name="Path 6334" d="M123.414,46H113.074L103,73.784h8.112l1.379-3.818H124l1.379,3.818h8.112ZM115.3,62.331l2.969-8.165,2.969,8.165Z" transform="translate(-103 -46)" fill="#2b2b2e"/>
        </g>
      </g>
    </g>
    <g id="Group_1603" data-name="Group 1603" transform="translate(4.578 57.564)">
      <g id="Group_1601" data-name="Group 1601" transform="translate(0.265 13.362)">
        <path id="Path_6335" data-name="Path 6335" d="M9.4,133.9h.742l4.295,5.461V133.9h.742v6.787H14.49l-4.4-5.567v5.567H9.4Z" transform="translate(-9.4 -133.635)" fill="#2b2b2e"/>
        <path id="Path_6336" data-name="Path 6336" d="M22.6,140.759h0c0-1.113.848-1.644,2.121-1.644a5.964,5.964,0,0,1,1.538.212v-.159c0-.9-.53-1.379-1.485-1.379a3.651,3.651,0,0,0-1.538.371l-.212-.636a3.932,3.932,0,0,1,1.8-.424,2.54,2.54,0,0,1,1.644.53,1.964,1.964,0,0,1,.53,1.485v3.075h-.742v-.742a2.26,2.26,0,0,1-1.8.848A1.657,1.657,0,0,1,22.6,140.759Zm3.659-.371v-.477a5.208,5.208,0,0,0-1.485-.212c-.954,0-1.485.424-1.485,1.007h0c0,.636.583,1.007,1.273,1.007C25.516,141.713,26.259,141.183,26.259,140.387Z" transform="translate(-15.601 -135.138)" fill="#2b2b2e"/>
        <path id="Path_6337" data-name="Path 6337" d="M33.189,139.6v-3.022H32.5v-.636h.689V134.4h.742v1.538h1.591v.636H33.932v2.916c0,.636.318.848.848.848a1.871,1.871,0,0,0,.742-.159v.636a1.625,1.625,0,0,1-.9.212A1.286,1.286,0,0,1,33.189,139.6Z" transform="translate(-20.252 -133.87)" fill="#2b2b2e"/>
        <path id="Path_6338" data-name="Path 6338" d="M40,133.6h.848v.848H40Zm.053,1.962H40.8V140.6h-.742Z" transform="translate(-23.775 -133.494)" fill="#2b2b2e"/>
        <path id="Path_6339" data-name="Path 6339" d="M43.7,139.651h0A2.614,2.614,0,0,1,46.3,137a2.569,2.569,0,0,1,2.6,2.6h0a2.581,2.581,0,0,1-2.651,2.6A2.45,2.45,0,0,1,43.7,139.651Zm4.454,0h0a1.859,1.859,0,1,0-3.712,0h0a1.9,1.9,0,0,0,1.856,1.962A1.869,1.869,0,0,0,48.154,139.651Z" transform="translate(-25.513 -135.091)" fill="#2b2b2e"/>
        <path id="Path_6340" data-name="Path 6340" d="M55.7,137.206h.742v.848a1.876,1.876,0,0,1,1.7-.954,1.812,1.812,0,0,1,1.909,2.015v3.128h-.742v-2.916a1.356,1.356,0,0,0-1.379-1.538,1.478,1.478,0,0,0-1.485,1.591v2.863H55.7Z" transform="translate(-31.151 -135.138)" fill="#2b2b2e"/>
        <path id="Path_6341" data-name="Path 6341" d="M65.9,140.759h0c0-1.113.848-1.644,2.121-1.644a5.964,5.964,0,0,1,1.538.212v-.159c0-.9-.53-1.379-1.485-1.379a3.651,3.651,0,0,0-1.538.371l-.212-.636a3.932,3.932,0,0,1,1.8-.424,2.54,2.54,0,0,1,1.644.53,1.965,1.965,0,0,1,.53,1.485v3.075h-.742v-.742a2.26,2.26,0,0,1-1.8.848A1.657,1.657,0,0,1,65.9,140.759Zm3.659-.371v-.477a5.208,5.208,0,0,0-1.485-.212c-.954,0-1.485.424-1.485,1.007h0c0,.636.583,1.007,1.273,1.007C68.816,141.713,69.559,141.183,69.559,140.387Z" transform="translate(-35.942 -135.138)" fill="#2b2b2e"/>
        <path id="Path_6342" data-name="Path 6342" d="M76.9,133.4h.742v7.105H76.9Z" transform="translate(-41.11 -133.4)" fill="#2b2b2e"/>
        <path id="Path_6343" data-name="Path 6343" d="M86.58,134.689H84.3V134h5.355v.689h-2.28v6.1h-.8Z" transform="translate(-44.586 -133.682)" fill="#2b2b2e"/>
        <path id="Path_6344" data-name="Path 6344" d="M94.8,137.25h.742v1.326A2.119,2.119,0,0,1,97.61,137.2v.8h-.053a2.029,2.029,0,0,0-2.015,2.28v2.015H94.8S94.8,137.25,94.8,137.25Z" transform="translate(-49.519 -135.182)" fill="#2b2b2e"/>
        <path id="Path_6345" data-name="Path 6345" d="M100.9,140.759h0c0-1.113.848-1.644,2.121-1.644a5.964,5.964,0,0,1,1.538.212v-.159c0-.9-.53-1.379-1.485-1.379a3.651,3.651,0,0,0-1.538.371l-.212-.636a3.932,3.932,0,0,1,1.8-.424,2.54,2.54,0,0,1,1.644.53,1.965,1.965,0,0,1,.53,1.485v3.075h-.742v-.742a2.26,2.26,0,0,1-1.8.848A1.686,1.686,0,0,1,100.9,140.759Zm3.712-.371v-.477a5.208,5.208,0,0,0-1.485-.212c-.954,0-1.485.424-1.485,1.007h0c0,.636.583,1.007,1.273,1.007C103.869,141.713,104.612,141.183,104.612,140.387Z" transform="translate(-52.385 -135.138)" fill="#2b2b2e"/>
        <path id="Path_6346" data-name="Path 6346" d="M111.9,137.206h.742v.848a1.876,1.876,0,0,1,1.7-.954,1.812,1.812,0,0,1,1.909,2.015v3.128h-.742v-2.916a1.356,1.356,0,0,0-1.379-1.538,1.478,1.478,0,0,0-1.485,1.591v2.863H111.9S111.9,137.206,111.9,137.206Z" transform="translate(-57.552 -135.138)" fill="#2b2b2e"/>
        <path id="Path_6347" data-name="Path 6347" d="M122,141.554l.371-.53a2.847,2.847,0,0,0,1.75.636c.583,0,1.06-.318,1.06-.8h0c0-.53-.583-.689-1.273-.9-.8-.212-1.644-.477-1.644-1.432h0a1.533,1.533,0,0,1,1.7-1.432,3.575,3.575,0,0,1,1.8.53l-.318.583a2.727,2.727,0,0,0-1.485-.477c-.583,0-.954.318-.954.742h0c0,.477.636.636,1.273.848.8.212,1.591.53,1.591,1.432h0c0,.954-.8,1.485-1.8,1.485A2.885,2.885,0,0,1,122,141.554Z" transform="translate(-62.297 -135.138)" fill="#2b2b2e"/>
        <path id="Path_6348" data-name="Path 6348" d="M131.4,137.206h.742v1.007a2.324,2.324,0,0,1,1.909-1.113,2.431,2.431,0,0,1,2.386,2.6h0a2.431,2.431,0,0,1-2.386,2.6,2.254,2.254,0,0,1-1.909-1.06v2.492H131.4Zm4.295,2.492h0a1.791,1.791,0,0,0-1.75-1.962,1.847,1.847,0,0,0-1.8,1.909h0a1.9,1.9,0,0,0,1.8,1.962A1.716,1.716,0,0,0,135.695,139.7Z" transform="translate(-66.713 -135.138)" fill="#2b2b2e"/>
        <path id="Path_6349" data-name="Path 6349" d="M142.6,139.651h0A2.614,2.614,0,0,1,145.2,137a2.569,2.569,0,0,1,2.6,2.6h0a2.581,2.581,0,0,1-2.651,2.6A2.45,2.45,0,0,1,142.6,139.651Zm4.454,0h0a1.859,1.859,0,1,0-3.712,0h0a1.9,1.9,0,0,0,1.856,1.962A1.869,1.869,0,0,0,147.054,139.651Z" transform="translate(-71.974 -135.091)" fill="#2b2b2e"/>
        <path id="Path_6350" data-name="Path 6350" d="M154.6,137.25h.742v1.326a2.119,2.119,0,0,1,2.068-1.379v.8h-.053a2.029,2.029,0,0,0-2.015,2.28v2.015H154.6V137.25Z" transform="translate(-77.611 -135.182)" fill="#2b2b2e"/>
        <path id="Path_6351" data-name="Path 6351" d="M161.889,139.6v-3.022H161.2v-.636h.689V134.4h.742v1.538h1.591v.636h-1.591v2.916c0,.636.318.848.848.848a1.871,1.871,0,0,0,.742-.159v.636a1.625,1.625,0,0,1-.9.212A1.286,1.286,0,0,1,161.889,139.6Z" transform="translate(-80.712 -133.87)" fill="#2b2b2e"/>
        <path id="Path_6352" data-name="Path 6352" d="M176.328,133.8h.742l3.075,6.84H179.3l-.8-1.8h-3.712l-.8,1.8h-.8Zm1.909,4.348L176.7,134.7l-1.538,3.446Z" transform="translate(-86.349 -133.588)" fill="#2b2b2e"/>
        <path id="Path_6353" data-name="Path 6353" d="M187.7,140.328V137.2h.742v2.916a1.356,1.356,0,0,0,1.379,1.538,1.478,1.478,0,0,0,1.485-1.591V137.2h.742v5.037h-.742v-.848a1.876,1.876,0,0,1-1.7.954A1.812,1.812,0,0,1,187.7,140.328Z" transform="translate(-93.161 -135.185)" fill="#2b2b2e"/>
        <path id="Path_6354" data-name="Path 6354" d="M198.489,139.6v-3.022H197.8v-.636h.689V134.4h.742v1.538h1.591v.636h-1.591v2.916c0,.636.318.848.848.848a1.871,1.871,0,0,0,.742-.159v.636a1.625,1.625,0,0,1-.9.212A1.286,1.286,0,0,1,198.489,139.6Z" transform="translate(-97.906 -133.87)" fill="#2b2b2e"/>
        <path id="Path_6355" data-name="Path 6355" d="M205.3,133.4h.742v2.916a1.876,1.876,0,0,1,1.7-.954,1.812,1.812,0,0,1,1.909,2.015v3.128h-.742v-2.916a1.356,1.356,0,0,0-1.379-1.538,1.478,1.478,0,0,0-1.485,1.591v2.863H205.3Z" transform="translate(-101.429 -133.4)" fill="#2b2b2e"/>
        <path id="Path_6356" data-name="Path 6356" d="M215.6,139.651h0A2.614,2.614,0,0,1,218.2,137a2.569,2.569,0,0,1,2.6,2.6h0a2.581,2.581,0,0,1-2.651,2.6A2.45,2.45,0,0,1,215.6,139.651Zm4.507,0h0a1.859,1.859,0,1,0-3.712,0h0a1.859,1.859,0,1,0,3.712,0Z" transform="translate(-106.268 -135.091)" fill="#2b2b2e"/>
        <path id="Path_6357" data-name="Path 6357" d="M227.7,137.25h.742v1.326a2.119,2.119,0,0,1,2.068-1.379v.8h-.053a2.029,2.029,0,0,0-2.015,2.28v2.015H227.7V137.25Z" transform="translate(-111.952 -135.182)" fill="#2b2b2e"/>
        <path id="Path_6358" data-name="Path 6358" d="M234.6,133.6h.848v.848H234.6Zm.053,1.962h.742V140.6h-.742Z" transform="translate(-115.194 -133.494)" fill="#2b2b2e"/>
        <path id="Path_6359" data-name="Path 6359" d="M238.589,139.6v-3.022H237.9v-.636h.689V134.4h.742v1.538h1.591v.636h-1.591v2.916c0,.636.318.848.848.848a1.871,1.871,0,0,0,.742-.159v.636a1.625,1.625,0,0,1-.9.212A1.286,1.286,0,0,1,238.589,139.6Z" transform="translate(-116.744 -133.87)" fill="#2b2b2e"/>
        <path id="Path_6360" data-name="Path 6360" d="M245.212,143.563l.265-.583a1.937,1.937,0,0,0,.8.159c.424,0,.742-.212,1.007-.954L245,137.2h.848l1.8,4.189,1.591-4.189h.8l-2.121,5.2c-.424,1.06-.9,1.432-1.644,1.432A1.762,1.762,0,0,1,245.212,143.563Z" transform="translate(-120.079 -135.185)" fill="#2b2b2e"/>
      </g>
      <g id="Group_1602" data-name="Group 1602">
        <path id="Path_6361" data-name="Path 6361" d="M8.9,114.51v-4.03h1.538v3.977c0,1.166.583,1.75,1.538,1.75s1.538-.583,1.538-1.7v-4.03h1.538v3.977a2.848,2.848,0,0,1-3.075,3.181A2.808,2.808,0,0,1,8.9,114.51Zm3.5-6.31,1.326.583L12.452,110H11.286Z" transform="translate(-8.9 -108.2)" fill="#2b2b2e"/>
        <path id="Path_6362" data-name="Path 6362" d="M22.9,116.566h0a2.539,2.539,0,0,1,2.439-2.81,2.168,2.168,0,0,1,1.7.8V111.9h1.538v7.317H27.036v-.8a2.054,2.054,0,0,1-1.7.848C24.12,119.376,22.9,118.369,22.9,116.566Zm4.136,0h0a1.357,1.357,0,0,0-1.326-1.485,1.388,1.388,0,0,0-1.326,1.485h0a1.334,1.334,0,1,0,2.651,0Z" transform="translate(-15.477 -109.938)" fill="#2b2b2e"/>
        <path id="Path_6363" data-name="Path 6363" d="M35.9,119.324h0c0-1.22.9-1.75,2.174-1.75a4.623,4.623,0,0,1,1.326.212v-.106c0-.636-.371-1.007-1.166-1.007a3.387,3.387,0,0,0-1.485.318l-.371-1.166a4.613,4.613,0,0,1,2.068-.424,2.447,2.447,0,0,1,1.8.583,2.289,2.289,0,0,1,.583,1.7v3.128H39.346v-.583a2.071,2.071,0,0,1-1.644.689A1.515,1.515,0,0,1,35.9,119.324Zm3.5-.318v-.265a2.532,2.532,0,0,0-.954-.212c-.636,0-1.06.265-1.06.742h0c0,.424.318.636.848.636A.981.981,0,0,0,39.4,119.006Z" transform="translate(-21.584 -111.582)" fill="#2b2b2e"/>
        <path id="Path_6364" data-name="Path 6364" d="M48,115.5h1.538v1.06a1.618,1.618,0,0,1,1.7-1.166v1.591h-.106c-1.007,0-1.644.636-1.644,1.909v2.015H48Z" transform="translate(-27.268 -111.579)" fill="#2b2b2e"/>
        <path id="Path_6365" data-name="Path 6365" d="M55.2,117.3h0c0-1.22.9-1.75,2.174-1.75a4.622,4.622,0,0,1,1.326.212v-.106c0-.636-.371-1.007-1.167-1.007a3.387,3.387,0,0,0-1.485.318l-.371-1.167a4.613,4.613,0,0,1,2.068-.424,2.447,2.447,0,0,1,1.8.583,2.289,2.289,0,0,1,.583,1.7v3.128H58.646V118.2a2.071,2.071,0,0,1-1.644.689A1.536,1.536,0,0,1,55.2,117.3Zm3.5-.318v-.265a2.533,2.533,0,0,0-.954-.212c-.636,0-1.06.265-1.06.742h0c0,.424.318.636.848.636A.981.981,0,0,0,58.7,116.985Zm-.477-5.885,1.326.583-1.273,1.22H57.109Z" transform="translate(-30.651 -109.562)" fill="#2b2b2e"/>
        <path id="Path_6366" data-name="Path 6366" d="M66.4,120.172l.636-1.007a3.078,3.078,0,0,0,1.7.636c.424,0,.636-.159.636-.424h0c0-.318-.53-.424-1.113-.636-.742-.212-1.591-.583-1.591-1.644h0a1.748,1.748,0,0,1,1.962-1.7,3.492,3.492,0,0,1,2.015.636l-.583,1.06a3.02,3.02,0,0,0-1.432-.477c-.371,0-.583.159-.583.371h0c0,.318.53.424,1.113.636.742.265,1.644.636,1.644,1.591h0c0,1.22-.9,1.75-2.068,1.75A3.463,3.463,0,0,1,66.4,120.172Z" transform="translate(-35.912 -111.582)" fill="#2b2b2e"/>
        <path id="Path_6367" data-name="Path 6367" d="M83,112.5h1.432l3.287,4.348V112.5h1.538v7.052H87.931L84.538,115.1v4.454H83Z" transform="translate(-43.71 -110.22)" fill="#2b2b2e"/>
        <path id="Path_6368" data-name="Path 6368" d="M97.4,117.3h0c0-1.22.9-1.75,2.174-1.75a4.622,4.622,0,0,1,1.326.212v-.106c0-.636-.371-1.007-1.166-1.007a3.387,3.387,0,0,0-1.485.318l-.371-1.167a4.613,4.613,0,0,1,2.068-.424,2.447,2.447,0,0,1,1.8.583,2.289,2.289,0,0,1,.583,1.7v3.128H100.9V118.2a2.071,2.071,0,0,1-1.644.689A1.556,1.556,0,0,1,97.4,117.3Zm3.5-.318v-.265a2.533,2.533,0,0,0-.954-.212c-.636,0-1.06.265-1.06.742h0c0,.424.318.636.848.636A.981.981,0,0,0,100.9,116.985Zm-.424-5.885,1.326.583-1.273,1.22h-1.22Z" transform="translate(-50.475 -109.562)" fill="#2b2b2e"/>
        <path id="Path_6369" data-name="Path 6369" d="M109.5,111.9h1.591v1.379H109.5Zm.053,1.962h1.538v5.408h-1.538Z" transform="translate(-56.159 -109.938)" fill="#2b2b2e"/>
        <path id="Path_6370" data-name="Path 6370" d="M114.6,120.172l.636-1.007a3.078,3.078,0,0,0,1.7.636c.424,0,.636-.159.636-.424h0c0-.318-.53-.424-1.113-.636-.742-.212-1.591-.583-1.591-1.644h0a1.748,1.748,0,0,1,1.962-1.7,3.492,3.492,0,0,1,2.015.636l-.583,1.06a3.02,3.02,0,0,0-1.432-.477c-.371,0-.583.159-.583.371h0c0,.318.53.424,1.113.636.742.265,1.644.636,1.644,1.591h0c0,1.22-.9,1.75-2.068,1.75A3.3,3.3,0,0,1,114.6,120.172Z" transform="translate(-58.555 -111.582)" fill="#2b2b2e"/>
        <path id="Path_6371" data-name="Path 6371" d="M125.1,111.9h1.591v1.379H125.1S125.1,111.9,125.1,111.9Zm.053,1.962h1.538v5.408h-1.538Z" transform="translate(-63.488 -109.938)" fill="#2b2b2e"/>
        <path id="Path_6372" data-name="Path 6372" d="M130.9,116.985v-3.5h1.538v3.022c0,.742.318,1.113.9,1.113s.954-.371.954-1.113v-3.022h1.538v5.408h-1.538v-.742A1.856,1.856,0,0,1,132.7,119,1.789,1.789,0,0,1,130.9,116.985Zm2.863-5.885,1.326.583-1.273,1.22H132.65Z" transform="translate(-66.213 -109.562)" fill="#2b2b2e"/>
        <path id="Path_6373" data-name="Path 6373" d="M143.1,115.506h1.538v.742a1.856,1.856,0,0,1,1.591-.848c1.166,0,1.8.742,1.8,2.015v3.5h-1.538v-3.022c0-.742-.318-1.113-.9-1.113s-.954.371-.954,1.113v3.022H143.1Z" transform="translate(-71.944 -111.582)" fill="#2b2b2e"/>
        <path id="Path_6374" data-name="Path 6374" d="M155.036,118.249V115.7H154.4v-1.326h.636V113h1.538v1.379h1.273V115.7h-1.273v2.28c0,.371.159.53.477.53a1.217,1.217,0,0,0,.742-.212v1.22a2.079,2.079,0,0,1-1.219.318C155.673,119.84,155.036,119.469,155.036,118.249Z" transform="translate(-77.252 -110.455)" fill="#2b2b2e"/>
        <path id="Path_6375" data-name="Path 6375" d="M162.6,119.324h0c0-1.22.9-1.75,2.174-1.75a4.623,4.623,0,0,1,1.326.212v-.106c0-.636-.371-1.007-1.167-1.007a3.387,3.387,0,0,0-1.485.318l-.371-1.166a4.612,4.612,0,0,1,2.068-.424,2.447,2.447,0,0,1,1.8.583,2.289,2.289,0,0,1,.583,1.7v3.128h-1.485v-.583a2.071,2.071,0,0,1-1.644.689A1.515,1.515,0,0,1,162.6,119.324Zm3.5-.318v-.265a2.533,2.533,0,0,0-.954-.212c-.636,0-1.06.265-1.06.742h0c0,.424.318.636.848.636A.981.981,0,0,0,166.1,119.006Z" transform="translate(-81.105 -111.582)" fill="#2b2b2e"/>
        <path id="Path_6376" data-name="Path 6376" d="M180.8,112.5h1.538v7.052H180.8Z" transform="translate(-89.655 -110.22)" fill="#2b2b2e"/>
        <path id="Path_6377" data-name="Path 6377" d="M186.4,118.21h0a2.92,2.92,0,0,1,5.832-.053h0a2.82,2.82,0,0,1-2.916,2.81A2.746,2.746,0,0,1,186.4,118.21Zm4.348,0h0a1.437,1.437,0,0,0-1.432-1.485,1.4,1.4,0,0,0-1.379,1.485h0a1.437,1.437,0,0,0,1.432,1.485A1.4,1.4,0,0,0,190.748,118.21Z" transform="translate(-92.285 -111.582)" fill="#2b2b2e"/>
        <path id="Path_6378" data-name="Path 6378" d="M199.7,115.506h1.538v.742a1.856,1.856,0,0,1,1.591-.848,1.717,1.717,0,0,1,1.538.848,2.319,2.319,0,0,1,1.75-.848,1.721,1.721,0,0,1,1.8,1.962v3.5h-1.538v-3.022c0-.742-.318-1.113-.9-1.113s-.9.371-.9,1.113v3.022H203.04v-3.022c0-.742-.318-1.113-.9-1.113s-.9.371-.9,1.113v3.022H199.7v-5.355Z" transform="translate(-98.533 -111.582)" fill="#2b2b2e"/>
        <path id="Path_6379" data-name="Path 6379" d="M218.1,115.553h1.538v.8a2.054,2.054,0,0,1,1.7-.848,2.521,2.521,0,0,1,2.439,2.757h0a2.491,2.491,0,0,1-2.439,2.757,2.168,2.168,0,0,1-1.7-.8v2.333H218.1Zm4.136,2.7h0a1.357,1.357,0,0,0-1.326-1.485,1.388,1.388,0,0,0-1.326,1.485h0a1.357,1.357,0,0,0,1.326,1.485A1.388,1.388,0,0,0,222.236,118.257Z" transform="translate(-107.177 -111.629)" fill="#2b2b2e"/>
        <path id="Path_6380" data-name="Path 6380" d="M230.4,119.324h0c0-1.22.9-1.75,2.174-1.75a4.623,4.623,0,0,1,1.326.212v-.106c0-.636-.371-1.007-1.167-1.007a3.387,3.387,0,0,0-1.485.318l-.371-1.166a4.612,4.612,0,0,1,2.068-.424,2.447,2.447,0,0,1,1.8.583,2.289,2.289,0,0,1,.583,1.7v3.128H233.9v-.583a2.071,2.071,0,0,1-1.644.689A1.556,1.556,0,0,1,230.4,119.324Zm3.5-.318v-.265a2.533,2.533,0,0,0-.954-.212c-.636,0-1.06.265-1.06.742h0c0,.424.318.636.848.636A.981.981,0,0,0,233.9,119.006Z" transform="translate(-112.955 -111.582)" fill="#2b2b2e"/>
        <path id="Path_6381" data-name="Path 6381" d="M242.5,111.9h1.591v1.379H242.5Zm.053,1.962h1.538v5.408h-1.538Z" transform="translate(-118.64 -109.938)" fill="#2b2b2e"/>
        <path id="Path_6382" data-name="Path 6382" d="M248.353,115.5h1.538v1.06a1.618,1.618,0,0,1,1.7-1.166v1.591h-.106c-1.007,0-1.644.636-1.644,1.909v2.015H248.3V115.5Z" transform="translate(-121.364 -111.579)" fill="#2b2b2e"/>
      </g>
    </g>
  </g>
</svg>
