<svg xmlns="http://www.w3.org/2000/svg" width="234.92" height="43.768" viewBox="0 0 234.92 43.768">
  <g id="paddy_power" data-name="paddy power" transform="translate(-4.836 -11.663)">
    <g id="g4005" transform="translate(4.836 29.674)">
      <path id="path4007" d="M4.836,19.659c.829-.173,2.764-.443,4.2-.562a32.73,32.73,0,0,1,3.524-.151,11.923,11.923,0,0,1,4.5.945,7.758,7.758,0,0,1,4.685,6.727,9.14,9.14,0,0,1-.681,4.475,7.918,7.918,0,0,1-2.913,3.428,10.964,10.964,0,0,1-2.708,1.252,17.975,17.975,0,0,1-3.46.7l.683,7.727-5.628.5Zm11.13,7.494a3.382,3.382,0,0,0-1.715-2.732,4.208,4.208,0,0,0-2.388-.443c-.238.027-.557.057-.948.116l.646,7.343a9.7,9.7,0,0,0,1.015-.124,4.715,4.715,0,0,0,2.2-.908,2.951,2.951,0,0,0,.965-1.334,4.174,4.174,0,0,0,.23-1.876Z" transform="translate(-4.836 -18.941)" fill="#2b2b2e"/>
    </g>
    <g id="g4009" transform="translate(20.624 11.663)">
      <path id="path4011" d="M18.459,49.964l-1.121,3.725-6.123.549,9.066-26.566.839-.069L34.5,52.217l-6.7.557L26.117,49.3Zm5.489-5.294-2.5-5.442-1.594,5.806Zm32.446-7.544a12.611,12.611,0,0,1-4.742,11.479,15.536,15.536,0,0,1-8.35,2.92c-1.594.156-3.151.252-4.193.309-.663.027-1.641.04-2.321.037L34.606,27c.634-.124,1.44-.295,2.92-.488,1.522-.2,2.755-.344,3.948-.445a16.368,16.368,0,0,1,8.92,1.309c4.108,2.062,5.677,6.051,6,9.717Zm-6.163.683a6.974,6.974,0,0,0-2.9-5.42,7.22,7.22,0,0,0-4.685-.995c-.6.057-1.208.171-1.633.252L42.285,46c0,.059.037.052.072.052a10.559,10.559,0,0,0,1.475-.032,7.126,7.126,0,0,0,3.952-1.591,7.471,7.471,0,0,0,2.448-6.6Zm30.13-2.767A12.535,12.535,0,0,1,75.618,46.49a15.276,15.276,0,0,1-8.343,2.94c-1.6.136-3.156.247-4.2.3-.661.02-1.636.047-2.321.047L58.588,24.9c2.292-.376,5.66-.807,6.858-.911a16.611,16.611,0,0,1,8.917,1.282c4.111,2.084,5.675,6.073,6,9.739Zm-6.163.671a7.015,7.015,0,0,0-2.891-5.437,7.243,7.243,0,0,0-4.683-.987c-.611.057-1.223.171-1.636.243l1.262,14.379c0,.062.03.062.072.062a12.356,12.356,0,0,0,1.478-.035,6.977,6.977,0,0,0,3.945-1.619A7.408,7.408,0,0,0,74.2,35.748Zm20.267.5.918,10.655-5.942.522-.918-10.35L78.768,23.01l6.695-.592L91,30.739l4.155-9.177,6.348-.554Zm8.784-15.263a40.722,40.722,0,0,1,4.195-.549c1.007-.079,2.336-.171,3.539-.146a11.875,11.875,0,0,1,4.487.928,7.785,7.785,0,0,1,4.68,6.749,9.306,9.306,0,0,1-.681,4.477,8.125,8.125,0,0,1-2.906,3.428,11.153,11.153,0,0,1-2.708,1.23,18.255,18.255,0,0,1-3.445.7l.673,7.727-5.64.5ZM114.4,28.475a3.431,3.431,0,0,0-1.747-2.752,4.111,4.111,0,0,0-2.369-.453c-.255.025-.579.054-.963.124l.643,7.336c.156-.012.782-.067,1.027-.116a4.65,4.65,0,0,0,2.19-.891,3.329,3.329,0,0,0,.992-1.361A4.2,4.2,0,0,0,114.4,28.5Zm34.9.886a13.239,13.239,0,0,1-26.358,2.485c-.634-7.274,4.613-13.436,12.3-14.11A12.535,12.535,0,0,1,149.3,29.328Zm-6.076.631a7.143,7.143,0,1,0-14.214,1.314,7.116,7.116,0,0,0,7.878,6.8c4.252-.364,6.695-3.888,6.341-8.078Zm32.2,10.372-.8.074L165.96,26.151,159.8,41.725l-.792.067-10.08-24.94,6.13-.51,4.586,11.575,5.143-12.271.841-.074,7.214,11.09,2.416-12.09,5.626-.5Zm7.487-26.474,13.407-1.176.433,5-7.45.656.438,4.923,6.578-.564.428,4.994-6.566.579.453,5.168,7.568-.668.436,5.027-13.53,1.2Zm17.468-1.443c.549-.094,1.453-.233,2.284-.339.713-.1,2.262-.267,3.143-.337a19.43,19.43,0,0,1,5.2.134c2.22.389,5.279,1.955,5.685,6.591a7.4,7.4,0,0,1-1.841,5.789,7.771,7.771,0,0,1-1.5,1.3l.015.087c.233.312,8.145,10.187,8.145,10.187l-6.739.579s-4.425-6.017-6.786-9.147l-.579.054.849,9.645-5.67.5Zm10.632,7.011a2.9,2.9,0,0,0-3.415-2.863,8.29,8.29,0,0,0-1.124.161l.564,6.422a6.907,6.907,0,0,0,.841-.04,3.706,3.706,0,0,0,2.086-.834,3.263,3.263,0,0,0,1.047-2.807Z" transform="translate(-11.215 -11.663)" fill="#2b2b2e"/>
    </g>
    <g id="g4013" transform="translate(232.712 28.675)">
      <path id="path4015" d="M103.954,22.084a3.5,3.5,0,0,1-3.5,3.5,3.523,3.523,0,1,1,.01-7.046,3.5,3.5,0,0,1,3.492,3.547" transform="translate(-96.91 -18.537)" fill="#2b2b2e"/>
    </g>
  </g>
</svg>
