<svg xmlns="http://www.w3.org/2000/svg" viewBox="0 0 180.44 134.79"><defs><style>.cls-1{fill:#d11349;}.cls-2{fill:#fff;}.cls-3,.cls-4,.cls-5{fill:none;stroke-width:1.3px;}.cls-3,.cls-4{stroke:#fff;}.cls-3,.cls-5{stroke-linecap:square;stroke-linejoin:bevel;}.cls-4{stroke-miterlimit:3.86;}.cls-5{stroke:#d11349;}</style></defs><title>Asset 1export selection for screens</title><g id="Layer_2" data-name="Layer 2"><g id="Layer_1-2" data-name="Layer 1"><path class="cls-1" d="M90.3,117.28c43.45.39,89.9-3.35,90.14-58.56C180.2,3.38,133.75-.07,90.3,0S.19,3.38,0,58.72c.19,55.21,46.74,59,90.3,58.56"/><path class="cls-2" d="M90.14,115.44c53.15-1,85.73-5.06,86-56.72C175.87,7,143.29,2.86,90.14,1.84,37.11,2.86,4.52,7,4.29,58.72c.23,51.66,32.82,55.76,85.85,56.72"/><path class="cls-1" d="M90,112.86c49.23-1.84,80.81-.8,80.79-54.12S139.18,6.37,90,4.62C40.75,6.37,9.27,5.36,9.31,58.74S40.75,111,90,112.86"/><line class="cls-3" x1="50.75" y1="37.1" x2="50.75" y2="39.71"/><line class="cls-3" x1="31.12" y1="74.2" x2="31.12" y2="76.96"/><path class="cls-2" d="M30,81c-.13,0-.14-.23-.14-.24V69.6c0-.25.23-.28.35,0,.9,2.74,6.59,5.76,11.26,5.74,3.36,0,6.07-1.49,6.17-5.69,0-.07,0-.14,0-.2,0-4-4.16-7.29-8.43-11s-8.61-7.71-8.75-13.37v-.42c0-4.4,1.43-7.32,3.57-9.12a11.93,11.93,0,0,1,7.76-2.49,16.72,16.72,0,0,1,9,2.49c.23.15.54-.25.67-.57a2.21,2.21,0,0,0,.17-.81c0-.38.1-.38.23-.37s.14.55.14.69v1.18c0,1,0,2.27,0,3.57,0,2.44,0,5.2,0,5.2,0,.34-.33.22-.36.07a8.63,8.63,0,0,0-8.39-6.28c-2.91,0-5.35,1.56-5.36,5.08v.08c0,4.11,4.26,7.76,8.56,11.68s8.61,8.11,8.61,13.48v.14c-.06,9.75-7.5,12.08-13.68,12.06a25.15,25.15,0,0,1-7.72-1.16,2.59,2.59,0,0,0-1-.2,3.52,3.52,0,0,0-2.5,1.53s0,.1-.18.1"/><path class="cls-1" d="M31.44,76.16l-.58-.3.6-1.16L32,75a20.53,20.53,0,0,0,9.19,2.27,11.66,11.66,0,0,0,6.88-1.92A7.19,7.19,0,0,0,51,69.29v-.05c0-3.69-2.22-6.48-5.21-9.18s-6.64-5.19-9.18-8.36a12.21,12.21,0,0,1-2.93-7.53V44a8.56,8.56,0,0,1,2.83-6.87A9.62,9.62,0,0,1,42.77,35a13.09,13.09,0,0,1,7.44,2.31l.52.38L50.23,39l-.79-.58a11.82,11.82,0,0,0-6.67-2.06,8.32,8.32,0,0,0-5.41,1.76A7.29,7.29,0,0,0,35,44v.17c.07,3.92,2.35,6.83,5.35,9.58S47,58.93,49.49,62a11.27,11.27,0,0,1,2.83,7.24v.06a8.54,8.54,0,0,1-3.45,7.1,12.89,12.89,0,0,1-7.65,2.17,21.81,21.81,0,0,1-9.78-2.41"/><path class="cls-2" d="M82.64,81c-.13,0-.14-.23-.14-.24V69.6c0-.25.23-.28.35,0,.89,2.74,6.59,5.76,11.25,5.74,3.36,0,6.08-1.49,6.18-5.69v-.2c0-4-4.15-7.29-8.43-11s-8.6-7.71-8.74-13.37v-.42c0-4.4,1.42-7.32,3.57-9.12a11.92,11.92,0,0,1,7.75-2.49,16.76,16.76,0,0,1,9,2.49c.22.15.53-.25.67-.57a2.21,2.21,0,0,0,.17-.81c0-.38.1-.38.23-.37s.13.55.13.69c0,.29,0,.69,0,1.18,0,1,0,2.27,0,3.57,0,2.44,0,5.2,0,5.2,0,.34-.33.22-.36.07a8.63,8.63,0,0,0-8.4-6.28c-2.9,0-5.34,1.56-5.35,5.08v.08c0,4.11,4.26,7.76,8.55,11.68s8.61,8.11,8.62,13.48v.14c-.06,9.75-7.5,12.08-13.68,12.06a25.15,25.15,0,0,1-7.72-1.16,2.59,2.59,0,0,0-1-.2,3.53,3.53,0,0,0-2.51,1.53s0,.1-.17.1"/><path class="cls-1" d="M84.06,76.16l-.57-.3.59-1.16.58.3a20.49,20.49,0,0,0,9.18,2.27,11.67,11.67,0,0,0,6.89-1.92,7.19,7.19,0,0,0,2.91-6.06v-.05c0-3.69-2.23-6.48-5.22-9.18s-6.63-5.19-9.17-8.36a12.1,12.1,0,0,1-2.93-7.53,1.41,1.41,0,0,1,0-.2,8.62,8.62,0,0,1,2.83-6.87A9.64,9.64,0,0,1,95.4,35a13.06,13.06,0,0,1,7.43,2.31l.53.38-.5,1.25-.79-.58a11.82,11.82,0,0,0-6.67-2.06A8.35,8.35,0,0,0,90,38.09,7.29,7.29,0,0,0,87.62,44v.17C87.68,48.06,90,51,93,53.72s6.64,5.21,9.15,8.28a11.26,11.26,0,0,1,2.82,7.24v.06a8.53,8.53,0,0,1-3.44,7.1,12.9,12.9,0,0,1-7.66,2.17,21.84,21.84,0,0,1-9.78-2.41"/><line class="cls-3" x1="50.75" y1="37.1" x2="50.75" y2="39.71"/><line class="cls-3" x1="31.12" y1="74.2" x2="31.12" y2="76.96"/><path class="cls-2" d="M60.34,81c0-.11.3-.23.3-.23,2.23-1,4.37-1.52,4.64-5.2V39.72c-.33-3.65-4.23-5.08-4.49-5.22s-.44-.34.07-.34H76.19s.41,0,.42.12-.34.22-.34.22c-2.18,1-4.32,1.54-4.65,5.21V75.56c.33,3.69,2.47,4.23,4.65,5.22,0,0,.22.08.22.21s-.37.13-.37.13H60.9s-.56,0-.56-.12"/><rect class="cls-1" x="67.88" y="35.22" width="1.3" height="44.84"/><path class="cls-2" d="M112.24,81c0-.11.3-.23.3-.23,2.24-1,4.37-1.52,4.64-5.2V39.72c-.33-3.65-4.23-5.08-4.49-5.22s-.44-.34.08-.34h15.32s.41,0,.42.12-.34.22-.34.22c-2.18,1-4.31,1.54-4.65,5.21V75.56c.34,3.69,2.47,4.23,4.65,5.22,0,0,.21.08.21.21s-.36.13-.36.13H112.81s-.57,0-.57-.12"/><rect class="cls-1" x="119.78" y="35.22" width="1.3" height="44.84"/><line class="cls-4" x1="67" y1="79.72" x2="69.91" y2="79.72"/><line class="cls-4" x1="67" y1="35.57" x2="69.91" y2="35.57"/><path class="cls-2" d="M143.34,81.13a.17.17,0,0,1-.09,0l-.05,0-19-23.42a.2.2,0,0,1-.08-.14.21.21,0,0,1,.07-.14L140.91,40.2a2.25,2.25,0,0,0,.66-1.47,3.44,3.44,0,0,0-1.76-2.44c-1-.72-2.21-1.32-3-1.8,0,0-.21-.11-.21-.2s.3-.13.3-.13h14.72c.23,0,.27.07.26.18s-.69.29-.69.29c-.29.07-.68.17-1.11.32a6.55,6.55,0,0,0-2.3,1.49l0,0L129.94,54.59c1.25,1.58,16.17,20.16,18.44,22.56,2.36,2.66,2.79,2.51,5.91,3.63,0,0,.26.09.21.23s-.27.12-.27.12Z"/><line class="cls-5" x1="127.55" y1="56.42" x2="145.95" y2="79.11"/><line class="cls-4" x1="128.32" y1="54.58" x2="125.87" y2="57.18"/><line class="cls-4" x1="144.26" y1="79.72" x2="148.25" y2="79.72"/><path class="cls-2" d="M49.68,16.68c-.23-1.6-.28-1.76-1-1.76h-.44c-.15-.06-.25-.53,0-.58,1.2-.24,2.34-.47,3.92-.7a6.57,6.57,0,0,1,3.31.13,2.26,2.26,0,0,1,1.38,1.85,2.1,2.1,0,0,1-1.34,2.21c-.15.05-.3.14-.29.22s.09.08.24.09a2.76,2.76,0,0,1,1.22,5.22,10,10,0,0,1-3.09.84c-.57.08-1.17.1-1.63.17-.78.11-1.55.23-2.45.39-.14-.08-.2-.49-.08-.55l.45-.16c.69-.24.77-.37.57-1.79Zm2.4,1.22c.05.41.07.44.9.32a1.69,1.69,0,0,0,1.6-2.08,1.88,1.88,0,0,0-2.23-1.78c-.75.11-.74.23-.64.93Zm.51,3.65c.18,1.24.45,2,1.68,1.81s1.66-1.15,1.48-2.43a2.16,2.16,0,0,0-2.64-2c-.87.12-.87.13-.78.77Z"/><path class="cls-2" d="M60,15c-.14-1.48-.25-1.56-1-1.64l-.4,0a.37.37,0,0,1,0-.54c.76,0,1.56-.11,2.32-.18s1.56-.17,2.32-.27a.44.44,0,0,1,.05.54l-.37.1c-.71.19-.79.33-.65,1.81l.36,3.67c.18,1.86.59,3.89,3,3.66,2-.2,2.49-2,2.27-4.22L67.67,16a11,11,0,0,0-.53-2.89c-.17-.32-.53-.38-1-.42l-.43,0a.49.49,0,0,1-.06-.54c.86-.05,1.49-.09,2.14-.15s1.17-.14,1.77-.23a.48.48,0,0,1,.06.54l-.28.1c-.41.13-.7.26-.81.6a11.1,11.1,0,0,0,0,2.94l.18,1.78a5.58,5.58,0,0,1-.65,3.93,4.34,4.34,0,0,1-3,1.45,4.84,4.84,0,0,1-3.24-.59c-.89-.6-1.35-1.74-1.52-3.47Z"/><path class="cls-2" d="M75.45,19.61c.1,1.5.2,1.6.94,1.68l.45.05a.44.44,0,0,1,0,.56c-.86,0-1.64.06-2.39.11s-1.56.11-2.42.2a.47.47,0,0,1,0-.56l.44-.11c.72-.17.81-.29.71-1.79l-.37-5.86c-.1-1.5-.2-1.6-.94-1.68l-.45-.05a.45.45,0,0,1,0-.56c.86,0,1.66-.06,2.42-.11s1.55-.12,2.41-.2a.46.46,0,0,1,0,.56l-.44.1c-.72.18-.81.3-.71,1.79Z"/><path class="cls-2" d="M82.16,19a2.66,2.66,0,0,0,.33,1.51c.21.26.51.38,1.67.34,1.45-.06,1.9-.12,2.77-2a.42.42,0,0,1,.61.07A9.81,9.81,0,0,1,87,21.49c-.85,0-2.38,0-3.69.08l-2.14.08c-.73,0-1.53.07-2.52.14-.14-.1-.19-.46-.06-.56l.6-.1c.71-.12.81-.25.75-1.74l-.21-5.93c-.05-1.49-.15-1.63-.88-1.7l-.46,0a.37.37,0,0,1,0-.56c.83,0,1.63,0,2.4,0S82.31,11,83.11,11a.47.47,0,0,1,0,.56l-.41.08c-.72.14-.81.27-.76,1.75Z"/><path class="cls-2" d="M90.1,13.43c0-1.51,0-1.82-.76-1.9l-.3,0c-.16-.08-.15-.54,0-.56,1.34-.07,2.59-.12,4.28-.11a11.28,11.28,0,0,1,3.71.55A4.86,4.86,0,0,1,100.29,16a5.1,5.1,0,0,1-2.9,4.76,8.84,8.84,0,0,1-4,.72c-.75,0-1.55-.1-2.12-.11l-2.49,0a.45.45,0,0,1,0-.56l.49-.07c.72-.11.82-.24.83-1.7Zm2.25,5.08a2.8,2.8,0,0,0,.31,1.79,1.69,1.69,0,0,0,1.32.47c2.76,0,3.72-2.43,3.73-4.6,0-2.88-1.48-4.6-4.37-4.61-.43,0-.74.07-.83.2a1.82,1.82,0,0,0-.12.92Z"/><path class="cls-2" d="M105.66,15.36c0,.44,0,.48.42.5l1.1.06c.83,0,1-.06,1.23-.82l.1-.39c.12-.12.52-.1.59,0-.06.51-.11,1.08-.14,1.69s0,1.18,0,1.69a.47.47,0,0,1-.6,0l0-.4c-.12-.77-.31-.91-1.14-1L106,16.7c-.43,0-.44,0-.47.48l-.1,1.89a2.86,2.86,0,0,0,.17,1.53c.19.3.49.44,1.65.51,1.39.07,1.93.05,2.91-1.7a.39.39,0,0,1,.59.11A9.45,9.45,0,0,1,110,22c-.85-.08-2.38-.18-3.68-.25l-2.08-.11c-.76,0-1.54-.07-2.74-.1-.12-.11-.1-.49,0-.56l.75-.07c.73-.08.83-.17.91-1.63l.32-6c.08-1.45,0-1.55-.72-1.74l-.4-.1a.4.4,0,0,1,.06-.55c.75.07,1.53.13,2.3.17l3.38.18c1,.05,1.93.09,2.14.07,0,.25.05,1.41.07,2.48-.07.17-.44.18-.59,0a3.81,3.81,0,0,0-.54-1.29,2.09,2.09,0,0,0-1.54-.58L106.37,12c-.53,0-.53,0-.56.59Z"/><path class="cls-2" d="M114.43,14.34c.17-1.59.15-1.77-.51-1.94l-.42-.1a.36.36,0,0,1,.09-.55c1.2,0,2.45.1,4,.25a6.84,6.84,0,0,1,3.06.89,2.63,2.63,0,0,1,1.16,2.5,2.59,2.59,0,0,1-1.93,2.21c-.17.06-.17.16-.11.34.83,2.24,1.36,3.5,2,4.22a1.94,1.94,0,0,0,1,.56.3.3,0,0,1,0,.42,4,4,0,0,1-1.27,0,3.27,3.27,0,0,1-2.91-2,20.74,20.74,0,0,1-1-2.59.79.79,0,0,0-.78-.64c-.56-.06-.59,0-.62.29l-.2,1.95c-.15,1.46-.07,1.58.63,1.78l.42.13a.49.49,0,0,1,0,.55c-.84-.11-1.57-.21-2.33-.28s-1.5-.14-2.33-.19a.45.45,0,0,1,.06-.56l.43,0c.73-.06.84-.16,1-1.62Zm2,2.24c-.05.55,0,.6.93.7a1.52,1.52,0,0,0,1.25-.32,2.33,2.33,0,0,0,.75-1.66,2.11,2.11,0,0,0-1.84-2.56c-.65-.07-.69,0-.77.74Z"/><path class="cls-2" d="M126.6,24.05A5.51,5.51,0,0,1,124,23a5.17,5.17,0,0,1-.11-2.63.39.39,0,0,1,.6,0c.16,1.08,1,2.69,2.34,2.9A1.59,1.59,0,0,0,128.79,22c.19-1.27-.89-2.22-1.76-2.83a3.68,3.68,0,0,1-1.91-3.45c.25-1.78,1.83-2.8,4.12-2.45a6.34,6.34,0,0,1,1.76.53,4.36,4.36,0,0,0,.52.21,7.94,7.94,0,0,1-.06,2.3c-.11.17-.51.13-.63-.05-.14-.85-.64-2.1-1.78-2.28a1.48,1.48,0,0,0-1.83,1.22,2.31,2.31,0,0,0,1.16,2l1,.72a3.62,3.62,0,0,1,1.74,3.51c-.3,1.94-2.08,3-4.47,2.59"/><path class="cls-2" d="M42.84,92.64a22.61,22.61,0,0,0-.67,2.4.44.44,0,0,1-.61-.1,2.9,2.9,0,0,0-2-3.18c-1.66-.61-4,.16-5.06,3.14s0,5.22,1.84,5.88a3.45,3.45,0,0,0,3.91-1.2.46.46,0,0,1,.54.31A7.1,7.1,0,0,1,39.31,102a11.67,11.67,0,0,1-3.24-.56,7.27,7.27,0,0,1-3.62-2.62A5,5,0,0,1,32,94.23a5.26,5.26,0,0,1,3.27-3.3,7,7,0,0,1,4.64.18,19.58,19.58,0,0,1,2.94,1.53"/><path class="cls-2" d="M53.23,99.88c-.64,3.42-3.32,5-6.7,4.4A5.21,5.21,0,0,1,42.1,97.9a5.5,5.5,0,0,1,6.64-4.44,5.27,5.27,0,0,1,4.49,6.42m-4.75-5.73c-1.93-.36-3.31,1.25-3.8,3.87-.36,1.91-.27,5.11,2.29,5.6,2.05.39,3.23-1.47,3.71-4s-.25-5.09-2.2-5.46"/><path class="cls-2" d="M63.67,103.33c-.1,1-.21,2-.23,2.56a1.28,1.28,0,0,1-1,.27s-.45-.87-1.1-1.87l-3.19-4.92a24.7,24.7,0,0,0-1.52-2.22,2.66,2.66,0,0,0-.19,1l-.32,3.08a11,11,0,0,0-.07,2.93c.11.35.46.5.87.61l.44.11a.51.51,0,0,1-.06.55c-.86-.12-1.49-.2-2.12-.27s-1.18-.11-1.79-.14a.49.49,0,0,1,.06-.55l.27,0c.44,0,.77-.12.93-.44a11,11,0,0,0,.53-2.88l.43-4a3.79,3.79,0,0,0,0-1.37c-.1-.28-.3-.49-.85-.63L54.37,95c-.1-.14,0-.52.12-.55.75.11,1.54.21,2.19.28a12.78,12.78,0,0,0,1.34.09c.08.73,1,2.05,2.24,3.9l1.17,1.71c.61.9,1,1.51,1.34,1.91a2.27,2.27,0,0,0,.14-.71l.23-2.19a11.29,11.29,0,0,0,.06-2.93c-.1-.35-.44-.5-.86-.61l-.42-.11a.49.49,0,0,1,0-.55c.86.12,1.48.2,2.13.27s1.16.11,1.78.14a.51.51,0,0,1-.06.56h-.29a1,1,0,0,0-.91.44,11.26,11.26,0,0,0-.55,2.88Z"/><path class="cls-2" d="M70,97.1c0-.38,0-.46-.36-.48l-1-.06c-1.16-.07-1.53.55-2.08,1.69a.45.45,0,0,1-.58-.18,19.38,19.38,0,0,0,.68-2.68.48.48,0,0,1,.23-.07.42.42,0,0,1,.22.08c.06.28.11.34,1.32.41l5.93.34c1.05.06,1.29.06,1.46-.27a.42.42,0,0,1,.21,0,.32.32,0,0,1,.23.12,11.38,11.38,0,0,0-.4,2.73c-.09.14-.52.15-.59,0-.21-1-.39-1.8-1.59-1.87l-1,0c-.38,0-.43,0-.45.43l-.41,7c-.08,1.49,0,1.62.72,1.76l.63.11a.5.5,0,0,1,0,.56c-1-.09-1.83-.15-2.55-.19s-1.59-.08-2.71-.11a.45.45,0,0,1,0-.56l.72,0c.72,0,.83-.18.91-1.66Z"/><path class="cls-2" d="M78.07,98.89c0-1.6,0-1.77-.66-1.89L77,96.93a.36.36,0,0,1,0-.56c1.2-.05,2.44-.08,4-.05a6.86,6.86,0,0,1,3.12.65,2.64,2.64,0,0,1,1.35,2.4,2.58,2.58,0,0,1-1.75,2.35c-.17.08-.17.18-.09.35,1,2.17,1.63,3.38,2.38,4.05a2,2,0,0,0,1.06.48.3.3,0,0,1,0,.41,3.74,3.74,0,0,1-1.26.12,3.28,3.28,0,0,1-3.06-1.75,20.35,20.35,0,0,1-1.19-2.51.81.81,0,0,0-.83-.58c-.56,0-.59,0-.6.34l0,2c0,1.47.06,1.59.78,1.73l.43.09a.5.5,0,0,1,0,.56c-.84,0-1.58-.09-2.34-.1s-1.5,0-2.34,0a.46.46,0,0,1,0-.56l.43-.07c.72-.11.82-.22.86-1.69ZM80.21,101c0,.56,0,.61,1,.63a1.54,1.54,0,0,0,1.23-.42A2.34,2.34,0,0,0,83,99.47a2.11,2.11,0,0,0-2-2.41c-.65,0-.69,0-.71.8Z"/><path class="cls-2" d="M107.36,96.47a21.37,21.37,0,0,0,.26,2.48.43.43,0,0,1-.6.13,2.92,2.92,0,0,0-3.07-2.2c-1.77.05-3.63,1.62-3.54,4.79s2,4.84,3.88,4.79a3.46,3.46,0,0,0,3.19-2.57.46.46,0,0,1,.61.1,6.93,6.93,0,0,1-.54,2.52,11.8,11.8,0,0,1-3.22.68,7.29,7.29,0,0,1-4.33-1.1A5,5,0,0,1,97.86,102a5.25,5.25,0,0,1,1.82-4.28,7,7,0,0,1,4.38-1.55,19.7,19.7,0,0,1,3.3.33"/><path class="cls-2" d="M112.46,97.2c0-.38,0-.46-.41-.44l-1,.07c-1.16.09-1.45.74-1.85,1.94a.45.45,0,0,1-.6-.1,19.46,19.46,0,0,0,.34-2.74.35.35,0,0,1,.21-.1.31.31,0,0,1,.23,0c.1.26.15.32,1.36.24l5.93-.42c1-.08,1.29-.11,1.41-.45a.4.4,0,0,1,.2-.07.36.36,0,0,1,.25.1,11.59,11.59,0,0,0-.05,2.75c-.07.15-.49.22-.58.09-.35-1-.62-1.73-1.82-1.64l-1,.06c-.38,0-.43.08-.4.5l.5,7c.1,1.48.21,1.6.93,1.65l.64,0a.5.5,0,0,1,0,.56c-1,0-1.83.08-2.55.13s-1.59.13-2.7.24a.45.45,0,0,1,0-.56l.71-.13c.71-.13.8-.28.69-1.76Z"/><path class="cls-2" d="M130.23,99.2c.45,3.45-1.59,5.83-5,6.27a5.21,5.21,0,0,1-6.2-4.68,5.5,5.5,0,0,1,4.93-6.3,5.29,5.29,0,0,1,6.27,4.71m-6.3-4c-2,.25-2.76,2.21-2.41,4.85.25,1.93,1.34,5,3.92,4.61,2.07-.27,2.61-2.4,2.28-5s-1.83-4.75-3.79-4.49"/><path class="cls-2" d="M131.51,96.29c-.37-1.55-.44-1.71-1.12-1.65l-.43,0c-.17,0-.27-.43-.1-.55,1.15-.36,2.34-.71,3.82-1.07a6.89,6.89,0,0,1,3.18-.17,2.61,2.61,0,0,1,1.91,2,2.57,2.57,0,0,1-1.08,2.73c-.14.11-.12.2,0,.36,1.53,1.83,2.44,2.84,3.34,3.3a2,2,0,0,0,1.15.19.32.32,0,0,1,.16.39,4.39,4.39,0,0,1-1.2.43,3.25,3.25,0,0,1-3.4-.91A19.09,19.09,0,0,1,136,99.24a.82.82,0,0,0-1-.35c-.54.13-.56.17-.49.48l.46,1.91c.34,1.43.46,1.51,1.19,1.47l.44,0a.49.49,0,0,1,.13.54c-.83.17-1.55.32-2.29.5s-1.46.37-2.26.6c-.15-.07-.24-.44-.13-.55l.4-.18c.67-.29.74-.42.39-1.85Zm2.6,1.46c.13.55.19.58,1.11.36a1.49,1.49,0,0,0,1.07-.72,2.31,2.31,0,0,0,.16-1.81,2.11,2.11,0,0,0-2.59-1.81c-.63.16-.65.21-.47,1Z"/><path class="cls-2" d="M145.86,100.61a5.5,5.5,0,0,1-2.73.55A5.16,5.16,0,0,1,141.62,99a.38.38,0,0,1,.53-.29c.71.82,2.29,1.72,3.53,1.17a1.59,1.59,0,0,0,.92-2.18c-.53-1.18-1.95-1.38-3-1.43a3.69,3.69,0,0,1-3.47-1.87c-.75-1.64,0-3.35,2.15-4.29a6.78,6.78,0,0,1,1.76-.51,3,3,0,0,0,.55-.1,7.6,7.6,0,0,1,1.19,2c0,.21-.35.38-.55.3-.57-.64-1.68-1.43-2.73-1a1.48,1.48,0,0,0-.88,2,2.36,2.36,0,0,0,2.07,1.08l1.19.08a3.65,3.65,0,0,1,3.36,2c.8,1.8-.15,3.62-2.36,4.6"/><polygon class="cls-2" points="44.51 126.08 49.14 126.08 49.14 127.66 46.11 127.66 46.11 129.2 49.14 129.2 49.14 130.75 46.11 130.75 46.11 132.98 49.14 132.98 49.14 134.57 44.51 134.57 44.51 126.08"/><path class="cls-2" d="M54.32,129.17l-1,1a1.64,1.64,0,0,0-1.08-.59.65.65,0,0,0-.41.12.33.33,0,0,0-.15.28.32.32,0,0,0,.1.23,1.57,1.57,0,0,0,.46.29l.58.29a3.33,3.33,0,0,1,1.25.92,1.91,1.91,0,0,1-.27,2.49,2.37,2.37,0,0,1-1.65.56A2.64,2.64,0,0,1,50,133.66l1-1.06a2,2,0,0,0,.65.52,1.37,1.37,0,0,0,.66.2.78.78,0,0,0,.5-.15.42.42,0,0,0,.19-.34c0-.25-.23-.48-.69-.71l-.53-.27c-1-.51-1.52-1.15-1.52-1.92a1.66,1.66,0,0,1,.57-1.27,2.12,2.12,0,0,1,1.47-.53,2.53,2.53,0,0,1,1.15.27,2.62,2.62,0,0,1,.92.77"/><polygon class="cls-2" points="55.87 125.98 57.44 125.98 57.44 128.29 58.38 128.29 58.38 129.65 57.44 129.65 57.44 134.57 55.87 134.57 55.87 129.65 55.06 129.65 55.06 128.29 55.87 128.29 55.87 125.98"/><path class="cls-2" d="M63.85,128.29h1.58v6.28H63.85v-.66a3.15,3.15,0,0,1-.92.63,2.59,2.59,0,0,1-1,.19,2.78,2.78,0,0,1-2.1-.94,3.3,3.3,0,0,1-.89-2.35,3.38,3.38,0,0,1,.86-2.38,2.73,2.73,0,0,1,2.08-.93,2.67,2.67,0,0,1,1.06.21,3,3,0,0,1,.92.65Zm-1.65,1.29a1.62,1.62,0,0,0-1.22.52,1.89,1.89,0,0,0-.48,1.33,1.85,1.85,0,0,0,.49,1.33,1.68,1.68,0,0,0,2.44,0,1.85,1.85,0,0,0,.49-1.35,1.82,1.82,0,0,0-.49-1.33,1.63,1.63,0,0,0-1.23-.51"/><path class="cls-2" d="M68.58,125.87V129a3.14,3.14,0,0,1,.93-.65,2.67,2.67,0,0,1,1.06-.21,2.75,2.75,0,0,1,2.09.93,3.38,3.38,0,0,1,.86,2.38,3.3,3.3,0,0,1-.89,2.35,2.8,2.8,0,0,1-2.11.94,2.59,2.59,0,0,1-1-.19,3.19,3.19,0,0,1-.93-.63v.66H67v-8.7Zm1.66,3.71a1.65,1.65,0,0,0-1.24.51,1.86,1.86,0,0,0-.49,1.33,1.9,1.9,0,0,0,.49,1.35,1.62,1.62,0,0,0,1.24.52,1.6,1.6,0,0,0,1.21-.53,2,2,0,0,0,0-2.66,1.62,1.62,0,0,0-1.22-.52"/><rect class="cls-2" x="74.65" y="125.87" width="1.57" height="8.7"/><path class="cls-2" d="M78.27,125.71a1,1,0,0,1,.71,1.74.94.94,0,0,1-.7.3,1,1,0,0,1-.72-.3,1.06,1.06,0,0,1-.29-.74,1,1,0,0,1,.29-.71,1,1,0,0,1,.71-.29m-.79,2.58h1.57v6.28H77.48Z"/><path class="cls-2" d="M84.33,129.17l-1,1a1.64,1.64,0,0,0-1.07-.59.66.66,0,0,0-.42.12.33.33,0,0,0-.15.28.32.32,0,0,0,.1.23,1.67,1.67,0,0,0,.47.29l.57.29a3.33,3.33,0,0,1,1.25.92,1.88,1.88,0,0,1-.27,2.49,2.37,2.37,0,0,1-1.65.56A2.64,2.64,0,0,1,80,133.66l1-1.06a2,2,0,0,0,.65.52,1.37,1.37,0,0,0,.66.2.76.76,0,0,0,.5-.15.42.42,0,0,0,.19-.34c0-.25-.23-.48-.68-.71l-.54-.27c-1-.51-1.52-1.15-1.52-1.92a1.66,1.66,0,0,1,.57-1.27,2.12,2.12,0,0,1,1.47-.53,2.53,2.53,0,0,1,1.15.27,2.62,2.62,0,0,1,.92.77"/><path class="cls-2" d="M85.59,125.87h1.56v3.06a3.48,3.48,0,0,1,.93-.6,2.45,2.45,0,0,1,1-.2,2.12,2.12,0,0,1,1.57.65,2.23,2.23,0,0,1,.55,1.64v4.15H89.6v-2.75a6.65,6.65,0,0,0-.11-1.48,1,1,0,0,0-.35-.58,1.06,1.06,0,0,0-.62-.19,1.17,1.17,0,0,0-.82.32,1.68,1.68,0,0,0-.48.87,6.71,6.71,0,0,0-.07,1.29v2.52H85.59Z"/><path class="cls-2" d="M98.93,131.89H93.87a1.69,1.69,0,0,0,.58,1.06,1.88,1.88,0,0,0,1.22.4,2.12,2.12,0,0,0,1.52-.62l1.32.62a3,3,0,0,1-1.19,1,3.64,3.64,0,0,1-1.64.34,3.27,3.27,0,0,1-2.41-.93,3.16,3.16,0,0,1-.92-2.33,3.26,3.26,0,0,1,.92-2.39,3.12,3.12,0,0,1,2.32-1,3.22,3.22,0,0,1,2.41,1,3.43,3.43,0,0,1,.93,2.51Zm-1.58-1.24a1.6,1.6,0,0,0-.61-.86,1.79,1.79,0,0,0-1.07-.33,1.9,1.9,0,0,0-1.15.37,2,2,0,0,0-.58.82Z"/><path class="cls-2" d="M104.87,125.87h1.58v8.7h-1.58v-.66a3.15,3.15,0,0,1-.92.63,2.59,2.59,0,0,1-1,.19,2.78,2.78,0,0,1-2.1-.94,3.3,3.3,0,0,1-.89-2.35,3.38,3.38,0,0,1,.86-2.38,2.8,2.8,0,0,1,3.15-.72,3.06,3.06,0,0,1,.91.65Zm-1.65,3.71a1.62,1.62,0,0,0-1.22.52,1.89,1.89,0,0,0-.48,1.33,1.85,1.85,0,0,0,.49,1.33,1.68,1.68,0,0,0,2.44,0,1.85,1.85,0,0,0,.49-1.35,1.82,1.82,0,0,0-.49-1.33,1.63,1.63,0,0,0-1.23-.51"/><polygon class="cls-2" points="112.6 126.08 115.02 126.08 115.02 134.57 113.41 134.57 113.41 127.6 111.66 127.6 112.6 126.08"/><path class="cls-2" d="M120.89,130a2.46,2.46,0,0,1,.89.95,2.64,2.64,0,0,1,0,2.61,2.33,2.33,0,0,1-1,.94,3.47,3.47,0,0,1-1.58.31,3.71,3.71,0,0,1-1.63-.3,2.32,2.32,0,0,1-1-.92,2.69,2.69,0,0,1-.36-1.39,2.53,2.53,0,0,1,.29-1.22,2.86,2.86,0,0,1,.87-1,2.89,2.89,0,0,1-.57-.82,2.23,2.23,0,0,1-.19-.92,2.26,2.26,0,0,1,.32-1.21,2.21,2.21,0,0,1,.89-.85,2.88,2.88,0,0,1,1.34-.3,2.71,2.71,0,0,1,1.3.3,2.35,2.35,0,0,1,.9.87,2.46,2.46,0,0,1,.32,1.21,1.94,1.94,0,0,1-.17.84,3.34,3.34,0,0,1-.62.88m-1.72.86a1.39,1.39,0,0,0-1,.36,1.06,1.06,0,0,0-.4.84,1.16,1.16,0,0,0,.37.87,1.37,1.37,0,0,0,1,.36,1.41,1.41,0,0,0,1-.34,1.07,1.07,0,0,0,.37-.85,1.16,1.16,0,0,0-.38-.88,1.32,1.32,0,0,0-1-.36m-.07-3.4a.85.85,0,0,0-.65.26,1,1,0,0,0,0,1.35.89.89,0,0,0,.67.28.91.91,0,0,0,.68-.27,1,1,0,0,0,.26-.7.87.87,0,0,0-.27-.67,1,1,0,0,0-.7-.25"/><path class="cls-2" d="M124.87,126.08h4v1.5h-2.77l-.35,1.54.29-.06a1.18,1.18,0,0,1,.26,0,2.58,2.58,0,0,1,1.92.78,2.79,2.79,0,0,1,.77,2,2.85,2.85,0,0,1-.85,2.09,2.78,2.78,0,0,1-2.06.85,2.82,2.82,0,0,1-2.88-2.31h1.69a1.5,1.5,0,0,0,.52.61,1.31,1.31,0,0,0,1.62-.18,1.37,1.37,0,0,0,.37-1,1.33,1.33,0,0,0-.35-1,1.1,1.1,0,0,0-.84-.38,1.08,1.08,0,0,0-.52.13,2,2,0,0,0-.51.4l-1.31-.29Z"/><path class="cls-2" d="M132.45,134.79l-1.38-.67,1.44-2.91a2.44,2.44,0,0,1-1.84-.74,2.62,2.62,0,0,1-.79-1.91,2.67,2.67,0,0,1,5.33-.1,3,3,0,0,1-.11.79,7.93,7.93,0,0,1-.53,1.23Zm.13-5.11a1,1,0,0,0,.75-.34,1.16,1.16,0,0,0,.3-.81,1.18,1.18,0,0,0-.34-.83,1,1,0,0,0-.75-.32,1,1,0,0,0-.77.34,1.17,1.17,0,0,0-.31.83,1.11,1.11,0,0,0,.33.82,1,1,0,0,0,.79.31"/><path class="cls-2" d="M91.83,103.32c-.38,0-.43,0-.53.32l-.62,1.84a1.8,1.8,0,0,0-.12.57c0,.1.12.19.57.28l.48.09c.09.11.12.48,0,.56-.56,0-1.2,0-1.87-.08s-.91,0-1.64,0c-.18-.1-.16-.43,0-.56l.43,0a1.09,1.09,0,0,0,1-.78c.28-.64.58-1.4,1-2.54L92,99.12c.38-1,.59-1.52.73-2,.44-1.28,1.3-1,1.33-1a.5.5,0,0,1,.36.33c.16.45.3,1,.68,2.2L97.14,105c.32,1,.46,1.33,1,1.43l.6.11a.48.48,0,0,1,0,.56c-.77,0-1.63-.08-2.46-.09s-1.42,0-2.16,0a.36.36,0,0,1,0-.56l.51-.08c.37,0,.44-.16.44-.26a7.44,7.44,0,0,0-.29-1.09l-.41-1.38c-.07-.26-.2-.29-.76-.3Zm1.72-.82c.37,0,.45,0,.33-.45l-.4-1.3c-.21-.69-.41-1.35-.54-1.69a17.75,17.75,0,0,0-.69,1.75L91.84,102c-.16.43-.08.48.32.48Z"/><line class="cls-3" x1="83.84" y1="74.2" x2="83.84" y2="76.96"/><line class="cls-4" x1="118.12" y1="80.06" x2="122.11" y2="80.06"/><line class="cls-3" x1="103.37" y1="36.52" x2="103.37" y2="39.28"/><line class="cls-4" x1="118.66" y1="35.57" x2="121.57" y2="35.57"/></g></g></svg>