<?xml version="1.0" encoding="UTF-8"?><svg id="a" xmlns="http://www.w3.org/2000/svg" width="401" height="400.96" viewBox="0 0 401 400.96"><defs><style>.b{fill:#000;}</style></defs><path class="b" d="M74.91,259.63h-9.98v4.21h11.34c3.22,0,5.87-2.11,5.87-6.41,0-2.08-.96-3.91-2.59-4.93v-.09l2.23-.27v-3.43h-16.84v4.21h8.51c2.74,0,4.78,1.35,4.78,3.85,0,1.71-.99,2.86-3.31,2.86Z"/><path class="b" d="M131.5,213.51c14.62,0,22.4-10.57,22.4-24.51s-10.23-24.85-22.4-24.85-22.4,10.9-22.4,24.85,7.77,24.51,22.4,24.51Zm0-41.76c8.54,0,13.95,8.29,13.95,17.24,0,10.06-4.9,16.56-13.95,16.56s-13.94-6.51-13.94-16.56c0-8.96,5.41-17.24,13.94-17.24Z"/><path class="b" d="M85.28,213.51c10.48,0,16.99-6.17,20.12-14.71l-6.93-5.33h-.42c-1.6,6.51-5.66,12.09-12.76,12.09-9.13,0-13.95-6.51-13.95-16.56,0-8.96,5.41-17.24,13.95-17.24,6.42,0,10.14,4.23,12.09,10.32h.42l5.92-5.84c-2.54-6.17-8.45-12.09-18.43-12.09-12.17,0-22.4,10.4-22.4,24.85s7.78,24.51,22.4,24.51Z"/><path class="b" d="M76.66,242.04c-.9,0-1.23-.69-2.08-4.6-.84-3.79-2.74-5.11-5.32-5.11-2.83,0-4.69,1.65-4.69,5.11,0,2.31,.96,4.03,2.59,4.93v.09l-2.23,.42v3.28h10.71c4.3,0,6.5-2.98,6.5-6.77,0-3.07-1.42-5.44-3.28-6.86l-3.46,2.01v.21c1.66,1.02,3.01,2.73,3.01,4.6s-.78,2.68-1.74,2.68Zm-3.79,.03h-1.8c-1.5,0-2.73-1.77-2.73-3.88,0-1.23,.51-1.8,1.32-1.8s1.41,.51,1.83,2.34c.42,1.84,.81,3.01,1.38,3.28v.06Z"/><path class="b" d="M69.42,139.56l4.96-2.3v-.26c-2.14-1.41-5.17-4.49-5.17-8.67,0-5.22,3.71-8.36,8.72-8.62v20.99h.73c.42,0,.89,.05,1.46,.05,8.67,0,14.67-5.59,14.67-12.85s-6.37-13.37-15.2-13.37-15.3,4.75-15.3,13.79c0,5.17,2.56,9.24,5.12,11.23Zm12.9-19.63c4.02,.57,7.78,3.39,7.78,7.99,0,4.23-2.98,7.26-7.78,7.62v-15.61Z"/><path class="b" d="M120.78,228.49v35.34h5.72v-13.72c0-4.24,2.19-8.29,6.43-8.29,3.86,0,4.91,2.81,4.91,6.15v15.86h5.72v-17.77c0-5.05-2.91-9.48-8.81-9.48-3.62,0-6.38,1.57-8.15,4.24h-.09v-12.34h-5.72Z"/><path class="b" d="M128.73,290.75c-7.41,0-13.26,3.56-16.67,8.45l4.6,7.33h.44c2.6-4.44,6.67-7.85,11.56-7.85s7.19,2.08,7.19,4.89c0,2.6-1.48,3.93-11.26,5.93-9.56,2.08-12.82,6.6-12.82,13.04,0,6.97,4.15,11.49,12.37,11.49,5.71,0,9.85-2.44,12.23-6.37h.22l.96,5.48h7.04v-27.71c0-9.26-6.37-14.67-15.86-14.67Zm7.12,27.71c0,4.37-5.11,7.63-10.3,7.63-3.19,0-5.19-1.56-5.19-4.22,0-2.44,1.4-4.3,6.81-5.56,5.34-1.26,7.71-2.15,8.53-3.71h.15v5.85Z"/><path class="b" d="M93.19,250.64c0,7.86,4.52,13.77,12.76,13.77,6.19,0,9.86-3.53,11.62-8.19l-4.57-3.53h-.29c-.67,3.48-2.95,6.38-6.76,6.38-4.43,0-7.05-3.57-7.05-8.43,0-4.57,2.76-8.81,7.1-8.81,3.24,0,5.33,2.24,6.33,5.43h.29l4.05-3.76c-1.52-3.43-5-6.91-10.67-6.91-7.15,0-12.81,5.81-12.81,14.05Z"/><path class="b" d="M82.26,290.75c-10.67,0-19.27,8.82-19.27,21.71s7.56,21.56,19.94,21.56c8.15,0,14.15-4.15,16.3-7.26l-4-7.93h-.45c-1.92,3.04-6.37,6.89-11.85,6.89-6.37,0-10.67-4.6-10.82-10.67h29.05s.08-1.78,.08-3.04c0-12.67-8.23-21.27-18.97-21.27Zm-9.93,17.26c.67-4.29,4-9.11,9.93-9.11s9.34,4.37,9.71,9.11h-19.64Z"/><path class="b" d="M70.67,79.17v-.26c-.42-.68-1.3-2.04-1.3-3.45s.73-2.3,2.66-2.3h17.44v8.62h4.7v-8.62h7.31v-5.22h-7.31v-4.66h-4.7v4.65h-18.8c-4.44,0-6.37,3.34-6.37,6.73,0,2.09,.78,4.55,1.56,5.74l4.81-1.25Z"/><path class="b" d="M258,188.99c0,14.45,7.78,24.51,22.4,24.51,10.48,0,16.99-6.17,20.12-14.71l-6.93-5.33h-.42c-1.6,6.51-5.66,12.09-12.76,12.09-9.13,0-13.95-6.51-13.95-16.56,0-8.96,5.41-17.24,13.95-17.24,6.42,0,10.14,4.23,12.09,10.32h.42l5.92-5.84c-2.54-6.17-8.45-12.09-18.43-12.09-12.17,0-22.4,10.4-22.4,24.85Z"/><path class="b" d="M280.54,229.92c0-2.24-1.38-3.76-3.81-3.76s-3.86,1.52-3.86,3.76,1.38,3.77,3.86,3.77,3.81-1.53,3.81-3.77Z"/><path class="b" d="M103.67,91.26v-5.22h-38.75v5.22h15.3c6.47,0,9.87,3.24,9.87,7.57s-2.67,5.9-7.05,5.9h-18.12v5.22h19.27c5.54,0,10.6-3.03,10.6-9.71,0-4.18-1.88-7.05-4.65-8.88v-.1h13.52Z"/><path class="b" d="M317.66,153.07c0-3.38-2.11-5.75-5.83-5.75s-5.92,2.37-5.92,5.75,2.11,5.83,5.92,5.83,5.83-2.37,5.83-5.83Z"/><rect class="b" x="273.83" y="237.16" width="5.72" height="26.67"/><path class="b" d="M243.34,125.12c0,10.8,8.13,15.5,16.39,15.5,5.08,0,11.05-1.91,13.98-3.81l-3.05-11.69h-.64c-1.65,1.01-4.95,3.17-8.38,3.17s-5.59-1.78-5.59-6.48v-42.43h20.96v-11.44h-20.96v-17.79h-12.71v17.79h-11.31v11.44h11.31v45.74Z"/><path class="b" d="M141.6,98.95c-16.64,3.43-22.23,10.93-22.23,22.11,0,12.2,7.12,19.57,20.71,19.57,10.04,0,16.9-4.32,21.09-10.93h.38l1.52,9.4h10.42v-49.67c0-13.72-9.15-23-25.79-23-12.58,0-22.61,6.35-28.2,15.12l7.24,10.67h.51c4.57-8.51,11.18-14.36,20.33-14.36s13.21,3.81,13.21,9.53c0,4.96-2.29,8.13-19.18,11.56Zm18.93,3.3h.26v12.45c0,8.64-10.16,14.61-19.06,14.61-5.59,0-10.16-3.17-10.16-8.76,0-5.08,2.79-8.77,13.46-11.31,10.67-2.41,13.85-4.06,15.5-6.99Z"/><rect class="b" x="307.52" y="165.16" width="8.45" height="47.33"/><path class="b" d="M199.72,99.2c0-12.32,4.32-19.44,11.94-19.44,4.45,0,8.26,2.03,10.67,4.57h.63l2.42-13.46c-1.91-2.16-6.35-4.45-11.56-4.45s-11.18,2.8-14.23,10.93h-.38l-1.14-9.4h-11.05v71.14h12.71v-39.89Z"/><path class="b" d="M268.06,290.75c-11.19,0-20.01,9.49-20.01,21.86s7.41,21.42,20.01,21.42,20.01-9.26,20.01-21.42-8.75-21.86-20.01-21.86Zm-.08,34.98c-6.89,0-11.04-5.41-11.04-13.04s4.3-13.78,11.12-13.78,11.12,6.52,11.12,13.63c0,7.56-4.08,13.19-11.19,13.19Z"/><path class="b" d="M321.28,290.75c-5.63,0-9.93,2.44-12.6,6.37h-.22l-.59-5.48h-7.41v41.5h8.89v-21.34c0-7.93,4-12.89,10.15-12.89,5.19,0,7.7,3.11,7.7,9.04v25.19h8.89v-27.64c0-7.93-4.74-14.75-14.82-14.75Z"/><path class="b" d="M232.59,241.83c3.86,0,4.91,2.81,4.91,6.15v15.86h5.72v-17.77c0-5.05-2.91-9.48-8.81-9.48-3.62,0-6.38,1.57-8.15,4.24h-.09v-12.34h-5.72v35.34h5.72v-13.72c0-4.24,2.19-8.29,6.43-8.29Z"/><rect class="b" x="226.78" y="291.64" width="8.89" height="41.5"/><path class="b" d="M231.72,171.75c7.1,0,9.55,4.31,9.55,11.41v29.33h8.45v-31.19c0-8.96-4.9-17.16-15.72-17.16-7.1,0-11.75,2.88-14.88,7.27h-.25l-.68-6.26h-7.18v47.33h8.45v-24.77c0-10.48,5.24-15.98,12.25-15.98Z"/><rect class="b" x="327.63" y="149.78" width="8.45" height="62.72"/><path class="b" d="M206.13,236.59c-3.9,0-6.81,2.05-8.1,4.67h-.14c-1.09-2.52-3.48-4.67-7.33-4.67s-6,1.52-7.62,4.1h-.19l-.38-3.53h-4.76v26.67h5.72v-14.14c0-4.76,2.19-7.86,5.81-7.86,2.91,0,4.34,1.91,4.34,6.1v15.91h5.72v-14.14c0-4.76,2.24-7.86,5.76-7.86,2.91,0,4.43,1.91,4.43,6.15v15.86h5.72v-18.19c0-4.72-2.43-9.05-8.96-9.05Z"/><rect class="b" x="304.09" y="228.49" width="5.72" height="35.34"/><polygon class="b" points="227.08 286.82 235.46 286.82 244.2 277.33 232.27 277.33 227.08 286.82"/><path class="b" d="M255.62,248.64c-6.15,1.33-8.24,4.24-8.24,8.38,0,4.48,2.67,7.38,7.95,7.38,3.67,0,6.33-1.57,7.86-4.1h.14l.62,3.52h4.52v-17.81c0-5.95-4.1-9.43-10.19-9.43-4.76,0-8.53,2.29-10.72,5.43l2.95,4.71h.29c1.66-2.86,4.29-5.05,7.43-5.05s4.62,1.33,4.62,3.15c0,1.66-.95,2.52-7.24,3.81Zm7.15,2h.09v3.76c0,2.81-3.28,4.91-6.62,4.91-2.05,0-3.33-1-3.33-2.71,0-1.57,.91-2.76,4.38-3.57,3.43-.81,4.96-1.38,5.48-2.38Z"/><path class="b" d="M313.13,129.06c-10.16,0-18.29-6.61-23.12-14.23h-.63l-6.48,11.31c4.83,6.86,16.01,14.48,30.74,14.48s25.66-8.13,25.66-20.33-7.37-17.78-23.12-21.85c-18.04-4.83-18.8-7.75-18.8-11.69,0-4.45,4.07-8.89,11.69-8.89,9.4,0,17.4,6.48,21.47,12.83h.63l6.35-10.67c-3.69-5.33-13.46-13.59-28.2-13.59-15.75,0-24.39,9.91-24.39,20.59s6.86,16.77,21.6,20.71c18.93,5.08,20.71,7.88,20.71,12.58,0,5.21-3.94,8.77-14.1,8.77Z"/><path class="b" d="M160.34,236.59c-7.19,0-12.86,6.1-12.86,14.05s4.76,13.77,12.86,13.77,12.86-5.95,12.86-13.77-5.62-14.05-12.86-14.05Zm-.05,22.48c-4.43,0-7.1-3.48-7.1-8.38s2.76-8.86,7.15-8.86,7.15,4.19,7.15,8.76c0,4.86-2.62,8.48-7.19,8.48Z"/><path class="b" d="M326.11,236.59c-6.86,0-12.39,5.67-12.39,13.96s4.86,13.86,12.82,13.86c5.24,0,9.1-2.67,10.48-4.67l-2.57-5.09h-.29c-1.24,1.95-4.1,4.43-7.62,4.43-4.1,0-6.86-2.95-6.95-6.86h18.67s.05-1.14,.05-1.95c0-8.15-5.29-13.67-12.19-13.67Zm-6.38,11.1c.43-2.76,2.57-5.86,6.38-5.86s6,2.81,6.24,5.86h-12.62Z"/><rect class="b" x="158.45" y="278.15" width="8.89" height="54.98"/><path class="b" d="M170.71,195.25v-30.09h-8.45v31.19c0,10.06,4.56,17.16,14.96,17.16,7.1,0,11.33-3.13,13.61-7.27h.26l1.01,6.26h7.27v-47.33h-8.45v26.12c0,9.55-5.5,14.54-11.92,14.54s-8.29-4.05-8.29-10.56Z"/><path class="b" d="M296.32,236.59c-2.43,0-4.52,1.38-5.57,4.1h-.14l-.43-3.53h-4.81v26.67h5.72v-14.29c0-4.38,1.48-7.14,4.57-7.14,1.62,0,3.1,.86,3.86,1.76h.29l1-5.72c-.81-1-2.52-1.86-4.48-1.86Z"/><path class="b" d="M197.06,290.75c-7.41,0-13.26,3.56-16.67,8.45l4.6,7.33h.44c2.6-4.44,6.67-7.85,11.56-7.85s7.19,2.08,7.19,4.89c0,2.6-1.48,3.93-11.26,5.93-9.56,2.08-12.82,6.6-12.82,13.04,0,6.97,4.15,11.49,12.37,11.49,5.71,0,9.85-2.44,12.23-6.37h.22l.96,5.48h7.04v-27.71c0-9.26-6.37-14.67-15.86-14.67Zm7.12,27.71c0,4.37-5.11,7.63-10.3,7.63-3.19,0-5.19-1.56-5.19-4.22,0-2.44,1.4-4.3,6.81-5.56,5.34-1.26,7.71-2.15,8.53-3.71h.15v5.85Z"/><path class="b" d="M0,0V400.96H401V0H0ZM396.35,396.32H4.65V4.65H396.35V396.32Z"/></svg>