<?xml version="1.0" encoding="UTF-8"?> <svg xmlns="http://www.w3.org/2000/svg" viewBox="0 0 728.56 152.35"><defs><style>.cls-1{fill:none;}.cls-2{fill:#597786;}.cls-3{fill:#061844;}.cls-4{fill:#0e0059;}.cls-5{fill:#084887;}</style></defs><title>CWH_logo</title><g id="Layer_2" data-name="Layer 2"><g id="Layer_1-2" data-name="Layer 1"><polygon class="cls-1" points="632.35 139.66 642.69 139.66 637.57 126.13 632.35 139.66"></polygon><path class="cls-1" d="M587.22,93.93a21.17,21.17,0,1,0-21.17-21.17A21.17,21.17,0,0,0,587.22,93.93Z"></path><path class="cls-1" d="M269.76,51.6a21.17,21.17,0,1,0,21.18,21.16A21.16,21.16,0,0,0,269.76,51.6Z"></path><path class="cls-2" d="M55.46,73.45c-.41,0-.81.06-1.21.06A25.3,25.3,0,0,1,50,73.16a17,17,0,0,0,8.22,4.38A28.73,28.73,0,0,1,55.46,73.45Z"></path><path class="cls-2" d="M63.51,67.06a36.23,36.23,0,0,0,4.93-1.83,42,42,0,0,0-1.25-5.77c0-.09-.06-.16-.08-.24a43,43,0,0,1-5.31,1.94,41.71,41.71,0,0,1-5.53,1.2l.06.25a40.87,40.87,0,0,0,2.07,5.53A34.07,34.07,0,0,0,63.51,67.06Z"></path><path class="cls-2" d="M65.36,54.46c-2.7-6.17-6.14-9.57-8-9.57a1,1,0,0,0-.31,0c-.82.24-1.81,1.85-2.18,4.92a29.07,29.07,0,0,0,.3,7.56,35.72,35.72,0,0,0,5.18-1.09A34.7,34.7,0,0,0,65.36,54.46Z"></path><path class="cls-2" d="M45.51,65.76h0C47,67.19,49.87,68.23,53,68.4c-.58-1.45-1.1-2.93-1.53-4.39-.12-.43-.2-.86-.31-1.29a18.32,18.32,0,0,1-6.31-1,16.58,16.58,0,0,0,.64,4.08h0Z"></path><path class="cls-2" d="M50,48.91a17,17,0,0,0-4.45,7.42c.68.59,2.28,1.12,4.64,1.3a32.83,32.83,0,0,1-.25-8.38Z"></path><path class="cls-2" d="M76.59,69.19A17,17,0,0,0,78.21,65a27.18,27.18,0,0,1-4.45,3.21,28.82,28.82,0,0,1-.17,5A16.68,16.68,0,0,0,76.59,69.19Z"></path><path class="cls-2" d="M71.63,56.78c.14.43.27.85.4,1.27.43,1.5.78,3,1.06,4.53,2.63-1.88,4.46-4.27,4.91-6.3a16.69,16.69,0,0,0-1.65-3.7A18.45,18.45,0,0,1,71.63,56.78Z"></path><path class="cls-2" d="M69.76,51.93A9,9,0,0,0,73,48.43a17,17,0,0,0-7.68-3.91A33.81,33.81,0,0,1,69.76,51.93Z"></path><path class="cls-2" d="M66.43,77.14c1-.31,2.14-2.66,2.31-6.55-1.29.5-2.57,1-3.83,1.31s-2.57.66-3.9.92C63.15,75.91,65.27,77.47,66.43,77.14Z"></path><rect class="cls-3" x="227.44" y="16.33" width="7.06" height="84.65"></rect><rect class="cls-3" x="502.56" y="16.33" width="7.06" height="84.65"></rect><rect class="cls-3" x="523.73" y="16.33" width="7.06" height="84.65"></rect><rect class="cls-3" x="481.4" y="44.55" width="7.06" height="56.43"></rect><rect class="cls-3" x="481.4" y="30.44" width="7.06" height="7.06"></rect><rect class="cls-3" x="544.89" y="30.44" width="7.06" height="7.06"></rect><rect class="cls-3" x="544.89" y="44.55" width="7.06" height="56.43"></rect><path class="cls-3" d="M290.94,54.11a28.22,28.22,0,1,0,0,37.3V101H298V44.55h-7.05ZM269.76,93.93a21.17,21.17,0,1,1,21.18-21.17A21.16,21.16,0,0,1,269.76,93.93Z"></path><path class="cls-3" d="M587.22,101a28.18,28.18,0,0,0,21.16-9.57V101h7V44.55h-7v9.56A28.22,28.22,0,1,0,587.22,101Zm0-49.38a21.17,21.17,0,1,1-21.17,21.16A21.17,21.17,0,0,1,587.22,51.6Z"></path><path class="cls-3" d="M333.27,44.55a28.14,28.14,0,0,0-21.17,9.56V44.55H305V101h7.06V72.76a21.16,21.16,0,1,1,42.32,0V101h7.06V72.76A28.2,28.2,0,0,0,333.27,44.55Z"></path><path class="cls-3" d="M467.29,54.11V72.75h0a21.16,21.16,0,1,1-42.32,0V44.55h-7.05V72.76a21.17,21.17,0,1,1-42.33,0V44.55h-7V72.76a28.21,28.21,0,0,0,52.9,13.67,28.21,28.21,0,0,0,52.9-13.67V44.55h-7Z"></path><path class="cls-3" d="M721.25,72.76V101h7.06V72.76A28.23,28.23,0,0,0,675.39,59.1a28.21,28.21,0,0,0-45.85-5V44.55h-7V101h7V72.76a21.17,21.17,0,0,1,42.33,0V101h7V72.76a21.17,21.17,0,0,1,42.34,0Z"></path><path class="cls-3" d="M185,23.39A35.17,35.17,0,0,1,213.25,37.5h8.43a42.33,42.33,0,1,0,0,42.31h-8.43A35.27,35.27,0,1,1,185,23.39Z"></path><path class="cls-4" d="M69.46,31.92A30.54,30.54,0,1,0,91.09,53.54a3.84,3.84,0,1,0-7.43,2A22.89,22.89,0,1,1,67.48,39.34a3.84,3.84,0,0,0,2-7.42Z"></path><path class="cls-5" d="M84.5,21.76A46.12,46.12,0,0,0,17.62,76.09a4,4,0,0,0,7.67-2.52A38.05,38.05,0,1,1,69.22,98.94a4,4,0,0,0,1.66,7.9A46.12,46.12,0,0,0,84.5,21.76Z"></path><path class="cls-4" d="M31,8.29A61.94,61.94,0,0,0,42.19,120.65a4.15,4.15,0,1,0,2.64-7.87,53.65,53.65,0,1,1,69.69-40.24,4.16,4.16,0,0,0,8.15,1.65A61.94,61.94,0,0,0,31,8.29Z"></path><polygon class="cls-2" points="585.16 132.33 569.61 132.33 569.61 119.08 563.69 119.08 563.69 152.35 569.61 152.35 569.61 137.69 585.16 137.69 585.16 152.35 591.09 152.35 591.09 119.08 585.16 119.08 585.16 132.33"></polygon><polygon class="cls-2" points="603.02 137.97 618.3 137.97 618.3 132.61 603.02 132.61 603.02 124.44 619.15 124.44 619.15 119.08 597.1 119.08 597.1 152.35 619.99 152.35 619.99 147 603.02 147 603.02 137.97"></polygon><path class="cls-2" d="M635.17,119.08,620.7,152.35h6.62l3-7.61h14.43l3.1,7.61h6.77l-14.34-33.27Zm-2.82,20.58,5.22-13.53,5.12,13.53Z"></path><polygon class="cls-2" points="662.86 119.08 656.93 119.08 656.93 152.35 677 152.35 677 147 662.86 147 662.86 119.08"></polygon><polygon class="cls-2" points="672.21 124.44 682.41 124.44 682.41 152.35 688.33 152.35 688.33 124.44 698.53 124.44 698.53 119.08 672.21 119.08 672.21 124.44"></polygon><polygon class="cls-2" points="722.64 119.08 722.64 132.33 707.08 132.33 707.08 119.08 701.16 119.08 701.16 152.35 707.08 152.35 707.08 137.69 722.64 137.69 722.64 152.35 728.56 152.35 728.56 119.08 722.64 119.08"></polygon></g></g></svg> 