<svg xmlns="http://www.w3.org/2000/svg" width="258.33" height="80" viewBox="0 0 258.33 80"><g transform="translate(73.24 5.219)"><path d="M99.442,10.284h0l1.365,4.018H98.078Zm-4.934,8.449h3.78v-.412c-.735-.206-1.261-.412-1.261-.927a4.483,4.483,0,0,1,.211-.825l.42-1.34h3.569l.525,1.546a1.286,1.286,0,0,1,.1.619c0,.618-.315.721-1.05.927v.412h4.3v-.412a1.371,1.371,0,0,1-.945-1.03L100.7,7.914l-1.47.206-3.151,8.346c-.525,1.237-.945,1.649-1.574,1.855Z" transform="translate(-94.508 -6.986)" fill="#2b2b2e"/><path d="M108.732,19.621h3.779v-.412c-.735-.206-.735-.515-.735-1.752V13.645a2.341,2.341,0,0,1,1.365-.412c1.05,0,1.366.412,1.366,1.443v.1l-.1,2.987c0,.928-.1,1.237-.946,1.443v.412h3.78v-.412c-.735-.206-.735-.515-.735-1.752V13.851c0-1.339-.735-1.958-2.1-1.958a4.752,4.752,0,0,0-2.626,1.237V12.1l-.315-.206-2.624.516v.309c.84.309.945.721.945,1.544v.1l-.1,3.4c0,.928-.1,1.237-.945,1.443Z" transform="translate(-97.708 -7.875)" fill="#2b2b2e"/><path d="M128.962,13.065h0V8.635c1.791.206,3.051.928,3.051,2.576a2.877,2.877,0,0,1-.742,2.061,2.513,2.513,0,0,1-.84.207A2.774,2.774,0,0,1,128.962,13.065Zm-3.569,5.667h5.038v-.412c-1.148-.309-1.469-.515-1.469-1.855V14.2a.986.986,0,0,0,.532.1c.1,0,.42,0,.518-.1l1.791,2.884c1.148,2.061,2.407,2.577,3.779,2.577a5.407,5.407,0,0,0,1.358-.206v-.206c-1.148-.207-1.777-.928-2.729-2.165l-2.309-3.4a3.874,3.874,0,0,0,2.211-3.092c0-1.649-1.372-2.678-3.471-2.678a13.249,13.249,0,0,0-2.1.206L125.6,7.914v.412c1.05.412,1.162.927,1.162,2.164v5.976c0,1.237-.21,1.546-1.372,1.855Z" transform="translate(-101.457 -6.986)" fill="#2b2b2e"/><path d="M143.911,19h0c-1.05,0-1.679-1.134-1.679-3.3,0-1.855.518-2.987,1.567-2.987s1.679,1.133,1.679,3.3C145.478,17.869,144.961,19,143.911,19Zm-3.891-2.781h0c0,2.472,1.372,3.5,3.569,3.5a3.962,3.962,0,0,0,4.1-4.327c0-2.473-1.372-3.5-3.569-3.5a3.963,3.963,0,0,0-4.1,4.329Z" transform="translate(-104.748 -7.875)" fill="#2b2b2e"/><path d="M151,18.466h3.877v-.412c-.728-.206-.84-.515-.84-1.752v-3.09c0-.619.112-1.752.112-2.268l-.322-.206-2.617.516v.309a1.39,1.39,0,0,1,.938,1.544v.1l-.21,3.4c0,.928-.1,1.237-.938,1.443Zm2.1-9.48h0a1.127,1.127,0,0,0,1.26-1.133,1.267,1.267,0,0,0-2.519,0,1.12,1.12,0,0,0,1.26,1.133Z" transform="translate(-107.219 -6.72)" fill="#2b2b2e"/><path d="M157.086,19.621h3.779v-.412c-.728-.206-.728-.515-.728-1.752V13.645a2.321,2.321,0,0,1,1.358-.412c1.05,0,1.372.412,1.372,1.443v.1l-.112,2.987c0,.928-.1,1.237-.938,1.443v.412h3.891v-.412c-.742-.206-.84-.515-.84-1.752V13.851c0-1.339-.742-1.958-2.113-1.958a4.755,4.755,0,0,0-2.617,1.237V12.1l-.322-.206-2.617.516v.309c.84.309.938.721.938,1.544v.1l-.1,3.4c0,.928-.112,1.237-.952,1.443Z" transform="translate(-108.588 -7.875)" fill="#2b2b2e"/><path d="M169.293,19.621h3.877v-.412c-.728-.206-.84-.515-.84-1.752V13.645a2.582,2.582,0,0,1,1.372-.412c1.05,0,1.469.412,1.469,1.443v.1l-.21,2.987c0,.928-.112,1.237-.84,1.443v.412H177.9v-.412c-.742-.206-.84-.515-.84-1.752V13.851c0-1.339-.742-1.958-2.1-1.958a5.122,5.122,0,0,0-2.631,1.237V12.1l-.308-.206-2.519.516v.309a1.39,1.39,0,0,1,.938,1.544v.1l-.21,3.4c0,.928-.1,1.237-.938,1.443Z" transform="translate(-111.335 -7.875)" fill="#2b2b2e"/><path d="M187.351,18.733h6.2v-.412c-1.47-.309-2-.721-2-1.855V9.047h.952c1.148,0,1.679.412,2.407,1.649l.322-.309-.42-2.472a14.576,14.576,0,0,1-4.311.309,14.98,14.98,0,0,1-4.408-.309l-.42,2.472.322.309c.728-1.237,1.26-1.649,2.407-1.649h.952v7.419c0,1.134-.532,1.546-2,1.855Z" transform="translate(-115.02 -6.986)" fill="#2b2b2e"/><path d="M200.4,18.694h0a.955.955,0,0,1-1.05-.928c0-.515.308-.824,1.05-1.133l1.05-.516-.112,2.371a1.564,1.564,0,0,1-.938.206Zm-2.939-.515h0c0,1.03.728,1.544,1.987,1.544a2.741,2.741,0,0,0,2-.824c.1.618.63.824,1.358.824a5.275,5.275,0,0,0,1.679-.309v-.309c-.938-.309-1.148-.618-1.148-1.649v-.206l.1-3.607v-.206c0-1.03-.518-1.546-1.777-1.546-1.581,0-3.779,1.134-3.779,2.164,0,.516.308.619,1.26.722.518-1.546.938-1.958,1.469-1.958s.84.309.84,1.03V15.5l-2.1.722c-1.049.412-1.889.824-1.889,1.958Z" transform="translate(-117.673 -7.875)" fill="#2b2b2e"/><path d="M207.216,18.466h3.891v-.412c-.742-.206-.84-.515-.84-1.752V10.944a31.644,31.644,0,0,1,.21-4.018l-.42-.206-2.743.412v.413c.84.309.952.824.952,1.545v4.123l-.112,3.4c0,.928-.1,1.237-.938,1.443Z" transform="translate(-119.867 -6.72)" fill="#2b2b2e"/><path d="M213.319,19.616H217.2V19.2c-.728-.206-.84-.515-.84-1.752V13.64a2.616,2.616,0,0,1,1.372-.412c.938,0,1.358.412,1.358,1.443v.1l-.21,2.987c0,.928-.1,1.237-.938,1.443v.412h3.877V19.2c-.728-.206-.84-.515-.84-1.752V13.537a3.316,3.316,0,0,1,1.372-.309c.938,0,1.26.412,1.26,1.443v.1l-.112,2.987c0,.928-.1,1.237-.938,1.443v.412h3.877V19.2c-.728-.206-.84-.515-.84-1.752V13.846a1.756,1.756,0,0,0-1.987-1.958,5.022,5.022,0,0,0-2.729,1.237,1.762,1.762,0,0,0-1.889-1.237,4.75,4.75,0,0,0-2.631,1.237V12.094l-.21-.206-2.617.516v.309a1.39,1.39,0,0,1,.938,1.544v.1l-.21,3.4c0,.928-.1,1.237-.938,1.443Z" transform="translate(-121.241 -7.87)" fill="#2b2b2e"/><path d="M235.914,18.466h3.779v-.412c-.728-.206-.84-.515-.84-1.752V12.7a1.756,1.756,0,0,0-1.987-1.958,5.352,5.352,0,0,0-2.729,1.237V10.944c0-.618.1-2.576.21-4.018l-.42-.206-2.631.412v.413c.84.309.952.824.952,1.545v4.123l-.112,3.4c-.1.928-.21,1.237-.938,1.443v.412h3.779v-.412c-.63-.206-.84-.515-.84-1.752V12.49a2.9,2.9,0,0,1,1.469-.412c.938,0,1.358.412,1.358,1.443v.1l-.1,2.987c-.112.928-.21,1.237-.952,1.443Z" transform="translate(-125.263 -6.72)" fill="#2b2b2e"/><path d="M246.452,18.694h0a.871.871,0,0,1-.938-.928c0-.515.308-.824.938-1.133l1.05-.516v2.371A1.9,1.9,0,0,1,246.452,18.694Zm-2.939-.515h0c0,1.03.84,1.544,2,1.544A2.534,2.534,0,0,0,247.5,18.9h.112c.1.618.63.824,1.26.824a5.917,5.917,0,0,0,1.777-.309v-.309c-.938-.309-1.26-.618-1.26-1.649v-.206l.112-3.607v-.206c0-1.03-.532-1.546-1.791-1.546-1.567,0-3.779,1.134-3.779,2.164,0,.516.42.619,1.26.722.532-1.546,1.05-1.958,1.581-1.958s.728.309.728,1.03V15.5l-1.987.722c-1.161.412-2,.824-2,1.958Z" transform="translate(-128.034 -7.875)" fill="#2b2b2e"/><path d="M254.781,10.106h0L257.4,8.045l-.1-.928h-1.05L254.459,9.8Zm-1.372,8.449H257.3v-.412c-.742-.206-.84-.515-.84-1.752V13.3a16.8,16.8,0,0,1,.1-2.268l-.308-.206-2.743.516v.309c.84.309.952.721.952,1.544v.1l-.112,3.4c0,.928-.1,1.237-.938,1.443Z" transform="translate(-130.261 -6.808)" fill="#2b2b2e"/><path d="M263.418,19h0c-.938,0-1.567-1.134-1.567-3.3,0-1.855.518-2.987,1.567-2.987.952,0,1.679,1.133,1.679,3.3C265.1,17.869,264.58,19,263.418,19Zm-3.779-2.781h0c0,2.472,1.372,3.5,3.471,3.5a3.985,3.985,0,0,0,4.2-4.327c0-2.473-1.469-3.5-3.569-3.5-2.309,0-4.1,1.443-4.1,4.329Z" transform="translate(-131.663 -7.875)" fill="#2b2b2e"/><path d="M270.887,16.014h0c0,2.577,1.47,3.709,3.359,3.709a3.248,3.248,0,0,0,2.939-1.544l-.42-.207a2.507,2.507,0,0,1-1.679.516c-1.05,0-2.1-.722-2.1-2.886s.84-2.884,1.568-2.884c.63,0,.742.309,1.26,1.649a1.16,1.16,0,0,0,.63.206c.532,0,.84-.31.84-.928,0-.927-1.05-1.752-2.519-1.752a3.853,3.853,0,0,0-3.877,4.121Z" transform="translate(-134.192 -7.875)" fill="#2b2b2e"/><path d="M284.657,18.466h3.779v-.412c-.742-.206-.84-.515-.84-1.752V12.7c0-1.339-.742-1.958-2.1-1.958a5.122,5.122,0,0,0-2.631,1.237V10.944c0-.618.112-2.576.21-4.018l-.42-.206-2.617.412v.413a1.459,1.459,0,0,1,.938,1.545v4.123l-.21,3.4c0,.928-.1,1.237-.938,1.443v.412h3.877v-.412c-.728-.206-.84-.515-.84-1.752V12.49a2.582,2.582,0,0,1,1.372-.412c1.05,0,1.469.412,1.469,1.443v.1l-.21,2.987c0,.928-.112,1.237-.84,1.443Z" transform="translate(-136.205 -6.72)" fill="#2b2b2e"/><path d="M292.774,17.558h0c0,1.134.63,1.752,1.889,1.752a2.877,2.877,0,0,0,2.211-.824l-.112-.412a2.542,2.542,0,0,1-.938.206c-.742,0-.952-.206-.952-1.34V12.819h1.26c.42,0,.742-.1.742-.618,0-.206-.21-.516-.42-.516l-1.581.1V10.14l-.518-.1a4.266,4.266,0,0,1-2.211,2.061v.412l.742.618Z" transform="translate(-138.977 -7.46)" fill="#2b2b2e"/><path d="M302.271,18.694h0a.871.871,0,0,1-.938-.928c0-.515.308-.824.938-1.133l1.05-.516v2.371A1.9,1.9,0,0,1,302.271,18.694Zm-2.939-.515h0c0,1.03.84,1.544,2,1.544a2.973,2.973,0,0,0,2.1-.824c.1.618.63.824,1.26.824a5.917,5.917,0,0,0,1.777-.309v-.309c-.938-.309-1.26-.618-1.26-1.649v-.206l.21-3.607v-.206c0-1.03-.518-1.546-1.889-1.546-1.567,0-3.779,1.134-3.779,2.164,0,.516.42.619,1.26.722.532-1.546,1.05-1.958,1.581-1.958s.84.309.84,1.03V15.5l-2.1.722c-1.05.412-2,.824-2,1.958Z" transform="translate(-140.594 -7.875)" fill="#2b2b2e"/><path d="M309.979,19.764h0a1.539,1.539,0,0,0,.63,1.133l.42.206a.74.74,0,0,1,.42.722c0,.824-.63,1.339-1.679,1.958l.518.721c2-1.237,2.519-2.576,2.519-3.812,0-1.443-.63-2.164-1.567-2.164a1.265,1.265,0,0,0-1.26,1.237Z" transform="translate(-142.942 -9.356)" fill="#2b2b2e"/><path d="M98.86,36.311h0l-.21-.206V31.983c2.1,0,2.939,1.031,2.939,2.268a2.784,2.784,0,0,1-.945,2.164,11,11,0,0,0-1.784-.1Zm-.21,3.4h0V36.929c2.309.206,3.254.927,3.254,2.472,0,1.134-.525,2.061-1.784,2.061-.944,0-1.469-.412-1.469-1.752Zm-3.465,2.371H97.5c.945,0,2.309.1,2.834.1,2.309,0,3.779-1.031,3.779-2.886,0-1.443-1.155-2.267-2.729-2.678a3.732,3.732,0,0,0,1.994-2.989c0-1.339-1.05-2.37-2.939-2.37a13.166,13.166,0,0,0-2.1.206l-3.045-.1v.412c1.155.412,1.26.928,1.26,2.164v5.873c0,1.237-.315,1.546-1.365,1.855Z" transform="translate(-94.66 -12.2)" fill="#2b2b2e"/><path d="M107.784,41.815h3.884V41.4c-.735-.206-.84-.515-.84-1.752V36.56a15.661,15.661,0,0,1,.1-2.267l-.315-.206-2.729.515v.309c.84.309.945.721.945,1.546v.1l-.1,3.4c0,.927-.1,1.236-.945,1.441Zm2.1-9.48h0a1.124,1.124,0,0,0,1.26-1.134,1.267,1.267,0,0,0-2.519,0,1.124,1.124,0,0,0,1.26,1.134Z" transform="translate(-97.495 -11.933)" fill="#2b2b2e"/><path d="M116.955,42.042h0a.873.873,0,0,1-.945-.927c0-.516.315-.825.945-1.134l1.05-.515v2.37a2.111,2.111,0,0,1-1.05.206Zm-2.94-.515h0c0,1.03.84,1.546,2,1.546A2.714,2.714,0,0,0,118,42.248a1.274,1.274,0,0,0,1.365.825,4.874,4.874,0,0,0,1.686-.31v-.309a1.435,1.435,0,0,1-1.162-1.649V40.6l.1-3.605v-.207c0-1.03-.525-1.544-1.784-1.544-1.574,0-3.78,1.133-3.78,2.164,0,.515.42.618,1.261.721.525-1.546.945-1.958,1.574-1.958.525,0,.735.309.735,1.031v1.647l-1.994.722c-1.156.412-2,.824-2,1.958Z" transform="translate(-98.897 -13.089)" fill="#2b2b2e"/><path d="M131.312,42.042h0a.871.871,0,0,1-.938-.927c0-.516.308-.825.938-1.134l1.05-.515v2.37A1.9,1.9,0,0,1,131.312,42.042Zm-2.939-.515h0c0,1.03.84,1.546,2,1.546a2.534,2.534,0,0,0,1.987-.825h.112c.1.619.63.825,1.26.825a5.88,5.88,0,0,0,1.777-.31v-.309c-.938-.309-1.26-.618-1.26-1.649V40.6l.21-3.605v-.207q0-1.544-1.889-1.544c-1.567,0-3.779,1.133-3.779,2.164,0,.515.42.618,1.26.721.532-1.546,1.05-1.958,1.581-1.958s.728.309.728,1.031v1.647l-1.987.722c-1.049.412-2,.824-2,1.958Z" transform="translate(-102.128 -13.089)" fill="#2b2b2e"/><path d="M142.776,43.485h0c.84.1,1.372.309,1.372.927,0,.722-.63,1.443-2.211,1.443-1.26,0-1.987-.618-1.987-1.443a1.5,1.5,0,0,1,.42-1.133Zm-.63-3.915h0a1.531,1.531,0,0,1-1.679-1.649,1.681,1.681,0,1,1,3.359,0,1.531,1.531,0,0,1-1.68,1.649Zm-3.877,5.151h0c0,1.34,1.26,1.958,3.359,1.958,2.309,0,4.3-1.236,4.3-2.987,0-1.237-.728-1.649-2.407-1.855l-1.679-.1c-.742-.1-1.162-.206-1.162-.721a.9.9,0,0,1,.322-.619,4.335,4.335,0,0,0,1.148.1c2.1,0,3.471-1.03,3.471-2.576a2.819,2.819,0,0,0-.322-1.34h1.26V35.449a14.411,14.411,0,0,1-1.889.1c-1.148,0-1.26-.309-2.519-.309-2.1,0-3.569,1.03-3.569,2.678a2.408,2.408,0,0,0,1.889,2.267c-.84.515-1.358.928-1.358,1.649a1.282,1.282,0,0,0,.84,1.237c-.952.309-1.68.927-1.68,1.647Z" transform="translate(-104.354 -13.089)" fill="#2b2b2e"/><path d="M152.711,35.375h0l-2.939.412V36.1c.742.206.952.515.952,1.443v3.5c0,1.544.84,2.061,2.2,2.061a3.366,3.366,0,0,0,2.421-1.134V43l.308.1,2.519-.31v-.412c-.63-.309-.938-.412-.938-1.546v-.1l.21-5.357-3.149.412V36.1c.84.309,1.148.618,1.148,1.546v.1l-.1,3.709a3.5,3.5,0,0,1-1.47.412c-.84,0-1.162-.412-1.162-1.443V35.375Z" transform="translate(-106.942 -13.118)" fill="#2b2b2e"/><path d="M162.414,42.762h0a7.364,7.364,0,0,0,2.323.31c1.777,0,3.149-.825,3.149-2.474a2.2,2.2,0,0,0-1.679-2.164l-1.372-.515c-.742-.206-.84-.618-.84-1.031,0-.618.532-.927,1.162-.927.938,0,1.469.721,2.2,1.649l.42-.206-.42-1.752a4.319,4.319,0,0,0-1.987-.412c-1.791,0-3.051.927-3.051,2.267a2.013,2.013,0,0,0,1.469,2.061l1.26.515c.84.309,1.05.721,1.05,1.237a1.013,1.013,0,0,1-1.148,1.03,2.079,2.079,0,0,1-1.9-1.236l-.63-.928-.308.206Z" transform="translate(-109.718 -13.088)" fill="#2b2b2e"/><path d="M174.837,42.141h4.1v-.413c-1.162-.309-1.372-.515-1.372-1.441V38.018l.21-4.327,3.471,8.243h.21l3.779-8.449.308,6.6c.112,1.133-.21,1.442-1.148,1.647v.413H188.9v-.413c-.63-.206-1.148-.309-1.26-1.236l-.308-6.8c0-1.236.21-1.649,1.148-1.752v-.412h-3.457l-3.051,6.8-2.729-6.8h-3.359v.412c.952.309,1.05.516,1.05,1.237a3.331,3.331,0,0,1-.1.927l-.532,5.977c-.1,1.133-.42,1.338-1.469,1.647Z" transform="translate(-112.582 -12.259)" fill="#2b2b2e"/><path d="M197.008,42.042h0a.962.962,0,0,1-1.05-.927c0-.516.322-.825,1.05-1.134l1.05-.515-.1,2.37a1.606,1.606,0,0,1-.952.206Zm-2.939-.515h0c0,1.03.742,1.546,2,1.546a2.686,2.686,0,0,0,1.987-.825c.21.619.63.825,1.372.825a5.311,5.311,0,0,0,1.679-.31v-.309c-.952-.309-1.162-.618-1.162-1.649V40.6l.112-3.605v-.207c0-1.03-.532-1.544-1.791-1.544-1.567,0-3.779,1.133-3.779,2.164,0,.515.322.618,1.26.721.532-1.546.952-1.958,1.469-1.958s.84.309.84,1.031v1.647l-2.1.722c-1.049.412-1.889.824-1.889,1.958Z" transform="translate(-116.909 -13.089)" fill="#2b2b2e"/><path d="M203.965,42.97h4.408v-.413c-1.26-.206-1.469-.515-1.469-1.752V37.818a1.119,1.119,0,0,1,1.148-.618,2.58,2.58,0,0,1,1.274.412,2.308,2.308,0,0,0,.308-1.34c0-.618-.308-.927-.728-.927-.742,0-.854.206-2,1.649V35.449l-.21-.206-2.631.515v.309c.84.309.952.721.952,1.546v.1l-.112,3.4c-.1.927-.21,1.236-.938,1.441Z" transform="translate(-119.136 -13.089)" fill="#2b2b2e"/><path d="M214.9,42.042h0a.875.875,0,0,1-.952-.927c0-.516.322-.825.952-1.134l1.05-.515v2.37A1.947,1.947,0,0,1,214.9,42.042Zm-2.939-.515h0c0,1.03.84,1.546,1.987,1.546a2.565,2.565,0,0,0,2-.825h.1c.112.619.63.825,1.26.825a5.893,5.893,0,0,0,1.791-.31v-.309c-.952-.309-1.26-.618-1.26-1.649V40.6l.1-3.605v-.207c0-1.03-.518-1.544-1.777-1.544-1.581,0-3.779,1.133-3.779,2.164,0,.515.42.618,1.26.721.518-1.546,1.05-1.958,1.567-1.958s.742.309.742,1.031v1.647l-2,.722c-1.049.412-1.987.824-1.987,1.958Z" transform="translate(-120.936 -13.089)" fill="#2b2b2e"/><path d="M98.126,63.06h0V55.126h.315c3.254,0,5.668,1.647,5.668,5.048,0,2.886-1.469,4.638-3.779,4.638C98.65,64.811,98.126,64.4,98.126,63.06Zm-2.94,2.37h2.1c.946,0,2.311.1,2.94.1,3.359,0,5.46-2.061,5.46-5.564s-2.835-5.358-6.509-5.358a20.233,20.233,0,0,0-3.675.31v.412c1.05.206,1.26.412,1.26,1.855v5.976c0,1.338-.315,1.649-1.574,1.855Z" transform="translate(-94.66 -17.413)" fill="#2b2b2e"/><path d="M114.123,59.311h0a1.291,1.291,0,0,1,1.471,1.34v.412l-.21.206h-3.255A2.289,2.289,0,0,1,114.123,59.311Zm-3.359,3.4h0c0,2.37,1.26,3.71,3.149,3.71a3.2,3.2,0,0,0,2.94-1.649l-.315-.1a3.249,3.249,0,0,1-2.1.721c-1.469,0-2.414-.927-2.414-3.09v-.412h4.725a4.977,4.977,0,0,0,.1-1.134,2.139,2.139,0,0,0-2.416-2.164c-2.1,0-3.674,1.546-3.674,4.121Z" transform="translate(-98.166 -18.302)" fill="#2b2b2e"/><path d="M123.964,59.62h0c1.679,0,2.519.928,2.519,2.886s-1.05,3.3-2.407,3.3c-1.05,0-1.581-.825-1.581-1.855V60.136a2.557,2.557,0,0,1,1.469-.516Zm-2.729,8.141h0c0,1.236-.21,1.545-1.26,1.649v.412h4.2V69.41c-1.26-.207-1.567-.413-1.567-1.34l-.112-1.958a3.429,3.429,0,0,0,1.47.309,3.887,3.887,0,0,0,3.891-4.224c0-2.37-1.26-3.606-2.939-3.606a3.548,3.548,0,0,0-2.421,1.134V58.693l-.1-.1-2.106.515v.309c.84.31.945.619.945,1.958Z" transform="translate(-100.238 -18.302)" fill="#2b2b2e"/><path d="M134.315,65.6h0a.956.956,0,0,1-1.05-.928c0-.515.308-.824,1.26-1.237l1.567-.618-.1,2.267a2.978,2.978,0,0,1-1.679.516Zm-2.421-.722h0c0,1.031.742,1.546,1.791,1.546a2.955,2.955,0,0,0,2.309-.928,1.043,1.043,0,0,0,1.148.928,5.479,5.479,0,0,0,1.47-.206V65.9c-1.148-.309-1.26-.516-1.26-1.443v-.206l.112-4.018v-.1a1.351,1.351,0,0,0-1.469-1.546c-1.791,0-3.891,1.34-3.891,2.061,0,.515.42.721,1.05.721.42-1.133.742-1.958,1.791-1.958.84,0,1.26.413,1.26,1.443v1.34l-2.421.824c-1.148.515-1.889.928-1.889,1.855Z" transform="translate(-102.92 -18.3)" fill="#2b2b2e"/><path d="M141.646,66.318h4.1v-.412c-1.26-.206-1.581-.413-1.581-1.752V61.166c.322-.618.742-.927,1.162-.927a3.76,3.76,0,0,1,1.26.309,2.461,2.461,0,0,0,.518-1.237c0-.412-.308-.618-.728-.618-.63,0-1.05.206-2.211,1.752V58.693l-.21-.1-1.987.515v.309c.728.206.938.722.938,1.546v.1l-.21,3.4c0,.927-.1,1.237-1.05,1.443Z" transform="translate(-105.114 -18.302)" fill="#2b2b2e"/><path d="M150.514,64.255h0c-.112,1.237.518,1.752,1.679,1.752a3.022,3.022,0,0,0,2.2-.824l-.21-.413a1.845,1.845,0,0,1-1.26.413c-.728,0-1.05-.413-1.05-1.443V59.412h1.679c.42,0,.63-.207.63-.516a.381.381,0,0,0-.42-.412l-1.889.1.112-1.752-.532-.1a3.513,3.513,0,0,1-1.679,2.061V59.1l.84.619Z" transform="translate(-106.942 -17.887)" fill="#2b2b2e"/><path d="M156.688,66.317h3.569v-.412c-1.162-.206-1.162-.516-1.162-1.752V60.238a4.438,4.438,0,0,1,2.1-.619c.84,0,1.26.516,1.26,1.649v.1l-.1,3.092c-.112.927-.21,1.237-1.162,1.443v.412h3.681v-.412c-1.148-.206-1.148-.516-1.148-1.752V60.341a4.718,4.718,0,0,1,1.987-.722c.952,0,1.372.516,1.372,1.649v.1l-.112,3.092c-.1.927-.21,1.237-1.148,1.443v.412h3.667v-.412c-1.148-.206-1.148-.516-1.148-1.752V60.547c0-1.237-.532-1.958-1.679-1.958a5.248,5.248,0,0,0-2.939,1.34,1.611,1.611,0,0,0-1.693-1.34c-.938,0-1.567.309-2.939,1.237V58.692l-.1-.1-2.1.515v.309c.728.206.938.722.938,1.546v.1l-.1,3.4c0,.927-.112,1.237-1.05,1.443Z" transform="translate(-108.499 -18.301)" fill="#2b2b2e"/><path d="M178.2,59.311h0a1.287,1.287,0,0,1,1.47,1.34v.412l-.21.206h-3.247a2.277,2.277,0,0,1,1.987-1.958Zm-3.359,3.4h0c0,2.37,1.26,3.709,3.149,3.709a3.19,3.19,0,0,0,2.939-1.649l-.308-.1a3.261,3.261,0,0,1-2.1.721c-1.469,0-2.421-.927-2.421-3.09v-.412h4.73a5.32,5.32,0,0,0,.1-1.134,2.136,2.136,0,0,0-2.407-2.164C176.419,58.59,174.837,60.136,174.837,62.712Z" transform="translate(-112.582 -18.302)" fill="#2b2b2e"/><path d="M184.318,66.318h3.569v-.412c-1.05-.206-1.05-.516-1.05-1.752V60.239a3.785,3.785,0,0,1,2-.619c.938,0,1.26.516,1.26,1.649v.1l-.112,3.092c0,.927-.21,1.237-1.148,1.443v.412H192.5v-.412c-1.148-.206-1.148-.516-1.148-1.752V60.548c0-1.237-.532-1.958-1.679-1.958a4.43,4.43,0,0,0-2.841,1.237V58.693l-.21-.1-1.987.515v.309c.728.206.938.722.938,1.546v.1l-.21,3.4c0,.927-.1,1.237-1.05,1.443Z" transform="translate(-114.715 -18.302)" fill="#2b2b2e"/><path d="M196.978,64.255h0a1.547,1.547,0,0,0,1.777,1.752,2.949,2.949,0,0,0,2.1-.824l-.1-.413a2.146,2.146,0,0,1-1.372.413c-.728,0-.938-.413-.938-1.443V59.412h1.568c.42,0,.742-.207.742-.516a.381.381,0,0,0-.42-.412l-1.889.1V56.836l-.42-.1a3.78,3.78,0,0,1-1.791,2.061V59.1l.952.619Z" transform="translate(-117.397 -17.887)" fill="#2b2b2e"/><path d="M211.293,65.8h0c-1.358,0-2.211-1.237-2.211-3.4,0-1.855.854-3.092,2.211-3.092,1.26,0,2.1,1.237,2.1,3.4C213.393,64.566,212.554,65.8,211.293,65.8Zm-3.681-2.886h0c0,2.267,1.26,3.5,3.261,3.5,2.421,0,3.989-1.649,3.989-4.327,0-2.267-1.26-3.5-3.247-3.5-2.421,0-4,1.752-4,4.327Z" transform="translate(-119.957 -18.302)" fill="#2b2b2e"/><path d="M218.466,65.163h4.3v-.412c-1.469-.206-1.679-.516-1.679-1.752l-.1-4.327h1.679c.308,0,.728-.1.728-.516,0-.309-.21-.412-.518-.412l-1.889.1v-1.03c0-2.061.938-2.68,1.679-2.68.63,0,1.05.309,1.987,1.134a1.064,1.064,0,0,0,.42-.825c0-.515-.518-1.03-1.889-1.03-1.889,0-3.457,1.237-3.457,4.018v.1l-1.05.618v.309l1.05.619V63c0,1.236-.322,1.546-1.26,1.752Z" transform="translate(-122.399 -17.147)" fill="#2b2b2e"/><path d="M233.957,56.156h0l1.679,4.946h-3.359Zm-4.927,9.274H232.7v-.412c-.938-.206-1.26-.309-1.26-.928a2.432,2.432,0,0,1,.21-1.03l.42-1.237h3.779l.532,1.546a3.438,3.438,0,0,1,.21.824c0,.516-.21.722-.84.825v.412h3.359v-.412a1.337,1.337,0,0,1-1.05-1.031l-3.149-9.377-1.162.206-3.037,8.244c-.532,1.441-.742,1.649-1.679,1.958Z" transform="translate(-124.776 -17.413)" fill="#2b2b2e"/><path d="M246.381,63.021h0a1.855,1.855,0,1,1,1.851-1.855,1.854,1.854,0,0,1-1.851,1.855Zm1.148,3.4h0c.952.1,1.372.412,1.372.927,0,1.134-1.05,1.855-2.519,1.855-1.372,0-2.309-.515-2.309-1.544a1.715,1.715,0,0,1,.63-1.443ZM242.7,68.07h0c0,1.133,1.372,1.958,3.149,1.958,2.421,0,4.409-1.237,4.409-2.989,0-1.133-1.05-1.649-2.309-1.649l-1.987-.206c-.742,0-1.162-.206-1.162-.721a1.216,1.216,0,0,1,.532-.824c.308,0,.63.1,1.05.1,1.889,0,3.247-1.134,3.247-2.783a2.624,2.624,0,0,0-.308-1.133h1.26V58.8a10.66,10.66,0,0,1-1.581.1c-1.148,0-1.358-.309-2.617-.309-1.791,0-3.261,1.03-3.261,2.576a2.454,2.454,0,0,0,1.791,2.37c-.84.413-1.26.928-1.26,1.443a1.206,1.206,0,0,0,.728,1.134c-1.05.515-1.68,1.133-1.68,1.958Z" transform="translate(-127.851 -18.302)" fill="#2b2b2e"/><path d="M253.806,66.318h4.1v-.412c-1.358-.206-1.679-.413-1.679-1.752V61.166q.63-.927,1.26-.927a2.779,2.779,0,0,1,1.162.309,1.754,1.754,0,0,0,.518-1.237.551.551,0,0,0-.63-.618c-.63,0-1.05.206-2.309,1.752V58.693l-.21-.1-2,.515v.309c.742.206.952.722.952,1.546v.1l-.1,3.4c0,.927-.112,1.237-1.064,1.443Z" transform="translate(-130.35 -18.302)" fill="#2b2b2e"/><path d="M261.264,65.163h3.681v-.412c-1.05-.206-1.05-.516-1.05-1.752V59.908a16.764,16.764,0,0,1,.1-2.267l-.308-.206-2,.515v.309c.742.206.84.722.84,1.546v.1l-.1,3.4c0,.927-.112,1.237-1.162,1.443Zm2-9.789h0a.867.867,0,0,0,.938-.928.948.948,0,0,0-.938-1.03.935.935,0,0,0-.84,1.03.844.844,0,0,0,.84.928Z" transform="translate(-132.028 -17.147)" fill="#2b2b2e"/><path d="M267.493,62.609h0c0,2.37,1.372,3.812,3.261,3.812a3.113,3.113,0,0,0,2.827-1.546l-.21-.1a3.821,3.821,0,0,1-2.1.618c-1.358,0-2.309-1.133-2.309-3.193s.952-2.886,2-2.886c.728,0,1.148.309,1.567,1.546a.776.776,0,0,0,1.162-.618c0-.928-1.162-1.649-2.519-1.649a3.788,3.788,0,0,0-3.68,4.018Z" transform="translate(-133.428 -18.302)" fill="#2b2b2e"/><path d="M279.158,58.723h0l-2.309.412v.309c.84.206.938.516.938,1.443v3.4a1.946,1.946,0,0,0,2.1,2.164,3.461,3.461,0,0,0,2.309-.928v.928l.21.1,2.309-.515V65.73c-.938-.1-1.148-.31-1.148-1.443l.1-5.564-2.519.412v.309c.952.31,1.26.619,1.26,1.546v.1l-.21,3.915a2.513,2.513,0,0,1-1.469.619c-1.26,0-1.567-.619-1.567-2.165V58.723Z" transform="translate(-135.535 -18.332)" fill="#2b2b2e"/><path d="M288.081,65.163h3.681v-.412C290.6,64.545,290.6,64.235,290.6,63V57.641c0-.515.112-2.576.21-4.018l-.21-.206-2.1.412v.309c.742.309.84,1.031.84,1.855v3.915l-.1,3.4c0,.927-.112,1.237-1.162,1.443Z" transform="translate(-138.062 -17.147)" fill="#2b2b2e"/><path d="M294.782,64.255h0a1.547,1.547,0,0,0,1.777,1.752,3.007,3.007,0,0,0,2.113-.824l-.112-.413a2.363,2.363,0,0,1-1.372.413c-.728,0-.938-.413-.938-1.443V59.412h1.567c.42,0,.742-.207.742-.516s-.21-.412-.532-.412l-1.777.1V56.836l-.42-.1a3.78,3.78,0,0,1-1.791,2.061V59.1l.952.619Z" transform="translate(-139.403 -17.887)" fill="#2b2b2e"/><path d="M303.14,58.723h0l-2.309.412v.309c.84.206,1.05.516,1.05,1.443v3.4c0,1.34.63,2.164,1.987,2.164a3.553,3.553,0,0,0,2.421-.928l-.112.928.322.1,2.2-.515V65.73c-.938-.1-1.148-.31-1.148-1.443l.21-5.564-2.631.412v.309c.952.31,1.26.619,1.26,1.546v.1l-.1,3.915a2.8,2.8,0,0,1-1.581.619c-1.148,0-1.567-.619-1.567-2.165Z" transform="translate(-140.931 -18.332)" fill="#2b2b2e"/><path d="M312.334,66.318h3.989v-.412c-1.26-.206-1.568-.413-1.568-1.752V61.166q.63-.927,1.26-.927a2.777,2.777,0,0,1,1.148.309,1.779,1.779,0,0,0,.532-1.237.551.551,0,0,0-.63-.618c-.742,0-1.05.206-2.309,1.752V58.693l-.21-.1-2,.515v.309c.742.206.952.722.952,1.546v.1l-.112,3.4c0,.927-.1,1.237-1.05,1.443Z" transform="translate(-143.519 -18.302)" fill="#2b2b2e"/><path d="M323.519,59.311h0a1.287,1.287,0,0,1,1.47,1.34v.412l-.21.206h-3.247a2.277,2.277,0,0,1,1.987-1.958Zm-3.457,3.4h0c0,2.37,1.358,3.709,3.247,3.709a3.033,3.033,0,0,0,2.841-1.649l-.21-.1a3.483,3.483,0,0,1-2.1.721c-1.47,0-2.421-.927-2.421-3.09v-.412h4.73c0-.516.1-.825.1-1.134a2.136,2.136,0,0,0-2.407-2.164,3.777,3.777,0,0,0-3.778,4.121Z" transform="translate(-145.258 -18.302)" fill="#2b2b2e"/><path d="M330.454,67.019h0a.865.865,0,0,0,.42.722l.42.206a.624.624,0,0,1,.322.618,2.019,2.019,0,0,1-1.26,1.752l.42.515a3.827,3.827,0,0,0,1.889-3.3c0-1.134-.42-1.649-1.162-1.649a1.067,1.067,0,0,0-1.05,1.133Z" transform="translate(-147.574 -19.932)" fill="#2b2b2e"/><path d="M95.185,88.837h4.935v-.412c-1.47-.206-1.994-.515-1.994-1.752V83.892h1.47c1.26.1,1.574.206,1.784,1.441h.315v-3.4h-.315c-.21,1.03-.525,1.236-1.784,1.236l-1.47.1V78.739l1.784.206c1.155,0,1.679.412,2.309,1.855l.315-.1-.21-2.472H95.5v.412c.945.206,1.26.618,1.26,1.958v6.079c0,1.237-.315,1.546-1.574,1.752Z" transform="translate(-94.66 -22.687)" fill="#2b2b2e"/><path d="M109.456,89.151h0c-1.26,0-2.1-1.237-2.1-3.4,0-1.855.84-3.09,2.1-3.09,1.365,0,2.2,1.236,2.2,3.4C111.661,87.914,110.716,89.151,109.456,89.151Zm-3.57-2.886h0c0,2.268,1.261,3.5,3.15,3.5,2.414,0,4.094-1.649,4.094-4.327,0-2.267-1.365-3.5-3.254-3.5-2.414,0-3.99,1.752-3.99,4.327Z" transform="translate(-97.068 -23.516)" fill="#2b2b2e"/><path d="M120.7,89.151h0c-1.26,0-2.1-1.237-2.1-3.4,0-1.855.84-3.09,2.1-3.09,1.365,0,2.2,1.236,2.2,3.4C122.9,87.914,122.065,89.151,120.7,89.151Zm-3.569-2.886h0c0,2.268,1.26,3.5,3.254,3.5,2.421,0,3.989-1.649,3.989-4.327,0-2.267-1.26-3.5-3.247-3.5-2.421,0-4,1.752-4,4.327Z" transform="translate(-99.598 -23.516)" fill="#2b2b2e"/><path d="M132.261,87.584h0c-1.469,0-2.421-.928-2.421-3.092,0-1.855.952-2.987,2.309-2.987a1.655,1.655,0,0,1,1.581,1.752v3.915A2.458,2.458,0,0,1,132.261,87.584ZM128.37,84.9h0c0,2.474,1.372,3.71,3.149,3.71a2.816,2.816,0,0,0,2.211-1.03v.927l.308.1,2.1-.412v-.309c-.938-.309-1.148-.515-1.148-1.546V80.989c0-.927.21-2.781.21-4.018l-.21-.206-2.631.412v.31c.952.206,1.372.515,1.372,2.267v1.338a3.137,3.137,0,0,0-1.469-.309,3.857,3.857,0,0,0-3.89,4.121Z" transform="translate(-102.125 -22.361)" fill="#2b2b2e"/><path d="M146.6,88.943h0c-.63,0-1.148-.309-1.148-.928,0-.515.42-.824,1.26-1.236l1.679-.619-.112,2.268a3.533,3.533,0,0,1-1.679.515Zm-2.519-.722h0c0,1.031.742,1.546,1.791,1.546a3.332,3.332,0,0,0,2.407-.927c0,.618.42.927,1.05.927a5.482,5.482,0,0,0,1.469-.206v-.309c-1.05-.309-1.26-.515-1.26-1.443V87.6l.21-4.018v-.1a1.422,1.422,0,0,0-1.568-1.546c-1.791,0-3.779,1.34-3.779,2.061,0,.516.308.722.938.722.42-1.134.742-1.958,1.791-1.958.84,0,1.26.412,1.26,1.441v1.34l-2.309.825C144.826,86.882,144.084,87.294,144.084,88.221Z" transform="translate(-105.663 -23.513)" fill="#2b2b2e"/><path d="M153.835,89.666h3.681v-.412c-1.162-.206-1.162-.515-1.162-1.752V83.587a4.414,4.414,0,0,1,2-.618c.938,0,1.358.515,1.358,1.649v.1l-.21,3.09c0,.928-.1,1.237-1.05,1.443v.412h3.681v-.412c-1.162-.206-1.162-.515-1.162-1.752V83.9c0-1.236-.518-1.958-1.777-1.958a4.43,4.43,0,0,0-2.841,1.237V82.041l-.21-.1-1.987.516v.309c.728.206.938.721.938,1.545v.1l-.1,3.4c-.112.928-.21,1.237-1.162,1.443Z" transform="translate(-107.857 -23.516)" fill="#2b2b2e"/><path d="M169.919,87.584h0c-1.567,0-2.519-.928-2.519-3.092,0-1.855.952-2.987,2.421-2.987a1.645,1.645,0,0,1,1.567,1.752v3.915A2.431,2.431,0,0,1,169.919,87.584Zm-3.877-2.68h0c0,2.474,1.358,3.71,3.149,3.71a3.16,3.16,0,0,0,2.2-1.03v.927l.322.1,2.1-.412v-.309c-.952-.309-1.162-.515-1.162-1.546V80.989c0-.927.112-2.781.21-4.018l-.308-.206-2.519.412v.31c.938.206,1.358.515,1.358,2.267v1.338a3.06,3.06,0,0,0-1.469-.309,3.792,3.792,0,0,0-3.876,4.121Z" transform="translate(-110.603 -22.361)" fill="#2b2b2e"/><path d="M182.752,87.6h0c-.1,1.237.63,1.752,1.679,1.752a3.056,3.056,0,0,0,2.211-.824l-.21-.412a1.867,1.867,0,0,1-1.26.412c-.742,0-1.05-.412-1.05-1.443V82.761h1.68c.42,0,.63-.206.63-.515s-.112-.413-.42-.413l-1.889.1.1-1.75-.518-.1a3.627,3.627,0,0,1-1.679,2.061v.309l.84.618Z" transform="translate(-114.199 -23.101)" fill="#2b2b2e"/><path d="M193.144,88.511h3.667V88.1c-1.148-.206-1.148-.515-1.148-1.752V82.74c0-1.236-.532-1.958-1.679-1.958a4.43,4.43,0,0,0-2.841,1.237V80.989a32.484,32.484,0,0,1,.21-4.018l-.308-.206-2.1.412v.31a1.794,1.794,0,0,1,.938,1.855v3.915l-.21,3.4c0,.928-.1,1.237-1.148,1.443v.412h3.667V88.1c-1.05-.206-1.05-.515-1.05-1.752V82.432a3.782,3.782,0,0,1,2-.618c.938,0,1.26.515,1.26,1.649v.1l-.112,3.09c0,.928-.21,1.237-1.148,1.443Z" transform="translate(-115.662 -22.361)" fill="#2b2b2e"/><path d="M204.2,82.66h0A1.286,1.286,0,0,1,205.669,84v.413l-.21.206h-3.247A2.275,2.275,0,0,1,204.2,82.66Zm-3.359,3.4h0c0,2.371,1.26,3.71,3.149,3.71a3.19,3.19,0,0,0,2.939-1.649l-.308-.1a3.255,3.255,0,0,1-2.1.722c-1.469,0-2.421-.928-2.421-3.092v-.412h4.73a5.309,5.309,0,0,0,.1-1.134,2.137,2.137,0,0,0-2.407-2.164c-2.1,0-3.681,1.546-3.681,4.121Z" transform="translate(-118.433 -23.516)" fill="#2b2b2e"/><path d="M214.529,88.837h3.681v-.412c-1.05-.309-1.26-.515-1.26-1.443a21.048,21.048,0,0,1,.1-2.267l.322-4.533,3.247,8.449h.21l3.779-8.963.322,7.109c0,1.134-.112,1.443-1.05,1.649v.412h3.667v-.412c-.728-.206-1.148-.309-1.26-1.237l-.21-6.8c-.1-1.237.21-1.649,1.162-1.752v-.412h-2.729l-3.359,7.831L218.1,78.224h-2.617v.309c.84.309,1.148.618,1.148,1.34V80.8L216,86.776c-.1,1.134-.518,1.34-1.469,1.649Z" transform="translate(-121.513 -22.687)" fill="#2b2b2e"/><path d="M235.2,88.943h0c-.63,0-1.05-.309-1.05-.928,0-.515.322-.824,1.162-1.236l1.679-.619-.112,2.268a3.2,3.2,0,0,1-1.679.515Zm-2.52-.722h0c0,1.031.742,1.546,1.791,1.546a3.332,3.332,0,0,0,2.407-.927c0,.618.42.927,1.05.927a5.482,5.482,0,0,0,1.469-.206v-.309c-1.05-.309-1.26-.515-1.26-1.443V87.6l.21-4.018v-.1a1.422,1.422,0,0,0-1.567-1.546c-1.791,0-3.779,1.34-3.779,2.061,0,.516.308.722.938.722.42-1.134.742-1.958,1.791-1.958.84,0,1.26.412,1.26,1.442v1.34l-2.309.825C233.42,86.882,232.678,87.294,232.678,88.221Z" transform="translate(-125.596 -23.513)" fill="#2b2b2e"/><path d="M242.574,89.666h3.989v-.412c-1.26-.206-1.581-.412-1.581-1.752V84.515c.42-.619.742-.928,1.162-.928a2.838,2.838,0,0,1,1.26.309,1.754,1.754,0,0,0,.518-1.236.6.6,0,0,0-.63-.619c-.728,0-1.148.206-2.309,1.752V82.041l-.21-.1-1.987.516v.309c.728.206.938.721.938,1.545v.1l-.1,3.4c-.112.928-.21,1.237-1.05,1.443Z" transform="translate(-127.823 -23.516)" fill="#2b2b2e"/><path d="M250.014,88.511h3.681V88.1c-1.162-.206-1.162-.515-1.162-1.752v-3.09a16.16,16.16,0,0,1,.21-2.268l-.308-.206-2.1.516v.309c.728.206.938.721.938,1.545v.1l-.1,3.4c0,.928-.112,1.237-1.162,1.443Zm2-9.788h0a.93.93,0,0,0,.938-.927,1.023,1.023,0,0,0-.938-1.031.936.936,0,0,0-.84,1.031.843.843,0,0,0,.839.927Z" transform="translate(-129.497 -22.361)" fill="#2b2b2e"/><path d="M255.991,89.666h3.667v-.412c-1.148-.206-1.148-.515-1.148-1.752V83.587a4.367,4.367,0,0,1,1.987-.618c.952,0,1.372.515,1.372,1.649v.1l-.21,3.09c0,.928-.21,1.237-1.05,1.443v.412h3.667v-.412c-1.148-.206-1.148-.515-1.148-1.752V83.9c0-1.236-.532-1.958-1.791-1.958a4.427,4.427,0,0,0-2.827,1.237V82.041l-.21-.1-2,.516v.309c.742.206.952.721.952,1.545v.1l-.112,3.4c-.1.928-.21,1.237-1.148,1.443Z" transform="translate(-130.842 -23.516)" fill="#2b2b2e"/><path d="M271.54,82.657h0A1.292,1.292,0,0,1,273.009,84v.413l-.21.206h-3.261a2.3,2.3,0,0,1,2-1.958Zm-3.359,3.4h0c0,2.371,1.358,3.71,3.149,3.71a3.206,3.206,0,0,0,2.939-1.649l-.322-.1a2.969,2.969,0,0,1-1.987.722c-1.469,0-2.421-.928-2.421-3.092v-.412h4.618a4.663,4.663,0,0,0,.112-1.134,2.1,2.1,0,0,0-2.309-2.164c-2.212,0-3.779,1.546-3.779,4.121Z" transform="translate(-133.585 -23.513)" fill="#2b2b2e"/></g><path d="M38.627,29.5h0a3.283,3.283,0,0,0-2.112-2.89,2.524,2.524,0,0,0-1.136-.228,3.223,3.223,0,0,0-2.112.837l-.3.152c.452-1.065.151-1.217-.07-1.369-.312-.228-.533,0-.764.076-.151.152-1.277,2.129-1.277,2.129l.07-1.14.6-1.141c.08,0,.08-.076.08-.152.674-.685,2.041-.913,4.072-.533A3.693,3.693,0,0,1,38.627,29.5Zm-.382.457h0a3.409,3.409,0,0,0-.523-.457,3.619,3.619,0,0,1-.382-.076,1.08,1.08,0,0,0-.523.152,3.419,3.419,0,0,0-.3-.76.9.9,0,0,0,.754-.685,1.592,1.592,0,0,0,.07-.608,2.972,2.972,0,0,1,.9,2.434Zm-.3.836h0a.68.68,0,1,1-1.277-.456v-.152a.747.747,0,0,1,.9-.3.674.674,0,0,1,.372.912Zm-.372,1.521h0l-4.676,5.7c-.08-.076-.151-.152-.231-.152l4.454-5.4a4.12,4.12,0,0,0,.674-.532Zm-2.644,6.921h0a1.123,1.123,0,0,0-.975-.913,1.348,1.348,0,0,0-.9.229v-.153l4.143-4.943Zm-.3.38h0a1.475,1.475,0,0,1-.3.609,1,1,0,0,1-.6.152.845.845,0,0,1-.754-.913.941.941,0,0,1,.3-.608A1.088,1.088,0,0,1,33.8,38.7h.07a.837.837,0,0,1,.754.912Zm-1.961,5.628h0l.151-5.019a1.088,1.088,0,0,0,.835.532,1.482,1.482,0,0,0,.824-.228Zm-.3-5.78h0a.814.814,0,0,1-.6.152.791.791,0,0,1-.684-.912.941.941,0,0,1,.3-.609,1.087,1.087,0,0,1,.533-.152h.07a.438.438,0,0,1,.3.076.5.5,0,0,1,.3.38.262.262,0,0,1,.08.153.437.437,0,0,1,.08.3,1.107,1.107,0,0,1-.382.608Zm-.151,6.921h0l-.231.608.231-7c.07-.076.151-.076.221-.153Zm-.533-1.293h0c-.221-.228-.372-.456-.452-.532a1.2,1.2,0,0,0,.3-.913,1.516,1.516,0,0,0-1.508-1.521,1.467,1.467,0,0,0-1.428,1.369c-.151,0-.3.076-.452.076l3.016-3.8a1.408,1.408,0,0,0,.6.229h.07Zm-.07.989h0A3.458,3.458,0,0,0,30.4,44.555a.4.4,0,0,0,.3-.152.808.808,0,0,0,.372-.685,1.047,1.047,0,0,0-.9-1.217,1.474,1.474,0,0,0-.754.228.951.951,0,0,0-.372.761.67.67,0,0,0,.07.532c-.151,0-.372-.076-.6-.076a3.15,3.15,0,0,0-.825.152l.151-.152c.452,0,.9-.076.975-.076.08-.076.151-.152.151-.228A1.1,1.1,0,0,1,30.021,42.5a1.12,1.12,0,0,1,1.136,1.141.852.852,0,0,1-.382.761v.152c0,.076,0,.152.08.152a3.044,3.044,0,0,1,.754,1.141Zm-.08,1.749h0a1.048,1.048,0,0,0-.6-.532.659.659,0,0,0-.372-.076,1.393,1.393,0,0,0-.6.152,1.6,1.6,0,0,0-.3-.837,1.191,1.191,0,0,0,.824-.76,1.412,1.412,0,0,0,.08-.609,3.449,3.449,0,0,1,.975,2.662Zm-.3.837h0a.762.762,0,1,1-1.428-.533c0-.076.07-.076.07-.152a.723.723,0,0,1,.9-.3.733.733,0,0,1,.452.989Zm-2.715,1.9H28.14a1.336,1.336,0,0,0,.523-.608,1.1,1.1,0,0,0-.07-.989,1.632,1.632,0,0,0,.825-.38,1.216,1.216,0,0,0,.684.912c.151,0,.3.076.452.076a.266.266,0,0,0,.221-.076,2.926,2.926,0,0,1-2.262,1.065Zm1.89.456h0l-4.756,5.02c-.07-.076-.151-.152-.221-.152l5.349-5.7ZM27.99,57.408h0a1.213,1.213,0,0,0-1.056-.913,1.144,1.144,0,0,0-.985.228.732.732,0,0,0-.07-.38L30.1,51.932Zm-.3.456h0a.913.913,0,1,1-.9-1.065h.07a.992.992,0,0,1,.834,1.065Zm-2.564,6.921h0l.221-6.693c.08-.076.08-.076.151-.152a1.3,1.3,0,0,0,1.136,1.141h.151a.861.861,0,0,0,.6-.228Zm-.382,1.065h0l-.372.912.221-8.518h.382Zm-.674-.685h0c-.3-.38-.533-.684-.754-.76a2.1,2.1,0,0,0,.372-1.141,1.613,1.613,0,0,0-1.579-1.673,1.71,1.71,0,0,0-1.659,1.6,2.358,2.358,0,0,0-.684.076l4.374-5.172.08.076Zm-.08,1.141h0a3.3,3.3,0,0,0-1.579-1.9,1.5,1.5,0,0,0,.372-.229.926.926,0,0,0,.452-.76,1.144,1.144,0,1,0-2.262-.3,1.294,1.294,0,0,0,.231.76,3.876,3.876,0,0,0-2.262.38l.372-.456h.08a10.365,10.365,0,0,1,1.277-.3.159.159,0,0,0,.151-.152,1.345,1.345,0,0,1,1.287-1.369,1.266,1.266,0,0,1,1.207,1.293,1.431,1.431,0,0,1-.382.988.3.3,0,0,0-.07.229c0,.076,0,.076.07.152.08,0,.684.228,1.056,1.217l.08.076Zm-.151,1.445h0a.968.968,0,0,0-.9-.761,1.174,1.174,0,0,0-.975.3c0-.3-.151-.457-.382-.685a1.2,1.2,0,0,0,.9-1.065.873.873,0,0,0-.151-.76A3.434,3.434,0,0,1,23.837,67.6Zm-.825.38h0l-.985-.152V67.9a.824.824,0,0,1,.754-.608l.08.076c.372,0,.6.3.674.684a.72.72,0,0,1-.523.076Zm-1.357-.3h0V67.9l-2.041-.38a1.053,1.053,0,0,1,.985-.913h.151a1.054,1.054,0,0,1,.9,1.217Zm-.3-4.715h0a.8.8,0,0,1,.754-.685h.07a.792.792,0,0,1,.684.913.584.584,0,0,1-.3.532.639.639,0,0,1-.533.152.777.777,0,0,1-.674-.912Zm.754,2.357h0a.945.945,0,0,1-1.056.837.761.761,0,0,1-.6-.38.722.722,0,0,1-.151-.685.908.908,0,0,1,.9-.836h.07a.948.948,0,0,1,.835,1.064Zm-3.469.685h0a1.1,1.1,0,0,0-1.207.608V66.61l.3-.76a3.284,3.284,0,0,1,2.785-1.6,1.13,1.13,0,0,0-.6.913,1.106,1.106,0,0,0,.231.989,2.141,2.141,0,0,0,.151.152,1.835,1.835,0,0,0-.835.456,1,1,0,0,0-.824-.608Zm.6,1.217h0s-.08,0-.08.076l-1.428-.305a.743.743,0,0,1,.754-.684l.07.076c.453,0,.684.38.684.837Zm-8.526,6.236h0l.754-1.445,2.262-4.943v-.077l1.056-2.053c.6.532,1.287,1.141,1.961,1.673l.151.533c0,.076-.07.228-.07.3s.07.152.151.228h.3C14.486,71.934,12.224,73.227,10.715,73.607Zm-.975.076h0L12.827,67.6l1.357-3.118s.231.228.231.3l-4.223,8.9Zm-.3-.913h0c-1.136.685-1.961.837-2.343.381a1.192,1.192,0,0,1-.231-1.293.911.911,0,0,1,.684-.609,1.311,1.311,0,0,1,.9.3c.08,0,.151.076.231.076s.151-.076.221-.152c1.81-2.206-1.739-6.313-1.81-6.465a21.7,21.7,0,0,1-3.167-5.324.7.7,0,0,0,.372-.228c.231.761,1.056,2.51,3.63,6.084,2.634,3.651,2.413,4.564,2.182,5.7-.07.229-.07.457-.151.761l-.372.76ZM3.627,59.233h0a.243.243,0,0,0-.151-.076c-.151,0-.382-.076-.452-.532-.08-.153.07-.3.07-.457.08,0,.08,0,.08-.076a2.455,2.455,0,0,1,.452-.38,3.929,3.929,0,0,1,.6-.456,2.226,2.226,0,0,0,.523-1.521,3.326,3.326,0,0,1-.07,2.129c-.3.761-.754,1.293-.9,1.293a.244.244,0,0,0-.151.076ZM2.269,55.05h.452a1.367,1.367,0,0,0,1.126-1.521,1.3,1.3,0,0,0-.523-.989,1.148,1.148,0,0,0-.835-.3.962.962,0,0,0-.754.532c-.07-.608-.221-1.216-.3-1.825l1.508-.228c.08,0,.08,0,.151-.076a44.2,44.2,0,0,1-.372-5.932c-.08-.076-.08-.076-.151-.076l-1.508.076v-.533L2.722,44.1v-.076s.151-2.89.372-4.106c.151-1.217.6-3.575.684-3.879H3.7L1.968,35.58a1.164,1.164,0,0,0,.151-.532l1.508.456h.151a2.137,2.137,0,0,1,.151-.152,3.961,3.961,0,0,1,.151-.76l1.729-4.563v-.152c-.07-.077-.07-.077-.151-.077L4.23,29.192c.221-.38.452-.837.674-1.217.08.076.151.152.3.3a.872.872,0,0,0,.754.153.651.651,0,0,0-.221.456.5.5,0,0,0,.452.532h.221a26.007,26.007,0,0,0-2.484,6.921v-.076c-.151.76-.6,3.346-.684,4.335-.151,1.141-.3,3.118-.372,3.651v.228A32.409,32.409,0,0,0,4.23,54.518c.07.684.07,1.9-.382,2.281-.151.228-.372.3-.523.457-.08.076-.231.152-.3.228C2.722,56.647,2.491,55.811,2.269,55.05Zm-.081-.532h0c.08,0,.151.076.3.076a.8.8,0,0,0,.6-.152.95.95,0,0,0,.151-1.293c-.151-.228-.3-.381-.523-.381a.579.579,0,0,0-.6.153.521.521,0,0,1,.372-.3,1.219,1.219,0,0,1,.684.229,1.729,1.729,0,0,1,.372.76,1.039,1.039,0,0,1-.824,1.141.791.791,0,0,1-.452-.152Zm.151-1.293h0c.08-.076.151-.076.3-.076a.383.383,0,0,1,.3.152.692.692,0,0,1-.07.836.464.464,0,0,1-.3.076.427.427,0,0,1-.382-.228.6.6,0,0,1,.151-.76Zm-.975-3.042h0l.372.3-.372.076Zm-.231-2.13h0l.6.533-.452.836a11.786,11.786,0,0,1-.151-1.369Zm.985-2.51h0l-.452.609-.452-.38.452-.609Zm.221-.3h0l-.372-.228H2.34Zm-.372,1.217h0l.452-.684a7.076,7.076,0,0,0,.07,1.14Zm.221,2.053h0l.3-.608c0,.38.08.685.08.989Zm-.3-.3h0l-.6-.608.452-.837.684.609Zm.835,1.6h0v.533l-.3.076Zm-.6.533h0l-.6-.533.452-.912.6.532ZM1.063,45.087h.151l-.151.228v-.228Zm0,1.065h0l.452.38-.452.609Zm.824-3.118H1.737c-.07,0-.151-.076-.151-.228.08,0,.08-.077.151-.077,0-.076.08-.076.08-.076.151.076.151.153.151.229S1.968,43.034,1.887,43.034Zm.3.456h0c.151-.076.231-.152.231-.3v.38H1.968a.266.266,0,0,0,.221-.076Zm.533-6.236h0l-.08.076c-.07.076-.07.076-.151.076s-.151-.152-.151-.228,0-.076.08-.153h.151a.071.071,0,0,1,.07.077C2.722,37.1,2.722,37.178,2.722,37.254ZM1.133,41.665h0a2.107,2.107,0,0,0,1.589-1.749,2.168,2.168,0,0,0-1.136-2.13,13.915,13.915,0,0,1,.3-1.673l1.438.38a2.146,2.146,0,0,1-.151.532.269.269,0,0,0-.08-.228.611.611,0,0,0-.452-.3.607.607,0,0,0-.523.076.771.771,0,0,0-.3.533.7.7,0,0,0,1.126.684.284.284,0,0,1,.151-.076,21.334,21.334,0,0,0-.6,4.867.937.937,0,0,0-.6-.456.7.7,0,0,0-.523.152c-.151.076-.231.3-.3.456a.818.818,0,0,0,.6.837h-.6a17.156,17.156,0,0,1,.07-1.9Zm0-.761h0a1.431,1.431,0,0,0,.835-1.141,1.179,1.179,0,0,0-.6-1.216l.07-.381a1.807,1.807,0,0,1,.835,1.6,2.386,2.386,0,0,1-1.207,1.521Zm.231-1.825h0a1.467,1.467,0,0,1,.221.76,1.579,1.579,0,0,1-.372.609,7.92,7.92,0,0,1,.151-1.369Zm.975-4.715h0l.151.38-.221-.076a.612.612,0,0,1,.07-.3Zm1.508.228h0l-.151.456-.523-.076.151-.076ZM3.4,33.375h0l.382.837-.835.532-.452-.761Zm-.452-.989h0l.3.609-.674.456c.151-.38.221-.761.372-1.065Zm1.438.3h0A5.751,5.751,0,0,0,4,33.679l-.3-.532ZM4,31.322H4l.452.836-.9.609-.372-.913Zm-.372-.761h0l.221.456-.523.3a3.441,3.441,0,0,0,.3-.761Zm1.357-.684h0l.452.152-.231.152Zm.07.836h.08c-.151.3-.3.685-.452,1.065l-.3-.609ZM4.532,29.8h0l.3.533-.684.456-.3-.608Zm-.452-.228h.07l-.07.076Zm1.056-2.053h0a.829.829,0,0,0,.754.456.877.877,0,0,0,.9-.912.864.864,0,0,0-.835-.913v-.076a.949.949,0,0,1,.452.076,1.015,1.015,0,0,1,.3,1.445.775.775,0,0,1-.6.456.93.93,0,0,1-.754-.152.4.4,0,0,1-.221-.3Zm.523-.913h0a.286.286,0,0,1,.231-.076.533.533,0,0,1,0,1.065.522.522,0,0,1-.533-.532,1.509,1.509,0,0,0,.3-.457Zm.835-1.293h0c.07,0,.221.076.3.076a2.023,2.023,0,0,1,1.438,1.293,7.667,7.667,0,0,0-1.518,2.13c-.07-.228-.221-.38-.372-.38a3.073,3.073,0,0,0,.754-.609,1.472,1.472,0,0,0-.453-1.977,1.066,1.066,0,0,0-.452-.152,1.414,1.414,0,0,1,.3-.381Zm-.08-1.064h0a.493.493,0,0,1,.452-.457.6.6,0,0,1,.382.152A2.106,2.106,0,0,1,8.3,25.694a2.469,2.469,0,0,0-1.287-.761l-.452-.228a.373.373,0,0,1-.151-.456Zm7.018-.457h0a1.955,1.955,0,0,1-2.262,1.521,1.864,1.864,0,0,1-1.508-2.2,1.82,1.82,0,0,1,1.89-1.6h.3a1.98,1.98,0,0,1,1.579,2.281Zm-1.508-4.563h0c.382.532.985,1.217,1.659,1.977v1.141a2.43,2.43,0,0,0-1.659-1.293,2.384,2.384,0,0,0-2.715,1.978A2.345,2.345,0,0,0,11.1,25.77h.452a2.257,2.257,0,0,0,2.031-1.293v.608c-.3.38-.674.837-1.056,1.293h-.6a3.6,3.6,0,0,1-2.634-1.217h-.08v-.076H8.986v.076a.076.076,0,0,0-.08.076v.152l.6,1.978-1.579.608c.372-.608.674-.912.674-.989a.159.159,0,0,0,.151-.152A3.212,3.212,0,0,0,7.7,23.564a26.249,26.249,0,0,1,4.223-4.335ZM11.47,18.7h0c-.07.076-.221.152-.452.38a14.1,14.1,0,0,0-.754-1.521l.754.38v.076a7.426,7.426,0,0,1,.452.685Zm-1.277-1.673h0l.523-.381c.08.076.08.076.151.076a1.705,1.705,0,0,0,1.207-.38c.6-.38,1.056-.913.835-1.293l1.428-1.065a2.823,2.823,0,0,0,1.136-.38A1.664,1.664,0,0,0,16.3,12.46l.151-.076.6.381L11.168,17.48Zm1.428-1.445h0a1.469,1.469,0,0,1,.835-.381.071.071,0,0,1,.07.076c0,.076-.151.381-.674.685-.452.38-.835.38-.9.3,0-.076.151-.38.674-.684Zm3.318-2.814h0a1.847,1.847,0,0,1,.835-.305h.07a1.283,1.283,0,0,1-.674.761c-.452.3-.835.38-.9.3a1.282,1.282,0,0,1,.674-.76ZM12.676,64.557h0a.643.643,0,0,1,.3-.533,1.066,1.066,0,0,1,.452-.152h.231a.272.272,0,0,0,.07.152V64.1l-.221.457a8.3,8.3,0,0,1-.452.836.731.731,0,0,1-.382-.836ZM11.55,66.61h0a1.3,1.3,0,0,1,.372-.532,1.066,1.066,0,0,1,.452-.152.224.224,0,0,1,.151.076c.231,0,.3.076.3.076l-.674,1.445a.981.981,0,0,1-.6-.913ZM6.643,60.07h0c.372-.989,2.343-1.445,3.318-1.522a26.8,26.8,0,0,0,3.248,4.792,3.506,3.506,0,0,0-.533.228,1.156,1.156,0,0,0-.523.913,1.228,1.228,0,0,0,.151.912,1.225,1.225,0,0,0-.684.228,1.541,1.541,0,0,0-.6.913,2.124,2.124,0,0,0,.231.989c-.151,0-.231.076-.382.152a1.337,1.337,0,0,0-.6.684,16.353,16.353,0,0,0-1.88-3.118A38.643,38.643,0,0,1,5.96,61.667ZM5.437,56.419h0l1.88.837s-1.126,2.585-1.126,2.661L5.658,61.21a13.752,13.752,0,0,1-.975-2.2,2.714,2.714,0,0,0,.523-.913,3.643,3.643,0,0,0,.231-1.673Zm.825-2.206h0l-.975,1.293a6.5,6.5,0,0,0-.6-1.293c-.08-.152-.08-.3-.151-.456Zm-.674-2.357h0l2.041.608L6.563,53.833,4.381,53.3a.653.653,0,0,0-.08-.38ZM5.055,51.7h0l-.824.76c-.08-.38-.151-.684-.231-1.064ZM4.833,49.5h0l2.182.609L5.507,51.4l-1.579-.457c-.08-.228-.08-.532-.151-.76ZM4.3,49.346h0l-.6.38c0-.228-.07-.38-.07-.608Zm.3-2.358h0l1.961.761-1.81,1.217-1.207-.3a4.678,4.678,0,0,0-.07-.989Zm-.523-.228h0l-.6.381c0-.229-.08-.457-.08-.609Zm.3-2.357h0l2.031.912-1.88,1.141L3.4,46v-.989Zm-.452-.229h0l-.533.305v-.533Zm1.207-2.737h0l1.428,1.14L4.381,43.87l-.9-.38a3.731,3.731,0,0,1,.07-1.065Zm-.382-.229h0l-1.207.609A7.926,7.926,0,0,0,3.7,40.448Zm.754-2.433h0l1.287,1.217-1.659.988-1.357-.988c0-.153.07-.229.07-.3Zm-.3-.3h0l-1.277.685a11.148,11.148,0,0,1,.3-1.6Zm.9-2.433h0l1.056,1.369-1.579.836L4.3,37.025v-.076h.08Zm-.3-.3h0l-1.357.684c.151-.608.3-1.293.452-1.825ZM6.945,33h0l-1.739.76a18.549,18.549,0,0,1,.754-2.129Zm1.207-2.434h0l.9,1.445-1.739.761L6.191,31.245Zm-.221-.38h0l-1.589.532a18.461,18.461,0,0,1,.9-1.749Zm1.81-2.434h0l.523,1.521-1.88.761-.9-1.445Zm.221-.532h0l-.372-1.141a5.178,5.178,0,0,0,1.579.684Zm.684,1.9h0L10.112,27.6l2.041-.685a25.3,25.3,0,0,0-1.508,2.206ZM9.288,31.55h0L8.6,30.409l1.659-.609c-.3.533-.674,1.141-.975,1.75ZM7.93,35.124h0A15.68,15.68,0,0,0,7.4,36.949l-.9-1.064Zm-.3-1.977h0l1.207-.609a13.566,13.566,0,0,1-.6,1.521Zm.452,1.445h0l-1.82.912L5.205,34.212,7.166,33.3ZM7.247,50.487h0a13.764,13.764,0,0,0,.382,1.521L5.96,51.552ZM5.889,38.623h0l1.277-.685a12.726,12.726,0,0,0-.3,1.6Zm.9,9.506h0a12.455,12.455,0,0,0,.3,1.521l-1.739-.532ZM6.563,45.7h0c0,.38.08.912.151,1.673l-1.659-.685ZM5.507,41.208h0l1.207-.684c-.07.456-.07.989-.151,1.521Zm1.056,3.651h0L4.833,44.1l1.729-1.064ZM7.93,57.027h0L8.6,55.354A16.179,16.179,0,0,0,9.66,57.712Zm-.231.381h0l1.739.76a6.6,6.6,0,0,0-2.423.837Zm-.684-3.5h0l.835-.988a8.979,8.979,0,0,0,.382,1.292Zm1.367.761h0v.076l-.9,2.053-2.041-.836L6.714,54.29Zm5.2,1.749h0v6.388a24.819,24.819,0,0,1-2.031-2.89Zm-2.413,2.053h0A31.7,31.7,0,0,1,7.629,45.239a27.477,27.477,0,0,1,5.953-18.557V54.366Zm-.221,11.56h0l-.151.229v-.229Zm-.231-1.292h0a1.732,1.732,0,0,1,.382-.609.659.659,0,0,1,.372-.076h.151a.286.286,0,0,0,.231.076l-.151.3a.229.229,0,0,0-.08.152l-.452.989a.955.955,0,0,1-.452-.836Zm3.549-48.979h0a.078.078,0,0,1-.08.077c0,.076,0,.076-.07.076h-.151c-.08,0-.08-.076-.08-.229,0-.076.08-.152.231-.152l.07.076a.229.229,0,0,1,.08.152Zm10.256,4.183h0a.344.344,0,1,1-.684-.076c.08-.152.151-.3.382-.3a.393.393,0,0,1,.3.38Zm-6.264-2.661h0c0,.152-.151.228-.3.228h-.07a.271.271,0,0,1-.231-.381c0-.152.151-.228.3-.228h.08a.262.262,0,0,1,.221.381Zm2.946,1.6h0c0,.228-.151.3-.382.3a.285.285,0,0,1-.221-.38.326.326,0,0,1,.3-.305h.07c.151.076.3.229.231.381Zm-.3-1.141h0a1.287,1.287,0,0,0-1.207.912l-.754-.532a1.063,1.063,0,0,0,.221-.684,1.275,1.275,0,0,0-1.277-1.293,1.342,1.342,0,0,0-1.136.608c-.151-.152-.452-.532-1.056-1.293a1.237,1.237,0,0,0,.452-1.141,2.006,2.006,0,0,0-.523-1.14l.754-.609a1.266,1.266,0,0,0,1.961.761l.372.456a1.6,1.6,0,0,0-.3.837,1.343,1.343,0,0,0,1.357,1.293,1.218,1.218,0,0,0,.684-.229l.6.457a1.052,1.052,0,0,0-.151.532,1.343,1.343,0,0,0,1.357,1.293,1.2,1.2,0,0,0,.975-.456l.533.152a.653.653,0,0,0-.08.38,1.174,1.174,0,0,0,.3.837,1.136,1.136,0,0,0-1.126.988l-.835-.228a1.37,1.37,0,0,0,.151-.608A1.326,1.326,0,0,0,20.9,21.739Zm3.992.836h-.07a.27.27,0,0,1-.231-.38.326.326,0,0,1,.3-.3s.08,0,.08.076a.262.262,0,0,1,.221.38c0,.152-.151.228-.3.228Zm5.882.913Zm-.07,7.149h0l.3-1.521,1.357-2.662.07-.076Zm-.3,1.977h0l.151-1.14.9-1.445ZM30.1,36.8h0a.775.775,0,0,0-.684.152l2.041-5.095-.3,5.932A1.139,1.139,0,0,0,30.1,36.8ZM26.18,44.935h0l.07-.3h.08L30.7,39.079c.07.152.151.228.151.38L27,44.327a3.231,3.231,0,0,0-.825.608Zm2.182.076h0a1.148,1.148,0,0,0,.08.989,1.148,1.148,0,0,0-.835.3,1.089,1.089,0,0,0-.674-.837.95.95,0,0,0-.452-.076H26.25a2.947,2.947,0,0,1,2.644-.988.872.872,0,0,0-.533.608Zm-.221,3.5h0c0-.076-.08-.076-.151-.076a1.1,1.1,0,0,1-.452-1.369v-.152a1.082,1.082,0,0,1,1.357-.456h.07a1.062,1.062,0,0,1,.533,1.369v.152a1.215,1.215,0,0,1-1.357.532Zm-.835,1.75h0a.8.8,0,0,1-.452-.989.908.908,0,0,1,.754-.532h.231c.07.076.07.076.151.076a.835.835,0,0,1,.3.988.732.732,0,0,1-.985.457Zm.754.836h0a.237.237,0,0,0-.221.228,1.248,1.248,0,1,1-2.494,0,1.229,1.229,0,0,1,.452-.988.262.262,0,0,0,.08-.152c0-.076-.08-.076-.08-.152a1.3,1.3,0,0,1-.674-.837l-.08-.076V47.749l.08-.228A3.476,3.476,0,0,0,26.4,50.183a1.207,1.207,0,0,0,.08,2.357h.151a1.2,1.2,0,0,0,1.126-1.064,1.138,1.138,0,0,0-.151-.685,3.756,3.756,0,0,0,.9.152,2.493,2.493,0,0,0,1.287-.3l-.151.152c-.08,0-.08,0-.151.076a4.734,4.734,0,0,1-1.438.228Zm-3.016,4.64h0c0-.077-.07-.077-.151-.077l.08-4.03A1.7,1.7,0,0,0,26.632,53a1.634,1.634,0,0,0,1.579-1.521c.231,0,.6-.076.9-.076ZM23.767,56.8h0a.894.894,0,0,1,.9-.76h.151a.926.926,0,0,1,.824.988.935.935,0,0,1-1.056.837,1,1,0,0,1-.824-1.065Zm-5.058,6.693h0l4.907-5.932a.4.4,0,0,0,.221.3l-5.5,6.465Zm.08-4.944h0l2.182-2.509-2.715,6.768ZM17.13,62.5h0c-.08-.076-.151-.076-.231-.152l1.438-3.118L17.8,63.264a1.652,1.652,0,0,0-.674-.761Zm-.452.381h0c.07,0,.151,0,.151.076a1.72,1.72,0,0,1,.3,2.357c-.151.228-.3.457-.452.457H16.6a7.553,7.553,0,0,1-.825-.685Zm.975-3.043h0l-1.126,2.434c-.08,0-.231-.076-.3-.076a2.559,2.559,0,0,0-.9.228ZM15.693,21.435h0a.266.266,0,0,0-.221-.076v-.153c0-.076.07-.152.221-.152,0,0,.08,0,.08.076.07,0,.07.076.07.153S15.773,21.359,15.693,21.435Zm.6,2.433h0c.151.076.231.152.382.228L16.6,49.27l-.825,1.369.07-26.238Zm.382-1.064h0v.152a8.7,8.7,0,0,1-.835-.685v-.532c.231.152.533.38.835.608-.08.152,0,.228.07.381-.07,0-.07.076-.07.076ZM16.6,58.092h0l-.825,1.749V52.692l.825-1.369-.07,6.693s0,.076.07.076Zm3.1-33.539h0v.152a4.594,4.594,0,0,0-.9-.38v-.533h.07a3.815,3.815,0,0,0,.754.381.412.412,0,0,0,.151.3Zm.372,28.292h0v1.368l-.825.685.151-1.065.07-.228Zm0,2.357h0V56.5L18.94,57.712Zm-.9.152h0l.6-.456-.754,1.825Zm-.372-9.887h0V25.541c.3.153.6.229.9.381L19.614,44.1Zm.825.685h0v5.324a.229.229,0,0,0,.08.152l-.835,1.749-.07-5.856Zm.6-21.827h0c-.07,0-.151-.076-.221-.076a.1.1,0,0,1,0-.153.159.159,0,0,1,.151-.152.237.237,0,0,1,.221.229c-.07.076-.07.152-.151.152Zm.9,2.053h0V41.589L20.3,42.958l.07-16.808C20.6,26.226,20.9,26.3,21.122,26.378Zm0-1.217h0v.076c-.221-.076-.523-.152-.754-.228v-.38s.08,0,.08-.076a2.116,2.116,0,0,0,.6.3.159.159,0,0,0,.151.152c0,.076-.08.076-.08.152Zm0,23.425h0L20.3,50.259V45.011l.825-1.369Zm1.589-7.606h0v4.183l-.985,1.978.08-4.64Zm-.9-14.45h0a3.756,3.756,0,0,1,.9.152V38.851l-.9,1.6Zm.9-.912h0a3.758,3.758,0,0,1-.9-.153v-.38h.07a2.242,2.242,0,0,0,.754.152.27.27,0,0,0,.08.228v.153Zm.523,21.523h0l-.6,1.292.3-1.673a1.447,1.447,0,0,0,.3.381Zm0-21.828h0a.284.284,0,0,1-.151-.076c-.07,0-.07.076-.07.076h-.081v-.152c0-.076.08-.152.231-.152.07,0,.07,0,.151.076v.152Zm1.056,24.261h0l.382-.912-.151,7c-.08,0-.231.077-.3.077Zm-1.277-1.065h0l.523-1.216h.452Zm-1.287,5.552h0l.684-4.183,2.112-2.585Zm1.056.685h0a1.431,1.431,0,0,0-.6.152l1.739-4.335-.08,5.172a1.4,1.4,0,0,0-1.056-.989Zm-.3,2.281h0a.95.95,0,0,1-.754-1.064l.151-.457a1.053,1.053,0,0,1,.754-.38h.08a.958.958,0,0,1-.231,1.9Zm-.975-.456h0a1.226,1.226,0,0,0,.975.837h.151a1.6,1.6,0,0,0,.834-.305h-.08l-4.223,5.248Zm-.08-2.89h0l-.221,1.6-.754.761v-1.6Zm.382-2.434h0l-.3,1.9-.754.608Zm-1.357,2.206h0V52.388L21.5,51.019Zm4.6-3.651h0a.887.887,0,0,0,.3.381,3.807,3.807,0,0,0-.372.836Zm-1.659-4.487h0a1.6,1.6,0,0,1,.835-.76c.07,0,.3-.076.452,0a1.213,1.213,0,0,1,.151,1.521,2.235,2.235,0,0,1-.835.836c-.07,0-.3.076-.452-.076-.372-.152-.452-.836-.151-1.521Zm.835-6.845h0v3.575l-.835,1.673V39.839Zm-.835-12.7h0v-.152c.08,0,.151-.077.231-.229a.95.95,0,0,0,.452.076c.07.076.07.153.151.153v.228a3.108,3.108,0,0,0-.835-.076Zm.835,1.064h0v9.507l-.835,1.369V26.758A3.107,3.107,0,0,0,24.219,26.834Zm.824,16.2h0l-.523,1.14c-.151-.076-.3,0-.452,0a.078.078,0,0,1-.08.077Zm-.372-17.645H24.44c-.07-.076-.07-.076-.07-.152s.07-.152.221-.152.151.076.151.228c0,.076,0,.076-.07.076Zm1.207,14.6h0l-.151,1.369-.231.532L24.37,43.186Zm-.151-4.183h0v3.042L24.893,40.6V37.33Zm-.835-9.963h0v-.152c.08,0,.08-.076.151-.153h.6c0,.077.08.077.151.153a.071.071,0,0,0-.07.076,3.375,3.375,0,0,1-.835.076Zm.835,1.064h0v6.845L24.893,35.2V26.91Zm2.785-2.433h0v.228a2.913,2.913,0,0,1-.372.076.286.286,0,0,1-.231.076c-.07-.152-.221-.38-.452-.38-.3-.076-.523.152-.6.456v.152h-.221c-.08-.076-.151-.152-.231-.228a1.02,1.02,0,0,0,.6-.38.971.971,0,0,1,.754-.3,1.149,1.149,0,0,1,.754.3Zm1.438-.609h0v.152l-.452.229a.54.54,0,0,0-.382-.305,1.066,1.066,0,0,0-.452.152c-.07,0-.151-.152-.3-.152a1.371,1.371,0,0,0,.754-1.14l.533-.153a1.191,1.191,0,0,0,.824.761.642.642,0,0,0-.523.456Zm.674.228h-.07a.076.076,0,0,0-.08.077c-.151-.077-.151-.153-.151-.229s.08-.152.231-.152a.071.071,0,0,1,.07.076c.08,0,.08.076.08.152Zm-.9,7.758h0l.985-2.13-.3,1.521Zm-.754,3.27h0l1.357-3.118L30.1,33.3l-.231.684Zm1.287-10.495h0a.244.244,0,0,0-.151.076c-.231.076-.533.228-.754.3v-.076c.151-.076.221-.152.221-.3a1.2,1.2,0,0,0,.533-.3c.07.076.07.076.151.076l-.08.076Zm-.9,2.966h0V26.15a3.842,3.842,0,0,0,.523-.228v.836Zm.9.532h0v1.065l-.9,1.977V29.648Zm-1.357-3.65h0V24.4a.244.244,0,0,1,.151-.076h.07c.08,0,.151.076.151.228a2.137,2.137,0,0,1-.151.152.071.071,0,0,0-.07-.076h-.151Zm.07,9.05h0l.3-.532.835-1.141-1.207,2.662Zm-.6,4.183h0l.382-1.977.9-1.141Zm1.508,1.141h0a.984.984,0,0,1-.754-.989.888.888,0,0,1,.382-.532.53.53,0,0,1,.452-.228c.07,0,.07,0,.151.076a.743.743,0,0,1,.674.912.643.643,0,0,1-.3.533.844.844,0,0,1-.6.228Zm-1.056-.533h0a1.332,1.332,0,0,0,.985.913.659.659,0,0,0,.372-.076L26.783,43.49ZM26.18,25.465h0a.076.076,0,0,1-.08-.076l-.07.076c-.08-.076-.151-.152-.151-.228.07-.076.151-.152.221-.152.151,0,.231.076.151.228C26.25,25.389,26.25,25.389,26.18,25.465Zm1.357-.3h-.231a.071.071,0,0,1-.07-.076.261.261,0,0,1-.08-.152c.08-.076.151-.152.231-.152.151.076.221.152.151.228ZM28.211,36.8h0l-.221,1.9-.382.836L26.331,40.98Zm.452-2.662h0l-.07.913-.533,1.065-.674.76Zm-.9-8.67h0v-.076c.08-.076.08-.076.08-.152a2.918,2.918,0,0,0,.372-.076,1.066,1.066,0,0,1,.452-.152v.228Zm.9,5.324h0v1.749l-.824,1.826v-2.13Zm-.824-.532h0V26.606c.3-.076.6-.152.824-.228v2.358ZM26.4,39h0L27,37.71l.754-.837L26.25,40.3Zm.754-5.628h0v2.358L26.4,37.406V34.668ZM26.4,25.694h0c.08-.076.151-.153.151-.229.151,0,.3-.076.452-.076.08.076.08.076.151.076v.153c-.3.076-.523.076-.754.152Zm0,1.14h0c.3-.076.533-.076.754-.152v4.64L26.4,32.614ZM25.878,43.87h0l.221-2.053L27.155,40.6Zm1.357,2.89h0c0,.076-.08.076-.08.152a.861.861,0,0,1-.9.381.788.788,0,0,1-.452-1.065.67.67,0,0,1,.684-.456h.3a.8.8,0,0,1,.452.988Zm-1.89-1.749h0a1,1,0,0,0-.452-.76l.754-1.6ZM26.7,50.563h0a1.2,1.2,0,0,1,.533.3,1.52,1.52,0,0,1,.151.609.84.84,0,0,1-.9.684.781.781,0,0,1-.6-.913.743.743,0,0,1,.754-.684Zm-.151-1.445h0c-.07.228-.151.456-.07.608a2.853,2.853,0,0,1-.985-2.662,1.047,1.047,0,0,0,.6.533.692.692,0,0,0,.382.076.814.814,0,0,0,.6-.152,1.128,1.128,0,0,0,.3.836,1.189,1.189,0,0,0-.835.761ZM25.124,23.336h0A1.148,1.148,0,0,0,26.25,22.5h.3v.229a1.407,1.407,0,0,0,.684,1.14,2.289,2.289,0,0,0-.533.381,1.4,1.4,0,0,1-1.357.3,3.135,3.135,0,0,1,.08-.38A1.6,1.6,0,0,0,25.124,23.336Zm-3.771,1.293h0c0-.076.07-.152.221-.152s.151.076.151.228a.159.159,0,0,1-.151.152l-.07-.076h-.08a.272.272,0,0,1-.07-.152Zm1.126,22.588h0l-.372,2.509-1.961,2.358ZM18.337,23.336h0c0-.076.07-.152.221-.152.08,0,.151.076.151.228a.071.071,0,0,1-.07.076h-.231C18.337,23.412,18.337,23.412,18.337,23.336ZM18.86,54.9h0l-.372,3.042-.382.761-2.333,2.585ZM17.2,22.575h0c0-.076-.07-.076-.151-.076h-.07v-.152c0-.076.07-.152.221-.152.08,0,.151.152.151.228a.159.159,0,0,1-.151.152Zm.9,1.217h0v.152c-.221-.152-.523-.38-.754-.532V22.88a3.078,3.078,0,0,0,.684.38.335.335,0,0,0,.151.456c0,.076-.08.076-.08.076Zm-.825,24.337h0l.07-23.424c.231.152.452.3.754.532l.08,21.371Zm.9.533h0v6.084L17.2,56.723l.08-6.54Zm-3.549,15.21h0a1.783,1.783,0,0,1,1.589-1.141l.07.076-.825,1.978a4.519,4.519,0,0,1-.835-.837Zm.452-10.039h0V61.21l-.824,1.75V55.278Zm.08-28.748h0l-.08,26.695-.825,1.445V26Zm0-2.51h0v.913c-.231.228-.533.532-.9.837v-2.51a7.991,7.991,0,0,0,.9.76Zm.07-1.064h0v.076c-.07,0-.07,0-.07.076v.076c-.3-.3-.6-.533-.9-.837v-.608c.221.228.523.456.9.836h-.08c0,.153,0,.305.151.381ZM29.417,43.49h0a.667.667,0,0,1,.231-.456,1.066,1.066,0,0,1,.452-.152h.07a.734.734,0,0,1,.6.76.681.681,0,0,1-.3.456c-.151.153-.3.229-.452.153a.649.649,0,0,1-.6-.761Zm.3,1.141h0a.845.845,0,0,1,.452,1.065.779.779,0,0,1-.975.456c-.08,0-.08-.076-.151-.076a.951.951,0,0,1-.382-.989.838.838,0,0,1,1.056-.456Zm2.413-14.6h0l-.3,7.529h-.3l.3-6.769Zm.613-3.195h0l-1.136,2.738-.6.685,1.739-3.8a.638.638,0,0,1,0,.38Zm.372,3.043h0c.151,0,.231.076.382.076a1.069,1.069,0,0,0,.523-.153,1.611,1.611,0,0,0,.3.761,1.09,1.09,0,0,0-.825.684,1.539,1.539,0,0,0,0,.609,3.014,3.014,0,0,1-.915-2.434,1.8,1.8,0,0,0,.533.457Zm.382-1.826h0c.07,0,.151.076.3.076a.736.736,0,0,1,.372.913v.152a.748.748,0,0,1-.9.3.788.788,0,0,1-.452-.912.812.812,0,0,1,.684-.533Zm1.729-.684h0a1.271,1.271,0,0,0,.08.912,1.549,1.549,0,0,0-.754.305,1.1,1.1,0,0,0-.684-.837,2.914,2.914,0,0,0-.372-.076.244.244,0,0,0-.151.076,2.594,2.594,0,0,1,2.333-.913,1.094,1.094,0,0,0-.452.533Zm.835,1.065h0c-.08,0-.08,0-.151-.077a.641.641,0,0,1-.3-.836.7.7,0,0,1,.9-.456.831.831,0,0,1,.452.912.73.73,0,0,1-.9.457Zm-.985,4.106h0a1.177,1.177,0,0,0,.533-.532,1.312,1.312,0,0,0-.08-.913,1.12,1.12,0,0,0,.684-.3,1.251,1.251,0,0,0,.674.837c.151,0,.3.076.452.076a.223.223,0,0,0,.151-.076,2.663,2.663,0,0,1-2.413.912Zm-1.207.076h0a.6.6,0,0,1,.533.685.463.463,0,0,1-.231.456.616.616,0,0,1-.452.152.751.751,0,0,1-.523-.76,1.668,1.668,0,0,1,.221-.38,1.055,1.055,0,0,1,.452-.153Zm.6-3.27h0c0-.076.08-.076.08-.152a1.024,1.024,0,0,1,1.207-.456c.07,0,.07,0,.151.076a1.093,1.093,0,0,1,.452,1.217c-.08.076-.08.076-.08.152a.9.9,0,0,1-1.207.456c-.07,0-.07,0-.151-.076a.992.992,0,0,1-.452-1.217Zm.08,1.521h0c.07,0,.151.076.221.076s.08,0,.151.076a.719.719,0,0,1,.3.837.729.729,0,0,1-.9.456.713.713,0,0,1-.452-.912.812.812,0,0,1,.684-.533Zm.523,2.206h0c-.07,0-.151.076-.151.228a1.131,1.131,0,1,1-2.262,0,1.391,1.391,0,0,1,.382-.913l.07-.076c0-.076,0-.152-.07-.152a2.952,2.952,0,0,1-.533-.836v-.229A3.286,3.286,0,0,0,33.57,32.31a.4.4,0,0,0-.3.152.809.809,0,0,0-.372.685.942.942,0,0,0,.825,1.065h.08a1.431,1.431,0,0,0,.6-.153,1.066,1.066,0,0,0,.372-.684.628.628,0,0,0-.07-.532A2.157,2.157,0,0,0,35.38,33a3.758,3.758,0,0,0,.9-.152L36.134,33a7.724,7.724,0,0,1-1.056.076Zm-2.644-.381h0v-.684a1.049,1.049,0,0,0,.231.3,1.655,1.655,0,0,0-.231.38ZM33.8,34.82h0a1.467,1.467,0,0,0,1.428-1.369h.6l-3.469,4.183c-.08,0-.08,0-.151-.076l.151-3.8A1.539,1.539,0,0,0,33.8,34.82Zm.523-11.788h0a3.166,3.166,0,0,0-2.494.076,1.564,1.564,0,0,0,.382-.913c0-.076,0-.152-.08-.152l.533-.228a1.225,1.225,0,0,0,1.207.913,1.332,1.332,0,0,0,1.207-.761l.382.3a1.547,1.547,0,0,0-.231.837A1.329,1.329,0,0,0,36.516,24.4a.914.914,0,0,0,.6-.152,2.7,2.7,0,0,1-.08.76,3.282,3.282,0,0,0-1.207-.456c-.221,0-.372-.076-.6-.076a1.641,1.641,0,0,0-.9-1.445ZM33.872,24.4h0a3.355,3.355,0,0,0-2.946,1.14l-.07-.532c.9-.608,2.192-1.217,2.715-.989a.767.767,0,0,1,.3.381ZM31.006,24.1h0V24.02c.07-.076,0-.152,0-.228,1.056-.532,2.413-.912,3.167-.456a1.239,1.239,0,0,1,.684,1.065h-.3a1.269,1.269,0,0,0-.684-.989c-.754-.38-2.041.228-2.866.684ZM17.5,13.373h0c.151.228,3.851,6.921,8.979,8.214a6.137,6.137,0,0,0,5.349-.913,5.511,5.511,0,0,1,4.233.456,3.628,3.628,0,0,1,1.579,4.259c-.07-.076-.151-.152-.221-.228a1.284,1.284,0,0,0-.08-1.217.272.272,0,0,0-.07-.152c-.08,0-.151,0-.151.076a1.823,1.823,0,0,1-.6.152.872.872,0,0,1-.9-.912.734.734,0,0,1,.3-.685.272.272,0,0,1,.07-.152.272.272,0,0,0-.07-.152l-.835-.608c-.07-.076-.151-.076-.151,0-.07,0-.151,0-.151.076a.894.894,0,0,1-.9.76.971.971,0,0,1-.9-.836.272.272,0,0,0-.07-.152h-.231l-.754.38c-.08,0-.151.152-.151.228s.07.152.07.228a.937.937,0,0,1-.975.913,1.051,1.051,0,0,1-.9-.685c0-.076,0-.152-.08-.152h-.151l-.825.228c-.08.076-.151.076-.151.229a.9.9,0,1,1-1.81,0v-.457c0-.076-.08-.076-.151-.076l-.684-.152c-.07,0-.151,0-.151.076-.07,0-.07.076-.07.152,0,.609-.533.685-.9.685a.584.584,0,0,0,.6-.533.668.668,0,0,0-.533-.836.689.689,0,0,0-.824.532.629.629,0,0,0,.07.532.863.863,0,0,1-.221-.608.607.607,0,0,1,.07-.38v-.152c0-.076-.07-.076-.07-.152l-.835-.305c-.07,0-.221,0-.221.076a.828.828,0,0,1-.754.457h-.08l-.523-.228a.8.8,0,0,1-.382-.685,1.163,1.163,0,0,1,.151-.532c.08-.076,0-.152-.07-.228l-.835-.609H20.3a.823.823,0,0,1-.533.228.937.937,0,0,1-.975-.912.967.967,0,0,1,.3-.685.245.245,0,0,0,0-.3l-.533-.761c-.07,0-.07,0-.151-.076a.284.284,0,0,0-.151.076.811.811,0,0,1-.674.305.937.937,0,0,1-.9-.989v-.076H16.6s0-.076-.07-.076h-.151l-1.207.989c-.08.076-.08.076-.08.152s0,.152.08.152a1.533,1.533,0,0,1,.6.988c.07.3-.151.609-.452.913a.222.222,0,0,0,0,.3c1.207,1.6,1.357,1.673,1.428,1.673a.078.078,0,0,0,.08.077c.07-.077.151-.077.221-.153a.824.824,0,0,1,.835-.608h.07a.608.608,0,0,0-.674.532.663.663,0,0,0,.523.837c.08,0,.08.076.151.076a.815.815,0,0,0,.684-.608.719.719,0,0,0-.231-.685.929.929,0,0,1,.382.761.7.7,0,0,1-.3.608c0,.076-.08.152,0,.152,0,.076,0,.152.07.152l1.136.761h.221a.261.261,0,0,0,.08-.152,1.068,1.068,0,0,1,.452-.685.667.667,0,0,0-.231.457.7.7,0,0,0,.533.836H20.9a.708.708,0,0,0,.674-.608.6.6,0,0,0-.3-.685.922.922,0,0,1,.533.761.871.871,0,0,1-.231.608v.152c0,.076.08.076.151.152l1.287.381h.151a.272.272,0,0,1,.07-.152.923.923,0,0,1,.6-.913,1.3,1.3,0,0,0-.372.532.745.745,0,0,0,.6.837h.151a.708.708,0,0,0,.674-.609,1.033,1.033,0,0,0-.07-.456,1.527,1.527,0,0,1,.221.609,1.019,1.019,0,0,1-.151.456c-.07,0-.07.076,0,.152a.076.076,0,0,0,.08.076c.07,0,.3.076.674.152-.07,0-.07.076-.07.152h-.453a.7.7,0,0,0-.452-.456.593.593,0,0,0-.6.38h-.452a.269.269,0,0,0-.08-.228.976.976,0,0,0-.3-.228.69.69,0,0,0-.6.3c-.151-.076-.372-.076-.523-.152a.549.549,0,0,0-1.056-.3c-.151-.076-.231-.152-.382-.152v-.076a.588.588,0,0,0-.452-.685.566.566,0,0,0-.523.3c-.231-.152-.452-.228-.684-.38h.08a.665.665,0,0,0-.452-.684.616.616,0,0,0-.452.152,3.068,3.068,0,0,1-.533-.3c0-.076,0-.076.08-.152,0-.3-.151-.608-.452-.608a.331.331,0,0,0-.452.152,7.514,7.514,0,0,1-.684-.532v-.152c.08-.153,0-.305-.07-.457-.08-.076-.231-.152-.3-.228-.231,0-.382,0-.452.152-.382-.3-.6-.608-.835-.76a.269.269,0,0,0,.08-.228.338.338,0,0,0-.08-.381.389.389,0,0,0-.3-.228.546.546,0,0,0-.674.456,1.021,1.021,0,0,0,.151.457v.076a20.108,20.108,0,0,1-1.89-2.282L17.432,13.3Zm21.125,12.4h0a5.037,5.037,0,0,0-.684-4.335,3.427,3.427,0,0,0-1.357-1.141c-2.262-1.6-5.128-.533-5.208-.533A5.775,5.775,0,0,1,26.7,20.6c-4.293-1.141-7.692-6.693-8.366-7.833l-.3-.381a.65.65,0,0,0-.452-.228l-.835-.532a.552.552,0,0,0-.674,0l-.08.076a2.046,2.046,0,0,0-1.508.38A2.143,2.143,0,0,0,13.43,13.6l-1.056.837a2.019,2.019,0,0,0-1.207.456,1.752,1.752,0,0,0-.975,1.217l-.754.532-.08.076-.07.076a.271.271,0,0,1-.08.229v.3h.08c.07.228.6,1.293.975,1.977A27.522,27.522,0,0,0,6.945,22.88a1.457,1.457,0,0,0-1.438,1.14,1.39,1.39,0,0,0,0,.761A34.081,34.081,0,0,0,.982,35.428a1.667,1.667,0,0,0-.07.381,33.712,33.712,0,0,0-.9,7.833v1.521A37.892,37.892,0,0,0,2.189,58.244V58.7a2.5,2.5,0,0,0,.6,1.14A30.123,30.123,0,0,0,6.261,65.7c.985,1.141,2.343,3.347,2.122,4.64a2.413,2.413,0,0,0-.985-.152A2.335,2.335,0,0,0,5.889,71.4a2.3,2.3,0,0,0,.452,2.51,2.211,2.211,0,0,0,2.413.38l.08.077a.625.625,0,0,0,.523.3.95.95,0,0,0,.452.076c1.89,0,4.826-1.141,8.3-6.389,1.287.228,2.343.457,3.167.533l1.438.228c.6.228,1.81.152,2.484-1.521L39.3,30.865a6.012,6.012,0,0,0,.382-1.217A4.834,4.834,0,0,0,38.627,25.77ZM14.114,70.185h0a10.771,10.771,0,0,0-.985.912l1.89-4.259.825,1.141c-.452.532-1.277,1.673-1.729,2.206Zm1.056-3.879h0c-.08,0-.151-.076-.231-.076,0,0-.07.076-.151.152l-2.413,5.324c-.07.076,0,.152.08.228a.071.071,0,0,0,.07.076c.08,0,.151,0,.151-.076a14.58,14.58,0,0,0,1.739-1.445c.523-.609,1.428-1.9,1.81-2.358a.245.245,0,0,0,0-.3ZM3.325,51.323h0a.481.481,0,0,1-.08.685c-.151.076-.221.152-.3.152h-.07a1.82,1.82,0,0,1-.382-.228.584.584,0,0,1,.08-.761.806.806,0,0,1,.372-.076.427.427,0,0,1,.382.228ZM29.95,38.166h0c-.08,0-.231-.076-.231-.152a.242.242,0,0,1,.231-.228c.151,0,.221.076.221.228C30.171,38.09,30.1,38.166,29.95,38.166Zm0-.76h0a.6.6,0,0,0-.6.608.585.585,0,0,0,.6.533.543.543,0,0,0,.6-.533.56.56,0,0,0-.6-.608ZM31.911,39h0a.247.247,0,0,1-.231-.228.2.2,0,0,1,.231-.228.241.241,0,0,1,.221.228.344.344,0,0,1-.221.228Zm0-.837h0a.609.609,0,1,0,.607.608.608.608,0,0,0-.607-.608Zm1.89,1.6h0a.247.247,0,0,1-.231-.228.2.2,0,0,1,.231-.228.241.241,0,0,1,.221.228A.344.344,0,0,1,33.8,39.763Zm0-.836h0a.609.609,0,1,0,.6.608.651.651,0,0,0-.6-.608ZM26.783,58.016h0a.2.2,0,0,1-.231-.228c0-.152.08-.3.231-.3s.221.152.221.3-.07.228-.221.228Zm0-.836h0a.555.555,0,0,0-.6.608.594.594,0,0,0,.6.608.651.651,0,0,0,.6-.608.6.6,0,0,0-.6-.608Zm-4.153-.837h0a.237.237,0,0,1-.221-.228c0-.152.07-.3.221-.3s.231.152.231.3a.247.247,0,0,1-.231.228Zm0-.913h0a.623.623,0,0,0-.6.685.6.6,0,0,0,.6.608.651.651,0,0,0,.6-.608.669.669,0,0,0-.6-.685Zm2.111,1.293h0a.229.229,0,0,1,0,.457c-.151,0-.3-.077-.3-.229s.151-.228.3-.228Zm0,.837h0a.652.652,0,0,0,.6-.609.6.6,0,0,0-.6-.608.616.616,0,0,0-.674.608.666.666,0,0,0,.674.609ZM12.676,23.64h0a1.1,1.1,0,0,1-1.357.989,1.181,1.181,0,0,1-.975-1.445A1.221,1.221,0,0,1,11.55,22.2H11.7a1.217,1.217,0,0,1,.975,1.445Zm-.9-1.825h0a1.6,1.6,0,0,0-1.81,1.293,1.647,1.647,0,0,0,1.287,1.9h.3a1.485,1.485,0,0,0,1.508-1.293,1.595,1.595,0,0,0-1.287-1.9ZM8.383,62.655h0a1.219,1.219,0,0,1,1.207-1.064c.07,0,.07,0,.151.076a1.144,1.144,0,0,1,.975,1.369A1.2,1.2,0,0,1,9.358,64.1a1.216,1.216,0,0,1-.975-1.445Zm1.207,1.826h0a1.9,1.9,0,1,0-.3-.076c.07.076.151.076.3.076ZM7.7,62.5h0a1.884,1.884,0,0,1,1.89-1.6h.3a1.969,1.969,0,0,1-.684,3.879A1.982,1.982,0,0,1,7.7,62.5Zm1.89,2.738h0a2.286,2.286,0,0,0,2.262-1.977,2.345,2.345,0,0,0-1.89-2.738.807.807,0,0,0-.372-.076,2.425,2.425,0,0,0-2.343,1.977,2.337,2.337,0,0,0,1.89,2.738.949.949,0,0,0,.453.076Zm8.064-49.358h0v.076c.231,0,.3.152.3.38-.07.152-.151.228-.3.228h-.07c-.231,0-.3-.152-.3-.38C17.352,16.035,17.432,15.883,17.653,15.883ZM17.5,16.948h.151a.737.737,0,0,0,.684-.533.718.718,0,0,0-.6-.836.7.7,0,0,0-.835.532.762.762,0,0,0,.6.837Zm4.756,3.422h0c.221,0,.3.152.3.38a.427.427,0,0,1-.382.228.285.285,0,0,1-.221-.38c0-.152.151-.228.3-.228Zm-.151.913h0c.07.076.07.076.151.076a.6.6,0,0,0,.6-.609.665.665,0,0,0-.533-.76.73.73,0,0,0-.754.532.6.6,0,0,0,.533.761ZM19.765,18.24h.08a.364.364,0,0,1,.221.457.283.283,0,0,1-.372.228.3.3,0,0,1-.231-.38.327.327,0,0,1,.3-.3Zm-.151,1.065h.151a.667.667,0,0,0,.684-.608.7.7,0,0,0-.533-.837.812.812,0,0,0-.825.609.7.7,0,0,0,.523.836ZM36.436,22.88h.08a.285.285,0,0,1,.221.38.326.326,0,0,1-.3.3h-.07a.377.377,0,0,1-.231-.456C36.134,22.956,36.285,22.88,36.436,22.88Zm-.674.228h0a.7.7,0,0,0,.523.836h.151a.732.732,0,0,0,.684-.608.69.69,0,1,0-1.357-.228Zm-4.836-1.141h0c.151.076.231.076.231.152.07.076.07.152.07.3a.283.283,0,0,1-.372.228c-.231,0-.3-.228-.3-.38.07-.152.151-.3.372-.3Zm-.151,1.065h.151a.7.7,0,0,0,.533-1.141.464.464,0,0,0-.452-.228.649.649,0,0,0-.835.532.762.762,0,0,0,.6.837ZM27.839,22.5h.07c.151.076.3.229.231.381a.277.277,0,0,1-.3.3h-.08a.285.285,0,0,1-.221-.38.326.326,0,0,1,.3-.305Zm-.151,1.065h.151a.657.657,0,0,0,.674-.608.7.7,0,0,0-.523-.837.715.715,0,0,0-.835.609.7.7,0,0,0,.533.836Zm6.184-2.358h.08c.151.077.3.229.221.381,0,.228-.151.3-.372.3a.3.3,0,0,1-.231-.38.327.327,0,0,1,.3-.3Zm-.07,1.065h.07a.619.619,0,0,0,.684-.608.7.7,0,0,0-.533-.837.743.743,0,0,0-.824.609.694.694,0,0,0,.6.836ZM14.938,17.936h.08c.221,0,.3.228.3.38a.344.344,0,1,1-.684-.076.277.277,0,0,1,.3-.3ZM14.868,19h.07a.661.661,0,1,0-.07,0Z" transform="translate(-0.005 -2.57)" fill="#2b2b2e"/><rect width="1.356" height="80" transform="translate(55.765)" fill="#2b2b2e"/></svg>