<?xml version="1.0" encoding="utf-8"?>
<!-- Generator: Adobe Illustrator 28.0.0, SVG Export Plug-In . SVG Version: 6.00 Build 0)  -->
<svg version="1.1" id="Layer_1" xmlns="http://www.w3.org/2000/svg" xmlns:xlink="http://www.w3.org/1999/xlink" x="0px" y="0px"
	 viewBox="0 0 164 110" style="enable-background:new 0 0 164 110;" xml:space="preserve">
<style type="text/css">
	.st0{fill:#FFFFFF;}
</style>
<path class="st0" d="M153.8,34.6h-6.6v-25h6.1v3.6c1.1-1.7,2-2.8,2.8-3.3C157,9.3,158,9,159.1,9c1.5,0,3,0.4,4.4,1.2l-2,5.8
	c-1.1-0.7-2.1-1.1-3.1-1.1c-0.9,0-1.7,0.3-2.4,0.8c-0.6,0.5-1.1,1.4-1.5,2.8c-0.4,1.3-0.6,4.1-0.6,8.4V34.6z"/>
<path class="st0" d="M137,19.9c0-1.9-0.5-3.4-1.5-4.4c-0.9-1-2.1-1.5-3.4-1.5c-1.4,0-2.6,0.5-3.6,1.6c-0.9,1.1-1.4,2.5-1.4,4.3H137z
	 M136.7,26.6l6.6,1.1c-0.8,2.4-2.2,4.3-4,5.5c-1.8,1.3-4.1,1.9-6.9,1.9c-4.3,0-7.6-1.4-9.6-4.3c-1.6-2.3-2.5-5.1-2.5-8.6
	c0-4.1,1.1-7.4,3.2-9.7c2.2-2.3,4.9-3.5,8.2-3.5c3.7,0,6.7,1.2,8.8,3.7c2.1,2.5,3.2,6.2,3.1,11.3H127c0,2,0.6,3.5,1.6,4.6
	c1,1.1,2.3,1.6,3.8,1.6c1,0,1.9-0.3,2.6-0.8C135.8,28.8,136.3,27.9,136.7,26.6"/>
<path class="st0" d="M116.9,9.6v5.3h-4.5v10.1c0,2,0,3.2,0.1,3.6c0.1,0.3,0.3,0.6,0.6,0.8c0.3,0.2,0.7,0.3,1.1,0.3
	c0.6,0,1.5-0.2,2.7-0.6l0.6,5.1c-1.5,0.7-3.3,1-5.2,1c-1.2,0-2.3-0.2-3.2-0.6c-1-0.4-1.7-0.9-2.1-1.6c-0.4-0.6-0.8-1.5-0.9-2.6
	c-0.1-0.8-0.2-2.3-0.2-4.7V14.8h-3V9.6h3v-5l6.6-3.9v8.8H116.9z"/>
<g>
	<path class="st0" d="M93.1,22.6c-0.8,0.3-2.2,0.6-4,1c-1.8,0.4-3,0.8-3.6,1.2c-0.9,0.6-1.3,1.4-1.3,2.3c0,0.9,0.3,1.7,1,2.4
		c0.7,0.7,1.6,1,2.6,1c1.2,0,2.3-0.4,3.4-1.2c0.8-0.6,1.3-1.3,1.6-2.2c0.2-0.6,0.3-1.6,0.3-3.2V22.6z M84.3,17.2l-6-1.1
		c0.7-2.4,1.8-4.2,3.5-5.4S85.9,9,89.1,9c2.9,0,5.1,0.3,6.6,1c1.4,0.7,2.5,1.6,3,2.7c0.6,1.1,0.9,3,0.9,5.9l-0.1,7.7
		c0,2.2,0.1,3.8,0.3,4.9c0.2,1,0.6,2.2,1.2,3.4h-6.5c-0.2-0.4-0.4-1.1-0.6-2c-0.1-0.4-0.2-0.7-0.2-0.8c-1.1,1.1-2.3,1.9-3.6,2.5
		c-1.3,0.5-2.7,0.8-4.1,0.8c-2.6,0-4.6-0.7-6.1-2.1c-1.5-1.4-2.2-3.2-2.2-5.3c0-1.4,0.3-2.7,1-3.8c0.7-1.1,1.6-2,2.8-2.5
		c1.2-0.6,3-1.1,5.3-1.5c3.1-0.6,5.2-1.1,6.4-1.6v-0.7c0-1.3-0.3-2.2-0.9-2.7c-0.6-0.5-1.8-0.8-3.6-0.8c-1.2,0-2.1,0.2-2.8,0.7
		C85.2,15.2,84.7,16,84.3,17.2"/>
</g>
<polygon class="st0" points="47.2,34.6 39.3,9.6 45.7,9.6 50.4,25.9 54.7,9.6 61.1,9.6 65.3,25.9 70,9.6 76.6,9.6 68.5,34.6 
	62.2,34.6 57.9,18.5 53.6,34.6 "/>
<rect x="31.5" y="9.6" class="st0" width="4.2" height="25"/>
<path class="st0" d="M6.1,34.6v-25h3.8v3.6c1.8-2.7,4.5-4.1,8-4.1c1.5,0,2.9,0.3,4.2,0.8c1.3,0.5,2.2,1.3,2.8,2.1
	c0.6,0.9,1.1,1.9,1.3,3.1c0.2,0.8,0.2,2.2,0.2,4.1v15.4h-4.2V19.4c0-1.7-0.2-3-0.5-3.9c-0.3-0.9-0.9-1.5-1.8-2
	c-0.8-0.5-1.8-0.8-3-0.8c-1.8,0-3.4,0.6-4.7,1.7c-1.3,1.1-2,3.3-2,6.5v13.6H6.1z"/>
<path class="st0" d="M118,64.7C103.7,61,94.2,53.3,78.8,53.1c-15.2-0.2-25.8,7.6-37.7,7.6c-21.8,0.1-40-15.4-40-15.4
	s15.6,11.4,30.5,11.5c11.9,0.1,22.5-7.9,37.7-7.6c15.4,0.2,23.1,6.4,37.7,8.5c40.5,5.8,52.8-17.8,52.8-17.8S156.8,74.6,118,64.7"/>
<path class="st0" d="M163.4,52.7c0,0-15.5,30.1-59.6,19.4c-14.4-3.5-22.7-9.3-38.2-9.5c-15.2-0.2-22.7,7.5-34.6,7.5
	C15,70.1,0.3,58.8,0.3,58.8s20.9,16.8,43.3,17c11.9,0.1,17.7-7.9,32.8-7.7c15.4,0.2,30.6,11.5,45.1,14.3
	C159.4,89.6,163.4,52.7,163.4,52.7"/>
<path class="st0" d="M5,97.9v6.8h1.5c0.6,0,1,0,1.2-0.1c0.3-0.1,0.6-0.2,0.8-0.4c0.2-0.2,0.4-0.5,0.5-1c0.1-0.5,0.2-1.1,0.2-1.9
	c0-0.8-0.1-1.4-0.2-1.8c-0.1-0.4-0.3-0.8-0.6-1C8.3,98.2,8,98,7.6,98c-0.3-0.1-0.9-0.1-1.7-0.1H5z M2.9,96.1h3.8
	c0.9,0,1.5,0.1,1.9,0.2c0.6,0.2,1.1,0.5,1.5,0.9s0.8,1,1,1.7c0.2,0.7,0.3,1.5,0.3,2.4c0,0.8-0.1,1.6-0.3,2.2
	c-0.3,0.7-0.6,1.3-1.1,1.8c-0.4,0.3-0.8,0.6-1.5,0.8c-0.5,0.1-1.1,0.2-1.8,0.2H2.9V96.1z"/>
<g>
	<path class="st0" d="M17.3,102c0-0.6-0.2-1-0.4-1.3c-0.3-0.3-0.6-0.4-1-0.4c-0.4,0-0.8,0.2-1.1,0.5c-0.3,0.3-0.4,0.7-0.4,1.3H17.3z
		 M17.2,104l2,0.3c-0.3,0.7-0.6,1.3-1.2,1.6c-0.5,0.4-1.2,0.6-2,0.6c-1.3,0-2.2-0.4-2.9-1.3c-0.5-0.7-0.7-1.5-0.7-2.6
		c0-1.2,0.3-2.2,1-2.9c0.6-0.7,1.5-1,2.4-1c1.1,0,2,0.4,2.6,1.1c0.6,0.7,0.9,1.8,0.9,3.3h-4.9c0,0.6,0.2,1,0.5,1.4
		c0.3,0.3,0.7,0.5,1.1,0.5c0.3,0,0.6-0.1,0.8-0.3C16.9,104.6,17.1,104.4,17.2,104"/>
</g>
<rect x="20.4" y="96.1" class="st0" width="2" height="10.2"/>
<path class="st0" d="M24.2,98.9h2v7.4h-2V98.9z M24.2,96.1h2v1.8h-2V96.1z"/>
<path class="st0" d="M30.3,106.4l-3-7.4h2.1l1.4,3.8l0.4,1.3c0.1-0.3,0.2-0.5,0.2-0.6c0.1-0.2,0.1-0.4,0.2-0.6l1.4-3.8h2l-2.9,7.4
	H30.3z"/>
<path class="st0" d="M40.1,102c0-0.6-0.2-1-0.4-1.3c-0.3-0.3-0.6-0.4-1-0.4c-0.4,0-0.8,0.2-1.1,0.5c-0.3,0.3-0.4,0.7-0.4,1.3H40.1z
	 M40,104l2,0.3c-0.3,0.7-0.6,1.3-1.2,1.6c-0.5,0.4-1.2,0.6-2,0.6c-1.3,0-2.2-0.4-2.9-1.3c-0.5-0.7-0.7-1.5-0.7-2.6
	c0-1.2,0.3-2.2,1-2.9c0.6-0.7,1.5-1,2.4-1c1.1,0,2,0.4,2.6,1.1c0.6,0.7,0.9,1.8,0.9,3.3h-4.9c0,0.6,0.2,1,0.5,1.4
	c0.3,0.3,0.7,0.5,1.1,0.5c0.3,0,0.6-0.1,0.8-0.3C39.7,104.6,39.9,104.4,40,104"/>
<g>
	<path class="st0" d="M45.2,106.4h-2v-7.4h1.8v1.1c0.3-0.5,0.6-0.8,0.8-1c0.2-0.2,0.5-0.2,0.8-0.2c0.4,0,0.9,0.1,1.3,0.4l-0.6,1.7
		c-0.3-0.2-0.6-0.3-0.9-0.3c-0.3,0-0.5,0.1-0.7,0.2c-0.2,0.2-0.3,0.4-0.5,0.8c-0.1,0.4-0.2,1.2-0.2,2.5V106.4z"/>
</g>
<path class="st0" d="M49,98.9h2v7.4h-2V98.9z M49,96.1h2v1.8h-2V96.1z"/>
<path class="st0" d="M59.1,106.4h-2v-3.8c0-0.8,0-1.3-0.1-1.6c-0.1-0.2-0.2-0.4-0.4-0.5c-0.2-0.1-0.4-0.2-0.7-0.2
	c-0.3,0-0.6,0.1-0.9,0.3c-0.3,0.2-0.5,0.4-0.6,0.7c-0.1,0.3-0.2,0.9-0.2,1.7v3.4h-2v-7.4h1.8v1.1c0.6-0.8,1.5-1.3,2.4-1.3
	c0.4,0,0.8,0.1,1.2,0.2c0.4,0.2,0.6,0.4,0.8,0.6c0.2,0.2,0.3,0.5,0.4,0.8c0.1,0.3,0.1,0.7,0.1,1.3V106.4z"/>
<g>
	<path class="st0" d="M62.3,102.5c0,0.8,0.2,1.4,0.5,1.7c0.3,0.4,0.7,0.5,1.1,0.5c0.5,0,0.9-0.2,1.2-0.6c0.3-0.4,0.5-0.9,0.5-1.7
		c0-0.8-0.2-1.3-0.5-1.7c-0.3-0.4-0.7-0.6-1.2-0.6c-0.5,0-0.9,0.2-1.2,0.5C62.5,101.2,62.3,101.8,62.3,102.5 M60.5,106.8l2.2,0.3
		c0,0.3,0.1,0.4,0.3,0.5c0.2,0.1,0.5,0.2,0.9,0.2c0.5,0,0.9-0.1,1.2-0.2c0.2-0.1,0.3-0.3,0.4-0.5c0.1-0.2,0.1-0.5,0.1-0.9v-1.1
		c-0.6,0.8-1.3,1.2-2.2,1.2c-1,0-1.8-0.4-2.4-1.3c-0.5-0.7-0.7-1.5-0.7-2.5c0-1.2,0.3-2.2,0.9-2.8c0.6-0.7,1.3-1,2.2-1
		c0.9,0,1.7,0.4,2.3,1.2v-1h1.8v6.7c0,0.9-0.1,1.5-0.2,2c-0.1,0.4-0.3,0.8-0.6,1c-0.3,0.2-0.6,0.4-1,0.6c-0.4,0.1-1,0.2-1.6,0.2
		c-1.3,0-2.1-0.2-2.7-0.6c-0.5-0.4-0.8-1-0.8-1.6C60.5,107,60.5,106.9,60.5,106.8"/>
</g>
<polygon class="st0" points="75.1,106.4 72.8,98.9 74.7,98.9 76.1,103.8 77.4,98.9 79.3,98.9 80.5,103.8 81.9,98.9 83.8,98.9 
	81.5,106.4 79.6,106.4 78.3,101.6 77,106.4 "/>
<path class="st0" d="M86.8,96.1v3.8c0.6-0.7,1.4-1.1,2.3-1.1c0.5,0,0.9,0.1,1.2,0.3c0.4,0.2,0.6,0.4,0.8,0.6
	c0.2,0.3,0.3,0.5,0.4,0.9c0.1,0.3,0.1,0.8,0.1,1.5v4.3h-2v-3.9c0-0.8,0-1.3-0.1-1.5c-0.1-0.2-0.2-0.4-0.4-0.5
	c-0.2-0.1-0.4-0.2-0.7-0.2c-0.3,0-0.6,0.1-0.9,0.2c-0.3,0.2-0.4,0.4-0.6,0.7c-0.1,0.3-0.2,0.8-0.2,1.4v3.7h-2V96.1H86.8z"/>
<path class="st0" d="M97.4,102.8c-0.2,0.1-0.6,0.2-1.2,0.3c-0.5,0.1-0.9,0.2-1.1,0.3c-0.3,0.2-0.4,0.4-0.4,0.7
	c0,0.3,0.1,0.5,0.3,0.7c0.2,0.2,0.5,0.3,0.8,0.3c0.4,0,0.7-0.1,1-0.3c0.2-0.2,0.4-0.4,0.5-0.6c0.1-0.2,0.1-0.5,0.1-1V102.8z
	 M94.8,101.2l-1.8-0.3c0.2-0.7,0.5-1.2,1-1.6c0.5-0.3,1.2-0.5,2.2-0.5c0.9,0,1.5,0.1,2,0.3c0.4,0.2,0.7,0.5,0.9,0.8
	c0.2,0.3,0.3,0.9,0.3,1.8l0,2.3c0,0.7,0,1.1,0.1,1.4c0.1,0.3,0.2,0.6,0.4,1h-1.9c-0.1-0.1-0.1-0.3-0.2-0.6c0-0.1-0.1-0.2-0.1-0.2
	c-0.3,0.3-0.7,0.6-1.1,0.7c-0.4,0.2-0.8,0.2-1.2,0.2c-0.8,0-1.4-0.2-1.8-0.6c-0.4-0.4-0.7-0.9-0.7-1.6c0-0.4,0.1-0.8,0.3-1.1
	c0.2-0.3,0.5-0.6,0.8-0.8c0.4-0.2,0.9-0.3,1.6-0.5c0.9-0.2,1.6-0.3,1.9-0.5v-0.2c0-0.4-0.1-0.6-0.3-0.8c-0.2-0.2-0.5-0.2-1.1-0.2
	c-0.3,0-0.6,0.1-0.8,0.2C95.1,100.6,94.9,100.9,94.8,101.2"/>
<path class="st0" d="M104.6,98.9v1.6h-1.3v3c0,0.6,0,1,0,1.1c0,0.1,0.1,0.2,0.2,0.2c0.1,0.1,0.2,0.1,0.3,0.1c0.2,0,0.4-0.1,0.8-0.2
	l0.2,1.5c-0.5,0.2-1,0.3-1.6,0.3c-0.4,0-0.7-0.1-1-0.2c-0.3-0.1-0.5-0.3-0.6-0.5c-0.1-0.2-0.2-0.4-0.3-0.8c0-0.2-0.1-0.7-0.1-1.4
	v-3.2h-0.9v-1.6h0.9v-1.5l2-1.1v2.6H104.6z"/>
<path class="st0" d="M110.1,98.9h1.8v1c0.6-0.8,1.4-1.2,2.3-1.2c0.5,0,0.9,0.1,1.2,0.3c0.3,0.2,0.6,0.5,0.9,0.9
	c0.3-0.4,0.7-0.7,1.1-0.9c0.4-0.2,0.8-0.3,1.2-0.3c0.5,0,1,0.1,1.4,0.3c0.4,0.2,0.7,0.5,0.8,1c0.1,0.3,0.2,0.8,0.2,1.5v4.7h-2v-4.2
	c0-0.7-0.1-1.2-0.2-1.4c-0.2-0.3-0.5-0.4-0.8-0.4c-0.3,0-0.5,0.1-0.8,0.3c-0.2,0.2-0.4,0.4-0.5,0.7c-0.1,0.3-0.2,0.8-0.2,1.5v3.6h-2
	v-4.1c0-0.7,0-1.2-0.1-1.4c-0.1-0.2-0.2-0.4-0.3-0.5s-0.3-0.2-0.6-0.2c-0.3,0-0.6,0.1-0.8,0.2c-0.2,0.2-0.4,0.4-0.5,0.7
	c-0.1,0.3-0.2,0.8-0.2,1.5v3.6h-2V98.9z"/>
<path class="st0" d="M126.7,102.8c-0.2,0.1-0.6,0.2-1.2,0.3c-0.5,0.1-0.9,0.2-1.1,0.3c-0.3,0.2-0.4,0.4-0.4,0.7
	c0,0.3,0.1,0.5,0.3,0.7c0.2,0.2,0.5,0.3,0.8,0.3c0.4,0,0.7-0.1,1-0.3c0.2-0.2,0.4-0.4,0.5-0.6c0.1-0.2,0.1-0.5,0.1-1V102.8z
	 M124.1,101.2l-1.8-0.3c0.2-0.7,0.5-1.2,1-1.6c0.5-0.3,1.2-0.5,2.2-0.5c0.9,0,1.5,0.1,2,0.3c0.4,0.2,0.7,0.5,0.9,0.8
	c0.2,0.3,0.3,0.9,0.3,1.8l0,2.3c0,0.7,0,1.1,0.1,1.4c0.1,0.3,0.2,0.6,0.4,1h-1.9c-0.1-0.1-0.1-0.3-0.2-0.6c0-0.1-0.1-0.2-0.1-0.2
	c-0.3,0.3-0.7,0.6-1.1,0.7c-0.4,0.2-0.8,0.2-1.2,0.2c-0.8,0-1.4-0.2-1.8-0.6c-0.4-0.4-0.7-0.9-0.7-1.6c0-0.4,0.1-0.8,0.3-1.1
	c0.2-0.3,0.5-0.6,0.8-0.8c0.4-0.2,0.9-0.3,1.6-0.5c0.9-0.2,1.6-0.3,1.9-0.5v-0.2c0-0.4-0.1-0.6-0.3-0.8c-0.2-0.2-0.5-0.2-1.1-0.2
	c-0.3,0-0.6,0.1-0.8,0.2C124.4,100.6,124.2,100.9,124.1,101.2"/>
<path class="st0" d="M133.9,98.9v1.6h-1.3v3c0,0.6,0,1,0,1.1c0,0.1,0.1,0.2,0.2,0.2c0.1,0.1,0.2,0.1,0.3,0.1c0.2,0,0.4-0.1,0.8-0.2
	l0.2,1.5c-0.5,0.2-1,0.3-1.6,0.3c-0.4,0-0.7-0.1-1-0.2c-0.3-0.1-0.5-0.3-0.6-0.5c-0.1-0.2-0.2-0.4-0.3-0.8c0-0.2-0.1-0.7-0.1-1.4
	v-3.2h-0.9v-1.6h0.9v-1.5l2-1.1v2.6H133.9z"/>
<path class="st0" d="M138.7,98.9v1.6h-1.3v3c0,0.6,0,1,0,1.1c0,0.1,0.1,0.2,0.2,0.2c0.1,0.1,0.2,0.1,0.3,0.1c0.2,0,0.4-0.1,0.8-0.2
	l0.2,1.5c-0.5,0.2-1,0.3-1.6,0.3c-0.4,0-0.7-0.1-1-0.2c-0.3-0.1-0.5-0.3-0.6-0.5c-0.1-0.2-0.2-0.4-0.3-0.8c0-0.2-0.1-0.7-0.1-1.4
	v-3.2h-0.9v-1.6h0.9v-1.5l2-1.1v2.6H138.7z"/>
<path class="st0" d="M144.5,102c0-0.6-0.2-1-0.4-1.3c-0.3-0.3-0.6-0.4-1-0.4c-0.4,0-0.8,0.2-1.1,0.5c-0.3,0.3-0.4,0.7-0.4,1.3H144.5
	z M144.4,104l2,0.3c-0.3,0.7-0.6,1.3-1.2,1.6c-0.5,0.4-1.2,0.6-2,0.6c-1.3,0-2.2-0.4-2.9-1.3c-0.5-0.7-0.7-1.5-0.7-2.6
	c0-1.2,0.3-2.2,1-2.9c0.6-0.7,1.5-1,2.4-1c1.1,0,2,0.4,2.6,1.1c0.6,0.7,0.9,1.8,0.9,3.3h-4.9c0,0.6,0.2,1,0.5,1.4
	c0.3,0.3,0.7,0.5,1.1,0.5c0.3,0,0.6-0.1,0.8-0.3C144.1,104.6,144.3,104.4,144.4,104"/>
<path class="st0" d="M149.5,106.4h-2v-7.4h1.8v1.1c0.3-0.5,0.6-0.8,0.8-1c0.2-0.2,0.5-0.2,0.8-0.2c0.4,0,0.9,0.1,1.3,0.4l-0.6,1.7
	c-0.3-0.2-0.6-0.3-0.9-0.3c-0.3,0-0.5,0.1-0.7,0.2c-0.2,0.2-0.3,0.4-0.5,0.8c-0.1,0.4-0.2,1.2-0.2,2.5V106.4z"/>
<g>
	<path class="st0" d="M152.6,104.2l2-0.3c0.1,0.4,0.3,0.7,0.5,0.9c0.3,0.2,0.6,0.3,1.1,0.3c0.5,0,0.9-0.1,1.1-0.3
		c0.2-0.1,0.3-0.3,0.3-0.5c0-0.1,0-0.3-0.1-0.4c-0.1-0.1-0.3-0.2-0.7-0.3c-1.6-0.3-2.6-0.7-3-1c-0.6-0.4-0.9-1-0.9-1.7
		c0-0.6,0.3-1.2,0.8-1.6c0.5-0.4,1.3-0.7,2.4-0.7c1,0,1.8,0.2,2.3,0.5c0.5,0.3,0.8,0.8,1,1.5l-1.8,0.3c-0.1-0.3-0.2-0.5-0.4-0.7
		c-0.2-0.2-0.5-0.2-0.9-0.2c-0.5,0-0.9,0.1-1.1,0.2c-0.1,0.1-0.2,0.2-0.2,0.4c0,0.1,0.1,0.3,0.2,0.4c0.2,0.1,0.8,0.3,1.8,0.6
		c1,0.2,1.8,0.5,2.2,0.9c0.4,0.3,0.6,0.8,0.6,1.5c0,0.7-0.3,1.3-0.9,1.8c-0.6,0.5-1.4,0.7-2.5,0.7c-1,0-1.8-0.2-2.4-0.6
		C153.2,105.5,152.8,104.9,152.6,104.2"/>
</g>
</svg>
