<?xml version="1.0" encoding="utf-8"?>
<!-- Generator: Adobe Illustrator 25.4.6, SVG Export Plug-In . SVG Version: 6.00 Build 0)  -->
<svg version="1.1" id="Layer_1" xmlns="http://www.w3.org/2000/svg" xmlns:xlink="http://www.w3.org/1999/xlink" x="0px" y="0px"
	 viewBox="0 0 180.44 134.78999" style="enable-background:new 0 0 180.44 134.78999;" xml:space="preserve">
<style type="text/css">
	.st0{fill:#2B2B2E;}
	.st1{fill:#FFFFFF;}
</style>
<path class="st0" d="M90.14001,1.84035c-53.03003,1.02002-85.62,5.16003-85.85004,56.88
	c0.23004,51.66003,32.82001,55.76001,85.85004,56.72003c53.15002-1,85.72998-5.06,86-56.72003
	C175.87,7.00038,143.28998,2.86037,90.14001,1.84035z M90,112.86037c-49.25-1.85999-80.65002-0.73999-80.69-54.12
	s31.44-52.37,80.69-54.12c49.17999,1.75,80.77002,0.79999,80.79004,54.12C170.81,112.06038,139.22998,111.02034,90,112.86037z"/>
<rect x="50.1001" y="36.45055" class="st1" width="1.2998" height="3.90967"/>
<rect x="30.47021" y="73.55016" class="st1" width="1.2998" height="4.06055"/>
<path class="st0" d="M46.45001,55.06038c-4.29999-3.92004-8.56-7.57001-8.56-11.67999v-0.08002
	c0.01001-3.52002,2.45001-5.08002,5.35999-5.08002c3.89307-0.03882,7.33002,2.53381,8.39001,6.28003
	C51.66998,44.65034,52,44.77034,52,44.43037c0,0,0-2.76001,0-5.20001c0-1.29999,0-2.57001,0-3.57001v-1.17999
	c0-0.14001-0.01001-0.67999-0.14001-0.69s-0.22998-0.01001-0.22998,0.37c-0.00513,0.27832-0.06281,0.5531-0.16998,0.81
	c-0.13,0.32001-0.44,0.72003-0.67004,0.57001c-2.70264-1.66791-5.8244-2.53162-9-2.48999
	c-2.79871-0.10663-5.54578,0.77484-7.75995,2.48999c-2.14001,1.79999-3.57001,4.71997-3.57001,9.12v0.41998
	c0.13995,5.66003,4.47998,9.66003,8.75,13.37c4.26996,3.71002,8.42999,7,8.42999,11c0,0.06,0,0.13,0,0.20001
	c-0.10004,4.20001-2.81,5.69-6.16998,5.69c-4.67004,0.02002-10.36005-3-11.26001-5.73999c-0.12-0.28003-0.35004-0.25-0.35004,0
	v11.15997c0,0.01001,0.01001,0.24005,0.14001,0.24005l-0.02002,0.00995c0.17999,0,0.17999-0.09998,0.17999-0.09998
	c0.57129-0.84918,1.48389-1.40771,2.5-1.52997c0.34332-0.00031,0.68323,0.06769,1,0.19995
	c2.49731,0.78613,5.10199,1.17755,7.72003,1.16003c6.17999,0.02002,13.62-2.31,13.67999-12.06v-0.14001
	C55.06,63.17036,50.75,58.98036,46.45001,55.06038z M52.32001,69.30037c0.07843,2.78802-1.20959,5.43872-3.45001,7.09998
	c-2.25757,1.51147-4.93506,2.27094-7.65002,2.16998c-3.28125-0.0282-6.50934-0.80334-9.44995-2.25238v-1.44537L32,75.00038
	c2.84467,1.46216,5.99164,2.2395,9.19,2.26996c2.43774,0.09552,4.84399-0.57599,6.88-1.91998
	c1.92029-1.40985,3.01758-3.67932,2.92999-6.06v-0.04999c0-3.69-2.21997-6.48004-5.21002-9.17999
	c-2.98999-2.70001-6.63995-5.19-9.17999-8.36005c-1.80292-2.10474-2.83618-4.76019-2.92999-7.52997v-0.16998
	c-0.15149-2.60138,0.8902-5.13013,2.83002-6.87006c1.76941-1.42737,3.98718-2.18195,6.26001-2.12994
	c2.6134-0.00287,5.16479,0.78027,7.33008,2.2403v1.66437L49.44,38.42036c-1.96521-1.34253-4.28998-2.06055-6.66998-2.06
	c-1.95416-0.06726-3.86951,0.55585-5.41003,1.76001c-1.64178,1.4978-2.51074,3.66272-2.35999,5.88v0.16998
	c0.07001,3.91998,2.34998,6.83002,5.34998,9.58002s6.65002,5.17999,9.14001,8.25c1.77216,2.00128,2.77515,4.56738,2.83002,7.23999
	V69.30037z"/>
<polygon class="st0" points="60.34003,81.00038 60.34003,81.00032 60.34003,81.00032 "/>
<polygon class="st0" points="112.23999,81.00038 112.23999,81.00032 112.23999,81.00032 "/>
<path class="st0" d="M76.27002,34.50038c0,0,0.34998-0.10004,0.33997-0.22003c-0.00995-0.12-0.41998-0.12-0.41998-0.12H60.85999
	c-0.51001,0-0.32996,0.20001-0.07001,0.34003c0.26001,0.13995,4.16003,1.56995,4.49005,5.21997v35.84998
	c-0.27002,3.68005-2.41003,4.20001-4.64001,5.20001c0,0-0.29987,0.11993-0.29999,0.22998c0.00012,0.12006,0.56,0.12006,0.56,0.12006
	H76.12c0,0,0.37,0,0.37-0.13s-0.21997-0.21002-0.21997-0.21002c-2.17999-0.98999-4.32001-1.52997-4.65002-5.21997V39.71034
	C71.95001,36.04036,74.09003,35.50038,76.27002,34.50038z M67.88,79.06972V36.22011h1.29999v42.84961H67.88z"/>
<path class="st0" d="M154.29004,80.78035c-3.12006-1.12-3.55005-0.96997-5.91003-3.63c-2.27002-2.39996-17.19-20.97998-18.44-22.56
	l17.84003-18.14996c0.65302-0.65332,1.43683-1.16107,2.29999-1.49005c0.42999-0.14996,0.82001-0.25,1.10999-0.32001
	c0,0,0.67999-0.17999,0.69-0.28998s-0.02997-0.17999-0.26001-0.17999h-14.71997c0,0-0.29999,0.03998-0.29999,0.13
	c0,0.08997,0.20996,0.20001,0.20996,0.20001c0.79004,0.47998,2,1.07996,3,1.79999c0.93011,0.50006,1.57898,1.39966,1.76001,2.44
	c-0.03094,0.55469-0.26605,1.07825-0.65997,1.46997L124.19,57.43037c-0.04053,0.03589-0.06561,0.08606-0.07001,0.13995
	c0.00586,0.05585,0.03485,0.10663,0.08002,0.14001l19,23.41998H143.25c0.02948,0.00812,0.06055,0.00812,0.09003,0l10.89001,0.00006
	c0,0,0.21997,0.01996,0.26996-0.12006C154.54999,80.87038,154.29004,80.78035,154.29004,80.78035z M127.06738,56.85738
	l0.89966-0.95465l18.78638,23.16699h-1.6734L127.06738,56.85738z"/>
<path class="st0" d="M49.68,16.68035c-0.23-1.6-0.28-1.76-1-1.76h-0.44c-0.15-0.06-0.25-0.53,0-0.58c1.2-0.24,2.34-0.47,3.92-0.7
	c1.09633-0.24009,2.23588-0.19533,3.31,0.13c0.76394,0.31759,1.2933,1.02723,1.38,1.85c0.11322,0.95684-0.43923,1.86797-1.34,2.21
	c-0.15,0.05-0.3,0.14-0.29,0.22s0.09,0.08,0.24,0.09c1.52421,0.01715,2.74592,1.26667,2.72877,2.79088
	c-0.01156,1.02743-0.5929,1.96338-1.50877,2.42912c-0.97819,0.44416-2.02156,0.7278-3.09,0.84c-0.57,0.08-1.17,0.1-1.63,0.17
	c-0.78,0.11-1.55,0.23-2.45,0.39c-0.14-0.08-0.2-0.49-0.08-0.55l0.45-0.16c0.69-0.24,0.77-0.37,0.57-1.79L49.68,16.68035z
	 M52.08,17.90035c0.05,0.41,0.07,0.44,0.9,0.32c0.93304-0.02444,1.66961-0.80063,1.64517-1.73367
	c-0.00306-0.11669-0.0182-0.23276-0.04517-0.34633c-0.03695-1.03764-0.90808-1.84885-1.94572-1.8119
	c-0.09543,0.0034-0.19047,0.01406-0.28428,0.0319c-0.75,0.11-0.74,0.23-0.64,0.93L52.08,17.90035z M52.59,21.55035
	c0.18,1.24,0.45,2,1.68,1.81s1.66-1.15,1.48-2.43c-0.05821-1.19151-1.07132-2.11024-2.26283-2.05202
	c-0.12701,0.0062-0.25322,0.02361-0.37717,0.05202c-0.87,0.12-0.87,0.13-0.78,0.77L52.59,21.55035z"/>
<path class="st0" d="M60,15.00035c-0.14-1.48-0.25-1.56-1-1.64h-0.4c-0.14912-0.13972-0.15673-0.37387-0.01702-0.52298
	c0.00549-0.00586,0.01116-0.01153,0.01702-0.01702c0.76,0,1.56-0.11,2.32-0.18s1.56-0.17,2.32-0.27
	c0.1388,0.14711,0.15942,0.3699,0.05,0.54l-0.37,0.1c-0.71,0.19-0.79,0.33-0.65,1.81l0.36,3.67c0.18,1.86,0.59,3.89,3,3.66
	c2-0.2,2.49-2,2.27-4.22l-0.23-1.93c-0.04664-0.9827-0.22489-1.9547-0.53-2.89c-0.17-0.32-0.53-0.38-1-0.42h-0.43
	c-0.1271-0.15142-0.15076-0.36438-0.06-0.54c0.86-0.05,1.49-0.09,2.14-0.15s1.17-0.14,1.77-0.23
	c0.12975,0.15027,0.1536,0.36491,0.06,0.54l-0.28,0.1c-0.41,0.13-0.7,0.26-0.81,0.6c-0.13036,0.97567-0.13036,1.96433,0,2.94
	l0.18,1.78c0.27422,1.34536,0.04279,2.74459-0.65,3.93c-0.76723,0.86325-1.8469,1.38509-3,1.45
	c-1.11576,0.18811-2.26217-0.02065-3.24-0.59c-0.89-0.6-1.35-1.74-1.52-3.47L60,15.00035z"/>
<path class="st0" d="M75.45,19.61035c0.1,1.5,0.2,1.6,0.94,1.68l0.45,0.05c0.13412,0.16258,0.13412,0.39742,0,0.56
	c-0.86,0-1.64,0.06-2.39,0.11s-1.56,0.11-2.42,0.2c-0.12334-0.16629-0.12334-0.39371,0-0.56l0.44-0.11
	c0.72-0.17,0.81-0.29,0.71-1.79l-0.37-5.86c-0.1-1.5-0.2-1.6-0.94-1.68l-0.45-0.05c-0.13029-0.16393-0.13029-0.39607,0-0.56
	c0.86,0,1.66-0.06,2.42-0.11s1.55-0.12,2.41-0.2c0.12671,0.16516,0.12671,0.39484,0,0.56l-0.44,0.1c-0.72,0.18-0.81,0.3-0.71,1.79
	L75.45,19.61035z"/>
<path class="st0" d="M82.16,19.00035c-0.04189,0.5249,0.07297,1.05042,0.33,1.51c0.21,0.26,0.51,0.38,1.67,0.34
	c1.45-0.06,1.9-0.12,2.77-2c0.17659-0.1504,0.44167-0.12917,0.59207,0.04742c0.00623,0.00732,0.01221,0.01485,0.01793,0.02258
	c-0.064,0.877-0.24563,1.74141-0.54,2.57c-0.85,0-2.38,0-3.69,0.08l-2.14,0.08c-0.73,0-1.53,0.07-2.52,0.14
	c-0.14-0.1-0.19-0.46-0.06-0.56l0.6-0.1c0.71-0.12,0.81-0.25,0.75-1.74l-0.21-5.93c-0.05-1.49-0.15-1.63-0.88-1.7h-0.46
	c-0.15464-0.13358-0.17171-0.36723-0.03813-0.52187c0.01176-0.01362,0.02451-0.02637,0.03813-0.03813c0.83,0,1.63,0,2.4,0
	s1.51999-0.2,2.31999-0.2c0.12334,0.16629,0.12334,0.39371,0,0.56l-0.41,0.08c-0.72,0.14-0.81,0.27-0.76,1.75L82.16,19.00035z"/>
<path class="st0" d="M90.1,13.43035c0-1.51,0-1.82-0.76-1.9h-0.3c-0.16-0.08-0.15-0.54,0-0.56c1.34-0.07,2.59-0.12,4.28-0.11
	c1.25869-0.02498,2.51269,0.16092,3.71,0.55c1.95245,0.68072,3.2604,2.52229,3.26001,4.59c0.06255,2.0213-1.0751,3.88862-2.9,4.76
	c-1.25932,0.54741-2.62885,0.79392-4,0.72c-0.75,0-1.55-0.1-2.12-0.11h-2.49c-0.13029-0.16393-0.13029-0.39607,0-0.56l0.49-0.07
	c0.72-0.11,0.82-0.24,0.83-1.7V13.43035z M92.35,18.51035c-0.09848,0.61454,0.0106,1.24437,0.31,1.79
	c0.35126,0.34028,0.83272,0.51171,1.32,0.47c2.76,0,3.72-2.43,3.73-4.6c0-2.88-1.48-4.6-4.37-4.61c-0.43,0-0.74,0.07-0.83,0.2
	c-0.1188,0.29115-0.16015,0.60812-0.12,0.92L92.35,18.51035z"/>
<path class="st0" d="M105.66,15.36035c0,0.44,0,0.48,0.42,0.5l1.1,0.06c0.83,0,1-0.06,1.23-0.82l0.1-0.39c0.12-0.12,0.52-0.1,0.59,0
	c-0.06,0.51-0.11,1.08-0.14,1.69s0,1.18,0,1.69c-0.17398,0.14426-0.42602,0.14426-0.6,0v-0.4c-0.12-0.77-0.31-0.91-1.14-1
	l-1.22,0.01c-0.43,0-0.44,0-0.47,0.48l-0.1,1.89c-0.08424,0.51595-0.02544,1.04512,0.17,1.53c0.19,0.3,0.49,0.44,1.65,0.51
	c1.39,0.07,1.93,0.05,2.91-1.7c0.16562-0.13771,0.41151-0.11508,0.54922,0.05054c0.0154,0.01852,0.02905,0.03843,0.04077,0.05946
	c-0.13495,0.85718-0.38732,1.69169-0.75,2.48c-0.85-0.08-2.38-0.18-3.68-0.25l-2.08-0.11c-0.76,0-1.54-0.07-2.74-0.1
	c-0.12-0.11-0.1-0.49,0-0.56l0.75-0.07c0.73-0.08,0.83-0.17,0.91-1.63l0.32-6c0.08-1.45,0-1.55-0.72-1.74l-0.4-0.1
	c-0.13046-0.16983-0.10401-0.41229,0.06-0.55c0.75,0.07,1.53,0.13,2.3,0.17l3.38,0.18c1,0.05,1.93,0.09,2.14,0.07
	c0,0.25,0.05,1.41,0.07,2.48c-0.07,0.17-0.44,0.18-0.59,0c-0.09887-0.45963-0.28195-0.897-0.54-1.29
	c-0.41242-0.39579-0.96895-0.6054-1.54-0.58l-1.27,0.08c-0.53,0-0.53,0-0.56,0.59L105.66,15.36035z"/>
<path class="st0" d="M114.43,14.34035c0.17-1.59,0.15-1.77-0.51-1.94l-0.42-0.1c-0.13155-0.14908-0.11734-0.37658,0.03174-0.50813
	c0.01797-0.01586,0.03749-0.02989,0.05826-0.04187c1.2,0,2.45,0.1,4,0.25c1.07584,0.0516,2.1243,0.35655,3.06,0.89
	c0.8273,0.5478,1.27588,1.51457,1.16,2.5c-0.12379,1.06517-0.8912,1.94391-1.93,2.21c-0.17,0.06-0.17,0.16-0.11,0.34
	c0.83,2.24,1.36,3.5,2,4.22c0.26933,0.28312,0.61787,0.4783,1,0.56c0.11434,0.11665,0.11434,0.30335,0,0.42
	c-0.42063,0.06763-0.84937,0.06763-1.27,0c-1.27751-0.04065-2.41424-0.8219-2.91-2c-0.39081-0.84003-0.72489-1.7053-1-2.59
	c-0.07217-0.3732-0.39989-0.6421-0.78-0.64c-0.56-0.06-0.59,0-0.62,0.29l-0.2,1.95c-0.15,1.46-0.07,1.58,0.63,1.78l0.42,0.13
	c0.11259,0.16605,0.11259,0.38395,0,0.55c-0.84-0.11-1.57-0.21-2.33-0.28s-1.5-0.14-2.33-0.19
	c-0.11372-0.17766-0.08878-0.41047,0.06-0.56h0.43c0.73-0.06,0.84-0.16,1-1.62L114.43,14.34035z M116.43,16.58035
	c-0.05,0.55,0,0.6,0.93,0.7c0.44351,0.08425,0.90153-0.033,1.25-0.32c0.4649-0.42864,0.73561-1.02782,0.75-1.66
	c0.25482-1.13712-0.46043-2.26551-1.59755-2.52033c-0.07997-0.01792-0.16093-0.03117-0.24245-0.03967c-0.65-0.07-0.69,0-0.77,0.74
	L116.43,16.58035z"/>
<path class="st0" d="M126.6,24.05035c-0.94271-0.11993-1.83838-0.48165-2.6-1.05c-0.26297-0.85249-0.30087-1.75853-0.11-2.63
	c0.13763-0.16569,0.38351-0.18843,0.5492-0.0508c0.01846,0.01534,0.03546,0.03234,0.0508,0.0508c0.16,1.08,1,2.69,2.34,2.9
	c0.85086,0.21716,1.71665-0.29656,1.93382-1.14742c0.01033-0.0405,0.01907-0.08139,0.02618-0.12258c0.19-1.27-0.89-2.22-1.76-2.83
	c-1.2511-0.68304-1.99522-2.02714-1.91-3.45c0.25-1.78,1.83-2.8,4.12-2.45c0.6093,0.09024,1.20219,0.26878,1.75999,0.53
	c0.16866,0.08109,0.34235,0.15123,0.52,0.21c0.09178,0.76551,0.07156,1.54031-0.06,2.3c-0.11,0.17-0.50999,0.13-0.63-0.05
	c-0.14-0.85-0.64-2.1-1.78-2.28c-0.79205-0.2019-1.59782,0.27651-1.79971,1.06856c-0.01273,0.04992-0.02283,0.10046-0.03029,0.15144
	c0.00121,0.82613,0.44352,1.58872,1.16,2l1,0.72c1.21768,0.72796,1.8979,2.10012,1.74001,3.51c-0.3,1.94-2.08,3-4.47,2.59"/>
<path class="st0" d="M42.84,92.64035c-0.26728,0.78708-0.49095,1.58829-0.67,2.4c-0.19645,0.13916-0.46827,0.0946-0.61-0.1
	c0.20277-1.40691-0.64408-2.7534-2-3.18c-1.66-0.61-4,0.16-5.06,3.14s0,5.22,1.84,5.88c1.4255,0.49895,3.00982,0.01272,3.91-1.2
	c0.23321-0.0527,0.46792,0.08203,0.54,0.31c-0.36048,0.78773-0.86207,1.50285-1.48,2.11c-1.10102-0.03282-2.19184-0.22136-3.24-0.56
	c-1.45181-0.47163-2.71832-1.38828-3.62-2.62c-0.88882-1.36532-1.05673-3.07806-0.45-4.59c0.51885-1.54784,1.72697-2.76704,3.27-3.3
	c1.52209-0.46969,3.15886-0.40619,4.64,0.18c1.02148,0.42599,2.005,0.93783,2.94,1.53"/>
<path class="st0" d="M53.23,99.88035c-0.64,3.42-3.32,5-6.7,4.4c-2.85577-0.35221-4.8853-2.9528-4.53308-5.80856
	c0.02371-0.19225,0.05812-0.38302,0.10308-0.57143c0.50999-2.99445,3.3509-5.0085,6.34535-4.4985
	c0.09873,0.01682,0.19698,0.03632,0.29465,0.0585c2.88873,0.35567,4.94217,2.98578,4.58649,5.87451
	C53.30391,99.51826,53.2717,99.70033,53.23,99.88035 M48.48,94.15034c-1.93-0.36-3.31,1.25-3.8,3.87c-0.36,1.91-0.27,5.11,2.29,5.6
	c2.05,0.39,3.23-1.47,3.71-4s-0.25-5.09-2.2-5.46"/>
<path class="st0" d="M63.67,103.33035c-0.1,1-0.21,2-0.23,2.56c-0.2804,0.22688-0.64351,0.32491-1,0.27c0,0-0.45-0.87-1.1-1.87
	l-3.19-4.92c-0.46596-0.76707-0.97338-1.50816-1.52-2.22c-0.12711,0.31799-0.19163,0.65755-0.19,1l-0.32,3.08
	c-0.15392,0.96917-0.17746,1.95458-0.07,2.93c0.11,0.35,0.46,0.5,0.87,0.61l0.44,0.11c0.08982,0.17919,0.06635,0.39439-0.06,0.55
	c-0.86-0.12-1.49-0.2-2.12-0.27s-1.18-0.11-1.79-0.14c-0.09531-0.17817-0.07149-0.39658,0.06-0.55h0.27c0.44,0,0.77-0.12,0.93-0.44
	c0.30423-0.93209,0.48248-1.90067,0.53-2.88l0.43-4c0.08322-0.45287,0.08322-0.91713,0-1.37c-0.1-0.28-0.3-0.49-0.85-0.63
	l-0.39-0.15c-0.1-0.14,0-0.52,0.12-0.55c0.75,0.11,1.54,0.21,2.19,0.28c0.44478,0.05347,0.89206,0.0835,1.34,0.09
	c0.08,0.73,1,2.05,2.24,3.9l1.17,1.71c0.61,0.9,1,1.51,1.34,1.91c0.08433-0.22765,0.1316-0.46737,0.14-0.71l0.23-2.19
	c0.14721-0.96991,0.16739-1.95487,0.06-2.93c-0.1-0.35-0.44-0.5-0.86-0.61l-0.42-0.11c-0.11259-0.16605-0.11259-0.38396,0-0.55
	c0.86,0.12,1.48,0.2,2.13,0.27c0.65,0.07,1.16,0.11,1.78,0.14c0.09423,0.18179,0.0706,0.4023-0.06,0.56h-0.29
	c-0.36059-0.02872-0.70858,0.13954-0.91,0.44c-0.30807,0.93192-0.49297,1.90013-0.55,2.88L63.67,103.33035z"/>
<path class="st0" d="M70,97.10035c0-0.38,0-0.46-0.36-0.48l-1-0.06c-1.16-0.07-1.53,0.55-2.08,1.69
	c-0.21078,0.09916-0.46239,0.02107-0.58-0.18c0.29018-0.87601,0.51743-1.77161,0.68-2.68c0.06949-0.04247,0.14864-0.06656,0.23-0.07
	c0.07944,0.00528,0.15573,0.03302,0.22,0.08c0.06,0.28,0.11,0.34,1.32,0.41l5.93,0.34c1.05,0.06,1.29,0.06,1.46-0.27
	c0.06887-0.01778,0.14113-0.01778,0.21,0c0.09017,0.00574,0.17371,0.04932,0.23,0.12c-0.24357,0.89041-0.37788,1.80714-0.4,2.73
	c-0.09,0.14-0.52,0.15-0.59,0c-0.21-1-0.39-1.8-1.59-1.87h-1c-0.38,0-0.43,0-0.45,0.43l-0.41,7c-0.08,1.49,0,1.62,0.72,1.76
	l0.63,0.11c0.11433,0.16916,0.11433,0.39084,0,0.56c-1-0.09-1.83-0.15-2.55-0.19s-1.59-0.08-2.71-0.11
	c-0.13029-0.16393-0.13029-0.39606,0-0.56h0.72c0.72,0,0.83-0.18,0.91-1.66L70,97.10035z"/>
<path class="st0" d="M78.07,98.89035c0-1.6,0-1.77-0.66-1.89l-0.41-0.07c-0.15464-0.12497-0.17869-0.35164-0.05373-0.50627
	c0.01597-0.01975,0.03397-0.03777,0.05373-0.05373c1.2-0.05,2.44-0.08,4-0.05c1.07661-0.03127,2.14545,0.19141,3.12,0.65
	c0.86462,0.48338,1.38589,1.41009,1.35,2.4c-0.0388,1.07071-0.73531,2.00602-1.75,2.35c-0.17,0.08-0.17,0.18-0.09,0.35
	c1,2.17,1.63,3.38,2.38,4.05c0.29795,0.26152,0.6669,0.4286,1.06,0.48c0.10796,0.11535,0.10796,0.29465,0,0.41
	c-0.41013,0.1113-0.83624,0.15188-1.26,0.12c-1.27341,0.06092-2.46677-0.62156-3.06-1.75
	c-0.45338-0.80859-0.85097-1.64721-1.19-2.51c-0.10684-0.36375-0.45169-0.60473-0.83-0.58c-0.56,0-0.59,0-0.6,0.34v2
	c0,1.47,0.06,1.59,0.78,1.73l0.43,0.09c0.11433,0.16916,0.11433,0.39084,0,0.56c-0.84,0-1.58-0.09-2.34-0.1s-1.5,0-2.34,0
	c-0.12671-0.16516-0.12671-0.39484,0-0.56l0.43-0.07c0.72-0.11,0.82-0.22,0.86-1.69L78.07,98.89035z M80.21,101.00035
	c0,0.56,0,0.61,1,0.63c0.45189,0.04836,0.90206-0.10536,1.23-0.42c0.41485-0.48009,0.61695-1.10806,0.56-1.74
	c0.16671-1.15334-0.63311-2.22344-1.78645-2.39015c-0.0708-0.01023-0.14208-0.01686-0.21355-0.01985c-0.65,0-0.69,0-0.71,0.8
	L80.21,101.00035z"/>
<path class="st0" d="M107.36,96.47035c0.03832,0.83102,0.12514,1.6591,0.26,2.48c-0.12664,0.2009-0.39216,0.2611-0.59306,0.13447
	c-0.00233-0.00147-0.00465-0.00296-0.00694-0.00447c-0.34747-1.38552-1.64631-2.31628-3.07-2.2c-1.77,0.05-3.63,1.62-3.54,4.79
	s2,4.84,3.88,4.79c1.5107-0.06752,2.80254-1.10828,3.19-2.57c0.19877-0.12861,0.4627-0.08534,0.61,0.1
	c-0.02085,0.86637-0.20402,1.72115-0.54,2.52c-1.0363,0.37597-2.12017,0.60486-3.22,0.68c-1.52289,0.09553-3.03736-0.28921-4.33-1.1
	c-1.33762-0.93278-2.13632-2.45927-2.14-4.09c-0.09283-1.63223,0.58002-3.21453,1.82-4.28
	c1.24095-1.00026,2.78611-1.54707,4.38-1.55c1.10732,0.01705,2.21124,0.12744,3.3,0.33"/>
<path class="st0" d="M112.46,97.20035c0-0.38,0-0.46-0.41-0.44l-1,0.07c-1.16,0.09-1.45,0.74-1.85,1.94
	c-0.19566,0.12735-0.45621,0.08392-0.6-0.1c0.17806-0.90413,0.29168-1.81977,0.34-2.74c0.05656-0.0563,0.13065-0.09158,0.21-0.1
	c0.07383-0.0295,0.15617-0.0295,0.23,0c0.1,0.26,0.15,0.32,1.36,0.24l5.93-0.42c1-0.08,1.29-0.11,1.41-0.45
	c0.05916-0.04089,0.12825-0.06507,0.2-0.07c0.09313-0.00026,0.18274,0.03558,0.25,0.1c-0.12576,0.91143-0.14255,1.83459-0.05,2.75
	c-0.07,0.15-0.49,0.22-0.58,0.09c-0.35-1-0.62-1.73-1.82-1.64l-1,0.06c-0.38,0-0.43,0.08-0.4,0.5l0.5,7c0.1,1.48,0.21,1.6,0.93,1.65
	h0.64c0.11433,0.16916,0.11433,0.39084,0,0.56c-1,0-1.83,0.08-2.55,0.13s-1.59,0.13-2.7,0.24
	c-0.13029-0.16393-0.13029-0.39606,0-0.56l0.71-0.13c0.71-0.13,0.8-0.28,0.69-1.76L112.46,97.20035z"/>
<path class="st0" d="M130.23,99.20035c0.45,3.45-1.59,5.83-5,6.27c-2.82304,0.55665-5.56283-1.28063-6.11948-4.10368
	c-0.03755-0.19046-0.06443-0.38287-0.08051-0.57632c-0.45481-3.00333,1.61116-5.8067,4.61449-6.26151
	c0.10477-0.01587,0.20999-0.0287,0.31551-0.03849c2.86868-0.5535,5.64291,1.32332,6.1964,4.19199
	C130.18945,98.85368,130.21402,99.02657,130.23,99.20035 M123.92999,95.20034c-2,0.25-2.76,2.21-2.41,4.85
	c0.25,1.93,1.34,5,3.92,4.61c2.07-0.27,2.61-2.4,2.28-5s-1.83-4.75-3.79-4.49"/>
<path class="st0" d="M131.50999,96.29035c-0.37-1.55-0.44-1.71-1.12-1.65h-0.42999c-0.17,0-0.27-0.43-0.10001-0.55
	c1.14999-0.36,2.34-0.71,3.82001-1.07c1.03218-0.30421,2.12126-0.36243,3.17999-0.17c0.96657,0.24686,1.70787,1.02309,1.91,2
	c0.24635,1.04631-0.18451,2.13541-1.08,2.73c-0.14,0.11-0.12,0.2,0,0.36c1.53,1.83,2.44,2.84,3.34,3.3
	c0.35596,0.17611,0.7563,0.24225,1.14999,0.19c0.14352,0.07154,0.21193,0.23827,0.16,0.39c-0.37695,0.20095-0.7812,0.34581-1.2,0.43
	c-1.21371,0.38971-2.5432,0.03387-3.39999-0.91c-0.62932-0.65762-1.21082-1.35941-1.74001-2.10001
	c-0.20311-0.34525-0.62592-0.49324-1-0.35c-0.53999,0.13-0.56,0.17-0.49001,0.48l0.46001,1.91c0.34,1.43,0.46001,1.51,1.19,1.47
	h0.44c0.15102,0.13569,0.20273,0.35045,0.13,0.54c-0.83,0.17-1.55,0.32-2.28999,0.5s-1.46001,0.37-2.25999,0.6
	c-0.14999-0.07-0.24001-0.44-0.13-0.55l0.39999-0.18c0.67-0.29,0.74001-0.42,0.39-1.85L131.50999,96.29035z M134.11,97.75035
	c0.13,0.55,0.19,0.58,1.11,0.36c0.44745-0.06521,0.84106-0.33008,1.07001-0.72c0.29836-0.55614,0.35617-1.21014,0.16-1.81
	c-0.13332-1.15767-1.17987-1.98807-2.33754-1.85475c-0.08498,0.00979-0.1693,0.02473-0.25246,0.04475
	c-0.63,0.16-0.64999,0.21-0.47,1L134.11,97.75035z"/>
<path class="st0" d="M145.86,100.61035c-0.84775,0.4145-1.78789,0.6039-2.73,0.55c-0.68182-0.57716-1.20213-1.32143-1.51001-2.16
	c0.03162-0.20747,0.22543-0.35004,0.43291-0.31842c0.03349,0.0051,0.06615,0.01466,0.09709,0.02842
	c0.71001,0.82,2.28999,1.72,3.53,1.17c0.83009-0.28646,1.2708-1.1916,0.98434-2.0217
	c-0.0186-0.05389-0.04008-0.10673-0.06435-0.1583c-0.53-1.18-1.95-1.38-3-1.43c-1.42059,0.09843-2.77106-0.62933-3.47-1.87
	c-0.75-1.64,0-3.35,2.14999-4.29c0.56088-0.24886,1.15295-0.42043,1.75999-0.51c0.18605-0.01614,0.37018-0.04962,0.55-0.1
	c0.49699,0.60162,0.89836,1.27619,1.19,2c0,0.21-0.35001,0.38-0.55,0.3c-0.57001-0.64-1.67999-1.43-2.73-1
	c-0.77435,0.2617-1.18994,1.10159-0.92825,1.87594c0.01422,0.04206,0.03032,0.08345,0.04825,0.12406
	c0.45113,0.70001,1.23778,1.11044,2.07001,1.08l1.19,0.08c1.41275-0.04008,2.72166,0.73904,3.36,2c0.8,1.8-0.14999,3.62-2.36,4.6"/>
<polygon class="st0" points="44.51,126.08035 49.14,126.08035 49.14,127.66035 46.11,127.66035 46.11,129.20035 49.14,129.20035 
	49.14,130.75035 46.11,130.75035 46.11,132.98035 49.14,132.98035 49.14,134.57036 44.51,134.57036 "/>
<path class="st0" d="M54.32,129.17035l-1,1c-0.26977-0.32941-0.65706-0.54099-1.08-0.59c-0.14628-0.00734-0.29076,0.03494-0.41,0.12
	c-0.09459,0.06155-0.15117,0.16716-0.15,0.28c0.00065,0.08708,0.03676,0.17014,0.1,0.23
	c0.1353,0.12268,0.29097,0.22083,0.46,0.28999l0.58,0.28999c0.48331,0.20393,0.91161,0.51915,1.25,0.92
	c0.54271,0.7814,0.42758,1.84308-0.27,2.49001c-0.45894,0.3894-1.04885,0.58961-1.65,0.56
	c-0.8522,0.00185-1.65287-0.40779-2.14999-1.09998l1-1.06c0.1778,0.21701,0.39926,0.39418,0.65,0.52
	c0.19935,0.12186,0.42654,0.1907,0.66,0.2c0.17895,0.00891,0.35551-0.04405,0.5-0.14999c0.11523-0.07535,0.18622-0.20238,0.19-0.34
	c0-0.25-0.23-0.48-0.69-0.71001l-0.53-0.27c-1-0.50999-1.52-1.14999-1.52-1.92c-0.00525-0.4864,0.2031-0.95062,0.57-1.27
	c0.40464-0.35739,0.93039-0.54695,1.47-0.53c0.39927-0.002,0.79334,0.09052,1.15,0.27c0.36209,0.18205,0.67702,0.44563,0.92,0.77"/>
<polygon class="st0" points="55.87,125.98035 57.44,125.98035 57.44,128.29034 58.38,128.29034 58.38,129.65034 57.44,129.65034 
	57.44,134.57036 55.87,134.57036 55.87,129.65034 55.06,129.65034 55.06,128.29034 55.87,128.29034 "/>
<path class="st0" d="M63.85,128.29034h1.58v6.28h-1.58v-0.66c-0.26676,0.26305-0.57831,0.47638-0.92,0.63
	c-0.31749,0.12886-0.65738,0.19344-1,0.19c-0.8029,0.00462-1.56859-0.33812-2.1-0.94c-0.59498-0.63531-0.91486-1.47995-0.89-2.35001
	c-0.03234-0.87477,0.27596-1.72797,0.86-2.38c0.52465-0.59834,1.28426-0.93797,2.08-0.92999
	c0.36395-0.00298,0.72467,0.06848,1.06,0.21001c0.34496,0.15663,0.65712,0.37718,0.92,0.64999L63.85,128.29034z M62.2,129.58034
	c-0.46224-0.00868-0.90616,0.18053-1.22,0.52c-0.32606,0.36453-0.49811,0.84126-0.48,1.33c-0.01971,0.4908,0.15658,0.9693,0.49,1.33
	c0.63788,0.67378,1.7012,0.7029,2.37499,0.065c0.02226-0.02107,0.04394-0.04274,0.06501-0.065
	c0.33847-0.36566,0.51513-0.85239,0.49-1.35001c0.0231-0.49133-0.15366-0.9711-0.49-1.33
	c-0.3187-0.33734-0.76609-0.52284-1.23-0.50999"/>
<path class="st0" d="M68.58,125.87035v3.13c0.26796-0.27135,0.5831-0.49161,0.93-0.64999
	c0.33533-0.14153,0.69604-0.21298,1.06-0.21001c0.79866-0.00822,1.56144,0.33119,2.09,0.92999
	c0.58405,0.65204,0.89234,1.50523,0.86,2.38c0.02486,0.87006-0.29502,1.71469-0.89,2.35001
	c-0.53529,0.60237-1.30417,0.9449-2.11,0.94c-0.34262,0.00343-0.68252-0.06114-1-0.19c-0.34483-0.15334-0.65971-0.36665-0.93-0.63
	v0.66H67v-8.7L68.58,125.87035z M70.24001,129.58035c-0.46689-0.01317-0.91748,0.17215-1.24,0.50999
	c-0.33247,0.36128-0.50861,0.83937-0.49,1.33c-0.01958,0.49678,0.15633,0.98145,0.49,1.35001
	c0.31848,0.34479,0.77085,0.53448,1.24,0.52c0.46084,0.00584,0.90182-0.1873,1.21-0.53c0.67509-0.75816,0.67509-1.90184,0-2.66
	c-0.31384-0.33948-0.75777-0.52869-1.22-0.52"/>
<rect x="74.65" y="125.87035" class="st0" width="1.57" height="8.7"/>
<path class="st0" d="M78.27,125.71035c0.55188-0.0211,1.01637,0.40919,1.03746,0.96107
	c0.01129,0.29527-0.10859,0.58041-0.32746,0.77892c-0.18056,0.19427-0.43479,0.30324-0.7,0.3
	c-0.27071,0.00158-0.5305-0.10667-0.72-0.3c-0.18899-0.19971-0.29297-0.46506-0.29-0.74c-0.00153-0.2658,0.10281-0.52128,0.29-0.71
	C77.74872,125.81316,78.0042,125.70882,78.27,125.71035 M77.48,128.29034h1.57v6.28H77.48L77.48,128.29034z"/>
<path class="st0" d="M84.33,129.17035l-1,1c-0.26736-0.32715-0.65065-0.5385-1.07-0.59c-0.14956-0.00883-0.29768,0.03349-0.42,0.12
	c-0.09459,0.06155-0.15116,0.16716-0.15,0.28c0.00065,0.08708,0.03676,0.17014,0.1,0.23
	c0.13949,0.12209,0.29832,0.22008,0.47,0.28999l0.57,0.28999c0.48331,0.20393,0.91161,0.51915,1.25,0.92
	c0.55647,0.77785,0.44026,1.8495-0.27,2.49001c-0.45894,0.3894-1.04884,0.58961-1.65,0.56
	c-0.85572,0.00508-1.66083-0.40491-2.16-1.09998l1-1.06c0.1778,0.21701,0.39926,0.39418,0.65,0.52
	c0.19935,0.12186,0.42654,0.1907,0.66,0.2c0.17915,0.0106,0.35627-0.04253,0.5-0.14999c0.11523-0.07535,0.18622-0.20238,0.19-0.34
	c0-0.25-0.23-0.48-0.68-0.71001l-0.54-0.27c-1-0.50999-1.52-1.14999-1.52-1.92c-0.00525-0.4864,0.2031-0.95062,0.57-1.27
	c0.40464-0.35739,0.93039-0.54695,1.47-0.53c0.39927-0.002,0.79334,0.09052,1.15,0.27c0.36209,0.18205,0.67702,0.44563,0.92,0.77"/>
<path class="st0" d="M85.59,125.87035h1.56v3.06001c0.27601-0.24834,0.58998-0.4509,0.93-0.60001
	c0.31561-0.13606,0.65633-0.20421,1-0.2c0.59107-0.01172,1.16019,0.22391,1.57,0.64999c0.39652,0.45039,0.59479,1.0416,0.55,1.64
	v4.14999h-1.6v-2.75c0.01867-0.4959-0.01823-0.99231-0.11-1.48c-0.04563-0.22816-0.1694-0.43327-0.35-0.58
	c-0.18175-0.12654-0.39856-0.19299-0.62-0.19c-0.30457-0.00414-0.59874,0.11067-0.82,0.32001
	c-0.24406,0.23497-0.41138,0.53824-0.48,0.87c-0.06477,0.42674-0.08821,0.85875-0.07,1.28999v2.52h-1.56V125.87035z"/>
<path class="st0" d="M98.93,131.89035h-5.06c0.0561,0.41273,0.26265,0.79021,0.58,1.06c0.34713,0.27237,0.779,0.41396,1.22,0.39999
	c0.56937,0.00584,1.11715-0.21759,1.52-0.62l1.32,0.62c-0.30193,0.4321-0.71237,0.77701-1.19,1
	c-0.51281,0.23927-1.07433,0.35568-1.64,0.34c-0.89693,0.03389-1.76835-0.30238-2.41-0.92999
	c-0.61456-0.61676-0.94742-1.45976-0.92-2.33c-0.0322-0.88881,0.30016-1.75218,0.92-2.39c0.59776-0.64552,1.44026-1.00867,2.32-1
	c0.90845-0.02167,1.78376,0.34154,2.41,1c0.63715,0.67618,0.97273,1.58191,0.93,2.50999V131.89035z M97.35,130.65034
	c-0.10033-0.34735-0.31534-0.65048-0.61-0.86c-0.31219-0.2216-0.68722-0.33727-1.07-0.33
	c-0.41338-0.00507-0.81713,0.12483-1.15,0.37c-0.25994,0.21954-0.45956,0.50179-0.58,0.82001H97.35z"/>
<path class="st0" d="M104.87,125.87035h1.58v8.7h-1.58v-0.66c-0.26676,0.26305-0.57831,0.47638-0.92,0.63
	c-0.31748,0.12886-0.65738,0.19344-1,0.19c-0.8029,0.00462-1.56859-0.33812-2.1-0.94c-0.59498-0.63531-0.91486-1.47995-0.89-2.35001
	c-0.03234-0.87477,0.27596-1.72797,0.86-2.38c0.79163-0.88277,2.05347-1.17118,3.15-0.72
	c0.34068,0.15892,0.64917,0.37927,0.91,0.64999L104.87,125.87035z M103.22,129.58035c-0.46223-0.00868-0.90617,0.18053-1.22,0.52
	c-0.32606,0.36453-0.49811,0.84126-0.48,1.33c-0.01971,0.4908,0.15658,0.9693,0.49,1.33
	c0.63788,0.67378,1.7012,0.7029,2.37499,0.06502c0.02225-0.02107,0.04394-0.04276,0.06501-0.06502
	c0.33847-0.36566,0.51513-0.85239,0.49-1.35001c0.0231-0.49133-0.15365-0.9711-0.49-1.33
	c-0.3187-0.33734-0.7661-0.52284-1.23-0.50999"/>
<polygon class="st0" points="112.6,126.08035 115.02,126.08035 115.02,134.57036 113.41,134.57036 113.41,127.60035 
	111.66,127.60035 "/>
<path class="st0" d="M120.89,130.00035c0.37659,0.231,0.68402,0.55916,0.89,0.95c0.46013,0.80916,0.46013,1.80084,0,2.61
	c-0.2314,0.40663-0.57985,0.73418-1,0.94c-0.49508,0.22578-1.03632,0.33197-1.58,0.31c-0.55901,0.0242-1.11624-0.07837-1.63-0.3
	c-0.41768-0.19998-0.76596-0.5204-1-0.92c-0.24373-0.42215-0.36816-0.9026-0.36-1.39c-0.00724-0.42456,0.09248-0.84412,0.29-1.22
	c0.2077-0.39687,0.50569-0.7394,0.87-1c-0.23615-0.23819-0.42902-0.51567-0.57-0.82001c-0.12794-0.28969-0.19271-0.60332-0.19-0.92
	c-0.00937-0.42542,0.10155-0.84483,0.32-1.21c0.2102-0.36189,0.51884-0.65665,0.89-0.85c0.41595-0.20658,0.87568-0.30951,1.34-0.3
	c0.45156-0.0099,0.89844,0.09323,1.3,0.3c0.37314,0.2033,0.68417,0.50397,0.9,0.87c0.20921,0.369,0.31944,0.78582,0.32,1.21
	c0.00666,0.28917-0.05142,0.57617-0.17,0.84c-0.15772,0.32494-0.36711,0.62212-0.62,0.88 M119.17,130.84035
	c-0.36786-0.01721-0.72752,0.11227-1,0.36c-0.25565,0.2034-0.40324,0.51332-0.4,0.84c-0.0058,0.32938,0.12873,0.64569,0.37,0.87
	c0.27131,0.24968,0.63181,0.37946,1,0.36c0.36479,0.02051,0.7233-0.10138,1-0.34c0.24604-0.21242,0.38219-0.52518,0.37-0.85001
	c0.00612-0.3344-0.13239-0.65517-0.38-0.88c-0.26817-0.25482-0.63095-0.38542-1-0.36 M119.06001,127.44033
	c-0.24396-0.01073-0.48074,0.08399-0.65,0.26c-0.34958,0.38211-0.34958,0.9679,0,1.35001c0.17337,0.18434,0.41702,0.28616,0.67,0.28
	c0.25446,0.00909,0.50109-0.08884,0.68-0.27c0.17381-0.19101,0.26697-0.44185,0.26-0.7c0.01135-0.25191-0.08715-0.49635-0.27-0.67
	c-0.19254-0.17017-0.44321-0.2597-0.7-0.25"/>
<path class="st0" d="M124.87,126.08035H128.87v1.5h-2.77l-0.35,1.53999l0.29-0.06c0.0864-0.00958,0.1736-0.00958,0.26,0
	c0.72089-0.01976,1.41714,0.26309,1.92,0.78c0.5127,0.53757,0.78983,1.25742,0.77,2c0.01624,0.78394-0.29123,1.53992-0.85001,2.09
	c-0.53809,0.5582-1.28484,0.86633-2.06,0.85001c-1.40068,0.05275-2.62749-0.93126-2.88-2.31h1.69
	c0.11479,0.24673,0.29454,0.4576,0.52,0.61c0.51612,0.32416,1.18762,0.24956,1.62-0.17999c0.25331-0.2697,0.38676-0.63039,0.37-1
	c0.02686-0.36742-0.09987-0.72952-0.35-1c-0.21085-0.24356-0.51786-0.38245-0.84-0.38c-0.1815-0.00105-0.36034,0.04366-0.52,0.13
	c-0.19062,0.10472-0.36288,0.23982-0.51,0.39999l-1.31-0.28999L124.87,126.08035z"/>
<path class="st0" d="M132.45,134.79034l-1.38-0.67l1.44-2.91c-0.69044,0.02495-1.35909-0.24396-1.84-0.74001
	c-0.51395-0.50151-0.79953-1.19197-0.78999-1.91c0.05823-1.47345,1.29991-2.62071,2.77336-2.56248
	c1.35345,0.05349,2.45242,1.11197,2.55664,2.46247c-0.00134,0.26706-0.03833,0.53273-0.11,0.78999
	c-0.14166,0.42421-0.31897,0.83568-0.53,1.23L132.45,134.79034z M132.58,129.68034c0.28723-0.00037,0.56042-0.12421,0.75-0.34
	c0.20055-0.22131,0.308-0.51144,0.3-0.81c0.00034-0.31064-0.12183-0.60887-0.34-0.83c-0.19318-0.20838-0.4659-0.32473-0.75-0.32
	c-0.29419-0.00547-0.57585,0.1189-0.77,0.34c-0.20815,0.22533-0.31946,0.52338-0.31,0.82999
	c-0.00827,0.30724,0.11122,0.60414,0.33,0.82001C131.99426,129.58583,132.28371,129.69942,132.58,129.68034"/>
<path class="st0" d="M91.83,103.32035c-0.38,0-0.43,0-0.53,0.32l-0.62,1.84c-0.07068,0.18223-0.11121,0.37475-0.12,0.57
	c0,0.1,0.12,0.19,0.57,0.28l0.48,0.09c0.09,0.11,0.12,0.48,0,0.56c-0.56,0-1.2,0-1.87-0.08s-0.91,0-1.64,0
	c-0.18-0.1-0.16-0.43,0-0.56h0.43c0.46585-0.01936,0.8678-0.33289,1-0.78c0.28-0.64,0.58-1.4,1-2.54L92,99.12035
	c0.38-1,0.59-1.52,0.73-2c0.44-1.28,1.3-1,1.33-1c0.16921,0.03993,0.30553,0.16489,0.36,0.33c0.16,0.45,0.3,1,0.68,2.2l2.03999,6.35
	c0.32,1,0.46,1.33,1,1.43l0.6,0.11c0.12017,0.16733,0.12017,0.39267,0,0.56c-0.77,0-1.63-0.08-2.46-0.09s-1.42,0-2.16,0
	c-0.15464-0.12497-0.17869-0.35164-0.05373-0.50627c0.01597-0.01975,0.03397-0.03777,0.05373-0.05373l0.51-0.08
	c0.37,0,0.44-0.16,0.44-0.26c-0.06895-0.37015-0.16589-0.73453-0.29-1.09l-0.41-1.38c-0.07-0.26-0.2-0.29-0.76-0.3L91.83,103.32035z
	 M93.55,102.50035c0.37,0,0.45,0,0.33-0.45l-0.4-1.3c-0.21-0.69-0.41-1.35-0.54-1.69c-0.26077,0.57072-0.4911,1.15488-0.69,1.75
	l-0.41,1.19c-0.16,0.43-0.08,0.48,0.32,0.48L93.55,102.50035z"/>
<path class="st0" d="M99.07001,55.06038c-4.28998-3.92004-8.54999-7.57001-8.54999-11.67999v-0.08002
	c0.01001-3.52002,2.44995-5.08002,5.34998-5.08002c3.89673-0.04333,7.33905,2.53021,8.40002,6.28003
	c0.02997,0.14996,0.35999,0.26996,0.35999-0.07001c0,0,0-2.76001,0-5.20001c0-1.29999,0-2.57001,0-3.57001
	c0-0.48999,0-0.89001,0-1.17999c0-0.14001,0-0.67999-0.13-0.69s-0.22998-0.01001-0.22998,0.37
	c-0.00519,0.27832-0.06287,0.5531-0.17004,0.81c-0.13995,0.32001-0.44995,0.72003-0.66998,0.57001
	c-2.70349-1.66589-5.82465-2.52942-9-2.48999c-2.79547-0.10516-5.53888,0.77631-7.75,2.48999
	c-2.14996,1.79999-3.57001,4.71997-3.57001,9.12v0.41998c0.14001,5.66003,4.46002,9.66003,8.73999,13.37
	c4.28003,3.71002,8.43005,7,8.43005,11v0.20001c-0.10004,4.20001-2.82001,5.69-6.18005,5.69
	c-4.65997,0.02002-10.35999-3-11.25-5.73999c-0.12-0.28003-0.34998-0.25-0.34998,0v11.15997
	c0,0.01001,0.01001,0.24005,0.14001,0.24005l-0.03003,0.00995c0.17004,0,0.17004-0.09998,0.17004-0.09998
	c0.5744-0.85065,1.49066-1.40918,2.50995-1.52997c0.34332-0.00031,0.68323,0.06769,1,0.19995
	c2.49731,0.78613,5.10199,1.17755,7.72003,1.16003c6.17999,0.02002,13.62-2.31,13.67999-12.06v-0.14001
	C107.67999,63.17036,103.35999,58.98036,99.07001,55.06038z M104.97003,69.30037c0.08246,2.78662-1.20203,5.43768-3.44,7.09998
	c-2.26068,1.51288-4.94177,2.2724-7.66003,2.16998c-3.25537-0.02899-6.45789-0.79315-9.38025-2.2193v-1.43872l0.17023,0.08807
	c2.84119,1.4621,5.98486,2.23944,9.18005,2.26996c2.44098,0.09692,4.85089-0.57458,6.88995-1.91998
	c1.91278-1.41425,3.0022-3.68298,2.91003-6.06v-0.04999c0-3.69-2.23004-6.48004-5.22003-9.17999
	c-2.98999-2.70001-6.63-5.19-9.16998-8.36005c-1.81061-2.1001-2.84497-4.75842-2.92999-7.52997
	c-0.00476-0.06659-0.00476-0.13342,0-0.20001c-0.1427-2.59991,0.89746-5.12494,2.83002-6.87
	c1.77173-1.41284,3.98456-2.15637,6.25-2.09998c2.61011-0.00275,5.15814,0.7804,7.3197,2.23993v1.59711l-0.64972-0.47705
	c-1.96521-1.34253-4.28998-2.06055-6.66998-2.06C93.44598,36.24654,91.53497,36.88002,90,38.09035
	c-1.65778,1.50073-2.5351,3.67926-2.38,5.91003v0.16998c0.06,3.89001,2.38,6.83002,5.38,9.54999
	c3,2.72003,6.64001,5.21002,9.15002,8.28003c1.76923,2.00226,2.7688,4.56848,2.82001,7.23999V69.30037z"/>
<path class="st0" d="M128.16998,34.50038c0,0,0.35004-0.10004,0.34003-0.22003s-0.41998-0.12-0.41998-0.12h-15.32001
	c-0.52002,0-0.34003,0.20001-0.08002,0.34003c0.26001,0.13995,4.15997,1.56995,4.48999,5.21997v35.84998
	c-0.26996,3.68005-2.39996,4.20001-4.64001,5.20001c0,0-0.29987,0.11993-0.29999,0.22998
	c0.00012,0.12006,0.57001,0.12006,0.57001,0.12006h15.21002c0,0,0.35999,0,0.35999-0.13s-0.21002-0.21002-0.21002-0.21002
	c-2.17999-0.98999-4.31-1.52997-4.64996-5.21997V39.71034C123.85999,36.04036,125.98999,35.50038,128.16998,34.50038z
	 M119.78003,79.40956V36.22011h1.29999v43.18945H119.78003z"/>
</svg>
