<svg xmlns="http://www.w3.org/2000/svg" xmlns:xlink="http://www.w3.org/1999/xlink" width="249" height="79" viewBox="0 0 249 79">
                            <defs>
                                <path id="a" d="M1 0h246.154v79.165H1z"></path>
                            </defs>
                            <g fill="none" fill-rule="evenodd">
                                <mask id="b" fill="#fff">
                                    <use xlink:href="#a"></use>
                                </mask>
                                <path fill="#FFF" d="M152.776 36.161v-6.948c0-1.093.122-1.701.534-2.163.364-.387.97-.632 1.677-.632.704 0 1.31.245 1.676.632.413.462.533 1.07.533 2.163v6.948h2.843v-7.36c0-1.775-.365-2.893-1.191-3.718-.753-.754-1.822-1.191-3.085-1.191-1.603 0-2.915.68-3.74 1.725-.754-1.19-2.09-1.725-3.425-1.725-1.435 0-2.576.583-3.329 1.434l-.363-.875c-.099-.218-.195-.29-.512-.29h-3.132v1.48c0 .267.072.315.267.39l1.141.387v9.743h2.842v-6.948c0-1.093.122-1.701.535-2.163.364-.387.972-.632 1.676-.632s1.312.245 1.676.632c.413.462.534 1.07.534 2.163v6.948h2.843zM141.158 49.38c.193-1.774 1.068-2.892 2.72-2.892 1.53 0 2.552 1.094 2.622 2.892h-5.342zm2.694-5.248c-3.692 0-5.659 2.671-5.659 6.292 0 1.85.534 3.523 1.674 4.641 1.021.997 2.602 1.605 4.742 1.605 1.163 0 2.696-.22 3.643-.511.145-.048.218-.097.218-.317v-1.846c-.828.17-2.212.367-3.28.367-2.454 0-3.813-1.048-4.032-2.846h7.7c.22 0 .34-.046.39-.243.072-.267.097-.63.097-1.07 0-3.594-1.848-6.072-5.493-6.072zm14.48.121c-.195-.072-.583-.122-.874-.122-1.166 0-2.187.606-2.866 1.626l-.366-1.068c-.073-.217-.193-.291-.509-.291h-3.134v1.483c0 .267.073.315.266.39l1.143.387v7.581l-1.216.365c-.217.073-.267.17-.267.365V56.4h6.754v-1.867c0-.197-.048-.27-.29-.27h-2.14V50.06c0-1.337.147-2.117.609-2.6.414-.438 1.019-.633 2.259-.633h.995v-2.065c0-.291-.096-.412-.363-.51zm-26.53-.12c-1.286 0-2.428.485-3.205 1.188v-5.15c0-.29-.072-.366-.412-.366h-3.84v1.484c0 .267.073.315.269.388l1.141.389V56.4h2.842v-6.876c0-1.117.146-1.774.606-2.235.414-.412 1.094-.632 1.872-.632s1.459.22 1.87.632c.462.461.608 1.118.608 2.235V56.4h2.845v-7.24c0-1.942-.415-2.939-1.167-3.742-.827-.85-2.091-1.286-3.43-1.286zm-11.369 9.84c-.29-.292-.362-.705-.362-1.361v-5.954h3.06c.218 0 .316-.073.316-.267v-1.993h-3.376v-2.649h-2.359c-.363 0-.485.12-.485.487v10.522c0 1.431.292 2.38.925 3.014.606.605 1.505.897 2.744.897.85 0 1.87-.172 2.503-.39.17-.047.243-.12.243-.314v-1.75c-.608.098-1.387.17-1.896.17-.632 0-1.068-.17-1.313-.413zm46.65-9.84c-1.46 0-2.673.558-3.45 1.433l-.365-.875c-.098-.219-.194-.293-.511-.293h-3.133v1.483c0 .267.074.315.266.39l1.143.387V56.4h2.843v-6.876c0-1.117.146-1.774.608-2.235.413-.412 1.092-.632 1.868-.632.78 0 1.46.22 1.872.632.46.461.608 1.118.608 2.235V56.4h2.842v-7.24c0-1.942-.412-2.939-1.164-3.742-.827-.85-2.093-1.286-3.427-1.286zm-51.58.12c-.195-.072-.583-.122-.875-.122-1.166 0-2.186.606-2.866 1.626l-.365-1.068c-.074-.217-.195-.291-.51-.291h-3.134v1.483c0 .267.073.315.269.39l1.14.387v7.581l-1.216.365c-.217.073-.265.17-.265.365V56.4h6.752v-1.867c0-.197-.046-.27-.292-.27h-2.138V50.06c0-1.337.148-2.117.608-2.6.414-.438 1.021-.633 2.26-.633h.997v-2.065c0-.291-.097-.412-.365-.51zm14.293-9.96c0-.196-.072-.27-.316-.27h-1.068v-9.498c0-.291-.073-.364-.413-.364h-3.839v1.481c0 .267.072.316.269.39l1.14.387v7.58l-1.214.366c-.22.072-.267.17-.267.365v1.433h5.708v-1.87zm98.142 9.84c-1.457 0-2.673.558-3.451 1.433l-.363-.875c-.097-.219-.193-.293-.51-.293h-3.134v1.483c0 .267.07.315.266.39l1.142.387V56.4h2.842v-6.876c0-1.117.148-1.774.61-2.235.412-.412 1.093-.632 1.87-.632.776 0 1.456.22 1.868.632.463.461.608 1.118.608 2.235V56.4h2.845v-7.24c0-1.942-.414-2.939-1.166-3.742-.827-.85-2.092-1.286-3.427-1.286zm14.942 7.192c0 1.02-.172 1.7-.66 2.211-.435.46-1.164.751-2.015.751-1.944 0-2.963-1.359-2.963-3.886 0-2.48 1.19-3.889 3.013-3.889.85 0 1.553.292 1.993.753.485.51.632 1.192.632 2.212v1.848zm3.981 2.94h-1.166V40.17c0-.291-.072-.367-.411-.367h-3.839v1.485c0 .267.074.316.267.389l1.142.39v3.18c-.775-.703-1.872-1.116-3.06-1.116-3.183 0-5.444 2.525-5.444 6.318 0 3.887 2.137 6.22 5.151 6.22 1.335 0 2.647-.559 3.425-1.386.172.729.608 1.116 1.75 1.116h2.478v-1.867c0-.196-.048-.268-.293-.268zm-31.239-2.94c0 1.02-.172 1.7-.657 2.211-.436.46-1.142.751-1.991.751-1.941 0-2.916-1.359-2.916-3.886 0-2.48 1.14-3.889 2.964-3.889.85 0 1.53.292 1.967.753.489.51.633 1.192.633 2.212v1.848zm3.984 2.94h-1.168v-9.867h-1.795c-.244 0-.34.073-.389.292l-.244.998c-.778-.974-2.017-1.556-3.45-1.556-3.182 0-5.393 2.525-5.393 6.318 0 3.887 2.089 6.22 5.102 6.22 1.337 0 2.623-.535 3.4-1.361.195.68.706 1.091 1.772 1.091h2.457v-1.867c0-.196-.05-.268-.292-.268zm-41.014 0h-1.068v-9.501c0-.291-.072-.367-.413-.367h-3.837v1.483c0 .267.072.316.267.39l1.14.387v7.583l-1.216.365c-.218.073-.264.17-.264.364v1.431h5.708v-1.867c0-.196-.073-.269-.317-.269zm9.26-10.012c-.192-.072-.583-.122-.874-.122-1.164 0-2.185.606-2.865 1.626l-.365-1.068c-.073-.217-.193-.291-.509-.291h-3.134v1.483c0 .267.07.315.265.39l1.144.387v7.581l-1.217.365c-.218.073-.266.17-.266.365V56.4h6.753v-1.867c0-.197-.049-.27-.29-.27h-2.139V50.06c0-1.337.147-2.117.607-2.6.415-.438 1.02-.633 2.26-.633h.996v-2.065c0-.291-.097-.412-.365-.51zm3.816 5.127c.193-1.774 1.07-2.892 2.72-2.892 1.53 0 2.551 1.094 2.623 2.892h-5.343zm2.695-5.248c-3.69 0-5.66 2.671-5.66 6.292 0 1.85.535 3.523 1.677 4.641 1.02.997 2.6 1.605 4.737 1.605 1.168 0 2.697-.22 3.644-.511.146-.048.219-.097.219-.317v-1.846c-.825.17-2.211.367-3.28.367-2.452 0-3.814-1.048-4.032-2.846h7.7c.22 0 .342-.046.39-.243.073-.267.096-.63.096-1.07 0-3.594-1.846-6.072-5.491-6.072zm11.589 10.132h-1.166V40.169c0-.29-.074-.365-.413-.365h-3.837v1.483c0 .267.072.317.265.39l1.144.389v12.173c0 .873.144 1.359.508 1.701.34.316.852.46 1.703.46h2.087v-1.868c0-.197-.048-.27-.291-.27zM33.959 65.566l.703-13.08h1.266l.702 13.08h-2.67zM7.445 24.47l-2.707-5.32 2.707 5.32zm61.673-3.13c-.547-1.389-1.555-2.698-2.706-3.362l-.002.001L52.283 45.74c.16 1.833-.88 3.809-2.873 4.643 3.432 1.44 4.043 6.261.563 7.907-4.407 2.084-9.911-3.872-12.57-7.904 2.659-4.033 8.163-9.992 12.57-7.906 1.458.69 2.195 1.937 2.31 3.26L66.41 17.98l.002-.002L38.419 1.814l-.008-.003L35.275 0l-3.13 1.808-.01.005L4.14 17.977C2.412 18.974 1 21.424 1 23.421L1 55.751l.002-.004v.921h.092c.17.892.567 1.814 1.107 2.62.536.799 1.21 1.48 1.941 1.902L24.92 73.188l7.219 4.169.041.022.015.007.035.02 3.044 1.757L24.66 58.306c-1.376.514-2.756.592-4.043-.016-3.326-1.572-2.914-6.042.121-7.693l-.312-.613c-1.477-.955-2.237-2.612-2.126-4.178l-.018-.035-4.51-8.865 4.511 8.865.02-.012c.11-1.33.848-2.586 2.314-3.28 1.16-.548 2.396-.54 3.636-.156l3.51-2.027c-.839-1.664-1.112-3.366-.372-4.93 1.647-3.48 6.468-2.87 7.906.558 1.436-3.428 6.253-4.039 7.902-.558 2.084 4.408-3.874 9.913-7.906 12.572-2.6-1.715-6.002-4.616-7.53-7.642l-3.51 2.028c3.471 1.074 6.974 5.09 8.933 8.062-1.882 2.855-5.19 6.672-8.525 7.92l10.613 20.857.002.002h.001l3.047-1.76a.617.617 0 0 1 .038-.019l.012-.008c.013-.008.028-.013.042-.023l6.865-3.963 21.13-12.202c.752-.432 1.443-1.14 1.987-1.967.702-1.074 1.154-2.346 1.154-3.472l-.002-32.33c.002-.667-.159-1.384-.432-2.082zm32.987 4.69l1.141.39v4.93c0 1.798.364 2.868 1.287 3.767.826.801 2.31 1.313 3.935 1.313 1.629 0 3.11-.512 3.937-1.313.923-.899 1.286-1.969 1.286-3.767v-7.19h-2.842v7.118c0 .971-.146 1.58-.51 2.017-.389.461-1.02.729-1.871.729-.85 0-1.481-.268-1.87-.73-.364-.437-.51-1.045-.51-2.016v-6.876c0-.17-.048-.243-.243-.243h-4.007v1.482c0 .268.072.317.267.39zm-1.203 28.209c-1.87 0-2.89-1.29-2.89-3.84s1.02-3.84 2.89-3.84 2.892 1.29 2.892 3.84-1.021 3.84-2.892 3.84zm0-10.108c-4.009 0-5.78 2.77-5.78 6.269 0 3.498 1.771 6.27 5.78 6.27 4.01 0 5.783-2.772 5.783-6.27 0-3.498-1.774-6.27-5.783-6.27zm20.952-9.84c0-.195-.05-.267-.293-.267h-2.137V29.82c0-1.337.146-2.115.608-2.6.411-.438 1.02-.633 2.257-.633h.997v-2.065c0-.291-.098-.412-.365-.51-.194-.072-.582-.12-.874-.12-1.166 0-2.186.606-2.866 1.627l-.365-1.07c-.072-.218-.193-.29-.51-.29h-3.132v1.48c0 .27.072.318.266.39l1.142.39V34l-1.215.363c-.22.074-.267.17-.267.365v1.433h6.754v-1.87zm-26.235-7.97c1.87 0 2.89 1.29 2.89 3.84s-1.02 3.837-2.89 3.837-2.891-1.286-2.891-3.837c0-2.55 1.021-3.84 2.891-3.84zm0 10.107c4.008 0 5.781-2.769 5.781-6.267 0-3.5-1.773-6.27-5.78-6.27-4.01 0-5.782 2.77-5.782 6.27 0 3.498 1.772 6.267 5.781 6.267zm80.399 6.22c1.287 0 1.7-.582 1.7-1.702 0-1.116-.413-1.7-1.7-1.7s-1.702.584-1.702 1.7c0 1.12.415 1.702 1.702 1.702zM126.905 22.41c1.288 0 1.7-.583 1.7-1.7s-.412-1.701-1.7-1.701-1.7.584-1.7 1.701.412 1.7 1.7 1.7zm7.434 8.65l1.554.389c1.48.363 1.92.704 1.92 1.433 0 .438-.195.801-.584 1.02-.389.218-1.044.34-1.822.34-.68 0-1.384-.05-1.894-.17l-.341-1.214c-.072-.243-.195-.317-.486-.317h-1.675v2.843c0 .316.072.486.437.583.875.243 2.526.461 3.96.461 1.966 0 3.254-.34 4.08-1.093.657-.607 1.044-1.457 1.044-2.551 0-2.38-1.214-3.109-3.594-3.717l-1.627-.413c-1.36-.34-1.798-.705-1.798-1.385 0-.923.8-1.19 2.185-1.19.632 0 1.312.048 1.726.122l.363 1.214c.074.219.147.316.536.316h1.579v-2.794c0-.267-.074-.438-.512-.582-.873-.293-2.307-.462-3.594-.462-1.7 0-2.94.267-3.814.972-.753.606-1.166 1.48-1.166 2.623 0 2.04 1.166 2.988 3.523 3.572zm-48 5.37c.851 0 1.871-.171 2.503-.39.169-.048.243-.122.243-.315v-1.75c-.608.096-1.385.17-1.895.17-.632 0-1.069-.17-1.312-.413-.29-.291-.365-.704-.365-1.36v-5.953h3.062c.217 0 .315-.072.315-.267v-1.993h-3.377v-2.647h-2.356c-.365 0-.485.12-.485.486v10.52c0 1.433.29 2.38.923 3.012.607.606 1.505.9 2.745.9zm2.368 7.702c-1.458 0-2.672.558-3.45 1.433l-.364-.875c-.096-.219-.195-.293-.511-.293h-3.133v1.483c0 .267.072.315.267.39l1.142.387V56.4h2.841v-6.876c0-1.117.146-1.774.61-2.235.411-.412 1.093-.632 1.868-.632.778 0 1.459.22 1.874.632.46.461.606 1.118.606 2.235V56.4h2.842v-7.24c0-1.942-.412-2.939-1.166-3.742-.827-.85-2.09-1.286-3.426-1.286zM20.74 50.597c.141-.077.286-.15.439-.214a4.801 4.801 0 0 1-.751-.399l.312.613zM18.3 45.805l.004-.046-.021.012.017.034z" mask="url(#b)"></path>
                            </g>
                        </svg>