<svg id="Component_47_72" data-name="Component 47 – 72" xmlns="http://www.w3.org/2000/svg" width="134.57" height="35.505" viewBox="0 0 134.57 35.505">
  <path id="Path_4273" data-name="Path 4273" d="M904.862,296.984a12.636,12.636,0,0,0-10.391,5.553l2.086,2.063a9.768,9.768,0,1,1,.055,10.14l-2.063,2.086a12.639,12.639,0,1,0,10.313-19.842" transform="translate(-887.178 -291.873)" fill="#2b2b2e"/>
  <path id="Path_4274" data-name="Path 4274" d="M879.6,290.1a14.879,14.879,0,1,1,.075-14.473l2.108-2.086a17.752,17.752,0,1,0-.1,18.667Z" transform="translate(-848.888 -265.042)" fill="#2b2b2e"/>
  <path id="Path_4275" data-name="Path 4275" d="M1342.28,308.235a6.044,6.044,0,1,1,6.248-6.041,6.154,6.154,0,0,1-6.248,6.041m6.248-12.581a9.353,9.353,0,0,0-6.248-2.368,8.914,8.914,0,1,0,9.214,8.909c0-.139,0-.277-.011-.415h.011V288.1h-2.967Z" transform="translate(-1255.601 -284.413)" fill="#2b2b2e"/>
  <path id="Path_4276" data-name="Path 4276" d="M1473.107,323.465a6.286,6.286,0,0,1,5.5,3.172h-10.993a6.285,6.285,0,0,1,5.5-3.172m0,12.079a6.153,6.153,0,0,1-6.247-6.04h15.46a9.218,9.218,0,1,0-9.213,8.907,9.314,9.314,0,0,0,6.515-2.609l-2.1-2.028a6.316,6.316,0,0,1-4.417,1.769" transform="translate(-1365.499 -311.709)" fill="#2b2b2e"/>
  <path id="Path_4277" data-name="Path 4277" d="M1211.46,335.445a6.044,6.044,0,1,1,6.248-6.041,6.154,6.154,0,0,1-6.248,6.041m0-14.949a8.914,8.914,0,1,0,9.215,8.909,9.076,9.076,0,0,0-9.215-8.909" transform="translate(-1145.711 -311.624)" fill="#2b2b2e"/>
  <path id="Path_4278" data-name="Path 4278" d="M1601.991,320.6a9.341,9.341,0,0,1,6.347,2.463l-2.095,2.025a6.336,6.336,0,0,0-4.252-1.622,6.039,6.039,0,1,0,0,12.07,6.336,6.336,0,0,0,4.252-1.622l2.095,2.025a9.34,9.34,0,0,1-6.347,2.463,8.906,8.906,0,1,1,0-17.8" transform="translate(-1473.769 -311.709)" fill="#2b2b2e"/>
  <path id="Path_4279" data-name="Path 4279" d="M1100.338,320.6a9.34,9.34,0,0,1,6.347,2.463l-2.095,2.025a6.335,6.335,0,0,0-4.252-1.622,6.039,6.039,0,1,0,0,12.07,6.335,6.335,0,0,0,4.252-1.622l2.095,2.025a9.34,9.34,0,0,1-6.347,2.463,8.906,8.906,0,1,1,0-17.8" transform="translate(-1052.375 -311.709)" fill="#2b2b2e"/>
</svg>
