<svg xmlns="http://www.w3.org/2000/svg" xmlns:xlink="http://www.w3.org/1999/xlink" width="520" height="450.573" viewBox="0 0 520 450.573">
  <defs>
    <clipPath id="clip-path">
      <path id="Path_6657" data-name="Path 6657" d="M-1091.306,446.31c-3.2,1.615,7.648,17.6,13.437,32.1,7.247,18.138,6.054,24.48,8.1,24.57s2.411-11.077,7.83-24.749c5.69-14.351,15.892-30.226,13.528-31.383-3.115-1.525-8.278,21.341-21.448,21.341-12.672,0-18.815-21.922-21.269-21.922a.4.4,0,0,0-.179.043" transform="translate(1091.886 -446.267)" fill="none"/>
    </clipPath>
    <linearGradient id="linear-gradient" x1="41.59" y1="14.442" x2="41.628" y2="14.442" gradientUnits="objectBoundingBox">
      <stop offset="0" stop-color="#ac3a72"/>
      <stop offset="0.035" stop-color="#af4070"/>
      <stop offset="0.354" stop-color="#ce7261"/>
      <stop offset="0.633" stop-color="#e49856"/>
      <stop offset="0.858" stop-color="#f2ae50"/>
      <stop offset="1" stop-color="#f7b74e"/>
    </linearGradient>
  </defs>
  <g id="Group_1836" data-name="Group 1836" transform="translate(-922 -2970.715)">
    <path id="Path_6160" data-name="Path 6160" d="M0,0H520V450.573H0Z" transform="translate(922 2970.715)" fill="#e3e0da"/>
    <g id="ruhama_logo" data-name="ruhama logo" transform="translate(979 3154.464)">
      <g id="Group_1765" data-name="Group 1765" transform="translate(0 0)">
        <path id="Path_6648" data-name="Path 6648" d="M-1005.251,491.84l3.555-.487a1.457,1.457,0,0,1,1.363.663,5.216,5.216,0,0,1,.586,1.405c.127.5.248.945.364,1.339a4.566,4.566,0,0,1,.173,1.287,2.089,2.089,0,0,1-.675,1.409,6.567,6.567,0,0,1-1.706,1.268,9.633,9.633,0,0,1-4.609,1.183,15.575,15.575,0,0,1-4.329-.558,16.949,16.949,0,0,1-3.66-1.529,26.844,26.844,0,0,1-5.5-4.311q-2.813-2.781-4.469-4.764l-5.694-7.093a26.049,26.049,0,0,0-2.174-2.365v17.838a2.173,2.173,0,0,1-.932,1.984,1.518,1.518,0,0,1-.794.207h-4.933a1.475,1.475,0,0,1-1.312-.556,2.978,2.978,0,0,1-.621-1.634V449.073a3.661,3.661,0,0,1,.637-2.138,2.358,2.358,0,0,1,2.088-.92h15.392q20.533,0,20.533,16.343a16.519,16.519,0,0,1-5.522,12.621,17.477,17.477,0,0,1-12.284,4.833,15.679,15.679,0,0,1-2.381-.177l4.243,4.521a38.373,38.373,0,0,0,5.694,5.215,12.558,12.558,0,0,0,6.971,2.468m-26.778-19.192a31.5,31.5,0,0,0,7.057.9,24.654,24.654,0,0,0,5.642-.588,13.625,13.625,0,0,0,4.419-1.878,9.2,9.2,0,0,0,4.279-8.243,8.022,8.022,0,0,0-3.693-7.266,15.514,15.514,0,0,0-8.42-1.98h-9.283Z" transform="translate(1162.28 -430.437)" fill="#7b4d94"/>
        <path id="Path_6649" data-name="Path 6649" d="M-979.31,490.367q0,2.364-2.14,2.365H-983a2.629,2.629,0,0,1-2.728-1.67,47.226,47.226,0,0,1-1.553-5.32A11.6,11.6,0,0,1-992.2,491.5a16.412,16.412,0,0,1-8.643,2.1q-6.765,0-9.973-4.258t-3.21-12.569V455.806a2.335,2.335,0,0,1,.6-1.634,2.2,2.2,0,0,1,1.708-.659h3.8a2.02,2.02,0,0,1,2.278,2.294V476.39q0,8.309,3.831,9.6a9.292,9.292,0,0,0,2.949.417,8.685,8.685,0,0,0,3.52-.8,12.017,12.017,0,0,0,3.261-2.121,9.229,9.229,0,0,0,3.244-6.918V455.806a2.375,2.375,0,0,1,.587-1.634,2.375,2.375,0,0,1,1.863-.659h3.623a2.176,2.176,0,0,1,1.762.659,2.47,2.47,0,0,1,.552,1.634v21.732a54.321,54.321,0,0,0,1.037,11.821,4.085,4.085,0,0,1,.1,1.009" transform="translate(1185.268 -423.851)" fill="#7b4d94"/>
        <path id="Path_6650" data-name="Path 6650" d="M-989.266,443.763a2.337,2.337,0,0,1,.535-1.565,1.648,1.648,0,0,1,1.294-.625h4.728a1.628,1.628,0,0,1,1.311.625,2.364,2.364,0,0,1,.518,1.565v26.321a13.451,13.451,0,0,1,8.733-6.5,19.739,19.739,0,0,1,4.642-.453,11.539,11.539,0,0,1,5.261,1.234,10.037,10.037,0,0,1,3.9,3.391q2.59,3.928,2.59,11.577v21.593a2.272,2.272,0,0,1-.621,1.668,2.469,2.469,0,0,1-1.831.627h-3.382a2.541,2.541,0,0,1-1.931-.661,2.289,2.289,0,0,1-.623-1.634V479.3q0-8.9-6.486-8.9a9.613,9.613,0,0,0-6.833,3.2,11.085,11.085,0,0,0-3.417,8v19.331a2.362,2.362,0,0,1-.587,1.634,2.42,2.42,0,0,1-1.9.661h-3.762a1.969,1.969,0,0,1-1.57-.661,2.422,2.422,0,0,1-.57-1.634Z" transform="translate(1206.671 -434.339)" fill="#7b4d94"/>
        <path id="Path_6651" data-name="Path 6651" d="M-932.843,491.294a1.609,1.609,0,0,1-1.8,1.843h-3.349c-.9,0-1.437-.178-1.622-.539a2.643,2.643,0,0,1-.309-.973c-.024-.289-.069-.642-.14-1.059q-.2-1.7-.585-3.686a13.179,13.179,0,0,1-8.455,6.571,17.027,17.027,0,0,1-4.486.556,15.417,15.417,0,0,1-4.9-.817,13.159,13.159,0,0,1-4.348-2.416,11.83,11.83,0,0,1-4.281-9.494q0-6.43,4.695-9.839a16.767,16.767,0,0,1,9.939-2.746,15.332,15.332,0,0,1,10.284,3.58q.1-1.181.1-2.955a9.719,9.719,0,0,0-.692-3.547,7.828,7.828,0,0,0-1.965-2.955q-2.626-2.33-7.318-2.329a18.022,18.022,0,0,0-8.557,2.329,3.135,3.135,0,0,1-1.451.451q-.931,0-1.8-1.841a7.282,7.282,0,0,1-.93-2.712q0-1.53,2.278-2.957,4.349-2.711,11.63-2.711a16.48,16.48,0,0,1,10.974,3.65q5.143,4.382,5.14,12.379a44.742,44.742,0,0,1-1.139,8.936q2.936,8.414,3.074,13.281m-23.122-14.759a7.357,7.357,0,0,0-2.017,2.1,4.8,4.8,0,0,0-.606,2.451,5.983,5.983,0,0,0,.5,2.5,5,5,0,0,0,1.4,1.826,6.707,6.707,0,0,0,4.262,1.5,11.466,11.466,0,0,0,3.882-.556,9.454,9.454,0,0,0,2.623-1.426q2.38-1.877,2.381-3.964a5.048,5.048,0,0,0-2.864-4.1,10.945,10.945,0,0,0-5.625-1.392,6.437,6.437,0,0,0-3.934,1.061" transform="translate(1225.819 -424.258)" fill="#7b4d94"/>
        <path id="Path_6652" data-name="Path 6652" d="M-923.092,453.066q8.695,0,11.009,7.824a15.943,15.943,0,0,1,9.145-7.3,17.861,17.861,0,0,1,4.866-.558,11.953,11.953,0,0,1,5.677,1.461,9.834,9.834,0,0,1,4.072,3.808,14.014,14.014,0,0,1,1.689,5.162,46.99,46.99,0,0,1,.364,6.05V490.86a2.3,2.3,0,0,1-.621,1.634,2.4,2.4,0,0,1-1.831.661h-3.38a2.536,2.536,0,0,1-1.932-.661,2.288,2.288,0,0,1-.621-1.634V469.2q0-4.483-1.536-6.674a5.509,5.509,0,0,0-4.849-2.192,8.447,8.447,0,0,0-6.593,3.338,12.639,12.639,0,0,0-3.035,8.624V490.86a2.3,2.3,0,0,1-.621,1.634,2.4,2.4,0,0,1-1.831.661H-916.5a2.541,2.541,0,0,1-1.932-.661,2.3,2.3,0,0,1-.621-1.634V469.2q0-4.483-1.536-6.674a5.509,5.509,0,0,0-4.849-2.192,8.538,8.538,0,0,0-6.624,3.338,12.726,12.726,0,0,0-3,8.624V490.86a2.378,2.378,0,0,1-.586,1.634,2.283,2.283,0,0,1-1.8.661H-941a2.394,2.394,0,0,1-1.829-.661,2.288,2.288,0,0,1-.621-1.634V469.512a70.958,70.958,0,0,0-.449-9.753,32.9,32.9,0,0,1-.448-3.321q0-2.5,2.381-2.5h1.9a2.623,2.623,0,0,1,2.623,1.46,26.154,26.154,0,0,1,1.587,5.494,14.609,14.609,0,0,1,8.7-7.232,13.829,13.829,0,0,1,4.072-.592" transform="translate(1245.498 -424.274)" fill="#7b4d94"/>
        <path id="Path_6653" data-name="Path 6653" d="M-874.806,491.294a1.609,1.609,0,0,1-1.8,1.843h-3.349c-.9,0-1.437-.178-1.62-.539a2.65,2.65,0,0,1-.311-.973c-.024-.289-.069-.642-.14-1.059q-.2-1.7-.585-3.686a13.179,13.179,0,0,1-8.455,6.571,17.026,17.026,0,0,1-4.486.556,15.426,15.426,0,0,1-4.9-.817,13.132,13.132,0,0,1-4.346-2.416,11.829,11.829,0,0,1-4.279-9.494q0-6.43,4.691-9.839a16.769,16.769,0,0,1,9.941-2.746,15.327,15.327,0,0,1,10.282,3.58q.1-1.181.1-2.955a9.719,9.719,0,0,0-.692-3.547,7.828,7.828,0,0,0-1.965-2.955q-2.623-2.33-7.318-2.329a18.028,18.028,0,0,0-8.557,2.329,3.135,3.135,0,0,1-1.451.451q-.931,0-1.793-1.841a7.294,7.294,0,0,1-.932-2.712q0-1.53,2.278-2.957,4.349-2.711,11.63-2.711a16.48,16.48,0,0,1,10.974,3.65q5.143,4.382,5.142,12.379a44.879,44.879,0,0,1-1.139,8.936q2.934,8.414,3.073,13.281m-23.122-14.759a7.443,7.443,0,0,0-2.019,2.1,4.8,4.8,0,0,0-.6,2.451,5.953,5.953,0,0,0,.5,2.5,4.941,4.941,0,0,0,1.4,1.826,6.694,6.694,0,0,0,4.26,1.5,11.485,11.485,0,0,0,3.883-.556,9.506,9.506,0,0,0,2.623-1.426q2.38-1.877,2.381-3.964a5.054,5.054,0,0,0-2.866-4.1,10.945,10.945,0,0,0-5.625-1.392,6.437,6.437,0,0,0-3.934,1.061" transform="translate(1275.989 -424.258)" fill="#7b4d94"/>
        <path id="Path_6654" data-name="Path 6654" d="M-1076.773,513.984c.63,1.939,38.561-4.024,41.954-36.647,2.729-26.244-29.058-41.375-30.291-39.451-1.046,1.632,21.2,17.184,17.223,40.111-4.635,26.73-29.616,33.745-28.887,35.987" transform="translate(1131.019 -437.722)" fill="#7b4d94"/>
        <path id="Path_6655" data-name="Path 6655" d="M-1064.507,514.308c-.666,1.925-38.479-4.758-41.257-37.439-2.237-26.293,29.83-40.813,31.025-38.867,1.014,1.651-21.519,16.776-17.973,39.774,4.132,26.813,28.974,34.3,28.2,36.532" transform="translate(1105.876 -437.629)" fill="#ac3a71"/>
        <path id="Path_6656" data-name="Path 6656" d="M-1068.271,452.575a7.984,7.984,0,0,1-7.942,8.027,7.984,7.984,0,0,1-7.942-8.027,7.984,7.984,0,0,1,7.942-8.027,7.984,7.984,0,0,1,7.942,8.027" transform="translate(1124.651 -431.725)" fill="#f7b64e"/>
      </g>
      <g id="Group_1767" data-name="Group 1767" transform="translate(26.082 16.052)">
        <g id="Group_1766" data-name="Group 1766" transform="translate(0)" clip-path="url(#clip-path)">
          <rect id="Rectangle_1078" data-name="Rectangle 1078" width="48.465" height="57.748" transform="translate(-2.625 -0.945)" fill="url(#linear-gradient)"/>
        </g>
      </g>
    </g>
  </g>
</svg>
