<svg id="Microsoft_logo__2012_" data-name="Microsoft_logo_(2012)" xmlns="http://www.w3.org/2000/svg" width="381.118" height="81.126" viewBox="0 0 381.118 81.126">
  <path id="Path_6426" data-name="Path 6426" d="M146.42,14.806V63.481h-8.467v-38.2h-.113l-15.127,38.2h-5.645L101.6,25.284h-.113v38.2H93.7V14.806h12.192l14,36.056h.226L134.9,14.806H146.42Zm7,3.718a4.281,4.281,0,0,1,1.468-3.38,5.053,5.053,0,0,1,3.5-1.352A4.947,4.947,0,0,1,162,15.144a4.68,4.68,0,0,1,1.468,3.38A4.281,4.281,0,0,1,162,21.9a5.133,5.133,0,0,1-3.613,1.352,4.682,4.682,0,0,1-3.5-1.352A5.1,5.1,0,0,1,153.419,18.524Zm9.144,10.028V63.481h-8.241V28.552ZM187.512,57.51a9.526,9.526,0,0,0,4.064-.9,17.845,17.845,0,0,0,4.064-2.254v7.662a14.42,14.42,0,0,1-4.516,1.69,27.831,27.831,0,0,1-5.532.563c-5.193,0-9.37-1.577-12.531-4.845a16.8,16.8,0,0,1-4.854-12.394,19.86,19.86,0,0,1,4.967-13.859c3.274-3.606,7.9-5.408,14-5.408a20.817,20.817,0,0,1,4.629.563,15.4,15.4,0,0,1,3.725,1.352v7.887a16.409,16.409,0,0,0-3.838-2.141,12.991,12.991,0,0,0-4.064-.789,10.306,10.306,0,0,0-7.9,3.155c-2.032,2.141-2.935,4.958-2.935,8.563,0,3.493,1.016,6.31,2.935,8.225A10.57,10.57,0,0,0,187.512,57.51Zm31.5-29.521a9.142,9.142,0,0,1,1.806.113,11.733,11.733,0,0,1,1.355.338v8.338a5.072,5.072,0,0,0-1.919-.9,11.6,11.6,0,0,0-3.048-.451,6.316,6.316,0,0,0-5.08,2.592c-1.355,1.69-2.145,4.282-2.145,7.887V63.481h-8.241V28.552h8.241v5.521h.113a10.616,10.616,0,0,1,3.387-4.507A9.961,9.961,0,0,1,219.008,27.989Zm3.612,18.591c0-5.746,1.693-10.366,4.854-13.746q4.911-5.07,13.547-5.07c5.419,0,9.709,1.577,12.757,4.845s4.629,7.662,4.629,13.183c0,5.634-1.693,10.141-4.854,13.521-3.274,3.38-7.677,5.07-13.321,5.07q-8.128,0-12.869-4.732C224.2,56.383,222.621,51.989,222.621,46.58Zm8.58-.338c0,3.606.79,6.423,2.484,8.338a9.031,9.031,0,0,0,7.112,2.93c2.935,0,5.306-.9,6.886-2.93,1.58-1.915,2.371-4.732,2.371-8.563,0-3.718-.79-6.535-2.371-8.563a9.434,9.434,0,0,0-13.773.113C231.99,39.707,231.2,42.524,231.2,46.242Zm39.512-8.451a3.572,3.572,0,0,0,1.129,2.817,19.323,19.323,0,0,0,4.967,2.479c3.274,1.352,5.644,2.817,6.886,4.394a9.118,9.118,0,0,1,2.032,5.972,9.454,9.454,0,0,1-3.838,7.887c-2.484,2.028-5.983,2.93-10.273,2.93a26.794,26.794,0,0,1-4.854-.563,19.563,19.563,0,0,1-4.516-1.352V54.242a19.74,19.74,0,0,0,4.854,2.479,15.243,15.243,0,0,0,4.741.9,7.6,7.6,0,0,0,4.064-.789,2.764,2.764,0,0,0,1.355-2.592,3.964,3.964,0,0,0-1.355-2.93,20.861,20.861,0,0,0-5.193-2.7,15.527,15.527,0,0,1-6.435-4.282,9.567,9.567,0,0,1-1.919-6.084,9.6,9.6,0,0,1,3.725-7.775,14.931,14.931,0,0,1,9.709-3.042,17.933,17.933,0,0,1,4.064.451c1.468.338,2.822.676,3.838,1.014v8a24.341,24.341,0,0,0-3.838-1.915,11.967,11.967,0,0,0-4.29-.789,6.3,6.3,0,0,0-3.612.9A3.6,3.6,0,0,0,270.712,37.791Zm18.514,8.789c0-5.746,1.693-10.366,4.854-13.746q4.911-5.07,13.547-5.07c5.419,0,9.709,1.577,12.757,4.845s4.629,7.662,4.629,13.183c0,5.634-1.693,10.141-4.854,13.521-3.274,3.38-7.677,5.07-13.321,5.07q-8.128,0-12.869-4.732A18.551,18.551,0,0,1,289.226,46.58Zm8.58-.338c0,3.606.79,6.423,2.484,8.338a9.032,9.032,0,0,0,7.112,2.93c2.935,0,5.306-.9,6.886-2.93,1.58-1.915,2.371-4.732,2.371-8.563,0-3.718-.79-6.535-2.371-8.563a9.434,9.434,0,0,0-13.773.113C298.709,39.707,297.805,42.524,297.805,46.242Zm54.639-10.93h-12.3V63.481h-8.354V35.313h-5.87V28.552h5.87V23.707A12.163,12.163,0,0,1,344.542,11.2c1.016,0,1.919.113,2.709.113a5.4,5.4,0,0,1,2.032.451v7.1a13.854,13.854,0,0,0-1.468-.563,7.519,7.519,0,0,0-2.371-.338,5.1,5.1,0,0,0-3.951,1.577,7.174,7.174,0,0,0-1.355,4.732v4.169h12.3V20.552l8.241-2.479V28.439h8.354V35.2h-8.354V51.538a7.488,7.488,0,0,0,1.129,4.507,4.7,4.7,0,0,0,3.725,1.352,5.581,5.581,0,0,0,1.693-.338,5.906,5.906,0,0,0,1.693-.789v6.761a7.884,7.884,0,0,1-2.6.789,19.6,19.6,0,0,1-3.613.338q-5.249,0-7.789-2.7c-1.693-1.8-2.6-4.62-2.6-8.338l.113-17.8Z" transform="translate(12.079 1.42)" fill="#2b2b2e"/>
  <g id="Group_1612" data-name="Group 1612">
    <rect id="Rectangle_1035" data-name="Rectangle 1035" width="38.608" height="38.535" fill="#2b2b2e"/>
    <rect id="Rectangle_1036" data-name="Rectangle 1036" width="38.608" height="38.535" transform="translate(42.672)" fill="#2b2b2e"/>
    <rect id="Rectangle_1037" data-name="Rectangle 1037" width="38.608" height="38.535" transform="translate(0 42.591)" fill="#2b2b2e"/>
    <rect id="Rectangle_1038" data-name="Rectangle 1038" width="38.608" height="38.535" transform="translate(42.672 42.591)" fill="#2b2b2e"/>
  </g>
</svg>
