<svg xmlns="http://www.w3.org/2000/svg" width="45.411" height="45.411" viewBox="0 0 45.411 45.411"><g transform="translate(45.411 -2) rotate(90)" opacity="0.2"><path d="M3674.9-7754.49a1.34,1.34,0,0,0-1.339,1.338,1.341,1.341,0,0,0,1.339,1.339,1.341,1.341,0,0,0,1.339-1.339A1.34,1.34,0,0,0,3674.9-7754.49Z" transform="translate(-3671.563 7797.224)" fill="#2b2b2e"/><path d="M3674.9-7765.174a1.341,1.341,0,0,0-1.339,1.339,1.341,1.341,0,0,0,1.339,1.339,1.341,1.341,0,0,0,1.339-1.339A1.341,1.341,0,0,0,3674.9-7765.174Z" transform="translate(-3671.563 7797.224)" fill="#2b2b2e"/><path d="M3674.9-7786.541a1.342,1.342,0,0,0-1.339,1.34,1.341,1.341,0,0,0,1.339,1.339,1.341,1.341,0,0,0,1.339-1.339A1.342,1.342,0,0,0,3674.9-7786.541Z" transform="translate(-3671.563 7797.224)" fill="#2b2b2e"/><path d="M3674.9-7797.224a1.341,1.341,0,0,0-1.339,1.339,1.341,1.341,0,0,0,1.339,1.34,1.341,1.341,0,0,0,1.339-1.34A1.341,1.341,0,0,0,3674.9-7797.224Z" transform="translate(-3671.563 7797.224)" fill="#2b2b2e"/><path d="M3674.9-7775.857a1.341,1.341,0,0,0-1.339,1.339,1.34,1.34,0,0,0,1.339,1.339,1.34,1.34,0,0,0,1.339-1.339A1.341,1.341,0,0,0,3674.9-7775.857Z" transform="translate(-3671.563 7797.224)" fill="#2b2b2e"/><path d="M3717.635-7754.49a1.34,1.34,0,0,0-1.34,1.338,1.341,1.341,0,0,0,1.34,1.339,1.341,1.341,0,0,0,1.339-1.339A1.34,1.34,0,0,0,3717.635-7754.49Z" transform="translate(-3671.563 7797.224)" fill="#2b2b2e"/><path d="M3717.635-7765.174a1.341,1.341,0,0,0-1.34,1.339,1.341,1.341,0,0,0,1.34,1.339,1.341,1.341,0,0,0,1.339-1.339A1.341,1.341,0,0,0,3717.635-7765.174Z" transform="translate(-3671.563 7797.224)" fill="#2b2b2e"/><path d="M3717.635-7786.541a1.342,1.342,0,0,0-1.34,1.34,1.341,1.341,0,0,0,1.34,1.339,1.341,1.341,0,0,0,1.339-1.339A1.342,1.342,0,0,0,3717.635-7786.541Z" transform="translate(-3671.563 7797.224)" fill="#2b2b2e"/><path d="M3717.635-7797.224a1.341,1.341,0,0,0-1.34,1.339,1.341,1.341,0,0,0,1.34,1.34,1.341,1.341,0,0,0,1.339-1.34A1.341,1.341,0,0,0,3717.635-7797.224Z" transform="translate(-3671.563 7797.224)" fill="#2b2b2e"/><path d="M3717.635-7775.857a1.341,1.341,0,0,0-1.34,1.339,1.34,1.34,0,0,0,1.34,1.339,1.34,1.34,0,0,0,1.339-1.339A1.341,1.341,0,0,0,3717.635-7775.857Z" transform="translate(-3671.563 7797.224)" fill="#2b2b2e"/><path d="M3706.951-7754.49a1.339,1.339,0,0,0-1.339,1.338,1.341,1.341,0,0,0,1.339,1.339,1.342,1.342,0,0,0,1.34-1.339A1.341,1.341,0,0,0,3706.951-7754.49Z" transform="translate(-3671.563 7797.224)" fill="#2b2b2e"/><path d="M3706.951-7765.174a1.341,1.341,0,0,0-1.339,1.339,1.341,1.341,0,0,0,1.339,1.339,1.342,1.342,0,0,0,1.34-1.339A1.342,1.342,0,0,0,3706.951-7765.174Z" transform="translate(-3671.563 7797.224)" fill="#2b2b2e"/><path d="M3706.951-7786.541a1.342,1.342,0,0,0-1.339,1.34,1.341,1.341,0,0,0,1.339,1.339,1.342,1.342,0,0,0,1.34-1.339A1.343,1.343,0,0,0,3706.951-7786.541Z" transform="translate(-3671.563 7797.224)" fill="#2b2b2e"/><path d="M3706.951-7797.224a1.341,1.341,0,0,0-1.339,1.339,1.341,1.341,0,0,0,1.339,1.34,1.342,1.342,0,0,0,1.34-1.34A1.342,1.342,0,0,0,3706.951-7797.224Z" transform="translate(-3671.563 7797.224)" fill="#2b2b2e"/><path d="M3706.951-7775.857a1.341,1.341,0,0,0-1.339,1.339,1.34,1.34,0,0,0,1.339,1.339,1.341,1.341,0,0,0,1.34-1.339A1.342,1.342,0,0,0,3706.951-7775.857Z" transform="translate(-3671.563 7797.224)" fill="#2b2b2e"/><path d="M3696.269-7754.49a1.34,1.34,0,0,0-1.34,1.338,1.341,1.341,0,0,0,1.34,1.339,1.34,1.34,0,0,0,1.338-1.339A1.339,1.339,0,0,0,3696.269-7754.49Z" transform="translate(-3671.563 7797.224)" fill="#2b2b2e"/><path d="M3696.269-7765.174a1.341,1.341,0,0,0-1.34,1.339,1.341,1.341,0,0,0,1.34,1.339,1.34,1.34,0,0,0,1.338-1.339A1.34,1.34,0,0,0,3696.269-7765.174Z" transform="translate(-3671.563 7797.224)" fill="#2b2b2e"/><path d="M3696.269-7786.541a1.342,1.342,0,0,0-1.34,1.34,1.341,1.341,0,0,0,1.34,1.339,1.34,1.34,0,0,0,1.338-1.339A1.341,1.341,0,0,0,3696.269-7786.541Z" transform="translate(-3671.563 7797.224)" fill="#2b2b2e"/><path d="M3696.269-7797.224a1.341,1.341,0,0,0-1.34,1.339,1.341,1.341,0,0,0,1.34,1.34,1.34,1.34,0,0,0,1.338-1.34A1.34,1.34,0,0,0,3696.269-7797.224Z" transform="translate(-3671.563 7797.224)" fill="#2b2b2e"/><path d="M3696.269-7775.857a1.341,1.341,0,0,0-1.34,1.339,1.34,1.34,0,0,0,1.34,1.339,1.339,1.339,0,0,0,1.338-1.339A1.34,1.34,0,0,0,3696.269-7775.857Z" transform="translate(-3671.563 7797.224)" fill="#2b2b2e"/><path d="M3685.585-7754.49a1.339,1.339,0,0,0-1.339,1.338,1.341,1.341,0,0,0,1.339,1.339,1.341,1.341,0,0,0,1.339-1.339A1.34,1.34,0,0,0,3685.585-7754.49Z" transform="translate(-3671.563 7797.224)" fill="#2b2b2e"/><path d="M3685.585-7765.174a1.341,1.341,0,0,0-1.339,1.339,1.341,1.341,0,0,0,1.339,1.339,1.341,1.341,0,0,0,1.339-1.339A1.341,1.341,0,0,0,3685.585-7765.174Z" transform="translate(-3671.563 7797.224)" fill="#2b2b2e"/><path d="M3685.585-7786.541a1.342,1.342,0,0,0-1.339,1.34,1.341,1.341,0,0,0,1.339,1.339,1.341,1.341,0,0,0,1.339-1.339A1.342,1.342,0,0,0,3685.585-7786.541Z" transform="translate(-3671.563 7797.224)" fill="#2b2b2e"/><path d="M3685.585-7797.224a1.341,1.341,0,0,0-1.339,1.339,1.341,1.341,0,0,0,1.339,1.34,1.341,1.341,0,0,0,1.339-1.34A1.341,1.341,0,0,0,3685.585-7797.224Z" transform="translate(-3671.563 7797.224)" fill="#2b2b2e"/><path d="M3685.585-7775.857a1.341,1.341,0,0,0-1.339,1.339,1.34,1.34,0,0,0,1.339,1.339,1.34,1.34,0,0,0,1.339-1.339A1.341,1.341,0,0,0,3685.585-7775.857Z" transform="translate(-3671.563 7797.224)" fill="#2b2b2e"/></g></svg>