<svg xmlns="http://www.w3.org/2000/svg" width="677.447" height="677.449" viewBox="0 0 677.447 677.449"><g transform="translate(0)"><path d="M3676.678-7754.491a3.119,3.119,0,0,1,3.116,3.115,3.121,3.121,0,0,1-3.116,3.116,3.12,3.12,0,0,1-3.115-3.116A3.118,3.118,0,0,1,3676.678-7754.491Z" transform="translate(-3002.347 8425.709)" fill="#d1ccc1"/><path d="M3676.678-7765.174a3.12,3.12,0,0,1,3.116,3.115,3.121,3.121,0,0,1-3.116,3.116,3.121,3.121,0,0,1-3.115-3.116A3.119,3.119,0,0,1,3676.678-7765.174Z" transform="translate(-3002.347 8411.53)" fill="#d1ccc1"/><path d="M3676.678-7786.542a3.124,3.124,0,0,1,3.116,3.118,3.122,3.122,0,0,1-3.116,3.117,3.121,3.121,0,0,1-3.115-3.117A3.123,3.123,0,0,1,3676.678-7786.542Z" transform="translate(-3002.347 8383.177)" fill="#d1ccc1"/><path d="M3676.678-7818.59a3.121,3.121,0,0,1,3.116,3.115,3.121,3.121,0,0,1-3.116,3.116,3.12,3.12,0,0,1-3.115-3.116A3.12,3.12,0,0,1,3676.678-7818.59Z" transform="translate(-3002.347 8340.648)" fill="#d1ccc1"/><path d="M3676.678-7829.273a3.12,3.12,0,0,1,3.116,3.115,3.119,3.119,0,0,1-3.116,3.116,3.118,3.118,0,0,1-3.115-3.116A3.119,3.119,0,0,1,3676.678-7829.273Z" transform="translate(-3002.347 8326.471)" fill="#d1ccc1"/><path d="M3676.678-7850.641a3.121,3.121,0,0,1,3.116,3.117,3.12,3.12,0,0,1-3.116,3.114,3.119,3.119,0,0,1-3.115-3.114A3.12,3.12,0,0,1,3676.678-7850.641Z" transform="translate(-3002.347 8298.117)" fill="#d1ccc1"/><path d="M3676.678-7861.321a3.117,3.117,0,0,1,3.116,3.113,3.12,3.12,0,0,1-3.116,3.115,3.12,3.12,0,0,1-3.115-3.115A3.116,3.116,0,0,1,3676.678-7861.321Z" transform="translate(-3002.347 8283.941)" fill="#d1ccc1"/><path d="M3676.678-7872.006a3.121,3.121,0,0,1,3.116,3.115,3.12,3.12,0,0,1-3.116,3.115,3.119,3.119,0,0,1-3.115-3.115A3.12,3.12,0,0,1,3676.678-7872.006Z" transform="translate(-3002.347 8269.765)" fill="#d1ccc1"/><path d="M3676.678-7882.689a3.121,3.121,0,0,1,3.116,3.116,3.116,3.116,0,0,1-3.116,3.113,3.115,3.115,0,0,1-3.115-3.113A3.12,3.12,0,0,1,3676.678-7882.689Z" transform="translate(-3002.347 8255.588)" fill="#d1ccc1"/><path d="M3676.678-7893.371a3.121,3.121,0,0,1,3.116,3.115,3.121,3.121,0,0,1-3.116,3.117,3.12,3.12,0,0,1-3.115-3.117A3.12,3.12,0,0,1,3676.678-7893.371Z" transform="translate(-3002.347 8241.411)" fill="#d1ccc1"/><path d="M3676.678-8042.939a3.124,3.124,0,0,1,3.116,3.118,3.118,3.118,0,0,1-3.116,3.115,3.117,3.117,0,0,1-3.115-3.115A3.123,3.123,0,0,1,3676.678-8042.939Z" transform="translate(-3002.347 8042.939)" fill="#d1ccc1"/><path d="M3847.61-8042.939a3.124,3.124,0,0,1,3.116,3.118,3.117,3.117,0,0,1-3.116,3.115,3.117,3.117,0,0,1-3.116-3.115A3.123,3.123,0,0,1,3847.61-8042.939Z" transform="translate(-3571.035 8042.939)" fill="#d1ccc1"/><path d="M3879.659-8042.939a3.125,3.125,0,0,1,3.118,3.118,3.119,3.119,0,0,1-3.118,3.115,3.117,3.117,0,0,1-3.116-3.115A3.123,3.123,0,0,1,3879.659-8042.939Z" transform="translate(-3677.664 8042.939)" fill="#d1ccc1"/><path d="M3858.293-8042.939a3.123,3.123,0,0,1,3.116,3.118,3.117,3.117,0,0,1-3.116,3.115,3.117,3.117,0,0,1-3.115-3.115A3.123,3.123,0,0,1,3858.293-8042.939Z" transform="translate(-3606.577 8042.939)" fill="#d1ccc1"/><path d="M3890.343-8042.939a3.123,3.123,0,0,1,3.115,3.118,3.117,3.117,0,0,1-3.115,3.115,3.117,3.117,0,0,1-3.116-3.115A3.123,3.123,0,0,1,3890.343-8042.939Z" transform="translate(-3713.207 8042.939)" fill="#d1ccc1"/><path d="M3901.025-8042.939a3.124,3.124,0,0,1,3.116,3.118,3.117,3.117,0,0,1-3.116,3.115,3.116,3.116,0,0,1-3.115-3.115A3.123,3.123,0,0,1,3901.025-8042.939Z" transform="translate(-3748.749 8042.939)" fill="#d1ccc1"/><path d="M3911.708-8042.939a3.124,3.124,0,0,1,3.116,3.118,3.117,3.117,0,0,1-3.116,3.115,3.117,3.117,0,0,1-3.116-3.115A3.123,3.123,0,0,1,3911.708-8042.939Z" transform="translate(-3784.291 8042.939)" fill="#d1ccc1"/><path d="M3922.394-8042.939a3.124,3.124,0,0,1,3.116,3.118,3.117,3.117,0,0,1-3.116,3.115,3.117,3.117,0,0,1-3.118-3.115A3.124,3.124,0,0,1,3922.394-8042.939Z" transform="translate(-3819.836 8042.939)" fill="#d1ccc1"/><path d="M3954.442-8042.939a3.123,3.123,0,0,1,3.116,3.118,3.117,3.117,0,0,1-3.116,3.115,3.117,3.117,0,0,1-3.116-3.115A3.123,3.123,0,0,1,3954.442-8042.939Z" transform="translate(-3926.464 8042.939)" fill="#d1ccc1"/><path d="M3943.761-8042.939a3.121,3.121,0,0,1,3.114,3.118,3.115,3.115,0,0,1-3.114,3.115,3.118,3.118,0,0,1-3.118-3.115A3.124,3.124,0,0,1,3943.761-8042.939Z" transform="translate(-3890.922 8042.939)" fill="#d1ccc1"/><path d="M3676.678-7797.225a3.122,3.122,0,0,1,3.116,3.117,3.122,3.122,0,0,1-3.116,3.118,3.121,3.121,0,0,1-3.115-3.118A3.121,3.121,0,0,1,3676.678-7797.225Z" transform="translate(-3002.347 8369)" fill="#d1ccc1"/><path d="M3676.678-7839.957a3.121,3.121,0,0,1,3.116,3.116,3.121,3.121,0,0,1-3.116,3.116,3.12,3.12,0,0,1-3.115-3.116A3.12,3.12,0,0,1,3676.678-7839.957Z" transform="translate(-3002.347 8312.296)" fill="#d1ccc1"/><path d="M3836.927-8042.939a3.124,3.124,0,0,1,3.116,3.118,3.117,3.117,0,0,1-3.116,3.115,3.117,3.117,0,0,1-3.116-3.115A3.123,3.123,0,0,1,3836.927-8042.939Z" transform="translate(-3535.492 8042.939)" fill="#d1ccc1"/><path d="M3868.979-8042.939a3.123,3.123,0,0,1,3.115,3.118,3.117,3.117,0,0,1-3.115,3.115,3.118,3.118,0,0,1-3.118-3.115A3.124,3.124,0,0,1,3868.979-8042.939Z" transform="translate(-3642.121 8042.939)" fill="#d1ccc1"/><path d="M3676.678-7807.906a3.116,3.116,0,0,1,3.116,3.112,3.122,3.122,0,0,1-3.116,3.116,3.121,3.121,0,0,1-3.115-3.116A3.116,3.116,0,0,1,3676.678-7807.906Z" transform="translate(-3002.347 8354.825)" fill="#d1ccc1"/><path d="M3772.829-7754.491a3.119,3.119,0,0,1,3.116,3.115,3.121,3.121,0,0,1-3.116,3.116,3.121,3.121,0,0,1-3.118-3.116A3.118,3.118,0,0,1,3772.829-7754.491Z" transform="translate(-3322.234 8425.709)" fill="#d1ccc1"/><path d="M3772.829-7765.174a3.12,3.12,0,0,1,3.116,3.115,3.121,3.121,0,0,1-3.116,3.116,3.121,3.121,0,0,1-3.118-3.116A3.119,3.119,0,0,1,3772.829-7765.174Z" transform="translate(-3322.234 8411.53)" fill="#d1ccc1"/><path d="M3676.678-7775.858a3.122,3.122,0,0,1,3.116,3.116,3.119,3.119,0,0,1-3.116,3.116,3.119,3.119,0,0,1-3.115-3.116A3.121,3.121,0,0,1,3676.678-7775.858Z" transform="translate(-3002.347 8397.354)" fill="#d1ccc1"/><path d="M3772.829-7775.858a3.122,3.122,0,0,1,3.116,3.116,3.119,3.119,0,0,1-3.116,3.116,3.119,3.119,0,0,1-3.118-3.116A3.121,3.121,0,0,1,3772.829-7775.858Z" transform="translate(-3322.234 8397.354)" fill="#d1ccc1"/><path d="M3772.829-7786.542a3.124,3.124,0,0,1,3.116,3.118,3.122,3.122,0,0,1-3.116,3.117,3.121,3.121,0,0,1-3.118-3.117A3.123,3.123,0,0,1,3772.829-7786.542Z" transform="translate(-3322.234 8383.177)" fill="#d1ccc1"/><path d="M3772.829-7818.59a3.121,3.121,0,0,1,3.116,3.115,3.121,3.121,0,0,1-3.116,3.116,3.121,3.121,0,0,1-3.118-3.116A3.12,3.12,0,0,1,3772.829-7818.59Z" transform="translate(-3322.234 8340.648)" fill="#d1ccc1"/><path d="M3772.829-7829.273a3.12,3.12,0,0,1,3.116,3.115,3.119,3.119,0,0,1-3.116,3.116,3.118,3.118,0,0,1-3.118-3.116A3.119,3.119,0,0,1,3772.829-7829.273Z" transform="translate(-3322.234 8326.471)" fill="#d1ccc1"/><path d="M3772.829-7850.641a3.121,3.121,0,0,1,3.116,3.117,3.12,3.12,0,0,1-3.116,3.114,3.119,3.119,0,0,1-3.118-3.114A3.12,3.12,0,0,1,3772.829-7850.641Z" transform="translate(-3322.234 8298.117)" fill="#d1ccc1"/><path d="M3772.829-7861.321a3.117,3.117,0,0,1,3.116,3.113,3.12,3.12,0,0,1-3.116,3.115,3.12,3.12,0,0,1-3.118-3.115A3.117,3.117,0,0,1,3772.829-7861.321Z" transform="translate(-3322.234 8283.941)" fill="#d1ccc1"/><path d="M3772.829-7872.006a3.121,3.121,0,0,1,3.116,3.115,3.12,3.12,0,0,1-3.116,3.115,3.119,3.119,0,0,1-3.118-3.115A3.12,3.12,0,0,1,3772.829-7872.006Z" transform="translate(-3322.234 8269.765)" fill="#d1ccc1"/><path d="M3772.829-7882.689a3.121,3.121,0,0,1,3.116,3.116,3.116,3.116,0,0,1-3.116,3.113,3.115,3.115,0,0,1-3.118-3.113A3.121,3.121,0,0,1,3772.829-7882.689Z" transform="translate(-3322.234 8255.588)" fill="#d1ccc1"/><path d="M3772.829-7893.371a3.121,3.121,0,0,1,3.116,3.115,3.121,3.121,0,0,1-3.116,3.117,3.12,3.12,0,0,1-3.118-3.117A3.12,3.12,0,0,1,3772.829-7893.371Z" transform="translate(-3322.234 8241.411)" fill="#d1ccc1"/><path d="M3772.829-8042.939a3.124,3.124,0,0,1,3.116,3.118,3.118,3.118,0,0,1-3.116,3.115,3.117,3.117,0,0,1-3.118-3.115A3.123,3.123,0,0,1,3772.829-8042.939Z" transform="translate(-3322.234 8042.939)" fill="#d1ccc1"/><path d="M3772.829-7797.225a3.122,3.122,0,0,1,3.116,3.117,3.122,3.122,0,0,1-3.116,3.118,3.121,3.121,0,0,1-3.118-3.118A3.121,3.121,0,0,1,3772.829-7797.225Z" transform="translate(-3322.234 8369)" fill="#d1ccc1"/><path d="M3772.829-7839.957a3.121,3.121,0,0,1,3.116,3.116,3.121,3.121,0,0,1-3.116,3.116,3.12,3.12,0,0,1-3.118-3.116A3.12,3.12,0,0,1,3772.829-7839.957Z" transform="translate(-3322.234 8312.296)" fill="#d1ccc1"/><path d="M3772.829-7807.906a3.116,3.116,0,0,1,3.116,3.112,3.122,3.122,0,0,1-3.116,3.116,3.121,3.121,0,0,1-3.118-3.116A3.116,3.116,0,0,1,3772.829-7807.906Z" transform="translate(-3322.234 8354.825)" fill="#d1ccc1"/><path d="M3826.243-8042.939a3.125,3.125,0,0,1,3.118,3.118,3.119,3.119,0,0,1-3.118,3.115,3.117,3.117,0,0,1-3.115-3.115A3.123,3.123,0,0,1,3826.243-8042.939Z" transform="translate(-3499.949 8042.939)" fill="#d1ccc1"/><path d="M3676.678-7904.057a3.121,3.121,0,0,1,3.116,3.117,3.123,3.123,0,0,1-3.116,3.118,3.122,3.122,0,0,1-3.115-3.118A3.12,3.12,0,0,1,3676.678-7904.057Z" transform="translate(-3002.347 8227.234)" fill="#d1ccc1"/><path d="M3772.829-7904.057a3.121,3.121,0,0,1,3.116,3.117,3.123,3.123,0,0,1-3.116,3.118,3.123,3.123,0,0,1-3.118-3.118A3.12,3.12,0,0,1,3772.829-7904.057Z" transform="translate(-3322.234 8227.234)" fill="#d1ccc1"/><path d="M3933.077-8042.939a3.124,3.124,0,0,1,3.116,3.118,3.118,3.118,0,0,1-3.116,3.115,3.117,3.117,0,0,1-3.118-3.115A3.123,3.123,0,0,1,3933.077-8042.939Z" transform="translate(-3855.379 8042.939)" fill="#d1ccc1"/><path d="M3965.128-8036.706a3.119,3.119,0,0,1-3.119-3.115,3.125,3.125,0,0,1,3.119-3.118,3.123,3.123,0,0,1,3.115,3.118A3.117,3.117,0,0,1,3965.128-8036.706Z" transform="translate(-3962.009 8042.939)" fill="#d1ccc1"/><path d="M3676.678-7946.788a3.12,3.12,0,0,1,3.116,3.117,3.122,3.122,0,0,1-3.116,3.117,3.122,3.122,0,0,1-3.115-3.117A3.12,3.12,0,0,1,3676.678-7946.788Z" transform="translate(-3002.347 8170.526)" fill="#d1ccc1"/><path d="M3772.829-7946.788a3.121,3.121,0,0,1,3.116,3.117,3.122,3.122,0,0,1-3.116,3.117,3.122,3.122,0,0,1-3.118-3.117A3.12,3.12,0,0,1,3772.829-7946.788Z" transform="translate(-3322.234 8170.526)" fill="#d1ccc1"/><path d="M3815.563-8042.939a3.123,3.123,0,0,1,3.115,3.118,3.117,3.117,0,0,1-3.115,3.115,3.119,3.119,0,0,1-3.118-3.115A3.125,3.125,0,0,1,3815.563-8042.939Z" transform="translate(-3464.406 8042.939)" fill="#d1ccc1"/><path d="M3676.678-7914.738a3.119,3.119,0,0,1,3.116,3.115,3.119,3.119,0,0,1-3.116,3.114,3.119,3.119,0,0,1-3.115-3.114A3.118,3.118,0,0,1,3676.678-7914.738Z" transform="translate(-3002.347 8213.06)" fill="#d1ccc1"/><path d="M3772.829-7914.738a3.119,3.119,0,0,1,3.116,3.115,3.119,3.119,0,0,1-3.116,3.114,3.119,3.119,0,0,1-3.118-3.114A3.118,3.118,0,0,1,3772.829-7914.738Z" transform="translate(-3322.234 8213.06)" fill="#d1ccc1"/><path d="M3804.878-7754.491a3.118,3.118,0,0,1,3.116,3.115,3.121,3.121,0,0,1-3.116,3.116,3.121,3.121,0,0,1-3.116-3.116A3.119,3.119,0,0,1,3804.878-7754.491Z" transform="translate(-3428.863 8425.709)" fill="#d1ccc1"/><path d="M3804.878-7765.174a3.12,3.12,0,0,1,3.116,3.115,3.121,3.121,0,0,1-3.116,3.116,3.121,3.121,0,0,1-3.116-3.116A3.12,3.12,0,0,1,3804.878-7765.174Z" transform="translate(-3428.863 8411.53)" fill="#d1ccc1"/><path d="M3804.878-7775.858a3.121,3.121,0,0,1,3.116,3.116,3.119,3.119,0,0,1-3.116,3.116,3.119,3.119,0,0,1-3.116-3.116A3.122,3.122,0,0,1,3804.878-7775.858Z" transform="translate(-3428.863 8397.354)" fill="#d1ccc1"/><path d="M3804.878-7786.542a3.123,3.123,0,0,1,3.116,3.118,3.121,3.121,0,0,1-3.116,3.117,3.122,3.122,0,0,1-3.116-3.117A3.124,3.124,0,0,1,3804.878-7786.542Z" transform="translate(-3428.863 8383.177)" fill="#d1ccc1"/><path d="M3804.878-7818.59a3.12,3.12,0,0,1,3.116,3.115,3.121,3.121,0,0,1-3.116,3.116,3.121,3.121,0,0,1-3.116-3.116A3.121,3.121,0,0,1,3804.878-7818.59Z" transform="translate(-3428.863 8340.648)" fill="#d1ccc1"/><path d="M3804.878-7829.273a3.12,3.12,0,0,1,3.116,3.115,3.119,3.119,0,0,1-3.116,3.116,3.119,3.119,0,0,1-3.116-3.116A3.12,3.12,0,0,1,3804.878-7829.273Z" transform="translate(-3428.863 8326.471)" fill="#d1ccc1"/><path d="M3804.878-7850.641a3.121,3.121,0,0,1,3.116,3.117,3.12,3.12,0,0,1-3.116,3.114,3.12,3.12,0,0,1-3.116-3.114A3.121,3.121,0,0,1,3804.878-7850.641Z" transform="translate(-3428.863 8298.117)" fill="#d1ccc1"/><path d="M3804.878-7861.321a3.117,3.117,0,0,1,3.116,3.113,3.12,3.12,0,0,1-3.116,3.115,3.12,3.12,0,0,1-3.116-3.115A3.117,3.117,0,0,1,3804.878-7861.321Z" transform="translate(-3428.863 8283.941)" fill="#d1ccc1"/><path d="M3804.878-7872.006a3.12,3.12,0,0,1,3.116,3.115,3.12,3.12,0,0,1-3.116,3.115,3.12,3.12,0,0,1-3.116-3.115A3.121,3.121,0,0,1,3804.878-7872.006Z" transform="translate(-3428.863 8269.765)" fill="#d1ccc1"/><path d="M3804.878-7882.689a3.121,3.121,0,0,1,3.116,3.116,3.115,3.115,0,0,1-3.116,3.113,3.116,3.116,0,0,1-3.116-3.113A3.121,3.121,0,0,1,3804.878-7882.689Z" transform="translate(-3428.863 8255.588)" fill="#d1ccc1"/><path d="M3804.878-7893.371a3.12,3.12,0,0,1,3.116,3.115,3.121,3.121,0,0,1-3.116,3.117,3.121,3.121,0,0,1-3.116-3.117A3.121,3.121,0,0,1,3804.878-7893.371Z" transform="translate(-3428.863 8241.411)" fill="#d1ccc1"/><path d="M3804.878-8042.939a3.124,3.124,0,0,1,3.116,3.118,3.117,3.117,0,0,1-3.116,3.115,3.118,3.118,0,0,1-3.116-3.115A3.124,3.124,0,0,1,3804.878-8042.939Z" transform="translate(-3428.863 8042.939)" fill="#d1ccc1"/><path d="M3804.878-7797.225a3.121,3.121,0,0,1,3.116,3.117,3.122,3.122,0,0,1-3.116,3.118,3.122,3.122,0,0,1-3.116-3.118A3.122,3.122,0,0,1,3804.878-7797.225Z" transform="translate(-3428.863 8369)" fill="#d1ccc1"/><path d="M3804.878-7839.957a3.121,3.121,0,0,1,3.116,3.116,3.121,3.121,0,0,1-3.116,3.116,3.121,3.121,0,0,1-3.116-3.116A3.121,3.121,0,0,1,3804.878-7839.957Z" transform="translate(-3428.863 8312.296)" fill="#d1ccc1"/><path d="M3804.878-7807.906a3.116,3.116,0,0,1,3.116,3.112,3.121,3.121,0,0,1-3.116,3.116,3.122,3.122,0,0,1-3.116-3.116A3.116,3.116,0,0,1,3804.878-7807.906Z" transform="translate(-3428.863 8354.825)" fill="#d1ccc1"/><path d="M3804.878-7904.057a3.121,3.121,0,0,1,3.116,3.117,3.123,3.123,0,0,1-3.116,3.118,3.123,3.123,0,0,1-3.116-3.118A3.121,3.121,0,0,1,3804.878-7904.057Z" transform="translate(-3428.863 8227.234)" fill="#d1ccc1"/><path d="M3804.878-7946.788a3.12,3.12,0,0,1,3.116,3.117,3.122,3.122,0,0,1-3.116,3.117,3.123,3.123,0,0,1-3.116-3.117A3.121,3.121,0,0,1,3804.878-7946.788Z" transform="translate(-3428.863 8170.526)" fill="#d1ccc1"/><path d="M3676.678-7925.421a3.121,3.121,0,0,1,3.116,3.115,3.122,3.122,0,0,1-3.116,3.116,3.121,3.121,0,0,1-3.115-3.116A3.12,3.12,0,0,1,3676.678-7925.421Z" transform="translate(-3002.347 8198.881)" fill="#d1ccc1"/><path d="M3772.829-7925.421a3.121,3.121,0,0,1,3.116,3.115,3.122,3.122,0,0,1-3.116,3.116,3.121,3.121,0,0,1-3.118-3.116A3.12,3.12,0,0,1,3772.829-7925.421Z" transform="translate(-3322.234 8198.881)" fill="#d1ccc1"/><path d="M3794.194-7754.491a3.118,3.118,0,0,1,3.116,3.115,3.121,3.121,0,0,1-3.116,3.116,3.121,3.121,0,0,1-3.116-3.116A3.118,3.118,0,0,1,3794.194-7754.491Z" transform="translate(-3393.319 8425.709)" fill="#d1ccc1"/><path d="M3794.194-7765.174a3.119,3.119,0,0,1,3.116,3.115,3.121,3.121,0,0,1-3.116,3.116,3.121,3.121,0,0,1-3.116-3.116A3.12,3.12,0,0,1,3794.194-7765.174Z" transform="translate(-3393.319 8411.53)" fill="#d1ccc1"/><path d="M3794.194-7775.858a3.121,3.121,0,0,1,3.116,3.116,3.119,3.119,0,0,1-3.116,3.116,3.119,3.119,0,0,1-3.116-3.116A3.121,3.121,0,0,1,3794.194-7775.858Z" transform="translate(-3393.319 8397.354)" fill="#d1ccc1"/><path d="M3794.194-7786.542a3.123,3.123,0,0,1,3.116,3.118,3.121,3.121,0,0,1-3.116,3.117,3.122,3.122,0,0,1-3.116-3.117A3.123,3.123,0,0,1,3794.194-7786.542Z" transform="translate(-3393.319 8383.177)" fill="#d1ccc1"/><path d="M3794.194-7818.59a3.12,3.12,0,0,1,3.116,3.115,3.121,3.121,0,0,1-3.116,3.116,3.121,3.121,0,0,1-3.116-3.116A3.121,3.121,0,0,1,3794.194-7818.59Z" transform="translate(-3393.319 8340.648)" fill="#d1ccc1"/><path d="M3794.194-7829.273a3.119,3.119,0,0,1,3.116,3.115,3.118,3.118,0,0,1-3.116,3.116,3.119,3.119,0,0,1-3.116-3.116A3.12,3.12,0,0,1,3794.194-7829.273Z" transform="translate(-3393.319 8326.471)" fill="#d1ccc1"/><path d="M3794.194-7850.641a3.121,3.121,0,0,1,3.116,3.117,3.119,3.119,0,0,1-3.116,3.114,3.12,3.12,0,0,1-3.116-3.114A3.121,3.121,0,0,1,3794.194-7850.641Z" transform="translate(-3393.319 8298.117)" fill="#d1ccc1"/><path d="M3794.194-7861.321a3.117,3.117,0,0,1,3.116,3.113,3.12,3.12,0,0,1-3.116,3.115,3.12,3.12,0,0,1-3.116-3.115A3.117,3.117,0,0,1,3794.194-7861.321Z" transform="translate(-3393.319 8283.941)" fill="#d1ccc1"/><path d="M3794.194-7872.006a3.12,3.12,0,0,1,3.116,3.115,3.119,3.119,0,0,1-3.116,3.115,3.12,3.12,0,0,1-3.116-3.115A3.121,3.121,0,0,1,3794.194-7872.006Z" transform="translate(-3393.319 8269.765)" fill="#d1ccc1"/><path d="M3794.194-7882.689a3.121,3.121,0,0,1,3.116,3.116,3.115,3.115,0,0,1-3.116,3.113,3.116,3.116,0,0,1-3.116-3.113A3.121,3.121,0,0,1,3794.194-7882.689Z" transform="translate(-3393.319 8255.588)" fill="#d1ccc1"/><path d="M3794.194-7893.371a3.12,3.12,0,0,1,3.116,3.115,3.121,3.121,0,0,1-3.116,3.117,3.121,3.121,0,0,1-3.116-3.117A3.121,3.121,0,0,1,3794.194-7893.371Z" transform="translate(-3393.319 8241.411)" fill="#d1ccc1"/><path d="M3794.194-8042.939a3.123,3.123,0,0,1,3.116,3.118,3.117,3.117,0,0,1-3.116,3.115,3.117,3.117,0,0,1-3.116-3.115A3.124,3.124,0,0,1,3794.194-8042.939Z" transform="translate(-3393.319 8042.939)" fill="#d1ccc1"/><path d="M3794.194-7797.225a3.121,3.121,0,0,1,3.116,3.117,3.121,3.121,0,0,1-3.116,3.118,3.122,3.122,0,0,1-3.116-3.118A3.122,3.122,0,0,1,3794.194-7797.225Z" transform="translate(-3393.319 8369)" fill="#d1ccc1"/><path d="M3794.194-7839.957a3.12,3.12,0,0,1,3.116,3.116,3.12,3.12,0,0,1-3.116,3.116,3.121,3.121,0,0,1-3.116-3.116A3.121,3.121,0,0,1,3794.194-7839.957Z" transform="translate(-3393.319 8312.296)" fill="#d1ccc1"/><path d="M3794.194-7807.906a3.116,3.116,0,0,1,3.116,3.112,3.121,3.121,0,0,1-3.116,3.116,3.121,3.121,0,0,1-3.116-3.116A3.116,3.116,0,0,1,3794.194-7807.906Z" transform="translate(-3393.319 8354.825)" fill="#d1ccc1"/><path d="M3794.194-7904.057a3.121,3.121,0,0,1,3.116,3.117,3.123,3.123,0,0,1-3.116,3.118,3.123,3.123,0,0,1-3.116-3.118A3.121,3.121,0,0,1,3794.194-7904.057Z" transform="translate(-3393.319 8227.234)" fill="#d1ccc1"/><path d="M3794.194-7946.788a3.12,3.12,0,0,1,3.116,3.117,3.122,3.122,0,0,1-3.116,3.117,3.122,3.122,0,0,1-3.116-3.117A3.12,3.12,0,0,1,3794.194-7946.788Z" transform="translate(-3393.319 8170.526)" fill="#d1ccc1"/><path d="M3676.678-7936.106a3.122,3.122,0,0,1,3.116,3.116,3.117,3.117,0,0,1-3.116,3.114,3.117,3.117,0,0,1-3.115-3.114A3.121,3.121,0,0,1,3676.678-7936.106Z" transform="translate(-3002.347 8184.707)" fill="#d1ccc1"/><path d="M3772.829-7936.106a3.122,3.122,0,0,1,3.116,3.116,3.117,3.117,0,0,1-3.116,3.114,3.117,3.117,0,0,1-3.118-3.114A3.121,3.121,0,0,1,3772.829-7936.106Z" transform="translate(-3322.234 8184.707)" fill="#d1ccc1"/><path d="M3783.511-7754.491a3.118,3.118,0,0,1,3.115,3.115,3.12,3.12,0,0,1-3.115,3.116,3.121,3.121,0,0,1-3.116-3.116A3.118,3.118,0,0,1,3783.511-7754.491Z" transform="translate(-3357.777 8425.709)" fill="#d1ccc1"/><path d="M3783.511-7765.174a3.119,3.119,0,0,1,3.115,3.115,3.121,3.121,0,0,1-3.115,3.116,3.121,3.121,0,0,1-3.116-3.116A3.12,3.12,0,0,1,3783.511-7765.174Z" transform="translate(-3357.777 8411.53)" fill="#d1ccc1"/><path d="M3783.511-7775.858a3.121,3.121,0,0,1,3.115,3.116,3.119,3.119,0,0,1-3.115,3.116,3.119,3.119,0,0,1-3.116-3.116A3.121,3.121,0,0,1,3783.511-7775.858Z" transform="translate(-3357.777 8397.354)" fill="#d1ccc1"/><path d="M3783.511-7786.542a3.123,3.123,0,0,1,3.115,3.118,3.121,3.121,0,0,1-3.115,3.117,3.121,3.121,0,0,1-3.116-3.117A3.123,3.123,0,0,1,3783.511-7786.542Z" transform="translate(-3357.777 8383.177)" fill="#d1ccc1"/><path d="M3783.511-7818.59a3.12,3.12,0,0,1,3.115,3.115,3.12,3.12,0,0,1-3.115,3.116,3.121,3.121,0,0,1-3.116-3.116A3.12,3.12,0,0,1,3783.511-7818.59Z" transform="translate(-3357.777 8340.648)" fill="#d1ccc1"/><path d="M3783.511-7829.273a3.119,3.119,0,0,1,3.115,3.115,3.118,3.118,0,0,1-3.115,3.116,3.118,3.118,0,0,1-3.116-3.116A3.12,3.12,0,0,1,3783.511-7829.273Z" transform="translate(-3357.777 8326.471)" fill="#d1ccc1"/><path d="M3783.511-7850.641a3.12,3.12,0,0,1,3.115,3.117,3.119,3.119,0,0,1-3.115,3.114,3.119,3.119,0,0,1-3.116-3.114A3.121,3.121,0,0,1,3783.511-7850.641Z" transform="translate(-3357.777 8298.117)" fill="#d1ccc1"/><path d="M3783.511-7861.321a3.116,3.116,0,0,1,3.115,3.113,3.12,3.12,0,0,1-3.115,3.115,3.12,3.12,0,0,1-3.116-3.115A3.117,3.117,0,0,1,3783.511-7861.321Z" transform="translate(-3357.777 8283.941)" fill="#d1ccc1"/><path d="M3783.511-7872.006a3.12,3.12,0,0,1,3.115,3.115,3.119,3.119,0,0,1-3.115,3.115,3.12,3.12,0,0,1-3.116-3.115A3.12,3.12,0,0,1,3783.511-7872.006Z" transform="translate(-3357.777 8269.765)" fill="#d1ccc1"/><path d="M3783.511-7882.689a3.12,3.12,0,0,1,3.115,3.116,3.115,3.115,0,0,1-3.115,3.113,3.115,3.115,0,0,1-3.116-3.113A3.121,3.121,0,0,1,3783.511-7882.689Z" transform="translate(-3357.777 8255.588)" fill="#d1ccc1"/><path d="M3783.511-7893.371a3.12,3.12,0,0,1,3.115,3.115,3.12,3.12,0,0,1-3.115,3.117,3.121,3.121,0,0,1-3.116-3.117A3.12,3.12,0,0,1,3783.511-7893.371Z" transform="translate(-3357.777 8241.411)" fill="#d1ccc1"/><path d="M3783.511-8042.939a3.123,3.123,0,0,1,3.115,3.118,3.117,3.117,0,0,1-3.115,3.115,3.117,3.117,0,0,1-3.116-3.115A3.123,3.123,0,0,1,3783.511-8042.939Z" transform="translate(-3357.777 8042.939)" fill="#d1ccc1"/><path d="M3783.511-7797.225a3.121,3.121,0,0,1,3.115,3.117,3.121,3.121,0,0,1-3.115,3.118,3.121,3.121,0,0,1-3.116-3.118A3.121,3.121,0,0,1,3783.511-7797.225Z" transform="translate(-3357.777 8369)" fill="#d1ccc1"/><path d="M3783.511-7839.957a3.12,3.12,0,0,1,3.115,3.116,3.12,3.12,0,0,1-3.115,3.116,3.12,3.12,0,0,1-3.116-3.116A3.12,3.12,0,0,1,3783.511-7839.957Z" transform="translate(-3357.777 8312.296)" fill="#d1ccc1"/><path d="M3783.511-7807.906a3.116,3.116,0,0,1,3.115,3.112,3.121,3.121,0,0,1-3.115,3.116,3.121,3.121,0,0,1-3.116-3.116A3.116,3.116,0,0,1,3783.511-7807.906Z" transform="translate(-3357.777 8354.825)" fill="#d1ccc1"/><path d="M3783.511-7904.057a3.12,3.12,0,0,1,3.115,3.117,3.122,3.122,0,0,1-3.115,3.118,3.123,3.123,0,0,1-3.116-3.118A3.121,3.121,0,0,1,3783.511-7904.057Z" transform="translate(-3357.777 8227.234)" fill="#d1ccc1"/><path d="M3783.511-7946.788a3.12,3.12,0,0,1,3.115,3.117,3.122,3.122,0,0,1-3.115,3.117,3.122,3.122,0,0,1-3.116-3.117A3.12,3.12,0,0,1,3783.511-7946.788Z" transform="translate(-3357.777 8170.526)" fill="#d1ccc1"/><path d="M3676.678-7957.472a3.121,3.121,0,0,1,3.116,3.117,3.124,3.124,0,0,1-3.116,3.118,3.124,3.124,0,0,1-3.115-3.118A3.12,3.12,0,0,1,3676.678-7957.472Z" transform="translate(-3002.347 8156.351)" fill="#d1ccc1"/><path d="M3772.829-7957.472a3.121,3.121,0,0,1,3.116,3.117,3.125,3.125,0,0,1-3.116,3.118,3.124,3.124,0,0,1-3.118-3.118A3.12,3.12,0,0,1,3772.829-7957.472Z" transform="translate(-3322.234 8156.351)" fill="#d1ccc1"/><path d="M3762.146-7754.491a3.118,3.118,0,0,1,3.116,3.115,3.121,3.121,0,0,1-3.116,3.116,3.122,3.122,0,0,1-3.118-3.116A3.12,3.12,0,0,1,3762.146-7754.491Z" transform="translate(-3286.691 8425.709)" fill="#d1ccc1"/><path d="M3762.146-7765.174a3.12,3.12,0,0,1,3.116,3.115,3.121,3.121,0,0,1-3.116,3.116,3.122,3.122,0,0,1-3.118-3.116A3.121,3.121,0,0,1,3762.146-7765.174Z" transform="translate(-3286.691 8411.53)" fill="#d1ccc1"/><path d="M3762.146-7775.858a3.121,3.121,0,0,1,3.116,3.116,3.119,3.119,0,0,1-3.116,3.116,3.12,3.12,0,0,1-3.118-3.116A3.123,3.123,0,0,1,3762.146-7775.858Z" transform="translate(-3286.691 8397.354)" fill="#d1ccc1"/><path d="M3762.146-7786.542a3.123,3.123,0,0,1,3.116,3.118,3.121,3.121,0,0,1-3.116,3.117,3.123,3.123,0,0,1-3.118-3.117A3.125,3.125,0,0,1,3762.146-7786.542Z" transform="translate(-3286.691 8383.177)" fill="#d1ccc1"/><path d="M3762.146-7818.59a3.12,3.12,0,0,1,3.116,3.115,3.121,3.121,0,0,1-3.116,3.116,3.122,3.122,0,0,1-3.118-3.116A3.122,3.122,0,0,1,3762.146-7818.59Z" transform="translate(-3286.691 8340.648)" fill="#d1ccc1"/><path d="M3762.146-7829.273a3.12,3.12,0,0,1,3.116,3.115,3.119,3.119,0,0,1-3.116,3.116,3.12,3.12,0,0,1-3.118-3.116A3.121,3.121,0,0,1,3762.146-7829.273Z" transform="translate(-3286.691 8326.471)" fill="#d1ccc1"/><path d="M3762.146-7850.641a3.121,3.121,0,0,1,3.116,3.117,3.12,3.12,0,0,1-3.116,3.114,3.121,3.121,0,0,1-3.118-3.114A3.122,3.122,0,0,1,3762.146-7850.641Z" transform="translate(-3286.691 8298.117)" fill="#d1ccc1"/><path d="M3762.146-7861.321a3.117,3.117,0,0,1,3.116,3.113,3.12,3.12,0,0,1-3.116,3.115,3.121,3.121,0,0,1-3.118-3.115A3.118,3.118,0,0,1,3762.146-7861.321Z" transform="translate(-3286.691 8283.941)" fill="#d1ccc1"/><path d="M3762.146-7872.006a3.12,3.12,0,0,1,3.116,3.115,3.12,3.12,0,0,1-3.116,3.115,3.121,3.121,0,0,1-3.118-3.115A3.122,3.122,0,0,1,3762.146-7872.006Z" transform="translate(-3286.691 8269.765)" fill="#d1ccc1"/><path d="M3762.146-7882.689a3.121,3.121,0,0,1,3.116,3.116,3.115,3.115,0,0,1-3.116,3.113,3.117,3.117,0,0,1-3.118-3.113A3.122,3.122,0,0,1,3762.146-7882.689Z" transform="translate(-3286.691 8255.588)" fill="#d1ccc1"/><path d="M3762.146-7893.371a3.12,3.12,0,0,1,3.116,3.115,3.121,3.121,0,0,1-3.116,3.117,3.122,3.122,0,0,1-3.118-3.117A3.122,3.122,0,0,1,3762.146-7893.371Z" transform="translate(-3286.691 8241.411)" fill="#d1ccc1"/><path d="M3762.146-8042.939a3.123,3.123,0,0,1,3.116,3.118,3.117,3.117,0,0,1-3.116,3.115,3.119,3.119,0,0,1-3.118-3.115A3.125,3.125,0,0,1,3762.146-8042.939Z" transform="translate(-3286.691 8042.939)" fill="#d1ccc1"/><path d="M3762.146-7797.225a3.121,3.121,0,0,1,3.116,3.117,3.122,3.122,0,0,1-3.116,3.118,3.123,3.123,0,0,1-3.118-3.118A3.123,3.123,0,0,1,3762.146-7797.225Z" transform="translate(-3286.691 8369)" fill="#d1ccc1"/><path d="M3762.146-7839.957a3.121,3.121,0,0,1,3.116,3.116,3.121,3.121,0,0,1-3.116,3.116,3.122,3.122,0,0,1-3.118-3.116A3.122,3.122,0,0,1,3762.146-7839.957Z" transform="translate(-3286.691 8312.296)" fill="#d1ccc1"/><path d="M3762.146-7807.906a3.116,3.116,0,0,1,3.116,3.112,3.121,3.121,0,0,1-3.116,3.116,3.123,3.123,0,0,1-3.118-3.116A3.117,3.117,0,0,1,3762.146-7807.906Z" transform="translate(-3286.691 8354.825)" fill="#d1ccc1"/><path d="M3762.146-7904.057a3.121,3.121,0,0,1,3.116,3.117,3.123,3.123,0,0,1-3.116,3.118,3.124,3.124,0,0,1-3.118-3.118A3.122,3.122,0,0,1,3762.146-7904.057Z" transform="translate(-3286.691 8227.234)" fill="#d1ccc1"/><path d="M3762.146-7946.788a3.12,3.12,0,0,1,3.116,3.117,3.122,3.122,0,0,1-3.116,3.117,3.123,3.123,0,0,1-3.118-3.117A3.122,3.122,0,0,1,3762.146-7946.788Z" transform="translate(-3286.691 8170.526)" fill="#d1ccc1"/><path d="M3762.146-7914.738a3.118,3.118,0,0,1,3.116,3.115,3.119,3.119,0,0,1-3.116,3.114,3.12,3.12,0,0,1-3.118-3.114A3.12,3.12,0,0,1,3762.146-7914.738Z" transform="translate(-3286.691 8213.06)" fill="#d1ccc1"/><path d="M3762.146-7925.421a3.12,3.12,0,0,1,3.116,3.115,3.121,3.121,0,0,1-3.116,3.116,3.123,3.123,0,0,1-3.118-3.116A3.122,3.122,0,0,1,3762.146-7925.421Z" transform="translate(-3286.691 8198.881)" fill="#d1ccc1"/><path d="M3762.146-7936.106a3.121,3.121,0,0,1,3.116,3.116,3.117,3.117,0,0,1-3.116,3.114,3.118,3.118,0,0,1-3.118-3.114A3.123,3.123,0,0,1,3762.146-7936.106Z" transform="translate(-3286.691 8184.707)" fill="#d1ccc1"/><path d="M3762.146-7957.472a3.121,3.121,0,0,1,3.116,3.117,3.124,3.124,0,0,1-3.116,3.118,3.126,3.126,0,0,1-3.118-3.118A3.122,3.122,0,0,1,3762.146-7957.472Z" transform="translate(-3286.691 8156.351)" fill="#d1ccc1"/><path d="M3804.878-7957.472a3.121,3.121,0,0,1,3.116,3.117,3.124,3.124,0,0,1-3.116,3.118,3.125,3.125,0,0,1-3.116-3.118A3.121,3.121,0,0,1,3804.878-7957.472Z" transform="translate(-3428.863 8156.351)" fill="#d1ccc1"/><path d="M3794.194-7957.472a3.121,3.121,0,0,1,3.116,3.117,3.124,3.124,0,0,1-3.116,3.118,3.124,3.124,0,0,1-3.116-3.118A3.121,3.121,0,0,1,3794.194-7957.472Z" transform="translate(-3393.319 8156.351)" fill="#d1ccc1"/><path d="M3783.511-7957.472a3.12,3.12,0,0,1,3.115,3.117,3.124,3.124,0,0,1-3.115,3.118,3.124,3.124,0,0,1-3.116-3.118A3.121,3.121,0,0,1,3783.511-7957.472Z" transform="translate(-3357.777 8156.351)" fill="#d1ccc1"/><path d="M3676.678-7968.153a3.116,3.116,0,0,1,3.116,3.112,3.121,3.121,0,0,1-3.116,3.115,3.12,3.12,0,0,1-3.115-3.115A3.116,3.116,0,0,1,3676.678-7968.153Z" transform="translate(-3002.347 8142.175)" fill="#d1ccc1"/><path d="M3772.829-7968.153a3.116,3.116,0,0,1,3.116,3.112,3.121,3.121,0,0,1-3.116,3.115,3.12,3.12,0,0,1-3.118-3.115A3.116,3.116,0,0,1,3772.829-7968.153Z" transform="translate(-3322.234 8142.175)" fill="#d1ccc1"/><path d="M3762.146-7968.153a3.116,3.116,0,0,1,3.116,3.112,3.12,3.12,0,0,1-3.116,3.115,3.122,3.122,0,0,1-3.118-3.115A3.117,3.117,0,0,1,3762.146-7968.153Z" transform="translate(-3286.691 8142.175)" fill="#d1ccc1"/><path d="M3751.46-7754.491a3.118,3.118,0,0,1,3.116,3.115,3.121,3.121,0,0,1-3.116,3.116,3.12,3.12,0,0,1-3.115-3.116A3.117,3.117,0,0,1,3751.46-7754.491Z" transform="translate(-3251.146 8425.709)" fill="#d1ccc1"/><path d="M3751.46-7765.174a3.12,3.12,0,0,1,3.116,3.115,3.121,3.121,0,0,1-3.116,3.116,3.12,3.12,0,0,1-3.115-3.116A3.119,3.119,0,0,1,3751.46-7765.174Z" transform="translate(-3251.146 8411.53)" fill="#d1ccc1"/><path d="M3751.46-7775.858a3.121,3.121,0,0,1,3.116,3.116,3.119,3.119,0,0,1-3.116,3.116,3.118,3.118,0,0,1-3.115-3.116A3.121,3.121,0,0,1,3751.46-7775.858Z" transform="translate(-3251.146 8397.354)" fill="#d1ccc1"/><path d="M3751.46-7786.542a3.123,3.123,0,0,1,3.116,3.118,3.121,3.121,0,0,1-3.116,3.117,3.121,3.121,0,0,1-3.115-3.117A3.122,3.122,0,0,1,3751.46-7786.542Z" transform="translate(-3251.146 8383.177)" fill="#d1ccc1"/><path d="M3751.46-7818.59a3.12,3.12,0,0,1,3.116,3.115,3.121,3.121,0,0,1-3.116,3.116,3.12,3.12,0,0,1-3.115-3.116A3.12,3.12,0,0,1,3751.46-7818.59Z" transform="translate(-3251.146 8340.648)" fill="#d1ccc1"/><path d="M3751.46-7829.273a3.12,3.12,0,0,1,3.116,3.115,3.119,3.119,0,0,1-3.116,3.116,3.118,3.118,0,0,1-3.115-3.116A3.119,3.119,0,0,1,3751.46-7829.273Z" transform="translate(-3251.146 8326.471)" fill="#d1ccc1"/><path d="M3751.46-7850.641a3.121,3.121,0,0,1,3.116,3.117,3.119,3.119,0,0,1-3.116,3.114,3.119,3.119,0,0,1-3.115-3.114A3.12,3.12,0,0,1,3751.46-7850.641Z" transform="translate(-3251.146 8298.117)" fill="#d1ccc1"/><path d="M3751.46-7861.321a3.117,3.117,0,0,1,3.116,3.113,3.12,3.12,0,0,1-3.116,3.115,3.119,3.119,0,0,1-3.115-3.115A3.116,3.116,0,0,1,3751.46-7861.321Z" transform="translate(-3251.146 8283.941)" fill="#d1ccc1"/><path d="M3751.46-7872.006a3.12,3.12,0,0,1,3.116,3.115,3.12,3.12,0,0,1-3.116,3.115,3.119,3.119,0,0,1-3.115-3.115A3.12,3.12,0,0,1,3751.46-7872.006Z" transform="translate(-3251.146 8269.765)" fill="#d1ccc1"/><path d="M3751.46-7882.689a3.121,3.121,0,0,1,3.116,3.116,3.115,3.115,0,0,1-3.116,3.113,3.115,3.115,0,0,1-3.115-3.113A3.12,3.12,0,0,1,3751.46-7882.689Z" transform="translate(-3251.146 8255.588)" fill="#d1ccc1"/><path d="M3751.46-7893.371a3.12,3.12,0,0,1,3.116,3.115,3.121,3.121,0,0,1-3.116,3.117,3.12,3.12,0,0,1-3.115-3.117A3.12,3.12,0,0,1,3751.46-7893.371Z" transform="translate(-3251.146 8241.411)" fill="#d1ccc1"/><path d="M3751.46-8042.939a3.123,3.123,0,0,1,3.116,3.118,3.117,3.117,0,0,1-3.116,3.115,3.117,3.117,0,0,1-3.115-3.115A3.123,3.123,0,0,1,3751.46-8042.939Z" transform="translate(-3251.146 8042.939)" fill="#d1ccc1"/><path d="M3751.46-7797.225a3.121,3.121,0,0,1,3.116,3.117,3.122,3.122,0,0,1-3.116,3.118,3.121,3.121,0,0,1-3.115-3.118A3.121,3.121,0,0,1,3751.46-7797.225Z" transform="translate(-3251.146 8369)" fill="#d1ccc1"/><path d="M3751.46-7839.957a3.121,3.121,0,0,1,3.116,3.116,3.121,3.121,0,0,1-3.116,3.116,3.12,3.12,0,0,1-3.115-3.116A3.12,3.12,0,0,1,3751.46-7839.957Z" transform="translate(-3251.146 8312.296)" fill="#d1ccc1"/><path d="M3751.46-7807.906a3.116,3.116,0,0,1,3.116,3.112,3.121,3.121,0,0,1-3.116,3.116,3.121,3.121,0,0,1-3.115-3.116A3.115,3.115,0,0,1,3751.46-7807.906Z" transform="translate(-3251.146 8354.825)" fill="#d1ccc1"/><path d="M3751.46-7904.057a3.121,3.121,0,0,1,3.116,3.117,3.123,3.123,0,0,1-3.116,3.118,3.122,3.122,0,0,1-3.115-3.118A3.12,3.12,0,0,1,3751.46-7904.057Z" transform="translate(-3251.146 8227.234)" fill="#d1ccc1"/><path d="M3751.46-7946.788a3.12,3.12,0,0,1,3.116,3.117,3.122,3.122,0,0,1-3.116,3.117,3.121,3.121,0,0,1-3.115-3.117A3.119,3.119,0,0,1,3751.46-7946.788Z" transform="translate(-3251.146 8170.526)" fill="#d1ccc1"/><path d="M3751.46-7914.738a3.118,3.118,0,0,1,3.116,3.115,3.119,3.119,0,0,1-3.116,3.114,3.118,3.118,0,0,1-3.115-3.114A3.118,3.118,0,0,1,3751.46-7914.738Z" transform="translate(-3251.146 8213.06)" fill="#d1ccc1"/><path d="M3751.46-7925.421a3.12,3.12,0,0,1,3.116,3.115,3.121,3.121,0,0,1-3.116,3.116,3.121,3.121,0,0,1-3.115-3.116A3.12,3.12,0,0,1,3751.46-7925.421Z" transform="translate(-3251.146 8198.881)" fill="#d1ccc1"/><path d="M3751.46-7936.106a3.121,3.121,0,0,1,3.116,3.116,3.117,3.117,0,0,1-3.116,3.114,3.116,3.116,0,0,1-3.115-3.114A3.121,3.121,0,0,1,3751.46-7936.106Z" transform="translate(-3251.146 8184.707)" fill="#d1ccc1"/><path d="M3751.46-7957.472a3.121,3.121,0,0,1,3.116,3.117,3.124,3.124,0,0,1-3.116,3.118,3.123,3.123,0,0,1-3.115-3.118A3.12,3.12,0,0,1,3751.46-7957.472Z" transform="translate(-3251.146 8156.351)" fill="#d1ccc1"/><path d="M3751.46-7968.153a3.116,3.116,0,0,1,3.116,3.112,3.12,3.12,0,0,1-3.116,3.115,3.12,3.12,0,0,1-3.115-3.115A3.115,3.115,0,0,1,3751.46-7968.153Z" transform="translate(-3251.146 8142.175)" fill="#d1ccc1"/><path d="M3804.878-7968.153a3.116,3.116,0,0,1,3.116,3.112,3.12,3.12,0,0,1-3.116,3.115,3.121,3.121,0,0,1-3.116-3.115A3.116,3.116,0,0,1,3804.878-7968.153Z" transform="translate(-3428.863 8142.175)" fill="#d1ccc1"/><path d="M3794.194-7968.153a3.116,3.116,0,0,1,3.116,3.112,3.12,3.12,0,0,1-3.116,3.115,3.121,3.121,0,0,1-3.116-3.115A3.116,3.116,0,0,1,3794.194-7968.153Z" transform="translate(-3393.319 8142.175)" fill="#d1ccc1"/><path d="M3783.511-7968.153a3.116,3.116,0,0,1,3.115,3.112,3.12,3.12,0,0,1-3.115,3.115,3.12,3.12,0,0,1-3.116-3.115A3.116,3.116,0,0,1,3783.511-7968.153Z" transform="translate(-3357.777 8142.175)" fill="#d1ccc1"/><path d="M3676.678-7978.838a3.12,3.12,0,0,1,3.116,3.115,3.122,3.122,0,0,1-3.116,3.116,3.121,3.121,0,0,1-3.115-3.116A3.119,3.119,0,0,1,3676.678-7978.838Z" transform="translate(-3002.347 8127.999)" fill="#d1ccc1"/><path d="M3740.778-7754.491a3.118,3.118,0,0,1,3.115,3.115,3.12,3.12,0,0,1-3.115,3.116,3.121,3.121,0,0,1-3.116-3.116A3.118,3.118,0,0,1,3740.778-7754.491Z" transform="translate(-3215.604 8425.709)" fill="#d1ccc1"/><path d="M3740.778-7765.174a3.119,3.119,0,0,1,3.115,3.115,3.12,3.12,0,0,1-3.115,3.116,3.121,3.121,0,0,1-3.116-3.116A3.119,3.119,0,0,1,3740.778-7765.174Z" transform="translate(-3215.604 8411.53)" fill="#d1ccc1"/><path d="M3740.778-7786.542a3.123,3.123,0,0,1,3.115,3.118,3.121,3.121,0,0,1-3.115,3.117,3.121,3.121,0,0,1-3.116-3.117A3.123,3.123,0,0,1,3740.778-7786.542Z" transform="translate(-3215.604 8383.177)" fill="#d1ccc1"/><path d="M3740.778-7818.59a3.12,3.12,0,0,1,3.115,3.115,3.12,3.12,0,0,1-3.115,3.116,3.121,3.121,0,0,1-3.116-3.116A3.12,3.12,0,0,1,3740.778-7818.59Z" transform="translate(-3215.604 8340.648)" fill="#d1ccc1"/><path d="M3740.778-7829.273a3.119,3.119,0,0,1,3.115,3.115,3.118,3.118,0,0,1-3.115,3.116,3.118,3.118,0,0,1-3.116-3.116A3.119,3.119,0,0,1,3740.778-7829.273Z" transform="translate(-3215.604 8326.471)" fill="#d1ccc1"/><path d="M3740.778-7850.641a3.12,3.12,0,0,1,3.115,3.117,3.119,3.119,0,0,1-3.115,3.114,3.119,3.119,0,0,1-3.116-3.114A3.121,3.121,0,0,1,3740.778-7850.641Z" transform="translate(-3215.604 8298.117)" fill="#d1ccc1"/><path d="M3740.778-7861.321a3.116,3.116,0,0,1,3.115,3.113,3.119,3.119,0,0,1-3.115,3.115,3.12,3.12,0,0,1-3.116-3.115A3.117,3.117,0,0,1,3740.778-7861.321Z" transform="translate(-3215.604 8283.941)" fill="#d1ccc1"/><path d="M3740.778-7872.006a3.12,3.12,0,0,1,3.115,3.115,3.119,3.119,0,0,1-3.115,3.115,3.119,3.119,0,0,1-3.116-3.115A3.12,3.12,0,0,1,3740.778-7872.006Z" transform="translate(-3215.604 8269.765)" fill="#d1ccc1"/><path d="M3740.778-7882.689a3.12,3.12,0,0,1,3.115,3.116,3.115,3.115,0,0,1-3.115,3.113,3.115,3.115,0,0,1-3.116-3.113A3.121,3.121,0,0,1,3740.778-7882.689Z" transform="translate(-3215.604 8255.588)" fill="#d1ccc1"/><path d="M3740.778-7893.371a3.12,3.12,0,0,1,3.115,3.115,3.12,3.12,0,0,1-3.115,3.117,3.121,3.121,0,0,1-3.116-3.117A3.12,3.12,0,0,1,3740.778-7893.371Z" transform="translate(-3215.604 8241.411)" fill="#d1ccc1"/><path d="M3740.778-8042.939a3.123,3.123,0,0,1,3.115,3.118,3.117,3.117,0,0,1-3.115,3.115,3.117,3.117,0,0,1-3.116-3.115A3.123,3.123,0,0,1,3740.778-8042.939Z" transform="translate(-3215.604 8042.939)" fill="#d1ccc1"/><path d="M3740.778-7797.225a3.121,3.121,0,0,1,3.115,3.117,3.121,3.121,0,0,1-3.115,3.118,3.121,3.121,0,0,1-3.116-3.118A3.121,3.121,0,0,1,3740.778-7797.225Z" transform="translate(-3215.604 8369)" fill="#d1ccc1"/><path d="M3740.778-7839.957a3.12,3.12,0,0,1,3.115,3.116,3.12,3.12,0,0,1-3.115,3.116,3.12,3.12,0,0,1-3.116-3.116A3.12,3.12,0,0,1,3740.778-7839.957Z" transform="translate(-3215.604 8312.296)" fill="#d1ccc1"/><path d="M3740.778-7807.906a3.115,3.115,0,0,1,3.115,3.112,3.121,3.121,0,0,1-3.115,3.116,3.121,3.121,0,0,1-3.116-3.116A3.116,3.116,0,0,1,3740.778-7807.906Z" transform="translate(-3215.604 8354.825)" fill="#d1ccc1"/><path d="M3740.778-7775.858a3.121,3.121,0,0,1,3.115,3.116,3.118,3.118,0,0,1-3.115,3.116,3.119,3.119,0,0,1-3.116-3.116A3.121,3.121,0,0,1,3740.778-7775.858Z" transform="translate(-3215.604 8397.354)" fill="#d1ccc1"/><path d="M3740.778-7904.057a3.12,3.12,0,0,1,3.115,3.117,3.122,3.122,0,0,1-3.115,3.118,3.123,3.123,0,0,1-3.116-3.118A3.121,3.121,0,0,1,3740.778-7904.057Z" transform="translate(-3215.604 8227.234)" fill="#d1ccc1"/><path d="M3740.778-7946.788a3.12,3.12,0,0,1,3.115,3.117,3.121,3.121,0,0,1-3.115,3.117,3.122,3.122,0,0,1-3.116-3.117A3.12,3.12,0,0,1,3740.778-7946.788Z" transform="translate(-3215.604 8170.526)" fill="#d1ccc1"/><path d="M3740.778-7914.738a3.118,3.118,0,0,1,3.115,3.115,3.118,3.118,0,0,1-3.115,3.114,3.119,3.119,0,0,1-3.116-3.114A3.118,3.118,0,0,1,3740.778-7914.738Z" transform="translate(-3215.604 8213.06)" fill="#d1ccc1"/><path d="M3740.778-7925.421a3.12,3.12,0,0,1,3.115,3.115,3.121,3.121,0,0,1-3.115,3.116,3.121,3.121,0,0,1-3.116-3.116A3.12,3.12,0,0,1,3740.778-7925.421Z" transform="translate(-3215.604 8198.881)" fill="#d1ccc1"/><path d="M3740.778-7936.106a3.121,3.121,0,0,1,3.115,3.116,3.116,3.116,0,0,1-3.115,3.114,3.117,3.117,0,0,1-3.116-3.114A3.121,3.121,0,0,1,3740.778-7936.106Z" transform="translate(-3215.604 8184.707)" fill="#d1ccc1"/><path d="M3740.778-7957.472a3.12,3.12,0,0,1,3.115,3.117,3.123,3.123,0,0,1-3.115,3.118,3.124,3.124,0,0,1-3.116-3.118A3.121,3.121,0,0,1,3740.778-7957.472Z" transform="translate(-3215.604 8156.351)" fill="#d1ccc1"/><path d="M3740.778-7968.153a3.115,3.115,0,0,1,3.115,3.112,3.12,3.12,0,0,1-3.115,3.115,3.12,3.12,0,0,1-3.116-3.115A3.116,3.116,0,0,1,3740.778-7968.153Z" transform="translate(-3215.604 8142.175)" fill="#d1ccc1"/><path d="M3740.778-7978.838a3.119,3.119,0,0,1,3.115,3.115,3.121,3.121,0,0,1-3.115,3.116,3.122,3.122,0,0,1-3.116-3.116A3.119,3.119,0,0,1,3740.778-7978.838Z" transform="translate(-3215.604 8127.999)" fill="#d1ccc1"/><path d="M3772.829-7978.838a3.12,3.12,0,0,1,3.116,3.115,3.122,3.122,0,0,1-3.116,3.116,3.122,3.122,0,0,1-3.118-3.116A3.119,3.119,0,0,1,3772.829-7978.838Z" transform="translate(-3322.234 8127.999)" fill="#d1ccc1"/><path d="M3762.146-7978.838a3.12,3.12,0,0,1,3.116,3.115,3.122,3.122,0,0,1-3.116,3.116,3.123,3.123,0,0,1-3.118-3.116A3.121,3.121,0,0,1,3762.146-7978.838Z" transform="translate(-3286.691 8127.999)" fill="#d1ccc1"/><path d="M3751.46-7978.838a3.12,3.12,0,0,1,3.116,3.115,3.122,3.122,0,0,1-3.116,3.116,3.121,3.121,0,0,1-3.115-3.116A3.119,3.119,0,0,1,3751.46-7978.838Z" transform="translate(-3251.146 8127.999)" fill="#d1ccc1"/><path d="M3804.878-7978.838a3.12,3.12,0,0,1,3.116,3.115,3.122,3.122,0,0,1-3.116,3.116,3.122,3.122,0,0,1-3.116-3.116A3.12,3.12,0,0,1,3804.878-7978.838Z" transform="translate(-3428.863 8127.999)" fill="#d1ccc1"/><path d="M3794.194-7978.838a3.119,3.119,0,0,1,3.116,3.115,3.122,3.122,0,0,1-3.116,3.116,3.122,3.122,0,0,1-3.116-3.116A3.12,3.12,0,0,1,3794.194-7978.838Z" transform="translate(-3393.319 8127.999)" fill="#d1ccc1"/><path d="M3783.511-7978.838a3.119,3.119,0,0,1,3.115,3.115,3.121,3.121,0,0,1-3.115,3.116,3.122,3.122,0,0,1-3.116-3.116A3.12,3.12,0,0,1,3783.511-7978.838Z" transform="translate(-3357.777 8127.999)" fill="#d1ccc1"/><path d="M3676.678-7989.521a3.12,3.12,0,0,1,3.116,3.115,3.117,3.117,0,0,1-3.116,3.113,3.116,3.116,0,0,1-3.115-3.113A3.119,3.119,0,0,1,3676.678-7989.521Z" transform="translate(-3002.347 8113.822)" fill="#d1ccc1"/><path d="M3740.778-7989.521a3.119,3.119,0,0,1,3.115,3.115,3.116,3.116,0,0,1-3.115,3.113,3.117,3.117,0,0,1-3.116-3.113A3.119,3.119,0,0,1,3740.778-7989.521Z" transform="translate(-3215.604 8113.822)" fill="#d1ccc1"/><path d="M3730.1-7754.491a3.118,3.118,0,0,1,3.116,3.115,3.121,3.121,0,0,1-3.116,3.116,3.121,3.121,0,0,1-3.116-3.116A3.118,3.118,0,0,1,3730.1-7754.491Z" transform="translate(-3180.063 8425.709)" fill="#d1ccc1"/><path d="M3730.1-7765.174a3.12,3.12,0,0,1,3.116,3.115,3.121,3.121,0,0,1-3.116,3.116,3.121,3.121,0,0,1-3.116-3.116A3.12,3.12,0,0,1,3730.1-7765.174Z" transform="translate(-3180.063 8411.53)" fill="#d1ccc1"/><path d="M3730.1-7786.542a3.123,3.123,0,0,1,3.116,3.118,3.121,3.121,0,0,1-3.116,3.117,3.122,3.122,0,0,1-3.116-3.117A3.123,3.123,0,0,1,3730.1-7786.542Z" transform="translate(-3180.063 8383.177)" fill="#d1ccc1"/><path d="M3730.1-7818.59a3.12,3.12,0,0,1,3.116,3.115,3.121,3.121,0,0,1-3.116,3.116,3.121,3.121,0,0,1-3.116-3.116A3.121,3.121,0,0,1,3730.1-7818.59Z" transform="translate(-3180.063 8340.648)" fill="#d1ccc1"/><path d="M3730.1-7829.273a3.119,3.119,0,0,1,3.116,3.115,3.118,3.118,0,0,1-3.116,3.116,3.119,3.119,0,0,1-3.116-3.116A3.12,3.12,0,0,1,3730.1-7829.273Z" transform="translate(-3180.063 8326.471)" fill="#d1ccc1"/><path d="M3730.1-7850.641a3.121,3.121,0,0,1,3.116,3.117,3.119,3.119,0,0,1-3.116,3.114,3.12,3.12,0,0,1-3.116-3.114A3.121,3.121,0,0,1,3730.1-7850.641Z" transform="translate(-3180.063 8298.117)" fill="#d1ccc1"/><path d="M3730.1-7861.321a3.117,3.117,0,0,1,3.116,3.113,3.12,3.12,0,0,1-3.116,3.115,3.12,3.12,0,0,1-3.116-3.115A3.117,3.117,0,0,1,3730.1-7861.321Z" transform="translate(-3180.063 8283.941)" fill="#d1ccc1"/><path d="M3730.1-7872.006a3.12,3.12,0,0,1,3.116,3.115,3.12,3.12,0,0,1-3.116,3.115,3.12,3.12,0,0,1-3.116-3.115A3.121,3.121,0,0,1,3730.1-7872.006Z" transform="translate(-3180.063 8269.765)" fill="#d1ccc1"/><path d="M3730.1-7882.689a3.121,3.121,0,0,1,3.116,3.116,3.115,3.115,0,0,1-3.116,3.113,3.116,3.116,0,0,1-3.116-3.113A3.121,3.121,0,0,1,3730.1-7882.689Z" transform="translate(-3180.063 8255.588)" fill="#d1ccc1"/><path d="M3730.1-7893.371a3.12,3.12,0,0,1,3.116,3.115,3.121,3.121,0,0,1-3.116,3.117,3.121,3.121,0,0,1-3.116-3.117A3.121,3.121,0,0,1,3730.1-7893.371Z" transform="translate(-3180.063 8241.411)" fill="#d1ccc1"/><path d="M3730.1-8042.939a3.123,3.123,0,0,1,3.116,3.118,3.117,3.117,0,0,1-3.116,3.115,3.117,3.117,0,0,1-3.116-3.115A3.124,3.124,0,0,1,3730.1-8042.939Z" transform="translate(-3180.063 8042.939)" fill="#d1ccc1"/><path d="M3730.1-7797.225a3.121,3.121,0,0,1,3.116,3.117,3.121,3.121,0,0,1-3.116,3.118,3.122,3.122,0,0,1-3.116-3.118A3.122,3.122,0,0,1,3730.1-7797.225Z" transform="translate(-3180.063 8369)" fill="#d1ccc1"/><path d="M3730.1-7839.957a3.12,3.12,0,0,1,3.116,3.116,3.12,3.12,0,0,1-3.116,3.116,3.121,3.121,0,0,1-3.116-3.116A3.121,3.121,0,0,1,3730.1-7839.957Z" transform="translate(-3180.063 8312.296)" fill="#d1ccc1"/><path d="M3730.1-7807.906a3.116,3.116,0,0,1,3.116,3.112,3.121,3.121,0,0,1-3.116,3.116,3.121,3.121,0,0,1-3.116-3.116A3.116,3.116,0,0,1,3730.1-7807.906Z" transform="translate(-3180.063 8354.825)" fill="#d1ccc1"/><path d="M3730.1-7775.858a3.121,3.121,0,0,1,3.116,3.116,3.119,3.119,0,0,1-3.116,3.116,3.119,3.119,0,0,1-3.116-3.116A3.121,3.121,0,0,1,3730.1-7775.858Z" transform="translate(-3180.063 8397.354)" fill="#d1ccc1"/><path d="M3730.1-7904.057a3.121,3.121,0,0,1,3.116,3.117,3.123,3.123,0,0,1-3.116,3.118,3.123,3.123,0,0,1-3.116-3.118A3.121,3.121,0,0,1,3730.1-7904.057Z" transform="translate(-3180.063 8227.234)" fill="#d1ccc1"/><path d="M3730.1-7946.788a3.12,3.12,0,0,1,3.116,3.117,3.122,3.122,0,0,1-3.116,3.117,3.122,3.122,0,0,1-3.116-3.117A3.12,3.12,0,0,1,3730.1-7946.788Z" transform="translate(-3180.063 8170.526)" fill="#d1ccc1"/><path d="M3730.1-7914.738a3.118,3.118,0,0,1,3.116,3.115,3.119,3.119,0,0,1-3.116,3.114,3.119,3.119,0,0,1-3.116-3.114A3.119,3.119,0,0,1,3730.1-7914.738Z" transform="translate(-3180.063 8213.06)" fill="#d1ccc1"/><path d="M3730.1-7925.421a3.12,3.12,0,0,1,3.116,3.115,3.121,3.121,0,0,1-3.116,3.116,3.121,3.121,0,0,1-3.116-3.116A3.121,3.121,0,0,1,3730.1-7925.421Z" transform="translate(-3180.063 8198.881)" fill="#d1ccc1"/><path d="M3730.1-7936.106a3.121,3.121,0,0,1,3.116,3.116,3.117,3.117,0,0,1-3.116,3.114,3.117,3.117,0,0,1-3.116-3.114A3.121,3.121,0,0,1,3730.1-7936.106Z" transform="translate(-3180.063 8184.707)" fill="#d1ccc1"/><path d="M3730.1-7957.472a3.121,3.121,0,0,1,3.116,3.117,3.124,3.124,0,0,1-3.116,3.118,3.124,3.124,0,0,1-3.116-3.118A3.121,3.121,0,0,1,3730.1-7957.472Z" transform="translate(-3180.063 8156.351)" fill="#d1ccc1"/><path d="M3730.1-7968.153a3.116,3.116,0,0,1,3.116,3.112,3.12,3.12,0,0,1-3.116,3.115,3.121,3.121,0,0,1-3.116-3.115A3.116,3.116,0,0,1,3730.1-7968.153Z" transform="translate(-3180.063 8142.175)" fill="#d1ccc1"/><path d="M3730.1-7978.838a3.12,3.12,0,0,1,3.116,3.115,3.122,3.122,0,0,1-3.116,3.116,3.122,3.122,0,0,1-3.116-3.116A3.12,3.12,0,0,1,3730.1-7978.838Z" transform="translate(-3180.063 8127.999)" fill="#d1ccc1"/><path d="M3730.1-7989.521a3.12,3.12,0,0,1,3.116,3.115,3.117,3.117,0,0,1-3.116,3.113,3.117,3.117,0,0,1-3.116-3.113A3.12,3.12,0,0,1,3730.1-7989.521Z" transform="translate(-3180.063 8113.822)" fill="#d1ccc1"/><path d="M3772.829-7989.521a3.12,3.12,0,0,1,3.116,3.115,3.117,3.117,0,0,1-3.116,3.113,3.117,3.117,0,0,1-3.118-3.113A3.119,3.119,0,0,1,3772.829-7989.521Z" transform="translate(-3322.234 8113.822)" fill="#d1ccc1"/><path d="M3762.146-7989.521a3.12,3.12,0,0,1,3.116,3.115,3.117,3.117,0,0,1-3.116,3.113,3.118,3.118,0,0,1-3.118-3.113A3.121,3.121,0,0,1,3762.146-7989.521Z" transform="translate(-3286.691 8113.822)" fill="#d1ccc1"/><path d="M3751.46-7989.521a3.12,3.12,0,0,1,3.116,3.115,3.117,3.117,0,0,1-3.116,3.113,3.116,3.116,0,0,1-3.115-3.113A3.119,3.119,0,0,1,3751.46-7989.521Z" transform="translate(-3251.146 8113.822)" fill="#d1ccc1"/><path d="M3804.878-7989.521a3.12,3.12,0,0,1,3.116,3.115,3.117,3.117,0,0,1-3.116,3.113,3.117,3.117,0,0,1-3.116-3.113A3.12,3.12,0,0,1,3804.878-7989.521Z" transform="translate(-3428.863 8113.822)" fill="#d1ccc1"/><path d="M3794.194-7989.521a3.119,3.119,0,0,1,3.116,3.115,3.117,3.117,0,0,1-3.116,3.113,3.117,3.117,0,0,1-3.116-3.113A3.12,3.12,0,0,1,3794.194-7989.521Z" transform="translate(-3393.319 8113.822)" fill="#d1ccc1"/><path d="M3783.511-7989.521a3.119,3.119,0,0,1,3.115,3.115,3.116,3.116,0,0,1-3.115,3.113,3.117,3.117,0,0,1-3.116-3.113A3.12,3.12,0,0,1,3783.511-7989.521Z" transform="translate(-3357.777 8113.822)" fill="#d1ccc1"/><path d="M3676.678-8000.2a3.12,3.12,0,0,1,3.116,3.116,3.121,3.121,0,0,1-3.116,3.116,3.12,3.12,0,0,1-3.115-3.116A3.119,3.119,0,0,1,3676.678-8000.2Z" transform="translate(-3002.347 8099.646)" fill="#d1ccc1"/><path d="M3740.778-8000.2a3.119,3.119,0,0,1,3.115,3.116,3.12,3.12,0,0,1-3.115,3.116,3.12,3.12,0,0,1-3.116-3.116A3.119,3.119,0,0,1,3740.778-8000.2Z" transform="translate(-3215.604 8099.646)" fill="#d1ccc1"/><path d="M3730.1-8000.2a3.119,3.119,0,0,1,3.116,3.116,3.12,3.12,0,0,1-3.116,3.116,3.121,3.121,0,0,1-3.116-3.116A3.12,3.12,0,0,1,3730.1-8000.2Z" transform="translate(-3180.063 8099.646)" fill="#d1ccc1"/><path d="M3719.411-7754.491a3.118,3.118,0,0,1,3.118,3.115,3.121,3.121,0,0,1-3.118,3.116,3.121,3.121,0,0,1-3.116-3.116A3.118,3.118,0,0,1,3719.411-7754.491Z" transform="translate(-3144.519 8425.709)" fill="#d1ccc1"/><path d="M3719.411-7765.174a3.12,3.12,0,0,1,3.118,3.115,3.121,3.121,0,0,1-3.118,3.116,3.121,3.121,0,0,1-3.116-3.116A3.12,3.12,0,0,1,3719.411-7765.174Z" transform="translate(-3144.519 8411.53)" fill="#d1ccc1"/><path d="M3719.411-7786.542a3.123,3.123,0,0,1,3.118,3.118,3.122,3.122,0,0,1-3.118,3.117,3.122,3.122,0,0,1-3.116-3.117A3.123,3.123,0,0,1,3719.411-7786.542Z" transform="translate(-3144.519 8383.177)" fill="#d1ccc1"/><path d="M3719.411-7818.59a3.121,3.121,0,0,1,3.118,3.115,3.121,3.121,0,0,1-3.118,3.116,3.121,3.121,0,0,1-3.116-3.116A3.121,3.121,0,0,1,3719.411-7818.59Z" transform="translate(-3144.519 8340.648)" fill="#d1ccc1"/><path d="M3719.411-7829.273a3.12,3.12,0,0,1,3.118,3.115,3.119,3.119,0,0,1-3.118,3.116,3.119,3.119,0,0,1-3.116-3.116A3.12,3.12,0,0,1,3719.411-7829.273Z" transform="translate(-3144.519 8326.471)" fill="#d1ccc1"/><path d="M3719.411-7850.641a3.121,3.121,0,0,1,3.118,3.117,3.12,3.12,0,0,1-3.118,3.114,3.12,3.12,0,0,1-3.116-3.114A3.121,3.121,0,0,1,3719.411-7850.641Z" transform="translate(-3144.519 8298.117)" fill="#d1ccc1"/><path d="M3719.411-7861.321a3.117,3.117,0,0,1,3.118,3.113,3.12,3.12,0,0,1-3.118,3.115,3.12,3.12,0,0,1-3.116-3.115A3.117,3.117,0,0,1,3719.411-7861.321Z" transform="translate(-3144.519 8283.941)" fill="#d1ccc1"/><path d="M3719.411-7872.006a3.121,3.121,0,0,1,3.118,3.115,3.12,3.12,0,0,1-3.118,3.115,3.12,3.12,0,0,1-3.116-3.115A3.121,3.121,0,0,1,3719.411-7872.006Z" transform="translate(-3144.519 8269.765)" fill="#d1ccc1"/><path d="M3719.411-7882.689a3.121,3.121,0,0,1,3.118,3.116,3.116,3.116,0,0,1-3.118,3.113,3.116,3.116,0,0,1-3.116-3.113A3.121,3.121,0,0,1,3719.411-7882.689Z" transform="translate(-3144.519 8255.588)" fill="#d1ccc1"/><path d="M3719.411-7893.371a3.121,3.121,0,0,1,3.118,3.115,3.121,3.121,0,0,1-3.118,3.117,3.121,3.121,0,0,1-3.116-3.117A3.121,3.121,0,0,1,3719.411-7893.371Z" transform="translate(-3144.519 8241.411)" fill="#d1ccc1"/><path d="M3719.411-8042.939a3.124,3.124,0,0,1,3.118,3.118,3.117,3.117,0,0,1-3.118,3.115,3.117,3.117,0,0,1-3.116-3.115A3.124,3.124,0,0,1,3719.411-8042.939Z" transform="translate(-3144.519 8042.939)" fill="#d1ccc1"/><path d="M3719.411-7797.225a3.122,3.122,0,0,1,3.118,3.117,3.122,3.122,0,0,1-3.118,3.118,3.122,3.122,0,0,1-3.116-3.118A3.122,3.122,0,0,1,3719.411-7797.225Z" transform="translate(-3144.519 8369)" fill="#d1ccc1"/><path d="M3719.411-7839.957a3.121,3.121,0,0,1,3.118,3.116,3.121,3.121,0,0,1-3.118,3.116,3.121,3.121,0,0,1-3.116-3.116A3.121,3.121,0,0,1,3719.411-7839.957Z" transform="translate(-3144.519 8312.296)" fill="#d1ccc1"/><path d="M3719.411-7807.906a3.116,3.116,0,0,1,3.118,3.112,3.121,3.121,0,0,1-3.118,3.116,3.121,3.121,0,0,1-3.116-3.116A3.116,3.116,0,0,1,3719.411-7807.906Z" transform="translate(-3144.519 8354.825)" fill="#d1ccc1"/><path d="M3719.411-7775.858a3.121,3.121,0,0,1,3.118,3.116,3.119,3.119,0,0,1-3.118,3.116,3.119,3.119,0,0,1-3.116-3.116A3.121,3.121,0,0,1,3719.411-7775.858Z" transform="translate(-3144.519 8397.354)" fill="#d1ccc1"/><path d="M3719.411-7904.057a3.121,3.121,0,0,1,3.118,3.117,3.123,3.123,0,0,1-3.118,3.118,3.123,3.123,0,0,1-3.116-3.118A3.121,3.121,0,0,1,3719.411-7904.057Z" transform="translate(-3144.519 8227.234)" fill="#d1ccc1"/><path d="M3719.411-7946.788a3.12,3.12,0,0,1,3.118,3.117,3.122,3.122,0,0,1-3.118,3.117,3.122,3.122,0,0,1-3.116-3.117A3.12,3.12,0,0,1,3719.411-7946.788Z" transform="translate(-3144.519 8170.526)" fill="#d1ccc1"/><path d="M3719.411-7914.738a3.119,3.119,0,0,1,3.118,3.115,3.119,3.119,0,0,1-3.118,3.114,3.119,3.119,0,0,1-3.116-3.114A3.119,3.119,0,0,1,3719.411-7914.738Z" transform="translate(-3144.519 8213.06)" fill="#d1ccc1"/><path d="M3719.411-7925.421a3.121,3.121,0,0,1,3.118,3.115,3.121,3.121,0,0,1-3.118,3.116,3.121,3.121,0,0,1-3.116-3.116A3.121,3.121,0,0,1,3719.411-7925.421Z" transform="translate(-3144.519 8198.881)" fill="#d1ccc1"/><path d="M3719.411-7936.106a3.121,3.121,0,0,1,3.118,3.116,3.117,3.117,0,0,1-3.118,3.114,3.117,3.117,0,0,1-3.116-3.114A3.121,3.121,0,0,1,3719.411-7936.106Z" transform="translate(-3144.519 8184.707)" fill="#d1ccc1"/><path d="M3719.411-7957.472a3.121,3.121,0,0,1,3.118,3.117,3.124,3.124,0,0,1-3.118,3.118,3.124,3.124,0,0,1-3.116-3.118A3.121,3.121,0,0,1,3719.411-7957.472Z" transform="translate(-3144.519 8156.351)" fill="#d1ccc1"/><path d="M3719.411-7968.153a3.116,3.116,0,0,1,3.118,3.112,3.121,3.121,0,0,1-3.118,3.115,3.121,3.121,0,0,1-3.116-3.115A3.116,3.116,0,0,1,3719.411-7968.153Z" transform="translate(-3144.519 8142.175)" fill="#d1ccc1"/><path d="M3719.411-7978.838a3.12,3.12,0,0,1,3.118,3.115,3.122,3.122,0,0,1-3.118,3.116,3.122,3.122,0,0,1-3.116-3.116A3.12,3.12,0,0,1,3719.411-7978.838Z" transform="translate(-3144.519 8127.999)" fill="#d1ccc1"/><path d="M3719.411-7989.521a3.12,3.12,0,0,1,3.118,3.115,3.117,3.117,0,0,1-3.118,3.113,3.117,3.117,0,0,1-3.116-3.113A3.12,3.12,0,0,1,3719.411-7989.521Z" transform="translate(-3144.519 8113.822)" fill="#d1ccc1"/><path d="M3719.411-8000.2a3.12,3.12,0,0,1,3.118,3.116,3.121,3.121,0,0,1-3.118,3.116,3.121,3.121,0,0,1-3.116-3.116A3.12,3.12,0,0,1,3719.411-8000.2Z" transform="translate(-3144.519 8099.646)" fill="#d1ccc1"/><path d="M3847.61-8000.2a3.119,3.119,0,0,1,3.116,3.116,3.121,3.121,0,0,1-3.116,3.116,3.12,3.12,0,0,1-3.116-3.116A3.119,3.119,0,0,1,3847.61-8000.2Z" transform="translate(-3571.035 8099.646)" fill="#d1ccc1"/><path d="M3879.659-8000.2a3.121,3.121,0,0,1,3.118,3.116,3.122,3.122,0,0,1-3.118,3.116,3.12,3.12,0,0,1-3.116-3.116A3.119,3.119,0,0,1,3879.659-8000.2Z" transform="translate(-3677.664 8099.646)" fill="#d1ccc1"/><path d="M3858.293-8000.2a3.119,3.119,0,0,1,3.116,3.116,3.12,3.12,0,0,1-3.116,3.116,3.12,3.12,0,0,1-3.115-3.116A3.119,3.119,0,0,1,3858.293-8000.2Z" transform="translate(-3606.577 8099.646)" fill="#d1ccc1"/><path d="M3890.343-8000.2a3.119,3.119,0,0,1,3.115,3.116,3.12,3.12,0,0,1-3.115,3.116,3.12,3.12,0,0,1-3.116-3.116A3.119,3.119,0,0,1,3890.343-8000.2Z" transform="translate(-3713.207 8099.646)" fill="#d1ccc1"/><path d="M3901.025-8000.2a3.119,3.119,0,0,1,3.116,3.116,3.121,3.121,0,0,1-3.116,3.116,3.12,3.12,0,0,1-3.115-3.116A3.118,3.118,0,0,1,3901.025-8000.2Z" transform="translate(-3748.749 8099.646)" fill="#d1ccc1"/><path d="M3911.708-8000.2a3.12,3.12,0,0,1,3.116,3.116,3.121,3.121,0,0,1-3.116,3.116,3.12,3.12,0,0,1-3.116-3.116A3.119,3.119,0,0,1,3911.708-8000.2Z" transform="translate(-3784.291 8099.646)" fill="#d1ccc1"/><path d="M3922.394-8000.2a3.12,3.12,0,0,1,3.116,3.116,3.121,3.121,0,0,1-3.116,3.116,3.121,3.121,0,0,1-3.118-3.116A3.12,3.12,0,0,1,3922.394-8000.2Z" transform="translate(-3819.836 8099.646)" fill="#d1ccc1"/><path d="M3954.442-8000.2a3.119,3.119,0,0,1,3.116,3.116,3.12,3.12,0,0,1-3.116,3.116,3.12,3.12,0,0,1-3.116-3.116A3.119,3.119,0,0,1,3954.442-8000.2Z" transform="translate(-3926.464 8099.646)" fill="#d1ccc1"/><path d="M3943.761-8000.2a3.117,3.117,0,0,1,3.114,3.116,3.118,3.118,0,0,1-3.114,3.116,3.121,3.121,0,0,1-3.118-3.116A3.12,3.12,0,0,1,3943.761-8000.2Z" transform="translate(-3890.922 8099.646)" fill="#d1ccc1"/><path d="M3836.927-8000.2a3.119,3.119,0,0,1,3.116,3.116,3.121,3.121,0,0,1-3.116,3.116,3.12,3.12,0,0,1-3.116-3.116A3.119,3.119,0,0,1,3836.927-8000.2Z" transform="translate(-3535.492 8099.646)" fill="#d1ccc1"/><path d="M3868.979-8000.2a3.119,3.119,0,0,1,3.115,3.116,3.12,3.12,0,0,1-3.115,3.116,3.121,3.121,0,0,1-3.118-3.116A3.12,3.12,0,0,1,3868.979-8000.2Z" transform="translate(-3642.121 8099.646)" fill="#d1ccc1"/><path d="M3772.829-8000.2a3.12,3.12,0,0,1,3.116,3.116,3.121,3.121,0,0,1-3.116,3.116,3.12,3.12,0,0,1-3.118-3.116A3.119,3.119,0,0,1,3772.829-8000.2Z" transform="translate(-3322.234 8099.646)" fill="#d1ccc1"/><path d="M3762.146-8000.2a3.119,3.119,0,0,1,3.116,3.116,3.121,3.121,0,0,1-3.116,3.116,3.122,3.122,0,0,1-3.118-3.116A3.121,3.121,0,0,1,3762.146-8000.2Z" transform="translate(-3286.691 8099.646)" fill="#d1ccc1"/><path d="M3751.46-8000.2a3.119,3.119,0,0,1,3.116,3.116,3.121,3.121,0,0,1-3.116,3.116,3.12,3.12,0,0,1-3.115-3.116A3.119,3.119,0,0,1,3751.46-8000.2Z" transform="translate(-3251.146 8099.646)" fill="#d1ccc1"/><path d="M3826.243-8000.2a3.121,3.121,0,0,1,3.118,3.116,3.122,3.122,0,0,1-3.118,3.116,3.12,3.12,0,0,1-3.115-3.116A3.119,3.119,0,0,1,3826.243-8000.2Z" transform="translate(-3499.949 8099.646)" fill="#d1ccc1"/><path d="M3815.563-8000.2a3.119,3.119,0,0,1,3.115,3.116,3.12,3.12,0,0,1-3.115,3.116,3.122,3.122,0,0,1-3.118-3.116A3.121,3.121,0,0,1,3815.563-8000.2Z" transform="translate(-3464.406 8099.646)" fill="#d1ccc1"/><path d="M3933.077-8000.2a3.12,3.12,0,0,1,3.116,3.116,3.121,3.121,0,0,1-3.116,3.116,3.12,3.12,0,0,1-3.118-3.116A3.119,3.119,0,0,1,3933.077-8000.2Z" transform="translate(-3855.379 8099.646)" fill="#d1ccc1"/><path d="M3965.128-8000.2a3.119,3.119,0,0,1,3.115,3.116,3.12,3.12,0,0,1-3.115,3.116,3.122,3.122,0,0,1-3.119-3.116A3.121,3.121,0,0,1,3965.128-8000.2Z" transform="translate(-3962.009 8099.646)" fill="#d1ccc1"/><path d="M3804.878-8000.2a3.119,3.119,0,0,1,3.116,3.116,3.121,3.121,0,0,1-3.116,3.116,3.121,3.121,0,0,1-3.116-3.116A3.12,3.12,0,0,1,3804.878-8000.2Z" transform="translate(-3428.863 8099.646)" fill="#d1ccc1"/><path d="M3794.194-8000.2a3.119,3.119,0,0,1,3.116,3.116,3.12,3.12,0,0,1-3.116,3.116,3.121,3.121,0,0,1-3.116-3.116A3.12,3.12,0,0,1,3794.194-8000.2Z" transform="translate(-3393.319 8099.646)" fill="#d1ccc1"/><path d="M3783.511-8000.2a3.119,3.119,0,0,1,3.115,3.116,3.12,3.12,0,0,1-3.115,3.116,3.12,3.12,0,0,1-3.116-3.116A3.119,3.119,0,0,1,3783.511-8000.2Z" transform="translate(-3357.777 8099.646)" fill="#d1ccc1"/><path d="M3676.678-8010.888a3.121,3.121,0,0,1,3.116,3.117,3.123,3.123,0,0,1-3.116,3.118,3.122,3.122,0,0,1-3.115-3.118A3.12,3.12,0,0,1,3676.678-8010.888Z" transform="translate(-3002.347 8085.468)" fill="#d1ccc1"/><path d="M3740.778-8010.888a3.12,3.12,0,0,1,3.115,3.117,3.122,3.122,0,0,1-3.115,3.118,3.123,3.123,0,0,1-3.116-3.118A3.121,3.121,0,0,1,3740.778-8010.888Z" transform="translate(-3215.604 8085.468)" fill="#d1ccc1"/><path d="M3730.1-8010.888a3.121,3.121,0,0,1,3.116,3.117,3.123,3.123,0,0,1-3.116,3.118,3.123,3.123,0,0,1-3.116-3.118A3.121,3.121,0,0,1,3730.1-8010.888Z" transform="translate(-3180.063 8085.468)" fill="#d1ccc1"/><path d="M3719.411-8010.888a3.121,3.121,0,0,1,3.118,3.117,3.123,3.123,0,0,1-3.118,3.118,3.123,3.123,0,0,1-3.116-3.118A3.121,3.121,0,0,1,3719.411-8010.888Z" transform="translate(-3144.519 8085.468)" fill="#d1ccc1"/><path d="M3708.73-7754.491a3.118,3.118,0,0,1,3.115,3.115,3.12,3.12,0,0,1-3.115,3.116,3.123,3.123,0,0,1-3.119-3.116A3.12,3.12,0,0,1,3708.73-7754.491Z" transform="translate(-3108.976 8425.709)" fill="#d1ccc1"/><path d="M3708.73-7765.174a3.119,3.119,0,0,1,3.115,3.115,3.12,3.12,0,0,1-3.115,3.116,3.123,3.123,0,0,1-3.119-3.116A3.122,3.122,0,0,1,3708.73-7765.174Z" transform="translate(-3108.976 8411.53)" fill="#d1ccc1"/><path d="M3708.73-7786.542a3.123,3.123,0,0,1,3.115,3.118,3.121,3.121,0,0,1-3.115,3.117,3.123,3.123,0,0,1-3.119-3.117A3.125,3.125,0,0,1,3708.73-7786.542Z" transform="translate(-3108.976 8383.177)" fill="#d1ccc1"/><path d="M3708.73-7818.59a3.12,3.12,0,0,1,3.115,3.115,3.12,3.12,0,0,1-3.115,3.116,3.123,3.123,0,0,1-3.119-3.116A3.122,3.122,0,0,1,3708.73-7818.59Z" transform="translate(-3108.976 8340.648)" fill="#d1ccc1"/><path d="M3708.73-7829.273a3.119,3.119,0,0,1,3.115,3.115,3.118,3.118,0,0,1-3.115,3.116,3.12,3.12,0,0,1-3.119-3.116A3.122,3.122,0,0,1,3708.73-7829.273Z" transform="translate(-3108.976 8326.471)" fill="#d1ccc1"/><path d="M3708.73-7850.641a3.12,3.12,0,0,1,3.115,3.117,3.119,3.119,0,0,1-3.115,3.114,3.121,3.121,0,0,1-3.119-3.114A3.123,3.123,0,0,1,3708.73-7850.641Z" transform="translate(-3108.976 8298.117)" fill="#d1ccc1"/><path d="M3708.73-7861.321a3.116,3.116,0,0,1,3.115,3.113,3.119,3.119,0,0,1-3.115,3.115,3.122,3.122,0,0,1-3.119-3.115A3.119,3.119,0,0,1,3708.73-7861.321Z" transform="translate(-3108.976 8283.941)" fill="#d1ccc1"/><path d="M3708.73-7872.006a3.12,3.12,0,0,1,3.115,3.115,3.119,3.119,0,0,1-3.115,3.115,3.122,3.122,0,0,1-3.119-3.115A3.122,3.122,0,0,1,3708.73-7872.006Z" transform="translate(-3108.976 8269.765)" fill="#d1ccc1"/><path d="M3708.73-7882.689a3.12,3.12,0,0,1,3.115,3.116,3.115,3.115,0,0,1-3.115,3.113,3.117,3.117,0,0,1-3.119-3.113A3.123,3.123,0,0,1,3708.73-7882.689Z" transform="translate(-3108.976 8255.588)" fill="#d1ccc1"/><path d="M3708.73-7893.371a3.12,3.12,0,0,1,3.115,3.115,3.12,3.12,0,0,1-3.115,3.117,3.123,3.123,0,0,1-3.119-3.117A3.122,3.122,0,0,1,3708.73-7893.371Z" transform="translate(-3108.976 8241.411)" fill="#d1ccc1"/><path d="M3708.73-8042.939a3.123,3.123,0,0,1,3.115,3.118,3.117,3.117,0,0,1-3.115,3.115,3.119,3.119,0,0,1-3.119-3.115A3.125,3.125,0,0,1,3708.73-8042.939Z" transform="translate(-3108.976 8042.939)" fill="#d1ccc1"/><path d="M3708.73-7797.225a3.121,3.121,0,0,1,3.115,3.117,3.121,3.121,0,0,1-3.115,3.118,3.124,3.124,0,0,1-3.119-3.118A3.123,3.123,0,0,1,3708.73-7797.225Z" transform="translate(-3108.976 8369)" fill="#d1ccc1"/><path d="M3708.73-7839.957a3.12,3.12,0,0,1,3.115,3.116,3.12,3.12,0,0,1-3.115,3.116,3.122,3.122,0,0,1-3.119-3.116A3.122,3.122,0,0,1,3708.73-7839.957Z" transform="translate(-3108.976 8312.296)" fill="#d1ccc1"/><path d="M3708.73-7807.906a3.115,3.115,0,0,1,3.115,3.112,3.121,3.121,0,0,1-3.115,3.116,3.123,3.123,0,0,1-3.119-3.116A3.118,3.118,0,0,1,3708.73-7807.906Z" transform="translate(-3108.976 8354.825)" fill="#d1ccc1"/><path d="M3708.73-7775.858a3.121,3.121,0,0,1,3.115,3.116,3.118,3.118,0,0,1-3.115,3.116,3.121,3.121,0,0,1-3.119-3.116A3.123,3.123,0,0,1,3708.73-7775.858Z" transform="translate(-3108.976 8397.354)" fill="#d1ccc1"/><path d="M3708.73-7904.057a3.12,3.12,0,0,1,3.115,3.117,3.122,3.122,0,0,1-3.115,3.118,3.125,3.125,0,0,1-3.119-3.118A3.123,3.123,0,0,1,3708.73-7904.057Z" transform="translate(-3108.976 8227.234)" fill="#d1ccc1"/><path d="M3708.73-7946.788a3.12,3.12,0,0,1,3.115,3.117,3.121,3.121,0,0,1-3.115,3.117,3.124,3.124,0,0,1-3.119-3.117A3.122,3.122,0,0,1,3708.73-7946.788Z" transform="translate(-3108.976 8170.526)" fill="#d1ccc1"/><path d="M3708.73-7914.738a3.118,3.118,0,0,1,3.115,3.115,3.118,3.118,0,0,1-3.115,3.114,3.121,3.121,0,0,1-3.119-3.114A3.12,3.12,0,0,1,3708.73-7914.738Z" transform="translate(-3108.976 8213.06)" fill="#d1ccc1"/><path d="M3708.73-7925.421a3.12,3.12,0,0,1,3.115,3.115,3.121,3.121,0,0,1-3.115,3.116,3.123,3.123,0,0,1-3.119-3.116A3.122,3.122,0,0,1,3708.73-7925.421Z" transform="translate(-3108.976 8198.881)" fill="#d1ccc1"/><path d="M3708.73-7936.106a3.121,3.121,0,0,1,3.115,3.116,3.116,3.116,0,0,1-3.115,3.114,3.119,3.119,0,0,1-3.119-3.114A3.123,3.123,0,0,1,3708.73-7936.106Z" transform="translate(-3108.976 8184.707)" fill="#d1ccc1"/><path d="M3708.73-7957.472a3.12,3.12,0,0,1,3.115,3.117,3.123,3.123,0,0,1-3.115,3.118,3.126,3.126,0,0,1-3.119-3.118A3.123,3.123,0,0,1,3708.73-7957.472Z" transform="translate(-3108.976 8156.351)" fill="#d1ccc1"/><path d="M3708.73-7968.153a3.115,3.115,0,0,1,3.115,3.112,3.12,3.12,0,0,1-3.115,3.115,3.122,3.122,0,0,1-3.119-3.115A3.118,3.118,0,0,1,3708.73-7968.153Z" transform="translate(-3108.976 8142.175)" fill="#d1ccc1"/><path d="M3708.73-7978.838a3.119,3.119,0,0,1,3.115,3.115,3.121,3.121,0,0,1-3.115,3.116,3.124,3.124,0,0,1-3.119-3.116A3.122,3.122,0,0,1,3708.73-7978.838Z" transform="translate(-3108.976 8127.999)" fill="#d1ccc1"/><path d="M3708.73-7989.521a3.119,3.119,0,0,1,3.115,3.115,3.116,3.116,0,0,1-3.115,3.113,3.119,3.119,0,0,1-3.119-3.113A3.122,3.122,0,0,1,3708.73-7989.521Z" transform="translate(-3108.976 8113.822)" fill="#d1ccc1"/><path d="M3708.73-8000.2a3.119,3.119,0,0,1,3.115,3.116,3.12,3.12,0,0,1-3.115,3.116,3.122,3.122,0,0,1-3.119-3.116A3.121,3.121,0,0,1,3708.73-8000.2Z" transform="translate(-3108.976 8099.646)" fill="#d1ccc1"/><path d="M3708.73-8010.888a3.12,3.12,0,0,1,3.115,3.117,3.122,3.122,0,0,1-3.115,3.118,3.125,3.125,0,0,1-3.119-3.118A3.123,3.123,0,0,1,3708.73-8010.888Z" transform="translate(-3108.976 8085.468)" fill="#d1ccc1"/><path d="M3847.61-8010.888a3.121,3.121,0,0,1,3.116,3.117,3.123,3.123,0,0,1-3.116,3.118,3.123,3.123,0,0,1-3.116-3.118A3.121,3.121,0,0,1,3847.61-8010.888Z" transform="translate(-3571.035 8085.468)" fill="#d1ccc1"/><path d="M3879.659-8010.888a3.122,3.122,0,0,1,3.118,3.117,3.124,3.124,0,0,1-3.118,3.118,3.123,3.123,0,0,1-3.116-3.118A3.121,3.121,0,0,1,3879.659-8010.888Z" transform="translate(-3677.664 8085.468)" fill="#d1ccc1"/><path d="M3858.293-8010.888a3.121,3.121,0,0,1,3.116,3.117,3.123,3.123,0,0,1-3.116,3.118,3.123,3.123,0,0,1-3.115-3.118A3.12,3.12,0,0,1,3858.293-8010.888Z" transform="translate(-3606.577 8085.468)" fill="#d1ccc1"/><path d="M3890.343-8010.888a3.12,3.12,0,0,1,3.115,3.117,3.122,3.122,0,0,1-3.115,3.118,3.123,3.123,0,0,1-3.116-3.118A3.121,3.121,0,0,1,3890.343-8010.888Z" transform="translate(-3713.207 8085.468)" fill="#d1ccc1"/><path d="M3901.025-8010.888a3.121,3.121,0,0,1,3.116,3.117,3.123,3.123,0,0,1-3.116,3.118,3.122,3.122,0,0,1-3.115-3.118A3.12,3.12,0,0,1,3901.025-8010.888Z" transform="translate(-3748.749 8085.468)" fill="#d1ccc1"/><path d="M3911.708-8010.888a3.121,3.121,0,0,1,3.116,3.117,3.123,3.123,0,0,1-3.116,3.118,3.123,3.123,0,0,1-3.116-3.118A3.121,3.121,0,0,1,3911.708-8010.888Z" transform="translate(-3784.291 8085.468)" fill="#d1ccc1"/><path d="M3922.394-8010.888a3.121,3.121,0,0,1,3.116,3.117,3.123,3.123,0,0,1-3.116,3.118,3.123,3.123,0,0,1-3.118-3.118A3.121,3.121,0,0,1,3922.394-8010.888Z" transform="translate(-3819.836 8085.468)" fill="#d1ccc1"/><path d="M3954.442-8010.888a3.121,3.121,0,0,1,3.116,3.117,3.123,3.123,0,0,1-3.116,3.118,3.123,3.123,0,0,1-3.116-3.118A3.121,3.121,0,0,1,3954.442-8010.888Z" transform="translate(-3926.464 8085.468)" fill="#d1ccc1"/><path d="M3943.761-8010.888a3.119,3.119,0,0,1,3.114,3.117,3.121,3.121,0,0,1-3.114,3.118,3.123,3.123,0,0,1-3.118-3.118A3.121,3.121,0,0,1,3943.761-8010.888Z" transform="translate(-3890.922 8085.468)" fill="#d1ccc1"/><path d="M3836.927-8010.888a3.121,3.121,0,0,1,3.116,3.117,3.123,3.123,0,0,1-3.116,3.118,3.123,3.123,0,0,1-3.116-3.118A3.121,3.121,0,0,1,3836.927-8010.888Z" transform="translate(-3535.492 8085.468)" fill="#d1ccc1"/><path d="M3868.979-8010.888a3.12,3.12,0,0,1,3.115,3.117,3.122,3.122,0,0,1-3.115,3.118,3.123,3.123,0,0,1-3.118-3.118A3.121,3.121,0,0,1,3868.979-8010.888Z" transform="translate(-3642.121 8085.468)" fill="#d1ccc1"/><path d="M3772.829-8010.888a3.121,3.121,0,0,1,3.116,3.117,3.123,3.123,0,0,1-3.116,3.118,3.123,3.123,0,0,1-3.118-3.118A3.12,3.12,0,0,1,3772.829-8010.888Z" transform="translate(-3322.234 8085.468)" fill="#d1ccc1"/><path d="M3762.146-8010.888a3.121,3.121,0,0,1,3.116,3.117,3.123,3.123,0,0,1-3.116,3.118,3.124,3.124,0,0,1-3.118-3.118A3.122,3.122,0,0,1,3762.146-8010.888Z" transform="translate(-3286.691 8085.468)" fill="#d1ccc1"/><path d="M3751.46-8010.888a3.121,3.121,0,0,1,3.116,3.117,3.123,3.123,0,0,1-3.116,3.118,3.122,3.122,0,0,1-3.115-3.118A3.12,3.12,0,0,1,3751.46-8010.888Z" transform="translate(-3251.146 8085.468)" fill="#d1ccc1"/><path d="M3826.243-8010.888a3.123,3.123,0,0,1,3.118,3.117,3.125,3.125,0,0,1-3.118,3.118,3.122,3.122,0,0,1-3.115-3.118A3.12,3.12,0,0,1,3826.243-8010.888Z" transform="translate(-3499.949 8085.468)" fill="#d1ccc1"/><path d="M3815.563-8010.888a3.12,3.12,0,0,1,3.115,3.117,3.122,3.122,0,0,1-3.115,3.118,3.124,3.124,0,0,1-3.118-3.118A3.122,3.122,0,0,1,3815.563-8010.888Z" transform="translate(-3464.406 8085.468)" fill="#d1ccc1"/><path d="M3933.077-8010.888a3.121,3.121,0,0,1,3.116,3.117,3.123,3.123,0,0,1-3.116,3.118,3.123,3.123,0,0,1-3.118-3.118A3.121,3.121,0,0,1,3933.077-8010.888Z" transform="translate(-3855.379 8085.468)" fill="#d1ccc1"/><path d="M3965.128-8010.888a3.12,3.12,0,0,1,3.115,3.117,3.122,3.122,0,0,1-3.115,3.118,3.124,3.124,0,0,1-3.119-3.118A3.122,3.122,0,0,1,3965.128-8010.888Z" transform="translate(-3962.009 8085.468)" fill="#d1ccc1"/><path d="M3804.878-8010.888a3.121,3.121,0,0,1,3.116,3.117,3.123,3.123,0,0,1-3.116,3.118,3.123,3.123,0,0,1-3.116-3.118A3.121,3.121,0,0,1,3804.878-8010.888Z" transform="translate(-3428.863 8085.468)" fill="#d1ccc1"/><path d="M3794.194-8010.888a3.121,3.121,0,0,1,3.116,3.117,3.123,3.123,0,0,1-3.116,3.118,3.123,3.123,0,0,1-3.116-3.118A3.121,3.121,0,0,1,3794.194-8010.888Z" transform="translate(-3393.319 8085.468)" fill="#d1ccc1"/><path d="M3783.511-8010.888a3.12,3.12,0,0,1,3.115,3.117,3.122,3.122,0,0,1-3.115,3.118,3.123,3.123,0,0,1-3.116-3.118A3.121,3.121,0,0,1,3783.511-8010.888Z" transform="translate(-3357.777 8085.468)" fill="#d1ccc1"/><path d="M3676.678-8021.569a3.117,3.117,0,0,1,3.116,3.113,3.12,3.12,0,0,1-3.116,3.115,3.119,3.119,0,0,1-3.115-3.115A3.116,3.116,0,0,1,3676.678-8021.569Z" transform="translate(-3002.347 8071.293)" fill="#d1ccc1"/><path d="M3740.778-8021.569a3.116,3.116,0,0,1,3.115,3.113,3.119,3.119,0,0,1-3.115,3.115,3.119,3.119,0,0,1-3.116-3.115A3.117,3.117,0,0,1,3740.778-8021.569Z" transform="translate(-3215.604 8071.293)" fill="#d1ccc1"/><path d="M3730.1-8021.569a3.117,3.117,0,0,1,3.116,3.113,3.12,3.12,0,0,1-3.116,3.115,3.12,3.12,0,0,1-3.116-3.115A3.117,3.117,0,0,1,3730.1-8021.569Z" transform="translate(-3180.063 8071.293)" fill="#d1ccc1"/><path d="M3719.411-8021.569a3.117,3.117,0,0,1,3.118,3.113,3.12,3.12,0,0,1-3.118,3.115,3.12,3.12,0,0,1-3.116-3.115A3.117,3.117,0,0,1,3719.411-8021.569Z" transform="translate(-3144.519 8071.293)" fill="#d1ccc1"/><path d="M3708.73-8021.569a3.116,3.116,0,0,1,3.115,3.113,3.119,3.119,0,0,1-3.115,3.115,3.122,3.122,0,0,1-3.119-3.115A3.119,3.119,0,0,1,3708.73-8021.569Z" transform="translate(-3108.976 8071.293)" fill="#d1ccc1"/><path d="M3698.042-7754.491a3.119,3.119,0,0,1,3.119,3.115,3.122,3.122,0,0,1-3.119,3.116,3.118,3.118,0,0,1-3.113-3.116A3.115,3.115,0,0,1,3698.042-7754.491Z" transform="translate(-3073.431 8425.709)" fill="#d1ccc1"/><path d="M3698.042-7765.174a3.121,3.121,0,0,1,3.119,3.115,3.122,3.122,0,0,1-3.119,3.116,3.118,3.118,0,0,1-3.113-3.116A3.117,3.117,0,0,1,3698.042-7765.174Z" transform="translate(-3073.431 8411.53)" fill="#d1ccc1"/><path d="M3698.042-7786.542a3.124,3.124,0,0,1,3.119,3.118,3.122,3.122,0,0,1-3.119,3.117,3.119,3.119,0,0,1-3.113-3.117A3.12,3.12,0,0,1,3698.042-7786.542Z" transform="translate(-3073.431 8383.177)" fill="#d1ccc1"/><path d="M3698.042-7818.59a3.121,3.121,0,0,1,3.119,3.115,3.122,3.122,0,0,1-3.119,3.116,3.118,3.118,0,0,1-3.113-3.116A3.118,3.118,0,0,1,3698.042-7818.59Z" transform="translate(-3073.431 8340.648)" fill="#d1ccc1"/><path d="M3698.042-7829.273a3.121,3.121,0,0,1,3.119,3.115,3.119,3.119,0,0,1-3.119,3.116,3.116,3.116,0,0,1-3.113-3.116A3.117,3.117,0,0,1,3698.042-7829.273Z" transform="translate(-3073.431 8326.471)" fill="#d1ccc1"/><path d="M3698.042-7850.641a3.122,3.122,0,0,1,3.119,3.117,3.12,3.12,0,0,1-3.119,3.114,3.117,3.117,0,0,1-3.113-3.114A3.118,3.118,0,0,1,3698.042-7850.641Z" transform="translate(-3073.431 8298.117)" fill="#d1ccc1"/><path d="M3698.042-7861.321a3.118,3.118,0,0,1,3.119,3.113,3.121,3.121,0,0,1-3.119,3.115,3.117,3.117,0,0,1-3.113-3.115A3.114,3.114,0,0,1,3698.042-7861.321Z" transform="translate(-3073.431 8283.941)" fill="#d1ccc1"/><path d="M3698.042-7872.006a3.121,3.121,0,0,1,3.119,3.115,3.121,3.121,0,0,1-3.119,3.115,3.117,3.117,0,0,1-3.113-3.115A3.118,3.118,0,0,1,3698.042-7872.006Z" transform="translate(-3073.431 8269.765)" fill="#d1ccc1"/><path d="M3698.042-7882.689a3.122,3.122,0,0,1,3.119,3.116,3.116,3.116,0,0,1-3.119,3.113,3.113,3.113,0,0,1-3.113-3.113A3.118,3.118,0,0,1,3698.042-7882.689Z" transform="translate(-3073.431 8255.588)" fill="#d1ccc1"/><path d="M3698.042-7893.371a3.121,3.121,0,0,1,3.119,3.115,3.122,3.122,0,0,1-3.119,3.117,3.118,3.118,0,0,1-3.113-3.117A3.118,3.118,0,0,1,3698.042-7893.371Z" transform="translate(-3073.431 8241.411)" fill="#d1ccc1"/><path d="M3698.042-8042.939a3.124,3.124,0,0,1,3.119,3.118,3.118,3.118,0,0,1-3.119,3.115,3.115,3.115,0,0,1-3.113-3.115A3.121,3.121,0,0,1,3698.042-8042.939Z" transform="translate(-3073.431 8042.939)" fill="#d1ccc1"/><path d="M3698.042-7797.225a3.122,3.122,0,0,1,3.119,3.117,3.122,3.122,0,0,1-3.119,3.118,3.119,3.119,0,0,1-3.113-3.118A3.119,3.119,0,0,1,3698.042-7797.225Z" transform="translate(-3073.431 8369)" fill="#d1ccc1"/><path d="M3698.042-7839.957a3.121,3.121,0,0,1,3.119,3.116,3.121,3.121,0,0,1-3.119,3.116,3.118,3.118,0,0,1-3.113-3.116A3.118,3.118,0,0,1,3698.042-7839.957Z" transform="translate(-3073.431 8312.296)" fill="#d1ccc1"/><path d="M3698.042-7807.906a3.117,3.117,0,0,1,3.119,3.112,3.122,3.122,0,0,1-3.119,3.116,3.118,3.118,0,0,1-3.113-3.116A3.113,3.113,0,0,1,3698.042-7807.906Z" transform="translate(-3073.431 8354.825)" fill="#d1ccc1"/><path d="M3698.042-7775.858a3.122,3.122,0,0,1,3.119,3.116,3.12,3.12,0,0,1-3.119,3.116,3.116,3.116,0,0,1-3.113-3.116A3.118,3.118,0,0,1,3698.042-7775.858Z" transform="translate(-3073.431 8397.354)" fill="#d1ccc1"/><path d="M3698.042-7904.057a3.122,3.122,0,0,1,3.119,3.117,3.124,3.124,0,0,1-3.119,3.118,3.12,3.12,0,0,1-3.113-3.118A3.118,3.118,0,0,1,3698.042-7904.057Z" transform="translate(-3073.431 8227.234)" fill="#d1ccc1"/><path d="M3698.042-7946.788a3.121,3.121,0,0,1,3.119,3.117,3.123,3.123,0,0,1-3.119,3.117,3.119,3.119,0,0,1-3.113-3.117A3.117,3.117,0,0,1,3698.042-7946.788Z" transform="translate(-3073.431 8170.526)" fill="#d1ccc1"/><path d="M3698.042-7914.738a3.119,3.119,0,0,1,3.119,3.115,3.12,3.12,0,0,1-3.119,3.114,3.116,3.116,0,0,1-3.113-3.114A3.116,3.116,0,0,1,3698.042-7914.738Z" transform="translate(-3073.431 8213.06)" fill="#d1ccc1"/><path d="M3698.042-7925.421a3.121,3.121,0,0,1,3.119,3.115,3.122,3.122,0,0,1-3.119,3.116,3.118,3.118,0,0,1-3.113-3.116A3.118,3.118,0,0,1,3698.042-7925.421Z" transform="translate(-3073.431 8198.881)" fill="#d1ccc1"/><path d="M3698.042-7936.106a3.122,3.122,0,0,1,3.119,3.116,3.118,3.118,0,0,1-3.119,3.114,3.114,3.114,0,0,1-3.113-3.114A3.118,3.118,0,0,1,3698.042-7936.106Z" transform="translate(-3073.431 8184.707)" fill="#d1ccc1"/><path d="M3698.042-7957.472a3.122,3.122,0,0,1,3.119,3.117,3.125,3.125,0,0,1-3.119,3.118,3.121,3.121,0,0,1-3.113-3.118A3.118,3.118,0,0,1,3698.042-7957.472Z" transform="translate(-3073.431 8156.351)" fill="#d1ccc1"/><path d="M3698.042-7968.153a3.117,3.117,0,0,1,3.119,3.112,3.121,3.121,0,0,1-3.119,3.115,3.118,3.118,0,0,1-3.113-3.115A3.113,3.113,0,0,1,3698.042-7968.153Z" transform="translate(-3073.431 8142.175)" fill="#d1ccc1"/><path d="M3698.042-7978.838a3.121,3.121,0,0,1,3.119,3.115,3.123,3.123,0,0,1-3.119,3.116,3.119,3.119,0,0,1-3.113-3.116A3.117,3.117,0,0,1,3698.042-7978.838Z" transform="translate(-3073.431 8127.999)" fill="#d1ccc1"/><path d="M3698.042-7989.521a3.121,3.121,0,0,1,3.119,3.115,3.118,3.118,0,0,1-3.119,3.113,3.114,3.114,0,0,1-3.113-3.113A3.117,3.117,0,0,1,3698.042-7989.521Z" transform="translate(-3073.431 8113.822)" fill="#d1ccc1"/><path d="M3698.042-8000.2a3.12,3.12,0,0,1,3.119,3.116,3.121,3.121,0,0,1-3.119,3.116,3.118,3.118,0,0,1-3.113-3.116A3.117,3.117,0,0,1,3698.042-8000.2Z" transform="translate(-3073.431 8099.646)" fill="#d1ccc1"/><path d="M3698.042-8010.888a3.122,3.122,0,0,1,3.119,3.117,3.124,3.124,0,0,1-3.119,3.118,3.12,3.12,0,0,1-3.113-3.118A3.118,3.118,0,0,1,3698.042-8010.888Z" transform="translate(-3073.431 8085.468)" fill="#d1ccc1"/><path d="M3698.042-8021.569a3.118,3.118,0,0,1,3.119,3.113,3.121,3.121,0,0,1-3.119,3.115,3.117,3.117,0,0,1-3.113-3.115A3.114,3.114,0,0,1,3698.042-8021.569Z" transform="translate(-3073.431 8071.293)" fill="#d1ccc1"/><path d="M3847.61-8021.569a3.117,3.117,0,0,1,3.116,3.113,3.12,3.12,0,0,1-3.116,3.115,3.12,3.12,0,0,1-3.116-3.115A3.117,3.117,0,0,1,3847.61-8021.569Z" transform="translate(-3571.035 8071.293)" fill="#d1ccc1"/><path d="M3879.659-8021.569a3.118,3.118,0,0,1,3.118,3.113,3.121,3.121,0,0,1-3.118,3.115,3.12,3.12,0,0,1-3.116-3.115A3.117,3.117,0,0,1,3879.659-8021.569Z" transform="translate(-3677.664 8071.293)" fill="#d1ccc1"/><path d="M3858.293-8021.569a3.117,3.117,0,0,1,3.116,3.113,3.12,3.12,0,0,1-3.116,3.115,3.119,3.119,0,0,1-3.115-3.115A3.116,3.116,0,0,1,3858.293-8021.569Z" transform="translate(-3606.577 8071.293)" fill="#d1ccc1"/><path d="M3890.343-8021.569a3.116,3.116,0,0,1,3.115,3.113,3.119,3.119,0,0,1-3.115,3.115,3.12,3.12,0,0,1-3.116-3.115A3.117,3.117,0,0,1,3890.343-8021.569Z" transform="translate(-3713.207 8071.293)" fill="#d1ccc1"/><path d="M3901.025-8021.569a3.117,3.117,0,0,1,3.116,3.113,3.12,3.12,0,0,1-3.116,3.115,3.119,3.119,0,0,1-3.115-3.115A3.116,3.116,0,0,1,3901.025-8021.569Z" transform="translate(-3748.749 8071.293)" fill="#d1ccc1"/><path d="M3911.708-8021.569a3.117,3.117,0,0,1,3.116,3.113,3.12,3.12,0,0,1-3.116,3.115,3.119,3.119,0,0,1-3.116-3.115A3.117,3.117,0,0,1,3911.708-8021.569Z" transform="translate(-3784.291 8071.293)" fill="#d1ccc1"/><path d="M3922.394-8021.569a3.117,3.117,0,0,1,3.116,3.113,3.12,3.12,0,0,1-3.116,3.115,3.12,3.12,0,0,1-3.118-3.115A3.117,3.117,0,0,1,3922.394-8021.569Z" transform="translate(-3819.836 8071.293)" fill="#d1ccc1"/><path d="M3954.442-8021.569a3.117,3.117,0,0,1,3.116,3.113,3.119,3.119,0,0,1-3.116,3.115,3.119,3.119,0,0,1-3.116-3.115A3.117,3.117,0,0,1,3954.442-8021.569Z" transform="translate(-3926.464 8071.293)" fill="#d1ccc1"/><path d="M3943.761-8021.569a3.115,3.115,0,0,1,3.114,3.113,3.118,3.118,0,0,1-3.114,3.115,3.12,3.12,0,0,1-3.118-3.115A3.117,3.117,0,0,1,3943.761-8021.569Z" transform="translate(-3890.922 8071.293)" fill="#d1ccc1"/><path d="M3836.927-8021.569a3.117,3.117,0,0,1,3.116,3.113,3.12,3.12,0,0,1-3.116,3.115,3.12,3.12,0,0,1-3.116-3.115A3.117,3.117,0,0,1,3836.927-8021.569Z" transform="translate(-3535.492 8071.293)" fill="#d1ccc1"/><path d="M3868.979-8021.569a3.116,3.116,0,0,1,3.115,3.113,3.119,3.119,0,0,1-3.115,3.115,3.12,3.12,0,0,1-3.118-3.115A3.117,3.117,0,0,1,3868.979-8021.569Z" transform="translate(-3642.121 8071.293)" fill="#d1ccc1"/><path d="M3772.829-8021.569a3.117,3.117,0,0,1,3.116,3.113,3.12,3.12,0,0,1-3.116,3.115,3.119,3.119,0,0,1-3.118-3.115A3.117,3.117,0,0,1,3772.829-8021.569Z" transform="translate(-3322.234 8071.293)" fill="#d1ccc1"/><path d="M3762.146-8021.569a3.117,3.117,0,0,1,3.116,3.113,3.12,3.12,0,0,1-3.116,3.115,3.121,3.121,0,0,1-3.118-3.115A3.118,3.118,0,0,1,3762.146-8021.569Z" transform="translate(-3286.691 8071.293)" fill="#d1ccc1"/><path d="M3751.46-8021.569a3.117,3.117,0,0,1,3.116,3.113,3.12,3.12,0,0,1-3.116,3.115,3.119,3.119,0,0,1-3.115-3.115A3.116,3.116,0,0,1,3751.46-8021.569Z" transform="translate(-3251.146 8071.293)" fill="#d1ccc1"/><path d="M3826.243-8021.569a3.119,3.119,0,0,1,3.118,3.113,3.122,3.122,0,0,1-3.118,3.115,3.119,3.119,0,0,1-3.115-3.115A3.116,3.116,0,0,1,3826.243-8021.569Z" transform="translate(-3499.949 8071.293)" fill="#d1ccc1"/><path d="M3815.563-8021.569a3.116,3.116,0,0,1,3.115,3.113,3.119,3.119,0,0,1-3.115,3.115,3.121,3.121,0,0,1-3.118-3.115A3.118,3.118,0,0,1,3815.563-8021.569Z" transform="translate(-3464.406 8071.293)" fill="#d1ccc1"/><path d="M3933.077-8021.569a3.117,3.117,0,0,1,3.116,3.113,3.12,3.12,0,0,1-3.116,3.115,3.12,3.12,0,0,1-3.118-3.115A3.117,3.117,0,0,1,3933.077-8021.569Z" transform="translate(-3855.379 8071.293)" fill="#d1ccc1"/><path d="M3965.128-8021.569a3.116,3.116,0,0,1,3.115,3.113,3.119,3.119,0,0,1-3.115,3.115,3.121,3.121,0,0,1-3.119-3.115A3.118,3.118,0,0,1,3965.128-8021.569Z" transform="translate(-3962.009 8071.293)" fill="#d1ccc1"/><path d="M3804.878-8021.569a3.117,3.117,0,0,1,3.116,3.113,3.12,3.12,0,0,1-3.116,3.115,3.12,3.12,0,0,1-3.116-3.115A3.117,3.117,0,0,1,3804.878-8021.569Z" transform="translate(-3428.863 8071.293)" fill="#d1ccc1"/><path d="M3794.194-8021.569a3.117,3.117,0,0,1,3.116,3.113,3.119,3.119,0,0,1-3.116,3.115,3.12,3.12,0,0,1-3.116-3.115A3.117,3.117,0,0,1,3794.194-8021.569Z" transform="translate(-3393.319 8071.293)" fill="#d1ccc1"/><path d="M3783.511-8021.569a3.116,3.116,0,0,1,3.115,3.113,3.119,3.119,0,0,1-3.115,3.115,3.12,3.12,0,0,1-3.116-3.115A3.117,3.117,0,0,1,3783.511-8021.569Z" transform="translate(-3357.777 8071.293)" fill="#d1ccc1"/><path d="M3676.678-8032.254a3.122,3.122,0,0,1,3.116,3.116,3.12,3.12,0,0,1-3.116,3.115,3.119,3.119,0,0,1-3.115-3.115A3.121,3.121,0,0,1,3676.678-8032.254Z" transform="translate(-3002.347 8057.116)" fill="#d1ccc1"/><path d="M3740.778-8032.254a3.121,3.121,0,0,1,3.115,3.116,3.119,3.119,0,0,1-3.115,3.115,3.119,3.119,0,0,1-3.116-3.115A3.121,3.121,0,0,1,3740.778-8032.254Z" transform="translate(-3215.604 8057.116)" fill="#d1ccc1"/><path d="M3730.1-8032.254a3.121,3.121,0,0,1,3.116,3.116,3.12,3.12,0,0,1-3.116,3.115,3.12,3.12,0,0,1-3.116-3.115A3.121,3.121,0,0,1,3730.1-8032.254Z" transform="translate(-3180.063 8057.116)" fill="#d1ccc1"/><path d="M3719.411-8032.254a3.121,3.121,0,0,1,3.118,3.116,3.12,3.12,0,0,1-3.118,3.115,3.12,3.12,0,0,1-3.116-3.115A3.121,3.121,0,0,1,3719.411-8032.254Z" transform="translate(-3144.519 8057.116)" fill="#d1ccc1"/><path d="M3708.73-8032.254a3.121,3.121,0,0,1,3.115,3.116,3.119,3.119,0,0,1-3.115,3.115,3.122,3.122,0,0,1-3.119-3.115A3.123,3.123,0,0,1,3708.73-8032.254Z" transform="translate(-3108.976 8057.116)" fill="#d1ccc1"/><path d="M3698.042-8032.254a3.122,3.122,0,0,1,3.119,3.116,3.121,3.121,0,0,1-3.119,3.115,3.117,3.117,0,0,1-3.113-3.115A3.118,3.118,0,0,1,3698.042-8032.254Z" transform="translate(-3073.431 8057.116)" fill="#d1ccc1"/><path d="M3687.361-7754.491a3.118,3.118,0,0,1,3.116,3.115,3.121,3.121,0,0,1-3.116,3.116,3.121,3.121,0,0,1-3.116-3.116A3.118,3.118,0,0,1,3687.361-7754.491Z" transform="translate(-3037.889 8425.709)" fill="#d1ccc1"/><path d="M3687.361-7765.174a3.12,3.12,0,0,1,3.116,3.115,3.121,3.121,0,0,1-3.116,3.116,3.121,3.121,0,0,1-3.116-3.116A3.119,3.119,0,0,1,3687.361-7765.174Z" transform="translate(-3037.889 8411.53)" fill="#d1ccc1"/><path d="M3687.361-7786.542a3.123,3.123,0,0,1,3.116,3.118,3.121,3.121,0,0,1-3.116,3.117,3.121,3.121,0,0,1-3.116-3.117A3.123,3.123,0,0,1,3687.361-7786.542Z" transform="translate(-3037.889 8383.177)" fill="#d1ccc1"/><path d="M3687.361-7818.59a3.12,3.12,0,0,1,3.116,3.115,3.121,3.121,0,0,1-3.116,3.116,3.121,3.121,0,0,1-3.116-3.116A3.12,3.12,0,0,1,3687.361-7818.59Z" transform="translate(-3037.889 8340.648)" fill="#d1ccc1"/><path d="M3687.361-7829.273a3.119,3.119,0,0,1,3.116,3.115,3.118,3.118,0,0,1-3.116,3.116,3.118,3.118,0,0,1-3.116-3.116A3.119,3.119,0,0,1,3687.361-7829.273Z" transform="translate(-3037.889 8326.471)" fill="#d1ccc1"/><path d="M3687.361-7850.641a3.121,3.121,0,0,1,3.116,3.117,3.119,3.119,0,0,1-3.116,3.114,3.119,3.119,0,0,1-3.116-3.114A3.121,3.121,0,0,1,3687.361-7850.641Z" transform="translate(-3037.889 8298.117)" fill="#d1ccc1"/><path d="M3687.361-7861.321a3.117,3.117,0,0,1,3.116,3.113,3.12,3.12,0,0,1-3.116,3.115,3.12,3.12,0,0,1-3.116-3.115A3.117,3.117,0,0,1,3687.361-7861.321Z" transform="translate(-3037.889 8283.941)" fill="#d1ccc1"/><path d="M3687.361-7872.006a3.12,3.12,0,0,1,3.116,3.115,3.12,3.12,0,0,1-3.116,3.115,3.119,3.119,0,0,1-3.116-3.115A3.12,3.12,0,0,1,3687.361-7872.006Z" transform="translate(-3037.889 8269.765)" fill="#d1ccc1"/><path d="M3687.361-7882.689a3.121,3.121,0,0,1,3.116,3.116,3.115,3.115,0,0,1-3.116,3.113,3.115,3.115,0,0,1-3.116-3.113A3.121,3.121,0,0,1,3687.361-7882.689Z" transform="translate(-3037.889 8255.588)" fill="#d1ccc1"/><path d="M3687.361-7893.371a3.12,3.12,0,0,1,3.116,3.115,3.121,3.121,0,0,1-3.116,3.117,3.121,3.121,0,0,1-3.116-3.117A3.12,3.12,0,0,1,3687.361-7893.371Z" transform="translate(-3037.889 8241.411)" fill="#d1ccc1"/><path d="M3687.361-8042.939a3.123,3.123,0,0,1,3.116,3.118,3.117,3.117,0,0,1-3.116,3.115,3.117,3.117,0,0,1-3.116-3.115A3.123,3.123,0,0,1,3687.361-8042.939Z" transform="translate(-3037.889 8042.939)" fill="#d1ccc1"/><path d="M3687.361-7797.225a3.121,3.121,0,0,1,3.116,3.117,3.121,3.121,0,0,1-3.116,3.118,3.121,3.121,0,0,1-3.116-3.118A3.121,3.121,0,0,1,3687.361-7797.225Z" transform="translate(-3037.889 8369)" fill="#d1ccc1"/><path d="M3687.361-7839.957a3.12,3.12,0,0,1,3.116,3.116,3.12,3.12,0,0,1-3.116,3.116,3.12,3.12,0,0,1-3.116-3.116A3.12,3.12,0,0,1,3687.361-7839.957Z" transform="translate(-3037.889 8312.296)" fill="#d1ccc1"/><path d="M3687.361-7807.906a3.116,3.116,0,0,1,3.116,3.112,3.121,3.121,0,0,1-3.116,3.116,3.121,3.121,0,0,1-3.116-3.116A3.116,3.116,0,0,1,3687.361-7807.906Z" transform="translate(-3037.889 8354.825)" fill="#d1ccc1"/><path d="M3687.361-7775.858a3.121,3.121,0,0,1,3.116,3.116,3.119,3.119,0,0,1-3.116,3.116,3.119,3.119,0,0,1-3.116-3.116A3.121,3.121,0,0,1,3687.361-7775.858Z" transform="translate(-3037.889 8397.354)" fill="#d1ccc1"/><path d="M3687.361-7904.057a3.121,3.121,0,0,1,3.116,3.117,3.123,3.123,0,0,1-3.116,3.118,3.123,3.123,0,0,1-3.116-3.118A3.121,3.121,0,0,1,3687.361-7904.057Z" transform="translate(-3037.889 8227.234)" fill="#d1ccc1"/><path d="M3687.361-7946.788a3.12,3.12,0,0,1,3.116,3.117,3.122,3.122,0,0,1-3.116,3.117,3.122,3.122,0,0,1-3.116-3.117A3.12,3.12,0,0,1,3687.361-7946.788Z" transform="translate(-3037.889 8170.526)" fill="#d1ccc1"/><path d="M3687.361-7914.738a3.118,3.118,0,0,1,3.116,3.115,3.119,3.119,0,0,1-3.116,3.114,3.119,3.119,0,0,1-3.116-3.114A3.118,3.118,0,0,1,3687.361-7914.738Z" transform="translate(-3037.889 8213.06)" fill="#d1ccc1"/><path d="M3687.361-7925.421a3.12,3.12,0,0,1,3.116,3.115,3.121,3.121,0,0,1-3.116,3.116,3.121,3.121,0,0,1-3.116-3.116A3.12,3.12,0,0,1,3687.361-7925.421Z" transform="translate(-3037.889 8198.881)" fill="#d1ccc1"/><path d="M3687.361-7936.106a3.121,3.121,0,0,1,3.116,3.116,3.117,3.117,0,0,1-3.116,3.114,3.117,3.117,0,0,1-3.116-3.114A3.121,3.121,0,0,1,3687.361-7936.106Z" transform="translate(-3037.889 8184.707)" fill="#d1ccc1"/><path d="M3687.361-7957.472a3.121,3.121,0,0,1,3.116,3.117,3.124,3.124,0,0,1-3.116,3.118,3.124,3.124,0,0,1-3.116-3.118A3.121,3.121,0,0,1,3687.361-7957.472Z" transform="translate(-3037.889 8156.351)" fill="#d1ccc1"/><path d="M3687.361-7968.153a3.116,3.116,0,0,1,3.116,3.112,3.12,3.12,0,0,1-3.116,3.115,3.12,3.12,0,0,1-3.116-3.115A3.116,3.116,0,0,1,3687.361-7968.153Z" transform="translate(-3037.889 8142.175)" fill="#d1ccc1"/><path d="M3687.361-7978.838a3.12,3.12,0,0,1,3.116,3.115,3.122,3.122,0,0,1-3.116,3.116,3.122,3.122,0,0,1-3.116-3.116A3.119,3.119,0,0,1,3687.361-7978.838Z" transform="translate(-3037.889 8127.999)" fill="#d1ccc1"/><path d="M3687.361-7989.521a3.12,3.12,0,0,1,3.116,3.115,3.117,3.117,0,0,1-3.116,3.113,3.117,3.117,0,0,1-3.116-3.113A3.119,3.119,0,0,1,3687.361-7989.521Z" transform="translate(-3037.889 8113.822)" fill="#d1ccc1"/><path d="M3687.361-8000.2a3.119,3.119,0,0,1,3.116,3.116,3.12,3.12,0,0,1-3.116,3.116,3.12,3.12,0,0,1-3.116-3.116A3.119,3.119,0,0,1,3687.361-8000.2Z" transform="translate(-3037.889 8099.646)" fill="#d1ccc1"/><path d="M3687.361-8010.888a3.121,3.121,0,0,1,3.116,3.117,3.123,3.123,0,0,1-3.116,3.118,3.123,3.123,0,0,1-3.116-3.118A3.121,3.121,0,0,1,3687.361-8010.888Z" transform="translate(-3037.889 8085.468)" fill="#d1ccc1"/><path d="M3687.361-8021.569a3.117,3.117,0,0,1,3.116,3.113,3.12,3.12,0,0,1-3.116,3.115,3.119,3.119,0,0,1-3.116-3.115A3.117,3.117,0,0,1,3687.361-8021.569Z" transform="translate(-3037.889 8071.293)" fill="#d1ccc1"/><path d="M3687.361-8032.254a3.121,3.121,0,0,1,3.116,3.116,3.12,3.12,0,0,1-3.116,3.115,3.119,3.119,0,0,1-3.116-3.115A3.121,3.121,0,0,1,3687.361-8032.254Z" transform="translate(-3037.889 8057.116)" fill="#d1ccc1"/><path d="M3847.61-8032.254a3.121,3.121,0,0,1,3.116,3.116,3.12,3.12,0,0,1-3.116,3.115,3.12,3.12,0,0,1-3.116-3.115A3.121,3.121,0,0,1,3847.61-8032.254Z" transform="translate(-3571.035 8057.116)" fill="#d1ccc1"/><path d="M3879.659-8032.254a3.123,3.123,0,0,1,3.118,3.116,3.121,3.121,0,0,1-3.118,3.115,3.12,3.12,0,0,1-3.116-3.115A3.121,3.121,0,0,1,3879.659-8032.254Z" transform="translate(-3677.664 8057.116)" fill="#d1ccc1"/><path d="M3858.293-8032.254a3.121,3.121,0,0,1,3.116,3.116,3.12,3.12,0,0,1-3.116,3.115,3.119,3.119,0,0,1-3.115-3.115A3.121,3.121,0,0,1,3858.293-8032.254Z" transform="translate(-3606.577 8057.116)" fill="#d1ccc1"/><path d="M3890.343-8032.254a3.121,3.121,0,0,1,3.115,3.116,3.119,3.119,0,0,1-3.115,3.115,3.12,3.12,0,0,1-3.116-3.115A3.121,3.121,0,0,1,3890.343-8032.254Z" transform="translate(-3713.207 8057.116)" fill="#d1ccc1"/><path d="M3901.025-8032.254a3.121,3.121,0,0,1,3.116,3.116,3.12,3.12,0,0,1-3.116,3.115,3.119,3.119,0,0,1-3.115-3.115A3.12,3.12,0,0,1,3901.025-8032.254Z" transform="translate(-3748.749 8057.116)" fill="#d1ccc1"/><path d="M3911.708-8032.254a3.121,3.121,0,0,1,3.116,3.116,3.12,3.12,0,0,1-3.116,3.115,3.119,3.119,0,0,1-3.116-3.115A3.121,3.121,0,0,1,3911.708-8032.254Z" transform="translate(-3784.291 8057.116)" fill="#d1ccc1"/><path d="M3922.394-8032.254a3.121,3.121,0,0,1,3.116,3.116,3.12,3.12,0,0,1-3.116,3.115,3.12,3.12,0,0,1-3.118-3.115A3.121,3.121,0,0,1,3922.394-8032.254Z" transform="translate(-3819.836 8057.116)" fill="#d1ccc1"/><path d="M3954.442-8032.254a3.121,3.121,0,0,1,3.116,3.116,3.119,3.119,0,0,1-3.116,3.115,3.119,3.119,0,0,1-3.116-3.115A3.121,3.121,0,0,1,3954.442-8032.254Z" transform="translate(-3926.464 8057.116)" fill="#d1ccc1"/><path d="M3943.761-8032.254a3.119,3.119,0,0,1,3.114,3.116,3.118,3.118,0,0,1-3.114,3.115,3.12,3.12,0,0,1-3.118-3.115A3.122,3.122,0,0,1,3943.761-8032.254Z" transform="translate(-3890.922 8057.116)" fill="#d1ccc1"/><path d="M3836.927-8032.254a3.121,3.121,0,0,1,3.116,3.116,3.12,3.12,0,0,1-3.116,3.115,3.12,3.12,0,0,1-3.116-3.115A3.121,3.121,0,0,1,3836.927-8032.254Z" transform="translate(-3535.492 8057.116)" fill="#d1ccc1"/><path d="M3868.979-8032.254a3.121,3.121,0,0,1,3.115,3.116,3.119,3.119,0,0,1-3.115,3.115,3.12,3.12,0,0,1-3.118-3.115A3.122,3.122,0,0,1,3868.979-8032.254Z" transform="translate(-3642.121 8057.116)" fill="#d1ccc1"/><path d="M3772.829-8032.254a3.122,3.122,0,0,1,3.116,3.116,3.12,3.12,0,0,1-3.116,3.115,3.119,3.119,0,0,1-3.118-3.115A3.121,3.121,0,0,1,3772.829-8032.254Z" transform="translate(-3322.234 8057.116)" fill="#d1ccc1"/><path d="M3762.146-8032.254a3.121,3.121,0,0,1,3.116,3.116,3.12,3.12,0,0,1-3.116,3.115,3.121,3.121,0,0,1-3.118-3.115A3.123,3.123,0,0,1,3762.146-8032.254Z" transform="translate(-3286.691 8057.116)" fill="#d1ccc1"/><path d="M3751.46-8032.254a3.121,3.121,0,0,1,3.116,3.116,3.12,3.12,0,0,1-3.116,3.115,3.119,3.119,0,0,1-3.115-3.115A3.121,3.121,0,0,1,3751.46-8032.254Z" transform="translate(-3251.146 8057.116)" fill="#d1ccc1"/><path d="M3826.243-8032.254a3.123,3.123,0,0,1,3.118,3.116,3.122,3.122,0,0,1-3.118,3.115,3.119,3.119,0,0,1-3.115-3.115A3.121,3.121,0,0,1,3826.243-8032.254Z" transform="translate(-3499.949 8057.116)" fill="#d1ccc1"/><path d="M3815.563-8032.254a3.121,3.121,0,0,1,3.115,3.116,3.119,3.119,0,0,1-3.115,3.115,3.121,3.121,0,0,1-3.118-3.115A3.123,3.123,0,0,1,3815.563-8032.254Z" transform="translate(-3464.406 8057.116)" fill="#d1ccc1"/><path d="M3933.077-8032.254a3.122,3.122,0,0,1,3.116,3.116,3.12,3.12,0,0,1-3.116,3.115,3.12,3.12,0,0,1-3.118-3.115A3.121,3.121,0,0,1,3933.077-8032.254Z" transform="translate(-3855.379 8057.116)" fill="#d1ccc1"/><path d="M3965.128-8032.254a3.121,3.121,0,0,1,3.115,3.116,3.119,3.119,0,0,1-3.115,3.115,3.121,3.121,0,0,1-3.119-3.115A3.123,3.123,0,0,1,3965.128-8032.254Z" transform="translate(-3962.009 8057.116)" fill="#d1ccc1"/><path d="M3804.878-8032.254a3.121,3.121,0,0,1,3.116,3.116,3.12,3.12,0,0,1-3.116,3.115,3.12,3.12,0,0,1-3.116-3.115A3.122,3.122,0,0,1,3804.878-8032.254Z" transform="translate(-3428.863 8057.116)" fill="#d1ccc1"/><path d="M3794.194-8032.254a3.121,3.121,0,0,1,3.116,3.116,3.119,3.119,0,0,1-3.116,3.115,3.12,3.12,0,0,1-3.116-3.115A3.121,3.121,0,0,1,3794.194-8032.254Z" transform="translate(-3393.319 8057.116)" fill="#d1ccc1"/><path d="M3783.511-8032.254a3.121,3.121,0,0,1,3.115,3.116,3.119,3.119,0,0,1-3.115,3.115,3.12,3.12,0,0,1-3.116-3.115A3.121,3.121,0,0,1,3783.511-8032.254Z" transform="translate(-3357.777 8057.116)" fill="#d1ccc1"/><path d="M3783.511-7914.738a3.118,3.118,0,0,1,3.115,3.115,3.119,3.119,0,0,1-3.115,3.114,3.119,3.119,0,0,1-3.116-3.114A3.118,3.118,0,0,1,3783.511-7914.738Z" transform="translate(-3357.777 8213.06)" fill="#d1ccc1"/><path d="M3783.511-7925.421a3.12,3.12,0,0,1,3.115,3.115,3.121,3.121,0,0,1-3.115,3.116,3.121,3.121,0,0,1-3.116-3.116A3.12,3.12,0,0,1,3783.511-7925.421Z" transform="translate(-3357.777 8198.881)" fill="#d1ccc1"/><path d="M3783.511-7936.106a3.121,3.121,0,0,1,3.115,3.116,3.117,3.117,0,0,1-3.115,3.114,3.117,3.117,0,0,1-3.116-3.114A3.121,3.121,0,0,1,3783.511-7936.106Z" transform="translate(-3357.777 8184.707)" fill="#d1ccc1"/><path d="M3804.878-7936.106a3.121,3.121,0,0,1,3.116,3.116,3.117,3.117,0,0,1-3.116,3.114,3.118,3.118,0,0,1-3.116-3.114A3.122,3.122,0,0,1,3804.878-7936.106Z" transform="translate(-3428.863 8184.707)" fill="#d1ccc1"/><path d="M3794.194-7936.106a3.121,3.121,0,0,1,3.116,3.116,3.117,3.117,0,0,1-3.116,3.114,3.117,3.117,0,0,1-3.116-3.114A3.121,3.121,0,0,1,3794.194-7936.106Z" transform="translate(-3393.319 8184.707)" fill="#d1ccc1"/><path d="M3794.194-7914.738a3.118,3.118,0,0,1,3.116,3.115,3.119,3.119,0,0,1-3.116,3.114,3.119,3.119,0,0,1-3.116-3.114A3.119,3.119,0,0,1,3794.194-7914.738Z" transform="translate(-3393.319 8213.06)" fill="#d1ccc1"/><path d="M3794.194-7925.421a3.12,3.12,0,0,1,3.116,3.115,3.121,3.121,0,0,1-3.116,3.116,3.121,3.121,0,0,1-3.116-3.116A3.121,3.121,0,0,1,3794.194-7925.421Z" transform="translate(-3393.319 8198.881)" fill="#d1ccc1"/><path d="M3804.878-7925.421a3.12,3.12,0,0,1,3.116,3.115,3.121,3.121,0,0,1-3.116,3.116,3.122,3.122,0,0,1-3.116-3.116A3.121,3.121,0,0,1,3804.878-7925.421Z" transform="translate(-3428.863 8198.881)" fill="#d1ccc1"/><path d="M3804.878-7914.738a3.119,3.119,0,0,1,3.116,3.115,3.119,3.119,0,0,1-3.116,3.114,3.119,3.119,0,0,1-3.116-3.114A3.119,3.119,0,0,1,3804.878-7914.738Z" transform="translate(-3428.863 8213.06)" fill="#d1ccc1"/></g></svg>