<svg xmlns="http://www.w3.org/2000/svg" width="74.577" height="74.575" viewBox="0 0 74.577 74.575">
  <g id="Group_1637" data-name="Group 1637" transform="translate(-1013.422 -2991.501)">
    <path id="Path_6432" data-name="Path 6432" d="M3770.721-7946.789a1.013,1.013,0,0,0-1.011,1.012,1.012,1.012,0,0,0,1.011,1.01,1.012,1.012,0,0,0,1.011-1.01A1.013,1.013,0,0,0,3770.721-7946.789Z" transform="translate(-2691.793 11002.782)" fill="#948f8a"/>
    <path id="Path_6433" data-name="Path 6433" d="M3770.721-7936.1a1.012,1.012,0,0,0-1.011,1.011,1.011,1.011,0,0,0,1.011,1.009,1.011,1.011,0,0,0,1.011-1.009A1.013,1.013,0,0,0,3770.721-7936.1Z" transform="translate(-2691.793 11000.161)" fill="#948f8a"/>
    <path id="Path_6434" data-name="Path 6434" d="M3781.405-7946.789a1.013,1.013,0,0,0-1.01,1.012,1.012,1.012,0,0,0,1.01,1.01,1.012,1.012,0,0,0,1.01-1.01A1.013,1.013,0,0,0,3781.405-7946.789Z" transform="translate(-2694.416 11002.782)" fill="#948f8a"/>
    <path id="Path_6435" data-name="Path 6435" d="M3770.721-7957.472a1.013,1.013,0,0,0-1.011,1.012,1.012,1.012,0,0,0,1.011,1.011,1.013,1.013,0,0,0,1.011-1.011A1.013,1.013,0,0,0,3770.721-7957.472Z" transform="translate(-2691.793 11005.404)" fill="#948f8a"/>
    <path id="Path_6436" data-name="Path 6436" d="M3760.038-7946.789a1.012,1.012,0,0,0-1.01,1.012,1.011,1.011,0,0,0,1.01,1.01,1.012,1.012,0,0,0,1.011-1.01A1.013,1.013,0,0,0,3760.038-7946.789Z" transform="translate(-2689.172 11002.782)" fill="#948f8a"/>
    <path id="Path_6437" data-name="Path 6437" d="M3760.038-7936.1a1.012,1.012,0,0,0-1.01,1.011,1.01,1.01,0,0,0,1.01,1.009,1.011,1.011,0,0,0,1.011-1.009A1.013,1.013,0,0,0,3760.038-7936.1Z" transform="translate(-2689.172 11000.161)" fill="#948f8a"/>
    <path id="Path_6438" data-name="Path 6438" d="M3760.038-7957.472a1.012,1.012,0,0,0-1.01,1.012,1.012,1.012,0,0,0,1.01,1.011,1.013,1.013,0,0,0,1.011-1.011A1.013,1.013,0,0,0,3760.038-7957.472Z" transform="translate(-2689.172 11005.404)" fill="#948f8a"/>
    <path id="Path_6439" data-name="Path 6439" d="M3781.405-7957.472a1.013,1.013,0,0,0-1.01,1.012,1.012,1.012,0,0,0,1.01,1.011,1.012,1.012,0,0,0,1.01-1.011A1.013,1.013,0,0,0,3781.405-7957.472Z" transform="translate(-2694.416 11005.404)" fill="#948f8a"/>
    <path id="Path_6440" data-name="Path 6440" d="M3770.721-7968.152a1.01,1.01,0,0,0-1.011,1.009,1.012,1.012,0,0,0,1.011,1.01,1.012,1.012,0,0,0,1.011-1.01A1.01,1.01,0,0,0,3770.721-7968.152Z" transform="translate(-2691.793 11008.024)" fill="#948f8a"/>
    <path id="Path_6441" data-name="Path 6441" d="M3760.038-7968.152a1.009,1.009,0,0,0-1.01,1.009,1.011,1.011,0,0,0,1.01,1.01,1.012,1.012,0,0,0,1.011-1.01A1.01,1.01,0,0,0,3760.038-7968.152Z" transform="translate(-2689.172 11008.024)" fill="#948f8a"/>
    <path id="Path_6442" data-name="Path 6442" d="M3749.355-7946.789a1.013,1.013,0,0,0-1.01,1.012,1.012,1.012,0,0,0,1.01,1.01,1.011,1.011,0,0,0,1.011-1.01A1.012,1.012,0,0,0,3749.355-7946.789Z" transform="translate(-2686.551 11002.782)" fill="#948f8a"/>
    <path id="Path_6443" data-name="Path 6443" d="M3749.355-7936.1a1.012,1.012,0,0,0-1.01,1.011,1.011,1.011,0,0,0,1.01,1.009,1.01,1.01,0,0,0,1.011-1.009A1.012,1.012,0,0,0,3749.355-7936.1Z" transform="translate(-2686.551 11000.161)" fill="#948f8a"/>
    <path id="Path_6444" data-name="Path 6444" d="M3749.355-7957.472a1.013,1.013,0,0,0-1.01,1.012,1.012,1.012,0,0,0,1.01,1.011,1.012,1.012,0,0,0,1.011-1.011A1.012,1.012,0,0,0,3749.355-7957.472Z" transform="translate(-2686.551 11005.404)" fill="#948f8a"/>
    <path id="Path_6445" data-name="Path 6445" d="M3749.355-7968.152a1.009,1.009,0,0,0-1.01,1.009,1.012,1.012,0,0,0,1.01,1.01,1.011,1.011,0,0,0,1.011-1.01A1.009,1.009,0,0,0,3749.355-7968.152Z" transform="translate(-2686.551 11008.024)" fill="#948f8a"/>
    <path id="Path_6446" data-name="Path 6446" d="M3781.405-7968.152a1.009,1.009,0,0,0-1.01,1.009,1.012,1.012,0,0,0,1.01,1.01,1.012,1.012,0,0,0,1.01-1.01A1.009,1.009,0,0,0,3781.405-7968.152Z" transform="translate(-2694.416 11008.024)" fill="#948f8a"/>
    <path id="Path_6447" data-name="Path 6447" d="M3738.672-7946.789a1.012,1.012,0,0,0-1.01,1.012,1.011,1.011,0,0,0,1.01,1.01,1.011,1.011,0,0,0,1.01-1.01A1.012,1.012,0,0,0,3738.672-7946.789Z" transform="translate(-2683.93 11002.782)" fill="#948f8a"/>
    <path id="Path_6448" data-name="Path 6448" d="M3738.672-7936.1a1.012,1.012,0,0,0-1.01,1.011,1.01,1.01,0,0,0,1.01,1.009,1.01,1.01,0,0,0,1.01-1.009A1.012,1.012,0,0,0,3738.672-7936.1Z" transform="translate(-2683.93 11000.161)" fill="#948f8a"/>
    <path id="Path_6449" data-name="Path 6449" d="M3738.672-7957.472a1.012,1.012,0,0,0-1.01,1.012,1.012,1.012,0,0,0,1.01,1.011,1.012,1.012,0,0,0,1.01-1.011A1.012,1.012,0,0,0,3738.672-7957.472Z" transform="translate(-2683.93 11005.404)" fill="#948f8a"/>
    <path id="Path_6450" data-name="Path 6450" d="M3738.672-7968.152a1.009,1.009,0,0,0-1.01,1.009,1.011,1.011,0,0,0,1.01,1.01,1.011,1.011,0,0,0,1.01-1.01A1.009,1.009,0,0,0,3738.672-7968.152Z" transform="translate(-2683.93 11008.024)" fill="#948f8a"/>
    <path id="Path_6451" data-name="Path 6451" d="M3738.672-7978.838a1.012,1.012,0,0,0-1.01,1.011,1.012,1.012,0,0,0,1.01,1.011,1.012,1.012,0,0,0,1.01-1.011A1.012,1.012,0,0,0,3738.672-7978.838Z" transform="translate(-2683.93 11010.647)" fill="#948f8a"/>
    <path id="Path_6452" data-name="Path 6452" d="M3770.721-7978.838a1.012,1.012,0,0,0-1.011,1.011,1.012,1.012,0,0,0,1.011,1.011,1.013,1.013,0,0,0,1.011-1.011A1.013,1.013,0,0,0,3770.721-7978.838Z" transform="translate(-2691.793 11010.647)" fill="#948f8a"/>
    <path id="Path_6453" data-name="Path 6453" d="M3760.038-7978.838a1.012,1.012,0,0,0-1.01,1.011,1.012,1.012,0,0,0,1.01,1.011,1.013,1.013,0,0,0,1.011-1.011A1.013,1.013,0,0,0,3760.038-7978.838Z" transform="translate(-2689.172 11010.647)" fill="#948f8a"/>
    <path id="Path_6454" data-name="Path 6454" d="M3749.355-7978.838a1.012,1.012,0,0,0-1.01,1.011,1.012,1.012,0,0,0,1.01,1.011,1.012,1.012,0,0,0,1.011-1.011A1.012,1.012,0,0,0,3749.355-7978.838Z" transform="translate(-2686.551 11010.647)" fill="#948f8a"/>
    <path id="Path_6455" data-name="Path 6455" d="M3781.405-7978.838a1.012,1.012,0,0,0-1.01,1.011,1.012,1.012,0,0,0,1.01,1.011,1.012,1.012,0,0,0,1.01-1.011A1.012,1.012,0,0,0,3781.405-7978.838Z" transform="translate(-2694.416 11010.647)" fill="#948f8a"/>
    <path id="Path_6456" data-name="Path 6456" d="M3738.672-7989.52a1.011,1.011,0,0,0-1.01,1.009,1.011,1.011,0,0,0,1.01,1.011,1.011,1.011,0,0,0,1.01-1.011A1.011,1.011,0,0,0,3738.672-7989.52Z" transform="translate(-2683.93 11013.268)" fill="#948f8a"/>
    <path id="Path_6457" data-name="Path 6457" d="M3727.989-7946.789a1.012,1.012,0,0,0-1.011,1.012,1.011,1.011,0,0,0,1.011,1.01,1.011,1.011,0,0,0,1.01-1.01A1.012,1.012,0,0,0,3727.989-7946.789Z" transform="translate(-2681.309 11002.782)" fill="#948f8a"/>
    <path id="Path_6458" data-name="Path 6458" d="M3727.989-7936.1a1.012,1.012,0,0,0-1.011,1.011,1.01,1.01,0,0,0,1.011,1.009,1.01,1.01,0,0,0,1.01-1.009A1.012,1.012,0,0,0,3727.989-7936.1Z" transform="translate(-2681.309 11000.161)" fill="#948f8a"/>
    <path id="Path_6459" data-name="Path 6459" d="M3727.989-7957.472a1.012,1.012,0,0,0-1.011,1.012,1.012,1.012,0,0,0,1.011,1.011,1.012,1.012,0,0,0,1.01-1.011A1.012,1.012,0,0,0,3727.989-7957.472Z" transform="translate(-2681.309 11005.404)" fill="#948f8a"/>
    <path id="Path_6460" data-name="Path 6460" d="M3727.989-7968.152a1.009,1.009,0,0,0-1.011,1.009,1.011,1.011,0,0,0,1.011,1.01,1.011,1.011,0,0,0,1.01-1.01A1.009,1.009,0,0,0,3727.989-7968.152Z" transform="translate(-2681.309 11008.024)" fill="#948f8a"/>
    <path id="Path_6461" data-name="Path 6461" d="M3727.989-7978.838a1.012,1.012,0,0,0-1.011,1.011,1.012,1.012,0,0,0,1.011,1.011,1.012,1.012,0,0,0,1.01-1.011A1.012,1.012,0,0,0,3727.989-7978.838Z" transform="translate(-2681.309 11010.647)" fill="#948f8a"/>
    <path id="Path_6462" data-name="Path 6462" d="M3727.989-7989.52a1.011,1.011,0,0,0-1.011,1.009,1.011,1.011,0,0,0,1.011,1.011,1.011,1.011,0,0,0,1.01-1.011A1.011,1.011,0,0,0,3727.989-7989.52Z" transform="translate(-2681.309 11013.268)" fill="#948f8a"/>
    <path id="Path_6463" data-name="Path 6463" d="M3770.721-7989.52a1.011,1.011,0,0,0-1.011,1.009,1.011,1.011,0,0,0,1.011,1.011,1.011,1.011,0,0,0,1.011-1.011A1.012,1.012,0,0,0,3770.721-7989.52Z" transform="translate(-2691.793 11013.268)" fill="#948f8a"/>
    <path id="Path_6464" data-name="Path 6464" d="M3760.038-7989.52a1.011,1.011,0,0,0-1.01,1.009,1.011,1.011,0,0,0,1.01,1.011,1.012,1.012,0,0,0,1.011-1.011A1.012,1.012,0,0,0,3760.038-7989.52Z" transform="translate(-2689.172 11013.268)" fill="#948f8a"/>
    <path id="Path_6465" data-name="Path 6465" d="M3749.355-7989.52a1.011,1.011,0,0,0-1.01,1.009,1.011,1.011,0,0,0,1.01,1.011,1.011,1.011,0,0,0,1.011-1.011A1.011,1.011,0,0,0,3749.355-7989.52Z" transform="translate(-2686.551 11013.268)" fill="#948f8a"/>
    <path id="Path_6466" data-name="Path 6466" d="M3781.405-7989.52a1.011,1.011,0,0,0-1.01,1.009,1.011,1.011,0,0,0,1.01,1.011,1.011,1.011,0,0,0,1.01-1.011A1.011,1.011,0,0,0,3781.405-7989.52Z" transform="translate(-2694.416 11013.268)" fill="#948f8a"/>
    <path id="Path_6467" data-name="Path 6467" d="M3738.672-8000.2a1.011,1.011,0,0,0-1.01,1.01,1.011,1.011,0,0,0,1.01,1.011,1.011,1.011,0,0,0,1.01-1.011A1.011,1.011,0,0,0,3738.672-8000.2Z" transform="translate(-2683.93 11015.89)" fill="#948f8a"/>
    <path id="Path_6468" data-name="Path 6468" d="M3727.989-8000.2a1.011,1.011,0,0,0-1.011,1.01,1.012,1.012,0,0,0,1.011,1.011,1.011,1.011,0,0,0,1.01-1.011A1.011,1.011,0,0,0,3727.989-8000.2Z" transform="translate(-2681.309 11015.89)" fill="#948f8a"/>
    <path id="Path_6469" data-name="Path 6469" d="M3717.306-7946.789a1.012,1.012,0,0,0-1.011,1.012,1.011,1.011,0,0,0,1.011,1.01,1.012,1.012,0,0,0,1.011-1.01A1.013,1.013,0,0,0,3717.306-7946.789Z" transform="translate(-2678.688 11002.782)" fill="#948f8a"/>
    <path id="Path_6470" data-name="Path 6470" d="M3717.306-7936.1a1.012,1.012,0,0,0-1.011,1.011,1.011,1.011,0,0,0,1.011,1.009,1.011,1.011,0,0,0,1.011-1.009A1.013,1.013,0,0,0,3717.306-7936.1Z" transform="translate(-2678.688 11000.161)" fill="#948f8a"/>
    <path id="Path_6471" data-name="Path 6471" d="M3717.306-7957.472a1.012,1.012,0,0,0-1.011,1.012,1.012,1.012,0,0,0,1.011,1.011,1.013,1.013,0,0,0,1.011-1.011A1.013,1.013,0,0,0,3717.306-7957.472Z" transform="translate(-2678.688 11005.404)" fill="#948f8a"/>
    <path id="Path_6472" data-name="Path 6472" d="M3717.306-7968.152a1.009,1.009,0,0,0-1.011,1.009,1.011,1.011,0,0,0,1.011,1.01,1.012,1.012,0,0,0,1.011-1.01A1.01,1.01,0,0,0,3717.306-7968.152Z" transform="translate(-2678.688 11008.024)" fill="#948f8a"/>
    <path id="Path_6473" data-name="Path 6473" d="M3717.306-7978.838a1.012,1.012,0,0,0-1.011,1.011,1.012,1.012,0,0,0,1.011,1.011,1.013,1.013,0,0,0,1.011-1.011A1.013,1.013,0,0,0,3717.306-7978.838Z" transform="translate(-2678.688 11010.647)" fill="#948f8a"/>
    <path id="Path_6474" data-name="Path 6474" d="M3717.306-7989.52a1.011,1.011,0,0,0-1.011,1.009,1.011,1.011,0,0,0,1.011,1.011,1.012,1.012,0,0,0,1.011-1.011A1.012,1.012,0,0,0,3717.306-7989.52Z" transform="translate(-2678.688 11013.268)" fill="#948f8a"/>
    <path id="Path_6475" data-name="Path 6475" d="M3717.306-8000.2a1.011,1.011,0,0,0-1.011,1.01,1.012,1.012,0,0,0,1.011,1.011,1.012,1.012,0,0,0,1.011-1.011A1.012,1.012,0,0,0,3717.306-8000.2Z" transform="translate(-2678.688 11015.89)" fill="#948f8a"/>
    <path id="Path_6476" data-name="Path 6476" d="M3770.721-8000.2a1.012,1.012,0,0,0-1.011,1.01,1.012,1.012,0,0,0,1.011,1.011,1.012,1.012,0,0,0,1.011-1.011A1.012,1.012,0,0,0,3770.721-8000.2Z" transform="translate(-2691.793 11015.89)" fill="#948f8a"/>
    <path id="Path_6477" data-name="Path 6477" d="M3760.038-8000.2a1.011,1.011,0,0,0-1.01,1.01,1.011,1.011,0,0,0,1.01,1.011,1.012,1.012,0,0,0,1.011-1.011A1.012,1.012,0,0,0,3760.038-8000.2Z" transform="translate(-2689.172 11015.89)" fill="#948f8a"/>
    <path id="Path_6478" data-name="Path 6478" d="M3749.355-8000.2a1.012,1.012,0,0,0-1.01,1.01,1.012,1.012,0,0,0,1.01,1.011,1.012,1.012,0,0,0,1.011-1.011A1.011,1.011,0,0,0,3749.355-8000.2Z" transform="translate(-2686.551 11015.89)" fill="#948f8a"/>
    <path id="Path_6479" data-name="Path 6479" d="M3781.405-8000.2a1.012,1.012,0,0,0-1.01,1.01,1.012,1.012,0,0,0,1.01,1.011,1.012,1.012,0,0,0,1.01-1.011A1.012,1.012,0,0,0,3781.405-8000.2Z" transform="translate(-2694.416 11015.89)" fill="#948f8a"/>
    <path id="Path_6480" data-name="Path 6480" d="M3738.672-8010.888a1.012,1.012,0,0,0-1.01,1.011,1.012,1.012,0,0,0,1.01,1.011,1.012,1.012,0,0,0,1.01-1.011A1.012,1.012,0,0,0,3738.672-8010.888Z" transform="translate(-2683.93 11018.512)" fill="#948f8a"/>
    <path id="Path_6481" data-name="Path 6481" d="M3727.989-8010.888a1.012,1.012,0,0,0-1.011,1.011,1.012,1.012,0,0,0,1.011,1.011,1.012,1.012,0,0,0,1.01-1.011A1.012,1.012,0,0,0,3727.989-8010.888Z" transform="translate(-2681.309 11018.512)" fill="#948f8a"/>
    <path id="Path_6482" data-name="Path 6482" d="M3717.306-8010.888a1.012,1.012,0,0,0-1.011,1.011,1.012,1.012,0,0,0,1.011,1.011,1.013,1.013,0,0,0,1.011-1.011A1.013,1.013,0,0,0,3717.306-8010.888Z" transform="translate(-2678.688 11018.512)" fill="#948f8a"/>
    <path id="Path_6483" data-name="Path 6483" d="M3706.622-7946.789a1.013,1.013,0,0,0-1.011,1.012,1.012,1.012,0,0,0,1.011,1.01,1.012,1.012,0,0,0,1.011-1.01A1.013,1.013,0,0,0,3706.622-7946.789Z" transform="translate(-2676.064 11002.782)" fill="#948f8a"/>
    <path id="Path_6484" data-name="Path 6484" d="M3706.622-7936.1a1.012,1.012,0,0,0-1.011,1.011,1.011,1.011,0,0,0,1.011,1.009,1.012,1.012,0,0,0,1.011-1.009A1.013,1.013,0,0,0,3706.622-7936.1Z" transform="translate(-2676.064 11000.161)" fill="#948f8a"/>
    <path id="Path_6485" data-name="Path 6485" d="M3706.622-7957.472a1.013,1.013,0,0,0-1.011,1.012,1.012,1.012,0,0,0,1.011,1.011,1.013,1.013,0,0,0,1.011-1.011A1.013,1.013,0,0,0,3706.622-7957.472Z" transform="translate(-2676.064 11005.404)" fill="#948f8a"/>
    <path id="Path_6486" data-name="Path 6486" d="M3706.622-7968.152a1.01,1.01,0,0,0-1.011,1.009,1.012,1.012,0,0,0,1.011,1.01,1.012,1.012,0,0,0,1.011-1.01A1.01,1.01,0,0,0,3706.622-7968.152Z" transform="translate(-2676.064 11008.024)" fill="#948f8a"/>
    <path id="Path_6487" data-name="Path 6487" d="M3706.622-7978.838a1.012,1.012,0,0,0-1.011,1.011,1.012,1.012,0,0,0,1.011,1.011,1.013,1.013,0,0,0,1.011-1.011A1.013,1.013,0,0,0,3706.622-7978.838Z" transform="translate(-2676.064 11010.647)" fill="#948f8a"/>
    <path id="Path_6488" data-name="Path 6488" d="M3706.622-7989.52a1.011,1.011,0,0,0-1.011,1.009,1.011,1.011,0,0,0,1.011,1.011,1.012,1.012,0,0,0,1.011-1.011A1.012,1.012,0,0,0,3706.622-7989.52Z" transform="translate(-2676.064 11013.268)" fill="#948f8a"/>
    <path id="Path_6489" data-name="Path 6489" d="M3706.622-8000.2a1.012,1.012,0,0,0-1.011,1.01,1.012,1.012,0,0,0,1.011,1.011,1.013,1.013,0,0,0,1.011-1.011A1.012,1.012,0,0,0,3706.622-8000.2Z" transform="translate(-2676.064 11015.89)" fill="#948f8a"/>
    <path id="Path_6490" data-name="Path 6490" d="M3706.622-8010.888a1.012,1.012,0,0,0-1.011,1.011,1.012,1.012,0,0,0,1.011,1.011,1.013,1.013,0,0,0,1.011-1.011A1.013,1.013,0,0,0,3706.622-8010.888Z" transform="translate(-2676.064 11018.512)" fill="#948f8a"/>
    <path id="Path_6491" data-name="Path 6491" d="M3770.721-8010.888a1.012,1.012,0,0,0-1.011,1.011,1.012,1.012,0,0,0,1.011,1.011,1.013,1.013,0,0,0,1.011-1.011A1.013,1.013,0,0,0,3770.721-8010.888Z" transform="translate(-2691.793 11018.512)" fill="#948f8a"/>
    <path id="Path_6492" data-name="Path 6492" d="M3760.038-8010.888a1.012,1.012,0,0,0-1.01,1.011,1.012,1.012,0,0,0,1.01,1.011,1.013,1.013,0,0,0,1.011-1.011A1.013,1.013,0,0,0,3760.038-8010.888Z" transform="translate(-2689.172 11018.512)" fill="#948f8a"/>
    <path id="Path_6493" data-name="Path 6493" d="M3749.355-8010.888a1.012,1.012,0,0,0-1.01,1.011,1.012,1.012,0,0,0,1.01,1.011,1.012,1.012,0,0,0,1.011-1.011A1.012,1.012,0,0,0,3749.355-8010.888Z" transform="translate(-2686.551 11018.512)" fill="#948f8a"/>
    <path id="Path_6494" data-name="Path 6494" d="M3781.405-8010.888a1.012,1.012,0,0,0-1.01,1.011,1.012,1.012,0,0,0,1.01,1.011,1.012,1.012,0,0,0,1.01-1.011A1.012,1.012,0,0,0,3781.405-8010.888Z" transform="translate(-2694.416 11018.512)" fill="#948f8a"/>
    <path id="Path_6495" data-name="Path 6495" d="M3738.672-8021.569a1.011,1.011,0,0,0-1.01,1.011,1.011,1.011,0,0,0,1.01,1.01,1.011,1.011,0,0,0,1.01-1.01A1.011,1.011,0,0,0,3738.672-8021.569Z" transform="translate(-2683.93 11021.133)" fill="#948f8a"/>
    <path id="Path_6496" data-name="Path 6496" d="M3727.989-8021.569a1.011,1.011,0,0,0-1.011,1.011,1.011,1.011,0,0,0,1.011,1.01,1.011,1.011,0,0,0,1.01-1.01A1.011,1.011,0,0,0,3727.989-8021.569Z" transform="translate(-2681.309 11021.133)" fill="#948f8a"/>
    <path id="Path_6497" data-name="Path 6497" d="M3717.306-8021.569a1.011,1.011,0,0,0-1.011,1.011,1.011,1.011,0,0,0,1.011,1.01,1.012,1.012,0,0,0,1.011-1.01A1.012,1.012,0,0,0,3717.306-8021.569Z" transform="translate(-2678.688 11021.133)" fill="#948f8a"/>
    <path id="Path_6498" data-name="Path 6498" d="M3706.622-8021.569a1.011,1.011,0,0,0-1.011,1.011,1.012,1.012,0,0,0,1.011,1.01,1.012,1.012,0,0,0,1.011-1.01A1.012,1.012,0,0,0,3706.622-8021.569Z" transform="translate(-2676.064 11021.133)" fill="#948f8a"/>
    <path id="Path_6499" data-name="Path 6499" d="M3695.94-7946.789a1.013,1.013,0,0,0-1.011,1.012,1.012,1.012,0,0,0,1.011,1.01,1.011,1.011,0,0,0,1.01-1.01A1.012,1.012,0,0,0,3695.94-7946.789Z" transform="translate(-2673.443 11002.782)" fill="#948f8a"/>
    <path id="Path_6500" data-name="Path 6500" d="M3695.94-7936.1a1.013,1.013,0,0,0-1.011,1.011,1.011,1.011,0,0,0,1.011,1.009,1.01,1.01,0,0,0,1.01-1.009A1.012,1.012,0,0,0,3695.94-7936.1Z" transform="translate(-2673.443 11000.161)" fill="#948f8a"/>
    <path id="Path_6501" data-name="Path 6501" d="M3695.94-7957.472a1.013,1.013,0,0,0-1.011,1.012,1.013,1.013,0,0,0,1.011,1.011,1.012,1.012,0,0,0,1.01-1.011A1.012,1.012,0,0,0,3695.94-7957.472Z" transform="translate(-2673.443 11005.404)" fill="#948f8a"/>
    <path id="Path_6502" data-name="Path 6502" d="M3695.94-7968.152a1.01,1.01,0,0,0-1.011,1.009,1.012,1.012,0,0,0,1.011,1.01,1.011,1.011,0,0,0,1.01-1.01A1.009,1.009,0,0,0,3695.94-7968.152Z" transform="translate(-2673.443 11008.024)" fill="#948f8a"/>
    <path id="Path_6503" data-name="Path 6503" d="M3695.94-7978.838a1.013,1.013,0,0,0-1.011,1.011,1.013,1.013,0,0,0,1.011,1.011,1.012,1.012,0,0,0,1.01-1.011A1.012,1.012,0,0,0,3695.94-7978.838Z" transform="translate(-2673.443 11010.647)" fill="#948f8a"/>
    <path id="Path_6504" data-name="Path 6504" d="M3695.94-7989.52a1.012,1.012,0,0,0-1.011,1.009,1.011,1.011,0,0,0,1.011,1.011,1.011,1.011,0,0,0,1.01-1.011A1.011,1.011,0,0,0,3695.94-7989.52Z" transform="translate(-2673.443 11013.268)" fill="#948f8a"/>
    <path id="Path_6505" data-name="Path 6505" d="M3695.94-8000.2a1.012,1.012,0,0,0-1.011,1.01,1.012,1.012,0,0,0,1.011,1.011,1.011,1.011,0,0,0,1.01-1.011A1.011,1.011,0,0,0,3695.94-8000.2Z" transform="translate(-2673.443 11015.89)" fill="#948f8a"/>
    <path id="Path_6506" data-name="Path 6506" d="M3695.94-8010.888a1.013,1.013,0,0,0-1.011,1.011,1.013,1.013,0,0,0,1.011,1.011,1.012,1.012,0,0,0,1.01-1.011A1.012,1.012,0,0,0,3695.94-8010.888Z" transform="translate(-2673.443 11018.512)" fill="#948f8a"/>
    <path id="Path_6507" data-name="Path 6507" d="M3695.94-8021.569a1.011,1.011,0,0,0-1.011,1.011,1.012,1.012,0,0,0,1.011,1.01,1.011,1.011,0,0,0,1.01-1.01A1.011,1.011,0,0,0,3695.94-8021.569Z" transform="translate(-2673.443 11021.133)" fill="#948f8a"/>
    <path id="Path_6508" data-name="Path 6508" d="M3770.721-8021.569a1.011,1.011,0,0,0-1.011,1.011,1.012,1.012,0,0,0,1.011,1.01,1.012,1.012,0,0,0,1.011-1.01A1.011,1.011,0,0,0,3770.721-8021.569Z" transform="translate(-2691.793 11021.133)" fill="#948f8a"/>
    <path id="Path_6509" data-name="Path 6509" d="M3760.038-8021.569a1.011,1.011,0,0,0-1.01,1.011,1.011,1.011,0,0,0,1.01,1.01,1.012,1.012,0,0,0,1.011-1.01A1.012,1.012,0,0,0,3760.038-8021.569Z" transform="translate(-2689.172 11021.133)" fill="#948f8a"/>
    <path id="Path_6510" data-name="Path 6510" d="M3749.355-8021.569a1.011,1.011,0,0,0-1.01,1.011,1.012,1.012,0,0,0,1.01,1.01,1.011,1.011,0,0,0,1.011-1.01A1.011,1.011,0,0,0,3749.355-8021.569Z" transform="translate(-2686.551 11021.133)" fill="#948f8a"/>
    <path id="Path_6511" data-name="Path 6511" d="M3781.405-8021.569a1.011,1.011,0,0,0-1.01,1.011,1.012,1.012,0,0,0,1.01,1.01,1.012,1.012,0,0,0,1.01-1.01A1.011,1.011,0,0,0,3781.405-8021.569Z" transform="translate(-2694.416 11021.133)" fill="#948f8a"/>
    <path id="Path_6512" data-name="Path 6512" d="M3738.672-8032.253a1.011,1.011,0,0,0-1.01,1.011,1.011,1.011,0,0,0,1.01,1.01,1.011,1.011,0,0,0,1.01-1.01A1.011,1.011,0,0,0,3738.672-8032.253Z" transform="translate(-2683.93 11023.754)" fill="#948f8a"/>
    <path id="Path_6513" data-name="Path 6513" d="M3727.989-8032.253a1.012,1.012,0,0,0-1.011,1.011,1.011,1.011,0,0,0,1.011,1.01,1.011,1.011,0,0,0,1.01-1.01A1.011,1.011,0,0,0,3727.989-8032.253Z" transform="translate(-2681.309 11023.754)" fill="#948f8a"/>
    <path id="Path_6514" data-name="Path 6514" d="M3717.306-8032.253a1.012,1.012,0,0,0-1.011,1.011,1.011,1.011,0,0,0,1.011,1.01,1.012,1.012,0,0,0,1.011-1.01A1.012,1.012,0,0,0,3717.306-8032.253Z" transform="translate(-2678.688 11023.754)" fill="#948f8a"/>
    <path id="Path_6515" data-name="Path 6515" d="M3706.622-8032.253a1.012,1.012,0,0,0-1.011,1.011,1.012,1.012,0,0,0,1.011,1.01,1.012,1.012,0,0,0,1.011-1.01A1.013,1.013,0,0,0,3706.622-8032.253Z" transform="translate(-2676.064 11023.754)" fill="#948f8a"/>
    <path id="Path_6516" data-name="Path 6516" d="M3695.94-8032.253a1.012,1.012,0,0,0-1.011,1.011,1.012,1.012,0,0,0,1.011,1.01,1.011,1.011,0,0,0,1.01-1.01A1.011,1.011,0,0,0,3695.94-8032.253Z" transform="translate(-2673.443 11023.754)" fill="#948f8a"/>
    <path id="Path_6531" data-name="Path 6531" d="M3695.94-8032.253a1.012,1.012,0,0,0-1.011,1.011,1.012,1.012,0,0,0,1.011,1.01,1.011,1.011,0,0,0,1.01-1.01A1.011,1.011,0,0,0,3695.94-8032.253Z" transform="translate(-2681.506 11023.754)" fill="#948f8a"/>
    <path id="Path_6517" data-name="Path 6517" d="M3685.256-7946.789a1.012,1.012,0,0,0-1.01,1.012,1.011,1.011,0,0,0,1.01,1.01,1.011,1.011,0,0,0,1.011-1.01A1.012,1.012,0,0,0,3685.256-7946.789Z" transform="translate(-2670.822 11002.782)" fill="#948f8a"/>
    <path id="Path_6518" data-name="Path 6518" d="M3685.256-7936.1a1.012,1.012,0,0,0-1.01,1.011,1.01,1.01,0,0,0,1.01,1.009,1.01,1.01,0,0,0,1.011-1.009A1.012,1.012,0,0,0,3685.256-7936.1Z" transform="translate(-2670.822 11000.161)" fill="#948f8a"/>
    <path id="Path_6519" data-name="Path 6519" d="M3685.256-7957.472a1.012,1.012,0,0,0-1.01,1.012,1.012,1.012,0,0,0,1.01,1.011,1.012,1.012,0,0,0,1.011-1.011A1.012,1.012,0,0,0,3685.256-7957.472Z" transform="translate(-2670.822 11005.404)" fill="#948f8a"/>
    <path id="Path_6520" data-name="Path 6520" d="M3685.256-7968.152a1.009,1.009,0,0,0-1.01,1.009,1.011,1.011,0,0,0,1.01,1.01,1.011,1.011,0,0,0,1.011-1.01A1.009,1.009,0,0,0,3685.256-7968.152Z" transform="translate(-2670.822 11008.024)" fill="#948f8a"/>
    <path id="Path_6521" data-name="Path 6521" d="M3685.256-7978.838a1.012,1.012,0,0,0-1.01,1.011,1.012,1.012,0,0,0,1.01,1.011,1.012,1.012,0,0,0,1.011-1.011A1.012,1.012,0,0,0,3685.256-7978.838Z" transform="translate(-2670.822 11010.647)" fill="#948f8a"/>
    <path id="Path_6522" data-name="Path 6522" d="M3685.256-7989.52a1.011,1.011,0,0,0-1.01,1.009,1.011,1.011,0,0,0,1.01,1.011,1.011,1.011,0,0,0,1.011-1.011A1.011,1.011,0,0,0,3685.256-7989.52Z" transform="translate(-2670.822 11013.268)" fill="#948f8a"/>
    <path id="Path_6523" data-name="Path 6523" d="M3685.256-8000.2a1.011,1.011,0,0,0-1.01,1.01,1.011,1.011,0,0,0,1.01,1.011,1.012,1.012,0,0,0,1.011-1.011A1.011,1.011,0,0,0,3685.256-8000.2Z" transform="translate(-2670.822 11015.89)" fill="#948f8a"/>
    <path id="Path_6524" data-name="Path 6524" d="M3685.256-8010.888a1.012,1.012,0,0,0-1.01,1.011,1.012,1.012,0,0,0,1.01,1.011,1.012,1.012,0,0,0,1.011-1.011A1.012,1.012,0,0,0,3685.256-8010.888Z" transform="translate(-2670.822 11018.512)" fill="#948f8a"/>
    <path id="Path_6525" data-name="Path 6525" d="M3685.256-8021.569a1.011,1.011,0,0,0-1.01,1.011,1.011,1.011,0,0,0,1.01,1.01,1.011,1.011,0,0,0,1.011-1.01A1.011,1.011,0,0,0,3685.256-8021.569Z" transform="translate(-2670.822 11021.133)" fill="#948f8a"/>
    <path id="Path_6526" data-name="Path 6526" d="M3770.721-8032.253a1.012,1.012,0,0,0-1.011,1.011,1.012,1.012,0,0,0,1.011,1.01,1.012,1.012,0,0,0,1.011-1.01A1.012,1.012,0,0,0,3770.721-8032.253Z" transform="translate(-2691.793 11023.754)" fill="#948f8a"/>
    <path id="Path_6527" data-name="Path 6527" d="M3760.038-8032.253a1.011,1.011,0,0,0-1.01,1.011,1.011,1.011,0,0,0,1.01,1.01,1.012,1.012,0,0,0,1.011-1.01A1.012,1.012,0,0,0,3760.038-8032.253Z" transform="translate(-2689.172 11023.754)" fill="#948f8a"/>
    <path id="Path_6528" data-name="Path 6528" d="M3749.355-8032.253a1.012,1.012,0,0,0-1.01,1.011,1.012,1.012,0,0,0,1.01,1.01,1.011,1.011,0,0,0,1.011-1.01A1.012,1.012,0,0,0,3749.355-8032.253Z" transform="translate(-2686.551 11023.754)" fill="#948f8a"/>
    <path id="Path_6529" data-name="Path 6529" d="M3781.405-8032.253a1.012,1.012,0,0,0-1.01,1.011,1.012,1.012,0,0,0,1.01,1.01,1.012,1.012,0,0,0,1.01-1.01A1.012,1.012,0,0,0,3781.405-8032.253Z" transform="translate(-2694.416 11023.754)" fill="#948f8a"/>
    <path id="Path_6530" data-name="Path 6530" d="M3781.405-7936.1a1.012,1.012,0,0,0-1.01,1.011,1.011,1.011,0,0,0,1.01,1.009,1.011,1.011,0,0,0,1.01-1.009A1.012,1.012,0,0,0,3781.405-7936.1Z" transform="translate(-2694.416 11000.161)" fill="#948f8a"/>
  </g>
</svg>
