<svg xmlns="http://www.w3.org/2000/svg" width="529.043" height="529.042" viewBox="0 0 529.043 529.042">
  <g id="Group_1215" data-name="Group 1215" transform="translate(-3673.563 8042.938)">
    <path id="Path_4284" data-name="Path 4284" d="M3889.66-7754.49a2.434,2.434,0,0,0-2.433,2.433,2.436,2.436,0,0,0,2.433,2.433,2.437,2.437,0,0,0,2.434-2.433A2.435,2.435,0,0,0,3889.66-7754.49Z" transform="translate(174.614 235.73)" fill="#d1ccc1"/>
    <path id="Path_4285" data-name="Path 4285" d="M3900.344-7754.49a2.435,2.435,0,0,0-2.434,2.433,2.437,2.437,0,0,0,2.434,2.433,2.436,2.436,0,0,0,2.433-2.433A2.434,2.434,0,0,0,3900.344-7754.49Z" transform="translate(183.344 235.73)" fill="#d1ccc1"/>
    <path id="Path_4286" data-name="Path 4286" d="M3911.026-7754.49a2.435,2.435,0,0,0-2.433,2.433,2.436,2.436,0,0,0,2.433,2.433,2.437,2.437,0,0,0,2.434-2.433A2.435,2.435,0,0,0,3911.026-7754.49Z" transform="translate(192.075 235.73)" fill="#d1ccc1"/>
    <path id="Path_4287" data-name="Path 4287" d="M3921.709-7754.49a2.435,2.435,0,0,0-2.434,2.433,2.437,2.437,0,0,0,2.434,2.433,2.437,2.437,0,0,0,2.436-2.433A2.435,2.435,0,0,0,3921.709-7754.49Z" transform="translate(200.806 235.73)" fill="#d1ccc1"/>
    <path id="Path_4288" data-name="Path 4288" d="M3953.759-7754.49a2.435,2.435,0,0,0-2.434,2.433,2.437,2.437,0,0,0,2.434,2.433,2.436,2.436,0,0,0,2.433-2.433A2.435,2.435,0,0,0,3953.759-7754.49Z" transform="translate(226.998 235.73)" fill="#d1ccc1"/>
    <path id="Path_4289" data-name="Path 4289" d="M3964.442-7754.49a2.433,2.433,0,0,0-2.433,2.433,2.435,2.435,0,0,0,2.433,2.433,2.437,2.437,0,0,0,2.434-2.433A2.435,2.435,0,0,0,3964.442-7754.49Z" transform="translate(235.728 235.73)" fill="#d1ccc1"/>
    <path id="Path_4292" data-name="Path 4292" d="M3889.66-7765.173a2.436,2.436,0,0,0-2.433,2.433,2.437,2.437,0,0,0,2.433,2.434,2.437,2.437,0,0,0,2.434-2.434A2.436,2.436,0,0,0,3889.66-7765.173Z" transform="translate(174.614 226.998)" fill="#d1ccc1"/>
    <path id="Path_4293" data-name="Path 4293" d="M3900.344-7765.173a2.436,2.436,0,0,0-2.434,2.433,2.437,2.437,0,0,0,2.434,2.434,2.437,2.437,0,0,0,2.433-2.434A2.435,2.435,0,0,0,3900.344-7765.173Z" transform="translate(183.344 226.998)" fill="#d1ccc1"/>
    <path id="Path_4294" data-name="Path 4294" d="M3911.026-7765.173a2.436,2.436,0,0,0-2.433,2.433,2.437,2.437,0,0,0,2.433,2.434,2.437,2.437,0,0,0,2.434-2.434A2.436,2.436,0,0,0,3911.026-7765.173Z" transform="translate(192.075 226.998)" fill="#d1ccc1"/>
    <path id="Path_4295" data-name="Path 4295" d="M3921.709-7765.173a2.436,2.436,0,0,0-2.434,2.433,2.437,2.437,0,0,0,2.434,2.434,2.438,2.438,0,0,0,2.436-2.434A2.436,2.436,0,0,0,3921.709-7765.173Z" transform="translate(200.806 226.998)" fill="#d1ccc1"/>
    <path id="Path_4296" data-name="Path 4296" d="M3953.759-7765.173a2.436,2.436,0,0,0-2.434,2.433,2.437,2.437,0,0,0,2.434,2.434,2.437,2.437,0,0,0,2.433-2.434A2.436,2.436,0,0,0,3953.759-7765.173Z" transform="translate(226.998 226.998)" fill="#d1ccc1"/>
    <path id="Path_4297" data-name="Path 4297" d="M3964.442-7765.173a2.436,2.436,0,0,0-2.433,2.433,2.437,2.437,0,0,0,2.433,2.434,2.439,2.439,0,0,0,2.436-2.434A2.438,2.438,0,0,0,3964.442-7765.173Z" transform="translate(235.728 226.998)" fill="#d1ccc1"/>
    <path id="Path_4300" data-name="Path 4300" d="M3889.66-7786.541a2.438,2.438,0,0,0-2.433,2.435,2.436,2.436,0,0,0,2.433,2.434,2.437,2.437,0,0,0,2.434-2.434A2.438,2.438,0,0,0,3889.66-7786.541Z" transform="translate(174.614 209.536)" fill="#d1ccc1"/>
    <path id="Path_4301" data-name="Path 4301" d="M3900.344-7786.541a2.438,2.438,0,0,0-2.434,2.435,2.437,2.437,0,0,0,2.434,2.434,2.436,2.436,0,0,0,2.433-2.434A2.438,2.438,0,0,0,3900.344-7786.541Z" transform="translate(183.344 209.536)" fill="#d1ccc1"/>
    <path id="Path_4302" data-name="Path 4302" d="M3911.026-7786.541a2.438,2.438,0,0,0-2.433,2.435,2.437,2.437,0,0,0,2.433,2.434,2.437,2.437,0,0,0,2.434-2.434A2.438,2.438,0,0,0,3911.026-7786.541Z" transform="translate(192.075 209.536)" fill="#d1ccc1"/>
    <path id="Path_4303" data-name="Path 4303" d="M3921.709-7786.541a2.438,2.438,0,0,0-2.434,2.435,2.437,2.437,0,0,0,2.434,2.434,2.437,2.437,0,0,0,2.436-2.434A2.439,2.439,0,0,0,3921.709-7786.541Z" transform="translate(200.806 209.536)" fill="#d1ccc1"/>
    <path id="Path_4304" data-name="Path 4304" d="M3953.759-7786.541a2.438,2.438,0,0,0-2.434,2.435,2.437,2.437,0,0,0,2.434,2.434,2.437,2.437,0,0,0,2.433-2.434A2.438,2.438,0,0,0,3953.759-7786.541Z" transform="translate(226.998 209.536)" fill="#d1ccc1"/>
    <path id="Path_4305" data-name="Path 4305" d="M3964.442-7786.541a2.438,2.438,0,0,0-2.433,2.435,2.437,2.437,0,0,0,2.433,2.434,2.438,2.438,0,0,0,2.436-2.434A2.44,2.44,0,0,0,3964.442-7786.541Z" transform="translate(235.728 209.536)" fill="#d1ccc1"/>
    <path id="Path_4308" data-name="Path 4308" d="M3889.66-7818.589a2.436,2.436,0,0,0-2.433,2.433,2.437,2.437,0,0,0,2.433,2.434,2.437,2.437,0,0,0,2.434-2.434A2.437,2.437,0,0,0,3889.66-7818.589Z" transform="translate(174.614 183.345)" fill="#d1ccc1"/>
    <path id="Path_4309" data-name="Path 4309" d="M3900.344-7818.589a2.437,2.437,0,0,0-2.434,2.433,2.437,2.437,0,0,0,2.434,2.434,2.437,2.437,0,0,0,2.433-2.434A2.436,2.436,0,0,0,3900.344-7818.589Z" transform="translate(183.344 183.345)" fill="#d1ccc1"/>
    <path id="Path_4310" data-name="Path 4310" d="M3911.026-7818.589a2.436,2.436,0,0,0-2.433,2.433,2.437,2.437,0,0,0,2.433,2.434,2.437,2.437,0,0,0,2.434-2.434A2.437,2.437,0,0,0,3911.026-7818.589Z" transform="translate(192.075 183.345)" fill="#d1ccc1"/>
    <path id="Path_4311" data-name="Path 4311" d="M3921.709-7818.589a2.437,2.437,0,0,0-2.434,2.433,2.437,2.437,0,0,0,2.434,2.434,2.438,2.438,0,0,0,2.436-2.434A2.437,2.437,0,0,0,3921.709-7818.589Z" transform="translate(200.806 183.345)" fill="#d1ccc1"/>
    <path id="Path_4312" data-name="Path 4312" d="M3953.759-7818.589a2.437,2.437,0,0,0-2.434,2.433,2.437,2.437,0,0,0,2.434,2.434,2.437,2.437,0,0,0,2.433-2.434A2.436,2.436,0,0,0,3953.759-7818.589Z" transform="translate(226.998 183.345)" fill="#d1ccc1"/>
    <path id="Path_4313" data-name="Path 4313" d="M3964.442-7818.589a2.436,2.436,0,0,0-2.433,2.433,2.437,2.437,0,0,0,2.433,2.434,2.439,2.439,0,0,0,2.436-2.434A2.438,2.438,0,0,0,3964.442-7818.589Z" transform="translate(235.728 183.345)" fill="#d1ccc1"/>
    <path id="Path_4316" data-name="Path 4316" d="M3889.66-7829.272a2.437,2.437,0,0,0-2.433,2.433,2.435,2.435,0,0,0,2.433,2.434,2.436,2.436,0,0,0,2.434-2.434A2.437,2.437,0,0,0,3889.66-7829.272Z" transform="translate(174.614 174.614)" fill="#d1ccc1"/>
    <path id="Path_4317" data-name="Path 4317" d="M3900.344-7829.272a2.437,2.437,0,0,0-2.434,2.433,2.436,2.436,0,0,0,2.434,2.434,2.435,2.435,0,0,0,2.433-2.434A2.437,2.437,0,0,0,3900.344-7829.272Z" transform="translate(183.344 174.614)" fill="#d1ccc1"/>
    <path id="Path_4318" data-name="Path 4318" d="M3911.026-7829.272a2.437,2.437,0,0,0-2.433,2.433,2.435,2.435,0,0,0,2.433,2.434,2.436,2.436,0,0,0,2.434-2.434A2.437,2.437,0,0,0,3911.026-7829.272Z" transform="translate(192.075 174.614)" fill="#d1ccc1"/>
    <path id="Path_4319" data-name="Path 4319" d="M3921.709-7829.272a2.437,2.437,0,0,0-2.434,2.433,2.436,2.436,0,0,0,2.434,2.434,2.436,2.436,0,0,0,2.436-2.434A2.438,2.438,0,0,0,3921.709-7829.272Z" transform="translate(200.806 174.614)" fill="#d1ccc1"/>
    <path id="Path_4320" data-name="Path 4320" d="M3953.759-7829.272a2.437,2.437,0,0,0-2.434,2.433,2.436,2.436,0,0,0,2.434,2.434,2.435,2.435,0,0,0,2.433-2.434A2.437,2.437,0,0,0,3953.759-7829.272Z" transform="translate(226.998 174.614)" fill="#d1ccc1"/>
    <path id="Path_4321" data-name="Path 4321" d="M3964.442-7829.272a2.437,2.437,0,0,0-2.433,2.433,2.435,2.435,0,0,0,2.433,2.434,2.437,2.437,0,0,0,2.436-2.434A2.439,2.439,0,0,0,3964.442-7829.272Z" transform="translate(235.728 174.614)" fill="#d1ccc1"/>
    <path id="Path_4324" data-name="Path 4324" d="M3889.66-7850.64a2.436,2.436,0,0,0-2.433,2.434,2.437,2.437,0,0,0,2.433,2.434,2.437,2.437,0,0,0,2.434-2.434A2.437,2.437,0,0,0,3889.66-7850.64Z" transform="translate(174.614 157.152)" fill="#d1ccc1"/>
    <path id="Path_4325" data-name="Path 4325" d="M3900.344-7850.64a2.437,2.437,0,0,0-2.434,2.434,2.437,2.437,0,0,0,2.434,2.434,2.437,2.437,0,0,0,2.433-2.434A2.436,2.436,0,0,0,3900.344-7850.64Z" transform="translate(183.344 157.152)" fill="#d1ccc1"/>
    <path id="Path_4326" data-name="Path 4326" d="M3911.026-7850.64a2.437,2.437,0,0,0-2.433,2.434,2.437,2.437,0,0,0,2.433,2.434,2.437,2.437,0,0,0,2.434-2.434A2.437,2.437,0,0,0,3911.026-7850.64Z" transform="translate(192.075 157.152)" fill="#d1ccc1"/>
    <path id="Path_4327" data-name="Path 4327" d="M3921.709-7850.64a2.437,2.437,0,0,0-2.434,2.434,2.437,2.437,0,0,0,2.434,2.434,2.438,2.438,0,0,0,2.436-2.434A2.437,2.437,0,0,0,3921.709-7850.64Z" transform="translate(200.806 157.152)" fill="#d1ccc1"/>
    <path id="Path_4328" data-name="Path 4328" d="M3953.759-7850.64a2.437,2.437,0,0,0-2.434,2.434,2.437,2.437,0,0,0,2.434,2.434,2.437,2.437,0,0,0,2.433-2.434A2.437,2.437,0,0,0,3953.759-7850.64Z" transform="translate(226.998 157.152)" fill="#d1ccc1"/>
    <path id="Path_4329" data-name="Path 4329" d="M3964.442-7850.64a2.437,2.437,0,0,0-2.433,2.434,2.437,2.437,0,0,0,2.433,2.434,2.439,2.439,0,0,0,2.436-2.434A2.438,2.438,0,0,0,3964.442-7850.64Z" transform="translate(235.728 157.152)" fill="#d1ccc1"/>
    <path id="Path_4332" data-name="Path 4332" d="M3889.66-7861.321a2.433,2.433,0,0,0-2.433,2.432,2.436,2.436,0,0,0,2.433,2.433,2.437,2.437,0,0,0,2.434-2.433A2.434,2.434,0,0,0,3889.66-7861.321Z" transform="translate(174.614 148.423)" fill="#d1ccc1"/>
    <path id="Path_4333" data-name="Path 4333" d="M3900.344-7861.321a2.434,2.434,0,0,0-2.434,2.432,2.437,2.437,0,0,0,2.434,2.433,2.436,2.436,0,0,0,2.433-2.433A2.433,2.433,0,0,0,3900.344-7861.321Z" transform="translate(183.344 148.423)" fill="#d1ccc1"/>
    <path id="Path_4334" data-name="Path 4334" d="M3911.026-7861.321a2.434,2.434,0,0,0-2.433,2.432,2.436,2.436,0,0,0,2.433,2.433,2.437,2.437,0,0,0,2.434-2.433A2.434,2.434,0,0,0,3911.026-7861.321Z" transform="translate(192.075 148.423)" fill="#d1ccc1"/>
    <path id="Path_4335" data-name="Path 4335" d="M3921.709-7861.321a2.434,2.434,0,0,0-2.434,2.432,2.437,2.437,0,0,0,2.434,2.433,2.437,2.437,0,0,0,2.436-2.433A2.434,2.434,0,0,0,3921.709-7861.321Z" transform="translate(200.806 148.423)" fill="#d1ccc1"/>
    <path id="Path_4336" data-name="Path 4336" d="M3953.759-7861.321a2.434,2.434,0,0,0-2.434,2.432,2.437,2.437,0,0,0,2.434,2.433,2.436,2.436,0,0,0,2.433-2.433A2.434,2.434,0,0,0,3953.759-7861.321Z" transform="translate(226.998 148.423)" fill="#d1ccc1"/>
    <path id="Path_4337" data-name="Path 4337" d="M3964.442-7861.321a2.434,2.434,0,0,0-2.433,2.432,2.436,2.436,0,0,0,2.433,2.433,2.438,2.438,0,0,0,2.436-2.433A2.436,2.436,0,0,0,3964.442-7861.321Z" transform="translate(235.728 148.423)" fill="#d1ccc1"/>
    <path id="Path_4340" data-name="Path 4340" d="M3889.66-7872a2.436,2.436,0,0,0-2.433,2.433,2.436,2.436,0,0,0,2.433,2.433,2.437,2.437,0,0,0,2.434-2.433A2.437,2.437,0,0,0,3889.66-7872Z" transform="translate(174.614 139.691)" fill="#d1ccc1"/>
    <path id="Path_4341" data-name="Path 4341" d="M3900.344-7872a2.437,2.437,0,0,0-2.434,2.433,2.437,2.437,0,0,0,2.434,2.433,2.436,2.436,0,0,0,2.433-2.433A2.436,2.436,0,0,0,3900.344-7872Z" transform="translate(183.344 139.691)" fill="#d1ccc1"/>
    <path id="Path_4342" data-name="Path 4342" d="M3911.026-7872a2.436,2.436,0,0,0-2.433,2.433,2.436,2.436,0,0,0,2.433,2.433,2.437,2.437,0,0,0,2.434-2.433A2.437,2.437,0,0,0,3911.026-7872Z" transform="translate(192.075 139.691)" fill="#d1ccc1"/>
    <path id="Path_4343" data-name="Path 4343" d="M3921.709-7872a2.437,2.437,0,0,0-2.434,2.433,2.437,2.437,0,0,0,2.434,2.433,2.437,2.437,0,0,0,2.436-2.433A2.437,2.437,0,0,0,3921.709-7872Z" transform="translate(200.806 139.691)" fill="#d1ccc1"/>
    <path id="Path_4344" data-name="Path 4344" d="M3953.759-7872a2.437,2.437,0,0,0-2.434,2.433,2.437,2.437,0,0,0,2.434,2.433,2.436,2.436,0,0,0,2.433-2.433A2.436,2.436,0,0,0,3953.759-7872Z" transform="translate(226.998 139.691)" fill="#d1ccc1"/>
    <path id="Path_4345" data-name="Path 4345" d="M3964.442-7872a2.436,2.436,0,0,0-2.433,2.433,2.436,2.436,0,0,0,2.433,2.433,2.438,2.438,0,0,0,2.436-2.433A2.438,2.438,0,0,0,3964.442-7872Z" transform="translate(235.728 139.691)" fill="#d1ccc1"/>
    <path id="Path_4348" data-name="Path 4348" d="M3889.66-7882.688a2.436,2.436,0,0,0-2.433,2.433,2.433,2.433,0,0,0,2.433,2.432,2.434,2.434,0,0,0,2.434-2.432A2.437,2.437,0,0,0,3889.66-7882.688Z" transform="translate(174.614 130.961)" fill="#d1ccc1"/>
    <path id="Path_4349" data-name="Path 4349" d="M3900.344-7882.688a2.437,2.437,0,0,0-2.434,2.433,2.434,2.434,0,0,0,2.434,2.432,2.433,2.433,0,0,0,2.433-2.432A2.436,2.436,0,0,0,3900.344-7882.688Z" transform="translate(183.344 130.961)" fill="#d1ccc1"/>
    <path id="Path_4350" data-name="Path 4350" d="M3911.026-7882.688a2.436,2.436,0,0,0-2.433,2.433,2.434,2.434,0,0,0,2.433,2.432,2.434,2.434,0,0,0,2.434-2.432A2.437,2.437,0,0,0,3911.026-7882.688Z" transform="translate(192.075 130.961)" fill="#d1ccc1"/>
    <path id="Path_4351" data-name="Path 4351" d="M3921.709-7882.688a2.437,2.437,0,0,0-2.434,2.433,2.434,2.434,0,0,0,2.434,2.432,2.434,2.434,0,0,0,2.436-2.432A2.437,2.437,0,0,0,3921.709-7882.688Z" transform="translate(200.806 130.961)" fill="#d1ccc1"/>
    <path id="Path_4352" data-name="Path 4352" d="M3953.759-7882.688a2.437,2.437,0,0,0-2.434,2.433,2.434,2.434,0,0,0,2.434,2.432,2.434,2.434,0,0,0,2.433-2.432A2.436,2.436,0,0,0,3953.759-7882.688Z" transform="translate(226.998 130.961)" fill="#d1ccc1"/>
    <path id="Path_4353" data-name="Path 4353" d="M3964.442-7882.688a2.436,2.436,0,0,0-2.433,2.433,2.434,2.434,0,0,0,2.433,2.432,2.436,2.436,0,0,0,2.436-2.432A2.438,2.438,0,0,0,3964.442-7882.688Z" transform="translate(235.728 130.961)" fill="#d1ccc1"/>
    <path id="Path_4356" data-name="Path 4356" d="M3889.66-7893.372a2.437,2.437,0,0,0-2.433,2.434,2.436,2.436,0,0,0,2.433,2.434,2.437,2.437,0,0,0,2.434-2.434A2.437,2.437,0,0,0,3889.66-7893.372Z" transform="translate(174.614 122.23)" fill="#d1ccc1"/>
    <path id="Path_4357" data-name="Path 4357" d="M3900.344-7893.372a2.437,2.437,0,0,0-2.434,2.434,2.437,2.437,0,0,0,2.434,2.434,2.436,2.436,0,0,0,2.433-2.434A2.437,2.437,0,0,0,3900.344-7893.372Z" transform="translate(183.344 122.23)" fill="#d1ccc1"/>
    <path id="Path_4358" data-name="Path 4358" d="M3911.026-7893.372a2.437,2.437,0,0,0-2.433,2.434,2.437,2.437,0,0,0,2.433,2.434,2.437,2.437,0,0,0,2.434-2.434A2.437,2.437,0,0,0,3911.026-7893.372Z" transform="translate(192.075 122.23)" fill="#d1ccc1"/>
    <path id="Path_4359" data-name="Path 4359" d="M3921.709-7893.372a2.437,2.437,0,0,0-2.434,2.434,2.437,2.437,0,0,0,2.434,2.434,2.437,2.437,0,0,0,2.436-2.434A2.438,2.438,0,0,0,3921.709-7893.372Z" transform="translate(200.806 122.23)" fill="#d1ccc1"/>
    <path id="Path_4360" data-name="Path 4360" d="M3953.759-7893.372a2.437,2.437,0,0,0-2.434,2.434,2.437,2.437,0,0,0,2.434,2.434,2.437,2.437,0,0,0,2.433-2.434A2.437,2.437,0,0,0,3953.759-7893.372Z" transform="translate(226.998 122.23)" fill="#d1ccc1"/>
    <path id="Path_4361" data-name="Path 4361" d="M3964.442-7893.372a2.437,2.437,0,0,0-2.433,2.434,2.437,2.437,0,0,0,2.433,2.434,2.438,2.438,0,0,0,2.436-2.434A2.439,2.439,0,0,0,3964.442-7893.372Z" transform="translate(235.728 122.23)" fill="#d1ccc1"/>
    <path id="Path_4362" data-name="Path 4362" d="M3676-8042.937a2.438,2.438,0,0,0-2.433,2.435,2.435,2.435,0,0,0,2.433,2.433,2.435,2.435,0,0,0,2.433-2.433A2.438,2.438,0,0,0,3676-8042.937Z" transform="translate(0 0)" fill="#d1ccc1"/>
    <path id="Path_4373" data-name="Path 4373" d="M3846.927-8042.937a2.438,2.438,0,0,0-2.433,2.435,2.435,2.435,0,0,0,2.433,2.433,2.435,2.435,0,0,0,2.434-2.433A2.438,2.438,0,0,0,3846.927-8042.937Z" transform="translate(139.691 0)" fill="#d1ccc1"/>
    <path id="Path_4374" data-name="Path 4374" d="M3878.978-8042.937a2.44,2.44,0,0,0-2.436,2.435,2.436,2.436,0,0,0,2.436,2.433,2.434,2.434,0,0,0,2.433-2.433A2.438,2.438,0,0,0,3878.978-8042.937Z" transform="translate(165.883 0)" fill="#d1ccc1"/>
    <path id="Path_4385" data-name="Path 4385" d="M3857.611-8042.937a2.438,2.438,0,0,0-2.434,2.435,2.435,2.435,0,0,0,2.434,2.433,2.434,2.434,0,0,0,2.433-2.433A2.438,2.438,0,0,0,3857.611-8042.937Z" transform="translate(148.421 0)" fill="#d1ccc1"/>
    <path id="Path_4386" data-name="Path 4386" d="M3889.66-8042.937a2.438,2.438,0,0,0-2.433,2.435,2.434,2.434,0,0,0,2.433,2.433,2.435,2.435,0,0,0,2.434-2.433A2.438,2.438,0,0,0,3889.66-8042.937Z" transform="translate(174.614 0)" fill="#d1ccc1"/>
    <path id="Path_4387" data-name="Path 4387" d="M3900.344-8042.937a2.438,2.438,0,0,0-2.434,2.435,2.435,2.435,0,0,0,2.434,2.433,2.434,2.434,0,0,0,2.433-2.433A2.438,2.438,0,0,0,3900.344-8042.937Z" transform="translate(183.344 0)" fill="#d1ccc1"/>
    <path id="Path_4388" data-name="Path 4388" d="M3911.026-8042.937a2.438,2.438,0,0,0-2.433,2.435,2.435,2.435,0,0,0,2.433,2.433,2.435,2.435,0,0,0,2.434-2.433A2.438,2.438,0,0,0,3911.026-8042.937Z" transform="translate(192.075 0)" fill="#d1ccc1"/>
    <path id="Path_4389" data-name="Path 4389" d="M3921.709-8042.937a2.438,2.438,0,0,0-2.434,2.435,2.435,2.435,0,0,0,2.434,2.433,2.435,2.435,0,0,0,2.436-2.433A2.439,2.439,0,0,0,3921.709-8042.937Z" transform="translate(200.806 0)" fill="#d1ccc1"/>
    <path id="Path_4390" data-name="Path 4390" d="M3953.759-8042.937a2.438,2.438,0,0,0-2.434,2.435,2.435,2.435,0,0,0,2.434,2.433,2.435,2.435,0,0,0,2.433-2.433A2.438,2.438,0,0,0,3953.759-8042.937Z" transform="translate(226.998 0)" fill="#d1ccc1"/>
    <path id="Path_4391" data-name="Path 4391" d="M3943.074-7754.49a2.433,2.433,0,0,0-2.431,2.433,2.434,2.434,0,0,0,2.431,2.433,2.437,2.437,0,0,0,2.435-2.433A2.435,2.435,0,0,0,3943.074-7754.49Z" transform="translate(218.267 235.73)" fill="#d1ccc1"/>
    <path id="Path_4392" data-name="Path 4392" d="M3943.074-7765.173a2.434,2.434,0,0,0-2.431,2.433,2.435,2.435,0,0,0,2.431,2.434,2.438,2.438,0,0,0,2.435-2.434A2.436,2.436,0,0,0,3943.074-7765.173Z" transform="translate(218.267 226.998)" fill="#d1ccc1"/>
    <path id="Path_4393" data-name="Path 4393" d="M3943.074-7786.541a2.436,2.436,0,0,0-2.431,2.435,2.435,2.435,0,0,0,2.431,2.434,2.437,2.437,0,0,0,2.435-2.434A2.439,2.439,0,0,0,3943.074-7786.541Z" transform="translate(218.267 209.536)" fill="#d1ccc1"/>
    <path id="Path_4394" data-name="Path 4394" d="M3943.074-7818.589a2.434,2.434,0,0,0-2.431,2.433,2.435,2.435,0,0,0,2.431,2.434,2.438,2.438,0,0,0,2.435-2.434A2.437,2.437,0,0,0,3943.074-7818.589Z" transform="translate(218.267 183.345)" fill="#d1ccc1"/>
    <path id="Path_4395" data-name="Path 4395" d="M3943.074-7829.272a2.435,2.435,0,0,0-2.431,2.433,2.433,2.433,0,0,0,2.431,2.434,2.436,2.436,0,0,0,2.435-2.434A2.438,2.438,0,0,0,3943.074-7829.272Z" transform="translate(218.267 174.614)" fill="#d1ccc1"/>
    <path id="Path_4396" data-name="Path 4396" d="M3943.074-7850.64a2.435,2.435,0,0,0-2.431,2.434,2.435,2.435,0,0,0,2.431,2.434,2.438,2.438,0,0,0,2.435-2.434A2.437,2.437,0,0,0,3943.074-7850.64Z" transform="translate(218.267 157.152)" fill="#d1ccc1"/>
    <path id="Path_4397" data-name="Path 4397" d="M3943.074-7861.321a2.432,2.432,0,0,0-2.431,2.432,2.434,2.434,0,0,0,2.431,2.433,2.437,2.437,0,0,0,2.435-2.433A2.434,2.434,0,0,0,3943.074-7861.321Z" transform="translate(218.267 148.423)" fill="#d1ccc1"/>
    <path id="Path_4398" data-name="Path 4398" d="M3943.074-7872a2.434,2.434,0,0,0-2.431,2.433,2.434,2.434,0,0,0,2.431,2.433,2.437,2.437,0,0,0,2.435-2.433A2.437,2.437,0,0,0,3943.074-7872Z" transform="translate(218.267 139.691)" fill="#d1ccc1"/>
    <path id="Path_4399" data-name="Path 4399" d="M3943.074-7882.688a2.434,2.434,0,0,0-2.431,2.433,2.432,2.432,0,0,0,2.431,2.432,2.434,2.434,0,0,0,2.435-2.432A2.437,2.437,0,0,0,3943.074-7882.688Z" transform="translate(218.267 130.961)" fill="#d1ccc1"/>
    <path id="Path_4400" data-name="Path 4400" d="M3943.074-7893.372a2.435,2.435,0,0,0-2.431,2.434,2.435,2.435,0,0,0,2.431,2.434,2.437,2.437,0,0,0,2.435-2.434A2.438,2.438,0,0,0,3943.074-7893.372Z" transform="translate(218.267 122.23)" fill="#d1ccc1"/>
    <path id="Path_4401" data-name="Path 4401" d="M3943.074-8042.937a2.436,2.436,0,0,0-2.431,2.435,2.433,2.433,0,0,0,2.431,2.433,2.435,2.435,0,0,0,2.435-2.433A2.439,2.439,0,0,0,3943.074-8042.937Z" transform="translate(218.267 0)" fill="#d1ccc1"/>
    <path id="Path_4402" data-name="Path 4402" d="M3932.392-7754.49a2.435,2.435,0,0,0-2.433,2.433,2.436,2.436,0,0,0,2.433,2.433,2.437,2.437,0,0,0,2.435-2.433A2.435,2.435,0,0,0,3932.392-7754.49Z" transform="translate(209.536 235.73)" fill="#d1ccc1"/>
    <path id="Path_4403" data-name="Path 4403" d="M3932.392-7765.173a2.436,2.436,0,0,0-2.433,2.433,2.437,2.437,0,0,0,2.433,2.434,2.437,2.437,0,0,0,2.435-2.434A2.436,2.436,0,0,0,3932.392-7765.173Z" transform="translate(209.536 226.998)" fill="#d1ccc1"/>
    <path id="Path_4404" data-name="Path 4404" d="M3932.392-7786.541a2.438,2.438,0,0,0-2.433,2.435,2.437,2.437,0,0,0,2.433,2.434,2.437,2.437,0,0,0,2.435-2.434A2.438,2.438,0,0,0,3932.392-7786.541Z" transform="translate(209.536 209.536)" fill="#d1ccc1"/>
    <path id="Path_4407" data-name="Path 4407" d="M3889.66-7797.224a2.437,2.437,0,0,0-2.433,2.434,2.437,2.437,0,0,0,2.433,2.436,2.438,2.438,0,0,0,2.434-2.436A2.437,2.437,0,0,0,3889.66-7797.224Z" transform="translate(174.614 200.805)" fill="#d1ccc1"/>
    <path id="Path_4408" data-name="Path 4408" d="M3900.344-7797.224a2.437,2.437,0,0,0-2.434,2.434,2.438,2.438,0,0,0,2.434,2.436,2.437,2.437,0,0,0,2.433-2.436A2.437,2.437,0,0,0,3900.344-7797.224Z" transform="translate(183.344 200.805)" fill="#d1ccc1"/>
    <path id="Path_4409" data-name="Path 4409" d="M3911.026-7797.224a2.437,2.437,0,0,0-2.433,2.434,2.438,2.438,0,0,0,2.433,2.436,2.438,2.438,0,0,0,2.434-2.436A2.437,2.437,0,0,0,3911.026-7797.224Z" transform="translate(192.075 200.805)" fill="#d1ccc1"/>
    <path id="Path_4410" data-name="Path 4410" d="M3921.709-7797.224a2.437,2.437,0,0,0-2.434,2.434,2.438,2.438,0,0,0,2.434,2.436,2.438,2.438,0,0,0,2.436-2.436A2.438,2.438,0,0,0,3921.709-7797.224Z" transform="translate(200.806 200.805)" fill="#d1ccc1"/>
    <path id="Path_4411" data-name="Path 4411" d="M3953.759-7797.224a2.437,2.437,0,0,0-2.434,2.434,2.438,2.438,0,0,0,2.434,2.436,2.438,2.438,0,0,0,2.433-2.436A2.437,2.437,0,0,0,3953.759-7797.224Z" transform="translate(226.998 200.805)" fill="#d1ccc1"/>
    <path id="Path_4412" data-name="Path 4412" d="M3964.442-7797.224a2.437,2.437,0,0,0-2.433,2.434,2.438,2.438,0,0,0,2.433,2.436,2.439,2.439,0,0,0,2.436-2.436A2.439,2.439,0,0,0,3964.442-7797.224Z" transform="translate(235.728 200.805)" fill="#d1ccc1"/>
    <path id="Path_4415" data-name="Path 4415" d="M3943.074-7797.224a2.435,2.435,0,0,0-2.431,2.434,2.436,2.436,0,0,0,2.431,2.436,2.438,2.438,0,0,0,2.435-2.436A2.438,2.438,0,0,0,3943.074-7797.224Z" transform="translate(218.267 200.805)" fill="#d1ccc1"/>
    <path id="Path_4416" data-name="Path 4416" d="M3932.392-7797.224a2.437,2.437,0,0,0-2.433,2.434,2.438,2.438,0,0,0,2.433,2.436,2.438,2.438,0,0,0,2.435-2.436A2.437,2.437,0,0,0,3932.392-7797.224Z" transform="translate(209.536 200.805)" fill="#d1ccc1"/>
    <path id="Path_4417" data-name="Path 4417" d="M3932.392-7818.589a2.436,2.436,0,0,0-2.433,2.433,2.437,2.437,0,0,0,2.433,2.434,2.437,2.437,0,0,0,2.435-2.434A2.437,2.437,0,0,0,3932.392-7818.589Z" transform="translate(209.536 183.345)" fill="#d1ccc1"/>
    <path id="Path_4418" data-name="Path 4418" d="M3932.392-7829.272a2.437,2.437,0,0,0-2.433,2.433,2.435,2.435,0,0,0,2.433,2.434,2.436,2.436,0,0,0,2.435-2.434A2.437,2.437,0,0,0,3932.392-7829.272Z" transform="translate(209.536 174.614)" fill="#d1ccc1"/>
    <path id="Path_4419" data-name="Path 4419" d="M3932.392-7850.64a2.437,2.437,0,0,0-2.433,2.434,2.437,2.437,0,0,0,2.433,2.434,2.437,2.437,0,0,0,2.435-2.434A2.437,2.437,0,0,0,3932.392-7850.64Z" transform="translate(209.536 157.152)" fill="#d1ccc1"/>
    <path id="Path_4431" data-name="Path 4431" d="M3836.244-8042.937a2.438,2.438,0,0,0-2.433,2.435,2.435,2.435,0,0,0,2.433,2.433,2.435,2.435,0,0,0,2.434-2.433A2.438,2.438,0,0,0,3836.244-8042.937Z" transform="translate(130.961 0)" fill="#d1ccc1"/>
    <path id="Path_4435" data-name="Path 4435" d="M3889.66-7839.956a2.437,2.437,0,0,0-2.433,2.434,2.436,2.436,0,0,0,2.433,2.434,2.437,2.437,0,0,0,2.434-2.434A2.437,2.437,0,0,0,3889.66-7839.956Z" transform="translate(174.614 165.884)" fill="#d1ccc1"/>
    <path id="Path_4436" data-name="Path 4436" d="M3900.344-7839.956a2.437,2.437,0,0,0-2.434,2.434,2.437,2.437,0,0,0,2.434,2.434,2.436,2.436,0,0,0,2.433-2.434A2.437,2.437,0,0,0,3900.344-7839.956Z" transform="translate(183.344 165.884)" fill="#d1ccc1"/>
    <path id="Path_4437" data-name="Path 4437" d="M3911.026-7839.956a2.437,2.437,0,0,0-2.433,2.434,2.437,2.437,0,0,0,2.433,2.434,2.437,2.437,0,0,0,2.434-2.434A2.437,2.437,0,0,0,3911.026-7839.956Z" transform="translate(192.075 165.884)" fill="#d1ccc1"/>
    <path id="Path_4438" data-name="Path 4438" d="M3921.709-7839.956a2.437,2.437,0,0,0-2.434,2.434,2.437,2.437,0,0,0,2.434,2.434,2.437,2.437,0,0,0,2.436-2.434A2.438,2.438,0,0,0,3921.709-7839.956Z" transform="translate(200.806 165.884)" fill="#d1ccc1"/>
    <path id="Path_4439" data-name="Path 4439" d="M3953.759-7839.956a2.437,2.437,0,0,0-2.434,2.434,2.437,2.437,0,0,0,2.434,2.434,2.437,2.437,0,0,0,2.433-2.434A2.437,2.437,0,0,0,3953.759-7839.956Z" transform="translate(226.998 165.884)" fill="#d1ccc1"/>
    <path id="Path_4440" data-name="Path 4440" d="M3964.442-7839.956a2.437,2.437,0,0,0-2.433,2.434,2.437,2.437,0,0,0,2.433,2.434,2.438,2.438,0,0,0,2.436-2.434A2.439,2.439,0,0,0,3964.442-7839.956Z" transform="translate(235.728 165.884)" fill="#d1ccc1"/>
    <path id="Path_4452" data-name="Path 4452" d="M3868.293-8042.937a2.438,2.438,0,0,0-2.433,2.435,2.434,2.434,0,0,0,2.433,2.433,2.435,2.435,0,0,0,2.435-2.433A2.439,2.439,0,0,0,3868.293-8042.937Z" transform="translate(157.152 0)" fill="#d1ccc1"/>
    <path id="Path_4459" data-name="Path 4459" d="M3889.66-7775.857a2.437,2.437,0,0,0-2.433,2.434,2.435,2.435,0,0,0,2.433,2.433,2.435,2.435,0,0,0,2.434-2.433A2.437,2.437,0,0,0,3889.66-7775.857Z" transform="translate(174.614 218.268)" fill="#d1ccc1"/>
    <path id="Path_4460" data-name="Path 4460" d="M3900.344-7775.857a2.437,2.437,0,0,0-2.434,2.434,2.435,2.435,0,0,0,2.434,2.433,2.435,2.435,0,0,0,2.433-2.433A2.437,2.437,0,0,0,3900.344-7775.857Z" transform="translate(183.344 218.268)" fill="#d1ccc1"/>
    <path id="Path_4461" data-name="Path 4461" d="M3911.026-7775.857a2.437,2.437,0,0,0-2.433,2.434,2.435,2.435,0,0,0,2.433,2.433,2.435,2.435,0,0,0,2.434-2.433A2.437,2.437,0,0,0,3911.026-7775.857Z" transform="translate(192.075 218.268)" fill="#d1ccc1"/>
    <path id="Path_4462" data-name="Path 4462" d="M3921.709-7775.857a2.437,2.437,0,0,0-2.434,2.434,2.435,2.435,0,0,0,2.434,2.433,2.436,2.436,0,0,0,2.436-2.433A2.438,2.438,0,0,0,3921.709-7775.857Z" transform="translate(200.806 218.268)" fill="#d1ccc1"/>
    <path id="Path_4463" data-name="Path 4463" d="M3953.759-7775.857a2.437,2.437,0,0,0-2.434,2.434,2.435,2.435,0,0,0,2.434,2.433,2.435,2.435,0,0,0,2.433-2.433A2.437,2.437,0,0,0,3953.759-7775.857Z" transform="translate(226.998 218.268)" fill="#d1ccc1"/>
    <path id="Path_4464" data-name="Path 4464" d="M3964.442-7775.857a2.437,2.437,0,0,0-2.433,2.434,2.435,2.435,0,0,0,2.433,2.433,2.437,2.437,0,0,0,2.436-2.433A2.439,2.439,0,0,0,3964.442-7775.857Z" transform="translate(235.728 218.268)" fill="#d1ccc1"/>
    <path id="Path_4467" data-name="Path 4467" d="M3943.074-7775.857a2.435,2.435,0,0,0-2.431,2.434,2.433,2.433,0,0,0,2.431,2.433,2.436,2.436,0,0,0,2.435-2.433A2.438,2.438,0,0,0,3943.074-7775.857Z" transform="translate(218.267 218.268)" fill="#d1ccc1"/>
    <path id="Path_4468" data-name="Path 4468" d="M3932.392-7775.857a2.437,2.437,0,0,0-2.433,2.434,2.435,2.435,0,0,0,2.433,2.433,2.435,2.435,0,0,0,2.435-2.433A2.437,2.437,0,0,0,3932.392-7775.857Z" transform="translate(209.536 218.268)" fill="#d1ccc1"/>
    <path id="Path_4480" data-name="Path 4480" d="M3772.144-8042.937a2.438,2.438,0,0,0-2.434,2.435,2.435,2.435,0,0,0,2.434,2.433,2.435,2.435,0,0,0,2.435-2.433A2.438,2.438,0,0,0,3772.144-8042.937Z" transform="translate(78.576 0)" fill="#d1ccc1"/>
    <path id="Path_4495" data-name="Path 4495" d="M3825.562-8042.937a2.44,2.44,0,0,0-2.436,2.435,2.436,2.436,0,0,0,2.436,2.433A2.435,2.435,0,0,0,3828-8040.5,2.438,2.438,0,0,0,3825.562-8042.937Z" transform="translate(122.229 0)" fill="#d1ccc1"/>
    <path id="Path_4500" data-name="Path 4500" d="M3889.66-7807.906a2.433,2.433,0,0,0-2.433,2.432,2.436,2.436,0,0,0,2.433,2.433,2.437,2.437,0,0,0,2.434-2.433A2.434,2.434,0,0,0,3889.66-7807.906Z" transform="translate(174.614 192.077)" fill="#d1ccc1"/>
    <path id="Path_4501" data-name="Path 4501" d="M3900.344-7807.906a2.434,2.434,0,0,0-2.434,2.432,2.437,2.437,0,0,0,2.434,2.433,2.436,2.436,0,0,0,2.433-2.433A2.433,2.433,0,0,0,3900.344-7807.906Z" transform="translate(183.344 192.077)" fill="#d1ccc1"/>
    <path id="Path_4502" data-name="Path 4502" d="M3911.026-7807.906a2.434,2.434,0,0,0-2.433,2.432,2.436,2.436,0,0,0,2.433,2.433,2.437,2.437,0,0,0,2.434-2.433A2.434,2.434,0,0,0,3911.026-7807.906Z" transform="translate(192.075 192.077)" fill="#d1ccc1"/>
    <path id="Path_4503" data-name="Path 4503" d="M3921.709-7807.906a2.434,2.434,0,0,0-2.434,2.432,2.437,2.437,0,0,0,2.434,2.433,2.437,2.437,0,0,0,2.436-2.433A2.434,2.434,0,0,0,3921.709-7807.906Z" transform="translate(200.806 192.077)" fill="#d1ccc1"/>
    <path id="Path_4504" data-name="Path 4504" d="M3953.759-7807.906a2.434,2.434,0,0,0-2.434,2.432,2.437,2.437,0,0,0,2.434,2.433,2.436,2.436,0,0,0,2.433-2.433A2.434,2.434,0,0,0,3953.759-7807.906Z" transform="translate(226.998 192.077)" fill="#d1ccc1"/>
    <path id="Path_4505" data-name="Path 4505" d="M3964.442-7807.906a2.434,2.434,0,0,0-2.433,2.432,2.436,2.436,0,0,0,2.433,2.433,2.438,2.438,0,0,0,2.436-2.433A2.436,2.436,0,0,0,3964.442-7807.906Z" transform="translate(235.728 192.077)" fill="#d1ccc1"/>
    <path id="Path_4508" data-name="Path 4508" d="M3943.074-7807.906a2.432,2.432,0,0,0-2.431,2.432,2.434,2.434,0,0,0,2.431,2.433,2.437,2.437,0,0,0,2.435-2.433A2.434,2.434,0,0,0,3943.074-7807.906Z" transform="translate(218.267 192.077)" fill="#d1ccc1"/>
    <path id="Path_4509" data-name="Path 4509" d="M3932.392-7807.906a2.434,2.434,0,0,0-2.433,2.432,2.436,2.436,0,0,0,2.433,2.433,2.437,2.437,0,0,0,2.435-2.433A2.434,2.434,0,0,0,3932.392-7807.906Z" transform="translate(209.536 192.077)" fill="#d1ccc1"/>
    <path id="Path_4514" data-name="Path 4514" d="M3943.074-7839.956a2.435,2.435,0,0,0-2.431,2.434,2.435,2.435,0,0,0,2.431,2.434,2.437,2.437,0,0,0,2.435-2.434A2.438,2.438,0,0,0,3943.074-7839.956Z" transform="translate(218.267 165.884)" fill="#d1ccc1"/>
    <path id="Path_4515" data-name="Path 4515" d="M3932.392-7839.956a2.437,2.437,0,0,0-2.433,2.434,2.437,2.437,0,0,0,2.433,2.434,2.437,2.437,0,0,0,2.435-2.434A2.437,2.437,0,0,0,3932.392-7839.956Z" transform="translate(209.536 165.884)" fill="#d1ccc1"/>
    <path id="Path_4516" data-name="Path 4516" d="M3932.392-7861.321a2.434,2.434,0,0,0-2.433,2.432,2.436,2.436,0,0,0,2.433,2.433,2.437,2.437,0,0,0,2.435-2.433A2.434,2.434,0,0,0,3932.392-7861.321Z" transform="translate(209.536 148.423)" fill="#d1ccc1"/>
    <path id="Path_4517" data-name="Path 4517" d="M3932.392-7872a2.436,2.436,0,0,0-2.433,2.433,2.436,2.436,0,0,0,2.433,2.433,2.437,2.437,0,0,0,2.435-2.433A2.437,2.437,0,0,0,3932.392-7872Z" transform="translate(209.536 139.691)" fill="#d1ccc1"/>
    <path id="Path_4518" data-name="Path 4518" d="M3932.392-7882.688a2.436,2.436,0,0,0-2.433,2.433,2.434,2.434,0,0,0,2.433,2.432,2.434,2.434,0,0,0,2.435-2.432A2.437,2.437,0,0,0,3932.392-7882.688Z" transform="translate(209.536 130.961)" fill="#d1ccc1"/>
    <path id="Path_4519" data-name="Path 4519" d="M3932.392-7893.372a2.437,2.437,0,0,0-2.433,2.434,2.437,2.437,0,0,0,2.433,2.434,2.437,2.437,0,0,0,2.435-2.434A2.437,2.437,0,0,0,3932.392-7893.372Z" transform="translate(209.536 122.23)" fill="#d1ccc1"/>
    <path id="Path_4522" data-name="Path 4522" d="M3889.66-7904.056a2.436,2.436,0,0,0-2.433,2.434,2.438,2.438,0,0,0,2.433,2.435,2.438,2.438,0,0,0,2.434-2.435A2.437,2.437,0,0,0,3889.66-7904.056Z" transform="translate(174.614 113.499)" fill="#d1ccc1"/>
    <path id="Path_4523" data-name="Path 4523" d="M3900.344-7904.056a2.437,2.437,0,0,0-2.434,2.434,2.438,2.438,0,0,0,2.434,2.435,2.438,2.438,0,0,0,2.433-2.435A2.436,2.436,0,0,0,3900.344-7904.056Z" transform="translate(183.344 113.499)" fill="#d1ccc1"/>
    <path id="Path_4524" data-name="Path 4524" d="M3911.026-7904.056a2.437,2.437,0,0,0-2.433,2.434,2.438,2.438,0,0,0,2.433,2.435,2.438,2.438,0,0,0,2.434-2.435A2.437,2.437,0,0,0,3911.026-7904.056Z" transform="translate(192.075 113.499)" fill="#d1ccc1"/>
    <path id="Path_4525" data-name="Path 4525" d="M3921.709-7904.056a2.437,2.437,0,0,0-2.434,2.434,2.438,2.438,0,0,0,2.434,2.435,2.439,2.439,0,0,0,2.436-2.435A2.437,2.437,0,0,0,3921.709-7904.056Z" transform="translate(200.806 113.499)" fill="#d1ccc1"/>
    <path id="Path_4526" data-name="Path 4526" d="M3953.759-7904.056a2.437,2.437,0,0,0-2.434,2.434,2.438,2.438,0,0,0,2.434,2.435,2.438,2.438,0,0,0,2.433-2.435A2.437,2.437,0,0,0,3953.759-7904.056Z" transform="translate(226.998 113.499)" fill="#d1ccc1"/>
    <path id="Path_4527" data-name="Path 4527" d="M3964.442-7904.056a2.437,2.437,0,0,0-2.433,2.434,2.438,2.438,0,0,0,2.433,2.435,2.44,2.44,0,0,0,2.436-2.435A2.438,2.438,0,0,0,3964.442-7904.056Z" transform="translate(235.728 113.499)" fill="#d1ccc1"/>
    <path id="Path_4530" data-name="Path 4530" d="M3943.074-7904.056a2.435,2.435,0,0,0-2.431,2.434,2.436,2.436,0,0,0,2.431,2.435,2.439,2.439,0,0,0,2.435-2.435A2.437,2.437,0,0,0,3943.074-7904.056Z" transform="translate(218.267 113.499)" fill="#d1ccc1"/>
    <path id="Path_4535" data-name="Path 4535" d="M3932.392-7904.056a2.437,2.437,0,0,0-2.433,2.434,2.438,2.438,0,0,0,2.433,2.435,2.438,2.438,0,0,0,2.435-2.435A2.437,2.437,0,0,0,3932.392-7904.056Z" transform="translate(209.536 113.499)" fill="#d1ccc1"/>
    <path id="Path_4536" data-name="Path 4536" d="M3932.392-8042.937a2.438,2.438,0,0,0-2.433,2.435,2.435,2.435,0,0,0,2.433,2.433,2.435,2.435,0,0,0,2.435-2.433A2.438,2.438,0,0,0,3932.392-8042.937Z" transform="translate(209.536 0)" fill="#d1ccc1"/>
    <path id="Path_4537" data-name="Path 4537" d="M3964.442-8038.07a2.436,2.436,0,0,0,2.436-2.433,2.44,2.44,0,0,0-2.436-2.435,2.438,2.438,0,0,0-2.433,2.435A2.435,2.435,0,0,0,3964.442-8038.07Z" transform="translate(235.728 0)" fill="#d1ccc1"/>
    <path id="Path_4542" data-name="Path 4542" d="M3889.66-7946.789a2.437,2.437,0,0,0-2.433,2.436,2.437,2.437,0,0,0,2.433,2.434,2.437,2.437,0,0,0,2.434-2.434A2.438,2.438,0,0,0,3889.66-7946.789Z" transform="translate(174.614 78.576)" fill="#d1ccc1"/>
    <path id="Path_4543" data-name="Path 4543" d="M3900.344-7946.789a2.438,2.438,0,0,0-2.434,2.436,2.437,2.437,0,0,0,2.434,2.434,2.437,2.437,0,0,0,2.433-2.434A2.437,2.437,0,0,0,3900.344-7946.789Z" transform="translate(183.344 78.576)" fill="#d1ccc1"/>
    <path id="Path_4544" data-name="Path 4544" d="M3911.026-7946.789a2.438,2.438,0,0,0-2.433,2.436,2.437,2.437,0,0,0,2.433,2.434,2.437,2.437,0,0,0,2.434-2.434A2.438,2.438,0,0,0,3911.026-7946.789Z" transform="translate(192.075 78.576)" fill="#d1ccc1"/>
    <path id="Path_4545" data-name="Path 4545" d="M3921.709-7946.789a2.438,2.438,0,0,0-2.434,2.436,2.437,2.437,0,0,0,2.434,2.434,2.438,2.438,0,0,0,2.436-2.434A2.438,2.438,0,0,0,3921.709-7946.789Z" transform="translate(200.806 78.576)" fill="#d1ccc1"/>
    <path id="Path_4546" data-name="Path 4546" d="M3953.759-7946.789a2.438,2.438,0,0,0-2.434,2.436,2.437,2.437,0,0,0,2.434,2.434,2.437,2.437,0,0,0,2.433-2.434A2.438,2.438,0,0,0,3953.759-7946.789Z" transform="translate(226.998 78.576)" fill="#d1ccc1"/>
    <path id="Path_4547" data-name="Path 4547" d="M3943.074-7946.789a2.436,2.436,0,0,0-2.431,2.436,2.435,2.435,0,0,0,2.431,2.434,2.438,2.438,0,0,0,2.435-2.434A2.438,2.438,0,0,0,3943.074-7946.789Z" transform="translate(218.267 78.576)" fill="#d1ccc1"/>
    <path id="Path_4563" data-name="Path 4563" d="M3814.877-8042.937a2.438,2.438,0,0,0-2.433,2.435,2.434,2.434,0,0,0,2.433,2.433,2.436,2.436,0,0,0,2.435-2.433A2.44,2.44,0,0,0,3814.877-8042.937Z" transform="translate(113.498 0)" fill="#d1ccc1"/>
    <path id="Path_4569" data-name="Path 4569" d="M3932.392-7946.789a2.438,2.438,0,0,0-2.433,2.436,2.437,2.437,0,0,0,2.433,2.434,2.437,2.437,0,0,0,2.435-2.434A2.438,2.438,0,0,0,3932.392-7946.789Z" transform="translate(209.536 78.576)" fill="#d1ccc1"/>
    <path id="Path_4570" data-name="Path 4570" d="M3964.442-7946.789a2.438,2.438,0,0,0-2.433,2.436,2.437,2.437,0,0,0,2.433,2.434,2.439,2.439,0,0,0,2.436-2.434A2.439,2.439,0,0,0,3964.442-7946.789Z" transform="translate(235.728 78.576)" fill="#d1ccc1"/>
    <path id="Path_4575" data-name="Path 4575" d="M3889.66-7914.737a2.435,2.435,0,0,0-2.433,2.433,2.435,2.435,0,0,0,2.433,2.432,2.436,2.436,0,0,0,2.434-2.432A2.435,2.435,0,0,0,3889.66-7914.737Z" transform="translate(174.614 104.769)" fill="#d1ccc1"/>
    <path id="Path_4576" data-name="Path 4576" d="M3900.344-7914.737a2.435,2.435,0,0,0-2.434,2.433,2.436,2.436,0,0,0,2.434,2.432,2.435,2.435,0,0,0,2.433-2.432A2.435,2.435,0,0,0,3900.344-7914.737Z" transform="translate(183.344 104.769)" fill="#d1ccc1"/>
    <path id="Path_4577" data-name="Path 4577" d="M3911.026-7914.737a2.435,2.435,0,0,0-2.433,2.433,2.436,2.436,0,0,0,2.433,2.432,2.436,2.436,0,0,0,2.434-2.432A2.435,2.435,0,0,0,3911.026-7914.737Z" transform="translate(192.075 104.769)" fill="#d1ccc1"/>
    <path id="Path_4578" data-name="Path 4578" d="M3921.709-7914.737a2.435,2.435,0,0,0-2.434,2.433,2.436,2.436,0,0,0,2.434,2.432,2.436,2.436,0,0,0,2.436-2.432A2.436,2.436,0,0,0,3921.709-7914.737Z" transform="translate(200.806 104.769)" fill="#d1ccc1"/>
    <path id="Path_4579" data-name="Path 4579" d="M3953.759-7914.737a2.435,2.435,0,0,0-2.434,2.433,2.436,2.436,0,0,0,2.434,2.432,2.436,2.436,0,0,0,2.433-2.432A2.435,2.435,0,0,0,3953.759-7914.737Z" transform="translate(226.998 104.769)" fill="#d1ccc1"/>
    <path id="Path_4580" data-name="Path 4580" d="M3943.074-7914.737a2.433,2.433,0,0,0-2.431,2.433,2.434,2.434,0,0,0,2.431,2.432,2.436,2.436,0,0,0,2.435-2.432A2.436,2.436,0,0,0,3943.074-7914.737Z" transform="translate(218.267 104.769)" fill="#d1ccc1"/>
    <path id="Path_4597" data-name="Path 4597" d="M3804.194-8042.937a2.438,2.438,0,0,0-2.433,2.435,2.435,2.435,0,0,0,2.433,2.433,2.435,2.435,0,0,0,2.433-2.433A2.438,2.438,0,0,0,3804.194-8042.937Z" transform="translate(104.768 0)" fill="#d1ccc1"/>
    <path id="Path_4607" data-name="Path 4607" d="M3889.66-7925.422a2.437,2.437,0,0,0-2.433,2.434,2.436,2.436,0,0,0,2.433,2.433,2.437,2.437,0,0,0,2.434-2.433A2.437,2.437,0,0,0,3889.66-7925.422Z" transform="translate(174.614 96.038)" fill="#d1ccc1"/>
    <path id="Path_4608" data-name="Path 4608" d="M3900.344-7925.422a2.437,2.437,0,0,0-2.434,2.434,2.437,2.437,0,0,0,2.434,2.433,2.436,2.436,0,0,0,2.433-2.433A2.437,2.437,0,0,0,3900.344-7925.422Z" transform="translate(183.344 96.038)" fill="#d1ccc1"/>
    <path id="Path_4609" data-name="Path 4609" d="M3911.026-7925.422a2.437,2.437,0,0,0-2.433,2.434,2.436,2.436,0,0,0,2.433,2.433,2.437,2.437,0,0,0,2.434-2.433A2.437,2.437,0,0,0,3911.026-7925.422Z" transform="translate(192.075 96.038)" fill="#d1ccc1"/>
    <path id="Path_4610" data-name="Path 4610" d="M3921.709-7925.422a2.437,2.437,0,0,0-2.434,2.434,2.437,2.437,0,0,0,2.434,2.433,2.437,2.437,0,0,0,2.436-2.433A2.438,2.438,0,0,0,3921.709-7925.422Z" transform="translate(200.806 96.038)" fill="#d1ccc1"/>
    <path id="Path_4611" data-name="Path 4611" d="M3953.759-7925.422a2.437,2.437,0,0,0-2.434,2.434,2.437,2.437,0,0,0,2.434,2.433,2.436,2.436,0,0,0,2.433-2.433A2.437,2.437,0,0,0,3953.759-7925.422Z" transform="translate(226.998 96.038)" fill="#d1ccc1"/>
    <path id="Path_4612" data-name="Path 4612" d="M3943.074-7925.422a2.435,2.435,0,0,0-2.431,2.434,2.434,2.434,0,0,0,2.431,2.433,2.437,2.437,0,0,0,2.435-2.433A2.438,2.438,0,0,0,3943.074-7925.422Z" transform="translate(218.267 96.038)" fill="#d1ccc1"/>
    <path id="Path_4627" data-name="Path 4627" d="M3793.511-8042.937a2.438,2.438,0,0,0-2.434,2.435,2.435,2.435,0,0,0,2.434,2.433,2.435,2.435,0,0,0,2.434-2.433A2.438,2.438,0,0,0,3793.511-8042.937Z" transform="translate(96.038 0)" fill="#d1ccc1"/>
    <path id="Path_4637" data-name="Path 4637" d="M3889.66-7936.1a2.436,2.436,0,0,0-2.433,2.433,2.433,2.433,0,0,0,2.433,2.432,2.434,2.434,0,0,0,2.434-2.432A2.437,2.437,0,0,0,3889.66-7936.1Z" transform="translate(174.614 87.307)" fill="#d1ccc1"/>
    <path id="Path_4638" data-name="Path 4638" d="M3900.344-7936.1a2.437,2.437,0,0,0-2.434,2.433,2.434,2.434,0,0,0,2.434,2.432,2.433,2.433,0,0,0,2.433-2.432A2.436,2.436,0,0,0,3900.344-7936.1Z" transform="translate(183.344 87.307)" fill="#d1ccc1"/>
    <path id="Path_4639" data-name="Path 4639" d="M3911.026-7936.1a2.436,2.436,0,0,0-2.433,2.433,2.434,2.434,0,0,0,2.433,2.432,2.434,2.434,0,0,0,2.434-2.432A2.437,2.437,0,0,0,3911.026-7936.1Z" transform="translate(192.075 87.307)" fill="#d1ccc1"/>
    <path id="Path_4640" data-name="Path 4640" d="M3921.709-7936.1a2.437,2.437,0,0,0-2.434,2.433,2.434,2.434,0,0,0,2.434,2.432,2.434,2.434,0,0,0,2.436-2.432A2.437,2.437,0,0,0,3921.709-7936.1Z" transform="translate(200.806 87.307)" fill="#d1ccc1"/>
    <path id="Path_4641" data-name="Path 4641" d="M3953.759-7936.1a2.437,2.437,0,0,0-2.434,2.433,2.434,2.434,0,0,0,2.434,2.432,2.434,2.434,0,0,0,2.433-2.432A2.436,2.436,0,0,0,3953.759-7936.1Z" transform="translate(226.998 87.307)" fill="#d1ccc1"/>
    <path id="Path_4642" data-name="Path 4642" d="M3943.074-7936.1a2.434,2.434,0,0,0-2.431,2.433,2.432,2.432,0,0,0,2.431,2.432,2.434,2.434,0,0,0,2.435-2.432A2.437,2.437,0,0,0,3943.074-7936.1Z" transform="translate(218.267 87.307)" fill="#d1ccc1"/>
    <path id="Path_4657" data-name="Path 4657" d="M3782.828-8042.937a2.438,2.438,0,0,0-2.433,2.435,2.435,2.435,0,0,0,2.433,2.433,2.435,2.435,0,0,0,2.434-2.433A2.438,2.438,0,0,0,3782.828-8042.937Z" transform="translate(87.307 0)" fill="#d1ccc1"/>
    <path id="Path_4667" data-name="Path 4667" d="M3889.66-7957.472a2.436,2.436,0,0,0-2.433,2.434,2.438,2.438,0,0,0,2.433,2.435,2.438,2.438,0,0,0,2.434-2.435A2.437,2.437,0,0,0,3889.66-7957.472Z" transform="translate(174.614 69.845)" fill="#d1ccc1"/>
    <path id="Path_4668" data-name="Path 4668" d="M3900.344-7957.472a2.437,2.437,0,0,0-2.434,2.434,2.438,2.438,0,0,0,2.434,2.435,2.438,2.438,0,0,0,2.433-2.435A2.436,2.436,0,0,0,3900.344-7957.472Z" transform="translate(183.344 69.845)" fill="#d1ccc1"/>
    <path id="Path_4669" data-name="Path 4669" d="M3911.026-7957.472a2.437,2.437,0,0,0-2.433,2.434,2.438,2.438,0,0,0,2.433,2.435,2.438,2.438,0,0,0,2.434-2.435A2.437,2.437,0,0,0,3911.026-7957.472Z" transform="translate(192.075 69.845)" fill="#d1ccc1"/>
    <path id="Path_4670" data-name="Path 4670" d="M3921.709-7957.472a2.437,2.437,0,0,0-2.434,2.434,2.438,2.438,0,0,0,2.434,2.435,2.439,2.439,0,0,0,2.436-2.435A2.437,2.437,0,0,0,3921.709-7957.472Z" transform="translate(200.806 69.845)" fill="#d1ccc1"/>
    <path id="Path_4671" data-name="Path 4671" d="M3953.759-7957.472a2.437,2.437,0,0,0-2.434,2.434,2.438,2.438,0,0,0,2.434,2.435,2.438,2.438,0,0,0,2.433-2.435A2.437,2.437,0,0,0,3953.759-7957.472Z" transform="translate(226.998 69.845)" fill="#d1ccc1"/>
    <path id="Path_4672" data-name="Path 4672" d="M3943.074-7957.472a2.435,2.435,0,0,0-2.431,2.434,2.436,2.436,0,0,0,2.431,2.435,2.439,2.439,0,0,0,2.435-2.435A2.437,2.437,0,0,0,3943.074-7957.472Z" transform="translate(218.267 69.845)" fill="#d1ccc1"/>
    <path id="Path_4687" data-name="Path 4687" d="M3761.461-8042.937a2.438,2.438,0,0,0-2.433,2.435,2.434,2.434,0,0,0,2.433,2.433,2.436,2.436,0,0,0,2.435-2.433A2.44,2.44,0,0,0,3761.461-8042.937Z" transform="translate(69.845 0)" fill="#d1ccc1"/>
    <path id="Path_4699" data-name="Path 4699" d="M3932.392-7957.472a2.437,2.437,0,0,0-2.433,2.434,2.438,2.438,0,0,0,2.433,2.435,2.438,2.438,0,0,0,2.435-2.435A2.437,2.437,0,0,0,3932.392-7957.472Z" transform="translate(209.536 69.845)" fill="#d1ccc1"/>
    <path id="Path_4700" data-name="Path 4700" d="M3964.442-7957.472a2.437,2.437,0,0,0-2.433,2.434,2.438,2.438,0,0,0,2.433,2.435,2.44,2.44,0,0,0,2.436-2.435A2.438,2.438,0,0,0,3964.442-7957.472Z" transform="translate(235.728 69.845)" fill="#d1ccc1"/>
    <path id="Path_4708" data-name="Path 4708" d="M3889.66-7968.153a2.433,2.433,0,0,0-2.433,2.431,2.437,2.437,0,0,0,2.433,2.434,2.437,2.437,0,0,0,2.434-2.434A2.434,2.434,0,0,0,3889.66-7968.153Z" transform="translate(174.614 61.116)" fill="#d1ccc1"/>
    <path id="Path_4709" data-name="Path 4709" d="M3900.344-7968.153a2.434,2.434,0,0,0-2.434,2.431,2.437,2.437,0,0,0,2.434,2.434,2.437,2.437,0,0,0,2.433-2.434A2.433,2.433,0,0,0,3900.344-7968.153Z" transform="translate(183.344 61.116)" fill="#d1ccc1"/>
    <path id="Path_4710" data-name="Path 4710" d="M3911.026-7968.153a2.434,2.434,0,0,0-2.433,2.431,2.437,2.437,0,0,0,2.433,2.434,2.437,2.437,0,0,0,2.434-2.434A2.434,2.434,0,0,0,3911.026-7968.153Z" transform="translate(192.075 61.116)" fill="#d1ccc1"/>
    <path id="Path_4711" data-name="Path 4711" d="M3921.709-7968.153a2.434,2.434,0,0,0-2.434,2.431,2.437,2.437,0,0,0,2.434,2.434,2.438,2.438,0,0,0,2.436-2.434A2.434,2.434,0,0,0,3921.709-7968.153Z" transform="translate(200.806 61.116)" fill="#d1ccc1"/>
    <path id="Path_4712" data-name="Path 4712" d="M3953.759-7968.153a2.434,2.434,0,0,0-2.434,2.431,2.437,2.437,0,0,0,2.434,2.434,2.437,2.437,0,0,0,2.433-2.434A2.434,2.434,0,0,0,3953.759-7968.153Z" transform="translate(226.998 61.116)" fill="#d1ccc1"/>
    <path id="Path_4713" data-name="Path 4713" d="M3943.074-7968.153a2.432,2.432,0,0,0-2.431,2.431,2.435,2.435,0,0,0,2.431,2.434,2.438,2.438,0,0,0,2.435-2.434A2.434,2.434,0,0,0,3943.074-7968.153Z" transform="translate(218.267 61.116)" fill="#d1ccc1"/>
    <path id="Path_4729" data-name="Path 4729" d="M3750.778-8042.937a2.438,2.438,0,0,0-2.434,2.435,2.435,2.435,0,0,0,2.434,2.433,2.434,2.434,0,0,0,2.433-2.433A2.438,2.438,0,0,0,3750.778-8042.937Z" transform="translate(61.115 0)" fill="#d1ccc1"/>
    <path id="Path_4742" data-name="Path 4742" d="M3932.392-7968.153a2.434,2.434,0,0,0-2.433,2.431,2.437,2.437,0,0,0,2.433,2.434,2.437,2.437,0,0,0,2.435-2.434A2.434,2.434,0,0,0,3932.392-7968.153Z" transform="translate(209.536 61.116)" fill="#d1ccc1"/>
    <path id="Path_4743" data-name="Path 4743" d="M3964.442-7968.153a2.434,2.434,0,0,0-2.433,2.431,2.437,2.437,0,0,0,2.433,2.434,2.439,2.439,0,0,0,2.436-2.434A2.435,2.435,0,0,0,3964.442-7968.153Z" transform="translate(235.728 61.116)" fill="#d1ccc1"/>
    <path id="Path_4747" data-name="Path 4747" d="M3676-7978.838a2.437,2.437,0,0,0-2.433,2.434,2.436,2.436,0,0,0,2.433,2.433,2.436,2.436,0,0,0,2.433-2.433A2.437,2.437,0,0,0,3676-7978.838Z" transform="translate(0 52.385)" fill="#d1ccc1"/>
    <path id="Path_4758" data-name="Path 4758" d="M3740.095-8042.937a2.438,2.438,0,0,0-2.433,2.435,2.434,2.434,0,0,0,2.433,2.433,2.435,2.435,0,0,0,2.434-2.433A2.438,2.438,0,0,0,3740.095-8042.937Z" transform="translate(52.384 0)" fill="#d1ccc1"/>
    <path id="Path_4770" data-name="Path 4770" d="M3740.095-7978.838a2.437,2.437,0,0,0-2.433,2.434,2.436,2.436,0,0,0,2.433,2.433,2.437,2.437,0,0,0,2.434-2.433A2.437,2.437,0,0,0,3740.095-7978.838Z" transform="translate(52.384 52.385)" fill="#d1ccc1"/>
    <path id="Path_4771" data-name="Path 4771" d="M3846.927-7978.838a2.437,2.437,0,0,0-2.433,2.434,2.436,2.436,0,0,0,2.433,2.433,2.437,2.437,0,0,0,2.434-2.433A2.437,2.437,0,0,0,3846.927-7978.838Z" transform="translate(139.691 52.385)" fill="#d1ccc1"/>
    <path id="Path_4772" data-name="Path 4772" d="M3878.978-7978.838a2.439,2.439,0,0,0-2.436,2.434,2.438,2.438,0,0,0,2.436,2.433,2.436,2.436,0,0,0,2.433-2.433A2.437,2.437,0,0,0,3878.978-7978.838Z" transform="translate(165.883 52.385)" fill="#d1ccc1"/>
    <path id="Path_4773" data-name="Path 4773" d="M3857.611-7978.838a2.437,2.437,0,0,0-2.434,2.434,2.437,2.437,0,0,0,2.434,2.433,2.436,2.436,0,0,0,2.433-2.433A2.437,2.437,0,0,0,3857.611-7978.838Z" transform="translate(148.421 52.385)" fill="#d1ccc1"/>
    <path id="Path_4774" data-name="Path 4774" d="M3889.66-7978.838a2.437,2.437,0,0,0-2.433,2.434,2.436,2.436,0,0,0,2.433,2.433,2.437,2.437,0,0,0,2.434-2.433A2.437,2.437,0,0,0,3889.66-7978.838Z" transform="translate(174.614 52.385)" fill="#d1ccc1"/>
    <path id="Path_4775" data-name="Path 4775" d="M3900.344-7978.838a2.437,2.437,0,0,0-2.434,2.434,2.437,2.437,0,0,0,2.434,2.433,2.436,2.436,0,0,0,2.433-2.433A2.437,2.437,0,0,0,3900.344-7978.838Z" transform="translate(183.344 52.385)" fill="#d1ccc1"/>
    <path id="Path_4776" data-name="Path 4776" d="M3911.026-7978.838a2.437,2.437,0,0,0-2.433,2.434,2.436,2.436,0,0,0,2.433,2.433,2.437,2.437,0,0,0,2.434-2.433A2.437,2.437,0,0,0,3911.026-7978.838Z" transform="translate(192.075 52.385)" fill="#d1ccc1"/>
    <path id="Path_4777" data-name="Path 4777" d="M3921.709-7978.838a2.437,2.437,0,0,0-2.434,2.434,2.437,2.437,0,0,0,2.434,2.433,2.437,2.437,0,0,0,2.436-2.433A2.438,2.438,0,0,0,3921.709-7978.838Z" transform="translate(200.806 52.385)" fill="#d1ccc1"/>
    <path id="Path_4778" data-name="Path 4778" d="M3953.759-7978.838a2.437,2.437,0,0,0-2.434,2.434,2.437,2.437,0,0,0,2.434,2.433,2.436,2.436,0,0,0,2.433-2.433A2.437,2.437,0,0,0,3953.759-7978.838Z" transform="translate(226.998 52.385)" fill="#d1ccc1"/>
    <path id="Path_4779" data-name="Path 4779" d="M3943.074-7978.838a2.435,2.435,0,0,0-2.431,2.434,2.434,2.434,0,0,0,2.431,2.433,2.437,2.437,0,0,0,2.435-2.433A2.438,2.438,0,0,0,3943.074-7978.838Z" transform="translate(218.267 52.385)" fill="#d1ccc1"/>
    <path id="Path_4780" data-name="Path 4780" d="M3836.244-7978.838a2.437,2.437,0,0,0-2.433,2.434,2.436,2.436,0,0,0,2.433,2.433,2.437,2.437,0,0,0,2.434-2.433A2.437,2.437,0,0,0,3836.244-7978.838Z" transform="translate(130.961 52.385)" fill="#d1ccc1"/>
    <path id="Path_4781" data-name="Path 4781" d="M3868.293-7978.838a2.437,2.437,0,0,0-2.433,2.434,2.436,2.436,0,0,0,2.433,2.433,2.437,2.437,0,0,0,2.435-2.433A2.438,2.438,0,0,0,3868.293-7978.838Z" transform="translate(157.152 52.385)" fill="#d1ccc1"/>
    <path id="Path_4782" data-name="Path 4782" d="M3772.144-7978.838a2.437,2.437,0,0,0-2.434,2.434,2.437,2.437,0,0,0,2.434,2.433,2.436,2.436,0,0,0,2.435-2.433A2.437,2.437,0,0,0,3772.144-7978.838Z" transform="translate(78.576 52.385)" fill="#d1ccc1"/>
    <path id="Path_4783" data-name="Path 4783" d="M3761.461-7978.838a2.437,2.437,0,0,0-2.433,2.434,2.436,2.436,0,0,0,2.433,2.433,2.438,2.438,0,0,0,2.435-2.433A2.439,2.439,0,0,0,3761.461-7978.838Z" transform="translate(69.845 52.385)" fill="#d1ccc1"/>
    <path id="Path_4784" data-name="Path 4784" d="M3750.778-7978.838a2.437,2.437,0,0,0-2.434,2.434,2.437,2.437,0,0,0,2.434,2.433,2.436,2.436,0,0,0,2.433-2.433A2.437,2.437,0,0,0,3750.778-7978.838Z" transform="translate(61.115 52.385)" fill="#d1ccc1"/>
    <path id="Path_4785" data-name="Path 4785" d="M3825.562-7978.838a2.439,2.439,0,0,0-2.436,2.434,2.438,2.438,0,0,0,2.436,2.433A2.436,2.436,0,0,0,3828-7976.4,2.437,2.437,0,0,0,3825.562-7978.838Z" transform="translate(122.229 52.385)" fill="#d1ccc1"/>
    <path id="Path_4786" data-name="Path 4786" d="M3814.877-7978.838a2.437,2.437,0,0,0-2.433,2.434,2.436,2.436,0,0,0,2.433,2.433,2.438,2.438,0,0,0,2.435-2.433A2.439,2.439,0,0,0,3814.877-7978.838Z" transform="translate(113.498 52.385)" fill="#d1ccc1"/>
    <path id="Path_4787" data-name="Path 4787" d="M3932.392-7978.838a2.437,2.437,0,0,0-2.433,2.434,2.436,2.436,0,0,0,2.433,2.433,2.437,2.437,0,0,0,2.435-2.433A2.437,2.437,0,0,0,3932.392-7978.838Z" transform="translate(209.536 52.385)" fill="#d1ccc1"/>
    <path id="Path_4788" data-name="Path 4788" d="M3964.442-7978.838a2.437,2.437,0,0,0-2.433,2.434,2.436,2.436,0,0,0,2.433,2.433,2.438,2.438,0,0,0,2.436-2.433A2.439,2.439,0,0,0,3964.442-7978.838Z" transform="translate(235.728 52.385)" fill="#d1ccc1"/>
    <path id="Path_4789" data-name="Path 4789" d="M3804.194-7978.838a2.437,2.437,0,0,0-2.433,2.434,2.436,2.436,0,0,0,2.433,2.433,2.436,2.436,0,0,0,2.433-2.433A2.437,2.437,0,0,0,3804.194-7978.838Z" transform="translate(104.768 52.385)" fill="#d1ccc1"/>
    <path id="Path_4790" data-name="Path 4790" d="M3793.511-7978.838a2.437,2.437,0,0,0-2.434,2.434,2.437,2.437,0,0,0,2.434,2.433,2.437,2.437,0,0,0,2.434-2.433A2.437,2.437,0,0,0,3793.511-7978.838Z" transform="translate(96.038 52.385)" fill="#d1ccc1"/>
    <path id="Path_4791" data-name="Path 4791" d="M3782.828-7978.838a2.437,2.437,0,0,0-2.433,2.434,2.436,2.436,0,0,0,2.433,2.433,2.437,2.437,0,0,0,2.434-2.433A2.437,2.437,0,0,0,3782.828-7978.838Z" transform="translate(87.307 52.385)" fill="#d1ccc1"/>
    <path id="Path_4792" data-name="Path 4792" d="M3676-7989.521a2.436,2.436,0,0,0-2.433,2.433,2.434,2.434,0,0,0,2.433,2.432,2.434,2.434,0,0,0,2.433-2.432A2.436,2.436,0,0,0,3676-7989.521Z" transform="translate(0 43.654)" fill="#d1ccc1"/>
    <path id="Path_4793" data-name="Path 4793" d="M3740.095-7989.521a2.436,2.436,0,0,0-2.433,2.433,2.433,2.433,0,0,0,2.433,2.432,2.434,2.434,0,0,0,2.434-2.432A2.437,2.437,0,0,0,3740.095-7989.521Z" transform="translate(52.384 43.654)" fill="#d1ccc1"/>
    <path id="Path_4804" data-name="Path 4804" d="M3729.413-8042.937a2.438,2.438,0,0,0-2.434,2.435,2.435,2.435,0,0,0,2.434,2.433,2.434,2.434,0,0,0,2.433-2.433A2.438,2.438,0,0,0,3729.413-8042.937Z" transform="translate(43.653 0)" fill="#d1ccc1"/>
    <path id="Path_4816" data-name="Path 4816" d="M3729.413-7978.838a2.437,2.437,0,0,0-2.434,2.434,2.437,2.437,0,0,0,2.434,2.433,2.436,2.436,0,0,0,2.433-2.433A2.437,2.437,0,0,0,3729.413-7978.838Z" transform="translate(43.653 52.385)" fill="#d1ccc1"/>
    <path id="Path_4817" data-name="Path 4817" d="M3729.413-7989.521a2.437,2.437,0,0,0-2.434,2.433,2.434,2.434,0,0,0,2.434,2.432,2.434,2.434,0,0,0,2.433-2.432A2.436,2.436,0,0,0,3729.413-7989.521Z" transform="translate(43.653 43.654)" fill="#d1ccc1"/>
    <path id="Path_4818" data-name="Path 4818" d="M3846.927-7989.521a2.436,2.436,0,0,0-2.433,2.433,2.434,2.434,0,0,0,2.433,2.432,2.434,2.434,0,0,0,2.434-2.432A2.437,2.437,0,0,0,3846.927-7989.521Z" transform="translate(139.691 43.654)" fill="#d1ccc1"/>
    <path id="Path_4819" data-name="Path 4819" d="M3878.978-7989.521a2.438,2.438,0,0,0-2.436,2.433,2.436,2.436,0,0,0,2.436,2.432,2.433,2.433,0,0,0,2.433-2.432A2.436,2.436,0,0,0,3878.978-7989.521Z" transform="translate(165.883 43.654)" fill="#d1ccc1"/>
    <path id="Path_4820" data-name="Path 4820" d="M3857.611-7989.521a2.437,2.437,0,0,0-2.434,2.433,2.434,2.434,0,0,0,2.434,2.432,2.434,2.434,0,0,0,2.433-2.432A2.436,2.436,0,0,0,3857.611-7989.521Z" transform="translate(148.421 43.654)" fill="#d1ccc1"/>
    <path id="Path_4821" data-name="Path 4821" d="M3889.66-7989.521a2.436,2.436,0,0,0-2.433,2.433,2.433,2.433,0,0,0,2.433,2.432,2.434,2.434,0,0,0,2.434-2.432A2.437,2.437,0,0,0,3889.66-7989.521Z" transform="translate(174.614 43.654)" fill="#d1ccc1"/>
    <path id="Path_4822" data-name="Path 4822" d="M3900.344-7989.521a2.437,2.437,0,0,0-2.434,2.433,2.434,2.434,0,0,0,2.434,2.432,2.433,2.433,0,0,0,2.433-2.432A2.436,2.436,0,0,0,3900.344-7989.521Z" transform="translate(183.344 43.654)" fill="#d1ccc1"/>
    <path id="Path_4823" data-name="Path 4823" d="M3911.026-7989.521a2.436,2.436,0,0,0-2.433,2.433,2.434,2.434,0,0,0,2.433,2.432,2.434,2.434,0,0,0,2.434-2.432A2.437,2.437,0,0,0,3911.026-7989.521Z" transform="translate(192.075 43.654)" fill="#d1ccc1"/>
    <path id="Path_4824" data-name="Path 4824" d="M3921.709-7989.521a2.437,2.437,0,0,0-2.434,2.433,2.434,2.434,0,0,0,2.434,2.432,2.434,2.434,0,0,0,2.436-2.432A2.437,2.437,0,0,0,3921.709-7989.521Z" transform="translate(200.806 43.654)" fill="#d1ccc1"/>
    <path id="Path_4825" data-name="Path 4825" d="M3953.759-7989.521a2.437,2.437,0,0,0-2.434,2.433,2.434,2.434,0,0,0,2.434,2.432,2.434,2.434,0,0,0,2.433-2.432A2.436,2.436,0,0,0,3953.759-7989.521Z" transform="translate(226.998 43.654)" fill="#d1ccc1"/>
    <path id="Path_4826" data-name="Path 4826" d="M3943.074-7989.521a2.434,2.434,0,0,0-2.431,2.433,2.432,2.432,0,0,0,2.431,2.432,2.434,2.434,0,0,0,2.435-2.432A2.437,2.437,0,0,0,3943.074-7989.521Z" transform="translate(218.267 43.654)" fill="#d1ccc1"/>
    <path id="Path_4827" data-name="Path 4827" d="M3836.244-7989.521a2.436,2.436,0,0,0-2.433,2.433,2.434,2.434,0,0,0,2.433,2.432,2.434,2.434,0,0,0,2.434-2.432A2.437,2.437,0,0,0,3836.244-7989.521Z" transform="translate(130.961 43.654)" fill="#d1ccc1"/>
    <path id="Path_4828" data-name="Path 4828" d="M3868.293-7989.521a2.436,2.436,0,0,0-2.433,2.433,2.433,2.433,0,0,0,2.433,2.432,2.434,2.434,0,0,0,2.435-2.432A2.437,2.437,0,0,0,3868.293-7989.521Z" transform="translate(157.152 43.654)" fill="#d1ccc1"/>
    <path id="Path_4829" data-name="Path 4829" d="M3772.144-7989.521a2.437,2.437,0,0,0-2.434,2.433,2.434,2.434,0,0,0,2.434,2.432,2.434,2.434,0,0,0,2.435-2.432A2.436,2.436,0,0,0,3772.144-7989.521Z" transform="translate(78.576 43.654)" fill="#d1ccc1"/>
    <path id="Path_4830" data-name="Path 4830" d="M3761.461-7989.521a2.436,2.436,0,0,0-2.433,2.433,2.433,2.433,0,0,0,2.433,2.432,2.435,2.435,0,0,0,2.435-2.432A2.438,2.438,0,0,0,3761.461-7989.521Z" transform="translate(69.845 43.654)" fill="#d1ccc1"/>
    <path id="Path_4831" data-name="Path 4831" d="M3750.778-7989.521a2.437,2.437,0,0,0-2.434,2.433,2.434,2.434,0,0,0,2.434,2.432,2.433,2.433,0,0,0,2.433-2.432A2.436,2.436,0,0,0,3750.778-7989.521Z" transform="translate(61.115 43.654)" fill="#d1ccc1"/>
    <path id="Path_4832" data-name="Path 4832" d="M3825.562-7989.521a2.438,2.438,0,0,0-2.436,2.433,2.436,2.436,0,0,0,2.436,2.432,2.434,2.434,0,0,0,2.433-2.432A2.436,2.436,0,0,0,3825.562-7989.521Z" transform="translate(122.229 43.654)" fill="#d1ccc1"/>
    <path id="Path_4833" data-name="Path 4833" d="M3814.877-7989.521a2.436,2.436,0,0,0-2.433,2.433,2.433,2.433,0,0,0,2.433,2.432,2.435,2.435,0,0,0,2.435-2.432A2.438,2.438,0,0,0,3814.877-7989.521Z" transform="translate(113.498 43.654)" fill="#d1ccc1"/>
    <path id="Path_4834" data-name="Path 4834" d="M3932.392-7989.521a2.436,2.436,0,0,0-2.433,2.433,2.434,2.434,0,0,0,2.433,2.432,2.434,2.434,0,0,0,2.435-2.432A2.437,2.437,0,0,0,3932.392-7989.521Z" transform="translate(209.536 43.654)" fill="#d1ccc1"/>
    <path id="Path_4835" data-name="Path 4835" d="M3964.442-7989.521a2.436,2.436,0,0,0-2.433,2.433,2.434,2.434,0,0,0,2.433,2.432,2.436,2.436,0,0,0,2.436-2.432A2.438,2.438,0,0,0,3964.442-7989.521Z" transform="translate(235.728 43.654)" fill="#d1ccc1"/>
    <path id="Path_4836" data-name="Path 4836" d="M3804.194-7989.521a2.436,2.436,0,0,0-2.433,2.433,2.434,2.434,0,0,0,2.433,2.432,2.434,2.434,0,0,0,2.433-2.432A2.436,2.436,0,0,0,3804.194-7989.521Z" transform="translate(104.768 43.654)" fill="#d1ccc1"/>
    <path id="Path_4837" data-name="Path 4837" d="M3793.511-7989.521a2.437,2.437,0,0,0-2.434,2.433,2.434,2.434,0,0,0,2.434,2.432,2.434,2.434,0,0,0,2.434-2.432A2.437,2.437,0,0,0,3793.511-7989.521Z" transform="translate(96.038 43.654)" fill="#d1ccc1"/>
    <path id="Path_4838" data-name="Path 4838" d="M3782.828-7989.521a2.436,2.436,0,0,0-2.433,2.433,2.434,2.434,0,0,0,2.433,2.432,2.434,2.434,0,0,0,2.434-2.432A2.437,2.437,0,0,0,3782.828-7989.521Z" transform="translate(87.307 43.654)" fill="#d1ccc1"/>
    <path id="Path_4839" data-name="Path 4839" d="M3676-8000.2a2.436,2.436,0,0,0-2.433,2.434,2.437,2.437,0,0,0,2.433,2.434,2.437,2.437,0,0,0,2.433-2.434A2.436,2.436,0,0,0,3676-8000.2Z" transform="translate(0 34.923)" fill="#d1ccc1"/>
    <path id="Path_4840" data-name="Path 4840" d="M3740.095-8000.2a2.436,2.436,0,0,0-2.433,2.434,2.437,2.437,0,0,0,2.433,2.434,2.437,2.437,0,0,0,2.434-2.434A2.436,2.436,0,0,0,3740.095-8000.2Z" transform="translate(52.384 34.923)" fill="#d1ccc1"/>
    <path id="Path_4841" data-name="Path 4841" d="M3729.413-8000.2a2.436,2.436,0,0,0-2.434,2.434,2.437,2.437,0,0,0,2.434,2.434,2.437,2.437,0,0,0,2.433-2.434A2.436,2.436,0,0,0,3729.413-8000.2Z" transform="translate(43.653 34.923)" fill="#d1ccc1"/>
    <path id="Path_4852" data-name="Path 4852" d="M3718.73-8042.937a2.439,2.439,0,0,0-2.435,2.435,2.435,2.435,0,0,0,2.435,2.433,2.435,2.435,0,0,0,2.434-2.433A2.438,2.438,0,0,0,3718.73-8042.937Z" transform="translate(34.922 0)" fill="#d1ccc1"/>
    <path id="Path_4864" data-name="Path 4864" d="M3718.73-7978.838a2.438,2.438,0,0,0-2.435,2.434,2.437,2.437,0,0,0,2.435,2.433,2.437,2.437,0,0,0,2.434-2.433A2.437,2.437,0,0,0,3718.73-7978.838Z" transform="translate(34.922 52.385)" fill="#d1ccc1"/>
    <path id="Path_4865" data-name="Path 4865" d="M3718.73-7989.521a2.437,2.437,0,0,0-2.435,2.433,2.434,2.434,0,0,0,2.435,2.432,2.434,2.434,0,0,0,2.434-2.432A2.437,2.437,0,0,0,3718.73-7989.521Z" transform="translate(34.922 43.654)" fill="#d1ccc1"/>
    <path id="Path_4866" data-name="Path 4866" d="M3718.73-8000.2a2.436,2.436,0,0,0-2.435,2.434,2.438,2.438,0,0,0,2.435,2.434,2.437,2.437,0,0,0,2.434-2.434A2.436,2.436,0,0,0,3718.73-8000.2Z" transform="translate(34.922 34.923)" fill="#d1ccc1"/>
    <path id="Path_4867" data-name="Path 4867" d="M3846.927-8000.2a2.436,2.436,0,0,0-2.433,2.434,2.437,2.437,0,0,0,2.433,2.434,2.437,2.437,0,0,0,2.434-2.434A2.436,2.436,0,0,0,3846.927-8000.2Z" transform="translate(139.691 34.923)" fill="#d1ccc1"/>
    <path id="Path_4868" data-name="Path 4868" d="M3878.978-8000.2a2.438,2.438,0,0,0-2.436,2.434,2.439,2.439,0,0,0,2.436,2.434,2.437,2.437,0,0,0,2.433-2.434A2.436,2.436,0,0,0,3878.978-8000.2Z" transform="translate(165.883 34.923)" fill="#d1ccc1"/>
    <path id="Path_4869" data-name="Path 4869" d="M3857.611-8000.2a2.436,2.436,0,0,0-2.434,2.434,2.437,2.437,0,0,0,2.434,2.434,2.437,2.437,0,0,0,2.433-2.434A2.436,2.436,0,0,0,3857.611-8000.2Z" transform="translate(148.421 34.923)" fill="#d1ccc1"/>
    <path id="Path_4870" data-name="Path 4870" d="M3889.66-8000.2a2.436,2.436,0,0,0-2.433,2.434,2.437,2.437,0,0,0,2.433,2.434,2.437,2.437,0,0,0,2.434-2.434A2.436,2.436,0,0,0,3889.66-8000.2Z" transform="translate(174.614 34.923)" fill="#d1ccc1"/>
    <path id="Path_4871" data-name="Path 4871" d="M3900.344-8000.2a2.436,2.436,0,0,0-2.434,2.434,2.437,2.437,0,0,0,2.434,2.434,2.437,2.437,0,0,0,2.433-2.434A2.436,2.436,0,0,0,3900.344-8000.2Z" transform="translate(183.344 34.923)" fill="#d1ccc1"/>
    <path id="Path_4872" data-name="Path 4872" d="M3911.026-8000.2a2.436,2.436,0,0,0-2.433,2.434,2.437,2.437,0,0,0,2.433,2.434,2.437,2.437,0,0,0,2.434-2.434A2.436,2.436,0,0,0,3911.026-8000.2Z" transform="translate(192.075 34.923)" fill="#d1ccc1"/>
    <path id="Path_4873" data-name="Path 4873" d="M3921.709-8000.2a2.436,2.436,0,0,0-2.434,2.434,2.437,2.437,0,0,0,2.434,2.434,2.438,2.438,0,0,0,2.436-2.434A2.437,2.437,0,0,0,3921.709-8000.2Z" transform="translate(200.806 34.923)" fill="#d1ccc1"/>
    <path id="Path_4874" data-name="Path 4874" d="M3953.759-8000.2a2.436,2.436,0,0,0-2.434,2.434,2.437,2.437,0,0,0,2.434,2.434,2.437,2.437,0,0,0,2.433-2.434A2.436,2.436,0,0,0,3953.759-8000.2Z" transform="translate(226.998 34.923)" fill="#d1ccc1"/>
    <path id="Path_4875" data-name="Path 4875" d="M3943.074-8000.2a2.434,2.434,0,0,0-2.431,2.434,2.435,2.435,0,0,0,2.431,2.434,2.438,2.438,0,0,0,2.435-2.434A2.436,2.436,0,0,0,3943.074-8000.2Z" transform="translate(218.267 34.923)" fill="#d1ccc1"/>
    <path id="Path_4876" data-name="Path 4876" d="M3836.244-8000.2a2.436,2.436,0,0,0-2.433,2.434,2.437,2.437,0,0,0,2.433,2.434,2.437,2.437,0,0,0,2.434-2.434A2.436,2.436,0,0,0,3836.244-8000.2Z" transform="translate(130.961 34.923)" fill="#d1ccc1"/>
    <path id="Path_4877" data-name="Path 4877" d="M3868.293-8000.2a2.436,2.436,0,0,0-2.433,2.434,2.437,2.437,0,0,0,2.433,2.434,2.438,2.438,0,0,0,2.435-2.434A2.436,2.436,0,0,0,3868.293-8000.2Z" transform="translate(157.152 34.923)" fill="#d1ccc1"/>
    <path id="Path_4878" data-name="Path 4878" d="M3772.144-8000.2a2.436,2.436,0,0,0-2.434,2.434,2.437,2.437,0,0,0,2.434,2.434,2.437,2.437,0,0,0,2.435-2.434A2.436,2.436,0,0,0,3772.144-8000.2Z" transform="translate(78.576 34.923)" fill="#d1ccc1"/>
    <path id="Path_4879" data-name="Path 4879" d="M3761.461-8000.2a2.436,2.436,0,0,0-2.433,2.434,2.437,2.437,0,0,0,2.433,2.434,2.439,2.439,0,0,0,2.435-2.434A2.438,2.438,0,0,0,3761.461-8000.2Z" transform="translate(69.845 34.923)" fill="#d1ccc1"/>
    <path id="Path_4880" data-name="Path 4880" d="M3750.778-8000.2a2.436,2.436,0,0,0-2.434,2.434,2.437,2.437,0,0,0,2.434,2.434,2.437,2.437,0,0,0,2.433-2.434A2.436,2.436,0,0,0,3750.778-8000.2Z" transform="translate(61.115 34.923)" fill="#d1ccc1"/>
    <path id="Path_4881" data-name="Path 4881" d="M3825.562-8000.2a2.438,2.438,0,0,0-2.436,2.434,2.439,2.439,0,0,0,2.436,2.434,2.437,2.437,0,0,0,2.433-2.434A2.436,2.436,0,0,0,3825.562-8000.2Z" transform="translate(122.229 34.923)" fill="#d1ccc1"/>
    <path id="Path_4882" data-name="Path 4882" d="M3814.877-8000.2a2.436,2.436,0,0,0-2.433,2.434,2.437,2.437,0,0,0,2.433,2.434,2.439,2.439,0,0,0,2.435-2.434A2.438,2.438,0,0,0,3814.877-8000.2Z" transform="translate(113.498 34.923)" fill="#d1ccc1"/>
    <path id="Path_4883" data-name="Path 4883" d="M3932.392-8000.2a2.436,2.436,0,0,0-2.433,2.434,2.437,2.437,0,0,0,2.433,2.434,2.437,2.437,0,0,0,2.435-2.434A2.436,2.436,0,0,0,3932.392-8000.2Z" transform="translate(209.536 34.923)" fill="#d1ccc1"/>
    <path id="Path_4884" data-name="Path 4884" d="M3964.442-8000.2a2.436,2.436,0,0,0-2.433,2.434,2.437,2.437,0,0,0,2.433,2.434,2.439,2.439,0,0,0,2.436-2.434A2.438,2.438,0,0,0,3964.442-8000.2Z" transform="translate(235.728 34.923)" fill="#d1ccc1"/>
    <path id="Path_4885" data-name="Path 4885" d="M3804.194-8000.2a2.436,2.436,0,0,0-2.433,2.434,2.437,2.437,0,0,0,2.433,2.434,2.437,2.437,0,0,0,2.433-2.434A2.436,2.436,0,0,0,3804.194-8000.2Z" transform="translate(104.768 34.923)" fill="#d1ccc1"/>
    <path id="Path_4886" data-name="Path 4886" d="M3793.511-8000.2a2.436,2.436,0,0,0-2.434,2.434,2.437,2.437,0,0,0,2.434,2.434,2.437,2.437,0,0,0,2.434-2.434A2.436,2.436,0,0,0,3793.511-8000.2Z" transform="translate(96.038 34.923)" fill="#d1ccc1"/>
    <path id="Path_4887" data-name="Path 4887" d="M3782.828-8000.2a2.436,2.436,0,0,0-2.433,2.434,2.437,2.437,0,0,0,2.433,2.434,2.437,2.437,0,0,0,2.434-2.434A2.436,2.436,0,0,0,3782.828-8000.2Z" transform="translate(87.307 34.923)" fill="#d1ccc1"/>
    <path id="Path_4888" data-name="Path 4888" d="M3676-8010.888a2.437,2.437,0,0,0-2.433,2.434,2.438,2.438,0,0,0,2.433,2.435,2.438,2.438,0,0,0,2.433-2.435A2.437,2.437,0,0,0,3676-8010.888Z" transform="translate(0 26.192)" fill="#d1ccc1"/>
    <path id="Path_4889" data-name="Path 4889" d="M3740.095-8010.888a2.436,2.436,0,0,0-2.433,2.434,2.438,2.438,0,0,0,2.433,2.435,2.438,2.438,0,0,0,2.434-2.435A2.437,2.437,0,0,0,3740.095-8010.888Z" transform="translate(52.384 26.192)" fill="#d1ccc1"/>
    <path id="Path_4890" data-name="Path 4890" d="M3729.413-8010.888a2.437,2.437,0,0,0-2.434,2.434,2.438,2.438,0,0,0,2.434,2.435,2.438,2.438,0,0,0,2.433-2.435A2.437,2.437,0,0,0,3729.413-8010.888Z" transform="translate(43.653 26.192)" fill="#d1ccc1"/>
    <path id="Path_4891" data-name="Path 4891" d="M3718.73-8010.888a2.437,2.437,0,0,0-2.435,2.434,2.439,2.439,0,0,0,2.435,2.435,2.438,2.438,0,0,0,2.434-2.435A2.437,2.437,0,0,0,3718.73-8010.888Z" transform="translate(34.922 26.192)" fill="#d1ccc1"/>
    <path id="Path_4902" data-name="Path 4902" d="M3708.045-8042.937a2.438,2.438,0,0,0-2.433,2.435,2.435,2.435,0,0,0,2.433,2.433,2.436,2.436,0,0,0,2.436-2.433A2.44,2.44,0,0,0,3708.045-8042.937Z" transform="translate(26.192 0)" fill="#d1ccc1"/>
    <path id="Path_4914" data-name="Path 4914" d="M3708.045-7978.838a2.437,2.437,0,0,0-2.433,2.434,2.436,2.436,0,0,0,2.433,2.433,2.438,2.438,0,0,0,2.436-2.433A2.439,2.439,0,0,0,3708.045-7978.838Z" transform="translate(26.192 52.385)" fill="#d1ccc1"/>
    <path id="Path_4915" data-name="Path 4915" d="M3708.045-7989.521a2.436,2.436,0,0,0-2.433,2.433,2.434,2.434,0,0,0,2.433,2.432,2.436,2.436,0,0,0,2.436-2.432A2.438,2.438,0,0,0,3708.045-7989.521Z" transform="translate(26.192 43.654)" fill="#d1ccc1"/>
    <path id="Path_4916" data-name="Path 4916" d="M3708.045-8000.2a2.436,2.436,0,0,0-2.433,2.434,2.437,2.437,0,0,0,2.433,2.434,2.439,2.439,0,0,0,2.436-2.434A2.438,2.438,0,0,0,3708.045-8000.2Z" transform="translate(26.192 34.923)" fill="#d1ccc1"/>
    <path id="Path_4917" data-name="Path 4917" d="M3708.045-8010.888a2.437,2.437,0,0,0-2.433,2.434,2.438,2.438,0,0,0,2.433,2.435,2.44,2.44,0,0,0,2.436-2.435A2.438,2.438,0,0,0,3708.045-8010.888Z" transform="translate(26.192 26.192)" fill="#d1ccc1"/>
    <path id="Path_4918" data-name="Path 4918" d="M3846.927-8010.888a2.437,2.437,0,0,0-2.433,2.434,2.438,2.438,0,0,0,2.433,2.435,2.438,2.438,0,0,0,2.434-2.435A2.437,2.437,0,0,0,3846.927-8010.888Z" transform="translate(139.691 26.192)" fill="#d1ccc1"/>
    <path id="Path_4919" data-name="Path 4919" d="M3878.978-8010.888a2.438,2.438,0,0,0-2.436,2.434,2.44,2.44,0,0,0,2.436,2.435,2.438,2.438,0,0,0,2.433-2.435A2.436,2.436,0,0,0,3878.978-8010.888Z" transform="translate(165.883 26.192)" fill="#d1ccc1"/>
    <path id="Path_4920" data-name="Path 4920" d="M3857.611-8010.888a2.437,2.437,0,0,0-2.434,2.434,2.438,2.438,0,0,0,2.434,2.435,2.438,2.438,0,0,0,2.433-2.435A2.437,2.437,0,0,0,3857.611-8010.888Z" transform="translate(148.421 26.192)" fill="#d1ccc1"/>
    <path id="Path_4921" data-name="Path 4921" d="M3889.66-8010.888a2.436,2.436,0,0,0-2.433,2.434,2.438,2.438,0,0,0,2.433,2.435,2.438,2.438,0,0,0,2.434-2.435A2.437,2.437,0,0,0,3889.66-8010.888Z" transform="translate(174.614 26.192)" fill="#d1ccc1"/>
    <path id="Path_4922" data-name="Path 4922" d="M3900.344-8010.888a2.437,2.437,0,0,0-2.434,2.434,2.438,2.438,0,0,0,2.434,2.435,2.438,2.438,0,0,0,2.433-2.435A2.436,2.436,0,0,0,3900.344-8010.888Z" transform="translate(183.344 26.192)" fill="#d1ccc1"/>
    <path id="Path_4923" data-name="Path 4923" d="M3911.026-8010.888a2.437,2.437,0,0,0-2.433,2.434,2.438,2.438,0,0,0,2.433,2.435,2.438,2.438,0,0,0,2.434-2.435A2.437,2.437,0,0,0,3911.026-8010.888Z" transform="translate(192.075 26.192)" fill="#d1ccc1"/>
    <path id="Path_4924" data-name="Path 4924" d="M3921.709-8010.888a2.437,2.437,0,0,0-2.434,2.434,2.438,2.438,0,0,0,2.434,2.435,2.439,2.439,0,0,0,2.436-2.435A2.437,2.437,0,0,0,3921.709-8010.888Z" transform="translate(200.806 26.192)" fill="#d1ccc1"/>
    <path id="Path_4925" data-name="Path 4925" d="M3953.759-8010.888a2.437,2.437,0,0,0-2.434,2.434,2.438,2.438,0,0,0,2.434,2.435,2.438,2.438,0,0,0,2.433-2.435A2.437,2.437,0,0,0,3953.759-8010.888Z" transform="translate(226.998 26.192)" fill="#d1ccc1"/>
    <path id="Path_4926" data-name="Path 4926" d="M3943.074-8010.888a2.435,2.435,0,0,0-2.431,2.434,2.436,2.436,0,0,0,2.431,2.435,2.439,2.439,0,0,0,2.435-2.435A2.437,2.437,0,0,0,3943.074-8010.888Z" transform="translate(218.267 26.192)" fill="#d1ccc1"/>
    <path id="Path_4927" data-name="Path 4927" d="M3836.244-8010.888a2.437,2.437,0,0,0-2.433,2.434,2.438,2.438,0,0,0,2.433,2.435,2.438,2.438,0,0,0,2.434-2.435A2.437,2.437,0,0,0,3836.244-8010.888Z" transform="translate(130.961 26.192)" fill="#d1ccc1"/>
    <path id="Path_4928" data-name="Path 4928" d="M3868.293-8010.888a2.436,2.436,0,0,0-2.433,2.434,2.438,2.438,0,0,0,2.433,2.435,2.439,2.439,0,0,0,2.435-2.435A2.437,2.437,0,0,0,3868.293-8010.888Z" transform="translate(157.152 26.192)" fill="#d1ccc1"/>
    <path id="Path_4929" data-name="Path 4929" d="M3772.144-8010.888a2.437,2.437,0,0,0-2.434,2.434,2.438,2.438,0,0,0,2.434,2.435,2.438,2.438,0,0,0,2.435-2.435A2.437,2.437,0,0,0,3772.144-8010.888Z" transform="translate(78.576 26.192)" fill="#d1ccc1"/>
    <path id="Path_4930" data-name="Path 4930" d="M3761.461-8010.888a2.436,2.436,0,0,0-2.433,2.434,2.438,2.438,0,0,0,2.433,2.435,2.44,2.44,0,0,0,2.435-2.435A2.438,2.438,0,0,0,3761.461-8010.888Z" transform="translate(69.845 26.192)" fill="#d1ccc1"/>
    <path id="Path_4931" data-name="Path 4931" d="M3750.778-8010.888a2.437,2.437,0,0,0-2.434,2.434,2.438,2.438,0,0,0,2.434,2.435,2.438,2.438,0,0,0,2.433-2.435A2.436,2.436,0,0,0,3750.778-8010.888Z" transform="translate(61.115 26.192)" fill="#d1ccc1"/>
    <path id="Path_4932" data-name="Path 4932" d="M3825.562-8010.888a2.438,2.438,0,0,0-2.436,2.434,2.44,2.44,0,0,0,2.436,2.435,2.438,2.438,0,0,0,2.433-2.435A2.437,2.437,0,0,0,3825.562-8010.888Z" transform="translate(122.229 26.192)" fill="#d1ccc1"/>
    <path id="Path_4933" data-name="Path 4933" d="M3814.877-8010.888a2.436,2.436,0,0,0-2.433,2.434,2.438,2.438,0,0,0,2.433,2.435,2.44,2.44,0,0,0,2.435-2.435A2.438,2.438,0,0,0,3814.877-8010.888Z" transform="translate(113.498 26.192)" fill="#d1ccc1"/>
    <path id="Path_4934" data-name="Path 4934" d="M3932.392-8010.888a2.437,2.437,0,0,0-2.433,2.434,2.438,2.438,0,0,0,2.433,2.435,2.438,2.438,0,0,0,2.435-2.435A2.437,2.437,0,0,0,3932.392-8010.888Z" transform="translate(209.536 26.192)" fill="#d1ccc1"/>
    <path id="Path_4935" data-name="Path 4935" d="M3964.442-8010.888a2.437,2.437,0,0,0-2.433,2.434,2.438,2.438,0,0,0,2.433,2.435,2.44,2.44,0,0,0,2.436-2.435A2.438,2.438,0,0,0,3964.442-8010.888Z" transform="translate(235.728 26.192)" fill="#d1ccc1"/>
    <path id="Path_4936" data-name="Path 4936" d="M3804.194-8010.888a2.437,2.437,0,0,0-2.433,2.434,2.438,2.438,0,0,0,2.433,2.435,2.438,2.438,0,0,0,2.433-2.435A2.437,2.437,0,0,0,3804.194-8010.888Z" transform="translate(104.768 26.192)" fill="#d1ccc1"/>
    <path id="Path_4937" data-name="Path 4937" d="M3793.511-8010.888a2.437,2.437,0,0,0-2.434,2.434,2.438,2.438,0,0,0,2.434,2.435,2.438,2.438,0,0,0,2.434-2.435A2.437,2.437,0,0,0,3793.511-8010.888Z" transform="translate(96.038 26.192)" fill="#d1ccc1"/>
    <path id="Path_4938" data-name="Path 4938" d="M3782.828-8010.888a2.437,2.437,0,0,0-2.433,2.434,2.438,2.438,0,0,0,2.433,2.435,2.438,2.438,0,0,0,2.434-2.435A2.437,2.437,0,0,0,3782.828-8010.888Z" transform="translate(87.307 26.192)" fill="#d1ccc1"/>
    <path id="Path_4939" data-name="Path 4939" d="M3676-8021.569a2.434,2.434,0,0,0-2.433,2.431,2.437,2.437,0,0,0,2.433,2.434,2.437,2.437,0,0,0,2.433-2.434A2.434,2.434,0,0,0,3676-8021.569Z" transform="translate(0 17.462)" fill="#d1ccc1"/>
    <path id="Path_4940" data-name="Path 4940" d="M3740.095-8021.569a2.433,2.433,0,0,0-2.433,2.431,2.437,2.437,0,0,0,2.433,2.434,2.437,2.437,0,0,0,2.434-2.434A2.434,2.434,0,0,0,3740.095-8021.569Z" transform="translate(52.384 17.462)" fill="#d1ccc1"/>
    <path id="Path_4941" data-name="Path 4941" d="M3729.413-8021.569a2.434,2.434,0,0,0-2.434,2.431,2.437,2.437,0,0,0,2.434,2.434,2.437,2.437,0,0,0,2.433-2.434A2.433,2.433,0,0,0,3729.413-8021.569Z" transform="translate(43.653 17.462)" fill="#d1ccc1"/>
    <path id="Path_4942" data-name="Path 4942" d="M3718.73-8021.569a2.434,2.434,0,0,0-2.435,2.431,2.438,2.438,0,0,0,2.435,2.434,2.437,2.437,0,0,0,2.434-2.434A2.434,2.434,0,0,0,3718.73-8021.569Z" transform="translate(34.922 17.462)" fill="#d1ccc1"/>
    <path id="Path_4943" data-name="Path 4943" d="M3708.045-8021.569a2.434,2.434,0,0,0-2.433,2.431,2.437,2.437,0,0,0,2.433,2.434,2.439,2.439,0,0,0,2.436-2.434A2.435,2.435,0,0,0,3708.045-8021.569Z" transform="translate(26.192 17.462)" fill="#d1ccc1"/>
    <path id="Path_4954" data-name="Path 4954" d="M3697.364-8042.937a2.439,2.439,0,0,0-2.436,2.435,2.435,2.435,0,0,0,2.436,2.433,2.433,2.433,0,0,0,2.431-2.433A2.436,2.436,0,0,0,3697.364-8042.937Z" transform="translate(17.461 0)" fill="#d1ccc1"/>
    <path id="Path_4966" data-name="Path 4966" d="M3697.364-7978.838a2.438,2.438,0,0,0-2.436,2.434,2.437,2.437,0,0,0,2.436,2.433,2.435,2.435,0,0,0,2.431-2.433A2.436,2.436,0,0,0,3697.364-7978.838Z" transform="translate(17.461 52.385)" fill="#d1ccc1"/>
    <path id="Path_4967" data-name="Path 4967" d="M3697.364-7989.521a2.437,2.437,0,0,0-2.436,2.433,2.434,2.434,0,0,0,2.436,2.432,2.432,2.432,0,0,0,2.431-2.432A2.435,2.435,0,0,0,3697.364-7989.521Z" transform="translate(17.461 43.654)" fill="#d1ccc1"/>
    <path id="Path_4968" data-name="Path 4968" d="M3697.364-8000.2a2.437,2.437,0,0,0-2.436,2.434,2.438,2.438,0,0,0,2.436,2.434,2.436,2.436,0,0,0,2.431-2.434A2.434,2.434,0,0,0,3697.364-8000.2Z" transform="translate(17.461 34.923)" fill="#d1ccc1"/>
    <path id="Path_4969" data-name="Path 4969" d="M3697.364-8010.888a2.437,2.437,0,0,0-2.436,2.434,2.439,2.439,0,0,0,2.436,2.435,2.436,2.436,0,0,0,2.431-2.435A2.435,2.435,0,0,0,3697.364-8010.888Z" transform="translate(17.461 26.192)" fill="#d1ccc1"/>
    <path id="Path_4970" data-name="Path 4970" d="M3697.364-8021.569a2.434,2.434,0,0,0-2.436,2.431,2.438,2.438,0,0,0,2.436,2.434,2.436,2.436,0,0,0,2.431-2.434A2.432,2.432,0,0,0,3697.364-8021.569Z" transform="translate(17.461 17.462)" fill="#d1ccc1"/>
    <path id="Path_4971" data-name="Path 4971" d="M3846.927-8021.569a2.434,2.434,0,0,0-2.433,2.431,2.437,2.437,0,0,0,2.433,2.434,2.437,2.437,0,0,0,2.434-2.434A2.434,2.434,0,0,0,3846.927-8021.569Z" transform="translate(139.691 17.462)" fill="#d1ccc1"/>
    <path id="Path_4972" data-name="Path 4972" d="M3878.978-8021.569a2.435,2.435,0,0,0-2.436,2.431,2.439,2.439,0,0,0,2.436,2.434,2.437,2.437,0,0,0,2.433-2.434A2.433,2.433,0,0,0,3878.978-8021.569Z" transform="translate(165.883 17.462)" fill="#d1ccc1"/>
    <path id="Path_4973" data-name="Path 4973" d="M3857.611-8021.569a2.434,2.434,0,0,0-2.434,2.431,2.437,2.437,0,0,0,2.434,2.434,2.437,2.437,0,0,0,2.433-2.434A2.433,2.433,0,0,0,3857.611-8021.569Z" transform="translate(148.421 17.462)" fill="#d1ccc1"/>
    <path id="Path_4974" data-name="Path 4974" d="M3889.66-8021.569a2.433,2.433,0,0,0-2.433,2.431,2.437,2.437,0,0,0,2.433,2.434,2.437,2.437,0,0,0,2.434-2.434A2.434,2.434,0,0,0,3889.66-8021.569Z" transform="translate(174.614 17.462)" fill="#d1ccc1"/>
    <path id="Path_4975" data-name="Path 4975" d="M3900.344-8021.569a2.434,2.434,0,0,0-2.434,2.431,2.437,2.437,0,0,0,2.434,2.434,2.437,2.437,0,0,0,2.433-2.434A2.433,2.433,0,0,0,3900.344-8021.569Z" transform="translate(183.344 17.462)" fill="#d1ccc1"/>
    <path id="Path_4976" data-name="Path 4976" d="M3911.026-8021.569a2.434,2.434,0,0,0-2.433,2.431,2.437,2.437,0,0,0,2.433,2.434,2.437,2.437,0,0,0,2.434-2.434A2.434,2.434,0,0,0,3911.026-8021.569Z" transform="translate(192.075 17.462)" fill="#d1ccc1"/>
    <path id="Path_4977" data-name="Path 4977" d="M3921.709-8021.569a2.434,2.434,0,0,0-2.434,2.431,2.437,2.437,0,0,0,2.434,2.434,2.438,2.438,0,0,0,2.436-2.434A2.434,2.434,0,0,0,3921.709-8021.569Z" transform="translate(200.806 17.462)" fill="#d1ccc1"/>
    <path id="Path_4978" data-name="Path 4978" d="M3953.759-8021.569a2.434,2.434,0,0,0-2.434,2.431,2.437,2.437,0,0,0,2.434,2.434,2.437,2.437,0,0,0,2.433-2.434A2.434,2.434,0,0,0,3953.759-8021.569Z" transform="translate(226.998 17.462)" fill="#d1ccc1"/>
    <path id="Path_4979" data-name="Path 4979" d="M3943.074-8021.569a2.432,2.432,0,0,0-2.431,2.431,2.435,2.435,0,0,0,2.431,2.434,2.438,2.438,0,0,0,2.435-2.434A2.434,2.434,0,0,0,3943.074-8021.569Z" transform="translate(218.267 17.462)" fill="#d1ccc1"/>
    <path id="Path_4980" data-name="Path 4980" d="M3836.244-8021.569a2.434,2.434,0,0,0-2.433,2.431,2.437,2.437,0,0,0,2.433,2.434,2.437,2.437,0,0,0,2.434-2.434A2.434,2.434,0,0,0,3836.244-8021.569Z" transform="translate(130.961 17.462)" fill="#d1ccc1"/>
    <path id="Path_4981" data-name="Path 4981" d="M3868.293-8021.569a2.433,2.433,0,0,0-2.433,2.431,2.437,2.437,0,0,0,2.433,2.434,2.438,2.438,0,0,0,2.435-2.434A2.434,2.434,0,0,0,3868.293-8021.569Z" transform="translate(157.152 17.462)" fill="#d1ccc1"/>
    <path id="Path_4982" data-name="Path 4982" d="M3772.144-8021.569a2.434,2.434,0,0,0-2.434,2.431,2.437,2.437,0,0,0,2.434,2.434,2.437,2.437,0,0,0,2.435-2.434A2.434,2.434,0,0,0,3772.144-8021.569Z" transform="translate(78.576 17.462)" fill="#d1ccc1"/>
    <path id="Path_4983" data-name="Path 4983" d="M3761.461-8021.569a2.433,2.433,0,0,0-2.433,2.431,2.437,2.437,0,0,0,2.433,2.434,2.439,2.439,0,0,0,2.435-2.434A2.435,2.435,0,0,0,3761.461-8021.569Z" transform="translate(69.845 17.462)" fill="#d1ccc1"/>
    <path id="Path_4984" data-name="Path 4984" d="M3750.778-8021.569a2.434,2.434,0,0,0-2.434,2.431,2.437,2.437,0,0,0,2.434,2.434,2.437,2.437,0,0,0,2.433-2.434A2.433,2.433,0,0,0,3750.778-8021.569Z" transform="translate(61.115 17.462)" fill="#d1ccc1"/>
    <path id="Path_4985" data-name="Path 4985" d="M3825.562-8021.569a2.435,2.435,0,0,0-2.436,2.431,2.439,2.439,0,0,0,2.436,2.434,2.437,2.437,0,0,0,2.433-2.434A2.434,2.434,0,0,0,3825.562-8021.569Z" transform="translate(122.229 17.462)" fill="#d1ccc1"/>
    <path id="Path_4986" data-name="Path 4986" d="M3814.877-8021.569a2.433,2.433,0,0,0-2.433,2.431,2.437,2.437,0,0,0,2.433,2.434,2.439,2.439,0,0,0,2.435-2.434A2.435,2.435,0,0,0,3814.877-8021.569Z" transform="translate(113.498 17.462)" fill="#d1ccc1"/>
    <path id="Path_4987" data-name="Path 4987" d="M3932.392-8021.569a2.434,2.434,0,0,0-2.433,2.431,2.437,2.437,0,0,0,2.433,2.434,2.437,2.437,0,0,0,2.435-2.434A2.434,2.434,0,0,0,3932.392-8021.569Z" transform="translate(209.536 17.462)" fill="#d1ccc1"/>
    <path id="Path_4988" data-name="Path 4988" d="M3964.442-8021.569a2.434,2.434,0,0,0-2.433,2.431,2.437,2.437,0,0,0,2.433,2.434,2.439,2.439,0,0,0,2.436-2.434A2.435,2.435,0,0,0,3964.442-8021.569Z" transform="translate(235.728 17.462)" fill="#d1ccc1"/>
    <path id="Path_4989" data-name="Path 4989" d="M3804.194-8021.569a2.434,2.434,0,0,0-2.433,2.431,2.437,2.437,0,0,0,2.433,2.434,2.437,2.437,0,0,0,2.433-2.434A2.434,2.434,0,0,0,3804.194-8021.569Z" transform="translate(104.768 17.462)" fill="#d1ccc1"/>
    <path id="Path_4990" data-name="Path 4990" d="M3793.511-8021.569a2.434,2.434,0,0,0-2.434,2.431,2.437,2.437,0,0,0,2.434,2.434,2.437,2.437,0,0,0,2.434-2.434A2.434,2.434,0,0,0,3793.511-8021.569Z" transform="translate(96.038 17.462)" fill="#d1ccc1"/>
    <path id="Path_4991" data-name="Path 4991" d="M3782.828-8021.569a2.434,2.434,0,0,0-2.433,2.431,2.437,2.437,0,0,0,2.433,2.434,2.437,2.437,0,0,0,2.434-2.434A2.434,2.434,0,0,0,3782.828-8021.569Z" transform="translate(87.307 17.462)" fill="#d1ccc1"/>
    <path id="Path_4992" data-name="Path 4992" d="M3676-8032.254a2.437,2.437,0,0,0-2.433,2.434,2.436,2.436,0,0,0,2.433,2.433,2.436,2.436,0,0,0,2.433-2.433A2.437,2.437,0,0,0,3676-8032.254Z" transform="translate(0 8.731)" fill="#d1ccc1"/>
    <path id="Path_4993" data-name="Path 4993" d="M3740.095-8032.254a2.437,2.437,0,0,0-2.433,2.434,2.436,2.436,0,0,0,2.433,2.433,2.436,2.436,0,0,0,2.434-2.433A2.437,2.437,0,0,0,3740.095-8032.254Z" transform="translate(52.384 8.731)" fill="#d1ccc1"/>
    <path id="Path_4994" data-name="Path 4994" d="M3729.413-8032.254a2.437,2.437,0,0,0-2.434,2.434,2.436,2.436,0,0,0,2.434,2.433,2.436,2.436,0,0,0,2.433-2.433A2.437,2.437,0,0,0,3729.413-8032.254Z" transform="translate(43.653 8.731)" fill="#d1ccc1"/>
    <path id="Path_4995" data-name="Path 4995" d="M3718.73-8032.254a2.438,2.438,0,0,0-2.435,2.434,2.436,2.436,0,0,0,2.435,2.433,2.436,2.436,0,0,0,2.434-2.433A2.437,2.437,0,0,0,3718.73-8032.254Z" transform="translate(34.922 8.731)" fill="#d1ccc1"/>
    <path id="Path_4996" data-name="Path 4996" d="M3708.045-8032.254a2.437,2.437,0,0,0-2.433,2.434,2.436,2.436,0,0,0,2.433,2.433,2.438,2.438,0,0,0,2.436-2.433A2.439,2.439,0,0,0,3708.045-8032.254Z" transform="translate(26.192 8.731)" fill="#d1ccc1"/>
    <path id="Path_4997" data-name="Path 4997" d="M3697.364-8032.254a2.438,2.438,0,0,0-2.436,2.434,2.436,2.436,0,0,0,2.436,2.433,2.434,2.434,0,0,0,2.431-2.433A2.436,2.436,0,0,0,3697.364-8032.254Z" transform="translate(17.461 8.731)" fill="#d1ccc1"/>
    <path id="Path_5008" data-name="Path 5008" d="M3686.679-8042.937a2.438,2.438,0,0,0-2.433,2.435,2.434,2.434,0,0,0,2.433,2.433,2.435,2.435,0,0,0,2.433-2.433A2.438,2.438,0,0,0,3686.679-8042.937Z" transform="translate(8.731 0)" fill="#d1ccc1"/>
    <path id="Path_5020" data-name="Path 5020" d="M3686.679-7978.838a2.437,2.437,0,0,0-2.433,2.434,2.436,2.436,0,0,0,2.433,2.433,2.436,2.436,0,0,0,2.433-2.433A2.437,2.437,0,0,0,3686.679-7978.838Z" transform="translate(8.731 52.385)" fill="#d1ccc1"/>
    <path id="Path_5021" data-name="Path 5021" d="M3686.679-7989.521a2.436,2.436,0,0,0-2.433,2.433,2.433,2.433,0,0,0,2.433,2.432,2.434,2.434,0,0,0,2.433-2.432A2.436,2.436,0,0,0,3686.679-7989.521Z" transform="translate(8.731 43.654)" fill="#d1ccc1"/>
    <path id="Path_5022" data-name="Path 5022" d="M3686.679-8000.2a2.436,2.436,0,0,0-2.433,2.434,2.437,2.437,0,0,0,2.433,2.434,2.437,2.437,0,0,0,2.433-2.434A2.436,2.436,0,0,0,3686.679-8000.2Z" transform="translate(8.731 34.923)" fill="#d1ccc1"/>
    <path id="Path_5023" data-name="Path 5023" d="M3686.679-8010.888a2.436,2.436,0,0,0-2.433,2.434,2.438,2.438,0,0,0,2.433,2.435,2.438,2.438,0,0,0,2.433-2.435A2.437,2.437,0,0,0,3686.679-8010.888Z" transform="translate(8.731 26.192)" fill="#d1ccc1"/>
    <path id="Path_5024" data-name="Path 5024" d="M3686.679-8021.569a2.433,2.433,0,0,0-2.433,2.431,2.437,2.437,0,0,0,2.433,2.434,2.437,2.437,0,0,0,2.433-2.434A2.434,2.434,0,0,0,3686.679-8021.569Z" transform="translate(8.731 17.462)" fill="#d1ccc1"/>
    <path id="Path_5025" data-name="Path 5025" d="M3686.679-8032.254a2.437,2.437,0,0,0-2.433,2.434,2.436,2.436,0,0,0,2.433,2.433,2.436,2.436,0,0,0,2.433-2.433A2.437,2.437,0,0,0,3686.679-8032.254Z" transform="translate(8.731 8.731)" fill="#d1ccc1"/>
    <path id="Path_5026" data-name="Path 5026" d="M3846.927-8032.254a2.437,2.437,0,0,0-2.433,2.434,2.436,2.436,0,0,0,2.433,2.433,2.436,2.436,0,0,0,2.434-2.433A2.437,2.437,0,0,0,3846.927-8032.254Z" transform="translate(139.691 8.731)" fill="#d1ccc1"/>
    <path id="Path_5027" data-name="Path 5027" d="M3878.978-8032.254a2.439,2.439,0,0,0-2.436,2.434,2.438,2.438,0,0,0,2.436,2.433,2.436,2.436,0,0,0,2.433-2.433A2.437,2.437,0,0,0,3878.978-8032.254Z" transform="translate(165.883 8.731)" fill="#d1ccc1"/>
    <path id="Path_5028" data-name="Path 5028" d="M3857.611-8032.254a2.437,2.437,0,0,0-2.434,2.434,2.436,2.436,0,0,0,2.434,2.433,2.436,2.436,0,0,0,2.433-2.433A2.437,2.437,0,0,0,3857.611-8032.254Z" transform="translate(148.421 8.731)" fill="#d1ccc1"/>
    <path id="Path_5029" data-name="Path 5029" d="M3889.66-8032.254a2.437,2.437,0,0,0-2.433,2.434,2.436,2.436,0,0,0,2.433,2.433,2.436,2.436,0,0,0,2.434-2.433A2.437,2.437,0,0,0,3889.66-8032.254Z" transform="translate(174.614 8.731)" fill="#d1ccc1"/>
    <path id="Path_5030" data-name="Path 5030" d="M3900.344-8032.254a2.437,2.437,0,0,0-2.434,2.434,2.436,2.436,0,0,0,2.434,2.433,2.435,2.435,0,0,0,2.433-2.433A2.437,2.437,0,0,0,3900.344-8032.254Z" transform="translate(183.344 8.731)" fill="#d1ccc1"/>
    <path id="Path_5031" data-name="Path 5031" d="M3911.026-8032.254a2.437,2.437,0,0,0-2.433,2.434,2.436,2.436,0,0,0,2.433,2.433,2.436,2.436,0,0,0,2.434-2.433A2.437,2.437,0,0,0,3911.026-8032.254Z" transform="translate(192.075 8.731)" fill="#d1ccc1"/>
    <path id="Path_5032" data-name="Path 5032" d="M3921.709-8032.254a2.437,2.437,0,0,0-2.434,2.434,2.436,2.436,0,0,0,2.434,2.433,2.436,2.436,0,0,0,2.436-2.433A2.438,2.438,0,0,0,3921.709-8032.254Z" transform="translate(200.806 8.731)" fill="#d1ccc1"/>
    <path id="Path_5033" data-name="Path 5033" d="M3953.759-8032.254a2.437,2.437,0,0,0-2.434,2.434,2.436,2.436,0,0,0,2.434,2.433,2.436,2.436,0,0,0,2.433-2.433A2.437,2.437,0,0,0,3953.759-8032.254Z" transform="translate(226.998 8.731)" fill="#d1ccc1"/>
    <path id="Path_5034" data-name="Path 5034" d="M3943.074-8032.254a2.435,2.435,0,0,0-2.431,2.434,2.434,2.434,0,0,0,2.431,2.433,2.436,2.436,0,0,0,2.435-2.433A2.438,2.438,0,0,0,3943.074-8032.254Z" transform="translate(218.267 8.731)" fill="#d1ccc1"/>
    <path id="Path_5035" data-name="Path 5035" d="M3836.244-8032.254a2.437,2.437,0,0,0-2.433,2.434,2.436,2.436,0,0,0,2.433,2.433,2.436,2.436,0,0,0,2.434-2.433A2.437,2.437,0,0,0,3836.244-8032.254Z" transform="translate(130.961 8.731)" fill="#d1ccc1"/>
    <path id="Path_5036" data-name="Path 5036" d="M3868.293-8032.254a2.437,2.437,0,0,0-2.433,2.434,2.436,2.436,0,0,0,2.433,2.433,2.436,2.436,0,0,0,2.435-2.433A2.438,2.438,0,0,0,3868.293-8032.254Z" transform="translate(157.152 8.731)" fill="#d1ccc1"/>
    <path id="Path_5037" data-name="Path 5037" d="M3772.144-8032.254a2.437,2.437,0,0,0-2.434,2.434,2.436,2.436,0,0,0,2.434,2.433,2.436,2.436,0,0,0,2.435-2.433A2.437,2.437,0,0,0,3772.144-8032.254Z" transform="translate(78.576 8.731)" fill="#d1ccc1"/>
    <path id="Path_5038" data-name="Path 5038" d="M3761.461-8032.254a2.437,2.437,0,0,0-2.433,2.434,2.436,2.436,0,0,0,2.433,2.433,2.438,2.438,0,0,0,2.435-2.433A2.439,2.439,0,0,0,3761.461-8032.254Z" transform="translate(69.845 8.731)" fill="#d1ccc1"/>
    <path id="Path_5039" data-name="Path 5039" d="M3750.778-8032.254a2.437,2.437,0,0,0-2.434,2.434,2.436,2.436,0,0,0,2.434,2.433,2.436,2.436,0,0,0,2.433-2.433A2.437,2.437,0,0,0,3750.778-8032.254Z" transform="translate(61.115 8.731)" fill="#d1ccc1"/>
    <path id="Path_5040" data-name="Path 5040" d="M3825.562-8032.254a2.439,2.439,0,0,0-2.436,2.434,2.438,2.438,0,0,0,2.436,2.433,2.436,2.436,0,0,0,2.433-2.433A2.437,2.437,0,0,0,3825.562-8032.254Z" transform="translate(122.229 8.731)" fill="#d1ccc1"/>
    <path id="Path_5041" data-name="Path 5041" d="M3814.877-8032.254a2.437,2.437,0,0,0-2.433,2.434,2.436,2.436,0,0,0,2.433,2.433,2.438,2.438,0,0,0,2.435-2.433A2.439,2.439,0,0,0,3814.877-8032.254Z" transform="translate(113.498 8.731)" fill="#d1ccc1"/>
    <path id="Path_5042" data-name="Path 5042" d="M3932.392-8032.254a2.437,2.437,0,0,0-2.433,2.434,2.436,2.436,0,0,0,2.433,2.433,2.436,2.436,0,0,0,2.435-2.433A2.437,2.437,0,0,0,3932.392-8032.254Z" transform="translate(209.536 8.731)" fill="#d1ccc1"/>
    <path id="Path_5043" data-name="Path 5043" d="M3964.442-8032.254a2.437,2.437,0,0,0-2.433,2.434,2.436,2.436,0,0,0,2.433,2.433,2.438,2.438,0,0,0,2.436-2.433A2.439,2.439,0,0,0,3964.442-8032.254Z" transform="translate(235.728 8.731)" fill="#d1ccc1"/>
    <path id="Path_5044" data-name="Path 5044" d="M3804.194-8032.254a2.437,2.437,0,0,0-2.433,2.434,2.436,2.436,0,0,0,2.433,2.433,2.436,2.436,0,0,0,2.433-2.433A2.437,2.437,0,0,0,3804.194-8032.254Z" transform="translate(104.768 8.731)" fill="#d1ccc1"/>
    <path id="Path_5045" data-name="Path 5045" d="M3793.511-8032.254a2.437,2.437,0,0,0-2.434,2.434,2.436,2.436,0,0,0,2.434,2.433,2.436,2.436,0,0,0,2.434-2.433A2.437,2.437,0,0,0,3793.511-8032.254Z" transform="translate(96.038 8.731)" fill="#d1ccc1"/>
    <path id="Path_5046" data-name="Path 5046" d="M3782.828-8032.254a2.437,2.437,0,0,0-2.433,2.434,2.436,2.436,0,0,0,2.433,2.433,2.436,2.436,0,0,0,2.434-2.433A2.437,2.437,0,0,0,3782.828-8032.254Z" transform="translate(87.307 8.731)" fill="#d1ccc1"/>
    <path id="Path_5052" data-name="Path 5052" d="M3932.392-7936.1a2.436,2.436,0,0,0-2.433,2.433,2.434,2.434,0,0,0,2.433,2.432,2.434,2.434,0,0,0,2.435-2.432A2.437,2.437,0,0,0,3932.392-7936.1Z" transform="translate(209.536 87.307)" fill="#d1ccc1"/>
    <path id="Path_5053" data-name="Path 5053" d="M3964.442-7936.1a2.436,2.436,0,0,0-2.433,2.433,2.434,2.434,0,0,0,2.433,2.432,2.436,2.436,0,0,0,2.436-2.432A2.438,2.438,0,0,0,3964.442-7936.1Z" transform="translate(235.728 87.307)" fill="#d1ccc1"/>
    <path id="Path_5060" data-name="Path 5060" d="M3932.392-7925.422a2.437,2.437,0,0,0-2.433,2.434,2.436,2.436,0,0,0,2.433,2.433,2.437,2.437,0,0,0,2.435-2.433A2.437,2.437,0,0,0,3932.392-7925.422Z" transform="translate(209.536 96.038)" fill="#d1ccc1"/>
    <path id="Path_5061" data-name="Path 5061" d="M3964.442-7925.422a2.437,2.437,0,0,0-2.433,2.434,2.436,2.436,0,0,0,2.433,2.433,2.438,2.438,0,0,0,2.436-2.433A2.439,2.439,0,0,0,3964.442-7925.422Z" transform="translate(235.728 96.038)" fill="#d1ccc1"/>
    <path id="Path_5064" data-name="Path 5064" d="M3932.392-7914.737a2.435,2.435,0,0,0-2.433,2.433,2.436,2.436,0,0,0,2.433,2.432,2.436,2.436,0,0,0,2.435-2.432A2.435,2.435,0,0,0,3932.392-7914.737Z" transform="translate(209.536 104.769)" fill="#d1ccc1"/>
    <path id="Path_5065" data-name="Path 5065" d="M3964.442-7914.737a2.435,2.435,0,0,0-2.433,2.433,2.436,2.436,0,0,0,2.433,2.432,2.437,2.437,0,0,0,2.436-2.432A2.437,2.437,0,0,0,3964.442-7914.737Z" transform="translate(235.728 104.769)" fill="#d1ccc1"/>
  </g>
</svg>
