<svg xmlns="http://www.w3.org/2000/svg" width="630.391" height="630.392" viewBox="0 0 630.391 630.392">
  <g id="Group_1301" data-name="Group 1301" transform="translate(-3673.563 8042.938)">
    <path id="Path_5266" data-name="Path 5266" d="M3676.463-7754.49a2.9,2.9,0,0,0-2.9,2.9,2.9,2.9,0,0,0,2.9,2.9,2.9,2.9,0,0,0,2.9-2.9A2.9,2.9,0,0,0,3676.463-7754.49Z" transform="translate(0 336.147)" fill="#d1ccc1"/>
    <path id="Path_5274" data-name="Path 5274" d="M3676.463-7765.174a2.9,2.9,0,0,0-2.9,2.9,2.9,2.9,0,0,0,2.9,2.9,2.9,2.9,0,0,0,2.9-2.9A2.9,2.9,0,0,0,3676.463-7765.174Z" transform="translate(0 323.697)" fill="#d1ccc1"/>
    <path id="Path_5282" data-name="Path 5282" d="M3676.463-7786.542a2.907,2.907,0,0,0-2.9,2.9,2.9,2.9,0,0,0,2.9,2.9,2.9,2.9,0,0,0,2.9-2.9A2.906,2.906,0,0,0,3676.463-7786.542Z" transform="translate(0 298.797)" fill="#d1ccc1"/>
    <path id="Path_5290" data-name="Path 5290" d="M3676.463-7818.59a2.9,2.9,0,0,0-2.9,2.9,2.9,2.9,0,0,0,2.9,2.9,2.9,2.9,0,0,0,2.9-2.9A2.9,2.9,0,0,0,3676.463-7818.59Z" transform="translate(0 261.447)" fill="#d1ccc1"/>
    <path id="Path_5298" data-name="Path 5298" d="M3676.463-7829.273a2.9,2.9,0,0,0-2.9,2.9,2.9,2.9,0,0,0,2.9,2.9,2.9,2.9,0,0,0,2.9-2.9A2.9,2.9,0,0,0,3676.463-7829.273Z" transform="translate(0 248.998)" fill="#d1ccc1"/>
    <path id="Path_5306" data-name="Path 5306" d="M3676.463-7850.64a2.9,2.9,0,0,0-2.9,2.9,2.9,2.9,0,0,0,2.9,2.9,2.9,2.9,0,0,0,2.9-2.9A2.9,2.9,0,0,0,3676.463-7850.64Z" transform="translate(0 224.096)" fill="#d1ccc1"/>
    <path id="Path_5314" data-name="Path 5314" d="M3676.463-7861.322a2.9,2.9,0,0,0-2.9,2.9,2.9,2.9,0,0,0,2.9,2.9,2.9,2.9,0,0,0,2.9-2.9A2.9,2.9,0,0,0,3676.463-7861.322Z" transform="translate(0 211.649)" fill="#d1ccc1"/>
    <path id="Path_5322" data-name="Path 5322" d="M3676.463-7872.006a2.9,2.9,0,0,0-2.9,2.9,2.9,2.9,0,0,0,2.9,2.9,2.9,2.9,0,0,0,2.9-2.9A2.9,2.9,0,0,0,3676.463-7872.006Z" transform="translate(0 199.198)" fill="#d1ccc1"/>
    <path id="Path_5330" data-name="Path 5330" d="M3676.463-7882.688a2.9,2.9,0,0,0-2.9,2.9,2.9,2.9,0,0,0,2.9,2.9,2.9,2.9,0,0,0,2.9-2.9A2.9,2.9,0,0,0,3676.463-7882.688Z" transform="translate(0 186.748)" fill="#d1ccc1"/>
    <path id="Path_5338" data-name="Path 5338" d="M3676.463-7893.372a2.9,2.9,0,0,0-2.9,2.9,2.9,2.9,0,0,0,2.9,2.9,2.9,2.9,0,0,0,2.9-2.9A2.9,2.9,0,0,0,3676.463-7893.372Z" transform="translate(0 174.298)" fill="#d1ccc1"/>
    <path id="Path_5346" data-name="Path 5346" d="M3676.463-8042.938a2.907,2.907,0,0,0-2.9,2.9,2.9,2.9,0,0,0,2.9,2.9,2.9,2.9,0,0,0,2.9-2.9A2.906,2.906,0,0,0,3676.463-8042.938Z" transform="translate(0 0)" fill="#d1ccc1"/>
    <path id="Path_5357" data-name="Path 5357" d="M3847.394-8042.938a2.907,2.907,0,0,0-2.9,2.9,2.9,2.9,0,0,0,2.9,2.9,2.9,2.9,0,0,0,2.9-2.9A2.906,2.906,0,0,0,3847.394-8042.938Z" transform="translate(199.197 0)" fill="#d1ccc1"/>
    <path id="Path_5358" data-name="Path 5358" d="M3879.444-8042.938a2.908,2.908,0,0,0-2.9,2.9,2.9,2.9,0,0,0,2.9,2.9,2.9,2.9,0,0,0,2.9-2.9A2.906,2.906,0,0,0,3879.444-8042.938Z" transform="translate(236.546 0)" fill="#d1ccc1"/>
    <path id="Path_5369" data-name="Path 5369" d="M3858.077-8042.938a2.906,2.906,0,0,0-2.9,2.9,2.9,2.9,0,0,0,2.9,2.9,2.9,2.9,0,0,0,2.9-2.9A2.906,2.906,0,0,0,3858.077-8042.938Z" transform="translate(211.646 0)" fill="#d1ccc1"/>
    <path id="Path_5370" data-name="Path 5370" d="M3890.126-8042.938a2.906,2.906,0,0,0-2.9,2.9,2.9,2.9,0,0,0,2.9,2.9,2.9,2.9,0,0,0,2.9-2.9A2.906,2.906,0,0,0,3890.126-8042.938Z" transform="translate(248.996 0)" fill="#d1ccc1"/>
    <path id="Path_5371" data-name="Path 5371" d="M3900.81-8042.938a2.906,2.906,0,0,0-2.9,2.9,2.9,2.9,0,0,0,2.9,2.9,2.9,2.9,0,0,0,2.9-2.9A2.906,2.906,0,0,0,3900.81-8042.938Z" transform="translate(261.446 0)" fill="#d1ccc1"/>
    <path id="Path_5372" data-name="Path 5372" d="M3911.492-8042.938a2.907,2.907,0,0,0-2.9,2.9,2.9,2.9,0,0,0,2.9,2.9,2.9,2.9,0,0,0,2.9-2.9A2.906,2.906,0,0,0,3911.492-8042.938Z" transform="translate(273.896 0)" fill="#d1ccc1"/>
    <path id="Path_5373" data-name="Path 5373" d="M3922.176-8042.938a2.907,2.907,0,0,0-2.9,2.9,2.9,2.9,0,0,0,2.9,2.9,2.9,2.9,0,0,0,2.9-2.9A2.907,2.907,0,0,0,3922.176-8042.938Z" transform="translate(286.345 0)" fill="#d1ccc1"/>
    <path id="Path_5374" data-name="Path 5374" d="M3954.225-8042.938a2.906,2.906,0,0,0-2.9,2.9,2.9,2.9,0,0,0,2.9,2.9,2.9,2.9,0,0,0,2.9-2.9A2.906,2.906,0,0,0,3954.225-8042.938Z" transform="translate(323.695 0)" fill="#d1ccc1"/>
    <path id="Path_5385" data-name="Path 5385" d="M3943.54-8042.938a2.9,2.9,0,0,0-2.9,2.9,2.9,2.9,0,0,0,2.9,2.9,2.9,2.9,0,0,0,2.9-2.9A2.907,2.907,0,0,0,3943.54-8042.938Z" transform="translate(311.245 0)" fill="#d1ccc1"/>
    <path id="Path_5389" data-name="Path 5389" d="M3676.463-7797.223a2.9,2.9,0,0,0-2.9,2.9,2.9,2.9,0,0,0,2.9,2.9,2.9,2.9,0,0,0,2.9-2.9A2.9,2.9,0,0,0,3676.463-7797.223Z" transform="translate(0 286.345)" fill="#d1ccc1"/>
    <path id="Path_5404" data-name="Path 5404" d="M3676.463-7839.957a2.9,2.9,0,0,0-2.9,2.9,2.9,2.9,0,0,0,2.9,2.9,2.9,2.9,0,0,0,2.9-2.9A2.9,2.9,0,0,0,3676.463-7839.957Z" transform="translate(0 236.548)" fill="#d1ccc1"/>
    <path id="Path_5415" data-name="Path 5415" d="M3836.71-8042.938a2.907,2.907,0,0,0-2.9,2.9,2.9,2.9,0,0,0,2.9,2.9,2.9,2.9,0,0,0,2.9-2.9A2.906,2.906,0,0,0,3836.71-8042.938Z" transform="translate(186.747 0)" fill="#d1ccc1"/>
    <path id="Path_5436" data-name="Path 5436" d="M3868.759-8042.938a2.906,2.906,0,0,0-2.9,2.9,2.9,2.9,0,0,0,2.9,2.9,2.9,2.9,0,0,0,2.9-2.9A2.907,2.907,0,0,0,3868.759-8042.938Z" transform="translate(224.096 0)" fill="#d1ccc1"/>
    <path id="Path_5438" data-name="Path 5438" d="M3676.463-7807.9a2.9,2.9,0,0,0-2.9,2.9,2.9,2.9,0,0,0,2.9,2.9,2.9,2.9,0,0,0,2.9-2.9A2.9,2.9,0,0,0,3676.463-7807.9Z" transform="translate(0 273.897)" fill="#d1ccc1"/>
    <path id="Path_5441" data-name="Path 5441" d="M3676.463-7775.858a2.9,2.9,0,0,0-2.9,2.9,2.9,2.9,0,0,0,2.9,2.9,2.9,2.9,0,0,0,2.9-2.9A2.9,2.9,0,0,0,3676.463-7775.858Z" transform="translate(0 311.248)" fill="#d1ccc1"/>
    <path id="Path_5464" data-name="Path 5464" d="M3772.611-8042.938a2.907,2.907,0,0,0-2.9,2.9,2.9,2.9,0,0,0,2.9,2.9,2.9,2.9,0,0,0,2.9-2.9A2.906,2.906,0,0,0,3772.611-8042.938Z" transform="translate(112.047 0)" fill="#d1ccc1"/>
    <path id="Path_5479" data-name="Path 5479" d="M3826.029-8042.938a2.908,2.908,0,0,0-2.9,2.9,2.9,2.9,0,0,0,2.9,2.9,2.9,2.9,0,0,0,2.9-2.9A2.906,2.906,0,0,0,3826.029-8042.938Z" transform="translate(174.296 0)" fill="#d1ccc1"/>
    <path id="Path_5504" data-name="Path 5504" d="M3676.463-7904.057a2.9,2.9,0,0,0-2.9,2.9,2.907,2.907,0,0,0,2.9,2.9,2.906,2.906,0,0,0,2.9-2.9A2.9,2.9,0,0,0,3676.463-7904.057Z" transform="translate(0 161.848)" fill="#d1ccc1"/>
    <path id="Path_5520" data-name="Path 5520" d="M3932.859-8042.938a2.907,2.907,0,0,0-2.9,2.9,2.9,2.9,0,0,0,2.9,2.9,2.9,2.9,0,0,0,2.9-2.9A2.907,2.907,0,0,0,3932.859-8042.938Z" transform="translate(298.795 0)" fill="#d1ccc1"/>
    <path id="Path_5521" data-name="Path 5521" d="M3964.908-8037.138a2.9,2.9,0,0,0,2.9-2.9,2.908,2.908,0,0,0-2.9-2.9,2.906,2.906,0,0,0-2.9,2.9A2.9,2.9,0,0,0,3964.908-8037.138Z" transform="translate(336.145 0)" fill="#d1ccc1"/>
    <path id="Path_5522" data-name="Path 5522" d="M3676.463-7946.789a2.9,2.9,0,0,0-2.9,2.9,2.9,2.9,0,0,0,2.9,2.9,2.9,2.9,0,0,0,2.9-2.9A2.9,2.9,0,0,0,3676.463-7946.789Z" transform="translate(0 112.048)" fill="#d1ccc1"/>
    <path id="Path_5547" data-name="Path 5547" d="M3815.343-8042.938a2.906,2.906,0,0,0-2.9,2.9,2.9,2.9,0,0,0,2.9,2.9,2.9,2.9,0,0,0,2.9-2.9A2.908,2.908,0,0,0,3815.343-8042.938Z" transform="translate(161.847 0)" fill="#d1ccc1"/>
    <path id="Path_5555" data-name="Path 5555" d="M3676.463-7914.738a2.9,2.9,0,0,0-2.9,2.9,2.9,2.9,0,0,0,2.9,2.9,2.9,2.9,0,0,0,2.9-2.9A2.9,2.9,0,0,0,3676.463-7914.738Z" transform="translate(0 149.4)" fill="#d1ccc1"/>
    <path id="Path_5581" data-name="Path 5581" d="M3804.661-8042.938a2.906,2.906,0,0,0-2.9,2.9,2.9,2.9,0,0,0,2.9,2.9,2.9,2.9,0,0,0,2.9-2.9A2.907,2.907,0,0,0,3804.661-8042.938Z" transform="translate(149.397 0)" fill="#d1ccc1"/>
    <path id="Path_5587" data-name="Path 5587" d="M3676.463-7925.422a2.9,2.9,0,0,0-2.9,2.9,2.9,2.9,0,0,0,2.9,2.9,2.9,2.9,0,0,0,2.9-2.9A2.9,2.9,0,0,0,3676.463-7925.422Z" transform="translate(0 136.95)" fill="#d1ccc1"/>
    <path id="Path_5611" data-name="Path 5611" d="M3793.977-8042.938a2.906,2.906,0,0,0-2.9,2.9,2.9,2.9,0,0,0,2.9,2.9,2.9,2.9,0,0,0,2.9-2.9A2.907,2.907,0,0,0,3793.977-8042.938Z" transform="translate(136.948 0)" fill="#d1ccc1"/>
    <path id="Path_5617" data-name="Path 5617" d="M3676.463-7936.105a2.9,2.9,0,0,0-2.9,2.9,2.9,2.9,0,0,0,2.9,2.9,2.9,2.9,0,0,0,2.9-2.9A2.9,2.9,0,0,0,3676.463-7936.105Z" transform="translate(0 124.5)" fill="#d1ccc1"/>
    <path id="Path_5641" data-name="Path 5641" d="M3783.294-8042.938a2.906,2.906,0,0,0-2.9,2.9,2.9,2.9,0,0,0,2.9,2.9,2.9,2.9,0,0,0,2.9-2.9A2.906,2.906,0,0,0,3783.294-8042.938Z" transform="translate(124.498 0)" fill="#d1ccc1"/>
    <path id="Path_5647" data-name="Path 5647" d="M3676.463-7957.471a2.9,2.9,0,0,0-2.9,2.9,2.906,2.906,0,0,0,2.9,2.9,2.905,2.905,0,0,0,2.9-2.9A2.9,2.9,0,0,0,3676.463-7957.471Z" transform="translate(0 99.598)" fill="#d1ccc1"/>
    <path id="Path_5671" data-name="Path 5671" d="M3761.927-8042.938a2.906,2.906,0,0,0-2.9,2.9,2.9,2.9,0,0,0,2.9,2.9,2.9,2.9,0,0,0,2.9-2.9A2.908,2.908,0,0,0,3761.927-8042.938Z" transform="translate(99.598 0)" fill="#d1ccc1"/>
    <path id="Path_5688" data-name="Path 5688" d="M3676.463-7968.154a2.9,2.9,0,0,0-2.9,2.9,2.9,2.9,0,0,0,2.9,2.9,2.9,2.9,0,0,0,2.9-2.9A2.9,2.9,0,0,0,3676.463-7968.154Z" transform="translate(0 87.151)" fill="#d1ccc1"/>
    <path id="Path_5713" data-name="Path 5713" d="M3751.245-8042.938a2.906,2.906,0,0,0-2.9,2.9,2.9,2.9,0,0,0,2.9,2.9,2.9,2.9,0,0,0,2.9-2.9A2.906,2.906,0,0,0,3751.245-8042.938Z" transform="translate(87.148 0)" fill="#d1ccc1"/>
    <path id="Path_5731" data-name="Path 5731" d="M3676.463-7978.838a2.9,2.9,0,0,0-2.9,2.9,2.9,2.9,0,0,0,2.9,2.9,2.9,2.9,0,0,0,2.9-2.9A2.9,2.9,0,0,0,3676.463-7978.838Z" transform="translate(0 74.7)" fill="#d1ccc1"/>
    <path id="Path_5732" data-name="Path 5732" d="M3740.561-7754.49a2.9,2.9,0,0,0-2.9,2.9,2.9,2.9,0,0,0,2.9,2.9,2.9,2.9,0,0,0,2.9-2.9A2.9,2.9,0,0,0,3740.561-7754.49Z" transform="translate(74.699 336.147)" fill="#d1ccc1"/>
    <path id="Path_5733" data-name="Path 5733" d="M3740.561-7765.174a2.9,2.9,0,0,0-2.9,2.9,2.9,2.9,0,0,0,2.9,2.9,2.9,2.9,0,0,0,2.9-2.9A2.9,2.9,0,0,0,3740.561-7765.174Z" transform="translate(74.699 323.697)" fill="#d1ccc1"/>
    <path id="Path_5734" data-name="Path 5734" d="M3740.561-7786.542a2.906,2.906,0,0,0-2.9,2.9,2.9,2.9,0,0,0,2.9,2.9,2.9,2.9,0,0,0,2.9-2.9A2.906,2.906,0,0,0,3740.561-7786.542Z" transform="translate(74.699 298.797)" fill="#d1ccc1"/>
    <path id="Path_5735" data-name="Path 5735" d="M3740.561-7818.59a2.9,2.9,0,0,0-2.9,2.9,2.9,2.9,0,0,0,2.9,2.9,2.9,2.9,0,0,0,2.9-2.9A2.9,2.9,0,0,0,3740.561-7818.59Z" transform="translate(74.699 261.447)" fill="#d1ccc1"/>
    <path id="Path_5736" data-name="Path 5736" d="M3740.561-7829.273a2.9,2.9,0,0,0-2.9,2.9,2.9,2.9,0,0,0,2.9,2.9,2.9,2.9,0,0,0,2.9-2.9A2.9,2.9,0,0,0,3740.561-7829.273Z" transform="translate(74.699 248.998)" fill="#d1ccc1"/>
    <path id="Path_5737" data-name="Path 5737" d="M3740.561-7850.64a2.9,2.9,0,0,0-2.9,2.9,2.9,2.9,0,0,0,2.9,2.9,2.9,2.9,0,0,0,2.9-2.9A2.9,2.9,0,0,0,3740.561-7850.64Z" transform="translate(74.699 224.096)" fill="#d1ccc1"/>
    <path id="Path_5738" data-name="Path 5738" d="M3740.561-7861.322a2.9,2.9,0,0,0-2.9,2.9,2.9,2.9,0,0,0,2.9,2.9,2.9,2.9,0,0,0,2.9-2.9A2.9,2.9,0,0,0,3740.561-7861.322Z" transform="translate(74.699 211.649)" fill="#d1ccc1"/>
    <path id="Path_5739" data-name="Path 5739" d="M3740.561-7872.006a2.9,2.9,0,0,0-2.9,2.9,2.9,2.9,0,0,0,2.9,2.9,2.9,2.9,0,0,0,2.9-2.9A2.9,2.9,0,0,0,3740.561-7872.006Z" transform="translate(74.699 199.198)" fill="#d1ccc1"/>
    <path id="Path_5740" data-name="Path 5740" d="M3740.561-7882.688a2.9,2.9,0,0,0-2.9,2.9,2.9,2.9,0,0,0,2.9,2.9,2.9,2.9,0,0,0,2.9-2.9A2.9,2.9,0,0,0,3740.561-7882.688Z" transform="translate(74.699 186.748)" fill="#d1ccc1"/>
    <path id="Path_5741" data-name="Path 5741" d="M3740.561-7893.372a2.9,2.9,0,0,0-2.9,2.9,2.9,2.9,0,0,0,2.9,2.9,2.9,2.9,0,0,0,2.9-2.9A2.9,2.9,0,0,0,3740.561-7893.372Z" transform="translate(74.699 174.298)" fill="#d1ccc1"/>
    <path id="Path_5742" data-name="Path 5742" d="M3740.561-8042.938a2.906,2.906,0,0,0-2.9,2.9,2.9,2.9,0,0,0,2.9,2.9,2.9,2.9,0,0,0,2.9-2.9A2.906,2.906,0,0,0,3740.561-8042.938Z" transform="translate(74.699 0)" fill="#d1ccc1"/>
    <path id="Path_5743" data-name="Path 5743" d="M3740.561-7797.223a2.9,2.9,0,0,0-2.9,2.9,2.9,2.9,0,0,0,2.9,2.9,2.9,2.9,0,0,0,2.9-2.9A2.9,2.9,0,0,0,3740.561-7797.223Z" transform="translate(74.699 286.345)" fill="#d1ccc1"/>
    <path id="Path_5744" data-name="Path 5744" d="M3740.561-7839.957a2.9,2.9,0,0,0-2.9,2.9,2.9,2.9,0,0,0,2.9,2.9,2.9,2.9,0,0,0,2.9-2.9A2.9,2.9,0,0,0,3740.561-7839.957Z" transform="translate(74.699 236.548)" fill="#d1ccc1"/>
    <path id="Path_5745" data-name="Path 5745" d="M3740.561-7807.9a2.9,2.9,0,0,0-2.9,2.9,2.9,2.9,0,0,0,2.9,2.9,2.9,2.9,0,0,0,2.9-2.9A2.9,2.9,0,0,0,3740.561-7807.9Z" transform="translate(74.699 273.897)" fill="#d1ccc1"/>
    <path id="Path_5746" data-name="Path 5746" d="M3740.561-7775.858a2.9,2.9,0,0,0-2.9,2.9,2.9,2.9,0,0,0,2.9,2.9,2.9,2.9,0,0,0,2.9-2.9A2.9,2.9,0,0,0,3740.561-7775.858Z" transform="translate(74.699 311.248)" fill="#d1ccc1"/>
    <path id="Path_5747" data-name="Path 5747" d="M3740.561-7904.057a2.9,2.9,0,0,0-2.9,2.9,2.906,2.906,0,0,0,2.9,2.9,2.906,2.906,0,0,0,2.9-2.9A2.9,2.9,0,0,0,3740.561-7904.057Z" transform="translate(74.699 161.848)" fill="#d1ccc1"/>
    <path id="Path_5748" data-name="Path 5748" d="M3740.561-7946.789a2.9,2.9,0,0,0-2.9,2.9,2.9,2.9,0,0,0,2.9,2.9,2.9,2.9,0,0,0,2.9-2.9A2.9,2.9,0,0,0,3740.561-7946.789Z" transform="translate(74.699 112.048)" fill="#d1ccc1"/>
    <path id="Path_5749" data-name="Path 5749" d="M3740.561-7914.738a2.9,2.9,0,0,0-2.9,2.9,2.9,2.9,0,0,0,2.9,2.9,2.9,2.9,0,0,0,2.9-2.9A2.9,2.9,0,0,0,3740.561-7914.738Z" transform="translate(74.699 149.4)" fill="#d1ccc1"/>
    <path id="Path_5750" data-name="Path 5750" d="M3740.561-7925.422a2.9,2.9,0,0,0-2.9,2.9,2.9,2.9,0,0,0,2.9,2.9,2.9,2.9,0,0,0,2.9-2.9A2.9,2.9,0,0,0,3740.561-7925.422Z" transform="translate(74.699 136.95)" fill="#d1ccc1"/>
    <path id="Path_5751" data-name="Path 5751" d="M3740.561-7936.105a2.9,2.9,0,0,0-2.9,2.9,2.9,2.9,0,0,0,2.9,2.9,2.9,2.9,0,0,0,2.9-2.9A2.9,2.9,0,0,0,3740.561-7936.105Z" transform="translate(74.699 124.5)" fill="#d1ccc1"/>
    <path id="Path_5752" data-name="Path 5752" d="M3740.561-7957.471a2.9,2.9,0,0,0-2.9,2.9,2.905,2.905,0,0,0,2.9,2.9,2.905,2.905,0,0,0,2.9-2.9A2.9,2.9,0,0,0,3740.561-7957.471Z" transform="translate(74.699 99.598)" fill="#d1ccc1"/>
    <path id="Path_5753" data-name="Path 5753" d="M3740.561-7968.154a2.9,2.9,0,0,0-2.9,2.9,2.9,2.9,0,0,0,2.9,2.9,2.9,2.9,0,0,0,2.9-2.9A2.9,2.9,0,0,0,3740.561-7968.154Z" transform="translate(74.699 87.151)" fill="#d1ccc1"/>
    <path id="Path_5754" data-name="Path 5754" d="M3740.561-7978.838a2.9,2.9,0,0,0-2.9,2.9,2.9,2.9,0,0,0,2.9,2.9,2.9,2.9,0,0,0,2.9-2.9A2.9,2.9,0,0,0,3740.561-7978.838Z" transform="translate(74.699 74.7)" fill="#d1ccc1"/>
    <path id="Path_5776" data-name="Path 5776" d="M3676.463-7989.521a2.9,2.9,0,0,0-2.9,2.9,2.9,2.9,0,0,0,2.9,2.9,2.9,2.9,0,0,0,2.9-2.9A2.9,2.9,0,0,0,3676.463-7989.521Z" transform="translate(0 62.25)" fill="#d1ccc1"/>
    <path id="Path_5777" data-name="Path 5777" d="M3740.561-7989.521a2.9,2.9,0,0,0-2.9,2.9,2.9,2.9,0,0,0,2.9,2.9,2.9,2.9,0,0,0,2.9-2.9A2.9,2.9,0,0,0,3740.561-7989.521Z" transform="translate(74.699 62.25)" fill="#d1ccc1"/>
    <path id="Path_5778" data-name="Path 5778" d="M3729.879-7754.49a2.9,2.9,0,0,0-2.9,2.9,2.9,2.9,0,0,0,2.9,2.9,2.9,2.9,0,0,0,2.9-2.9A2.9,2.9,0,0,0,3729.879-7754.49Z" transform="translate(62.249 336.147)" fill="#d1ccc1"/>
    <path id="Path_5779" data-name="Path 5779" d="M3729.879-7765.174a2.9,2.9,0,0,0-2.9,2.9,2.9,2.9,0,0,0,2.9,2.9,2.9,2.9,0,0,0,2.9-2.9A2.9,2.9,0,0,0,3729.879-7765.174Z" transform="translate(62.249 323.697)" fill="#d1ccc1"/>
    <path id="Path_5780" data-name="Path 5780" d="M3729.879-7786.542a2.906,2.906,0,0,0-2.9,2.9,2.9,2.9,0,0,0,2.9,2.9,2.9,2.9,0,0,0,2.9-2.9A2.907,2.907,0,0,0,3729.879-7786.542Z" transform="translate(62.249 298.797)" fill="#d1ccc1"/>
    <path id="Path_5781" data-name="Path 5781" d="M3729.879-7818.59a2.9,2.9,0,0,0-2.9,2.9,2.9,2.9,0,0,0,2.9,2.9,2.9,2.9,0,0,0,2.9-2.9A2.9,2.9,0,0,0,3729.879-7818.59Z" transform="translate(62.249 261.447)" fill="#d1ccc1"/>
    <path id="Path_5782" data-name="Path 5782" d="M3729.879-7829.273a2.9,2.9,0,0,0-2.9,2.9,2.9,2.9,0,0,0,2.9,2.9,2.9,2.9,0,0,0,2.9-2.9A2.9,2.9,0,0,0,3729.879-7829.273Z" transform="translate(62.249 248.998)" fill="#d1ccc1"/>
    <path id="Path_5783" data-name="Path 5783" d="M3729.879-7850.64a2.9,2.9,0,0,0-2.9,2.9,2.9,2.9,0,0,0,2.9,2.9,2.9,2.9,0,0,0,2.9-2.9A2.9,2.9,0,0,0,3729.879-7850.64Z" transform="translate(62.249 224.096)" fill="#d1ccc1"/>
    <path id="Path_5784" data-name="Path 5784" d="M3729.879-7861.322a2.9,2.9,0,0,0-2.9,2.9,2.9,2.9,0,0,0,2.9,2.9,2.9,2.9,0,0,0,2.9-2.9A2.9,2.9,0,0,0,3729.879-7861.322Z" transform="translate(62.249 211.649)" fill="#d1ccc1"/>
    <path id="Path_5785" data-name="Path 5785" d="M3729.879-7872.006a2.9,2.9,0,0,0-2.9,2.9,2.9,2.9,0,0,0,2.9,2.9,2.9,2.9,0,0,0,2.9-2.9A2.9,2.9,0,0,0,3729.879-7872.006Z" transform="translate(62.249 199.198)" fill="#d1ccc1"/>
    <path id="Path_5786" data-name="Path 5786" d="M3729.879-7882.688a2.9,2.9,0,0,0-2.9,2.9,2.9,2.9,0,0,0,2.9,2.9,2.9,2.9,0,0,0,2.9-2.9A2.9,2.9,0,0,0,3729.879-7882.688Z" transform="translate(62.249 186.748)" fill="#d1ccc1"/>
    <path id="Path_5787" data-name="Path 5787" d="M3729.879-7893.372a2.9,2.9,0,0,0-2.9,2.9,2.9,2.9,0,0,0,2.9,2.9,2.9,2.9,0,0,0,2.9-2.9A2.9,2.9,0,0,0,3729.879-7893.372Z" transform="translate(62.249 174.298)" fill="#d1ccc1"/>
    <path id="Path_5788" data-name="Path 5788" d="M3729.879-8042.938a2.906,2.906,0,0,0-2.9,2.9,2.9,2.9,0,0,0,2.9,2.9,2.9,2.9,0,0,0,2.9-2.9A2.907,2.907,0,0,0,3729.879-8042.938Z" transform="translate(62.249 0)" fill="#d1ccc1"/>
    <path id="Path_5789" data-name="Path 5789" d="M3729.879-7797.223a2.9,2.9,0,0,0-2.9,2.9,2.9,2.9,0,0,0,2.9,2.9,2.9,2.9,0,0,0,2.9-2.9A2.9,2.9,0,0,0,3729.879-7797.223Z" transform="translate(62.249 286.345)" fill="#d1ccc1"/>
    <path id="Path_5790" data-name="Path 5790" d="M3729.879-7839.957a2.9,2.9,0,0,0-2.9,2.9,2.9,2.9,0,0,0,2.9,2.9,2.9,2.9,0,0,0,2.9-2.9A2.9,2.9,0,0,0,3729.879-7839.957Z" transform="translate(62.249 236.548)" fill="#d1ccc1"/>
    <path id="Path_5791" data-name="Path 5791" d="M3729.879-7807.9a2.9,2.9,0,0,0-2.9,2.9,2.9,2.9,0,0,0,2.9,2.9,2.9,2.9,0,0,0,2.9-2.9A2.9,2.9,0,0,0,3729.879-7807.9Z" transform="translate(62.249 273.897)" fill="#d1ccc1"/>
    <path id="Path_5792" data-name="Path 5792" d="M3729.879-7775.858a2.9,2.9,0,0,0-2.9,2.9,2.9,2.9,0,0,0,2.9,2.9,2.9,2.9,0,0,0,2.9-2.9A2.9,2.9,0,0,0,3729.879-7775.858Z" transform="translate(62.249 311.248)" fill="#d1ccc1"/>
    <path id="Path_5793" data-name="Path 5793" d="M3729.879-7904.057a2.9,2.9,0,0,0-2.9,2.9,2.906,2.906,0,0,0,2.9,2.9,2.907,2.907,0,0,0,2.9-2.9A2.9,2.9,0,0,0,3729.879-7904.057Z" transform="translate(62.249 161.848)" fill="#d1ccc1"/>
    <path id="Path_5794" data-name="Path 5794" d="M3729.879-7946.789a2.9,2.9,0,0,0-2.9,2.9,2.9,2.9,0,0,0,2.9,2.9,2.9,2.9,0,0,0,2.9-2.9A2.9,2.9,0,0,0,3729.879-7946.789Z" transform="translate(62.249 112.048)" fill="#d1ccc1"/>
    <path id="Path_5795" data-name="Path 5795" d="M3729.879-7914.738a2.9,2.9,0,0,0-2.9,2.9,2.9,2.9,0,0,0,2.9,2.9,2.9,2.9,0,0,0,2.9-2.9A2.9,2.9,0,0,0,3729.879-7914.738Z" transform="translate(62.249 149.4)" fill="#d1ccc1"/>
    <path id="Path_5796" data-name="Path 5796" d="M3729.879-7925.422a2.9,2.9,0,0,0-2.9,2.9,2.9,2.9,0,0,0,2.9,2.9,2.9,2.9,0,0,0,2.9-2.9A2.9,2.9,0,0,0,3729.879-7925.422Z" transform="translate(62.249 136.95)" fill="#d1ccc1"/>
    <path id="Path_5797" data-name="Path 5797" d="M3729.879-7936.105a2.9,2.9,0,0,0-2.9,2.9,2.9,2.9,0,0,0,2.9,2.9,2.9,2.9,0,0,0,2.9-2.9A2.9,2.9,0,0,0,3729.879-7936.105Z" transform="translate(62.249 124.5)" fill="#d1ccc1"/>
    <path id="Path_5798" data-name="Path 5798" d="M3729.879-7957.471a2.9,2.9,0,0,0-2.9,2.9,2.905,2.905,0,0,0,2.9,2.9,2.906,2.906,0,0,0,2.9-2.9A2.9,2.9,0,0,0,3729.879-7957.471Z" transform="translate(62.249 99.598)" fill="#d1ccc1"/>
    <path id="Path_5799" data-name="Path 5799" d="M3729.879-7968.154a2.9,2.9,0,0,0-2.9,2.9,2.9,2.9,0,0,0,2.9,2.9,2.9,2.9,0,0,0,2.9-2.9A2.9,2.9,0,0,0,3729.879-7968.154Z" transform="translate(62.249 87.151)" fill="#d1ccc1"/>
    <path id="Path_5800" data-name="Path 5800" d="M3729.879-7978.838a2.9,2.9,0,0,0-2.9,2.9,2.9,2.9,0,0,0,2.9,2.9,2.9,2.9,0,0,0,2.9-2.9A2.9,2.9,0,0,0,3729.879-7978.838Z" transform="translate(62.249 74.7)" fill="#d1ccc1"/>
    <path id="Path_5801" data-name="Path 5801" d="M3729.879-7989.521a2.9,2.9,0,0,0-2.9,2.9,2.9,2.9,0,0,0,2.9,2.9,2.9,2.9,0,0,0,2.9-2.9A2.9,2.9,0,0,0,3729.879-7989.521Z" transform="translate(62.249 62.25)" fill="#d1ccc1"/>
    <path id="Path_5823" data-name="Path 5823" d="M3676.463-8000.2a2.9,2.9,0,0,0-2.9,2.9,2.9,2.9,0,0,0,2.9,2.9,2.9,2.9,0,0,0,2.9-2.9A2.9,2.9,0,0,0,3676.463-8000.2Z" transform="translate(0 49.801)" fill="#d1ccc1"/>
    <path id="Path_5824" data-name="Path 5824" d="M3740.561-8000.2a2.9,2.9,0,0,0-2.9,2.9,2.9,2.9,0,0,0,2.9,2.9,2.9,2.9,0,0,0,2.9-2.9A2.9,2.9,0,0,0,3740.561-8000.2Z" transform="translate(74.699 49.801)" fill="#d1ccc1"/>
    <path id="Path_5825" data-name="Path 5825" d="M3729.879-8000.2a2.9,2.9,0,0,0-2.9,2.9,2.9,2.9,0,0,0,2.9,2.9,2.9,2.9,0,0,0,2.9-2.9A2.9,2.9,0,0,0,3729.879-8000.2Z" transform="translate(62.249 49.801)" fill="#d1ccc1"/>
    <path id="Path_5826" data-name="Path 5826" d="M3719.2-7754.49a2.9,2.9,0,0,0-2.9,2.9,2.9,2.9,0,0,0,2.9,2.9,2.9,2.9,0,0,0,2.9-2.9A2.9,2.9,0,0,0,3719.2-7754.49Z" transform="translate(49.798 336.147)" fill="#d1ccc1"/>
    <path id="Path_5827" data-name="Path 5827" d="M3719.2-7765.174a2.9,2.9,0,0,0-2.9,2.9,2.9,2.9,0,0,0,2.9,2.9,2.9,2.9,0,0,0,2.9-2.9A2.9,2.9,0,0,0,3719.2-7765.174Z" transform="translate(49.798 323.697)" fill="#d1ccc1"/>
    <path id="Path_5828" data-name="Path 5828" d="M3719.2-7786.542a2.907,2.907,0,0,0-2.9,2.9,2.9,2.9,0,0,0,2.9,2.9,2.9,2.9,0,0,0,2.9-2.9A2.907,2.907,0,0,0,3719.2-7786.542Z" transform="translate(49.798 298.797)" fill="#d1ccc1"/>
    <path id="Path_5829" data-name="Path 5829" d="M3719.2-7818.59a2.9,2.9,0,0,0-2.9,2.9,2.9,2.9,0,0,0,2.9,2.9,2.9,2.9,0,0,0,2.9-2.9A2.9,2.9,0,0,0,3719.2-7818.59Z" transform="translate(49.798 261.447)" fill="#d1ccc1"/>
    <path id="Path_5830" data-name="Path 5830" d="M3719.2-7829.273a2.9,2.9,0,0,0-2.9,2.9,2.9,2.9,0,0,0,2.9,2.9,2.9,2.9,0,0,0,2.9-2.9A2.9,2.9,0,0,0,3719.2-7829.273Z" transform="translate(49.798 248.998)" fill="#d1ccc1"/>
    <path id="Path_5831" data-name="Path 5831" d="M3719.2-7850.64a2.9,2.9,0,0,0-2.9,2.9,2.9,2.9,0,0,0,2.9,2.9,2.9,2.9,0,0,0,2.9-2.9A2.9,2.9,0,0,0,3719.2-7850.64Z" transform="translate(49.798 224.096)" fill="#d1ccc1"/>
    <path id="Path_5832" data-name="Path 5832" d="M3719.2-7861.322a2.9,2.9,0,0,0-2.9,2.9,2.9,2.9,0,0,0,2.9,2.9,2.9,2.9,0,0,0,2.9-2.9A2.9,2.9,0,0,0,3719.2-7861.322Z" transform="translate(49.798 211.649)" fill="#d1ccc1"/>
    <path id="Path_5833" data-name="Path 5833" d="M3719.2-7872.006a2.9,2.9,0,0,0-2.9,2.9,2.9,2.9,0,0,0,2.9,2.9,2.9,2.9,0,0,0,2.9-2.9A2.9,2.9,0,0,0,3719.2-7872.006Z" transform="translate(49.798 199.198)" fill="#d1ccc1"/>
    <path id="Path_5834" data-name="Path 5834" d="M3719.2-7882.688a2.9,2.9,0,0,0-2.9,2.9,2.9,2.9,0,0,0,2.9,2.9,2.9,2.9,0,0,0,2.9-2.9A2.9,2.9,0,0,0,3719.2-7882.688Z" transform="translate(49.798 186.748)" fill="#d1ccc1"/>
    <path id="Path_5835" data-name="Path 5835" d="M3719.2-7893.372a2.9,2.9,0,0,0-2.9,2.9,2.9,2.9,0,0,0,2.9,2.9,2.9,2.9,0,0,0,2.9-2.9A2.9,2.9,0,0,0,3719.2-7893.372Z" transform="translate(49.798 174.298)" fill="#d1ccc1"/>
    <path id="Path_5836" data-name="Path 5836" d="M3719.2-8042.938a2.907,2.907,0,0,0-2.9,2.9,2.9,2.9,0,0,0,2.9,2.9,2.9,2.9,0,0,0,2.9-2.9A2.907,2.907,0,0,0,3719.2-8042.938Z" transform="translate(49.798 0)" fill="#d1ccc1"/>
    <path id="Path_5837" data-name="Path 5837" d="M3719.2-7797.223a2.9,2.9,0,0,0-2.9,2.9,2.9,2.9,0,0,0,2.9,2.9,2.9,2.9,0,0,0,2.9-2.9A2.9,2.9,0,0,0,3719.2-7797.223Z" transform="translate(49.798 286.345)" fill="#d1ccc1"/>
    <path id="Path_5838" data-name="Path 5838" d="M3719.2-7839.957a2.9,2.9,0,0,0-2.9,2.9,2.9,2.9,0,0,0,2.9,2.9,2.9,2.9,0,0,0,2.9-2.9A2.9,2.9,0,0,0,3719.2-7839.957Z" transform="translate(49.798 236.548)" fill="#d1ccc1"/>
    <path id="Path_5839" data-name="Path 5839" d="M3719.2-7807.9a2.9,2.9,0,0,0-2.9,2.9,2.9,2.9,0,0,0,2.9,2.9,2.9,2.9,0,0,0,2.9-2.9A2.9,2.9,0,0,0,3719.2-7807.9Z" transform="translate(49.798 273.897)" fill="#d1ccc1"/>
    <path id="Path_5840" data-name="Path 5840" d="M3719.2-7775.858a2.9,2.9,0,0,0-2.9,2.9,2.9,2.9,0,0,0,2.9,2.9,2.9,2.9,0,0,0,2.9-2.9A2.9,2.9,0,0,0,3719.2-7775.858Z" transform="translate(49.798 311.248)" fill="#d1ccc1"/>
    <path id="Path_5841" data-name="Path 5841" d="M3719.2-7904.057a2.9,2.9,0,0,0-2.9,2.9,2.907,2.907,0,0,0,2.9,2.9,2.907,2.907,0,0,0,2.9-2.9A2.9,2.9,0,0,0,3719.2-7904.057Z" transform="translate(49.798 161.848)" fill="#d1ccc1"/>
    <path id="Path_5842" data-name="Path 5842" d="M3719.2-7946.789a2.9,2.9,0,0,0-2.9,2.9,2.9,2.9,0,0,0,2.9,2.9,2.9,2.9,0,0,0,2.9-2.9A2.9,2.9,0,0,0,3719.2-7946.789Z" transform="translate(49.798 112.048)" fill="#d1ccc1"/>
    <path id="Path_5843" data-name="Path 5843" d="M3719.2-7914.738a2.9,2.9,0,0,0-2.9,2.9,2.9,2.9,0,0,0,2.9,2.9,2.9,2.9,0,0,0,2.9-2.9A2.9,2.9,0,0,0,3719.2-7914.738Z" transform="translate(49.798 149.4)" fill="#d1ccc1"/>
    <path id="Path_5844" data-name="Path 5844" d="M3719.2-7925.422a2.9,2.9,0,0,0-2.9,2.9,2.9,2.9,0,0,0,2.9,2.9,2.9,2.9,0,0,0,2.9-2.9A2.9,2.9,0,0,0,3719.2-7925.422Z" transform="translate(49.798 136.95)" fill="#d1ccc1"/>
    <path id="Path_5845" data-name="Path 5845" d="M3719.2-7936.105a2.9,2.9,0,0,0-2.9,2.9,2.9,2.9,0,0,0,2.9,2.9,2.9,2.9,0,0,0,2.9-2.9A2.9,2.9,0,0,0,3719.2-7936.105Z" transform="translate(49.798 124.5)" fill="#d1ccc1"/>
    <path id="Path_5846" data-name="Path 5846" d="M3719.2-7957.471a2.9,2.9,0,0,0-2.9,2.9,2.906,2.906,0,0,0,2.9,2.9,2.906,2.906,0,0,0,2.9-2.9A2.9,2.9,0,0,0,3719.2-7957.471Z" transform="translate(49.798 99.598)" fill="#d1ccc1"/>
    <path id="Path_5847" data-name="Path 5847" d="M3719.2-7968.154a2.9,2.9,0,0,0-2.9,2.9,2.9,2.9,0,0,0,2.9,2.9,2.9,2.9,0,0,0,2.9-2.9A2.9,2.9,0,0,0,3719.2-7968.154Z" transform="translate(49.798 87.151)" fill="#d1ccc1"/>
    <path id="Path_5848" data-name="Path 5848" d="M3719.2-7978.838a2.9,2.9,0,0,0-2.9,2.9,2.9,2.9,0,0,0,2.9,2.9,2.9,2.9,0,0,0,2.9-2.9A2.9,2.9,0,0,0,3719.2-7978.838Z" transform="translate(49.798 74.7)" fill="#d1ccc1"/>
    <path id="Path_5849" data-name="Path 5849" d="M3719.2-7989.521a2.9,2.9,0,0,0-2.9,2.9,2.9,2.9,0,0,0,2.9,2.9,2.9,2.9,0,0,0,2.9-2.9A2.9,2.9,0,0,0,3719.2-7989.521Z" transform="translate(49.798 62.25)" fill="#d1ccc1"/>
    <path id="Path_5850" data-name="Path 5850" d="M3719.2-8000.2a2.9,2.9,0,0,0-2.9,2.9,2.9,2.9,0,0,0,2.9,2.9,2.9,2.9,0,0,0,2.9-2.9A2.9,2.9,0,0,0,3719.2-8000.2Z" transform="translate(49.798 49.801)" fill="#d1ccc1"/>
    <path id="Path_5872" data-name="Path 5872" d="M3676.463-8010.889a2.905,2.905,0,0,0-2.9,2.9,2.906,2.906,0,0,0,2.9,2.9,2.905,2.905,0,0,0,2.9-2.9A2.9,2.9,0,0,0,3676.463-8010.889Z" transform="translate(0 37.35)" fill="#d1ccc1"/>
    <path id="Path_5873" data-name="Path 5873" d="M3740.561-8010.889a2.9,2.9,0,0,0-2.9,2.9,2.9,2.9,0,0,0,2.9,2.9,2.905,2.905,0,0,0,2.9-2.9A2.9,2.9,0,0,0,3740.561-8010.889Z" transform="translate(74.699 37.35)" fill="#d1ccc1"/>
    <path id="Path_5874" data-name="Path 5874" d="M3729.879-8010.889a2.9,2.9,0,0,0-2.9,2.9,2.905,2.905,0,0,0,2.9,2.9,2.906,2.906,0,0,0,2.9-2.9A2.905,2.905,0,0,0,3729.879-8010.889Z" transform="translate(62.249 37.35)" fill="#d1ccc1"/>
    <path id="Path_5875" data-name="Path 5875" d="M3719.2-8010.889a2.905,2.905,0,0,0-2.9,2.9,2.906,2.906,0,0,0,2.9,2.9,2.906,2.906,0,0,0,2.9-2.9A2.905,2.905,0,0,0,3719.2-8010.889Z" transform="translate(49.798 37.35)" fill="#d1ccc1"/>
    <path id="Path_5876" data-name="Path 5876" d="M3708.511-7754.49a2.9,2.9,0,0,0-2.9,2.9,2.9,2.9,0,0,0,2.9,2.9,2.906,2.906,0,0,0,2.9-2.9A2.9,2.9,0,0,0,3708.511-7754.49Z" transform="translate(37.349 336.147)" fill="#d1ccc1"/>
    <path id="Path_5877" data-name="Path 5877" d="M3708.511-7765.174a2.9,2.9,0,0,0-2.9,2.9,2.9,2.9,0,0,0,2.9,2.9,2.906,2.906,0,0,0,2.9-2.9A2.905,2.905,0,0,0,3708.511-7765.174Z" transform="translate(37.349 323.697)" fill="#d1ccc1"/>
    <path id="Path_5878" data-name="Path 5878" d="M3708.511-7786.542a2.906,2.906,0,0,0-2.9,2.9,2.9,2.9,0,0,0,2.9,2.9,2.906,2.906,0,0,0,2.9-2.9A2.908,2.908,0,0,0,3708.511-7786.542Z" transform="translate(37.349 298.797)" fill="#d1ccc1"/>
    <path id="Path_5879" data-name="Path 5879" d="M3708.511-7818.59a2.9,2.9,0,0,0-2.9,2.9,2.9,2.9,0,0,0,2.9,2.9,2.906,2.906,0,0,0,2.9-2.9A2.9,2.9,0,0,0,3708.511-7818.59Z" transform="translate(37.349 261.447)" fill="#d1ccc1"/>
    <path id="Path_5880" data-name="Path 5880" d="M3708.511-7829.273a2.9,2.9,0,0,0-2.9,2.9,2.9,2.9,0,0,0,2.9,2.9,2.9,2.9,0,0,0,2.9-2.9A2.9,2.9,0,0,0,3708.511-7829.273Z" transform="translate(37.349 248.998)" fill="#d1ccc1"/>
    <path id="Path_5881" data-name="Path 5881" d="M3708.511-7850.64a2.9,2.9,0,0,0-2.9,2.9,2.9,2.9,0,0,0,2.9,2.9,2.9,2.9,0,0,0,2.9-2.9A2.906,2.906,0,0,0,3708.511-7850.64Z" transform="translate(37.349 224.096)" fill="#d1ccc1"/>
    <path id="Path_5882" data-name="Path 5882" d="M3708.511-7861.322a2.9,2.9,0,0,0-2.9,2.9,2.9,2.9,0,0,0,2.9,2.9,2.9,2.9,0,0,0,2.9-2.9A2.9,2.9,0,0,0,3708.511-7861.322Z" transform="translate(37.349 211.649)" fill="#d1ccc1"/>
    <path id="Path_5883" data-name="Path 5883" d="M3708.511-7872.006a2.9,2.9,0,0,0-2.9,2.9,2.9,2.9,0,0,0,2.9,2.9,2.9,2.9,0,0,0,2.9-2.9A2.906,2.906,0,0,0,3708.511-7872.006Z" transform="translate(37.349 199.198)" fill="#d1ccc1"/>
    <path id="Path_5884" data-name="Path 5884" d="M3708.511-7882.688a2.9,2.9,0,0,0-2.9,2.9,2.9,2.9,0,0,0,2.9,2.9,2.9,2.9,0,0,0,2.9-2.9A2.906,2.906,0,0,0,3708.511-7882.688Z" transform="translate(37.349 186.748)" fill="#d1ccc1"/>
    <path id="Path_5885" data-name="Path 5885" d="M3708.511-7893.372a2.9,2.9,0,0,0-2.9,2.9,2.9,2.9,0,0,0,2.9,2.9,2.906,2.906,0,0,0,2.9-2.9A2.906,2.906,0,0,0,3708.511-7893.372Z" transform="translate(37.349 174.298)" fill="#d1ccc1"/>
    <path id="Path_5886" data-name="Path 5886" d="M3708.511-8042.938a2.906,2.906,0,0,0-2.9,2.9,2.9,2.9,0,0,0,2.9,2.9,2.9,2.9,0,0,0,2.9-2.9A2.908,2.908,0,0,0,3708.511-8042.938Z" transform="translate(37.349 0)" fill="#d1ccc1"/>
    <path id="Path_5887" data-name="Path 5887" d="M3708.511-7797.223a2.9,2.9,0,0,0-2.9,2.9,2.9,2.9,0,0,0,2.9,2.9,2.906,2.906,0,0,0,2.9-2.9A2.905,2.905,0,0,0,3708.511-7797.223Z" transform="translate(37.349 286.345)" fill="#d1ccc1"/>
    <path id="Path_5888" data-name="Path 5888" d="M3708.511-7839.957a2.9,2.9,0,0,0-2.9,2.9,2.9,2.9,0,0,0,2.9,2.9,2.906,2.906,0,0,0,2.9-2.9A2.905,2.905,0,0,0,3708.511-7839.957Z" transform="translate(37.349 236.548)" fill="#d1ccc1"/>
    <path id="Path_5889" data-name="Path 5889" d="M3708.511-7807.9a2.9,2.9,0,0,0-2.9,2.9,2.9,2.9,0,0,0,2.9,2.9,2.906,2.906,0,0,0,2.9-2.9A2.9,2.9,0,0,0,3708.511-7807.9Z" transform="translate(37.349 273.897)" fill="#d1ccc1"/>
    <path id="Path_5890" data-name="Path 5890" d="M3708.511-7775.858a2.9,2.9,0,0,0-2.9,2.9,2.9,2.9,0,0,0,2.9,2.9,2.9,2.9,0,0,0,2.9-2.9A2.906,2.906,0,0,0,3708.511-7775.858Z" transform="translate(37.349 311.248)" fill="#d1ccc1"/>
    <path id="Path_5891" data-name="Path 5891" d="M3708.511-7904.057a2.9,2.9,0,0,0-2.9,2.9,2.906,2.906,0,0,0,2.9,2.9,2.908,2.908,0,0,0,2.9-2.9A2.906,2.906,0,0,0,3708.511-7904.057Z" transform="translate(37.349 161.848)" fill="#d1ccc1"/>
    <path id="Path_5892" data-name="Path 5892" d="M3708.511-7946.789a2.9,2.9,0,0,0-2.9,2.9,2.9,2.9,0,0,0,2.9,2.9,2.906,2.906,0,0,0,2.9-2.9A2.906,2.906,0,0,0,3708.511-7946.789Z" transform="translate(37.349 112.048)" fill="#d1ccc1"/>
    <path id="Path_5893" data-name="Path 5893" d="M3708.511-7914.738a2.9,2.9,0,0,0-2.9,2.9,2.9,2.9,0,0,0,2.9,2.9,2.9,2.9,0,0,0,2.9-2.9A2.9,2.9,0,0,0,3708.511-7914.738Z" transform="translate(37.349 149.4)" fill="#d1ccc1"/>
    <path id="Path_5894" data-name="Path 5894" d="M3708.511-7925.422a2.9,2.9,0,0,0-2.9,2.9,2.9,2.9,0,0,0,2.9,2.9,2.906,2.906,0,0,0,2.9-2.9A2.906,2.906,0,0,0,3708.511-7925.422Z" transform="translate(37.349 136.95)" fill="#d1ccc1"/>
    <path id="Path_5895" data-name="Path 5895" d="M3708.511-7936.105a2.9,2.9,0,0,0-2.9,2.9,2.9,2.9,0,0,0,2.9,2.9,2.9,2.9,0,0,0,2.9-2.9A2.906,2.906,0,0,0,3708.511-7936.105Z" transform="translate(37.349 124.5)" fill="#d1ccc1"/>
    <path id="Path_5896" data-name="Path 5896" d="M3708.511-7957.471a2.9,2.9,0,0,0-2.9,2.9,2.905,2.905,0,0,0,2.9,2.9,2.907,2.907,0,0,0,2.9-2.9A2.905,2.905,0,0,0,3708.511-7957.471Z" transform="translate(37.349 99.598)" fill="#d1ccc1"/>
    <path id="Path_5897" data-name="Path 5897" d="M3708.511-7968.154a2.9,2.9,0,0,0-2.9,2.9,2.9,2.9,0,0,0,2.9,2.9,2.906,2.906,0,0,0,2.9-2.9A2.9,2.9,0,0,0,3708.511-7968.154Z" transform="translate(37.349 87.151)" fill="#d1ccc1"/>
    <path id="Path_5898" data-name="Path 5898" d="M3708.511-7978.838a2.9,2.9,0,0,0-2.9,2.9,2.9,2.9,0,0,0,2.9,2.9,2.906,2.906,0,0,0,2.9-2.9A2.9,2.9,0,0,0,3708.511-7978.838Z" transform="translate(37.349 74.7)" fill="#d1ccc1"/>
    <path id="Path_5899" data-name="Path 5899" d="M3708.511-7989.521a2.9,2.9,0,0,0-2.9,2.9,2.9,2.9,0,0,0,2.9,2.9,2.9,2.9,0,0,0,2.9-2.9A2.9,2.9,0,0,0,3708.511-7989.521Z" transform="translate(37.349 62.25)" fill="#d1ccc1"/>
    <path id="Path_5900" data-name="Path 5900" d="M3708.511-8000.2a2.9,2.9,0,0,0-2.9,2.9,2.9,2.9,0,0,0,2.9,2.9,2.905,2.905,0,0,0,2.9-2.9A2.9,2.9,0,0,0,3708.511-8000.2Z" transform="translate(37.349 49.801)" fill="#d1ccc1"/>
    <path id="Path_5901" data-name="Path 5901" d="M3708.511-8010.889a2.9,2.9,0,0,0-2.9,2.9,2.9,2.9,0,0,0,2.9,2.9,2.907,2.907,0,0,0,2.9-2.9A2.907,2.907,0,0,0,3708.511-8010.889Z" transform="translate(37.349 37.35)" fill="#d1ccc1"/>
    <path id="Path_5902" data-name="Path 5902" d="M3847.394-8010.889a2.905,2.905,0,0,0-2.9,2.9,2.906,2.906,0,0,0,2.9,2.9,2.905,2.905,0,0,0,2.9-2.9A2.9,2.9,0,0,0,3847.394-8010.889Z" transform="translate(199.197 37.35)" fill="#d1ccc1"/>
    <path id="Path_5903" data-name="Path 5903" d="M3879.444-8010.889a2.906,2.906,0,0,0-2.9,2.9,2.907,2.907,0,0,0,2.9,2.9,2.905,2.905,0,0,0,2.9-2.9A2.9,2.9,0,0,0,3879.444-8010.889Z" transform="translate(236.546 37.35)" fill="#d1ccc1"/>
    <path id="Path_5904" data-name="Path 5904" d="M3858.077-8010.889a2.9,2.9,0,0,0-2.9,2.9,2.905,2.905,0,0,0,2.9,2.9,2.905,2.905,0,0,0,2.9-2.9A2.9,2.9,0,0,0,3858.077-8010.889Z" transform="translate(211.646 37.35)" fill="#d1ccc1"/>
    <path id="Path_5905" data-name="Path 5905" d="M3890.126-8010.889a2.9,2.9,0,0,0-2.9,2.9,2.9,2.9,0,0,0,2.9,2.9,2.905,2.905,0,0,0,2.9-2.9A2.9,2.9,0,0,0,3890.126-8010.889Z" transform="translate(248.996 37.35)" fill="#d1ccc1"/>
    <path id="Path_5906" data-name="Path 5906" d="M3900.81-8010.889a2.9,2.9,0,0,0-2.9,2.9,2.905,2.905,0,0,0,2.9,2.9,2.9,2.9,0,0,0,2.9-2.9A2.9,2.9,0,0,0,3900.81-8010.889Z" transform="translate(261.446 37.35)" fill="#d1ccc1"/>
    <path id="Path_5907" data-name="Path 5907" d="M3911.492-8010.889a2.905,2.905,0,0,0-2.9,2.9,2.906,2.906,0,0,0,2.9,2.9,2.905,2.905,0,0,0,2.9-2.9A2.9,2.9,0,0,0,3911.492-8010.889Z" transform="translate(273.896 37.35)" fill="#d1ccc1"/>
    <path id="Path_5908" data-name="Path 5908" d="M3922.176-8010.889a2.906,2.906,0,0,0-2.9,2.9,2.906,2.906,0,0,0,2.9,2.9,2.906,2.906,0,0,0,2.9-2.9A2.905,2.905,0,0,0,3922.176-8010.889Z" transform="translate(286.345 37.35)" fill="#d1ccc1"/>
    <path id="Path_5909" data-name="Path 5909" d="M3954.225-8010.889a2.9,2.9,0,0,0-2.9,2.9,2.905,2.905,0,0,0,2.9,2.9,2.905,2.905,0,0,0,2.9-2.9A2.9,2.9,0,0,0,3954.225-8010.889Z" transform="translate(323.695 37.35)" fill="#d1ccc1"/>
    <path id="Path_5910" data-name="Path 5910" d="M3943.54-8010.889a2.9,2.9,0,0,0-2.9,2.9,2.9,2.9,0,0,0,2.9,2.9,2.906,2.906,0,0,0,2.9-2.9A2.906,2.906,0,0,0,3943.54-8010.889Z" transform="translate(311.245 37.35)" fill="#d1ccc1"/>
    <path id="Path_5911" data-name="Path 5911" d="M3836.71-8010.889a2.905,2.905,0,0,0-2.9,2.9,2.906,2.906,0,0,0,2.9,2.9,2.905,2.905,0,0,0,2.9-2.9A2.9,2.9,0,0,0,3836.71-8010.889Z" transform="translate(186.747 37.35)" fill="#d1ccc1"/>
    <path id="Path_5912" data-name="Path 5912" d="M3868.759-8010.889a2.9,2.9,0,0,0-2.9,2.9,2.9,2.9,0,0,0,2.9,2.9,2.906,2.906,0,0,0,2.9-2.9A2.906,2.906,0,0,0,3868.759-8010.889Z" transform="translate(224.096 37.35)" fill="#d1ccc1"/>
    <path id="Path_5913" data-name="Path 5913" d="M3772.611-8010.889a2.905,2.905,0,0,0-2.9,2.9,2.906,2.906,0,0,0,2.9,2.9,2.905,2.905,0,0,0,2.9-2.9A2.9,2.9,0,0,0,3772.611-8010.889Z" transform="translate(112.047 37.35)" fill="#d1ccc1"/>
    <path id="Path_5914" data-name="Path 5914" d="M3761.927-8010.889a2.9,2.9,0,0,0-2.9,2.9,2.905,2.905,0,0,0,2.9,2.9,2.907,2.907,0,0,0,2.9-2.9A2.907,2.907,0,0,0,3761.927-8010.889Z" transform="translate(99.598 37.35)" fill="#d1ccc1"/>
    <path id="Path_5915" data-name="Path 5915" d="M3751.245-8010.889a2.9,2.9,0,0,0-2.9,2.9,2.905,2.905,0,0,0,2.9,2.9,2.9,2.9,0,0,0,2.9-2.9A2.9,2.9,0,0,0,3751.245-8010.889Z" transform="translate(87.148 37.35)" fill="#d1ccc1"/>
    <path id="Path_5916" data-name="Path 5916" d="M3826.029-8010.889a2.906,2.906,0,0,0-2.9,2.9,2.907,2.907,0,0,0,2.9,2.9,2.9,2.9,0,0,0,2.9-2.9A2.9,2.9,0,0,0,3826.029-8010.889Z" transform="translate(174.296 37.35)" fill="#d1ccc1"/>
    <path id="Path_5917" data-name="Path 5917" d="M3815.343-8010.889a2.9,2.9,0,0,0-2.9,2.9,2.9,2.9,0,0,0,2.9,2.9,2.907,2.907,0,0,0,2.9-2.9A2.906,2.906,0,0,0,3815.343-8010.889Z" transform="translate(161.847 37.35)" fill="#d1ccc1"/>
    <path id="Path_5918" data-name="Path 5918" d="M3932.859-8010.889a2.905,2.905,0,0,0-2.9,2.9,2.906,2.906,0,0,0,2.9,2.9,2.906,2.906,0,0,0,2.9-2.9A2.905,2.905,0,0,0,3932.859-8010.889Z" transform="translate(298.795 37.35)" fill="#d1ccc1"/>
    <path id="Path_5919" data-name="Path 5919" d="M3964.908-8010.889a2.9,2.9,0,0,0-2.9,2.9,2.905,2.905,0,0,0,2.9,2.9,2.907,2.907,0,0,0,2.9-2.9A2.907,2.907,0,0,0,3964.908-8010.889Z" transform="translate(336.145 37.35)" fill="#d1ccc1"/>
    <path id="Path_5920" data-name="Path 5920" d="M3804.661-8010.889a2.9,2.9,0,0,0-2.9,2.9,2.905,2.905,0,0,0,2.9,2.9,2.906,2.906,0,0,0,2.9-2.9A2.905,2.905,0,0,0,3804.661-8010.889Z" transform="translate(149.397 37.35)" fill="#d1ccc1"/>
    <path id="Path_5921" data-name="Path 5921" d="M3793.977-8010.889a2.9,2.9,0,0,0-2.9,2.9,2.905,2.905,0,0,0,2.9,2.9,2.906,2.906,0,0,0,2.9-2.9A2.905,2.905,0,0,0,3793.977-8010.889Z" transform="translate(136.948 37.35)" fill="#d1ccc1"/>
    <path id="Path_5922" data-name="Path 5922" d="M3783.294-8010.889a2.9,2.9,0,0,0-2.9,2.9,2.905,2.905,0,0,0,2.9,2.9,2.905,2.905,0,0,0,2.9-2.9A2.9,2.9,0,0,0,3783.294-8010.889Z" transform="translate(124.498 37.35)" fill="#d1ccc1"/>
    <path id="Path_5923" data-name="Path 5923" d="M3676.463-8021.57a2.9,2.9,0,0,0-2.9,2.9,2.9,2.9,0,0,0,2.9,2.9,2.9,2.9,0,0,0,2.9-2.9A2.9,2.9,0,0,0,3676.463-8021.57Z" transform="translate(0 24.902)" fill="#d1ccc1"/>
    <path id="Path_5924" data-name="Path 5924" d="M3740.561-8021.57a2.9,2.9,0,0,0-2.9,2.9,2.9,2.9,0,0,0,2.9,2.9,2.9,2.9,0,0,0,2.9-2.9A2.9,2.9,0,0,0,3740.561-8021.57Z" transform="translate(74.699 24.902)" fill="#d1ccc1"/>
    <path id="Path_5925" data-name="Path 5925" d="M3729.879-8021.57a2.9,2.9,0,0,0-2.9,2.9,2.9,2.9,0,0,0,2.9,2.9,2.9,2.9,0,0,0,2.9-2.9A2.9,2.9,0,0,0,3729.879-8021.57Z" transform="translate(62.249 24.902)" fill="#d1ccc1"/>
    <path id="Path_5926" data-name="Path 5926" d="M3719.2-8021.57a2.9,2.9,0,0,0-2.9,2.9,2.9,2.9,0,0,0,2.9,2.9,2.9,2.9,0,0,0,2.9-2.9A2.9,2.9,0,0,0,3719.2-8021.57Z" transform="translate(49.798 24.902)" fill="#d1ccc1"/>
    <path id="Path_5927" data-name="Path 5927" d="M3708.511-8021.57a2.9,2.9,0,0,0-2.9,2.9,2.9,2.9,0,0,0,2.9,2.9,2.9,2.9,0,0,0,2.9-2.9A2.9,2.9,0,0,0,3708.511-8021.57Z" transform="translate(37.349 24.902)" fill="#d1ccc1"/>
    <path id="Path_5928" data-name="Path 5928" d="M3697.831-7754.49a2.9,2.9,0,0,0-2.9,2.9,2.906,2.906,0,0,0,2.9,2.9,2.9,2.9,0,0,0,2.9-2.9A2.9,2.9,0,0,0,3697.831-7754.49Z" transform="translate(24.899 336.147)" fill="#d1ccc1"/>
    <path id="Path_5929" data-name="Path 5929" d="M3697.831-7765.174a2.9,2.9,0,0,0-2.9,2.9,2.905,2.905,0,0,0,2.9,2.9,2.9,2.9,0,0,0,2.9-2.9A2.9,2.9,0,0,0,3697.831-7765.174Z" transform="translate(24.899 323.697)" fill="#d1ccc1"/>
    <path id="Path_5930" data-name="Path 5930" d="M3697.831-7786.542a2.908,2.908,0,0,0-2.9,2.9,2.905,2.905,0,0,0,2.9,2.9,2.9,2.9,0,0,0,2.9-2.9A2.9,2.9,0,0,0,3697.831-7786.542Z" transform="translate(24.899 298.797)" fill="#d1ccc1"/>
    <path id="Path_5931" data-name="Path 5931" d="M3697.831-7818.59a2.9,2.9,0,0,0-2.9,2.9,2.905,2.905,0,0,0,2.9,2.9,2.9,2.9,0,0,0,2.9-2.9A2.9,2.9,0,0,0,3697.831-7818.59Z" transform="translate(24.899 261.447)" fill="#d1ccc1"/>
    <path id="Path_5932" data-name="Path 5932" d="M3697.831-7829.273a2.9,2.9,0,0,0-2.9,2.9,2.9,2.9,0,0,0,2.9,2.9,2.9,2.9,0,0,0,2.9-2.9A2.9,2.9,0,0,0,3697.831-7829.273Z" transform="translate(24.899 248.998)" fill="#d1ccc1"/>
    <path id="Path_5933" data-name="Path 5933" d="M3697.831-7850.64a2.905,2.905,0,0,0-2.9,2.9,2.9,2.9,0,0,0,2.9,2.9,2.9,2.9,0,0,0,2.9-2.9A2.9,2.9,0,0,0,3697.831-7850.64Z" transform="translate(24.899 224.096)" fill="#d1ccc1"/>
    <path id="Path_5934" data-name="Path 5934" d="M3697.831-7861.322a2.9,2.9,0,0,0-2.9,2.9,2.9,2.9,0,0,0,2.9,2.9,2.9,2.9,0,0,0,2.9-2.9A2.9,2.9,0,0,0,3697.831-7861.322Z" transform="translate(24.899 211.649)" fill="#d1ccc1"/>
    <path id="Path_5935" data-name="Path 5935" d="M3697.831-7872.006a2.906,2.906,0,0,0-2.9,2.9,2.9,2.9,0,0,0,2.9,2.9,2.9,2.9,0,0,0,2.9-2.9A2.9,2.9,0,0,0,3697.831-7872.006Z" transform="translate(24.899 199.198)" fill="#d1ccc1"/>
    <path id="Path_5936" data-name="Path 5936" d="M3697.831-7882.688a2.905,2.905,0,0,0-2.9,2.9,2.9,2.9,0,0,0,2.9,2.9,2.9,2.9,0,0,0,2.9-2.9A2.9,2.9,0,0,0,3697.831-7882.688Z" transform="translate(24.899 186.748)" fill="#d1ccc1"/>
    <path id="Path_5937" data-name="Path 5937" d="M3697.831-7893.372a2.905,2.905,0,0,0-2.9,2.9,2.905,2.905,0,0,0,2.9,2.9,2.9,2.9,0,0,0,2.9-2.9A2.9,2.9,0,0,0,3697.831-7893.372Z" transform="translate(24.899 174.298)" fill="#d1ccc1"/>
    <path id="Path_5938" data-name="Path 5938" d="M3697.831-8042.938a2.908,2.908,0,0,0-2.9,2.9,2.9,2.9,0,0,0,2.9,2.9,2.9,2.9,0,0,0,2.9-2.9A2.9,2.9,0,0,0,3697.831-8042.938Z" transform="translate(24.899 0)" fill="#d1ccc1"/>
    <path id="Path_5939" data-name="Path 5939" d="M3697.831-7797.223a2.9,2.9,0,0,0-2.9,2.9,2.905,2.905,0,0,0,2.9,2.9,2.9,2.9,0,0,0,2.9-2.9A2.9,2.9,0,0,0,3697.831-7797.223Z" transform="translate(24.899 286.345)" fill="#d1ccc1"/>
    <path id="Path_5940" data-name="Path 5940" d="M3697.831-7839.957a2.9,2.9,0,0,0-2.9,2.9,2.905,2.905,0,0,0,2.9,2.9,2.9,2.9,0,0,0,2.9-2.9A2.9,2.9,0,0,0,3697.831-7839.957Z" transform="translate(24.899 236.548)" fill="#d1ccc1"/>
    <path id="Path_5941" data-name="Path 5941" d="M3697.831-7807.9a2.9,2.9,0,0,0-2.9,2.9,2.905,2.905,0,0,0,2.9,2.9,2.9,2.9,0,0,0,2.9-2.9A2.9,2.9,0,0,0,3697.831-7807.9Z" transform="translate(24.899 273.897)" fill="#d1ccc1"/>
    <path id="Path_5942" data-name="Path 5942" d="M3697.831-7775.858a2.906,2.906,0,0,0-2.9,2.9,2.9,2.9,0,0,0,2.9,2.9,2.9,2.9,0,0,0,2.9-2.9A2.9,2.9,0,0,0,3697.831-7775.858Z" transform="translate(24.899 311.248)" fill="#d1ccc1"/>
    <path id="Path_5943" data-name="Path 5943" d="M3697.831-7904.057a2.905,2.905,0,0,0-2.9,2.9,2.908,2.908,0,0,0,2.9,2.9,2.9,2.9,0,0,0,2.9-2.9A2.9,2.9,0,0,0,3697.831-7904.057Z" transform="translate(24.899 161.848)" fill="#d1ccc1"/>
    <path id="Path_5944" data-name="Path 5944" d="M3697.831-7946.789a2.905,2.905,0,0,0-2.9,2.9,2.905,2.905,0,0,0,2.9,2.9,2.9,2.9,0,0,0,2.9-2.9A2.9,2.9,0,0,0,3697.831-7946.789Z" transform="translate(24.899 112.048)" fill="#d1ccc1"/>
    <path id="Path_5945" data-name="Path 5945" d="M3697.831-7914.738a2.9,2.9,0,0,0-2.9,2.9,2.9,2.9,0,0,0,2.9,2.9,2.9,2.9,0,0,0,2.9-2.9A2.9,2.9,0,0,0,3697.831-7914.738Z" transform="translate(24.899 149.4)" fill="#d1ccc1"/>
    <path id="Path_5946" data-name="Path 5946" d="M3697.831-7925.422a2.905,2.905,0,0,0-2.9,2.9,2.905,2.905,0,0,0,2.9,2.9,2.9,2.9,0,0,0,2.9-2.9A2.9,2.9,0,0,0,3697.831-7925.422Z" transform="translate(24.899 136.95)" fill="#d1ccc1"/>
    <path id="Path_5947" data-name="Path 5947" d="M3697.831-7936.105a2.905,2.905,0,0,0-2.9,2.9,2.9,2.9,0,0,0,2.9,2.9,2.9,2.9,0,0,0,2.9-2.9A2.9,2.9,0,0,0,3697.831-7936.105Z" transform="translate(24.899 124.5)" fill="#d1ccc1"/>
    <path id="Path_5948" data-name="Path 5948" d="M3697.831-7957.471a2.9,2.9,0,0,0-2.9,2.9,2.907,2.907,0,0,0,2.9,2.9,2.9,2.9,0,0,0,2.9-2.9A2.9,2.9,0,0,0,3697.831-7957.471Z" transform="translate(24.899 99.598)" fill="#d1ccc1"/>
    <path id="Path_5949" data-name="Path 5949" d="M3697.831-7968.154a2.9,2.9,0,0,0-2.9,2.9,2.905,2.905,0,0,0,2.9,2.9,2.9,2.9,0,0,0,2.9-2.9A2.9,2.9,0,0,0,3697.831-7968.154Z" transform="translate(24.899 87.151)" fill="#d1ccc1"/>
    <path id="Path_5950" data-name="Path 5950" d="M3697.831-7978.838a2.9,2.9,0,0,0-2.9,2.9,2.905,2.905,0,0,0,2.9,2.9,2.9,2.9,0,0,0,2.9-2.9A2.9,2.9,0,0,0,3697.831-7978.838Z" transform="translate(24.899 74.7)" fill="#d1ccc1"/>
    <path id="Path_5951" data-name="Path 5951" d="M3697.831-7989.521a2.9,2.9,0,0,0-2.9,2.9,2.9,2.9,0,0,0,2.9,2.9,2.9,2.9,0,0,0,2.9-2.9A2.9,2.9,0,0,0,3697.831-7989.521Z" transform="translate(24.899 62.25)" fill="#d1ccc1"/>
    <path id="Path_5952" data-name="Path 5952" d="M3697.831-8000.2a2.9,2.9,0,0,0-2.9,2.9,2.9,2.9,0,0,0,2.9,2.9,2.9,2.9,0,0,0,2.9-2.9A2.9,2.9,0,0,0,3697.831-8000.2Z" transform="translate(24.899 49.801)" fill="#d1ccc1"/>
    <path id="Path_5953" data-name="Path 5953" d="M3697.831-8010.889a2.906,2.906,0,0,0-2.9,2.9,2.906,2.906,0,0,0,2.9,2.9,2.9,2.9,0,0,0,2.9-2.9A2.9,2.9,0,0,0,3697.831-8010.889Z" transform="translate(24.899 37.35)" fill="#d1ccc1"/>
    <path id="Path_5954" data-name="Path 5954" d="M3697.831-8021.57a2.9,2.9,0,0,0-2.9,2.9,2.9,2.9,0,0,0,2.9,2.9,2.9,2.9,0,0,0,2.9-2.9A2.9,2.9,0,0,0,3697.831-8021.57Z" transform="translate(24.899 24.902)" fill="#d1ccc1"/>
    <path id="Path_5955" data-name="Path 5955" d="M3847.394-8021.57a2.9,2.9,0,0,0-2.9,2.9,2.9,2.9,0,0,0,2.9,2.9,2.9,2.9,0,0,0,2.9-2.9A2.9,2.9,0,0,0,3847.394-8021.57Z" transform="translate(199.197 24.902)" fill="#d1ccc1"/>
    <path id="Path_5956" data-name="Path 5956" d="M3879.444-8021.57a2.9,2.9,0,0,0-2.9,2.9,2.9,2.9,0,0,0,2.9,2.9,2.9,2.9,0,0,0,2.9-2.9A2.9,2.9,0,0,0,3879.444-8021.57Z" transform="translate(236.546 24.902)" fill="#d1ccc1"/>
    <path id="Path_5957" data-name="Path 5957" d="M3858.077-8021.57a2.9,2.9,0,0,0-2.9,2.9,2.9,2.9,0,0,0,2.9,2.9,2.9,2.9,0,0,0,2.9-2.9A2.9,2.9,0,0,0,3858.077-8021.57Z" transform="translate(211.646 24.902)" fill="#d1ccc1"/>
    <path id="Path_5958" data-name="Path 5958" d="M3890.126-8021.57a2.9,2.9,0,0,0-2.9,2.9,2.9,2.9,0,0,0,2.9,2.9,2.9,2.9,0,0,0,2.9-2.9A2.9,2.9,0,0,0,3890.126-8021.57Z" transform="translate(248.996 24.902)" fill="#d1ccc1"/>
    <path id="Path_5959" data-name="Path 5959" d="M3900.81-8021.57a2.9,2.9,0,0,0-2.9,2.9,2.9,2.9,0,0,0,2.9,2.9,2.9,2.9,0,0,0,2.9-2.9A2.9,2.9,0,0,0,3900.81-8021.57Z" transform="translate(261.446 24.902)" fill="#d1ccc1"/>
    <path id="Path_5960" data-name="Path 5960" d="M3911.492-8021.57a2.9,2.9,0,0,0-2.9,2.9,2.9,2.9,0,0,0,2.9,2.9,2.9,2.9,0,0,0,2.9-2.9A2.9,2.9,0,0,0,3911.492-8021.57Z" transform="translate(273.896 24.902)" fill="#d1ccc1"/>
    <path id="Path_5961" data-name="Path 5961" d="M3922.176-8021.57a2.9,2.9,0,0,0-2.9,2.9,2.9,2.9,0,0,0,2.9,2.9,2.9,2.9,0,0,0,2.9-2.9A2.9,2.9,0,0,0,3922.176-8021.57Z" transform="translate(286.345 24.902)" fill="#d1ccc1"/>
    <path id="Path_5962" data-name="Path 5962" d="M3954.225-8021.57a2.9,2.9,0,0,0-2.9,2.9,2.9,2.9,0,0,0,2.9,2.9,2.9,2.9,0,0,0,2.9-2.9A2.9,2.9,0,0,0,3954.225-8021.57Z" transform="translate(323.695 24.902)" fill="#d1ccc1"/>
    <path id="Path_5963" data-name="Path 5963" d="M3943.54-8021.57a2.9,2.9,0,0,0-2.9,2.9,2.9,2.9,0,0,0,2.9,2.9,2.9,2.9,0,0,0,2.9-2.9A2.9,2.9,0,0,0,3943.54-8021.57Z" transform="translate(311.245 24.902)" fill="#d1ccc1"/>
    <path id="Path_5964" data-name="Path 5964" d="M3836.71-8021.57a2.9,2.9,0,0,0-2.9,2.9,2.9,2.9,0,0,0,2.9,2.9,2.9,2.9,0,0,0,2.9-2.9A2.9,2.9,0,0,0,3836.71-8021.57Z" transform="translate(186.747 24.902)" fill="#d1ccc1"/>
    <path id="Path_5965" data-name="Path 5965" d="M3868.759-8021.57a2.9,2.9,0,0,0-2.9,2.9,2.9,2.9,0,0,0,2.9,2.9,2.9,2.9,0,0,0,2.9-2.9A2.9,2.9,0,0,0,3868.759-8021.57Z" transform="translate(224.096 24.902)" fill="#d1ccc1"/>
    <path id="Path_5966" data-name="Path 5966" d="M3772.611-8021.57a2.9,2.9,0,0,0-2.9,2.9,2.9,2.9,0,0,0,2.9,2.9,2.9,2.9,0,0,0,2.9-2.9A2.9,2.9,0,0,0,3772.611-8021.57Z" transform="translate(112.047 24.902)" fill="#d1ccc1"/>
    <path id="Path_5967" data-name="Path 5967" d="M3761.927-8021.57a2.9,2.9,0,0,0-2.9,2.9,2.9,2.9,0,0,0,2.9,2.9,2.905,2.905,0,0,0,2.9-2.9A2.9,2.9,0,0,0,3761.927-8021.57Z" transform="translate(99.598 24.902)" fill="#d1ccc1"/>
    <path id="Path_5968" data-name="Path 5968" d="M3751.245-8021.57a2.9,2.9,0,0,0-2.9,2.9,2.9,2.9,0,0,0,2.9,2.9,2.9,2.9,0,0,0,2.9-2.9A2.9,2.9,0,0,0,3751.245-8021.57Z" transform="translate(87.148 24.902)" fill="#d1ccc1"/>
    <path id="Path_5969" data-name="Path 5969" d="M3826.029-8021.57a2.9,2.9,0,0,0-2.9,2.9,2.9,2.9,0,0,0,2.9,2.9,2.9,2.9,0,0,0,2.9-2.9A2.9,2.9,0,0,0,3826.029-8021.57Z" transform="translate(174.296 24.902)" fill="#d1ccc1"/>
    <path id="Path_5970" data-name="Path 5970" d="M3815.343-8021.57a2.9,2.9,0,0,0-2.9,2.9,2.9,2.9,0,0,0,2.9,2.9,2.9,2.9,0,0,0,2.9-2.9A2.9,2.9,0,0,0,3815.343-8021.57Z" transform="translate(161.847 24.902)" fill="#d1ccc1"/>
    <path id="Path_5971" data-name="Path 5971" d="M3932.859-8021.57a2.9,2.9,0,0,0-2.9,2.9,2.9,2.9,0,0,0,2.9,2.9,2.9,2.9,0,0,0,2.9-2.9A2.9,2.9,0,0,0,3932.859-8021.57Z" transform="translate(298.795 24.902)" fill="#d1ccc1"/>
    <path id="Path_5972" data-name="Path 5972" d="M3964.908-8021.57a2.9,2.9,0,0,0-2.9,2.9,2.9,2.9,0,0,0,2.9,2.9,2.905,2.905,0,0,0,2.9-2.9A2.9,2.9,0,0,0,3964.908-8021.57Z" transform="translate(336.145 24.902)" fill="#d1ccc1"/>
    <path id="Path_5973" data-name="Path 5973" d="M3804.661-8021.57a2.9,2.9,0,0,0-2.9,2.9,2.9,2.9,0,0,0,2.9,2.9,2.9,2.9,0,0,0,2.9-2.9A2.9,2.9,0,0,0,3804.661-8021.57Z" transform="translate(149.397 24.902)" fill="#d1ccc1"/>
    <path id="Path_5974" data-name="Path 5974" d="M3793.977-8021.57a2.9,2.9,0,0,0-2.9,2.9,2.9,2.9,0,0,0,2.9,2.9,2.9,2.9,0,0,0,2.9-2.9A2.9,2.9,0,0,0,3793.977-8021.57Z" transform="translate(136.948 24.902)" fill="#d1ccc1"/>
    <path id="Path_5975" data-name="Path 5975" d="M3783.294-8021.57a2.9,2.9,0,0,0-2.9,2.9,2.9,2.9,0,0,0,2.9,2.9,2.9,2.9,0,0,0,2.9-2.9A2.9,2.9,0,0,0,3783.294-8021.57Z" transform="translate(124.498 24.902)" fill="#d1ccc1"/>
    <path id="Path_5976" data-name="Path 5976" d="M3676.463-8032.254a2.9,2.9,0,0,0-2.9,2.9,2.9,2.9,0,0,0,2.9,2.9,2.9,2.9,0,0,0,2.9-2.9A2.9,2.9,0,0,0,3676.463-8032.254Z" transform="translate(0 12.451)" fill="#d1ccc1"/>
    <path id="Path_5977" data-name="Path 5977" d="M3740.561-8032.254a2.9,2.9,0,0,0-2.9,2.9,2.9,2.9,0,0,0,2.9,2.9,2.9,2.9,0,0,0,2.9-2.9A2.9,2.9,0,0,0,3740.561-8032.254Z" transform="translate(74.699 12.451)" fill="#d1ccc1"/>
    <path id="Path_5978" data-name="Path 5978" d="M3729.879-8032.254a2.9,2.9,0,0,0-2.9,2.9,2.9,2.9,0,0,0,2.9,2.9,2.9,2.9,0,0,0,2.9-2.9A2.9,2.9,0,0,0,3729.879-8032.254Z" transform="translate(62.249 12.451)" fill="#d1ccc1"/>
    <path id="Path_5979" data-name="Path 5979" d="M3719.2-8032.254a2.9,2.9,0,0,0-2.9,2.9,2.9,2.9,0,0,0,2.9,2.9,2.9,2.9,0,0,0,2.9-2.9A2.9,2.9,0,0,0,3719.2-8032.254Z" transform="translate(49.798 12.451)" fill="#d1ccc1"/>
    <path id="Path_5980" data-name="Path 5980" d="M3708.511-8032.254a2.9,2.9,0,0,0-2.9,2.9,2.9,2.9,0,0,0,2.9,2.9,2.9,2.9,0,0,0,2.9-2.9A2.906,2.906,0,0,0,3708.511-8032.254Z" transform="translate(37.349 12.451)" fill="#d1ccc1"/>
    <path id="Path_5981" data-name="Path 5981" d="M3697.831-8032.254a2.905,2.905,0,0,0-2.9,2.9,2.9,2.9,0,0,0,2.9,2.9,2.9,2.9,0,0,0,2.9-2.9A2.9,2.9,0,0,0,3697.831-8032.254Z" transform="translate(24.899 12.451)" fill="#d1ccc1"/>
    <path id="Path_5982" data-name="Path 5982" d="M3687.145-7754.49a2.9,2.9,0,0,0-2.9,2.9,2.9,2.9,0,0,0,2.9,2.9,2.9,2.9,0,0,0,2.9-2.9A2.9,2.9,0,0,0,3687.145-7754.49Z" transform="translate(12.45 336.147)" fill="#d1ccc1"/>
    <path id="Path_5983" data-name="Path 5983" d="M3687.145-7765.174a2.9,2.9,0,0,0-2.9,2.9,2.9,2.9,0,0,0,2.9,2.9,2.9,2.9,0,0,0,2.9-2.9A2.9,2.9,0,0,0,3687.145-7765.174Z" transform="translate(12.45 323.697)" fill="#d1ccc1"/>
    <path id="Path_5984" data-name="Path 5984" d="M3687.145-7786.542a2.906,2.906,0,0,0-2.9,2.9,2.9,2.9,0,0,0,2.9,2.9,2.9,2.9,0,0,0,2.9-2.9A2.906,2.906,0,0,0,3687.145-7786.542Z" transform="translate(12.45 298.797)" fill="#d1ccc1"/>
    <path id="Path_5985" data-name="Path 5985" d="M3687.145-7818.59a2.9,2.9,0,0,0-2.9,2.9,2.9,2.9,0,0,0,2.9,2.9,2.9,2.9,0,0,0,2.9-2.9A2.9,2.9,0,0,0,3687.145-7818.59Z" transform="translate(12.45 261.447)" fill="#d1ccc1"/>
    <path id="Path_5986" data-name="Path 5986" d="M3687.145-7829.273a2.9,2.9,0,0,0-2.9,2.9,2.9,2.9,0,0,0,2.9,2.9,2.9,2.9,0,0,0,2.9-2.9A2.9,2.9,0,0,0,3687.145-7829.273Z" transform="translate(12.45 248.998)" fill="#d1ccc1"/>
    <path id="Path_5987" data-name="Path 5987" d="M3687.145-7850.64a2.9,2.9,0,0,0-2.9,2.9,2.9,2.9,0,0,0,2.9,2.9,2.9,2.9,0,0,0,2.9-2.9A2.9,2.9,0,0,0,3687.145-7850.64Z" transform="translate(12.45 224.096)" fill="#d1ccc1"/>
    <path id="Path_5988" data-name="Path 5988" d="M3687.145-7861.322a2.9,2.9,0,0,0-2.9,2.9,2.9,2.9,0,0,0,2.9,2.9,2.9,2.9,0,0,0,2.9-2.9A2.9,2.9,0,0,0,3687.145-7861.322Z" transform="translate(12.45 211.649)" fill="#d1ccc1"/>
    <path id="Path_5989" data-name="Path 5989" d="M3687.145-7872.006a2.9,2.9,0,0,0-2.9,2.9,2.9,2.9,0,0,0,2.9,2.9,2.9,2.9,0,0,0,2.9-2.9A2.9,2.9,0,0,0,3687.145-7872.006Z" transform="translate(12.45 199.198)" fill="#d1ccc1"/>
    <path id="Path_5990" data-name="Path 5990" d="M3687.145-7882.688a2.9,2.9,0,0,0-2.9,2.9,2.9,2.9,0,0,0,2.9,2.9,2.9,2.9,0,0,0,2.9-2.9A2.9,2.9,0,0,0,3687.145-7882.688Z" transform="translate(12.45 186.748)" fill="#d1ccc1"/>
    <path id="Path_5991" data-name="Path 5991" d="M3687.145-7893.372a2.9,2.9,0,0,0-2.9,2.9,2.9,2.9,0,0,0,2.9,2.9,2.9,2.9,0,0,0,2.9-2.9A2.9,2.9,0,0,0,3687.145-7893.372Z" transform="translate(12.45 174.298)" fill="#d1ccc1"/>
    <path id="Path_5992" data-name="Path 5992" d="M3687.145-8042.938a2.906,2.906,0,0,0-2.9,2.9,2.9,2.9,0,0,0,2.9,2.9,2.9,2.9,0,0,0,2.9-2.9A2.906,2.906,0,0,0,3687.145-8042.938Z" transform="translate(12.45 0)" fill="#d1ccc1"/>
    <path id="Path_5993" data-name="Path 5993" d="M3687.145-7797.223a2.9,2.9,0,0,0-2.9,2.9,2.9,2.9,0,0,0,2.9,2.9,2.9,2.9,0,0,0,2.9-2.9A2.9,2.9,0,0,0,3687.145-7797.223Z" transform="translate(12.45 286.345)" fill="#d1ccc1"/>
    <path id="Path_5994" data-name="Path 5994" d="M3687.145-7839.957a2.9,2.9,0,0,0-2.9,2.9,2.9,2.9,0,0,0,2.9,2.9,2.9,2.9,0,0,0,2.9-2.9A2.9,2.9,0,0,0,3687.145-7839.957Z" transform="translate(12.45 236.548)" fill="#d1ccc1"/>
    <path id="Path_5995" data-name="Path 5995" d="M3687.145-7807.9a2.9,2.9,0,0,0-2.9,2.9,2.9,2.9,0,0,0,2.9,2.9,2.9,2.9,0,0,0,2.9-2.9A2.9,2.9,0,0,0,3687.145-7807.9Z" transform="translate(12.45 273.897)" fill="#d1ccc1"/>
    <path id="Path_5996" data-name="Path 5996" d="M3687.145-7775.858a2.9,2.9,0,0,0-2.9,2.9,2.9,2.9,0,0,0,2.9,2.9,2.9,2.9,0,0,0,2.9-2.9A2.9,2.9,0,0,0,3687.145-7775.858Z" transform="translate(12.45 311.248)" fill="#d1ccc1"/>
    <path id="Path_5997" data-name="Path 5997" d="M3687.145-7904.057a2.9,2.9,0,0,0-2.9,2.9,2.906,2.906,0,0,0,2.9,2.9,2.906,2.906,0,0,0,2.9-2.9A2.9,2.9,0,0,0,3687.145-7904.057Z" transform="translate(12.45 161.848)" fill="#d1ccc1"/>
    <path id="Path_5998" data-name="Path 5998" d="M3687.145-7946.789a2.9,2.9,0,0,0-2.9,2.9,2.9,2.9,0,0,0,2.9,2.9,2.9,2.9,0,0,0,2.9-2.9A2.9,2.9,0,0,0,3687.145-7946.789Z" transform="translate(12.45 112.048)" fill="#d1ccc1"/>
    <path id="Path_5999" data-name="Path 5999" d="M3687.145-7914.738a2.9,2.9,0,0,0-2.9,2.9,2.9,2.9,0,0,0,2.9,2.9,2.9,2.9,0,0,0,2.9-2.9A2.9,2.9,0,0,0,3687.145-7914.738Z" transform="translate(12.45 149.4)" fill="#d1ccc1"/>
    <path id="Path_6000" data-name="Path 6000" d="M3687.145-7925.422a2.9,2.9,0,0,0-2.9,2.9,2.9,2.9,0,0,0,2.9,2.9,2.9,2.9,0,0,0,2.9-2.9A2.9,2.9,0,0,0,3687.145-7925.422Z" transform="translate(12.45 136.95)" fill="#d1ccc1"/>
    <path id="Path_6001" data-name="Path 6001" d="M3687.145-7936.105a2.9,2.9,0,0,0-2.9,2.9,2.9,2.9,0,0,0,2.9,2.9,2.9,2.9,0,0,0,2.9-2.9A2.9,2.9,0,0,0,3687.145-7936.105Z" transform="translate(12.45 124.5)" fill="#d1ccc1"/>
    <path id="Path_6002" data-name="Path 6002" d="M3687.145-7957.471a2.9,2.9,0,0,0-2.9,2.9,2.905,2.905,0,0,0,2.9,2.9,2.905,2.905,0,0,0,2.9-2.9A2.9,2.9,0,0,0,3687.145-7957.471Z" transform="translate(12.45 99.598)" fill="#d1ccc1"/>
    <path id="Path_6003" data-name="Path 6003" d="M3687.145-7968.154a2.9,2.9,0,0,0-2.9,2.9,2.9,2.9,0,0,0,2.9,2.9,2.9,2.9,0,0,0,2.9-2.9A2.9,2.9,0,0,0,3687.145-7968.154Z" transform="translate(12.45 87.151)" fill="#d1ccc1"/>
    <path id="Path_6004" data-name="Path 6004" d="M3687.145-7978.838a2.9,2.9,0,0,0-2.9,2.9,2.9,2.9,0,0,0,2.9,2.9,2.9,2.9,0,0,0,2.9-2.9A2.9,2.9,0,0,0,3687.145-7978.838Z" transform="translate(12.45 74.7)" fill="#d1ccc1"/>
    <path id="Path_6005" data-name="Path 6005" d="M3687.145-7989.521a2.9,2.9,0,0,0-2.9,2.9,2.9,2.9,0,0,0,2.9,2.9,2.9,2.9,0,0,0,2.9-2.9A2.9,2.9,0,0,0,3687.145-7989.521Z" transform="translate(12.45 62.25)" fill="#d1ccc1"/>
    <path id="Path_6006" data-name="Path 6006" d="M3687.145-8000.2a2.9,2.9,0,0,0-2.9,2.9,2.9,2.9,0,0,0,2.9,2.9,2.9,2.9,0,0,0,2.9-2.9A2.9,2.9,0,0,0,3687.145-8000.2Z" transform="translate(12.45 49.801)" fill="#d1ccc1"/>
    <path id="Path_6007" data-name="Path 6007" d="M3687.145-8010.889a2.9,2.9,0,0,0-2.9,2.9,2.905,2.905,0,0,0,2.9,2.9,2.905,2.905,0,0,0,2.9-2.9A2.9,2.9,0,0,0,3687.145-8010.889Z" transform="translate(12.45 37.35)" fill="#d1ccc1"/>
    <path id="Path_6008" data-name="Path 6008" d="M3687.145-8021.57a2.9,2.9,0,0,0-2.9,2.9,2.9,2.9,0,0,0,2.9,2.9,2.9,2.9,0,0,0,2.9-2.9A2.9,2.9,0,0,0,3687.145-8021.57Z" transform="translate(12.45 24.902)" fill="#d1ccc1"/>
    <path id="Path_6009" data-name="Path 6009" d="M3687.145-8032.254a2.9,2.9,0,0,0-2.9,2.9,2.9,2.9,0,0,0,2.9,2.9,2.9,2.9,0,0,0,2.9-2.9A2.9,2.9,0,0,0,3687.145-8032.254Z" transform="translate(12.45 12.451)" fill="#d1ccc1"/>
    <path id="Path_6010" data-name="Path 6010" d="M3847.394-8032.254a2.9,2.9,0,0,0-2.9,2.9,2.9,2.9,0,0,0,2.9,2.9,2.9,2.9,0,0,0,2.9-2.9A2.9,2.9,0,0,0,3847.394-8032.254Z" transform="translate(199.197 12.451)" fill="#d1ccc1"/>
    <path id="Path_6011" data-name="Path 6011" d="M3879.444-8032.254a2.905,2.905,0,0,0-2.9,2.9,2.9,2.9,0,0,0,2.9,2.9,2.9,2.9,0,0,0,2.9-2.9A2.9,2.9,0,0,0,3879.444-8032.254Z" transform="translate(236.546 12.451)" fill="#d1ccc1"/>
    <path id="Path_6012" data-name="Path 6012" d="M3858.077-8032.254a2.9,2.9,0,0,0-2.9,2.9,2.9,2.9,0,0,0,2.9,2.9,2.9,2.9,0,0,0,2.9-2.9A2.9,2.9,0,0,0,3858.077-8032.254Z" transform="translate(211.646 12.451)" fill="#d1ccc1"/>
    <path id="Path_6013" data-name="Path 6013" d="M3890.126-8032.254a2.9,2.9,0,0,0-2.9,2.9,2.9,2.9,0,0,0,2.9,2.9,2.9,2.9,0,0,0,2.9-2.9A2.9,2.9,0,0,0,3890.126-8032.254Z" transform="translate(248.996 12.451)" fill="#d1ccc1"/>
    <path id="Path_6014" data-name="Path 6014" d="M3900.81-8032.254a2.9,2.9,0,0,0-2.9,2.9,2.9,2.9,0,0,0,2.9,2.9,2.9,2.9,0,0,0,2.9-2.9A2.9,2.9,0,0,0,3900.81-8032.254Z" transform="translate(261.446 12.451)" fill="#d1ccc1"/>
    <path id="Path_6015" data-name="Path 6015" d="M3911.492-8032.254a2.9,2.9,0,0,0-2.9,2.9,2.9,2.9,0,0,0,2.9,2.9,2.9,2.9,0,0,0,2.9-2.9A2.9,2.9,0,0,0,3911.492-8032.254Z" transform="translate(273.896 12.451)" fill="#d1ccc1"/>
    <path id="Path_6016" data-name="Path 6016" d="M3922.176-8032.254a2.9,2.9,0,0,0-2.9,2.9,2.9,2.9,0,0,0,2.9,2.9,2.9,2.9,0,0,0,2.9-2.9A2.9,2.9,0,0,0,3922.176-8032.254Z" transform="translate(286.345 12.451)" fill="#d1ccc1"/>
    <path id="Path_6017" data-name="Path 6017" d="M3954.225-8032.254a2.9,2.9,0,0,0-2.9,2.9,2.9,2.9,0,0,0,2.9,2.9,2.9,2.9,0,0,0,2.9-2.9A2.9,2.9,0,0,0,3954.225-8032.254Z" transform="translate(323.695 12.451)" fill="#d1ccc1"/>
    <path id="Path_6018" data-name="Path 6018" d="M3943.54-8032.254a2.9,2.9,0,0,0-2.9,2.9,2.9,2.9,0,0,0,2.9,2.9,2.9,2.9,0,0,0,2.9-2.9A2.9,2.9,0,0,0,3943.54-8032.254Z" transform="translate(311.245 12.451)" fill="#d1ccc1"/>
    <path id="Path_6019" data-name="Path 6019" d="M3836.71-8032.254a2.9,2.9,0,0,0-2.9,2.9,2.9,2.9,0,0,0,2.9,2.9,2.9,2.9,0,0,0,2.9-2.9A2.9,2.9,0,0,0,3836.71-8032.254Z" transform="translate(186.747 12.451)" fill="#d1ccc1"/>
    <path id="Path_6020" data-name="Path 6020" d="M3868.759-8032.254a2.9,2.9,0,0,0-2.9,2.9,2.9,2.9,0,0,0,2.9,2.9,2.9,2.9,0,0,0,2.9-2.9A2.9,2.9,0,0,0,3868.759-8032.254Z" transform="translate(224.096 12.451)" fill="#d1ccc1"/>
    <path id="Path_6021" data-name="Path 6021" d="M3772.611-8032.254a2.9,2.9,0,0,0-2.9,2.9,2.9,2.9,0,0,0,2.9,2.9,2.9,2.9,0,0,0,2.9-2.9A2.9,2.9,0,0,0,3772.611-8032.254Z" transform="translate(112.047 12.451)" fill="#d1ccc1"/>
    <path id="Path_6022" data-name="Path 6022" d="M3761.927-8032.254a2.9,2.9,0,0,0-2.9,2.9,2.9,2.9,0,0,0,2.9,2.9,2.9,2.9,0,0,0,2.9-2.9A2.906,2.906,0,0,0,3761.927-8032.254Z" transform="translate(99.598 12.451)" fill="#d1ccc1"/>
    <path id="Path_6023" data-name="Path 6023" d="M3751.245-8032.254a2.9,2.9,0,0,0-2.9,2.9,2.9,2.9,0,0,0,2.9,2.9,2.9,2.9,0,0,0,2.9-2.9A2.9,2.9,0,0,0,3751.245-8032.254Z" transform="translate(87.148 12.451)" fill="#d1ccc1"/>
    <path id="Path_6024" data-name="Path 6024" d="M3826.029-8032.254a2.905,2.905,0,0,0-2.9,2.9,2.9,2.9,0,0,0,2.9,2.9,2.9,2.9,0,0,0,2.9-2.9A2.9,2.9,0,0,0,3826.029-8032.254Z" transform="translate(174.296 12.451)" fill="#d1ccc1"/>
    <path id="Path_6025" data-name="Path 6025" d="M3815.343-8032.254a2.9,2.9,0,0,0-2.9,2.9,2.9,2.9,0,0,0,2.9,2.9,2.9,2.9,0,0,0,2.9-2.9A2.905,2.905,0,0,0,3815.343-8032.254Z" transform="translate(161.847 12.451)" fill="#d1ccc1"/>
    <path id="Path_6026" data-name="Path 6026" d="M3932.859-8032.254a2.9,2.9,0,0,0-2.9,2.9,2.9,2.9,0,0,0,2.9,2.9,2.9,2.9,0,0,0,2.9-2.9A2.9,2.9,0,0,0,3932.859-8032.254Z" transform="translate(298.795 12.451)" fill="#d1ccc1"/>
    <path id="Path_6027" data-name="Path 6027" d="M3964.908-8032.254a2.9,2.9,0,0,0-2.9,2.9,2.9,2.9,0,0,0,2.9,2.9,2.9,2.9,0,0,0,2.9-2.9A2.906,2.906,0,0,0,3964.908-8032.254Z" transform="translate(336.145 12.451)" fill="#d1ccc1"/>
    <path id="Path_6028" data-name="Path 6028" d="M3804.661-8032.254a2.9,2.9,0,0,0-2.9,2.9,2.9,2.9,0,0,0,2.9,2.9,2.9,2.9,0,0,0,2.9-2.9A2.9,2.9,0,0,0,3804.661-8032.254Z" transform="translate(149.397 12.451)" fill="#d1ccc1"/>
    <path id="Path_6029" data-name="Path 6029" d="M3793.977-8032.254a2.9,2.9,0,0,0-2.9,2.9,2.9,2.9,0,0,0,2.9,2.9,2.9,2.9,0,0,0,2.9-2.9A2.9,2.9,0,0,0,3793.977-8032.254Z" transform="translate(136.948 12.451)" fill="#d1ccc1"/>
    <path id="Path_6030" data-name="Path 6030" d="M3783.294-8032.254a2.9,2.9,0,0,0-2.9,2.9,2.9,2.9,0,0,0,2.9,2.9,2.9,2.9,0,0,0,2.9-2.9A2.9,2.9,0,0,0,3783.294-8032.254Z" transform="translate(124.498 12.451)" fill="#d1ccc1"/>
  </g>
</svg>
