<svg xmlns="http://www.w3.org/2000/svg" width="677.447" height="677.449" viewBox="0 0 677.447 677.449"><g transform="translate(-3673.563 8042.938)"><path d="M3676.679-7754.491a3.119,3.119,0,0,0-3.116,3.115,3.121,3.121,0,0,0,3.116,3.116,3.12,3.12,0,0,0,3.115-3.116A3.118,3.118,0,0,0,3676.679-7754.491Z" transform="translate(0 382.771)" fill="#d1ccc1"/><path d="M3676.679-7765.174a3.12,3.12,0,0,0-3.116,3.115,3.121,3.121,0,0,0,3.116,3.116,3.121,3.121,0,0,0,3.115-3.116A3.119,3.119,0,0,0,3676.679-7765.174Z" transform="translate(0 368.593)" fill="#d1ccc1"/><path d="M3676.679-7786.542a3.124,3.124,0,0,0-3.116,3.118,3.122,3.122,0,0,0,3.116,3.117,3.121,3.121,0,0,0,3.115-3.117A3.123,3.123,0,0,0,3676.679-7786.542Z" transform="translate(0 340.239)" fill="#d1ccc1"/><path d="M3676.679-7818.59a3.121,3.121,0,0,0-3.116,3.115,3.121,3.121,0,0,0,3.116,3.116,3.12,3.12,0,0,0,3.115-3.116A3.12,3.12,0,0,0,3676.679-7818.59Z" transform="translate(0 297.71)" fill="#d1ccc1"/><path d="M3676.679-7829.272a3.12,3.12,0,0,0-3.116,3.115,3.119,3.119,0,0,0,3.116,3.116,3.118,3.118,0,0,0,3.115-3.116A3.119,3.119,0,0,0,3676.679-7829.272Z" transform="translate(0 283.533)" fill="#d1ccc1"/><path d="M3676.679-7850.64a3.121,3.121,0,0,0-3.116,3.117,3.12,3.12,0,0,0,3.116,3.114,3.119,3.119,0,0,0,3.115-3.114A3.12,3.12,0,0,0,3676.679-7850.64Z" transform="translate(0 255.179)" fill="#d1ccc1"/><path d="M3676.679-7861.321a3.117,3.117,0,0,0-3.116,3.113,3.12,3.12,0,0,0,3.116,3.115,3.12,3.12,0,0,0,3.115-3.115A3.116,3.116,0,0,0,3676.679-7861.321Z" transform="translate(0 241.004)" fill="#d1ccc1"/><path d="M3676.679-7872.006a3.121,3.121,0,0,0-3.116,3.115,3.12,3.12,0,0,0,3.116,3.115,3.119,3.119,0,0,0,3.115-3.115A3.12,3.12,0,0,0,3676.679-7872.006Z" transform="translate(0 226.827)" fill="#d1ccc1"/><path d="M3676.679-7882.689a3.121,3.121,0,0,0-3.116,3.116,3.116,3.116,0,0,0,3.116,3.113,3.115,3.115,0,0,0,3.115-3.113A3.12,3.12,0,0,0,3676.679-7882.689Z" transform="translate(0 212.65)" fill="#d1ccc1"/><path d="M3676.679-7893.371a3.121,3.121,0,0,0-3.116,3.115,3.121,3.121,0,0,0,3.116,3.117,3.12,3.12,0,0,0,3.115-3.117A3.12,3.12,0,0,0,3676.679-7893.371Z" transform="translate(0 198.473)" fill="#d1ccc1"/><path d="M3676.679-8042.939a3.124,3.124,0,0,0-3.116,3.118,3.118,3.118,0,0,0,3.116,3.115,3.117,3.117,0,0,0,3.115-3.115A3.123,3.123,0,0,0,3676.679-8042.939Z" transform="translate(0 0.001)" fill="#d1ccc1"/><path d="M3847.61-8042.939a3.124,3.124,0,0,0-3.116,3.118,3.117,3.117,0,0,0,3.116,3.115,3.117,3.117,0,0,0,3.116-3.115A3.123,3.123,0,0,0,3847.61-8042.939Z" transform="translate(226.825 0.001)" fill="#d1ccc1"/><path d="M3879.661-8042.939a3.125,3.125,0,0,0-3.118,3.118,3.119,3.119,0,0,0,3.118,3.115,3.117,3.117,0,0,0,3.116-3.115A3.123,3.123,0,0,0,3879.661-8042.939Z" transform="translate(269.354 0.001)" fill="#d1ccc1"/><path d="M3858.293-8042.939a3.123,3.123,0,0,0-3.116,3.118,3.117,3.117,0,0,0,3.116,3.115,3.117,3.117,0,0,0,3.115-3.115A3.123,3.123,0,0,0,3858.293-8042.939Z" transform="translate(241.002 0.001)" fill="#d1ccc1"/><path d="M3890.343-8042.939a3.123,3.123,0,0,0-3.115,3.118,3.117,3.117,0,0,0,3.115,3.115,3.117,3.117,0,0,0,3.116-3.115A3.123,3.123,0,0,0,3890.343-8042.939Z" transform="translate(283.532 0.001)" fill="#d1ccc1"/><path d="M3901.026-8042.939a3.124,3.124,0,0,0-3.116,3.118,3.117,3.117,0,0,0,3.116,3.115,3.116,3.116,0,0,0,3.115-3.115A3.123,3.123,0,0,0,3901.026-8042.939Z" transform="translate(297.708 0.001)" fill="#d1ccc1"/><path d="M3911.709-8042.939a3.124,3.124,0,0,0-3.116,3.118,3.117,3.117,0,0,0,3.116,3.115,3.117,3.117,0,0,0,3.116-3.115A3.123,3.123,0,0,0,3911.709-8042.939Z" transform="translate(311.885 0.001)" fill="#d1ccc1"/><path d="M3922.392-8042.939a3.124,3.124,0,0,0-3.116,3.118,3.117,3.117,0,0,0,3.116,3.115,3.117,3.117,0,0,0,3.118-3.115A3.124,3.124,0,0,0,3922.392-8042.939Z" transform="translate(326.061 0.001)" fill="#d1ccc1"/><path d="M3954.442-8042.939a3.123,3.123,0,0,0-3.116,3.118,3.117,3.117,0,0,0,3.116,3.115,3.117,3.117,0,0,0,3.116-3.115A3.123,3.123,0,0,0,3954.442-8042.939Z" transform="translate(368.591 0.001)" fill="#d1ccc1"/><path d="M3943.756-8042.939a3.121,3.121,0,0,0-3.114,3.118,3.115,3.115,0,0,0,3.114,3.115,3.118,3.118,0,0,0,3.118-3.115A3.124,3.124,0,0,0,3943.756-8042.939Z" transform="translate(354.415 0.001)" fill="#d1ccc1"/><path d="M3676.679-7797.224a3.122,3.122,0,0,0-3.116,3.117,3.122,3.122,0,0,0,3.116,3.118,3.121,3.121,0,0,0,3.115-3.118A3.121,3.121,0,0,0,3676.679-7797.224Z" transform="translate(0 326.062)" fill="#d1ccc1"/><path d="M3676.679-7839.957a3.121,3.121,0,0,0-3.116,3.116,3.121,3.121,0,0,0,3.116,3.116,3.12,3.12,0,0,0,3.115-3.116A3.12,3.12,0,0,0,3676.679-7839.957Z" transform="translate(0 269.357)" fill="#d1ccc1"/><path d="M3836.927-8042.939a3.124,3.124,0,0,0-3.116,3.118,3.117,3.117,0,0,0,3.116,3.115,3.117,3.117,0,0,0,3.116-3.115A3.123,3.123,0,0,0,3836.927-8042.939Z" transform="translate(212.649 0.001)" fill="#d1ccc1"/><path d="M3868.976-8042.939a3.123,3.123,0,0,0-3.115,3.118,3.117,3.117,0,0,0,3.115,3.115,3.118,3.118,0,0,0,3.118-3.115A3.124,3.124,0,0,0,3868.976-8042.939Z" transform="translate(255.178 0.001)" fill="#d1ccc1"/><path d="M3676.679-7807.905a3.116,3.116,0,0,0-3.116,3.112,3.122,3.122,0,0,0,3.116,3.116,3.121,3.121,0,0,0,3.115-3.116A3.116,3.116,0,0,0,3676.679-7807.905Z" transform="translate(0 311.887)" fill="#d1ccc1"/><path d="M3772.827-7754.491a3.119,3.119,0,0,0-3.116,3.115,3.121,3.121,0,0,0,3.116,3.116,3.121,3.121,0,0,0,3.118-3.116A3.118,3.118,0,0,0,3772.827-7754.491Z" transform="translate(127.588 382.771)" fill="#d1ccc1"/><path d="M3772.827-7765.174a3.12,3.12,0,0,0-3.116,3.115,3.121,3.121,0,0,0,3.116,3.116,3.121,3.121,0,0,0,3.118-3.116A3.119,3.119,0,0,0,3772.827-7765.174Z" transform="translate(127.588 368.593)" fill="#d1ccc1"/><path d="M3676.679-7775.858a3.122,3.122,0,0,0-3.116,3.116,3.119,3.119,0,0,0,3.116,3.116,3.119,3.119,0,0,0,3.115-3.116A3.121,3.121,0,0,0,3676.679-7775.858Z" transform="translate(0 354.417)" fill="#d1ccc1"/><path d="M3772.827-7775.858a3.122,3.122,0,0,0-3.116,3.116,3.119,3.119,0,0,0,3.116,3.116,3.119,3.119,0,0,0,3.118-3.116A3.121,3.121,0,0,0,3772.827-7775.858Z" transform="translate(127.588 354.417)" fill="#d1ccc1"/><path d="M3772.827-7786.542a3.124,3.124,0,0,0-3.116,3.118,3.122,3.122,0,0,0,3.116,3.117,3.121,3.121,0,0,0,3.118-3.117A3.123,3.123,0,0,0,3772.827-7786.542Z" transform="translate(127.588 340.239)" fill="#d1ccc1"/><path d="M3772.827-7818.59a3.121,3.121,0,0,0-3.116,3.115,3.121,3.121,0,0,0,3.116,3.116,3.121,3.121,0,0,0,3.118-3.116A3.12,3.12,0,0,0,3772.827-7818.59Z" transform="translate(127.588 297.71)" fill="#d1ccc1"/><path d="M3772.827-7829.272a3.12,3.12,0,0,0-3.116,3.115,3.119,3.119,0,0,0,3.116,3.116,3.118,3.118,0,0,0,3.118-3.116A3.119,3.119,0,0,0,3772.827-7829.272Z" transform="translate(127.588 283.533)" fill="#d1ccc1"/><path d="M3772.827-7850.64a3.121,3.121,0,0,0-3.116,3.117,3.12,3.12,0,0,0,3.116,3.114,3.119,3.119,0,0,0,3.118-3.114A3.12,3.12,0,0,0,3772.827-7850.64Z" transform="translate(127.588 255.179)" fill="#d1ccc1"/><path d="M3772.827-7861.321a3.117,3.117,0,0,0-3.116,3.113,3.12,3.12,0,0,0,3.116,3.115,3.12,3.12,0,0,0,3.118-3.115A3.117,3.117,0,0,0,3772.827-7861.321Z" transform="translate(127.588 241.004)" fill="#d1ccc1"/><path d="M3772.827-7872.006a3.121,3.121,0,0,0-3.116,3.115,3.12,3.12,0,0,0,3.116,3.115,3.119,3.119,0,0,0,3.118-3.115A3.12,3.12,0,0,0,3772.827-7872.006Z" transform="translate(127.588 226.827)" fill="#d1ccc1"/><path d="M3772.827-7882.689a3.121,3.121,0,0,0-3.116,3.116,3.116,3.116,0,0,0,3.116,3.113,3.115,3.115,0,0,0,3.118-3.113A3.121,3.121,0,0,0,3772.827-7882.689Z" transform="translate(127.588 212.65)" fill="#d1ccc1"/><path d="M3772.827-7893.371a3.121,3.121,0,0,0-3.116,3.115,3.121,3.121,0,0,0,3.116,3.117,3.12,3.12,0,0,0,3.118-3.117A3.12,3.12,0,0,0,3772.827-7893.371Z" transform="translate(127.588 198.473)" fill="#d1ccc1"/><path d="M3772.827-8042.939a3.124,3.124,0,0,0-3.116,3.118,3.118,3.118,0,0,0,3.116,3.115,3.117,3.117,0,0,0,3.118-3.115A3.123,3.123,0,0,0,3772.827-8042.939Z" transform="translate(127.588 0.001)" fill="#d1ccc1"/><path d="M3772.827-7797.224a3.122,3.122,0,0,0-3.116,3.117,3.122,3.122,0,0,0,3.116,3.118,3.121,3.121,0,0,0,3.118-3.118A3.121,3.121,0,0,0,3772.827-7797.224Z" transform="translate(127.588 326.062)" fill="#d1ccc1"/><path d="M3772.827-7839.957a3.121,3.121,0,0,0-3.116,3.116,3.121,3.121,0,0,0,3.116,3.116,3.12,3.12,0,0,0,3.118-3.116A3.12,3.12,0,0,0,3772.827-7839.957Z" transform="translate(127.588 269.357)" fill="#d1ccc1"/><path d="M3772.827-7807.905a3.116,3.116,0,0,0-3.116,3.112,3.122,3.122,0,0,0,3.116,3.116,3.121,3.121,0,0,0,3.118-3.116A3.116,3.116,0,0,0,3772.827-7807.905Z" transform="translate(127.588 311.887)" fill="#d1ccc1"/><path d="M3826.246-8042.939a3.125,3.125,0,0,0-3.118,3.118,3.119,3.119,0,0,0,3.118,3.115,3.117,3.117,0,0,0,3.115-3.115A3.123,3.123,0,0,0,3826.246-8042.939Z" transform="translate(198.471 0.001)" fill="#d1ccc1"/><path d="M3676.679-7904.057a3.121,3.121,0,0,0-3.116,3.117,3.123,3.123,0,0,0,3.116,3.118,3.122,3.122,0,0,0,3.115-3.118A3.12,3.12,0,0,0,3676.679-7904.057Z" transform="translate(0 184.297)" fill="#d1ccc1"/><path d="M3772.827-7904.057a3.121,3.121,0,0,0-3.116,3.117,3.123,3.123,0,0,0,3.116,3.118,3.123,3.123,0,0,0,3.118-3.118A3.12,3.12,0,0,0,3772.827-7904.057Z" transform="translate(127.588 184.297)" fill="#d1ccc1"/><path d="M3933.075-8042.939a3.124,3.124,0,0,0-3.116,3.118,3.118,3.118,0,0,0,3.116,3.115,3.117,3.117,0,0,0,3.118-3.115A3.123,3.123,0,0,0,3933.075-8042.939Z" transform="translate(340.238 0.001)" fill="#d1ccc1"/><path d="M3965.124-8036.706a3.119,3.119,0,0,0,3.119-3.115,3.125,3.125,0,0,0-3.119-3.118,3.123,3.123,0,0,0-3.115,3.118A3.117,3.117,0,0,0,3965.124-8036.706Z" transform="translate(382.768 0.001)" fill="#d1ccc1"/><path d="M3676.679-7946.788a3.12,3.12,0,0,0-3.116,3.117,3.122,3.122,0,0,0,3.116,3.117,3.122,3.122,0,0,0,3.115-3.117A3.12,3.12,0,0,0,3676.679-7946.788Z" transform="translate(0 127.589)" fill="#d1ccc1"/><path d="M3772.827-7946.788a3.121,3.121,0,0,0-3.116,3.117,3.122,3.122,0,0,0,3.116,3.117,3.122,3.122,0,0,0,3.118-3.117A3.12,3.12,0,0,0,3772.827-7946.788Z" transform="translate(127.588 127.589)" fill="#d1ccc1"/><path d="M3815.56-8042.939a3.123,3.123,0,0,0-3.115,3.118,3.117,3.117,0,0,0,3.115,3.115,3.119,3.119,0,0,0,3.118-3.115A3.125,3.125,0,0,0,3815.56-8042.939Z" transform="translate(184.295 0.001)" fill="#d1ccc1"/><path d="M3676.679-7914.738a3.119,3.119,0,0,0-3.116,3.115,3.119,3.119,0,0,0,3.116,3.114,3.119,3.119,0,0,0,3.115-3.114A3.118,3.118,0,0,0,3676.679-7914.738Z" transform="translate(0 170.122)" fill="#d1ccc1"/><path d="M3772.827-7914.738a3.119,3.119,0,0,0-3.116,3.115,3.119,3.119,0,0,0,3.116,3.114,3.119,3.119,0,0,0,3.118-3.114A3.118,3.118,0,0,0,3772.827-7914.738Z" transform="translate(127.588 170.122)" fill="#d1ccc1"/><path d="M3804.877-7754.491a3.118,3.118,0,0,0-3.116,3.115,3.121,3.121,0,0,0,3.116,3.116,3.121,3.121,0,0,0,3.116-3.116A3.119,3.119,0,0,0,3804.877-7754.491Z" transform="translate(170.118 382.771)" fill="#d1ccc1"/><path d="M3804.877-7765.174a3.12,3.12,0,0,0-3.116,3.115,3.121,3.121,0,0,0,3.116,3.116,3.121,3.121,0,0,0,3.116-3.116A3.12,3.12,0,0,0,3804.877-7765.174Z" transform="translate(170.118 368.593)" fill="#d1ccc1"/><path d="M3804.877-7775.858a3.121,3.121,0,0,0-3.116,3.116,3.119,3.119,0,0,0,3.116,3.116,3.119,3.119,0,0,0,3.116-3.116A3.122,3.122,0,0,0,3804.877-7775.858Z" transform="translate(170.118 354.417)" fill="#d1ccc1"/><path d="M3804.877-7786.542a3.123,3.123,0,0,0-3.116,3.118,3.121,3.121,0,0,0,3.116,3.117,3.122,3.122,0,0,0,3.116-3.117A3.124,3.124,0,0,0,3804.877-7786.542Z" transform="translate(170.118 340.239)" fill="#d1ccc1"/><path d="M3804.877-7818.59a3.12,3.12,0,0,0-3.116,3.115,3.121,3.121,0,0,0,3.116,3.116,3.121,3.121,0,0,0,3.116-3.116A3.121,3.121,0,0,0,3804.877-7818.59Z" transform="translate(170.118 297.71)" fill="#d1ccc1"/><path d="M3804.877-7829.272a3.12,3.12,0,0,0-3.116,3.115,3.119,3.119,0,0,0,3.116,3.116,3.119,3.119,0,0,0,3.116-3.116A3.12,3.12,0,0,0,3804.877-7829.272Z" transform="translate(170.118 283.533)" fill="#d1ccc1"/><path d="M3804.877-7850.64a3.121,3.121,0,0,0-3.116,3.117,3.12,3.12,0,0,0,3.116,3.114,3.12,3.12,0,0,0,3.116-3.114A3.121,3.121,0,0,0,3804.877-7850.64Z" transform="translate(170.118 255.179)" fill="#d1ccc1"/><path d="M3804.877-7861.321a3.117,3.117,0,0,0-3.116,3.113,3.12,3.12,0,0,0,3.116,3.115,3.12,3.12,0,0,0,3.116-3.115A3.117,3.117,0,0,0,3804.877-7861.321Z" transform="translate(170.118 241.004)" fill="#d1ccc1"/><path d="M3804.877-7872.006a3.12,3.12,0,0,0-3.116,3.115,3.12,3.12,0,0,0,3.116,3.115,3.12,3.12,0,0,0,3.116-3.115A3.121,3.121,0,0,0,3804.877-7872.006Z" transform="translate(170.118 226.827)" fill="#d1ccc1"/><path d="M3804.877-7882.689a3.121,3.121,0,0,0-3.116,3.116,3.115,3.115,0,0,0,3.116,3.113,3.116,3.116,0,0,0,3.116-3.113A3.121,3.121,0,0,0,3804.877-7882.689Z" transform="translate(170.118 212.65)" fill="#d1ccc1"/><path d="M3804.877-7893.371a3.12,3.12,0,0,0-3.116,3.115,3.121,3.121,0,0,0,3.116,3.117,3.121,3.121,0,0,0,3.116-3.117A3.121,3.121,0,0,0,3804.877-7893.371Z" transform="translate(170.118 198.473)" fill="#d1ccc1"/><path d="M3804.877-8042.939a3.124,3.124,0,0,0-3.116,3.118,3.117,3.117,0,0,0,3.116,3.115,3.118,3.118,0,0,0,3.116-3.115A3.124,3.124,0,0,0,3804.877-8042.939Z" transform="translate(170.118 0.001)" fill="#d1ccc1"/><path d="M3804.877-7797.224a3.121,3.121,0,0,0-3.116,3.117,3.122,3.122,0,0,0,3.116,3.118,3.122,3.122,0,0,0,3.116-3.118A3.122,3.122,0,0,0,3804.877-7797.224Z" transform="translate(170.118 326.062)" fill="#d1ccc1"/><path d="M3804.877-7839.957a3.121,3.121,0,0,0-3.116,3.116,3.121,3.121,0,0,0,3.116,3.116,3.121,3.121,0,0,0,3.116-3.116A3.121,3.121,0,0,0,3804.877-7839.957Z" transform="translate(170.118 269.357)" fill="#d1ccc1"/><path d="M3804.877-7807.905a3.116,3.116,0,0,0-3.116,3.112,3.121,3.121,0,0,0,3.116,3.116,3.122,3.122,0,0,0,3.116-3.116A3.116,3.116,0,0,0,3804.877-7807.905Z" transform="translate(170.118 311.887)" fill="#d1ccc1"/><path d="M3804.877-7904.057a3.121,3.121,0,0,0-3.116,3.117,3.123,3.123,0,0,0,3.116,3.118,3.123,3.123,0,0,0,3.116-3.118A3.121,3.121,0,0,0,3804.877-7904.057Z" transform="translate(170.118 184.297)" fill="#d1ccc1"/><path d="M3804.877-7946.788a3.12,3.12,0,0,0-3.116,3.117,3.122,3.122,0,0,0,3.116,3.117,3.123,3.123,0,0,0,3.116-3.117A3.121,3.121,0,0,0,3804.877-7946.788Z" transform="translate(170.118 127.589)" fill="#d1ccc1"/><path d="M3676.679-7925.421a3.121,3.121,0,0,0-3.116,3.115,3.122,3.122,0,0,0,3.116,3.116,3.121,3.121,0,0,0,3.115-3.116A3.12,3.12,0,0,0,3676.679-7925.421Z" transform="translate(0 155.943)" fill="#d1ccc1"/><path d="M3772.827-7925.421a3.121,3.121,0,0,0-3.116,3.115,3.122,3.122,0,0,0,3.116,3.116,3.121,3.121,0,0,0,3.118-3.116A3.12,3.12,0,0,0,3772.827-7925.421Z" transform="translate(127.588 155.943)" fill="#d1ccc1"/><path d="M3794.194-7754.491a3.118,3.118,0,0,0-3.116,3.115,3.121,3.121,0,0,0,3.116,3.116,3.121,3.121,0,0,0,3.116-3.116A3.118,3.118,0,0,0,3794.194-7754.491Z" transform="translate(155.942 382.771)" fill="#d1ccc1"/><path d="M3794.194-7765.174a3.119,3.119,0,0,0-3.116,3.115,3.121,3.121,0,0,0,3.116,3.116,3.121,3.121,0,0,0,3.116-3.116A3.12,3.12,0,0,0,3794.194-7765.174Z" transform="translate(155.942 368.593)" fill="#d1ccc1"/><path d="M3794.194-7775.858a3.121,3.121,0,0,0-3.116,3.116,3.119,3.119,0,0,0,3.116,3.116,3.119,3.119,0,0,0,3.116-3.116A3.121,3.121,0,0,0,3794.194-7775.858Z" transform="translate(155.942 354.417)" fill="#d1ccc1"/><path d="M3794.194-7786.542a3.123,3.123,0,0,0-3.116,3.118,3.121,3.121,0,0,0,3.116,3.117,3.122,3.122,0,0,0,3.116-3.117A3.123,3.123,0,0,0,3794.194-7786.542Z" transform="translate(155.942 340.239)" fill="#d1ccc1"/><path d="M3794.194-7818.59a3.12,3.12,0,0,0-3.116,3.115,3.121,3.121,0,0,0,3.116,3.116,3.121,3.121,0,0,0,3.116-3.116A3.121,3.121,0,0,0,3794.194-7818.59Z" transform="translate(155.942 297.71)" fill="#d1ccc1"/><path d="M3794.194-7829.272a3.119,3.119,0,0,0-3.116,3.115,3.118,3.118,0,0,0,3.116,3.116,3.119,3.119,0,0,0,3.116-3.116A3.12,3.12,0,0,0,3794.194-7829.272Z" transform="translate(155.942 283.533)" fill="#d1ccc1"/><path d="M3794.194-7850.64a3.121,3.121,0,0,0-3.116,3.117,3.119,3.119,0,0,0,3.116,3.114,3.12,3.12,0,0,0,3.116-3.114A3.121,3.121,0,0,0,3794.194-7850.64Z" transform="translate(155.942 255.179)" fill="#d1ccc1"/><path d="M3794.194-7861.321a3.117,3.117,0,0,0-3.116,3.113,3.12,3.12,0,0,0,3.116,3.115,3.12,3.12,0,0,0,3.116-3.115A3.117,3.117,0,0,0,3794.194-7861.321Z" transform="translate(155.942 241.004)" fill="#d1ccc1"/><path d="M3794.194-7872.006a3.12,3.12,0,0,0-3.116,3.115,3.119,3.119,0,0,0,3.116,3.115,3.12,3.12,0,0,0,3.116-3.115A3.121,3.121,0,0,0,3794.194-7872.006Z" transform="translate(155.942 226.827)" fill="#d1ccc1"/><path d="M3794.194-7882.689a3.121,3.121,0,0,0-3.116,3.116,3.115,3.115,0,0,0,3.116,3.113,3.116,3.116,0,0,0,3.116-3.113A3.121,3.121,0,0,0,3794.194-7882.689Z" transform="translate(155.942 212.65)" fill="#d1ccc1"/><path d="M3794.194-7893.371a3.12,3.12,0,0,0-3.116,3.115,3.121,3.121,0,0,0,3.116,3.117,3.121,3.121,0,0,0,3.116-3.117A3.121,3.121,0,0,0,3794.194-7893.371Z" transform="translate(155.942 198.473)" fill="#d1ccc1"/><path d="M3794.194-8042.939a3.123,3.123,0,0,0-3.116,3.118,3.117,3.117,0,0,0,3.116,3.115,3.117,3.117,0,0,0,3.116-3.115A3.124,3.124,0,0,0,3794.194-8042.939Z" transform="translate(155.942 0.001)" fill="#d1ccc1"/><path d="M3794.194-7797.224a3.121,3.121,0,0,0-3.116,3.117,3.121,3.121,0,0,0,3.116,3.118,3.122,3.122,0,0,0,3.116-3.118A3.122,3.122,0,0,0,3794.194-7797.224Z" transform="translate(155.942 326.062)" fill="#d1ccc1"/><path d="M3794.194-7839.957a3.12,3.12,0,0,0-3.116,3.116,3.12,3.12,0,0,0,3.116,3.116,3.121,3.121,0,0,0,3.116-3.116A3.121,3.121,0,0,0,3794.194-7839.957Z" transform="translate(155.942 269.357)" fill="#d1ccc1"/><path d="M3794.194-7807.905a3.116,3.116,0,0,0-3.116,3.112,3.121,3.121,0,0,0,3.116,3.116,3.121,3.121,0,0,0,3.116-3.116A3.116,3.116,0,0,0,3794.194-7807.905Z" transform="translate(155.942 311.887)" fill="#d1ccc1"/><path d="M3794.194-7904.057a3.121,3.121,0,0,0-3.116,3.117,3.123,3.123,0,0,0,3.116,3.118,3.123,3.123,0,0,0,3.116-3.118A3.121,3.121,0,0,0,3794.194-7904.057Z" transform="translate(155.942 184.297)" fill="#d1ccc1"/><path d="M3794.194-7946.788a3.12,3.12,0,0,0-3.116,3.117,3.122,3.122,0,0,0,3.116,3.117,3.122,3.122,0,0,0,3.116-3.117A3.12,3.12,0,0,0,3794.194-7946.788Z" transform="translate(155.942 127.589)" fill="#d1ccc1"/><path d="M3676.679-7936.106a3.122,3.122,0,0,0-3.116,3.116,3.117,3.117,0,0,0,3.116,3.114,3.117,3.117,0,0,0,3.115-3.114A3.121,3.121,0,0,0,3676.679-7936.106Z" transform="translate(0 141.769)" fill="#d1ccc1"/><path d="M3772.827-7936.106a3.122,3.122,0,0,0-3.116,3.116,3.117,3.117,0,0,0,3.116,3.114,3.117,3.117,0,0,0,3.118-3.114A3.121,3.121,0,0,0,3772.827-7936.106Z" transform="translate(127.588 141.769)" fill="#d1ccc1"/><path d="M3783.51-7754.491a3.118,3.118,0,0,0-3.115,3.115,3.12,3.12,0,0,0,3.115,3.116,3.121,3.121,0,0,0,3.116-3.116A3.118,3.118,0,0,0,3783.51-7754.491Z" transform="translate(141.766 382.771)" fill="#d1ccc1"/><path d="M3783.51-7765.174a3.119,3.119,0,0,0-3.115,3.115,3.121,3.121,0,0,0,3.115,3.116,3.121,3.121,0,0,0,3.116-3.116A3.12,3.12,0,0,0,3783.51-7765.174Z" transform="translate(141.766 368.593)" fill="#d1ccc1"/><path d="M3783.51-7775.858a3.121,3.121,0,0,0-3.115,3.116,3.119,3.119,0,0,0,3.115,3.116,3.119,3.119,0,0,0,3.116-3.116A3.121,3.121,0,0,0,3783.51-7775.858Z" transform="translate(141.766 354.417)" fill="#d1ccc1"/><path d="M3783.51-7786.542a3.123,3.123,0,0,0-3.115,3.118,3.121,3.121,0,0,0,3.115,3.117,3.121,3.121,0,0,0,3.116-3.117A3.123,3.123,0,0,0,3783.51-7786.542Z" transform="translate(141.766 340.239)" fill="#d1ccc1"/><path d="M3783.51-7818.59a3.12,3.12,0,0,0-3.115,3.115,3.12,3.12,0,0,0,3.115,3.116,3.121,3.121,0,0,0,3.116-3.116A3.12,3.12,0,0,0,3783.51-7818.59Z" transform="translate(141.766 297.71)" fill="#d1ccc1"/><path d="M3783.51-7829.272a3.119,3.119,0,0,0-3.115,3.115,3.118,3.118,0,0,0,3.115,3.116,3.118,3.118,0,0,0,3.116-3.116A3.12,3.12,0,0,0,3783.51-7829.272Z" transform="translate(141.766 283.533)" fill="#d1ccc1"/><path d="M3783.51-7850.64a3.12,3.12,0,0,0-3.115,3.117,3.119,3.119,0,0,0,3.115,3.114,3.119,3.119,0,0,0,3.116-3.114A3.121,3.121,0,0,0,3783.51-7850.64Z" transform="translate(141.766 255.179)" fill="#d1ccc1"/><path d="M3783.51-7861.321a3.116,3.116,0,0,0-3.115,3.113,3.12,3.12,0,0,0,3.115,3.115,3.12,3.12,0,0,0,3.116-3.115A3.117,3.117,0,0,0,3783.51-7861.321Z" transform="translate(141.766 241.004)" fill="#d1ccc1"/><path d="M3783.51-7872.006a3.12,3.12,0,0,0-3.115,3.115,3.119,3.119,0,0,0,3.115,3.115,3.12,3.12,0,0,0,3.116-3.115A3.12,3.12,0,0,0,3783.51-7872.006Z" transform="translate(141.766 226.827)" fill="#d1ccc1"/><path d="M3783.51-7882.689a3.12,3.12,0,0,0-3.115,3.116,3.115,3.115,0,0,0,3.115,3.113,3.115,3.115,0,0,0,3.116-3.113A3.121,3.121,0,0,0,3783.51-7882.689Z" transform="translate(141.766 212.65)" fill="#d1ccc1"/><path d="M3783.51-7893.371a3.12,3.12,0,0,0-3.115,3.115,3.12,3.12,0,0,0,3.115,3.117,3.121,3.121,0,0,0,3.116-3.117A3.12,3.12,0,0,0,3783.51-7893.371Z" transform="translate(141.766 198.473)" fill="#d1ccc1"/><path d="M3783.51-8042.939a3.123,3.123,0,0,0-3.115,3.118,3.117,3.117,0,0,0,3.115,3.115,3.117,3.117,0,0,0,3.116-3.115A3.123,3.123,0,0,0,3783.51-8042.939Z" transform="translate(141.766 0.001)" fill="#d1ccc1"/><path d="M3783.51-7797.224a3.121,3.121,0,0,0-3.115,3.117,3.121,3.121,0,0,0,3.115,3.118,3.121,3.121,0,0,0,3.116-3.118A3.121,3.121,0,0,0,3783.51-7797.224Z" transform="translate(141.766 326.062)" fill="#d1ccc1"/><path d="M3783.51-7839.957a3.12,3.12,0,0,0-3.115,3.116,3.12,3.12,0,0,0,3.115,3.116,3.12,3.12,0,0,0,3.116-3.116A3.12,3.12,0,0,0,3783.51-7839.957Z" transform="translate(141.766 269.357)" fill="#d1ccc1"/><path d="M3783.51-7807.905a3.116,3.116,0,0,0-3.115,3.112,3.121,3.121,0,0,0,3.115,3.116,3.121,3.121,0,0,0,3.116-3.116A3.116,3.116,0,0,0,3783.51-7807.905Z" transform="translate(141.766 311.887)" fill="#d1ccc1"/><path d="M3783.51-7904.057a3.12,3.12,0,0,0-3.115,3.117,3.122,3.122,0,0,0,3.115,3.118,3.123,3.123,0,0,0,3.116-3.118A3.121,3.121,0,0,0,3783.51-7904.057Z" transform="translate(141.766 184.297)" fill="#d1ccc1"/><path d="M3783.51-7946.788a3.12,3.12,0,0,0-3.115,3.117,3.122,3.122,0,0,0,3.115,3.117,3.122,3.122,0,0,0,3.116-3.117A3.12,3.12,0,0,0,3783.51-7946.788Z" transform="translate(141.766 127.589)" fill="#d1ccc1"/><path d="M3676.679-7957.472a3.121,3.121,0,0,0-3.116,3.117,3.124,3.124,0,0,0,3.116,3.118,3.124,3.124,0,0,0,3.115-3.118A3.12,3.12,0,0,0,3676.679-7957.472Z" transform="translate(0 113.413)" fill="#d1ccc1"/><path d="M3772.827-7957.472a3.121,3.121,0,0,0-3.116,3.117,3.125,3.125,0,0,0,3.116,3.118,3.124,3.124,0,0,0,3.118-3.118A3.12,3.12,0,0,0,3772.827-7957.472Z" transform="translate(127.588 113.413)" fill="#d1ccc1"/><path d="M3762.144-7754.491a3.118,3.118,0,0,0-3.116,3.115,3.121,3.121,0,0,0,3.116,3.116,3.122,3.122,0,0,0,3.118-3.116A3.12,3.12,0,0,0,3762.144-7754.491Z" transform="translate(113.412 382.771)" fill="#d1ccc1"/><path d="M3762.144-7765.174a3.12,3.12,0,0,0-3.116,3.115,3.121,3.121,0,0,0,3.116,3.116,3.122,3.122,0,0,0,3.118-3.116A3.121,3.121,0,0,0,3762.144-7765.174Z" transform="translate(113.412 368.593)" fill="#d1ccc1"/><path d="M3762.144-7775.858a3.121,3.121,0,0,0-3.116,3.116,3.119,3.119,0,0,0,3.116,3.116,3.12,3.12,0,0,0,3.118-3.116A3.123,3.123,0,0,0,3762.144-7775.858Z" transform="translate(113.412 354.417)" fill="#d1ccc1"/><path d="M3762.144-7786.542a3.123,3.123,0,0,0-3.116,3.118,3.121,3.121,0,0,0,3.116,3.117,3.123,3.123,0,0,0,3.118-3.117A3.125,3.125,0,0,0,3762.144-7786.542Z" transform="translate(113.412 340.239)" fill="#d1ccc1"/><path d="M3762.144-7818.59a3.12,3.12,0,0,0-3.116,3.115,3.121,3.121,0,0,0,3.116,3.116,3.122,3.122,0,0,0,3.118-3.116A3.122,3.122,0,0,0,3762.144-7818.59Z" transform="translate(113.412 297.71)" fill="#d1ccc1"/><path d="M3762.144-7829.272a3.12,3.12,0,0,0-3.116,3.115,3.119,3.119,0,0,0,3.116,3.116,3.12,3.12,0,0,0,3.118-3.116A3.121,3.121,0,0,0,3762.144-7829.272Z" transform="translate(113.412 283.533)" fill="#d1ccc1"/><path d="M3762.144-7850.64a3.121,3.121,0,0,0-3.116,3.117,3.12,3.12,0,0,0,3.116,3.114,3.121,3.121,0,0,0,3.118-3.114A3.122,3.122,0,0,0,3762.144-7850.64Z" transform="translate(113.412 255.179)" fill="#d1ccc1"/><path d="M3762.144-7861.321a3.117,3.117,0,0,0-3.116,3.113,3.12,3.12,0,0,0,3.116,3.115,3.121,3.121,0,0,0,3.118-3.115A3.118,3.118,0,0,0,3762.144-7861.321Z" transform="translate(113.412 241.004)" fill="#d1ccc1"/><path d="M3762.144-7872.006a3.12,3.12,0,0,0-3.116,3.115,3.12,3.12,0,0,0,3.116,3.115,3.121,3.121,0,0,0,3.118-3.115A3.122,3.122,0,0,0,3762.144-7872.006Z" transform="translate(113.412 226.827)" fill="#d1ccc1"/><path d="M3762.144-7882.689a3.121,3.121,0,0,0-3.116,3.116,3.115,3.115,0,0,0,3.116,3.113,3.117,3.117,0,0,0,3.118-3.113A3.122,3.122,0,0,0,3762.144-7882.689Z" transform="translate(113.412 212.65)" fill="#d1ccc1"/><path d="M3762.144-7893.371a3.12,3.12,0,0,0-3.116,3.115,3.121,3.121,0,0,0,3.116,3.117,3.122,3.122,0,0,0,3.118-3.117A3.122,3.122,0,0,0,3762.144-7893.371Z" transform="translate(113.412 198.473)" fill="#d1ccc1"/><path d="M3762.144-8042.939a3.123,3.123,0,0,0-3.116,3.118,3.117,3.117,0,0,0,3.116,3.115,3.119,3.119,0,0,0,3.118-3.115A3.125,3.125,0,0,0,3762.144-8042.939Z" transform="translate(113.412 0.001)" fill="#d1ccc1"/><path d="M3762.144-7797.224a3.121,3.121,0,0,0-3.116,3.117,3.122,3.122,0,0,0,3.116,3.118,3.123,3.123,0,0,0,3.118-3.118A3.123,3.123,0,0,0,3762.144-7797.224Z" transform="translate(113.412 326.062)" fill="#d1ccc1"/><path d="M3762.144-7839.957a3.121,3.121,0,0,0-3.116,3.116,3.121,3.121,0,0,0,3.116,3.116,3.122,3.122,0,0,0,3.118-3.116A3.122,3.122,0,0,0,3762.144-7839.957Z" transform="translate(113.412 269.357)" fill="#d1ccc1"/><path d="M3762.144-7807.905a3.116,3.116,0,0,0-3.116,3.112,3.121,3.121,0,0,0,3.116,3.116,3.123,3.123,0,0,0,3.118-3.116A3.117,3.117,0,0,0,3762.144-7807.905Z" transform="translate(113.412 311.887)" fill="#d1ccc1"/><path d="M3762.144-7904.057a3.121,3.121,0,0,0-3.116,3.117,3.123,3.123,0,0,0,3.116,3.118,3.124,3.124,0,0,0,3.118-3.118A3.122,3.122,0,0,0,3762.144-7904.057Z" transform="translate(113.412 184.297)" fill="#d1ccc1"/><path d="M3762.144-7946.788a3.12,3.12,0,0,0-3.116,3.117,3.122,3.122,0,0,0,3.116,3.117,3.123,3.123,0,0,0,3.118-3.117A3.122,3.122,0,0,0,3762.144-7946.788Z" transform="translate(113.412 127.589)" fill="#d1ccc1"/><path d="M3762.144-7914.738a3.118,3.118,0,0,0-3.116,3.115,3.119,3.119,0,0,0,3.116,3.114,3.12,3.12,0,0,0,3.118-3.114A3.12,3.12,0,0,0,3762.144-7914.738Z" transform="translate(113.412 170.122)" fill="#d1ccc1"/><path d="M3762.144-7925.421a3.12,3.12,0,0,0-3.116,3.115,3.121,3.121,0,0,0,3.116,3.116,3.123,3.123,0,0,0,3.118-3.116A3.122,3.122,0,0,0,3762.144-7925.421Z" transform="translate(113.412 155.943)" fill="#d1ccc1"/><path d="M3762.144-7936.106a3.121,3.121,0,0,0-3.116,3.116,3.117,3.117,0,0,0,3.116,3.114,3.118,3.118,0,0,0,3.118-3.114A3.123,3.123,0,0,0,3762.144-7936.106Z" transform="translate(113.412 141.769)" fill="#d1ccc1"/><path d="M3762.144-7957.472a3.121,3.121,0,0,0-3.116,3.117,3.124,3.124,0,0,0,3.116,3.118,3.126,3.126,0,0,0,3.118-3.118A3.122,3.122,0,0,0,3762.144-7957.472Z" transform="translate(113.412 113.413)" fill="#d1ccc1"/><path d="M3804.877-7957.472a3.121,3.121,0,0,0-3.116,3.117,3.124,3.124,0,0,0,3.116,3.118,3.125,3.125,0,0,0,3.116-3.118A3.121,3.121,0,0,0,3804.877-7957.472Z" transform="translate(170.118 113.413)" fill="#d1ccc1"/><path d="M3794.194-7957.472a3.121,3.121,0,0,0-3.116,3.117,3.124,3.124,0,0,0,3.116,3.118,3.124,3.124,0,0,0,3.116-3.118A3.121,3.121,0,0,0,3794.194-7957.472Z" transform="translate(155.942 113.413)" fill="#d1ccc1"/><path d="M3783.51-7957.472a3.12,3.12,0,0,0-3.115,3.117,3.124,3.124,0,0,0,3.115,3.118,3.124,3.124,0,0,0,3.116-3.118A3.121,3.121,0,0,0,3783.51-7957.472Z" transform="translate(141.766 113.413)" fill="#d1ccc1"/><path d="M3676.679-7968.153a3.116,3.116,0,0,0-3.116,3.112,3.121,3.121,0,0,0,3.116,3.115,3.12,3.12,0,0,0,3.115-3.115A3.116,3.116,0,0,0,3676.679-7968.153Z" transform="translate(0 99.238)" fill="#d1ccc1"/><path d="M3772.827-7968.153a3.116,3.116,0,0,0-3.116,3.112,3.121,3.121,0,0,0,3.116,3.115,3.12,3.12,0,0,0,3.118-3.115A3.116,3.116,0,0,0,3772.827-7968.153Z" transform="translate(127.588 99.238)" fill="#d1ccc1"/><path d="M3762.144-7968.153a3.116,3.116,0,0,0-3.116,3.112,3.12,3.12,0,0,0,3.116,3.115,3.122,3.122,0,0,0,3.118-3.115A3.117,3.117,0,0,0,3762.144-7968.153Z" transform="translate(113.412 99.238)" fill="#d1ccc1"/><path d="M3751.461-7754.491a3.118,3.118,0,0,0-3.116,3.115,3.121,3.121,0,0,0,3.116,3.116,3.12,3.12,0,0,0,3.115-3.116A3.117,3.117,0,0,0,3751.461-7754.491Z" transform="translate(99.236 382.771)" fill="#d1ccc1"/><path d="M3751.461-7765.174a3.12,3.12,0,0,0-3.116,3.115,3.121,3.121,0,0,0,3.116,3.116,3.12,3.12,0,0,0,3.115-3.116A3.119,3.119,0,0,0,3751.461-7765.174Z" transform="translate(99.236 368.593)" fill="#d1ccc1"/><path d="M3751.461-7775.858a3.121,3.121,0,0,0-3.116,3.116,3.119,3.119,0,0,0,3.116,3.116,3.118,3.118,0,0,0,3.115-3.116A3.121,3.121,0,0,0,3751.461-7775.858Z" transform="translate(99.236 354.417)" fill="#d1ccc1"/><path d="M3751.461-7786.542a3.123,3.123,0,0,0-3.116,3.118,3.121,3.121,0,0,0,3.116,3.117,3.121,3.121,0,0,0,3.115-3.117A3.122,3.122,0,0,0,3751.461-7786.542Z" transform="translate(99.236 340.239)" fill="#d1ccc1"/><path d="M3751.461-7818.59a3.12,3.12,0,0,0-3.116,3.115,3.121,3.121,0,0,0,3.116,3.116,3.12,3.12,0,0,0,3.115-3.116A3.12,3.12,0,0,0,3751.461-7818.59Z" transform="translate(99.236 297.71)" fill="#d1ccc1"/><path d="M3751.461-7829.272a3.12,3.12,0,0,0-3.116,3.115,3.119,3.119,0,0,0,3.116,3.116,3.118,3.118,0,0,0,3.115-3.116A3.119,3.119,0,0,0,3751.461-7829.272Z" transform="translate(99.236 283.533)" fill="#d1ccc1"/><path d="M3751.461-7850.64a3.121,3.121,0,0,0-3.116,3.117,3.119,3.119,0,0,0,3.116,3.114,3.119,3.119,0,0,0,3.115-3.114A3.12,3.12,0,0,0,3751.461-7850.64Z" transform="translate(99.236 255.179)" fill="#d1ccc1"/><path d="M3751.461-7861.321a3.117,3.117,0,0,0-3.116,3.113,3.12,3.12,0,0,0,3.116,3.115,3.119,3.119,0,0,0,3.115-3.115A3.116,3.116,0,0,0,3751.461-7861.321Z" transform="translate(99.236 241.004)" fill="#d1ccc1"/><path d="M3751.461-7872.006a3.12,3.12,0,0,0-3.116,3.115,3.12,3.12,0,0,0,3.116,3.115,3.119,3.119,0,0,0,3.115-3.115A3.12,3.12,0,0,0,3751.461-7872.006Z" transform="translate(99.236 226.827)" fill="#d1ccc1"/><path d="M3751.461-7882.689a3.121,3.121,0,0,0-3.116,3.116,3.115,3.115,0,0,0,3.116,3.113,3.115,3.115,0,0,0,3.115-3.113A3.12,3.12,0,0,0,3751.461-7882.689Z" transform="translate(99.236 212.65)" fill="#d1ccc1"/><path d="M3751.461-7893.371a3.12,3.12,0,0,0-3.116,3.115,3.121,3.121,0,0,0,3.116,3.117,3.12,3.12,0,0,0,3.115-3.117A3.12,3.12,0,0,0,3751.461-7893.371Z" transform="translate(99.236 198.473)" fill="#d1ccc1"/><path d="M3751.461-8042.939a3.123,3.123,0,0,0-3.116,3.118,3.117,3.117,0,0,0,3.116,3.115,3.117,3.117,0,0,0,3.115-3.115A3.123,3.123,0,0,0,3751.461-8042.939Z" transform="translate(99.236 0.001)" fill="#d1ccc1"/><path d="M3751.461-7797.224a3.121,3.121,0,0,0-3.116,3.117,3.122,3.122,0,0,0,3.116,3.118,3.121,3.121,0,0,0,3.115-3.118A3.121,3.121,0,0,0,3751.461-7797.224Z" transform="translate(99.236 326.062)" fill="#d1ccc1"/><path d="M3751.461-7839.957a3.121,3.121,0,0,0-3.116,3.116,3.121,3.121,0,0,0,3.116,3.116,3.12,3.12,0,0,0,3.115-3.116A3.12,3.12,0,0,0,3751.461-7839.957Z" transform="translate(99.236 269.357)" fill="#d1ccc1"/><path d="M3751.461-7807.905a3.116,3.116,0,0,0-3.116,3.112,3.121,3.121,0,0,0,3.116,3.116,3.121,3.121,0,0,0,3.115-3.116A3.115,3.115,0,0,0,3751.461-7807.905Z" transform="translate(99.236 311.887)" fill="#d1ccc1"/><path d="M3751.461-7904.057a3.121,3.121,0,0,0-3.116,3.117,3.123,3.123,0,0,0,3.116,3.118,3.122,3.122,0,0,0,3.115-3.118A3.12,3.12,0,0,0,3751.461-7904.057Z" transform="translate(99.236 184.297)" fill="#d1ccc1"/><path d="M3751.461-7946.788a3.12,3.12,0,0,0-3.116,3.117,3.122,3.122,0,0,0,3.116,3.117,3.121,3.121,0,0,0,3.115-3.117A3.119,3.119,0,0,0,3751.461-7946.788Z" transform="translate(99.236 127.589)" fill="#d1ccc1"/><path d="M3751.461-7914.738a3.118,3.118,0,0,0-3.116,3.115,3.119,3.119,0,0,0,3.116,3.114,3.118,3.118,0,0,0,3.115-3.114A3.118,3.118,0,0,0,3751.461-7914.738Z" transform="translate(99.236 170.122)" fill="#d1ccc1"/><path d="M3751.461-7925.421a3.12,3.12,0,0,0-3.116,3.115,3.121,3.121,0,0,0,3.116,3.116,3.121,3.121,0,0,0,3.115-3.116A3.12,3.12,0,0,0,3751.461-7925.421Z" transform="translate(99.236 155.943)" fill="#d1ccc1"/><path d="M3751.461-7936.106a3.121,3.121,0,0,0-3.116,3.116,3.117,3.117,0,0,0,3.116,3.114,3.116,3.116,0,0,0,3.115-3.114A3.121,3.121,0,0,0,3751.461-7936.106Z" transform="translate(99.236 141.769)" fill="#d1ccc1"/><path d="M3751.461-7957.472a3.121,3.121,0,0,0-3.116,3.117,3.124,3.124,0,0,0,3.116,3.118,3.123,3.123,0,0,0,3.115-3.118A3.12,3.12,0,0,0,3751.461-7957.472Z" transform="translate(99.236 113.413)" fill="#d1ccc1"/><path d="M3751.461-7968.153a3.116,3.116,0,0,0-3.116,3.112,3.12,3.12,0,0,0,3.116,3.115,3.12,3.12,0,0,0,3.115-3.115A3.115,3.115,0,0,0,3751.461-7968.153Z" transform="translate(99.236 99.238)" fill="#d1ccc1"/><path d="M3804.877-7968.153a3.116,3.116,0,0,0-3.116,3.112,3.12,3.12,0,0,0,3.116,3.115,3.121,3.121,0,0,0,3.116-3.115A3.116,3.116,0,0,0,3804.877-7968.153Z" transform="translate(170.118 99.238)" fill="#d1ccc1"/><path d="M3794.194-7968.153a3.116,3.116,0,0,0-3.116,3.112,3.12,3.12,0,0,0,3.116,3.115,3.121,3.121,0,0,0,3.116-3.115A3.116,3.116,0,0,0,3794.194-7968.153Z" transform="translate(155.942 99.238)" fill="#d1ccc1"/><path d="M3783.51-7968.153a3.116,3.116,0,0,0-3.115,3.112,3.12,3.12,0,0,0,3.115,3.115,3.12,3.12,0,0,0,3.116-3.115A3.116,3.116,0,0,0,3783.51-7968.153Z" transform="translate(141.766 99.238)" fill="#d1ccc1"/><path d="M3676.679-7978.838a3.12,3.12,0,0,0-3.116,3.115,3.122,3.122,0,0,0,3.116,3.116,3.121,3.121,0,0,0,3.115-3.116A3.119,3.119,0,0,0,3676.679-7978.838Z" transform="translate(0 85.061)" fill="#d1ccc1"/><path d="M3740.778-7754.491a3.118,3.118,0,0,0-3.115,3.115,3.12,3.12,0,0,0,3.115,3.116,3.121,3.121,0,0,0,3.116-3.116A3.118,3.118,0,0,0,3740.778-7754.491Z" transform="translate(85.06 382.771)" fill="#d1ccc1"/><path d="M3740.778-7765.174a3.119,3.119,0,0,0-3.115,3.115,3.12,3.12,0,0,0,3.115,3.116,3.121,3.121,0,0,0,3.116-3.116A3.119,3.119,0,0,0,3740.778-7765.174Z" transform="translate(85.06 368.593)" fill="#d1ccc1"/><path d="M3740.778-7786.542a3.123,3.123,0,0,0-3.115,3.118,3.121,3.121,0,0,0,3.115,3.117,3.121,3.121,0,0,0,3.116-3.117A3.123,3.123,0,0,0,3740.778-7786.542Z" transform="translate(85.06 340.239)" fill="#d1ccc1"/><path d="M3740.778-7818.59a3.12,3.12,0,0,0-3.115,3.115,3.12,3.12,0,0,0,3.115,3.116,3.121,3.121,0,0,0,3.116-3.116A3.12,3.12,0,0,0,3740.778-7818.59Z" transform="translate(85.06 297.71)" fill="#d1ccc1"/><path d="M3740.778-7829.272a3.119,3.119,0,0,0-3.115,3.115,3.118,3.118,0,0,0,3.115,3.116,3.118,3.118,0,0,0,3.116-3.116A3.119,3.119,0,0,0,3740.778-7829.272Z" transform="translate(85.06 283.533)" fill="#d1ccc1"/><path d="M3740.778-7850.64a3.12,3.12,0,0,0-3.115,3.117,3.119,3.119,0,0,0,3.115,3.114,3.119,3.119,0,0,0,3.116-3.114A3.121,3.121,0,0,0,3740.778-7850.64Z" transform="translate(85.06 255.179)" fill="#d1ccc1"/><path d="M3740.778-7861.321a3.116,3.116,0,0,0-3.115,3.113,3.119,3.119,0,0,0,3.115,3.115,3.12,3.12,0,0,0,3.116-3.115A3.117,3.117,0,0,0,3740.778-7861.321Z" transform="translate(85.06 241.004)" fill="#d1ccc1"/><path d="M3740.778-7872.006a3.12,3.12,0,0,0-3.115,3.115,3.119,3.119,0,0,0,3.115,3.115,3.119,3.119,0,0,0,3.116-3.115A3.12,3.12,0,0,0,3740.778-7872.006Z" transform="translate(85.06 226.827)" fill="#d1ccc1"/><path d="M3740.778-7882.689a3.12,3.12,0,0,0-3.115,3.116,3.115,3.115,0,0,0,3.115,3.113,3.115,3.115,0,0,0,3.116-3.113A3.121,3.121,0,0,0,3740.778-7882.689Z" transform="translate(85.06 212.65)" fill="#d1ccc1"/><path d="M3740.778-7893.371a3.12,3.12,0,0,0-3.115,3.115,3.12,3.12,0,0,0,3.115,3.117,3.121,3.121,0,0,0,3.116-3.117A3.12,3.12,0,0,0,3740.778-7893.371Z" transform="translate(85.06 198.473)" fill="#d1ccc1"/><path d="M3740.778-8042.939a3.123,3.123,0,0,0-3.115,3.118,3.117,3.117,0,0,0,3.115,3.115,3.117,3.117,0,0,0,3.116-3.115A3.123,3.123,0,0,0,3740.778-8042.939Z" transform="translate(85.06 0.001)" fill="#d1ccc1"/><path d="M3740.778-7797.224a3.121,3.121,0,0,0-3.115,3.117,3.121,3.121,0,0,0,3.115,3.118,3.121,3.121,0,0,0,3.116-3.118A3.121,3.121,0,0,0,3740.778-7797.224Z" transform="translate(85.06 326.062)" fill="#d1ccc1"/><path d="M3740.778-7839.957a3.12,3.12,0,0,0-3.115,3.116,3.12,3.12,0,0,0,3.115,3.116,3.12,3.12,0,0,0,3.116-3.116A3.12,3.12,0,0,0,3740.778-7839.957Z" transform="translate(85.06 269.357)" fill="#d1ccc1"/><path d="M3740.778-7807.905a3.115,3.115,0,0,0-3.115,3.112,3.121,3.121,0,0,0,3.115,3.116,3.121,3.121,0,0,0,3.116-3.116A3.116,3.116,0,0,0,3740.778-7807.905Z" transform="translate(85.06 311.887)" fill="#d1ccc1"/><path d="M3740.778-7775.858a3.121,3.121,0,0,0-3.115,3.116,3.118,3.118,0,0,0,3.115,3.116,3.119,3.119,0,0,0,3.116-3.116A3.121,3.121,0,0,0,3740.778-7775.858Z" transform="translate(85.06 354.417)" fill="#d1ccc1"/><path d="M3740.778-7904.057a3.12,3.12,0,0,0-3.115,3.117,3.122,3.122,0,0,0,3.115,3.118,3.123,3.123,0,0,0,3.116-3.118A3.121,3.121,0,0,0,3740.778-7904.057Z" transform="translate(85.06 184.297)" fill="#d1ccc1"/><path d="M3740.778-7946.788a3.12,3.12,0,0,0-3.115,3.117,3.121,3.121,0,0,0,3.115,3.117,3.122,3.122,0,0,0,3.116-3.117A3.12,3.12,0,0,0,3740.778-7946.788Z" transform="translate(85.06 127.589)" fill="#d1ccc1"/><path d="M3740.778-7914.738a3.118,3.118,0,0,0-3.115,3.115,3.118,3.118,0,0,0,3.115,3.114,3.119,3.119,0,0,0,3.116-3.114A3.118,3.118,0,0,0,3740.778-7914.738Z" transform="translate(85.06 170.122)" fill="#d1ccc1"/><path d="M3740.778-7925.421a3.12,3.12,0,0,0-3.115,3.115,3.121,3.121,0,0,0,3.115,3.116,3.121,3.121,0,0,0,3.116-3.116A3.12,3.12,0,0,0,3740.778-7925.421Z" transform="translate(85.06 155.943)" fill="#d1ccc1"/><path d="M3740.778-7936.106a3.121,3.121,0,0,0-3.115,3.116,3.116,3.116,0,0,0,3.115,3.114,3.117,3.117,0,0,0,3.116-3.114A3.121,3.121,0,0,0,3740.778-7936.106Z" transform="translate(85.06 141.769)" fill="#d1ccc1"/><path d="M3740.778-7957.472a3.12,3.12,0,0,0-3.115,3.117,3.123,3.123,0,0,0,3.115,3.118,3.124,3.124,0,0,0,3.116-3.118A3.121,3.121,0,0,0,3740.778-7957.472Z" transform="translate(85.06 113.413)" fill="#d1ccc1"/><path d="M3740.778-7968.153a3.115,3.115,0,0,0-3.115,3.112,3.12,3.12,0,0,0,3.115,3.115,3.12,3.12,0,0,0,3.116-3.115A3.116,3.116,0,0,0,3740.778-7968.153Z" transform="translate(85.06 99.238)" fill="#d1ccc1"/><path d="M3740.778-7978.838a3.119,3.119,0,0,0-3.115,3.115,3.121,3.121,0,0,0,3.115,3.116,3.122,3.122,0,0,0,3.116-3.116A3.119,3.119,0,0,0,3740.778-7978.838Z" transform="translate(85.06 85.061)" fill="#d1ccc1"/><path d="M3772.827-7978.838a3.12,3.12,0,0,0-3.116,3.115,3.122,3.122,0,0,0,3.116,3.116,3.122,3.122,0,0,0,3.118-3.116A3.119,3.119,0,0,0,3772.827-7978.838Z" transform="translate(127.588 85.061)" fill="#d1ccc1"/><path d="M3762.144-7978.838a3.12,3.12,0,0,0-3.116,3.115,3.122,3.122,0,0,0,3.116,3.116,3.123,3.123,0,0,0,3.118-3.116A3.121,3.121,0,0,0,3762.144-7978.838Z" transform="translate(113.412 85.061)" fill="#d1ccc1"/><path d="M3751.461-7978.838a3.12,3.12,0,0,0-3.116,3.115,3.122,3.122,0,0,0,3.116,3.116,3.121,3.121,0,0,0,3.115-3.116A3.119,3.119,0,0,0,3751.461-7978.838Z" transform="translate(99.236 85.061)" fill="#d1ccc1"/><path d="M3804.877-7978.838a3.12,3.12,0,0,0-3.116,3.115,3.122,3.122,0,0,0,3.116,3.116,3.122,3.122,0,0,0,3.116-3.116A3.12,3.12,0,0,0,3804.877-7978.838Z" transform="translate(170.118 85.061)" fill="#d1ccc1"/><path d="M3794.194-7978.838a3.119,3.119,0,0,0-3.116,3.115,3.122,3.122,0,0,0,3.116,3.116,3.122,3.122,0,0,0,3.116-3.116A3.12,3.12,0,0,0,3794.194-7978.838Z" transform="translate(155.942 85.061)" fill="#d1ccc1"/><path d="M3783.51-7978.838a3.119,3.119,0,0,0-3.115,3.115,3.121,3.121,0,0,0,3.115,3.116,3.122,3.122,0,0,0,3.116-3.116A3.12,3.12,0,0,0,3783.51-7978.838Z" transform="translate(141.766 85.061)" fill="#d1ccc1"/><path d="M3676.679-7989.521a3.12,3.12,0,0,0-3.116,3.115,3.117,3.117,0,0,0,3.116,3.113,3.116,3.116,0,0,0,3.115-3.113A3.119,3.119,0,0,0,3676.679-7989.521Z" transform="translate(0 70.884)" fill="#d1ccc1"/><path d="M3740.778-7989.521a3.119,3.119,0,0,0-3.115,3.115,3.116,3.116,0,0,0,3.115,3.113,3.117,3.117,0,0,0,3.116-3.113A3.119,3.119,0,0,0,3740.778-7989.521Z" transform="translate(85.06 70.884)" fill="#d1ccc1"/><path d="M3730.1-7754.491a3.118,3.118,0,0,0-3.116,3.115,3.121,3.121,0,0,0,3.116,3.116,3.121,3.121,0,0,0,3.116-3.116A3.118,3.118,0,0,0,3730.1-7754.491Z" transform="translate(70.883 382.771)" fill="#d1ccc1"/><path d="M3730.1-7765.174a3.12,3.12,0,0,0-3.116,3.115,3.121,3.121,0,0,0,3.116,3.116,3.121,3.121,0,0,0,3.116-3.116A3.12,3.12,0,0,0,3730.1-7765.174Z" transform="translate(70.883 368.593)" fill="#d1ccc1"/><path d="M3730.1-7786.542a3.123,3.123,0,0,0-3.116,3.118,3.121,3.121,0,0,0,3.116,3.117,3.122,3.122,0,0,0,3.116-3.117A3.123,3.123,0,0,0,3730.1-7786.542Z" transform="translate(70.883 340.239)" fill="#d1ccc1"/><path d="M3730.1-7818.59a3.12,3.12,0,0,0-3.116,3.115,3.121,3.121,0,0,0,3.116,3.116,3.121,3.121,0,0,0,3.116-3.116A3.121,3.121,0,0,0,3730.1-7818.59Z" transform="translate(70.883 297.71)" fill="#d1ccc1"/><path d="M3730.1-7829.272a3.119,3.119,0,0,0-3.116,3.115,3.118,3.118,0,0,0,3.116,3.116,3.119,3.119,0,0,0,3.116-3.116A3.12,3.12,0,0,0,3730.1-7829.272Z" transform="translate(70.883 283.533)" fill="#d1ccc1"/><path d="M3730.1-7850.64a3.121,3.121,0,0,0-3.116,3.117,3.119,3.119,0,0,0,3.116,3.114,3.12,3.12,0,0,0,3.116-3.114A3.121,3.121,0,0,0,3730.1-7850.64Z" transform="translate(70.883 255.179)" fill="#d1ccc1"/><path d="M3730.1-7861.321a3.117,3.117,0,0,0-3.116,3.113,3.12,3.12,0,0,0,3.116,3.115,3.12,3.12,0,0,0,3.116-3.115A3.117,3.117,0,0,0,3730.1-7861.321Z" transform="translate(70.883 241.004)" fill="#d1ccc1"/><path d="M3730.1-7872.006a3.12,3.12,0,0,0-3.116,3.115,3.12,3.12,0,0,0,3.116,3.115,3.12,3.12,0,0,0,3.116-3.115A3.121,3.121,0,0,0,3730.1-7872.006Z" transform="translate(70.883 226.827)" fill="#d1ccc1"/><path d="M3730.1-7882.689a3.121,3.121,0,0,0-3.116,3.116,3.115,3.115,0,0,0,3.116,3.113,3.116,3.116,0,0,0,3.116-3.113A3.121,3.121,0,0,0,3730.1-7882.689Z" transform="translate(70.883 212.65)" fill="#d1ccc1"/><path d="M3730.1-7893.371a3.12,3.12,0,0,0-3.116,3.115,3.121,3.121,0,0,0,3.116,3.117,3.121,3.121,0,0,0,3.116-3.117A3.121,3.121,0,0,0,3730.1-7893.371Z" transform="translate(70.883 198.473)" fill="#d1ccc1"/><path d="M3730.1-8042.939a3.123,3.123,0,0,0-3.116,3.118,3.117,3.117,0,0,0,3.116,3.115,3.117,3.117,0,0,0,3.116-3.115A3.124,3.124,0,0,0,3730.1-8042.939Z" transform="translate(70.883 0.001)" fill="#d1ccc1"/><path d="M3730.1-7797.224a3.121,3.121,0,0,0-3.116,3.117,3.121,3.121,0,0,0,3.116,3.118,3.122,3.122,0,0,0,3.116-3.118A3.122,3.122,0,0,0,3730.1-7797.224Z" transform="translate(70.883 326.062)" fill="#d1ccc1"/><path d="M3730.1-7839.957a3.12,3.12,0,0,0-3.116,3.116,3.12,3.12,0,0,0,3.116,3.116,3.121,3.121,0,0,0,3.116-3.116A3.121,3.121,0,0,0,3730.1-7839.957Z" transform="translate(70.883 269.357)" fill="#d1ccc1"/><path d="M3730.1-7807.905a3.116,3.116,0,0,0-3.116,3.112,3.121,3.121,0,0,0,3.116,3.116,3.121,3.121,0,0,0,3.116-3.116A3.116,3.116,0,0,0,3730.1-7807.905Z" transform="translate(70.883 311.887)" fill="#d1ccc1"/><path d="M3730.1-7775.858a3.121,3.121,0,0,0-3.116,3.116,3.119,3.119,0,0,0,3.116,3.116,3.119,3.119,0,0,0,3.116-3.116A3.121,3.121,0,0,0,3730.1-7775.858Z" transform="translate(70.883 354.417)" fill="#d1ccc1"/><path d="M3730.1-7904.057a3.121,3.121,0,0,0-3.116,3.117,3.123,3.123,0,0,0,3.116,3.118,3.123,3.123,0,0,0,3.116-3.118A3.121,3.121,0,0,0,3730.1-7904.057Z" transform="translate(70.883 184.297)" fill="#d1ccc1"/><path d="M3730.1-7946.788a3.12,3.12,0,0,0-3.116,3.117,3.122,3.122,0,0,0,3.116,3.117,3.122,3.122,0,0,0,3.116-3.117A3.12,3.12,0,0,0,3730.1-7946.788Z" transform="translate(70.883 127.589)" fill="#d1ccc1"/><path d="M3730.1-7914.738a3.118,3.118,0,0,0-3.116,3.115,3.119,3.119,0,0,0,3.116,3.114,3.119,3.119,0,0,0,3.116-3.114A3.119,3.119,0,0,0,3730.1-7914.738Z" transform="translate(70.883 170.122)" fill="#d1ccc1"/><path d="M3730.1-7925.421a3.12,3.12,0,0,0-3.116,3.115,3.121,3.121,0,0,0,3.116,3.116,3.121,3.121,0,0,0,3.116-3.116A3.121,3.121,0,0,0,3730.1-7925.421Z" transform="translate(70.883 155.943)" fill="#d1ccc1"/><path d="M3730.1-7936.106a3.121,3.121,0,0,0-3.116,3.116,3.117,3.117,0,0,0,3.116,3.114,3.117,3.117,0,0,0,3.116-3.114A3.121,3.121,0,0,0,3730.1-7936.106Z" transform="translate(70.883 141.769)" fill="#d1ccc1"/><path d="M3730.1-7957.472a3.121,3.121,0,0,0-3.116,3.117,3.124,3.124,0,0,0,3.116,3.118,3.124,3.124,0,0,0,3.116-3.118A3.121,3.121,0,0,0,3730.1-7957.472Z" transform="translate(70.883 113.413)" fill="#d1ccc1"/><path d="M3730.1-7968.153a3.116,3.116,0,0,0-3.116,3.112,3.12,3.12,0,0,0,3.116,3.115,3.121,3.121,0,0,0,3.116-3.115A3.116,3.116,0,0,0,3730.1-7968.153Z" transform="translate(70.883 99.238)" fill="#d1ccc1"/><path d="M3730.1-7978.838a3.12,3.12,0,0,0-3.116,3.115,3.122,3.122,0,0,0,3.116,3.116,3.122,3.122,0,0,0,3.116-3.116A3.12,3.12,0,0,0,3730.1-7978.838Z" transform="translate(70.883 85.061)" fill="#d1ccc1"/><path d="M3730.1-7989.521a3.12,3.12,0,0,0-3.116,3.115,3.117,3.117,0,0,0,3.116,3.113,3.117,3.117,0,0,0,3.116-3.113A3.12,3.12,0,0,0,3730.1-7989.521Z" transform="translate(70.883 70.884)" fill="#d1ccc1"/><path d="M3772.827-7989.521a3.12,3.12,0,0,0-3.116,3.115,3.117,3.117,0,0,0,3.116,3.113,3.117,3.117,0,0,0,3.118-3.113A3.119,3.119,0,0,0,3772.827-7989.521Z" transform="translate(127.588 70.884)" fill="#d1ccc1"/><path d="M3762.144-7989.521a3.12,3.12,0,0,0-3.116,3.115,3.117,3.117,0,0,0,3.116,3.113,3.118,3.118,0,0,0,3.118-3.113A3.121,3.121,0,0,0,3762.144-7989.521Z" transform="translate(113.412 70.884)" fill="#d1ccc1"/><path d="M3751.461-7989.521a3.12,3.12,0,0,0-3.116,3.115,3.117,3.117,0,0,0,3.116,3.113,3.116,3.116,0,0,0,3.115-3.113A3.119,3.119,0,0,0,3751.461-7989.521Z" transform="translate(99.236 70.884)" fill="#d1ccc1"/><path d="M3804.877-7989.521a3.12,3.12,0,0,0-3.116,3.115,3.117,3.117,0,0,0,3.116,3.113,3.117,3.117,0,0,0,3.116-3.113A3.12,3.12,0,0,0,3804.877-7989.521Z" transform="translate(170.118 70.884)" fill="#d1ccc1"/><path d="M3794.194-7989.521a3.119,3.119,0,0,0-3.116,3.115,3.117,3.117,0,0,0,3.116,3.113,3.117,3.117,0,0,0,3.116-3.113A3.12,3.12,0,0,0,3794.194-7989.521Z" transform="translate(155.942 70.884)" fill="#d1ccc1"/><path d="M3783.51-7989.521a3.119,3.119,0,0,0-3.115,3.115,3.116,3.116,0,0,0,3.115,3.113,3.117,3.117,0,0,0,3.116-3.113A3.12,3.12,0,0,0,3783.51-7989.521Z" transform="translate(141.766 70.884)" fill="#d1ccc1"/><path d="M3676.679-8000.2a3.12,3.12,0,0,0-3.116,3.116,3.121,3.121,0,0,0,3.116,3.116,3.12,3.12,0,0,0,3.115-3.116A3.119,3.119,0,0,0,3676.679-8000.2Z" transform="translate(0 56.708)" fill="#d1ccc1"/><path d="M3740.778-8000.2a3.119,3.119,0,0,0-3.115,3.116,3.12,3.12,0,0,0,3.115,3.116,3.12,3.12,0,0,0,3.116-3.116A3.119,3.119,0,0,0,3740.778-8000.2Z" transform="translate(85.06 56.708)" fill="#d1ccc1"/><path d="M3730.1-8000.2a3.119,3.119,0,0,0-3.116,3.116,3.12,3.12,0,0,0,3.116,3.116,3.121,3.121,0,0,0,3.116-3.116A3.12,3.12,0,0,0,3730.1-8000.2Z" transform="translate(70.883 56.708)" fill="#d1ccc1"/><path d="M3719.413-7754.491a3.118,3.118,0,0,0-3.118,3.115,3.121,3.121,0,0,0,3.118,3.116,3.121,3.121,0,0,0,3.116-3.116A3.118,3.118,0,0,0,3719.413-7754.491Z" transform="translate(56.705 382.771)" fill="#d1ccc1"/><path d="M3719.413-7765.174a3.12,3.12,0,0,0-3.118,3.115,3.121,3.121,0,0,0,3.118,3.116,3.121,3.121,0,0,0,3.116-3.116A3.12,3.12,0,0,0,3719.413-7765.174Z" transform="translate(56.705 368.593)" fill="#d1ccc1"/><path d="M3719.413-7786.542a3.123,3.123,0,0,0-3.118,3.118,3.122,3.122,0,0,0,3.118,3.117,3.122,3.122,0,0,0,3.116-3.117A3.123,3.123,0,0,0,3719.413-7786.542Z" transform="translate(56.705 340.239)" fill="#d1ccc1"/><path d="M3719.413-7818.59a3.121,3.121,0,0,0-3.118,3.115,3.121,3.121,0,0,0,3.118,3.116,3.121,3.121,0,0,0,3.116-3.116A3.121,3.121,0,0,0,3719.413-7818.59Z" transform="translate(56.705 297.71)" fill="#d1ccc1"/><path d="M3719.413-7829.272a3.12,3.12,0,0,0-3.118,3.115,3.119,3.119,0,0,0,3.118,3.116,3.119,3.119,0,0,0,3.116-3.116A3.12,3.12,0,0,0,3719.413-7829.272Z" transform="translate(56.705 283.533)" fill="#d1ccc1"/><path d="M3719.413-7850.64a3.121,3.121,0,0,0-3.118,3.117,3.12,3.12,0,0,0,3.118,3.114,3.12,3.12,0,0,0,3.116-3.114A3.121,3.121,0,0,0,3719.413-7850.64Z" transform="translate(56.705 255.179)" fill="#d1ccc1"/><path d="M3719.413-7861.321a3.117,3.117,0,0,0-3.118,3.113,3.12,3.12,0,0,0,3.118,3.115,3.12,3.12,0,0,0,3.116-3.115A3.117,3.117,0,0,0,3719.413-7861.321Z" transform="translate(56.705 241.004)" fill="#d1ccc1"/><path d="M3719.413-7872.006a3.121,3.121,0,0,0-3.118,3.115,3.12,3.12,0,0,0,3.118,3.115,3.12,3.12,0,0,0,3.116-3.115A3.121,3.121,0,0,0,3719.413-7872.006Z" transform="translate(56.705 226.827)" fill="#d1ccc1"/><path d="M3719.413-7882.689a3.121,3.121,0,0,0-3.118,3.116,3.116,3.116,0,0,0,3.118,3.113,3.116,3.116,0,0,0,3.116-3.113A3.121,3.121,0,0,0,3719.413-7882.689Z" transform="translate(56.705 212.65)" fill="#d1ccc1"/><path d="M3719.413-7893.371a3.121,3.121,0,0,0-3.118,3.115,3.121,3.121,0,0,0,3.118,3.117,3.121,3.121,0,0,0,3.116-3.117A3.121,3.121,0,0,0,3719.413-7893.371Z" transform="translate(56.705 198.473)" fill="#d1ccc1"/><path d="M3719.413-8042.939a3.124,3.124,0,0,0-3.118,3.118,3.117,3.117,0,0,0,3.118,3.115,3.117,3.117,0,0,0,3.116-3.115A3.124,3.124,0,0,0,3719.413-8042.939Z" transform="translate(56.705 0.001)" fill="#d1ccc1"/><path d="M3719.413-7797.224a3.122,3.122,0,0,0-3.118,3.117,3.122,3.122,0,0,0,3.118,3.118,3.122,3.122,0,0,0,3.116-3.118A3.122,3.122,0,0,0,3719.413-7797.224Z" transform="translate(56.705 326.062)" fill="#d1ccc1"/><path d="M3719.413-7839.957a3.121,3.121,0,0,0-3.118,3.116,3.121,3.121,0,0,0,3.118,3.116,3.121,3.121,0,0,0,3.116-3.116A3.121,3.121,0,0,0,3719.413-7839.957Z" transform="translate(56.705 269.357)" fill="#d1ccc1"/><path d="M3719.413-7807.905a3.116,3.116,0,0,0-3.118,3.112,3.121,3.121,0,0,0,3.118,3.116,3.121,3.121,0,0,0,3.116-3.116A3.116,3.116,0,0,0,3719.413-7807.905Z" transform="translate(56.705 311.887)" fill="#d1ccc1"/><path d="M3719.413-7775.858a3.121,3.121,0,0,0-3.118,3.116,3.119,3.119,0,0,0,3.118,3.116,3.119,3.119,0,0,0,3.116-3.116A3.121,3.121,0,0,0,3719.413-7775.858Z" transform="translate(56.705 354.417)" fill="#d1ccc1"/><path d="M3719.413-7904.057a3.121,3.121,0,0,0-3.118,3.117,3.123,3.123,0,0,0,3.118,3.118,3.123,3.123,0,0,0,3.116-3.118A3.121,3.121,0,0,0,3719.413-7904.057Z" transform="translate(56.705 184.297)" fill="#d1ccc1"/><path d="M3719.413-7946.788a3.12,3.12,0,0,0-3.118,3.117,3.122,3.122,0,0,0,3.118,3.117,3.122,3.122,0,0,0,3.116-3.117A3.12,3.12,0,0,0,3719.413-7946.788Z" transform="translate(56.705 127.589)" fill="#d1ccc1"/><path d="M3719.413-7914.738a3.119,3.119,0,0,0-3.118,3.115,3.119,3.119,0,0,0,3.118,3.114,3.119,3.119,0,0,0,3.116-3.114A3.119,3.119,0,0,0,3719.413-7914.738Z" transform="translate(56.705 170.122)" fill="#d1ccc1"/><path d="M3719.413-7925.421a3.121,3.121,0,0,0-3.118,3.115,3.121,3.121,0,0,0,3.118,3.116,3.121,3.121,0,0,0,3.116-3.116A3.121,3.121,0,0,0,3719.413-7925.421Z" transform="translate(56.705 155.943)" fill="#d1ccc1"/><path d="M3719.413-7936.106a3.121,3.121,0,0,0-3.118,3.116,3.117,3.117,0,0,0,3.118,3.114,3.117,3.117,0,0,0,3.116-3.114A3.121,3.121,0,0,0,3719.413-7936.106Z" transform="translate(56.705 141.769)" fill="#d1ccc1"/><path d="M3719.413-7957.472a3.121,3.121,0,0,0-3.118,3.117,3.124,3.124,0,0,0,3.118,3.118,3.124,3.124,0,0,0,3.116-3.118A3.121,3.121,0,0,0,3719.413-7957.472Z" transform="translate(56.705 113.413)" fill="#d1ccc1"/><path d="M3719.413-7968.153a3.116,3.116,0,0,0-3.118,3.112,3.121,3.121,0,0,0,3.118,3.115,3.121,3.121,0,0,0,3.116-3.115A3.116,3.116,0,0,0,3719.413-7968.153Z" transform="translate(56.705 99.238)" fill="#d1ccc1"/><path d="M3719.413-7978.838a3.12,3.12,0,0,0-3.118,3.115,3.122,3.122,0,0,0,3.118,3.116,3.122,3.122,0,0,0,3.116-3.116A3.12,3.12,0,0,0,3719.413-7978.838Z" transform="translate(56.705 85.061)" fill="#d1ccc1"/><path d="M3719.413-7989.521a3.12,3.12,0,0,0-3.118,3.115,3.117,3.117,0,0,0,3.118,3.113,3.117,3.117,0,0,0,3.116-3.113A3.12,3.12,0,0,0,3719.413-7989.521Z" transform="translate(56.705 70.884)" fill="#d1ccc1"/><path d="M3719.413-8000.2a3.12,3.12,0,0,0-3.118,3.116,3.121,3.121,0,0,0,3.118,3.116,3.121,3.121,0,0,0,3.116-3.116A3.12,3.12,0,0,0,3719.413-8000.2Z" transform="translate(56.705 56.708)" fill="#d1ccc1"/><path d="M3847.61-8000.2a3.119,3.119,0,0,0-3.116,3.116,3.121,3.121,0,0,0,3.116,3.116,3.12,3.12,0,0,0,3.116-3.116A3.119,3.119,0,0,0,3847.61-8000.2Z" transform="translate(226.825 56.708)" fill="#d1ccc1"/><path d="M3879.661-8000.2a3.121,3.121,0,0,0-3.118,3.116,3.122,3.122,0,0,0,3.118,3.116,3.12,3.12,0,0,0,3.116-3.116A3.119,3.119,0,0,0,3879.661-8000.2Z" transform="translate(269.354 56.708)" fill="#d1ccc1"/><path d="M3858.293-8000.2a3.119,3.119,0,0,0-3.116,3.116,3.12,3.12,0,0,0,3.116,3.116,3.12,3.12,0,0,0,3.115-3.116A3.119,3.119,0,0,0,3858.293-8000.2Z" transform="translate(241.002 56.708)" fill="#d1ccc1"/><path d="M3890.343-8000.2a3.119,3.119,0,0,0-3.115,3.116,3.12,3.12,0,0,0,3.115,3.116,3.12,3.12,0,0,0,3.116-3.116A3.119,3.119,0,0,0,3890.343-8000.2Z" transform="translate(283.532 56.708)" fill="#d1ccc1"/><path d="M3901.026-8000.2a3.119,3.119,0,0,0-3.116,3.116,3.121,3.121,0,0,0,3.116,3.116,3.12,3.12,0,0,0,3.115-3.116A3.118,3.118,0,0,0,3901.026-8000.2Z" transform="translate(297.708 56.708)" fill="#d1ccc1"/><path d="M3911.709-8000.2a3.12,3.12,0,0,0-3.116,3.116,3.121,3.121,0,0,0,3.116,3.116,3.12,3.12,0,0,0,3.116-3.116A3.119,3.119,0,0,0,3911.709-8000.2Z" transform="translate(311.885 56.708)" fill="#d1ccc1"/><path d="M3922.392-8000.2a3.12,3.12,0,0,0-3.116,3.116,3.121,3.121,0,0,0,3.116,3.116,3.121,3.121,0,0,0,3.118-3.116A3.12,3.12,0,0,0,3922.392-8000.2Z" transform="translate(326.061 56.708)" fill="#d1ccc1"/><path d="M3954.442-8000.2a3.119,3.119,0,0,0-3.116,3.116,3.12,3.12,0,0,0,3.116,3.116,3.12,3.12,0,0,0,3.116-3.116A3.119,3.119,0,0,0,3954.442-8000.2Z" transform="translate(368.591 56.708)" fill="#d1ccc1"/><path d="M3943.756-8000.2a3.117,3.117,0,0,0-3.114,3.116,3.118,3.118,0,0,0,3.114,3.116,3.121,3.121,0,0,0,3.118-3.116A3.12,3.12,0,0,0,3943.756-8000.2Z" transform="translate(354.415 56.708)" fill="#d1ccc1"/><path d="M3836.927-8000.2a3.119,3.119,0,0,0-3.116,3.116,3.121,3.121,0,0,0,3.116,3.116,3.12,3.12,0,0,0,3.116-3.116A3.119,3.119,0,0,0,3836.927-8000.2Z" transform="translate(212.649 56.708)" fill="#d1ccc1"/><path d="M3868.976-8000.2a3.119,3.119,0,0,0-3.115,3.116,3.12,3.12,0,0,0,3.115,3.116,3.121,3.121,0,0,0,3.118-3.116A3.12,3.12,0,0,0,3868.976-8000.2Z" transform="translate(255.178 56.708)" fill="#d1ccc1"/><path d="M3772.827-8000.2a3.12,3.12,0,0,0-3.116,3.116,3.121,3.121,0,0,0,3.116,3.116,3.12,3.12,0,0,0,3.118-3.116A3.119,3.119,0,0,0,3772.827-8000.2Z" transform="translate(127.588 56.708)" fill="#d1ccc1"/><path d="M3762.144-8000.2a3.119,3.119,0,0,0-3.116,3.116,3.121,3.121,0,0,0,3.116,3.116,3.122,3.122,0,0,0,3.118-3.116A3.121,3.121,0,0,0,3762.144-8000.2Z" transform="translate(113.412 56.708)" fill="#d1ccc1"/><path d="M3751.461-8000.2a3.119,3.119,0,0,0-3.116,3.116,3.121,3.121,0,0,0,3.116,3.116,3.12,3.12,0,0,0,3.115-3.116A3.119,3.119,0,0,0,3751.461-8000.2Z" transform="translate(99.236 56.708)" fill="#d1ccc1"/><path d="M3826.246-8000.2a3.121,3.121,0,0,0-3.118,3.116,3.122,3.122,0,0,0,3.118,3.116,3.12,3.12,0,0,0,3.115-3.116A3.119,3.119,0,0,0,3826.246-8000.2Z" transform="translate(198.471 56.708)" fill="#d1ccc1"/><path d="M3815.56-8000.2a3.119,3.119,0,0,0-3.115,3.116,3.12,3.12,0,0,0,3.115,3.116,3.122,3.122,0,0,0,3.118-3.116A3.121,3.121,0,0,0,3815.56-8000.2Z" transform="translate(184.295 56.708)" fill="#d1ccc1"/><path d="M3933.075-8000.2a3.12,3.12,0,0,0-3.116,3.116,3.121,3.121,0,0,0,3.116,3.116,3.12,3.12,0,0,0,3.118-3.116A3.119,3.119,0,0,0,3933.075-8000.2Z" transform="translate(340.238 56.708)" fill="#d1ccc1"/><path d="M3965.124-8000.2a3.119,3.119,0,0,0-3.115,3.116,3.12,3.12,0,0,0,3.115,3.116,3.122,3.122,0,0,0,3.119-3.116A3.121,3.121,0,0,0,3965.124-8000.2Z" transform="translate(382.768 56.708)" fill="#d1ccc1"/><path d="M3804.877-8000.2a3.119,3.119,0,0,0-3.116,3.116,3.121,3.121,0,0,0,3.116,3.116,3.121,3.121,0,0,0,3.116-3.116A3.12,3.12,0,0,0,3804.877-8000.2Z" transform="translate(170.118 56.708)" fill="#d1ccc1"/><path d="M3794.194-8000.2a3.119,3.119,0,0,0-3.116,3.116,3.12,3.12,0,0,0,3.116,3.116,3.121,3.121,0,0,0,3.116-3.116A3.12,3.12,0,0,0,3794.194-8000.2Z" transform="translate(155.942 56.708)" fill="#d1ccc1"/><path d="M3783.51-8000.2a3.119,3.119,0,0,0-3.115,3.116,3.12,3.12,0,0,0,3.115,3.116,3.12,3.12,0,0,0,3.116-3.116A3.119,3.119,0,0,0,3783.51-8000.2Z" transform="translate(141.766 56.708)" fill="#d1ccc1"/><path d="M3676.679-8010.888a3.121,3.121,0,0,0-3.116,3.117,3.123,3.123,0,0,0,3.116,3.118,3.122,3.122,0,0,0,3.115-3.118A3.12,3.12,0,0,0,3676.679-8010.888Z" transform="translate(0 42.53)" fill="#d1ccc1"/><path d="M3740.778-8010.888a3.12,3.12,0,0,0-3.115,3.117,3.122,3.122,0,0,0,3.115,3.118,3.123,3.123,0,0,0,3.116-3.118A3.121,3.121,0,0,0,3740.778-8010.888Z" transform="translate(85.06 42.53)" fill="#d1ccc1"/><path d="M3730.1-8010.888a3.121,3.121,0,0,0-3.116,3.117,3.123,3.123,0,0,0,3.116,3.118,3.123,3.123,0,0,0,3.116-3.118A3.121,3.121,0,0,0,3730.1-8010.888Z" transform="translate(70.883 42.53)" fill="#d1ccc1"/><path d="M3719.413-8010.888a3.121,3.121,0,0,0-3.118,3.117,3.123,3.123,0,0,0,3.118,3.118,3.123,3.123,0,0,0,3.116-3.118A3.121,3.121,0,0,0,3719.413-8010.888Z" transform="translate(56.705 42.53)" fill="#d1ccc1"/><path d="M3708.728-7754.491a3.118,3.118,0,0,0-3.115,3.115,3.12,3.12,0,0,0,3.115,3.116,3.123,3.123,0,0,0,3.119-3.116A3.12,3.12,0,0,0,3708.728-7754.491Z" transform="translate(42.529 382.771)" fill="#d1ccc1"/><path d="M3708.728-7765.174a3.119,3.119,0,0,0-3.115,3.115,3.12,3.12,0,0,0,3.115,3.116,3.123,3.123,0,0,0,3.119-3.116A3.122,3.122,0,0,0,3708.728-7765.174Z" transform="translate(42.529 368.593)" fill="#d1ccc1"/><path d="M3708.728-7786.542a3.123,3.123,0,0,0-3.115,3.118,3.121,3.121,0,0,0,3.115,3.117,3.123,3.123,0,0,0,3.119-3.117A3.125,3.125,0,0,0,3708.728-7786.542Z" transform="translate(42.529 340.239)" fill="#d1ccc1"/><path d="M3708.728-7818.59a3.12,3.12,0,0,0-3.115,3.115,3.12,3.12,0,0,0,3.115,3.116,3.123,3.123,0,0,0,3.119-3.116A3.122,3.122,0,0,0,3708.728-7818.59Z" transform="translate(42.529 297.71)" fill="#d1ccc1"/><path d="M3708.728-7829.272a3.119,3.119,0,0,0-3.115,3.115,3.118,3.118,0,0,0,3.115,3.116,3.12,3.12,0,0,0,3.119-3.116A3.122,3.122,0,0,0,3708.728-7829.272Z" transform="translate(42.529 283.533)" fill="#d1ccc1"/><path d="M3708.728-7850.64a3.12,3.12,0,0,0-3.115,3.117,3.119,3.119,0,0,0,3.115,3.114,3.121,3.121,0,0,0,3.119-3.114A3.123,3.123,0,0,0,3708.728-7850.64Z" transform="translate(42.529 255.179)" fill="#d1ccc1"/><path d="M3708.728-7861.321a3.116,3.116,0,0,0-3.115,3.113,3.119,3.119,0,0,0,3.115,3.115,3.122,3.122,0,0,0,3.119-3.115A3.119,3.119,0,0,0,3708.728-7861.321Z" transform="translate(42.529 241.004)" fill="#d1ccc1"/><path d="M3708.728-7872.006a3.12,3.12,0,0,0-3.115,3.115,3.119,3.119,0,0,0,3.115,3.115,3.122,3.122,0,0,0,3.119-3.115A3.122,3.122,0,0,0,3708.728-7872.006Z" transform="translate(42.529 226.827)" fill="#d1ccc1"/><path d="M3708.728-7882.689a3.12,3.12,0,0,0-3.115,3.116,3.115,3.115,0,0,0,3.115,3.113,3.117,3.117,0,0,0,3.119-3.113A3.123,3.123,0,0,0,3708.728-7882.689Z" transform="translate(42.529 212.65)" fill="#d1ccc1"/><path d="M3708.728-7893.371a3.12,3.12,0,0,0-3.115,3.115,3.12,3.12,0,0,0,3.115,3.117,3.123,3.123,0,0,0,3.119-3.117A3.122,3.122,0,0,0,3708.728-7893.371Z" transform="translate(42.529 198.473)" fill="#d1ccc1"/><path d="M3708.728-8042.939a3.123,3.123,0,0,0-3.115,3.118,3.117,3.117,0,0,0,3.115,3.115,3.119,3.119,0,0,0,3.119-3.115A3.125,3.125,0,0,0,3708.728-8042.939Z" transform="translate(42.529 0.001)" fill="#d1ccc1"/><path d="M3708.728-7797.224a3.121,3.121,0,0,0-3.115,3.117,3.121,3.121,0,0,0,3.115,3.118,3.124,3.124,0,0,0,3.119-3.118A3.123,3.123,0,0,0,3708.728-7797.224Z" transform="translate(42.529 326.062)" fill="#d1ccc1"/><path d="M3708.728-7839.957a3.12,3.12,0,0,0-3.115,3.116,3.12,3.12,0,0,0,3.115,3.116,3.122,3.122,0,0,0,3.119-3.116A3.122,3.122,0,0,0,3708.728-7839.957Z" transform="translate(42.529 269.357)" fill="#d1ccc1"/><path d="M3708.728-7807.905a3.115,3.115,0,0,0-3.115,3.112,3.121,3.121,0,0,0,3.115,3.116,3.123,3.123,0,0,0,3.119-3.116A3.118,3.118,0,0,0,3708.728-7807.905Z" transform="translate(42.529 311.887)" fill="#d1ccc1"/><path d="M3708.728-7775.858a3.121,3.121,0,0,0-3.115,3.116,3.118,3.118,0,0,0,3.115,3.116,3.121,3.121,0,0,0,3.119-3.116A3.123,3.123,0,0,0,3708.728-7775.858Z" transform="translate(42.529 354.417)" fill="#d1ccc1"/><path d="M3708.728-7904.057a3.12,3.12,0,0,0-3.115,3.117,3.122,3.122,0,0,0,3.115,3.118,3.125,3.125,0,0,0,3.119-3.118A3.123,3.123,0,0,0,3708.728-7904.057Z" transform="translate(42.529 184.297)" fill="#d1ccc1"/><path d="M3708.728-7946.788a3.12,3.12,0,0,0-3.115,3.117,3.121,3.121,0,0,0,3.115,3.117,3.124,3.124,0,0,0,3.119-3.117A3.122,3.122,0,0,0,3708.728-7946.788Z" transform="translate(42.529 127.589)" fill="#d1ccc1"/><path d="M3708.728-7914.738a3.118,3.118,0,0,0-3.115,3.115,3.118,3.118,0,0,0,3.115,3.114,3.121,3.121,0,0,0,3.119-3.114A3.12,3.12,0,0,0,3708.728-7914.738Z" transform="translate(42.529 170.122)" fill="#d1ccc1"/><path d="M3708.728-7925.421a3.12,3.12,0,0,0-3.115,3.115,3.121,3.121,0,0,0,3.115,3.116,3.123,3.123,0,0,0,3.119-3.116A3.122,3.122,0,0,0,3708.728-7925.421Z" transform="translate(42.529 155.943)" fill="#d1ccc1"/><path d="M3708.728-7936.106a3.121,3.121,0,0,0-3.115,3.116,3.116,3.116,0,0,0,3.115,3.114,3.119,3.119,0,0,0,3.119-3.114A3.123,3.123,0,0,0,3708.728-7936.106Z" transform="translate(42.529 141.769)" fill="#d1ccc1"/><path d="M3708.728-7957.472a3.12,3.12,0,0,0-3.115,3.117,3.123,3.123,0,0,0,3.115,3.118,3.126,3.126,0,0,0,3.119-3.118A3.123,3.123,0,0,0,3708.728-7957.472Z" transform="translate(42.529 113.413)" fill="#d1ccc1"/><path d="M3708.728-7968.153a3.115,3.115,0,0,0-3.115,3.112,3.12,3.12,0,0,0,3.115,3.115,3.122,3.122,0,0,0,3.119-3.115A3.118,3.118,0,0,0,3708.728-7968.153Z" transform="translate(42.529 99.238)" fill="#d1ccc1"/><path d="M3708.728-7978.838a3.119,3.119,0,0,0-3.115,3.115,3.121,3.121,0,0,0,3.115,3.116,3.124,3.124,0,0,0,3.119-3.116A3.122,3.122,0,0,0,3708.728-7978.838Z" transform="translate(42.529 85.061)" fill="#d1ccc1"/><path d="M3708.728-7989.521a3.119,3.119,0,0,0-3.115,3.115,3.116,3.116,0,0,0,3.115,3.113,3.119,3.119,0,0,0,3.119-3.113A3.122,3.122,0,0,0,3708.728-7989.521Z" transform="translate(42.529 70.884)" fill="#d1ccc1"/><path d="M3708.728-8000.2a3.119,3.119,0,0,0-3.115,3.116,3.12,3.12,0,0,0,3.115,3.116,3.122,3.122,0,0,0,3.119-3.116A3.121,3.121,0,0,0,3708.728-8000.2Z" transform="translate(42.529 56.708)" fill="#d1ccc1"/><path d="M3708.728-8010.888a3.12,3.12,0,0,0-3.115,3.117,3.122,3.122,0,0,0,3.115,3.118,3.125,3.125,0,0,0,3.119-3.118A3.123,3.123,0,0,0,3708.728-8010.888Z" transform="translate(42.529 42.53)" fill="#d1ccc1"/><path d="M3847.61-8010.888a3.121,3.121,0,0,0-3.116,3.117,3.123,3.123,0,0,0,3.116,3.118,3.123,3.123,0,0,0,3.116-3.118A3.121,3.121,0,0,0,3847.61-8010.888Z" transform="translate(226.825 42.53)" fill="#d1ccc1"/><path d="M3879.661-8010.888a3.122,3.122,0,0,0-3.118,3.117,3.124,3.124,0,0,0,3.118,3.118,3.123,3.123,0,0,0,3.116-3.118A3.121,3.121,0,0,0,3879.661-8010.888Z" transform="translate(269.354 42.53)" fill="#d1ccc1"/><path d="M3858.293-8010.888a3.121,3.121,0,0,0-3.116,3.117,3.123,3.123,0,0,0,3.116,3.118,3.123,3.123,0,0,0,3.115-3.118A3.12,3.12,0,0,0,3858.293-8010.888Z" transform="translate(241.002 42.53)" fill="#d1ccc1"/><path d="M3890.343-8010.888a3.12,3.12,0,0,0-3.115,3.117,3.122,3.122,0,0,0,3.115,3.118,3.123,3.123,0,0,0,3.116-3.118A3.121,3.121,0,0,0,3890.343-8010.888Z" transform="translate(283.532 42.53)" fill="#d1ccc1"/><path d="M3901.026-8010.888a3.121,3.121,0,0,0-3.116,3.117,3.123,3.123,0,0,0,3.116,3.118,3.122,3.122,0,0,0,3.115-3.118A3.12,3.12,0,0,0,3901.026-8010.888Z" transform="translate(297.708 42.53)" fill="#d1ccc1"/><path d="M3911.709-8010.888a3.121,3.121,0,0,0-3.116,3.117,3.123,3.123,0,0,0,3.116,3.118,3.123,3.123,0,0,0,3.116-3.118A3.121,3.121,0,0,0,3911.709-8010.888Z" transform="translate(311.885 42.53)" fill="#d1ccc1"/><path d="M3922.392-8010.888a3.121,3.121,0,0,0-3.116,3.117,3.123,3.123,0,0,0,3.116,3.118,3.123,3.123,0,0,0,3.118-3.118A3.121,3.121,0,0,0,3922.392-8010.888Z" transform="translate(326.061 42.53)" fill="#d1ccc1"/><path d="M3954.442-8010.888a3.121,3.121,0,0,0-3.116,3.117,3.123,3.123,0,0,0,3.116,3.118,3.123,3.123,0,0,0,3.116-3.118A3.121,3.121,0,0,0,3954.442-8010.888Z" transform="translate(368.591 42.53)" fill="#d1ccc1"/><path d="M3943.756-8010.888a3.119,3.119,0,0,0-3.114,3.117,3.121,3.121,0,0,0,3.114,3.118,3.123,3.123,0,0,0,3.118-3.118A3.121,3.121,0,0,0,3943.756-8010.888Z" transform="translate(354.415 42.53)" fill="#d1ccc1"/><path d="M3836.927-8010.888a3.121,3.121,0,0,0-3.116,3.117,3.123,3.123,0,0,0,3.116,3.118,3.123,3.123,0,0,0,3.116-3.118A3.121,3.121,0,0,0,3836.927-8010.888Z" transform="translate(212.649 42.53)" fill="#d1ccc1"/><path d="M3868.976-8010.888a3.12,3.12,0,0,0-3.115,3.117,3.122,3.122,0,0,0,3.115,3.118,3.123,3.123,0,0,0,3.118-3.118A3.121,3.121,0,0,0,3868.976-8010.888Z" transform="translate(255.178 42.53)" fill="#d1ccc1"/><path d="M3772.827-8010.888a3.121,3.121,0,0,0-3.116,3.117,3.123,3.123,0,0,0,3.116,3.118,3.123,3.123,0,0,0,3.118-3.118A3.12,3.12,0,0,0,3772.827-8010.888Z" transform="translate(127.588 42.53)" fill="#d1ccc1"/><path d="M3762.144-8010.888a3.121,3.121,0,0,0-3.116,3.117,3.123,3.123,0,0,0,3.116,3.118,3.124,3.124,0,0,0,3.118-3.118A3.122,3.122,0,0,0,3762.144-8010.888Z" transform="translate(113.412 42.53)" fill="#d1ccc1"/><path d="M3751.461-8010.888a3.121,3.121,0,0,0-3.116,3.117,3.123,3.123,0,0,0,3.116,3.118,3.122,3.122,0,0,0,3.115-3.118A3.12,3.12,0,0,0,3751.461-8010.888Z" transform="translate(99.236 42.53)" fill="#d1ccc1"/><path d="M3826.246-8010.888a3.123,3.123,0,0,0-3.118,3.117,3.125,3.125,0,0,0,3.118,3.118,3.122,3.122,0,0,0,3.115-3.118A3.12,3.12,0,0,0,3826.246-8010.888Z" transform="translate(198.471 42.53)" fill="#d1ccc1"/><path d="M3815.56-8010.888a3.12,3.12,0,0,0-3.115,3.117,3.122,3.122,0,0,0,3.115,3.118,3.124,3.124,0,0,0,3.118-3.118A3.122,3.122,0,0,0,3815.56-8010.888Z" transform="translate(184.295 42.53)" fill="#d1ccc1"/><path d="M3933.075-8010.888a3.121,3.121,0,0,0-3.116,3.117,3.123,3.123,0,0,0,3.116,3.118,3.123,3.123,0,0,0,3.118-3.118A3.121,3.121,0,0,0,3933.075-8010.888Z" transform="translate(340.238 42.53)" fill="#d1ccc1"/><path d="M3965.124-8010.888a3.12,3.12,0,0,0-3.115,3.117,3.122,3.122,0,0,0,3.115,3.118,3.124,3.124,0,0,0,3.119-3.118A3.122,3.122,0,0,0,3965.124-8010.888Z" transform="translate(382.768 42.53)" fill="#d1ccc1"/><path d="M3804.877-8010.888a3.121,3.121,0,0,0-3.116,3.117,3.123,3.123,0,0,0,3.116,3.118,3.123,3.123,0,0,0,3.116-3.118A3.121,3.121,0,0,0,3804.877-8010.888Z" transform="translate(170.118 42.53)" fill="#d1ccc1"/><path d="M3794.194-8010.888a3.121,3.121,0,0,0-3.116,3.117,3.123,3.123,0,0,0,3.116,3.118,3.123,3.123,0,0,0,3.116-3.118A3.121,3.121,0,0,0,3794.194-8010.888Z" transform="translate(155.942 42.53)" fill="#d1ccc1"/><path d="M3783.51-8010.888a3.12,3.12,0,0,0-3.115,3.117,3.122,3.122,0,0,0,3.115,3.118,3.123,3.123,0,0,0,3.116-3.118A3.121,3.121,0,0,0,3783.51-8010.888Z" transform="translate(141.766 42.53)" fill="#d1ccc1"/><path d="M3676.679-8021.569a3.117,3.117,0,0,0-3.116,3.113,3.12,3.12,0,0,0,3.116,3.115,3.119,3.119,0,0,0,3.115-3.115A3.116,3.116,0,0,0,3676.679-8021.569Z" transform="translate(0 28.355)" fill="#d1ccc1"/><path d="M3740.778-8021.569a3.116,3.116,0,0,0-3.115,3.113,3.119,3.119,0,0,0,3.115,3.115,3.119,3.119,0,0,0,3.116-3.115A3.117,3.117,0,0,0,3740.778-8021.569Z" transform="translate(85.06 28.355)" fill="#d1ccc1"/><path d="M3730.1-8021.569a3.117,3.117,0,0,0-3.116,3.113,3.12,3.12,0,0,0,3.116,3.115,3.12,3.12,0,0,0,3.116-3.115A3.117,3.117,0,0,0,3730.1-8021.569Z" transform="translate(70.883 28.355)" fill="#d1ccc1"/><path d="M3719.413-8021.569a3.117,3.117,0,0,0-3.118,3.113,3.12,3.12,0,0,0,3.118,3.115,3.12,3.12,0,0,0,3.116-3.115A3.117,3.117,0,0,0,3719.413-8021.569Z" transform="translate(56.705 28.355)" fill="#d1ccc1"/><path d="M3708.728-8021.569a3.116,3.116,0,0,0-3.115,3.113,3.119,3.119,0,0,0,3.115,3.115,3.122,3.122,0,0,0,3.119-3.115A3.119,3.119,0,0,0,3708.728-8021.569Z" transform="translate(42.529 28.355)" fill="#d1ccc1"/><path d="M3698.048-7754.491a3.119,3.119,0,0,0-3.119,3.115,3.122,3.122,0,0,0,3.119,3.116,3.118,3.118,0,0,0,3.113-3.116A3.115,3.115,0,0,0,3698.048-7754.491Z" transform="translate(28.353 382.771)" fill="#d1ccc1"/><path d="M3698.048-7765.174a3.121,3.121,0,0,0-3.119,3.115,3.122,3.122,0,0,0,3.119,3.116,3.118,3.118,0,0,0,3.113-3.116A3.117,3.117,0,0,0,3698.048-7765.174Z" transform="translate(28.353 368.593)" fill="#d1ccc1"/><path d="M3698.048-7786.542a3.124,3.124,0,0,0-3.119,3.118,3.122,3.122,0,0,0,3.119,3.117,3.119,3.119,0,0,0,3.113-3.117A3.12,3.12,0,0,0,3698.048-7786.542Z" transform="translate(28.353 340.239)" fill="#d1ccc1"/><path d="M3698.048-7818.59a3.121,3.121,0,0,0-3.119,3.115,3.122,3.122,0,0,0,3.119,3.116,3.118,3.118,0,0,0,3.113-3.116A3.118,3.118,0,0,0,3698.048-7818.59Z" transform="translate(28.353 297.71)" fill="#d1ccc1"/><path d="M3698.048-7829.272a3.121,3.121,0,0,0-3.119,3.115,3.119,3.119,0,0,0,3.119,3.116,3.116,3.116,0,0,0,3.113-3.116A3.117,3.117,0,0,0,3698.048-7829.272Z" transform="translate(28.353 283.533)" fill="#d1ccc1"/><path d="M3698.048-7850.64a3.122,3.122,0,0,0-3.119,3.117,3.12,3.12,0,0,0,3.119,3.114,3.117,3.117,0,0,0,3.113-3.114A3.118,3.118,0,0,0,3698.048-7850.64Z" transform="translate(28.353 255.179)" fill="#d1ccc1"/><path d="M3698.048-7861.321a3.118,3.118,0,0,0-3.119,3.113,3.121,3.121,0,0,0,3.119,3.115,3.117,3.117,0,0,0,3.113-3.115A3.114,3.114,0,0,0,3698.048-7861.321Z" transform="translate(28.353 241.004)" fill="#d1ccc1"/><path d="M3698.048-7872.006a3.121,3.121,0,0,0-3.119,3.115,3.121,3.121,0,0,0,3.119,3.115,3.117,3.117,0,0,0,3.113-3.115A3.118,3.118,0,0,0,3698.048-7872.006Z" transform="translate(28.353 226.827)" fill="#d1ccc1"/><path d="M3698.048-7882.689a3.122,3.122,0,0,0-3.119,3.116,3.116,3.116,0,0,0,3.119,3.113,3.113,3.113,0,0,0,3.113-3.113A3.118,3.118,0,0,0,3698.048-7882.689Z" transform="translate(28.353 212.65)" fill="#d1ccc1"/><path d="M3698.048-7893.371a3.121,3.121,0,0,0-3.119,3.115,3.122,3.122,0,0,0,3.119,3.117,3.118,3.118,0,0,0,3.113-3.117A3.118,3.118,0,0,0,3698.048-7893.371Z" transform="translate(28.353 198.473)" fill="#d1ccc1"/><path d="M3698.048-8042.939a3.124,3.124,0,0,0-3.119,3.118,3.118,3.118,0,0,0,3.119,3.115,3.115,3.115,0,0,0,3.113-3.115A3.121,3.121,0,0,0,3698.048-8042.939Z" transform="translate(28.353 0.001)" fill="#d1ccc1"/><path d="M3698.048-7797.224a3.122,3.122,0,0,0-3.119,3.117,3.122,3.122,0,0,0,3.119,3.118,3.119,3.119,0,0,0,3.113-3.118A3.119,3.119,0,0,0,3698.048-7797.224Z" transform="translate(28.353 326.062)" fill="#d1ccc1"/><path d="M3698.048-7839.957a3.121,3.121,0,0,0-3.119,3.116,3.121,3.121,0,0,0,3.119,3.116,3.118,3.118,0,0,0,3.113-3.116A3.118,3.118,0,0,0,3698.048-7839.957Z" transform="translate(28.353 269.357)" fill="#d1ccc1"/><path d="M3698.048-7807.905a3.117,3.117,0,0,0-3.119,3.112,3.122,3.122,0,0,0,3.119,3.116,3.118,3.118,0,0,0,3.113-3.116A3.113,3.113,0,0,0,3698.048-7807.905Z" transform="translate(28.353 311.887)" fill="#d1ccc1"/><path d="M3698.048-7775.858a3.122,3.122,0,0,0-3.119,3.116,3.12,3.12,0,0,0,3.119,3.116,3.116,3.116,0,0,0,3.113-3.116A3.118,3.118,0,0,0,3698.048-7775.858Z" transform="translate(28.353 354.417)" fill="#d1ccc1"/><path d="M3698.048-7904.057a3.122,3.122,0,0,0-3.119,3.117,3.124,3.124,0,0,0,3.119,3.118,3.12,3.12,0,0,0,3.113-3.118A3.118,3.118,0,0,0,3698.048-7904.057Z" transform="translate(28.353 184.297)" fill="#d1ccc1"/><path d="M3698.048-7946.788a3.121,3.121,0,0,0-3.119,3.117,3.123,3.123,0,0,0,3.119,3.117,3.119,3.119,0,0,0,3.113-3.117A3.117,3.117,0,0,0,3698.048-7946.788Z" transform="translate(28.353 127.589)" fill="#d1ccc1"/><path d="M3698.048-7914.738a3.119,3.119,0,0,0-3.119,3.115,3.12,3.12,0,0,0,3.119,3.114,3.116,3.116,0,0,0,3.113-3.114A3.116,3.116,0,0,0,3698.048-7914.738Z" transform="translate(28.353 170.122)" fill="#d1ccc1"/><path d="M3698.048-7925.421a3.121,3.121,0,0,0-3.119,3.115,3.122,3.122,0,0,0,3.119,3.116,3.118,3.118,0,0,0,3.113-3.116A3.118,3.118,0,0,0,3698.048-7925.421Z" transform="translate(28.353 155.943)" fill="#d1ccc1"/><path d="M3698.048-7936.106a3.122,3.122,0,0,0-3.119,3.116,3.118,3.118,0,0,0,3.119,3.114,3.114,3.114,0,0,0,3.113-3.114A3.118,3.118,0,0,0,3698.048-7936.106Z" transform="translate(28.353 141.769)" fill="#d1ccc1"/><path d="M3698.048-7957.472a3.122,3.122,0,0,0-3.119,3.117,3.125,3.125,0,0,0,3.119,3.118,3.121,3.121,0,0,0,3.113-3.118A3.118,3.118,0,0,0,3698.048-7957.472Z" transform="translate(28.353 113.413)" fill="#d1ccc1"/><path d="M3698.048-7968.153a3.117,3.117,0,0,0-3.119,3.112,3.121,3.121,0,0,0,3.119,3.115,3.118,3.118,0,0,0,3.113-3.115A3.113,3.113,0,0,0,3698.048-7968.153Z" transform="translate(28.353 99.238)" fill="#d1ccc1"/><path d="M3698.048-7978.838a3.121,3.121,0,0,0-3.119,3.115,3.123,3.123,0,0,0,3.119,3.116,3.119,3.119,0,0,0,3.113-3.116A3.117,3.117,0,0,0,3698.048-7978.838Z" transform="translate(28.353 85.061)" fill="#d1ccc1"/><path d="M3698.048-7989.521a3.121,3.121,0,0,0-3.119,3.115,3.118,3.118,0,0,0,3.119,3.113,3.114,3.114,0,0,0,3.113-3.113A3.117,3.117,0,0,0,3698.048-7989.521Z" transform="translate(28.353 70.884)" fill="#d1ccc1"/><path d="M3698.048-8000.2a3.12,3.12,0,0,0-3.119,3.116,3.121,3.121,0,0,0,3.119,3.116,3.118,3.118,0,0,0,3.113-3.116A3.117,3.117,0,0,0,3698.048-8000.2Z" transform="translate(28.353 56.708)" fill="#d1ccc1"/><path d="M3698.048-8010.888a3.122,3.122,0,0,0-3.119,3.117,3.124,3.124,0,0,0,3.119,3.118,3.12,3.12,0,0,0,3.113-3.118A3.118,3.118,0,0,0,3698.048-8010.888Z" transform="translate(28.353 42.53)" fill="#d1ccc1"/><path d="M3698.048-8021.569a3.118,3.118,0,0,0-3.119,3.113,3.121,3.121,0,0,0,3.119,3.115,3.117,3.117,0,0,0,3.113-3.115A3.114,3.114,0,0,0,3698.048-8021.569Z" transform="translate(28.353 28.355)" fill="#d1ccc1"/><path d="M3847.61-8021.569a3.117,3.117,0,0,0-3.116,3.113,3.12,3.12,0,0,0,3.116,3.115,3.12,3.12,0,0,0,3.116-3.115A3.117,3.117,0,0,0,3847.61-8021.569Z" transform="translate(226.825 28.355)" fill="#d1ccc1"/><path d="M3879.661-8021.569a3.118,3.118,0,0,0-3.118,3.113,3.121,3.121,0,0,0,3.118,3.115,3.12,3.12,0,0,0,3.116-3.115A3.117,3.117,0,0,0,3879.661-8021.569Z" transform="translate(269.354 28.355)" fill="#d1ccc1"/><path d="M3858.293-8021.569a3.117,3.117,0,0,0-3.116,3.113,3.12,3.12,0,0,0,3.116,3.115,3.119,3.119,0,0,0,3.115-3.115A3.116,3.116,0,0,0,3858.293-8021.569Z" transform="translate(241.002 28.355)" fill="#d1ccc1"/><path d="M3890.343-8021.569a3.116,3.116,0,0,0-3.115,3.113,3.119,3.119,0,0,0,3.115,3.115,3.12,3.12,0,0,0,3.116-3.115A3.117,3.117,0,0,0,3890.343-8021.569Z" transform="translate(283.532 28.355)" fill="#d1ccc1"/><path d="M3901.026-8021.569a3.117,3.117,0,0,0-3.116,3.113,3.12,3.12,0,0,0,3.116,3.115,3.119,3.119,0,0,0,3.115-3.115A3.116,3.116,0,0,0,3901.026-8021.569Z" transform="translate(297.708 28.355)" fill="#d1ccc1"/><path d="M3911.709-8021.569a3.117,3.117,0,0,0-3.116,3.113,3.12,3.12,0,0,0,3.116,3.115,3.119,3.119,0,0,0,3.116-3.115A3.117,3.117,0,0,0,3911.709-8021.569Z" transform="translate(311.885 28.355)" fill="#d1ccc1"/><path d="M3922.392-8021.569a3.117,3.117,0,0,0-3.116,3.113,3.12,3.12,0,0,0,3.116,3.115,3.12,3.12,0,0,0,3.118-3.115A3.117,3.117,0,0,0,3922.392-8021.569Z" transform="translate(326.061 28.355)" fill="#d1ccc1"/><path d="M3954.442-8021.569a3.117,3.117,0,0,0-3.116,3.113,3.119,3.119,0,0,0,3.116,3.115,3.119,3.119,0,0,0,3.116-3.115A3.117,3.117,0,0,0,3954.442-8021.569Z" transform="translate(368.591 28.355)" fill="#d1ccc1"/><path d="M3943.756-8021.569a3.115,3.115,0,0,0-3.114,3.113,3.118,3.118,0,0,0,3.114,3.115,3.12,3.12,0,0,0,3.118-3.115A3.117,3.117,0,0,0,3943.756-8021.569Z" transform="translate(354.415 28.355)" fill="#d1ccc1"/><path d="M3836.927-8021.569a3.117,3.117,0,0,0-3.116,3.113,3.12,3.12,0,0,0,3.116,3.115,3.12,3.12,0,0,0,3.116-3.115A3.117,3.117,0,0,0,3836.927-8021.569Z" transform="translate(212.649 28.355)" fill="#d1ccc1"/><path d="M3868.976-8021.569a3.116,3.116,0,0,0-3.115,3.113,3.119,3.119,0,0,0,3.115,3.115,3.12,3.12,0,0,0,3.118-3.115A3.117,3.117,0,0,0,3868.976-8021.569Z" transform="translate(255.178 28.355)" fill="#d1ccc1"/><path d="M3772.827-8021.569a3.117,3.117,0,0,0-3.116,3.113,3.12,3.12,0,0,0,3.116,3.115,3.119,3.119,0,0,0,3.118-3.115A3.117,3.117,0,0,0,3772.827-8021.569Z" transform="translate(127.588 28.355)" fill="#d1ccc1"/><path d="M3762.144-8021.569a3.117,3.117,0,0,0-3.116,3.113,3.12,3.12,0,0,0,3.116,3.115,3.121,3.121,0,0,0,3.118-3.115A3.118,3.118,0,0,0,3762.144-8021.569Z" transform="translate(113.412 28.355)" fill="#d1ccc1"/><path d="M3751.461-8021.569a3.117,3.117,0,0,0-3.116,3.113,3.12,3.12,0,0,0,3.116,3.115,3.119,3.119,0,0,0,3.115-3.115A3.116,3.116,0,0,0,3751.461-8021.569Z" transform="translate(99.236 28.355)" fill="#d1ccc1"/><path d="M3826.246-8021.569a3.119,3.119,0,0,0-3.118,3.113,3.122,3.122,0,0,0,3.118,3.115,3.119,3.119,0,0,0,3.115-3.115A3.116,3.116,0,0,0,3826.246-8021.569Z" transform="translate(198.471 28.355)" fill="#d1ccc1"/><path d="M3815.56-8021.569a3.116,3.116,0,0,0-3.115,3.113,3.119,3.119,0,0,0,3.115,3.115,3.121,3.121,0,0,0,3.118-3.115A3.118,3.118,0,0,0,3815.56-8021.569Z" transform="translate(184.295 28.355)" fill="#d1ccc1"/><path d="M3933.075-8021.569a3.117,3.117,0,0,0-3.116,3.113,3.12,3.12,0,0,0,3.116,3.115,3.12,3.12,0,0,0,3.118-3.115A3.117,3.117,0,0,0,3933.075-8021.569Z" transform="translate(340.238 28.355)" fill="#d1ccc1"/><path d="M3965.124-8021.569a3.116,3.116,0,0,0-3.115,3.113,3.119,3.119,0,0,0,3.115,3.115,3.121,3.121,0,0,0,3.119-3.115A3.118,3.118,0,0,0,3965.124-8021.569Z" transform="translate(382.768 28.355)" fill="#d1ccc1"/><path d="M3804.877-8021.569a3.117,3.117,0,0,0-3.116,3.113,3.12,3.12,0,0,0,3.116,3.115,3.12,3.12,0,0,0,3.116-3.115A3.117,3.117,0,0,0,3804.877-8021.569Z" transform="translate(170.118 28.355)" fill="#d1ccc1"/><path d="M3794.194-8021.569a3.117,3.117,0,0,0-3.116,3.113,3.119,3.119,0,0,0,3.116,3.115,3.12,3.12,0,0,0,3.116-3.115A3.117,3.117,0,0,0,3794.194-8021.569Z" transform="translate(155.942 28.355)" fill="#d1ccc1"/><path d="M3783.51-8021.569a3.116,3.116,0,0,0-3.115,3.113,3.119,3.119,0,0,0,3.115,3.115,3.12,3.12,0,0,0,3.116-3.115A3.117,3.117,0,0,0,3783.51-8021.569Z" transform="translate(141.766 28.355)" fill="#d1ccc1"/><path d="M3676.679-8032.254a3.122,3.122,0,0,0-3.116,3.116,3.12,3.12,0,0,0,3.116,3.115,3.119,3.119,0,0,0,3.115-3.115A3.121,3.121,0,0,0,3676.679-8032.254Z" transform="translate(0 14.178)" fill="#d1ccc1"/><path d="M3740.778-8032.254a3.121,3.121,0,0,0-3.115,3.116,3.119,3.119,0,0,0,3.115,3.115,3.119,3.119,0,0,0,3.116-3.115A3.121,3.121,0,0,0,3740.778-8032.254Z" transform="translate(85.06 14.178)" fill="#d1ccc1"/><path d="M3730.1-8032.254a3.121,3.121,0,0,0-3.116,3.116,3.12,3.12,0,0,0,3.116,3.115,3.12,3.12,0,0,0,3.116-3.115A3.121,3.121,0,0,0,3730.1-8032.254Z" transform="translate(70.883 14.178)" fill="#d1ccc1"/><path d="M3719.413-8032.254a3.121,3.121,0,0,0-3.118,3.116,3.12,3.12,0,0,0,3.118,3.115,3.12,3.12,0,0,0,3.116-3.115A3.121,3.121,0,0,0,3719.413-8032.254Z" transform="translate(56.705 14.178)" fill="#d1ccc1"/><path d="M3708.728-8032.254a3.121,3.121,0,0,0-3.115,3.116,3.119,3.119,0,0,0,3.115,3.115,3.122,3.122,0,0,0,3.119-3.115A3.123,3.123,0,0,0,3708.728-8032.254Z" transform="translate(42.529 14.178)" fill="#d1ccc1"/><path d="M3698.048-8032.254a3.122,3.122,0,0,0-3.119,3.116,3.121,3.121,0,0,0,3.119,3.115,3.117,3.117,0,0,0,3.113-3.115A3.118,3.118,0,0,0,3698.048-8032.254Z" transform="translate(28.353 14.178)" fill="#d1ccc1"/><path d="M3687.362-7754.491a3.118,3.118,0,0,0-3.116,3.115,3.121,3.121,0,0,0,3.116,3.116,3.121,3.121,0,0,0,3.116-3.116A3.118,3.118,0,0,0,3687.362-7754.491Z" transform="translate(14.177 382.771)" fill="#d1ccc1"/><path d="M3687.362-7765.174a3.12,3.12,0,0,0-3.116,3.115,3.121,3.121,0,0,0,3.116,3.116,3.121,3.121,0,0,0,3.116-3.116A3.119,3.119,0,0,0,3687.362-7765.174Z" transform="translate(14.177 368.593)" fill="#d1ccc1"/><path d="M3687.362-7786.542a3.123,3.123,0,0,0-3.116,3.118,3.121,3.121,0,0,0,3.116,3.117,3.121,3.121,0,0,0,3.116-3.117A3.123,3.123,0,0,0,3687.362-7786.542Z" transform="translate(14.177 340.239)" fill="#d1ccc1"/><path d="M3687.362-7818.59a3.12,3.12,0,0,0-3.116,3.115,3.121,3.121,0,0,0,3.116,3.116,3.121,3.121,0,0,0,3.116-3.116A3.12,3.12,0,0,0,3687.362-7818.59Z" transform="translate(14.177 297.71)" fill="#d1ccc1"/><path d="M3687.362-7829.272a3.119,3.119,0,0,0-3.116,3.115,3.118,3.118,0,0,0,3.116,3.116,3.118,3.118,0,0,0,3.116-3.116A3.119,3.119,0,0,0,3687.362-7829.272Z" transform="translate(14.177 283.533)" fill="#d1ccc1"/><path d="M3687.362-7850.64a3.121,3.121,0,0,0-3.116,3.117,3.119,3.119,0,0,0,3.116,3.114,3.119,3.119,0,0,0,3.116-3.114A3.121,3.121,0,0,0,3687.362-7850.64Z" transform="translate(14.177 255.179)" fill="#d1ccc1"/><path d="M3687.362-7861.321a3.117,3.117,0,0,0-3.116,3.113,3.12,3.12,0,0,0,3.116,3.115,3.12,3.12,0,0,0,3.116-3.115A3.117,3.117,0,0,0,3687.362-7861.321Z" transform="translate(14.177 241.004)" fill="#d1ccc1"/><path d="M3687.362-7872.006a3.12,3.12,0,0,0-3.116,3.115,3.12,3.12,0,0,0,3.116,3.115,3.119,3.119,0,0,0,3.116-3.115A3.12,3.12,0,0,0,3687.362-7872.006Z" transform="translate(14.177 226.827)" fill="#d1ccc1"/><path d="M3687.362-7882.689a3.121,3.121,0,0,0-3.116,3.116,3.115,3.115,0,0,0,3.116,3.113,3.115,3.115,0,0,0,3.116-3.113A3.121,3.121,0,0,0,3687.362-7882.689Z" transform="translate(14.177 212.65)" fill="#d1ccc1"/><path d="M3687.362-7893.371a3.12,3.12,0,0,0-3.116,3.115,3.121,3.121,0,0,0,3.116,3.117,3.121,3.121,0,0,0,3.116-3.117A3.12,3.12,0,0,0,3687.362-7893.371Z" transform="translate(14.177 198.473)" fill="#d1ccc1"/><path d="M3687.362-8042.939a3.123,3.123,0,0,0-3.116,3.118,3.117,3.117,0,0,0,3.116,3.115,3.117,3.117,0,0,0,3.116-3.115A3.123,3.123,0,0,0,3687.362-8042.939Z" transform="translate(14.177 0.001)" fill="#d1ccc1"/><path d="M3687.362-7797.224a3.121,3.121,0,0,0-3.116,3.117,3.121,3.121,0,0,0,3.116,3.118,3.121,3.121,0,0,0,3.116-3.118A3.121,3.121,0,0,0,3687.362-7797.224Z" transform="translate(14.177 326.062)" fill="#d1ccc1"/><path d="M3687.362-7839.957a3.12,3.12,0,0,0-3.116,3.116,3.12,3.12,0,0,0,3.116,3.116,3.12,3.12,0,0,0,3.116-3.116A3.12,3.12,0,0,0,3687.362-7839.957Z" transform="translate(14.177 269.357)" fill="#d1ccc1"/><path d="M3687.362-7807.905a3.116,3.116,0,0,0-3.116,3.112,3.121,3.121,0,0,0,3.116,3.116,3.121,3.121,0,0,0,3.116-3.116A3.116,3.116,0,0,0,3687.362-7807.905Z" transform="translate(14.177 311.887)" fill="#d1ccc1"/><path d="M3687.362-7775.858a3.121,3.121,0,0,0-3.116,3.116,3.119,3.119,0,0,0,3.116,3.116,3.119,3.119,0,0,0,3.116-3.116A3.121,3.121,0,0,0,3687.362-7775.858Z" transform="translate(14.177 354.417)" fill="#d1ccc1"/><path d="M3687.362-7904.057a3.121,3.121,0,0,0-3.116,3.117,3.123,3.123,0,0,0,3.116,3.118,3.123,3.123,0,0,0,3.116-3.118A3.121,3.121,0,0,0,3687.362-7904.057Z" transform="translate(14.177 184.297)" fill="#d1ccc1"/><path d="M3687.362-7946.788a3.12,3.12,0,0,0-3.116,3.117,3.122,3.122,0,0,0,3.116,3.117,3.122,3.122,0,0,0,3.116-3.117A3.12,3.12,0,0,0,3687.362-7946.788Z" transform="translate(14.177 127.589)" fill="#d1ccc1"/><path d="M3687.362-7914.738a3.118,3.118,0,0,0-3.116,3.115,3.119,3.119,0,0,0,3.116,3.114,3.119,3.119,0,0,0,3.116-3.114A3.118,3.118,0,0,0,3687.362-7914.738Z" transform="translate(14.177 170.122)" fill="#d1ccc1"/><path d="M3687.362-7925.421a3.12,3.12,0,0,0-3.116,3.115,3.121,3.121,0,0,0,3.116,3.116,3.121,3.121,0,0,0,3.116-3.116A3.12,3.12,0,0,0,3687.362-7925.421Z" transform="translate(14.177 155.943)" fill="#d1ccc1"/><path d="M3687.362-7936.106a3.121,3.121,0,0,0-3.116,3.116,3.117,3.117,0,0,0,3.116,3.114,3.117,3.117,0,0,0,3.116-3.114A3.121,3.121,0,0,0,3687.362-7936.106Z" transform="translate(14.177 141.769)" fill="#d1ccc1"/><path d="M3687.362-7957.472a3.121,3.121,0,0,0-3.116,3.117,3.124,3.124,0,0,0,3.116,3.118,3.124,3.124,0,0,0,3.116-3.118A3.121,3.121,0,0,0,3687.362-7957.472Z" transform="translate(14.177 113.413)" fill="#d1ccc1"/><path d="M3687.362-7968.153a3.116,3.116,0,0,0-3.116,3.112,3.12,3.12,0,0,0,3.116,3.115,3.12,3.12,0,0,0,3.116-3.115A3.116,3.116,0,0,0,3687.362-7968.153Z" transform="translate(14.177 99.238)" fill="#d1ccc1"/><path d="M3687.362-7978.838a3.12,3.12,0,0,0-3.116,3.115,3.122,3.122,0,0,0,3.116,3.116,3.122,3.122,0,0,0,3.116-3.116A3.119,3.119,0,0,0,3687.362-7978.838Z" transform="translate(14.177 85.061)" fill="#d1ccc1"/><path d="M3687.362-7989.521a3.12,3.12,0,0,0-3.116,3.115,3.117,3.117,0,0,0,3.116,3.113,3.117,3.117,0,0,0,3.116-3.113A3.119,3.119,0,0,0,3687.362-7989.521Z" transform="translate(14.177 70.884)" fill="#d1ccc1"/><path d="M3687.362-8000.2a3.119,3.119,0,0,0-3.116,3.116,3.12,3.12,0,0,0,3.116,3.116,3.12,3.12,0,0,0,3.116-3.116A3.119,3.119,0,0,0,3687.362-8000.2Z" transform="translate(14.177 56.708)" fill="#d1ccc1"/><path d="M3687.362-8010.888a3.121,3.121,0,0,0-3.116,3.117,3.123,3.123,0,0,0,3.116,3.118,3.123,3.123,0,0,0,3.116-3.118A3.121,3.121,0,0,0,3687.362-8010.888Z" transform="translate(14.177 42.53)" fill="#d1ccc1"/><path d="M3687.362-8021.569a3.117,3.117,0,0,0-3.116,3.113,3.12,3.12,0,0,0,3.116,3.115,3.119,3.119,0,0,0,3.116-3.115A3.117,3.117,0,0,0,3687.362-8021.569Z" transform="translate(14.177 28.355)" fill="#d1ccc1"/><path d="M3687.362-8032.254a3.121,3.121,0,0,0-3.116,3.116,3.12,3.12,0,0,0,3.116,3.115,3.119,3.119,0,0,0,3.116-3.115A3.121,3.121,0,0,0,3687.362-8032.254Z" transform="translate(14.177 14.178)" fill="#d1ccc1"/><path d="M3847.61-8032.254a3.121,3.121,0,0,0-3.116,3.116,3.12,3.12,0,0,0,3.116,3.115,3.12,3.12,0,0,0,3.116-3.115A3.121,3.121,0,0,0,3847.61-8032.254Z" transform="translate(226.825 14.178)" fill="#d1ccc1"/><path d="M3879.661-8032.254a3.123,3.123,0,0,0-3.118,3.116,3.121,3.121,0,0,0,3.118,3.115,3.12,3.12,0,0,0,3.116-3.115A3.121,3.121,0,0,0,3879.661-8032.254Z" transform="translate(269.354 14.178)" fill="#d1ccc1"/><path d="M3858.293-8032.254a3.121,3.121,0,0,0-3.116,3.116,3.12,3.12,0,0,0,3.116,3.115,3.119,3.119,0,0,0,3.115-3.115A3.121,3.121,0,0,0,3858.293-8032.254Z" transform="translate(241.002 14.178)" fill="#d1ccc1"/><path d="M3890.343-8032.254a3.121,3.121,0,0,0-3.115,3.116,3.119,3.119,0,0,0,3.115,3.115,3.12,3.12,0,0,0,3.116-3.115A3.121,3.121,0,0,0,3890.343-8032.254Z" transform="translate(283.532 14.178)" fill="#d1ccc1"/><path d="M3901.026-8032.254a3.121,3.121,0,0,0-3.116,3.116,3.12,3.12,0,0,0,3.116,3.115,3.119,3.119,0,0,0,3.115-3.115A3.12,3.12,0,0,0,3901.026-8032.254Z" transform="translate(297.708 14.178)" fill="#d1ccc1"/><path d="M3911.709-8032.254a3.121,3.121,0,0,0-3.116,3.116,3.12,3.12,0,0,0,3.116,3.115,3.119,3.119,0,0,0,3.116-3.115A3.121,3.121,0,0,0,3911.709-8032.254Z" transform="translate(311.885 14.178)" fill="#d1ccc1"/><path d="M3922.392-8032.254a3.121,3.121,0,0,0-3.116,3.116,3.12,3.12,0,0,0,3.116,3.115,3.12,3.12,0,0,0,3.118-3.115A3.121,3.121,0,0,0,3922.392-8032.254Z" transform="translate(326.061 14.178)" fill="#d1ccc1"/><path d="M3954.442-8032.254a3.121,3.121,0,0,0-3.116,3.116,3.119,3.119,0,0,0,3.116,3.115,3.119,3.119,0,0,0,3.116-3.115A3.121,3.121,0,0,0,3954.442-8032.254Z" transform="translate(368.591 14.178)" fill="#d1ccc1"/><path d="M3943.756-8032.254a3.119,3.119,0,0,0-3.114,3.116,3.118,3.118,0,0,0,3.114,3.115,3.12,3.12,0,0,0,3.118-3.115A3.122,3.122,0,0,0,3943.756-8032.254Z" transform="translate(354.415 14.178)" fill="#d1ccc1"/><path d="M3836.927-8032.254a3.121,3.121,0,0,0-3.116,3.116,3.12,3.12,0,0,0,3.116,3.115,3.12,3.12,0,0,0,3.116-3.115A3.121,3.121,0,0,0,3836.927-8032.254Z" transform="translate(212.649 14.178)" fill="#d1ccc1"/><path d="M3868.976-8032.254a3.121,3.121,0,0,0-3.115,3.116,3.119,3.119,0,0,0,3.115,3.115,3.12,3.12,0,0,0,3.118-3.115A3.122,3.122,0,0,0,3868.976-8032.254Z" transform="translate(255.178 14.178)" fill="#d1ccc1"/><path d="M3772.827-8032.254a3.122,3.122,0,0,0-3.116,3.116,3.12,3.12,0,0,0,3.116,3.115,3.119,3.119,0,0,0,3.118-3.115A3.121,3.121,0,0,0,3772.827-8032.254Z" transform="translate(127.588 14.178)" fill="#d1ccc1"/><path d="M3762.144-8032.254a3.121,3.121,0,0,0-3.116,3.116,3.12,3.12,0,0,0,3.116,3.115,3.121,3.121,0,0,0,3.118-3.115A3.123,3.123,0,0,0,3762.144-8032.254Z" transform="translate(113.412 14.178)" fill="#d1ccc1"/><path d="M3751.461-8032.254a3.121,3.121,0,0,0-3.116,3.116,3.12,3.12,0,0,0,3.116,3.115,3.119,3.119,0,0,0,3.115-3.115A3.121,3.121,0,0,0,3751.461-8032.254Z" transform="translate(99.236 14.178)" fill="#d1ccc1"/><path d="M3826.246-8032.254a3.123,3.123,0,0,0-3.118,3.116,3.122,3.122,0,0,0,3.118,3.115,3.119,3.119,0,0,0,3.115-3.115A3.121,3.121,0,0,0,3826.246-8032.254Z" transform="translate(198.471 14.178)" fill="#d1ccc1"/><path d="M3815.56-8032.254a3.121,3.121,0,0,0-3.115,3.116,3.119,3.119,0,0,0,3.115,3.115,3.121,3.121,0,0,0,3.118-3.115A3.123,3.123,0,0,0,3815.56-8032.254Z" transform="translate(184.295 14.178)" fill="#d1ccc1"/><path d="M3933.075-8032.254a3.122,3.122,0,0,0-3.116,3.116,3.12,3.12,0,0,0,3.116,3.115,3.12,3.12,0,0,0,3.118-3.115A3.121,3.121,0,0,0,3933.075-8032.254Z" transform="translate(340.238 14.178)" fill="#d1ccc1"/><path d="M3965.124-8032.254a3.121,3.121,0,0,0-3.115,3.116,3.119,3.119,0,0,0,3.115,3.115,3.121,3.121,0,0,0,3.119-3.115A3.123,3.123,0,0,0,3965.124-8032.254Z" transform="translate(382.768 14.178)" fill="#d1ccc1"/><path d="M3804.877-8032.254a3.121,3.121,0,0,0-3.116,3.116,3.12,3.12,0,0,0,3.116,3.115,3.12,3.12,0,0,0,3.116-3.115A3.122,3.122,0,0,0,3804.877-8032.254Z" transform="translate(170.118 14.178)" fill="#d1ccc1"/><path d="M3794.194-8032.254a3.121,3.121,0,0,0-3.116,3.116,3.119,3.119,0,0,0,3.116,3.115,3.12,3.12,0,0,0,3.116-3.115A3.121,3.121,0,0,0,3794.194-8032.254Z" transform="translate(155.942 14.178)" fill="#d1ccc1"/><path d="M3783.51-8032.254a3.121,3.121,0,0,0-3.115,3.116,3.119,3.119,0,0,0,3.115,3.115,3.12,3.12,0,0,0,3.116-3.115A3.121,3.121,0,0,0,3783.51-8032.254Z" transform="translate(141.766 14.178)" fill="#d1ccc1"/><path d="M3783.51-7914.738a3.118,3.118,0,0,0-3.115,3.115,3.119,3.119,0,0,0,3.115,3.114,3.119,3.119,0,0,0,3.116-3.114A3.118,3.118,0,0,0,3783.51-7914.738Z" transform="translate(141.766 170.122)" fill="#d1ccc1"/><path d="M3783.51-7925.421a3.12,3.12,0,0,0-3.115,3.115,3.121,3.121,0,0,0,3.115,3.116,3.121,3.121,0,0,0,3.116-3.116A3.12,3.12,0,0,0,3783.51-7925.421Z" transform="translate(141.766 155.943)" fill="#d1ccc1"/><path d="M3783.51-7936.106a3.121,3.121,0,0,0-3.115,3.116,3.117,3.117,0,0,0,3.115,3.114,3.117,3.117,0,0,0,3.116-3.114A3.121,3.121,0,0,0,3783.51-7936.106Z" transform="translate(141.766 141.769)" fill="#d1ccc1"/><path d="M3804.877-7936.106a3.121,3.121,0,0,0-3.116,3.116,3.117,3.117,0,0,0,3.116,3.114,3.118,3.118,0,0,0,3.116-3.114A3.122,3.122,0,0,0,3804.877-7936.106Z" transform="translate(170.118 141.769)" fill="#d1ccc1"/><path d="M3794.194-7936.106a3.121,3.121,0,0,0-3.116,3.116,3.117,3.117,0,0,0,3.116,3.114,3.117,3.117,0,0,0,3.116-3.114A3.121,3.121,0,0,0,3794.194-7936.106Z" transform="translate(155.942 141.769)" fill="#d1ccc1"/><path d="M3794.194-7914.738a3.118,3.118,0,0,0-3.116,3.115,3.119,3.119,0,0,0,3.116,3.114,3.119,3.119,0,0,0,3.116-3.114A3.119,3.119,0,0,0,3794.194-7914.738Z" transform="translate(155.942 170.122)" fill="#d1ccc1"/><path d="M3794.194-7925.421a3.12,3.12,0,0,0-3.116,3.115,3.121,3.121,0,0,0,3.116,3.116,3.121,3.121,0,0,0,3.116-3.116A3.121,3.121,0,0,0,3794.194-7925.421Z" transform="translate(155.942 155.943)" fill="#d1ccc1"/><path d="M3804.877-7925.421a3.12,3.12,0,0,0-3.116,3.115,3.121,3.121,0,0,0,3.116,3.116,3.122,3.122,0,0,0,3.116-3.116A3.121,3.121,0,0,0,3804.877-7925.421Z" transform="translate(170.118 155.943)" fill="#d1ccc1"/><path d="M3804.877-7914.738a3.119,3.119,0,0,0-3.116,3.115,3.119,3.119,0,0,0,3.116,3.114,3.119,3.119,0,0,0,3.116-3.114A3.119,3.119,0,0,0,3804.877-7914.738Z" transform="translate(170.118 170.122)" fill="#d1ccc1"/></g></svg>