<svg xmlns="http://www.w3.org/2000/svg" width="74.577" height="74.575" viewBox="0 0 74.577 74.575"><path d="M3770.721-7946.789a1.013,1.013,0,0,0-1.011,1.012,1.012,1.012,0,0,0,1.011,1.01,1.012,1.012,0,0,0,1.011-1.01A1.013,1.013,0,0,0,3770.721-7946.789Z" transform="translate(-3705.215 8011.281)" fill="#948f8a"/><path d="M3770.721-7936.1a1.012,1.012,0,0,0-1.011,1.011,1.011,1.011,0,0,0,1.011,1.009,1.011,1.011,0,0,0,1.011-1.009A1.013,1.013,0,0,0,3770.721-7936.1Z" transform="translate(-3705.215 8008.66)" fill="#948f8a"/><path d="M3781.405-7946.789a1.013,1.013,0,0,0-1.01,1.012,1.012,1.012,0,0,0,1.01,1.01,1.012,1.012,0,0,0,1.01-1.01A1.013,1.013,0,0,0,3781.405-7946.789Z" transform="translate(-3707.838 8011.281)" fill="#948f8a"/><path d="M3770.721-7957.472a1.013,1.013,0,0,0-1.011,1.012,1.012,1.012,0,0,0,1.011,1.011,1.013,1.013,0,0,0,1.011-1.011A1.013,1.013,0,0,0,3770.721-7957.472Z" transform="translate(-3705.215 8013.903)" fill="#948f8a"/><path d="M3760.038-7946.789a1.012,1.012,0,0,0-1.01,1.012,1.011,1.011,0,0,0,1.01,1.01,1.012,1.012,0,0,0,1.011-1.01A1.013,1.013,0,0,0,3760.038-7946.789Z" transform="translate(-3702.594 8011.281)" fill="#948f8a"/><path d="M3760.038-7936.1a1.012,1.012,0,0,0-1.01,1.011,1.01,1.01,0,0,0,1.01,1.009,1.011,1.011,0,0,0,1.011-1.009A1.013,1.013,0,0,0,3760.038-7936.1Z" transform="translate(-3702.594 8008.66)" fill="#948f8a"/><path d="M3760.038-7957.472a1.012,1.012,0,0,0-1.01,1.012,1.012,1.012,0,0,0,1.01,1.011,1.013,1.013,0,0,0,1.011-1.011A1.013,1.013,0,0,0,3760.038-7957.472Z" transform="translate(-3702.594 8013.903)" fill="#948f8a"/><path d="M3781.405-7957.472a1.013,1.013,0,0,0-1.01,1.012,1.012,1.012,0,0,0,1.01,1.011,1.012,1.012,0,0,0,1.01-1.011A1.013,1.013,0,0,0,3781.405-7957.472Z" transform="translate(-3707.838 8013.903)" fill="#948f8a"/><path d="M3770.721-7968.152a1.01,1.01,0,0,0-1.011,1.009,1.012,1.012,0,0,0,1.011,1.01,1.012,1.012,0,0,0,1.011-1.01A1.01,1.01,0,0,0,3770.721-7968.152Z" transform="translate(-3705.215 8016.523)" fill="#948f8a"/><path d="M3760.038-7968.152a1.009,1.009,0,0,0-1.01,1.009,1.011,1.011,0,0,0,1.01,1.01,1.012,1.012,0,0,0,1.011-1.01A1.01,1.01,0,0,0,3760.038-7968.152Z" transform="translate(-3702.594 8016.523)" fill="#948f8a"/><path d="M3749.355-7946.789a1.013,1.013,0,0,0-1.01,1.012,1.012,1.012,0,0,0,1.01,1.01,1.011,1.011,0,0,0,1.011-1.01A1.012,1.012,0,0,0,3749.355-7946.789Z" transform="translate(-3699.973 8011.281)" fill="#948f8a"/><path d="M3749.355-7936.1a1.012,1.012,0,0,0-1.01,1.011,1.011,1.011,0,0,0,1.01,1.009,1.01,1.01,0,0,0,1.011-1.009A1.012,1.012,0,0,0,3749.355-7936.1Z" transform="translate(-3699.973 8008.66)" fill="#948f8a"/><path d="M3749.355-7957.472a1.013,1.013,0,0,0-1.01,1.012,1.012,1.012,0,0,0,1.01,1.011,1.012,1.012,0,0,0,1.011-1.011A1.012,1.012,0,0,0,3749.355-7957.472Z" transform="translate(-3699.973 8013.903)" fill="#948f8a"/><path d="M3749.355-7968.152a1.009,1.009,0,0,0-1.01,1.009,1.012,1.012,0,0,0,1.01,1.01,1.011,1.011,0,0,0,1.011-1.01A1.009,1.009,0,0,0,3749.355-7968.152Z" transform="translate(-3699.973 8016.523)" fill="#948f8a"/><path d="M3781.405-7968.152a1.009,1.009,0,0,0-1.01,1.009,1.012,1.012,0,0,0,1.01,1.01,1.012,1.012,0,0,0,1.01-1.01A1.009,1.009,0,0,0,3781.405-7968.152Z" transform="translate(-3707.838 8016.523)" fill="#948f8a"/><path d="M3738.672-7946.789a1.012,1.012,0,0,0-1.01,1.012,1.011,1.011,0,0,0,1.01,1.01,1.011,1.011,0,0,0,1.01-1.01A1.012,1.012,0,0,0,3738.672-7946.789Z" transform="translate(-3697.352 8011.281)" fill="#948f8a"/><path d="M3738.672-7936.1a1.012,1.012,0,0,0-1.01,1.011,1.01,1.01,0,0,0,1.01,1.009,1.01,1.01,0,0,0,1.01-1.009A1.012,1.012,0,0,0,3738.672-7936.1Z" transform="translate(-3697.352 8008.66)" fill="#948f8a"/><path d="M3738.672-7957.472a1.012,1.012,0,0,0-1.01,1.012,1.012,1.012,0,0,0,1.01,1.011,1.012,1.012,0,0,0,1.01-1.011A1.012,1.012,0,0,0,3738.672-7957.472Z" transform="translate(-3697.352 8013.903)" fill="#948f8a"/><path d="M3738.672-7968.152a1.009,1.009,0,0,0-1.01,1.009,1.011,1.011,0,0,0,1.01,1.01,1.011,1.011,0,0,0,1.01-1.01A1.009,1.009,0,0,0,3738.672-7968.152Z" transform="translate(-3697.352 8016.523)" fill="#948f8a"/><path d="M3738.672-7978.838a1.012,1.012,0,0,0-1.01,1.011,1.012,1.012,0,0,0,1.01,1.011,1.012,1.012,0,0,0,1.01-1.011A1.012,1.012,0,0,0,3738.672-7978.838Z" transform="translate(-3697.352 8019.146)" fill="#948f8a"/><path d="M3770.721-7978.838a1.012,1.012,0,0,0-1.011,1.011,1.012,1.012,0,0,0,1.011,1.011,1.013,1.013,0,0,0,1.011-1.011A1.013,1.013,0,0,0,3770.721-7978.838Z" transform="translate(-3705.215 8019.146)" fill="#948f8a"/><path d="M3760.038-7978.838a1.012,1.012,0,0,0-1.01,1.011,1.012,1.012,0,0,0,1.01,1.011,1.013,1.013,0,0,0,1.011-1.011A1.013,1.013,0,0,0,3760.038-7978.838Z" transform="translate(-3702.594 8019.146)" fill="#948f8a"/><path d="M3749.355-7978.838a1.012,1.012,0,0,0-1.01,1.011,1.012,1.012,0,0,0,1.01,1.011,1.012,1.012,0,0,0,1.011-1.011A1.012,1.012,0,0,0,3749.355-7978.838Z" transform="translate(-3699.973 8019.146)" fill="#948f8a"/><path d="M3781.405-7978.838a1.012,1.012,0,0,0-1.01,1.011,1.012,1.012,0,0,0,1.01,1.011,1.012,1.012,0,0,0,1.01-1.011A1.012,1.012,0,0,0,3781.405-7978.838Z" transform="translate(-3707.838 8019.146)" fill="#948f8a"/><path d="M3738.672-7989.52a1.011,1.011,0,0,0-1.01,1.009,1.011,1.011,0,0,0,1.01,1.011,1.011,1.011,0,0,0,1.01-1.011A1.011,1.011,0,0,0,3738.672-7989.52Z" transform="translate(-3697.352 8021.767)" fill="#948f8a"/><path d="M3727.989-7946.789a1.012,1.012,0,0,0-1.011,1.012,1.011,1.011,0,0,0,1.011,1.01,1.011,1.011,0,0,0,1.01-1.01A1.012,1.012,0,0,0,3727.989-7946.789Z" transform="translate(-3694.731 8011.281)" fill="#948f8a"/><path d="M3727.989-7936.1a1.012,1.012,0,0,0-1.011,1.011,1.01,1.01,0,0,0,1.011,1.009,1.01,1.01,0,0,0,1.01-1.009A1.012,1.012,0,0,0,3727.989-7936.1Z" transform="translate(-3694.731 8008.66)" fill="#948f8a"/><path d="M3727.989-7957.472a1.012,1.012,0,0,0-1.011,1.012,1.012,1.012,0,0,0,1.011,1.011,1.012,1.012,0,0,0,1.01-1.011A1.012,1.012,0,0,0,3727.989-7957.472Z" transform="translate(-3694.731 8013.903)" fill="#948f8a"/><path d="M3727.989-7968.152a1.009,1.009,0,0,0-1.011,1.009,1.011,1.011,0,0,0,1.011,1.01,1.011,1.011,0,0,0,1.01-1.01A1.009,1.009,0,0,0,3727.989-7968.152Z" transform="translate(-3694.731 8016.523)" fill="#948f8a"/><path d="M3727.989-7978.838a1.012,1.012,0,0,0-1.011,1.011,1.012,1.012,0,0,0,1.011,1.011,1.012,1.012,0,0,0,1.01-1.011A1.012,1.012,0,0,0,3727.989-7978.838Z" transform="translate(-3694.731 8019.146)" fill="#948f8a"/><path d="M3727.989-7989.52a1.011,1.011,0,0,0-1.011,1.009,1.011,1.011,0,0,0,1.011,1.011,1.011,1.011,0,0,0,1.01-1.011A1.011,1.011,0,0,0,3727.989-7989.52Z" transform="translate(-3694.731 8021.767)" fill="#948f8a"/><path d="M3770.721-7989.52a1.011,1.011,0,0,0-1.011,1.009,1.011,1.011,0,0,0,1.011,1.011,1.011,1.011,0,0,0,1.011-1.011A1.012,1.012,0,0,0,3770.721-7989.52Z" transform="translate(-3705.215 8021.767)" fill="#948f8a"/><path d="M3760.038-7989.52a1.011,1.011,0,0,0-1.01,1.009,1.011,1.011,0,0,0,1.01,1.011,1.012,1.012,0,0,0,1.011-1.011A1.012,1.012,0,0,0,3760.038-7989.52Z" transform="translate(-3702.594 8021.767)" fill="#948f8a"/><path d="M3749.355-7989.52a1.011,1.011,0,0,0-1.01,1.009,1.011,1.011,0,0,0,1.01,1.011,1.011,1.011,0,0,0,1.011-1.011A1.011,1.011,0,0,0,3749.355-7989.52Z" transform="translate(-3699.973 8021.767)" fill="#948f8a"/><path d="M3781.405-7989.52a1.011,1.011,0,0,0-1.01,1.009,1.011,1.011,0,0,0,1.01,1.011,1.011,1.011,0,0,0,1.01-1.011A1.011,1.011,0,0,0,3781.405-7989.52Z" transform="translate(-3707.838 8021.767)" fill="#948f8a"/><path d="M3738.672-8000.2a1.011,1.011,0,0,0-1.01,1.01,1.011,1.011,0,0,0,1.01,1.011,1.011,1.011,0,0,0,1.01-1.011A1.011,1.011,0,0,0,3738.672-8000.2Z" transform="translate(-3697.352 8024.389)" fill="#948f8a"/><path d="M3727.989-8000.2a1.011,1.011,0,0,0-1.011,1.01,1.012,1.012,0,0,0,1.011,1.011,1.011,1.011,0,0,0,1.01-1.011A1.011,1.011,0,0,0,3727.989-8000.2Z" transform="translate(-3694.731 8024.389)" fill="#948f8a"/><path d="M3717.306-7946.789a1.012,1.012,0,0,0-1.011,1.012,1.011,1.011,0,0,0,1.011,1.01,1.012,1.012,0,0,0,1.011-1.01A1.013,1.013,0,0,0,3717.306-7946.789Z" transform="translate(-3692.11 8011.281)" fill="#948f8a"/><path d="M3717.306-7936.1a1.012,1.012,0,0,0-1.011,1.011,1.011,1.011,0,0,0,1.011,1.009,1.011,1.011,0,0,0,1.011-1.009A1.013,1.013,0,0,0,3717.306-7936.1Z" transform="translate(-3692.11 8008.66)" fill="#948f8a"/><path d="M3717.306-7957.472a1.012,1.012,0,0,0-1.011,1.012,1.012,1.012,0,0,0,1.011,1.011,1.013,1.013,0,0,0,1.011-1.011A1.013,1.013,0,0,0,3717.306-7957.472Z" transform="translate(-3692.11 8013.903)" fill="#948f8a"/><path d="M3717.306-7968.152a1.009,1.009,0,0,0-1.011,1.009,1.011,1.011,0,0,0,1.011,1.01,1.012,1.012,0,0,0,1.011-1.01A1.01,1.01,0,0,0,3717.306-7968.152Z" transform="translate(-3692.11 8016.523)" fill="#948f8a"/><path d="M3717.306-7978.838a1.012,1.012,0,0,0-1.011,1.011,1.012,1.012,0,0,0,1.011,1.011,1.013,1.013,0,0,0,1.011-1.011A1.013,1.013,0,0,0,3717.306-7978.838Z" transform="translate(-3692.11 8019.146)" fill="#948f8a"/><path d="M3717.306-7989.52a1.011,1.011,0,0,0-1.011,1.009,1.011,1.011,0,0,0,1.011,1.011,1.012,1.012,0,0,0,1.011-1.011A1.012,1.012,0,0,0,3717.306-7989.52Z" transform="translate(-3692.11 8021.767)" fill="#948f8a"/><path d="M3717.306-8000.2a1.011,1.011,0,0,0-1.011,1.01,1.012,1.012,0,0,0,1.011,1.011,1.012,1.012,0,0,0,1.011-1.011A1.012,1.012,0,0,0,3717.306-8000.2Z" transform="translate(-3692.11 8024.389)" fill="#948f8a"/><path d="M3770.721-8000.2a1.012,1.012,0,0,0-1.011,1.01,1.012,1.012,0,0,0,1.011,1.011,1.012,1.012,0,0,0,1.011-1.011A1.012,1.012,0,0,0,3770.721-8000.2Z" transform="translate(-3705.215 8024.389)" fill="#948f8a"/><path d="M3760.038-8000.2a1.011,1.011,0,0,0-1.01,1.01,1.011,1.011,0,0,0,1.01,1.011,1.012,1.012,0,0,0,1.011-1.011A1.012,1.012,0,0,0,3760.038-8000.2Z" transform="translate(-3702.594 8024.389)" fill="#948f8a"/><path d="M3749.355-8000.2a1.012,1.012,0,0,0-1.01,1.01,1.012,1.012,0,0,0,1.01,1.011,1.012,1.012,0,0,0,1.011-1.011A1.011,1.011,0,0,0,3749.355-8000.2Z" transform="translate(-3699.973 8024.389)" fill="#948f8a"/><path d="M3781.405-8000.2a1.012,1.012,0,0,0-1.01,1.01,1.012,1.012,0,0,0,1.01,1.011,1.012,1.012,0,0,0,1.01-1.011A1.012,1.012,0,0,0,3781.405-8000.2Z" transform="translate(-3707.838 8024.389)" fill="#948f8a"/><path d="M3738.672-8010.888a1.012,1.012,0,0,0-1.01,1.011,1.012,1.012,0,0,0,1.01,1.011,1.012,1.012,0,0,0,1.01-1.011A1.012,1.012,0,0,0,3738.672-8010.888Z" transform="translate(-3697.352 8027.011)" fill="#948f8a"/><path d="M3727.989-8010.888a1.012,1.012,0,0,0-1.011,1.011,1.012,1.012,0,0,0,1.011,1.011,1.012,1.012,0,0,0,1.01-1.011A1.012,1.012,0,0,0,3727.989-8010.888Z" transform="translate(-3694.731 8027.011)" fill="#948f8a"/><path d="M3717.306-8010.888a1.012,1.012,0,0,0-1.011,1.011,1.012,1.012,0,0,0,1.011,1.011,1.013,1.013,0,0,0,1.011-1.011A1.013,1.013,0,0,0,3717.306-8010.888Z" transform="translate(-3692.11 8027.011)" fill="#948f8a"/><path d="M3706.622-7946.789a1.013,1.013,0,0,0-1.011,1.012,1.012,1.012,0,0,0,1.011,1.01,1.012,1.012,0,0,0,1.011-1.01A1.013,1.013,0,0,0,3706.622-7946.789Z" transform="translate(-3689.487 8011.281)" fill="#948f8a"/><path d="M3706.622-7936.1a1.012,1.012,0,0,0-1.011,1.011,1.011,1.011,0,0,0,1.011,1.009,1.012,1.012,0,0,0,1.011-1.009A1.013,1.013,0,0,0,3706.622-7936.1Z" transform="translate(-3689.487 8008.66)" fill="#948f8a"/><path d="M3706.622-7957.472a1.013,1.013,0,0,0-1.011,1.012,1.012,1.012,0,0,0,1.011,1.011,1.013,1.013,0,0,0,1.011-1.011A1.013,1.013,0,0,0,3706.622-7957.472Z" transform="translate(-3689.487 8013.903)" fill="#948f8a"/><path d="M3706.622-7968.152a1.01,1.01,0,0,0-1.011,1.009,1.012,1.012,0,0,0,1.011,1.01,1.012,1.012,0,0,0,1.011-1.01A1.01,1.01,0,0,0,3706.622-7968.152Z" transform="translate(-3689.487 8016.523)" fill="#948f8a"/><path d="M3706.622-7978.838a1.012,1.012,0,0,0-1.011,1.011,1.012,1.012,0,0,0,1.011,1.011,1.013,1.013,0,0,0,1.011-1.011A1.013,1.013,0,0,0,3706.622-7978.838Z" transform="translate(-3689.487 8019.146)" fill="#948f8a"/><path d="M3706.622-7989.52a1.011,1.011,0,0,0-1.011,1.009,1.011,1.011,0,0,0,1.011,1.011,1.012,1.012,0,0,0,1.011-1.011A1.012,1.012,0,0,0,3706.622-7989.52Z" transform="translate(-3689.487 8021.767)" fill="#948f8a"/><path d="M3706.622-8000.2a1.012,1.012,0,0,0-1.011,1.01,1.012,1.012,0,0,0,1.011,1.011,1.013,1.013,0,0,0,1.011-1.011A1.012,1.012,0,0,0,3706.622-8000.2Z" transform="translate(-3689.487 8024.389)" fill="#948f8a"/><path d="M3706.622-8010.888a1.012,1.012,0,0,0-1.011,1.011,1.012,1.012,0,0,0,1.011,1.011,1.013,1.013,0,0,0,1.011-1.011A1.013,1.013,0,0,0,3706.622-8010.888Z" transform="translate(-3689.487 8027.011)" fill="#948f8a"/><path d="M3770.721-8010.888a1.012,1.012,0,0,0-1.011,1.011,1.012,1.012,0,0,0,1.011,1.011,1.013,1.013,0,0,0,1.011-1.011A1.013,1.013,0,0,0,3770.721-8010.888Z" transform="translate(-3705.215 8027.011)" fill="#948f8a"/><path d="M3760.038-8010.888a1.012,1.012,0,0,0-1.01,1.011,1.012,1.012,0,0,0,1.01,1.011,1.013,1.013,0,0,0,1.011-1.011A1.013,1.013,0,0,0,3760.038-8010.888Z" transform="translate(-3702.594 8027.011)" fill="#948f8a"/><path d="M3749.355-8010.888a1.012,1.012,0,0,0-1.01,1.011,1.012,1.012,0,0,0,1.01,1.011,1.012,1.012,0,0,0,1.011-1.011A1.012,1.012,0,0,0,3749.355-8010.888Z" transform="translate(-3699.973 8027.011)" fill="#948f8a"/><path d="M3781.405-8010.888a1.012,1.012,0,0,0-1.01,1.011,1.012,1.012,0,0,0,1.01,1.011,1.012,1.012,0,0,0,1.01-1.011A1.012,1.012,0,0,0,3781.405-8010.888Z" transform="translate(-3707.838 8027.011)" fill="#948f8a"/><path d="M3738.672-8021.569a1.011,1.011,0,0,0-1.01,1.011,1.011,1.011,0,0,0,1.01,1.01,1.011,1.011,0,0,0,1.01-1.01A1.011,1.011,0,0,0,3738.672-8021.569Z" transform="translate(-3697.352 8029.632)" fill="#948f8a"/><path d="M3727.989-8021.569a1.011,1.011,0,0,0-1.011,1.011,1.011,1.011,0,0,0,1.011,1.01,1.011,1.011,0,0,0,1.01-1.01A1.011,1.011,0,0,0,3727.989-8021.569Z" transform="translate(-3694.731 8029.632)" fill="#948f8a"/><path d="M3717.306-8021.569a1.011,1.011,0,0,0-1.011,1.011,1.011,1.011,0,0,0,1.011,1.01,1.012,1.012,0,0,0,1.011-1.01A1.012,1.012,0,0,0,3717.306-8021.569Z" transform="translate(-3692.11 8029.632)" fill="#948f8a"/><path d="M3706.622-8021.569a1.011,1.011,0,0,0-1.011,1.011,1.012,1.012,0,0,0,1.011,1.01,1.012,1.012,0,0,0,1.011-1.01A1.012,1.012,0,0,0,3706.622-8021.569Z" transform="translate(-3689.487 8029.632)" fill="#948f8a"/><path d="M3695.94-7946.789a1.013,1.013,0,0,0-1.011,1.012,1.012,1.012,0,0,0,1.011,1.01,1.011,1.011,0,0,0,1.01-1.01A1.012,1.012,0,0,0,3695.94-7946.789Z" transform="translate(-3686.866 8011.281)" fill="#948f8a"/><path d="M3695.94-7936.1a1.013,1.013,0,0,0-1.011,1.011,1.011,1.011,0,0,0,1.011,1.009,1.01,1.01,0,0,0,1.01-1.009A1.012,1.012,0,0,0,3695.94-7936.1Z" transform="translate(-3686.866 8008.66)" fill="#948f8a"/><path d="M3695.94-7957.472a1.013,1.013,0,0,0-1.011,1.012,1.013,1.013,0,0,0,1.011,1.011,1.012,1.012,0,0,0,1.01-1.011A1.012,1.012,0,0,0,3695.94-7957.472Z" transform="translate(-3686.866 8013.903)" fill="#948f8a"/><path d="M3695.94-7968.152a1.01,1.01,0,0,0-1.011,1.009,1.012,1.012,0,0,0,1.011,1.01,1.011,1.011,0,0,0,1.01-1.01A1.009,1.009,0,0,0,3695.94-7968.152Z" transform="translate(-3686.866 8016.523)" fill="#948f8a"/><path d="M3695.94-7978.838a1.013,1.013,0,0,0-1.011,1.011,1.013,1.013,0,0,0,1.011,1.011,1.012,1.012,0,0,0,1.01-1.011A1.012,1.012,0,0,0,3695.94-7978.838Z" transform="translate(-3686.866 8019.146)" fill="#948f8a"/><path d="M3695.94-7989.52a1.012,1.012,0,0,0-1.011,1.009,1.011,1.011,0,0,0,1.011,1.011,1.011,1.011,0,0,0,1.01-1.011A1.011,1.011,0,0,0,3695.94-7989.52Z" transform="translate(-3686.866 8021.767)" fill="#948f8a"/><path d="M3695.94-8000.2a1.012,1.012,0,0,0-1.011,1.01,1.012,1.012,0,0,0,1.011,1.011,1.011,1.011,0,0,0,1.01-1.011A1.011,1.011,0,0,0,3695.94-8000.2Z" transform="translate(-3686.866 8024.389)" fill="#948f8a"/><path d="M3695.94-8010.888a1.013,1.013,0,0,0-1.011,1.011,1.013,1.013,0,0,0,1.011,1.011,1.012,1.012,0,0,0,1.01-1.011A1.012,1.012,0,0,0,3695.94-8010.888Z" transform="translate(-3686.866 8027.011)" fill="#948f8a"/><path d="M3695.94-8021.569a1.011,1.011,0,0,0-1.011,1.011,1.012,1.012,0,0,0,1.011,1.01,1.011,1.011,0,0,0,1.01-1.01A1.011,1.011,0,0,0,3695.94-8021.569Z" transform="translate(-3686.866 8029.632)" fill="#948f8a"/><path d="M3770.721-8021.569a1.011,1.011,0,0,0-1.011,1.011,1.012,1.012,0,0,0,1.011,1.01,1.012,1.012,0,0,0,1.011-1.01A1.011,1.011,0,0,0,3770.721-8021.569Z" transform="translate(-3705.215 8029.632)" fill="#948f8a"/><path d="M3760.038-8021.569a1.011,1.011,0,0,0-1.01,1.011,1.011,1.011,0,0,0,1.01,1.01,1.012,1.012,0,0,0,1.011-1.01A1.012,1.012,0,0,0,3760.038-8021.569Z" transform="translate(-3702.594 8029.632)" fill="#948f8a"/><path d="M3749.355-8021.569a1.011,1.011,0,0,0-1.01,1.011,1.012,1.012,0,0,0,1.01,1.01,1.011,1.011,0,0,0,1.011-1.01A1.011,1.011,0,0,0,3749.355-8021.569Z" transform="translate(-3699.973 8029.632)" fill="#948f8a"/><path d="M3781.405-8021.569a1.011,1.011,0,0,0-1.01,1.011,1.012,1.012,0,0,0,1.01,1.01,1.012,1.012,0,0,0,1.01-1.01A1.011,1.011,0,0,0,3781.405-8021.569Z" transform="translate(-3707.838 8029.632)" fill="#948f8a"/><path d="M3738.672-8032.253a1.011,1.011,0,0,0-1.01,1.011,1.011,1.011,0,0,0,1.01,1.01,1.011,1.011,0,0,0,1.01-1.01A1.011,1.011,0,0,0,3738.672-8032.253Z" transform="translate(-3697.352 8032.253)" fill="#948f8a"/><path d="M3727.989-8032.253a1.012,1.012,0,0,0-1.011,1.011,1.011,1.011,0,0,0,1.011,1.01,1.011,1.011,0,0,0,1.01-1.01A1.011,1.011,0,0,0,3727.989-8032.253Z" transform="translate(-3694.731 8032.253)" fill="#948f8a"/><path d="M3717.306-8032.253a1.012,1.012,0,0,0-1.011,1.011,1.011,1.011,0,0,0,1.011,1.01,1.012,1.012,0,0,0,1.011-1.01A1.012,1.012,0,0,0,3717.306-8032.253Z" transform="translate(-3692.11 8032.253)" fill="#948f8a"/><path d="M3706.622-8032.253a1.012,1.012,0,0,0-1.011,1.011,1.012,1.012,0,0,0,1.011,1.01,1.012,1.012,0,0,0,1.011-1.01A1.013,1.013,0,0,0,3706.622-8032.253Z" transform="translate(-3689.487 8032.253)" fill="#948f8a"/><path d="M3695.94-8032.253a1.012,1.012,0,0,0-1.011,1.011,1.012,1.012,0,0,0,1.011,1.01,1.011,1.011,0,0,0,1.01-1.01A1.011,1.011,0,0,0,3695.94-8032.253Z" transform="translate(-3686.866 8032.253)" fill="#948f8a"/><path d="M3695.94-8032.253a1.012,1.012,0,0,0-1.011,1.011,1.012,1.012,0,0,0,1.011,1.01,1.011,1.011,0,0,0,1.01-1.01A1.011,1.011,0,0,0,3695.94-8032.253Z" transform="translate(-3694.929 8032.253)" fill="#948f8a"/><path d="M3685.256-7946.789a1.012,1.012,0,0,0-1.01,1.012,1.011,1.011,0,0,0,1.01,1.01,1.011,1.011,0,0,0,1.011-1.01A1.012,1.012,0,0,0,3685.256-7946.789Z" transform="translate(-3684.245 8011.281)" fill="#948f8a"/><path d="M3685.256-7936.1a1.012,1.012,0,0,0-1.01,1.011,1.01,1.01,0,0,0,1.01,1.009,1.01,1.01,0,0,0,1.011-1.009A1.012,1.012,0,0,0,3685.256-7936.1Z" transform="translate(-3684.245 8008.66)" fill="#948f8a"/><path d="M3685.256-7957.472a1.012,1.012,0,0,0-1.01,1.012,1.012,1.012,0,0,0,1.01,1.011,1.012,1.012,0,0,0,1.011-1.011A1.012,1.012,0,0,0,3685.256-7957.472Z" transform="translate(-3684.245 8013.903)" fill="#948f8a"/><path d="M3685.256-7968.152a1.009,1.009,0,0,0-1.01,1.009,1.011,1.011,0,0,0,1.01,1.01,1.011,1.011,0,0,0,1.011-1.01A1.009,1.009,0,0,0,3685.256-7968.152Z" transform="translate(-3684.245 8016.523)" fill="#948f8a"/><path d="M3685.256-7978.838a1.012,1.012,0,0,0-1.01,1.011,1.012,1.012,0,0,0,1.01,1.011,1.012,1.012,0,0,0,1.011-1.011A1.012,1.012,0,0,0,3685.256-7978.838Z" transform="translate(-3684.245 8019.146)" fill="#948f8a"/><path d="M3685.256-7989.52a1.011,1.011,0,0,0-1.01,1.009,1.011,1.011,0,0,0,1.01,1.011,1.011,1.011,0,0,0,1.011-1.011A1.011,1.011,0,0,0,3685.256-7989.52Z" transform="translate(-3684.245 8021.767)" fill="#948f8a"/><path d="M3685.256-8000.2a1.011,1.011,0,0,0-1.01,1.01,1.011,1.011,0,0,0,1.01,1.011,1.012,1.012,0,0,0,1.011-1.011A1.011,1.011,0,0,0,3685.256-8000.2Z" transform="translate(-3684.245 8024.389)" fill="#948f8a"/><path d="M3685.256-8010.888a1.012,1.012,0,0,0-1.01,1.011,1.012,1.012,0,0,0,1.01,1.011,1.012,1.012,0,0,0,1.011-1.011A1.012,1.012,0,0,0,3685.256-8010.888Z" transform="translate(-3684.245 8027.011)" fill="#948f8a"/><path d="M3685.256-8021.569a1.011,1.011,0,0,0-1.01,1.011,1.011,1.011,0,0,0,1.01,1.01,1.011,1.011,0,0,0,1.011-1.01A1.011,1.011,0,0,0,3685.256-8021.569Z" transform="translate(-3684.245 8029.632)" fill="#948f8a"/><path d="M3770.721-8032.253a1.012,1.012,0,0,0-1.011,1.011,1.012,1.012,0,0,0,1.011,1.01,1.012,1.012,0,0,0,1.011-1.01A1.012,1.012,0,0,0,3770.721-8032.253Z" transform="translate(-3705.215 8032.253)" fill="#948f8a"/><path d="M3760.038-8032.253a1.011,1.011,0,0,0-1.01,1.011,1.011,1.011,0,0,0,1.01,1.01,1.012,1.012,0,0,0,1.011-1.01A1.012,1.012,0,0,0,3760.038-8032.253Z" transform="translate(-3702.594 8032.253)" fill="#948f8a"/><path d="M3749.355-8032.253a1.012,1.012,0,0,0-1.01,1.011,1.012,1.012,0,0,0,1.01,1.01,1.011,1.011,0,0,0,1.011-1.01A1.012,1.012,0,0,0,3749.355-8032.253Z" transform="translate(-3699.973 8032.253)" fill="#948f8a"/><path d="M3781.405-8032.253a1.012,1.012,0,0,0-1.01,1.011,1.012,1.012,0,0,0,1.01,1.01,1.012,1.012,0,0,0,1.01-1.01A1.012,1.012,0,0,0,3781.405-8032.253Z" transform="translate(-3707.838 8032.253)" fill="#948f8a"/><path d="M3781.405-7936.1a1.012,1.012,0,0,0-1.01,1.011,1.011,1.011,0,0,0,1.01,1.009,1.011,1.011,0,0,0,1.01-1.009A1.012,1.012,0,0,0,3781.405-7936.1Z" transform="translate(-3707.838 8008.66)" fill="#948f8a"/></svg>