<svg xmlns="http://www.w3.org/2000/svg" width="45.411" height="45.411" viewBox="0 0 45.411 45.411">
  <g id="dots" transform="translate(-2)">
    <path id="Path_6127" data-name="Path 6127" d="M3674.9-7754.49a1.34,1.34,0,0,0-1.339,1.338,1.341,1.341,0,0,0,1.339,1.339,1.341,1.341,0,0,0,1.339-1.339A1.34,1.34,0,0,0,3674.9-7754.49Z" transform="translate(-3671.563 7797.224)" fill="#d1ccc1"/>
    <path id="Path_6128" data-name="Path 6128" d="M3674.9-7765.174a1.341,1.341,0,0,0-1.339,1.339,1.341,1.341,0,0,0,1.339,1.339,1.341,1.341,0,0,0,1.339-1.339A1.341,1.341,0,0,0,3674.9-7765.174Z" transform="translate(-3671.563 7797.224)" fill="#d1ccc1"/>
    <path id="Path_6129" data-name="Path 6129" d="M3674.9-7786.541a1.342,1.342,0,0,0-1.339,1.34,1.341,1.341,0,0,0,1.339,1.339,1.341,1.341,0,0,0,1.339-1.339A1.342,1.342,0,0,0,3674.9-7786.541Z" transform="translate(-3671.563 7797.224)" fill="#d1ccc1"/>
    <path id="Path_6130" data-name="Path 6130" d="M3674.9-7797.224a1.341,1.341,0,0,0-1.339,1.339,1.341,1.341,0,0,0,1.339,1.34,1.341,1.341,0,0,0,1.339-1.34A1.341,1.341,0,0,0,3674.9-7797.224Z" transform="translate(-3671.563 7797.224)" fill="#d1ccc1"/>
    <path id="Path_6131" data-name="Path 6131" d="M3674.9-7775.857a1.341,1.341,0,0,0-1.339,1.339,1.34,1.34,0,0,0,1.339,1.339,1.34,1.34,0,0,0,1.339-1.339A1.341,1.341,0,0,0,3674.9-7775.857Z" transform="translate(-3671.563 7797.224)" fill="#d1ccc1"/>
    <path id="Path_6132" data-name="Path 6132" d="M3717.635-7754.49a1.34,1.34,0,0,0-1.34,1.338,1.341,1.341,0,0,0,1.34,1.339,1.341,1.341,0,0,0,1.339-1.339A1.34,1.34,0,0,0,3717.635-7754.49Z" transform="translate(-3671.563 7797.224)" fill="#d1ccc1"/>
    <path id="Path_6133" data-name="Path 6133" d="M3717.635-7765.174a1.341,1.341,0,0,0-1.34,1.339,1.341,1.341,0,0,0,1.34,1.339,1.341,1.341,0,0,0,1.339-1.339A1.341,1.341,0,0,0,3717.635-7765.174Z" transform="translate(-3671.563 7797.224)" fill="#d1ccc1"/>
    <path id="Path_6134" data-name="Path 6134" d="M3717.635-7786.541a1.342,1.342,0,0,0-1.34,1.34,1.341,1.341,0,0,0,1.34,1.339,1.341,1.341,0,0,0,1.339-1.339A1.342,1.342,0,0,0,3717.635-7786.541Z" transform="translate(-3671.563 7797.224)" fill="#d1ccc1"/>
    <path id="Path_6135" data-name="Path 6135" d="M3717.635-7797.224a1.341,1.341,0,0,0-1.34,1.339,1.341,1.341,0,0,0,1.34,1.34,1.341,1.341,0,0,0,1.339-1.34A1.341,1.341,0,0,0,3717.635-7797.224Z" transform="translate(-3671.563 7797.224)" fill="#d1ccc1"/>
    <path id="Path_6136" data-name="Path 6136" d="M3717.635-7775.857a1.341,1.341,0,0,0-1.34,1.339,1.34,1.34,0,0,0,1.34,1.339,1.34,1.34,0,0,0,1.339-1.339A1.341,1.341,0,0,0,3717.635-7775.857Z" transform="translate(-3671.563 7797.224)" fill="#d1ccc1"/>
    <path id="Path_6137" data-name="Path 6137" d="M3706.951-7754.49a1.339,1.339,0,0,0-1.339,1.338,1.341,1.341,0,0,0,1.339,1.339,1.342,1.342,0,0,0,1.34-1.339A1.341,1.341,0,0,0,3706.951-7754.49Z" transform="translate(-3671.563 7797.224)" fill="#d1ccc1"/>
    <path id="Path_6138" data-name="Path 6138" d="M3706.951-7765.174a1.341,1.341,0,0,0-1.339,1.339,1.341,1.341,0,0,0,1.339,1.339,1.342,1.342,0,0,0,1.34-1.339A1.342,1.342,0,0,0,3706.951-7765.174Z" transform="translate(-3671.563 7797.224)" fill="#d1ccc1"/>
    <path id="Path_6139" data-name="Path 6139" d="M3706.951-7786.541a1.342,1.342,0,0,0-1.339,1.34,1.341,1.341,0,0,0,1.339,1.339,1.342,1.342,0,0,0,1.34-1.339A1.343,1.343,0,0,0,3706.951-7786.541Z" transform="translate(-3671.563 7797.224)" fill="#d1ccc1"/>
    <path id="Path_6140" data-name="Path 6140" d="M3706.951-7797.224a1.341,1.341,0,0,0-1.339,1.339,1.341,1.341,0,0,0,1.339,1.34,1.342,1.342,0,0,0,1.34-1.34A1.342,1.342,0,0,0,3706.951-7797.224Z" transform="translate(-3671.563 7797.224)" fill="#d1ccc1"/>
    <path id="Path_6141" data-name="Path 6141" d="M3706.951-7775.857a1.341,1.341,0,0,0-1.339,1.339,1.34,1.34,0,0,0,1.339,1.339,1.341,1.341,0,0,0,1.34-1.339A1.342,1.342,0,0,0,3706.951-7775.857Z" transform="translate(-3671.563 7797.224)" fill="#d1ccc1"/>
    <path id="Path_6142" data-name="Path 6142" d="M3696.269-7754.49a1.34,1.34,0,0,0-1.34,1.338,1.341,1.341,0,0,0,1.34,1.339,1.34,1.34,0,0,0,1.338-1.339A1.339,1.339,0,0,0,3696.269-7754.49Z" transform="translate(-3671.563 7797.224)" fill="#d1ccc1"/>
    <path id="Path_6143" data-name="Path 6143" d="M3696.269-7765.174a1.341,1.341,0,0,0-1.34,1.339,1.341,1.341,0,0,0,1.34,1.339,1.34,1.34,0,0,0,1.338-1.339A1.34,1.34,0,0,0,3696.269-7765.174Z" transform="translate(-3671.563 7797.224)" fill="#d1ccc1"/>
    <path id="Path_6144" data-name="Path 6144" d="M3696.269-7786.541a1.342,1.342,0,0,0-1.34,1.34,1.341,1.341,0,0,0,1.34,1.339,1.34,1.34,0,0,0,1.338-1.339A1.341,1.341,0,0,0,3696.269-7786.541Z" transform="translate(-3671.563 7797.224)" fill="#d1ccc1"/>
    <path id="Path_6145" data-name="Path 6145" d="M3696.269-7797.224a1.341,1.341,0,0,0-1.34,1.339,1.341,1.341,0,0,0,1.34,1.34,1.34,1.34,0,0,0,1.338-1.34A1.34,1.34,0,0,0,3696.269-7797.224Z" transform="translate(-3671.563 7797.224)" fill="#d1ccc1"/>
    <path id="Path_6146" data-name="Path 6146" d="M3696.269-7775.857a1.341,1.341,0,0,0-1.34,1.339,1.34,1.34,0,0,0,1.34,1.339,1.339,1.339,0,0,0,1.338-1.339A1.34,1.34,0,0,0,3696.269-7775.857Z" transform="translate(-3671.563 7797.224)" fill="#d1ccc1"/>
    <path id="Path_6147" data-name="Path 6147" d="M3685.585-7754.49a1.339,1.339,0,0,0-1.339,1.338,1.341,1.341,0,0,0,1.339,1.339,1.341,1.341,0,0,0,1.339-1.339A1.34,1.34,0,0,0,3685.585-7754.49Z" transform="translate(-3671.563 7797.224)" fill="#d1ccc1"/>
    <path id="Path_6148" data-name="Path 6148" d="M3685.585-7765.174a1.341,1.341,0,0,0-1.339,1.339,1.341,1.341,0,0,0,1.339,1.339,1.341,1.341,0,0,0,1.339-1.339A1.341,1.341,0,0,0,3685.585-7765.174Z" transform="translate(-3671.563 7797.224)" fill="#d1ccc1"/>
    <path id="Path_6149" data-name="Path 6149" d="M3685.585-7786.541a1.342,1.342,0,0,0-1.339,1.34,1.341,1.341,0,0,0,1.339,1.339,1.341,1.341,0,0,0,1.339-1.339A1.342,1.342,0,0,0,3685.585-7786.541Z" transform="translate(-3671.563 7797.224)" fill="#d1ccc1"/>
    <path id="Path_6150" data-name="Path 6150" d="M3685.585-7797.224a1.341,1.341,0,0,0-1.339,1.339,1.341,1.341,0,0,0,1.339,1.34,1.341,1.341,0,0,0,1.339-1.34A1.341,1.341,0,0,0,3685.585-7797.224Z" transform="translate(-3671.563 7797.224)" fill="#d1ccc1"/>
    <path id="Path_6151" data-name="Path 6151" d="M3685.585-7775.857a1.341,1.341,0,0,0-1.339,1.339,1.34,1.34,0,0,0,1.339,1.339,1.34,1.34,0,0,0,1.339-1.339A1.341,1.341,0,0,0,3685.585-7775.857Z" transform="translate(-3671.563 7797.224)" fill="#d1ccc1"/>
  </g>
</svg>
