<svg xmlns="http://www.w3.org/2000/svg" width="119.059" height="111.629" viewBox="0 0 119.059 111.629">
  <g id="Group_1260" data-name="Group 1260" transform="translate(-65.682 0)" opacity="0.2">
    <path id="Path_5370" data-name="Path 5370" d="M3889.285-8042.939a2.16,2.16,0,0,0-2.058,2.24,2.154,2.154,0,0,0,2.058,2.237,2.154,2.154,0,0,0,2.058-2.237A2.159,2.159,0,0,0,3889.285-8042.939Z" transform="translate(-3821.545 8042.939)" fill="#2b2b2e"/>
    <path id="Path_5371" data-name="Path 5371" d="M3899.968-8042.939a2.16,2.16,0,0,0-2.058,2.24,2.154,2.154,0,0,0,2.058,2.237,2.154,2.154,0,0,0,2.058-2.237A2.159,2.159,0,0,0,3899.968-8042.939Z" transform="translate(-3815.809 8042.939)" fill="#2b2b2e"/>
    <path id="Path_5372" data-name="Path 5372" d="M3910.651-8042.939a2.16,2.16,0,0,0-2.058,2.24,2.154,2.154,0,0,0,2.058,2.237,2.154,2.154,0,0,0,2.058-2.237A2.16,2.16,0,0,0,3910.651-8042.939Z" transform="translate(-3810.071 8042.939)" fill="#2b2b2e"/>
    <path id="Path_5373" data-name="Path 5373" d="M3921.334-8042.939a2.16,2.16,0,0,0-2.059,2.24,2.155,2.155,0,0,0,2.059,2.237,2.154,2.154,0,0,0,2.06-2.237A2.159,2.159,0,0,0,3921.334-8042.939Z" transform="translate(-3804.334 8042.939)" fill="#2b2b2e"/>
    <path id="Path_5374" data-name="Path 5374" d="M3953.384-8042.939a2.16,2.16,0,0,0-2.058,2.24,2.154,2.154,0,0,0,2.058,2.237,2.154,2.154,0,0,0,2.058-2.237A2.159,2.159,0,0,0,3953.384-8042.939Z" transform="translate(-3787.122 8042.939)" fill="#2b2b2e"/>
    <path id="Path_5385" data-name="Path 5385" d="M3942.7-8042.939a2.158,2.158,0,0,0-2.056,2.24,2.153,2.153,0,0,0,2.056,2.237,2.155,2.155,0,0,0,2.06-2.237A2.16,2.16,0,0,0,3942.7-8042.939Z" transform="translate(-3792.86 8042.939)" fill="#2b2b2e"/>
    <path id="Path_5520" data-name="Path 5520" d="M3932.017-8042.939a2.16,2.16,0,0,0-2.058,2.24,2.154,2.154,0,0,0,2.058,2.237,2.154,2.154,0,0,0,2.06-2.237A2.159,2.159,0,0,0,3932.017-8042.939Z" transform="translate(-3798.597 8042.939)" fill="#2b2b2e"/>
    <path id="Path_5521" data-name="Path 5521" d="M3964.067-8038.461a2.156,2.156,0,0,0,2.06-2.237,2.161,2.161,0,0,0-2.06-2.24,2.159,2.159,0,0,0-2.058,2.24A2.154,2.154,0,0,0,3964.067-8038.461Z" transform="translate(-3781.386 8042.939)" fill="#2b2b2e"/>
    <path id="Path_5758" data-name="Path 5758" d="M3889.285-7978.839a2.157,2.157,0,0,0-2.058,2.237,2.157,2.157,0,0,0,2.058,2.239,2.157,2.157,0,0,0,2.058-2.239A2.157,2.157,0,0,0,3889.285-7978.839Z" transform="translate(-3821.545 8085.992)" fill="#2b2b2e"/>
    <path id="Path_5759" data-name="Path 5759" d="M3899.968-7978.839a2.157,2.157,0,0,0-2.058,2.237,2.157,2.157,0,0,0,2.058,2.239,2.157,2.157,0,0,0,2.058-2.239A2.156,2.156,0,0,0,3899.968-7978.839Z" transform="translate(-3815.809 8085.992)" fill="#2b2b2e"/>
    <path id="Path_5760" data-name="Path 5760" d="M3910.651-7978.839a2.157,2.157,0,0,0-2.058,2.237,2.157,2.157,0,0,0,2.058,2.239,2.157,2.157,0,0,0,2.058-2.239A2.157,2.157,0,0,0,3910.651-7978.839Z" transform="translate(-3810.071 8085.992)" fill="#2b2b2e"/>
    <path id="Path_5761" data-name="Path 5761" d="M3921.334-7978.839a2.157,2.157,0,0,0-2.059,2.237,2.158,2.158,0,0,0,2.059,2.239,2.157,2.157,0,0,0,2.06-2.239A2.157,2.157,0,0,0,3921.334-7978.839Z" transform="translate(-3804.334 8085.992)" fill="#2b2b2e"/>
    <path id="Path_5762" data-name="Path 5762" d="M3953.384-7978.839a2.157,2.157,0,0,0-2.058,2.237,2.157,2.157,0,0,0,2.058,2.239,2.157,2.157,0,0,0,2.058-2.239A2.157,2.157,0,0,0,3953.384-7978.839Z" transform="translate(-3787.122 8085.992)" fill="#2b2b2e"/>
    <path id="Path_5763" data-name="Path 5763" d="M3942.7-7978.839a2.155,2.155,0,0,0-2.056,2.237,2.156,2.156,0,0,0,2.056,2.239,2.158,2.158,0,0,0,2.06-2.239A2.157,2.157,0,0,0,3942.7-7978.839Z" transform="translate(-3792.86 8085.992)" fill="#2b2b2e"/>
    <path id="Path_5771" data-name="Path 5771" d="M3932.017-7978.839a2.157,2.157,0,0,0-2.058,2.237,2.157,2.157,0,0,0,2.058,2.239,2.157,2.157,0,0,0,2.06-2.239A2.157,2.157,0,0,0,3932.017-7978.839Z" transform="translate(-3798.597 8085.992)" fill="#2b2b2e"/>
    <path id="Path_5772" data-name="Path 5772" d="M3964.067-7978.839a2.157,2.157,0,0,0-2.058,2.237,2.157,2.157,0,0,0,2.058,2.239,2.159,2.159,0,0,0,2.06-2.239A2.158,2.158,0,0,0,3964.067-7978.839Z" transform="translate(-3781.386 8085.992)" fill="#2b2b2e"/>
    <path id="Path_5805" data-name="Path 5805" d="M3889.285-7989.521a2.156,2.156,0,0,0-2.058,2.237,2.154,2.154,0,0,0,2.058,2.236,2.154,2.154,0,0,0,2.058-2.236A2.156,2.156,0,0,0,3889.285-7989.521Z" transform="translate(-3821.545 8078.815)" fill="#2b2b2e"/>
    <path id="Path_5806" data-name="Path 5806" d="M3899.968-7989.521a2.156,2.156,0,0,0-2.058,2.237,2.154,2.154,0,0,0,2.058,2.236,2.153,2.153,0,0,0,2.058-2.236A2.156,2.156,0,0,0,3899.968-7989.521Z" transform="translate(-3815.809 8078.815)" fill="#2b2b2e"/>
    <path id="Path_5807" data-name="Path 5807" d="M3910.651-7989.521a2.156,2.156,0,0,0-2.058,2.237,2.154,2.154,0,0,0,2.058,2.236,2.154,2.154,0,0,0,2.058-2.236A2.156,2.156,0,0,0,3910.651-7989.521Z" transform="translate(-3810.071 8078.815)" fill="#2b2b2e"/>
    <path id="Path_5808" data-name="Path 5808" d="M3921.334-7989.521a2.157,2.157,0,0,0-2.059,2.237,2.155,2.155,0,0,0,2.059,2.236,2.154,2.154,0,0,0,2.06-2.236A2.156,2.156,0,0,0,3921.334-7989.521Z" transform="translate(-3804.334 8078.815)" fill="#2b2b2e"/>
    <path id="Path_5809" data-name="Path 5809" d="M3953.384-7989.521a2.156,2.156,0,0,0-2.058,2.237,2.154,2.154,0,0,0,2.058,2.236,2.154,2.154,0,0,0,2.058-2.236A2.156,2.156,0,0,0,3953.384-7989.521Z" transform="translate(-3787.122 8078.815)" fill="#2b2b2e"/>
    <path id="Path_5810" data-name="Path 5810" d="M3942.7-7989.521a2.155,2.155,0,0,0-2.056,2.237,2.153,2.153,0,0,0,2.056,2.236,2.154,2.154,0,0,0,2.06-2.236A2.157,2.157,0,0,0,3942.7-7989.521Z" transform="translate(-3792.86 8078.815)" fill="#2b2b2e"/>
    <path id="Path_5818" data-name="Path 5818" d="M3932.017-7989.521a2.156,2.156,0,0,0-2.058,2.237,2.154,2.154,0,0,0,2.058,2.236,2.154,2.154,0,0,0,2.06-2.236A2.156,2.156,0,0,0,3932.017-7989.521Z" transform="translate(-3798.597 8078.815)" fill="#2b2b2e"/>
    <path id="Path_5819" data-name="Path 5819" d="M3964.067-7989.521a2.156,2.156,0,0,0-2.058,2.237,2.154,2.154,0,0,0,2.058,2.236,2.155,2.155,0,0,0,2.06-2.236A2.158,2.158,0,0,0,3964.067-7989.521Z" transform="translate(-3781.386 8078.815)" fill="#2b2b2e"/>
    <path id="Path_5854" data-name="Path 5854" d="M3889.285-8000.2a2.157,2.157,0,0,0-2.058,2.238,2.157,2.157,0,0,0,2.058,2.238,2.156,2.156,0,0,0,2.058-2.238A2.156,2.156,0,0,0,3889.285-8000.2Z" transform="translate(-3821.545 8071.64)" fill="#2b2b2e"/>
    <path id="Path_5855" data-name="Path 5855" d="M3899.968-8000.2a2.157,2.157,0,0,0-2.058,2.238,2.157,2.157,0,0,0,2.058,2.238,2.156,2.156,0,0,0,2.058-2.238A2.156,2.156,0,0,0,3899.968-8000.2Z" transform="translate(-3815.809 8071.64)" fill="#2b2b2e"/>
    <path id="Path_5856" data-name="Path 5856" d="M3910.651-8000.2a2.157,2.157,0,0,0-2.058,2.238,2.157,2.157,0,0,0,2.058,2.238,2.157,2.157,0,0,0,2.058-2.238A2.157,2.157,0,0,0,3910.651-8000.2Z" transform="translate(-3810.071 8071.64)" fill="#2b2b2e"/>
    <path id="Path_5857" data-name="Path 5857" d="M3921.334-8000.2a2.157,2.157,0,0,0-2.059,2.238,2.157,2.157,0,0,0,2.059,2.238,2.156,2.156,0,0,0,2.06-2.238A2.156,2.156,0,0,0,3921.334-8000.2Z" transform="translate(-3804.334 8071.64)" fill="#2b2b2e"/>
    <path id="Path_5858" data-name="Path 5858" d="M3953.384-8000.2a2.157,2.157,0,0,0-2.058,2.238,2.157,2.157,0,0,0,2.058,2.238,2.156,2.156,0,0,0,2.058-2.238A2.156,2.156,0,0,0,3953.384-8000.2Z" transform="translate(-3787.122 8071.64)" fill="#2b2b2e"/>
    <path id="Path_5859" data-name="Path 5859" d="M3942.7-8000.2a2.155,2.155,0,0,0-2.056,2.238,2.155,2.155,0,0,0,2.056,2.238,2.157,2.157,0,0,0,2.06-2.238A2.157,2.157,0,0,0,3942.7-8000.2Z" transform="translate(-3792.86 8071.64)" fill="#2b2b2e"/>
    <path id="Path_5867" data-name="Path 5867" d="M3932.017-8000.2a2.157,2.157,0,0,0-2.058,2.238,2.157,2.157,0,0,0,2.058,2.238,2.156,2.156,0,0,0,2.06-2.238A2.156,2.156,0,0,0,3932.017-8000.2Z" transform="translate(-3798.597 8071.64)" fill="#2b2b2e"/>
    <path id="Path_5868" data-name="Path 5868" d="M3964.067-8000.2a2.156,2.156,0,0,0-2.058,2.238,2.156,2.156,0,0,0,2.058,2.238,2.158,2.158,0,0,0,2.06-2.238A2.158,2.158,0,0,0,3964.067-8000.2Z" transform="translate(-3781.386 8071.64)" fill="#2b2b2e"/>
    <path id="Path_5905" data-name="Path 5905" d="M3889.285-8010.889a2.158,2.158,0,0,0-2.058,2.24,2.158,2.158,0,0,0,2.058,2.238,2.157,2.157,0,0,0,2.058-2.238A2.157,2.157,0,0,0,3889.285-8010.889Z" transform="translate(-3821.545 8064.465)" fill="#2b2b2e"/>
    <path id="Path_5906" data-name="Path 5906" d="M3899.968-8010.889a2.158,2.158,0,0,0-2.058,2.24,2.158,2.158,0,0,0,2.058,2.238,2.157,2.157,0,0,0,2.058-2.238A2.157,2.157,0,0,0,3899.968-8010.889Z" transform="translate(-3815.809 8064.465)" fill="#2b2b2e"/>
    <path id="Path_5907" data-name="Path 5907" d="M3910.651-8010.889a2.158,2.158,0,0,0-2.058,2.24,2.158,2.158,0,0,0,2.058,2.238,2.158,2.158,0,0,0,2.058-2.238A2.158,2.158,0,0,0,3910.651-8010.889Z" transform="translate(-3810.071 8064.465)" fill="#2b2b2e"/>
    <path id="Path_5908" data-name="Path 5908" d="M3921.334-8010.889a2.158,2.158,0,0,0-2.059,2.24,2.158,2.158,0,0,0,2.059,2.238,2.158,2.158,0,0,0,2.06-2.238A2.158,2.158,0,0,0,3921.334-8010.889Z" transform="translate(-3804.334 8064.465)" fill="#2b2b2e"/>
    <path id="Path_5909" data-name="Path 5909" d="M3953.384-8010.889a2.158,2.158,0,0,0-2.058,2.24,2.158,2.158,0,0,0,2.058,2.238,2.157,2.157,0,0,0,2.058-2.238A2.157,2.157,0,0,0,3953.384-8010.889Z" transform="translate(-3787.122 8064.465)" fill="#2b2b2e"/>
    <path id="Path_5910" data-name="Path 5910" d="M3942.7-8010.889a2.156,2.156,0,0,0-2.056,2.24,2.156,2.156,0,0,0,2.056,2.238,2.158,2.158,0,0,0,2.06-2.238A2.158,2.158,0,0,0,3942.7-8010.889Z" transform="translate(-3792.86 8064.465)" fill="#2b2b2e"/>
    <path id="Path_5918" data-name="Path 5918" d="M3932.017-8010.889a2.158,2.158,0,0,0-2.058,2.24,2.158,2.158,0,0,0,2.058,2.238,2.158,2.158,0,0,0,2.06-2.238A2.158,2.158,0,0,0,3932.017-8010.889Z" transform="translate(-3798.597 8064.465)" fill="#2b2b2e"/>
    <path id="Path_5919" data-name="Path 5919" d="M3964.067-8010.889a2.157,2.157,0,0,0-2.058,2.24,2.157,2.157,0,0,0,2.058,2.238,2.159,2.159,0,0,0,2.06-2.238A2.159,2.159,0,0,0,3964.067-8010.889Z" transform="translate(-3781.386 8064.465)" fill="#2b2b2e"/>
    <path id="Path_5958" data-name="Path 5958" d="M3889.285-8021.569a2.153,2.153,0,0,0-2.058,2.235,2.157,2.157,0,0,0,2.058,2.238,2.157,2.157,0,0,0,2.058-2.238A2.153,2.153,0,0,0,3889.285-8021.569Z" transform="translate(-3821.545 8057.289)" fill="#2b2b2e"/>
    <path id="Path_5959" data-name="Path 5959" d="M3899.968-8021.569a2.153,2.153,0,0,0-2.058,2.235,2.157,2.157,0,0,0,2.058,2.238,2.156,2.156,0,0,0,2.058-2.238A2.153,2.153,0,0,0,3899.968-8021.569Z" transform="translate(-3815.809 8057.289)" fill="#2b2b2e"/>
    <path id="Path_5960" data-name="Path 5960" d="M3910.651-8021.569a2.153,2.153,0,0,0-2.058,2.235,2.157,2.157,0,0,0,2.058,2.238,2.157,2.157,0,0,0,2.058-2.238A2.153,2.153,0,0,0,3910.651-8021.569Z" transform="translate(-3810.071 8057.289)" fill="#2b2b2e"/>
    <path id="Path_5961" data-name="Path 5961" d="M3921.334-8021.569a2.154,2.154,0,0,0-2.059,2.235,2.158,2.158,0,0,0,2.059,2.238,2.157,2.157,0,0,0,2.06-2.238A2.153,2.153,0,0,0,3921.334-8021.569Z" transform="translate(-3804.334 8057.289)" fill="#2b2b2e"/>
    <path id="Path_5962" data-name="Path 5962" d="M3953.384-8021.569a2.153,2.153,0,0,0-2.058,2.235,2.157,2.157,0,0,0,2.058,2.238,2.157,2.157,0,0,0,2.058-2.238A2.153,2.153,0,0,0,3953.384-8021.569Z" transform="translate(-3787.122 8057.289)" fill="#2b2b2e"/>
    <path id="Path_5963" data-name="Path 5963" d="M3942.7-8021.569a2.152,2.152,0,0,0-2.056,2.235,2.156,2.156,0,0,0,2.056,2.238,2.157,2.157,0,0,0,2.06-2.238A2.153,2.153,0,0,0,3942.7-8021.569Z" transform="translate(-3792.86 8057.289)" fill="#2b2b2e"/>
    <path id="Path_5971" data-name="Path 5971" d="M3932.017-8021.569a2.153,2.153,0,0,0-2.058,2.235,2.157,2.157,0,0,0,2.058,2.238,2.157,2.157,0,0,0,2.06-2.238A2.153,2.153,0,0,0,3932.017-8021.569Z" transform="translate(-3798.597 8057.289)" fill="#2b2b2e"/>
    <path id="Path_5972" data-name="Path 5972" d="M3964.067-8021.569a2.153,2.153,0,0,0-2.058,2.235,2.157,2.157,0,0,0,2.058,2.238,2.158,2.158,0,0,0,2.06-2.238A2.155,2.155,0,0,0,3964.067-8021.569Z" transform="translate(-3781.386 8057.289)" fill="#2b2b2e"/>
    <path id="Path_6013" data-name="Path 6013" d="M3889.285-8032.255a2.158,2.158,0,0,0-2.058,2.239,2.156,2.156,0,0,0,2.058,2.237,2.156,2.156,0,0,0,2.058-2.237A2.158,2.158,0,0,0,3889.285-8032.255Z" transform="translate(-3821.545 8050.115)" fill="#2b2b2e"/>
    <path id="Path_6014" data-name="Path 6014" d="M3899.968-8032.255a2.158,2.158,0,0,0-2.058,2.239,2.156,2.156,0,0,0,2.058,2.237,2.156,2.156,0,0,0,2.058-2.237A2.157,2.157,0,0,0,3899.968-8032.255Z" transform="translate(-3815.809 8050.115)" fill="#2b2b2e"/>
    <path id="Path_6015" data-name="Path 6015" d="M3910.651-8032.255a2.158,2.158,0,0,0-2.058,2.239,2.156,2.156,0,0,0,2.058,2.237,2.156,2.156,0,0,0,2.058-2.237A2.158,2.158,0,0,0,3910.651-8032.255Z" transform="translate(-3810.071 8050.115)" fill="#2b2b2e"/>
    <path id="Path_6016" data-name="Path 6016" d="M3921.334-8032.255a2.158,2.158,0,0,0-2.059,2.239,2.157,2.157,0,0,0,2.059,2.237,2.156,2.156,0,0,0,2.06-2.237A2.158,2.158,0,0,0,3921.334-8032.255Z" transform="translate(-3804.334 8050.115)" fill="#2b2b2e"/>
    <path id="Path_6017" data-name="Path 6017" d="M3953.384-8032.255a2.158,2.158,0,0,0-2.058,2.239,2.156,2.156,0,0,0,2.058,2.237,2.156,2.156,0,0,0,2.058-2.237A2.158,2.158,0,0,0,3953.384-8032.255Z" transform="translate(-3787.122 8050.115)" fill="#2b2b2e"/>
    <path id="Path_6018" data-name="Path 6018" d="M3942.7-8032.255a2.157,2.157,0,0,0-2.056,2.239,2.155,2.155,0,0,0,2.056,2.237,2.157,2.157,0,0,0,2.06-2.237A2.158,2.158,0,0,0,3942.7-8032.255Z" transform="translate(-3792.86 8050.115)" fill="#2b2b2e"/>
    <path id="Path_6026" data-name="Path 6026" d="M3932.017-8032.255a2.158,2.158,0,0,0-2.058,2.239,2.156,2.156,0,0,0,2.058,2.237,2.156,2.156,0,0,0,2.06-2.237A2.158,2.158,0,0,0,3932.017-8032.255Z" transform="translate(-3798.597 8050.115)" fill="#2b2b2e"/>
    <path id="Path_6027" data-name="Path 6027" d="M3964.067-8032.255a2.158,2.158,0,0,0-2.058,2.239,2.156,2.156,0,0,0,2.058,2.237,2.158,2.158,0,0,0,2.06-2.237A2.159,2.159,0,0,0,3964.067-8032.255Z" transform="translate(-3781.386 8050.115)" fill="#2b2b2e"/>
  </g>
</svg>
