<svg xmlns="http://www.w3.org/2000/svg" width="228.708" height="204.524" viewBox="0 0 228.708 204.524">
  <g id="Group_1261" data-name="Group 1261" opacity="0.2">
    <path id="Path_5357" data-name="Path 5357" d="M3847.042-8042.939a2.674,2.674,0,0,0-2.548,2.773,2.668,2.668,0,0,0,2.548,2.771,2.668,2.668,0,0,0,2.548-2.771A2.674,2.674,0,0,0,3847.042-8042.939Z" transform="translate(-3844.494 8042.939)" fill="#2b2b2e"/>
    <path id="Path_5358" data-name="Path 5358" d="M3879.093-8042.939a2.675,2.675,0,0,0-2.549,2.773,2.669,2.669,0,0,0,2.549,2.771,2.668,2.668,0,0,0,2.548-2.771A2.674,2.674,0,0,0,3879.093-8042.939Z" transform="translate(-3815.56 8042.939)" fill="#2b2b2e"/>
    <path id="Path_5369" data-name="Path 5369" d="M3857.726-8042.939a2.674,2.674,0,0,0-2.549,2.773,2.668,2.668,0,0,0,2.549,2.771,2.668,2.668,0,0,0,2.547-2.771A2.674,2.674,0,0,0,3857.726-8042.939Z" transform="translate(-3834.849 8042.939)" fill="#2b2b2e"/>
    <path id="Path_5370" data-name="Path 5370" d="M3889.775-8042.939a2.674,2.674,0,0,0-2.548,2.773,2.668,2.668,0,0,0,2.548,2.771,2.668,2.668,0,0,0,2.548-2.771A2.674,2.674,0,0,0,3889.775-8042.939Z" transform="translate(-3805.913 8042.939)" fill="#2b2b2e"/>
    <path id="Path_5371" data-name="Path 5371" d="M3900.458-8042.939a2.674,2.674,0,0,0-2.548,2.773,2.668,2.668,0,0,0,2.548,2.771,2.668,2.668,0,0,0,2.547-2.771A2.673,2.673,0,0,0,3900.458-8042.939Z" transform="translate(-3796.269 8042.939)" fill="#2b2b2e"/>
    <path id="Path_5372" data-name="Path 5372" d="M3911.141-8042.939a2.674,2.674,0,0,0-2.548,2.773,2.668,2.668,0,0,0,2.548,2.771,2.668,2.668,0,0,0,2.548-2.771A2.674,2.674,0,0,0,3911.141-8042.939Z" transform="translate(-3786.624 8042.939)" fill="#2b2b2e"/>
    <path id="Path_5373" data-name="Path 5373" d="M3921.824-8042.939a2.675,2.675,0,0,0-2.549,2.773,2.669,2.669,0,0,0,2.549,2.771,2.668,2.668,0,0,0,2.549-2.771A2.673,2.673,0,0,0,3921.824-8042.939Z" transform="translate(-3776.979 8042.939)" fill="#2b2b2e"/>
    <path id="Path_5374" data-name="Path 5374" d="M3953.874-8042.939a2.674,2.674,0,0,0-2.548,2.773,2.668,2.668,0,0,0,2.548,2.771,2.668,2.668,0,0,0,2.548-2.771A2.674,2.674,0,0,0,3953.874-8042.939Z" transform="translate(-3748.044 8042.939)" fill="#2b2b2e"/>
    <path id="Path_5385" data-name="Path 5385" d="M3943.189-8042.939a2.672,2.672,0,0,0-2.546,2.773,2.666,2.666,0,0,0,2.546,2.771,2.669,2.669,0,0,0,2.55-2.771A2.674,2.674,0,0,0,3943.189-8042.939Z" transform="translate(-3757.688 8042.939)" fill="#2b2b2e"/>
    <path id="Path_5436" data-name="Path 5436" d="M3868.407-8042.939a2.673,2.673,0,0,0-2.547,2.773,2.667,2.667,0,0,0,2.547,2.771,2.669,2.669,0,0,0,2.55-2.771A2.675,2.675,0,0,0,3868.407-8042.939Z" transform="translate(-3825.205 8042.939)" fill="#2b2b2e"/>
    <path id="Path_5520" data-name="Path 5520" d="M3932.507-8042.939a2.674,2.674,0,0,0-2.548,2.773,2.668,2.668,0,0,0,2.548,2.771,2.668,2.668,0,0,0,2.549-2.771A2.673,2.673,0,0,0,3932.507-8042.939Z" transform="translate(-3767.335 8042.939)" fill="#2b2b2e"/>
    <path id="Path_5521" data-name="Path 5521" d="M3964.556-8037.4a2.67,2.67,0,0,0,2.55-2.771,2.676,2.676,0,0,0-2.55-2.773,2.673,2.673,0,0,0-2.547,2.773A2.668,2.668,0,0,0,3964.556-8037.4Z" transform="translate(-3738.399 8042.939)" fill="#2b2b2e"/>
    <path id="Path_5523" data-name="Path 5523" d="M3847.042-7946.789a2.671,2.671,0,0,0-2.548,2.772,2.672,2.672,0,0,0,2.548,2.772,2.672,2.672,0,0,0,2.548-2.772A2.671,2.671,0,0,0,3847.042-7946.789Z" transform="translate(-3844.494 8145.768)" fill="#2b2b2e"/>
    <path id="Path_5524" data-name="Path 5524" d="M3879.093-7946.789a2.672,2.672,0,0,0-2.549,2.772,2.673,2.673,0,0,0,2.549,2.772,2.672,2.672,0,0,0,2.548-2.772A2.671,2.671,0,0,0,3879.093-7946.789Z" transform="translate(-3815.56 8145.768)" fill="#2b2b2e"/>
    <path id="Path_5525" data-name="Path 5525" d="M3857.726-7946.789a2.671,2.671,0,0,0-2.549,2.772,2.672,2.672,0,0,0,2.549,2.772,2.672,2.672,0,0,0,2.547-2.772A2.671,2.671,0,0,0,3857.726-7946.789Z" transform="translate(-3834.849 8145.768)" fill="#2b2b2e"/>
    <path id="Path_5526" data-name="Path 5526" d="M3889.775-7946.789a2.671,2.671,0,0,0-2.548,2.772,2.672,2.672,0,0,0,2.548,2.772,2.672,2.672,0,0,0,2.548-2.772A2.671,2.671,0,0,0,3889.775-7946.789Z" transform="translate(-3805.913 8145.768)" fill="#2b2b2e"/>
    <path id="Path_5527" data-name="Path 5527" d="M3900.458-7946.789a2.671,2.671,0,0,0-2.548,2.772,2.672,2.672,0,0,0,2.548,2.772,2.671,2.671,0,0,0,2.547-2.772A2.671,2.671,0,0,0,3900.458-7946.789Z" transform="translate(-3796.269 8145.768)" fill="#2b2b2e"/>
    <path id="Path_5528" data-name="Path 5528" d="M3911.141-7946.789a2.671,2.671,0,0,0-2.548,2.772,2.672,2.672,0,0,0,2.548,2.772,2.672,2.672,0,0,0,2.548-2.772A2.671,2.671,0,0,0,3911.141-7946.789Z" transform="translate(-3786.624 8145.768)" fill="#2b2b2e"/>
    <path id="Path_5529" data-name="Path 5529" d="M3921.824-7946.789a2.672,2.672,0,0,0-2.549,2.772,2.672,2.672,0,0,0,2.549,2.772,2.671,2.671,0,0,0,2.549-2.772A2.671,2.671,0,0,0,3921.824-7946.789Z" transform="translate(-3776.979 8145.768)" fill="#2b2b2e"/>
    <path id="Path_5530" data-name="Path 5530" d="M3953.874-7946.789a2.671,2.671,0,0,0-2.548,2.772,2.672,2.672,0,0,0,2.548,2.772,2.672,2.672,0,0,0,2.548-2.772A2.671,2.671,0,0,0,3953.874-7946.789Z" transform="translate(-3748.044 8145.768)" fill="#2b2b2e"/>
    <path id="Path_5531" data-name="Path 5531" d="M3943.189-7946.789a2.669,2.669,0,0,0-2.546,2.772,2.67,2.67,0,0,0,2.546,2.772,2.672,2.672,0,0,0,2.55-2.772A2.672,2.672,0,0,0,3943.189-7946.789Z" transform="translate(-3757.688 8145.768)" fill="#2b2b2e"/>
    <path id="Path_5533" data-name="Path 5533" d="M3868.407-7946.789a2.67,2.67,0,0,0-2.547,2.772,2.671,2.671,0,0,0,2.547,2.772,2.673,2.673,0,0,0,2.55-2.772A2.672,2.672,0,0,0,3868.407-7946.789Z" transform="translate(-3825.205 8145.768)" fill="#2b2b2e"/>
    <path id="Path_5553" data-name="Path 5553" d="M3932.507-7946.789a2.671,2.671,0,0,0-2.548,2.772,2.672,2.672,0,0,0,2.548,2.772,2.671,2.671,0,0,0,2.549-2.772A2.671,2.671,0,0,0,3932.507-7946.789Z" transform="translate(-3767.335 8145.768)" fill="#2b2b2e"/>
    <path id="Path_5554" data-name="Path 5554" d="M3964.556-7946.789a2.671,2.671,0,0,0-2.547,2.772,2.671,2.671,0,0,0,2.547,2.772,2.674,2.674,0,0,0,2.55-2.772A2.673,2.673,0,0,0,3964.556-7946.789Z" transform="translate(-3738.399 8145.768)" fill="#2b2b2e"/>
    <path id="Path_5648" data-name="Path 5648" d="M3847.042-7957.472a2.67,2.67,0,0,0-2.548,2.771,2.672,2.672,0,0,0,2.548,2.772,2.672,2.672,0,0,0,2.548-2.772A2.67,2.67,0,0,0,3847.042-7957.472Z" transform="translate(-3844.494 8134.342)" fill="#2b2b2e"/>
    <path id="Path_5649" data-name="Path 5649" d="M3879.093-7957.472a2.671,2.671,0,0,0-2.549,2.771,2.673,2.673,0,0,0,2.549,2.772,2.672,2.672,0,0,0,2.548-2.772A2.67,2.67,0,0,0,3879.093-7957.472Z" transform="translate(-3815.56 8134.342)" fill="#2b2b2e"/>
    <path id="Path_5650" data-name="Path 5650" d="M3857.726-7957.472a2.67,2.67,0,0,0-2.549,2.771,2.672,2.672,0,0,0,2.549,2.772,2.672,2.672,0,0,0,2.547-2.772A2.67,2.67,0,0,0,3857.726-7957.472Z" transform="translate(-3834.849 8134.342)" fill="#2b2b2e"/>
    <path id="Path_5651" data-name="Path 5651" d="M3889.775-7957.472a2.67,2.67,0,0,0-2.548,2.771,2.672,2.672,0,0,0,2.548,2.772,2.672,2.672,0,0,0,2.548-2.772A2.67,2.67,0,0,0,3889.775-7957.472Z" transform="translate(-3805.913 8134.342)" fill="#2b2b2e"/>
    <path id="Path_5652" data-name="Path 5652" d="M3900.458-7957.472a2.67,2.67,0,0,0-2.548,2.771,2.672,2.672,0,0,0,2.548,2.772,2.671,2.671,0,0,0,2.547-2.772A2.67,2.67,0,0,0,3900.458-7957.472Z" transform="translate(-3796.269 8134.342)" fill="#2b2b2e"/>
    <path id="Path_5653" data-name="Path 5653" d="M3911.141-7957.472a2.67,2.67,0,0,0-2.548,2.771,2.672,2.672,0,0,0,2.548,2.772,2.672,2.672,0,0,0,2.548-2.772A2.67,2.67,0,0,0,3911.141-7957.472Z" transform="translate(-3786.624 8134.342)" fill="#2b2b2e"/>
    <path id="Path_5654" data-name="Path 5654" d="M3921.824-7957.472a2.671,2.671,0,0,0-2.549,2.771,2.672,2.672,0,0,0,2.549,2.772,2.671,2.671,0,0,0,2.549-2.772A2.67,2.67,0,0,0,3921.824-7957.472Z" transform="translate(-3776.979 8134.342)" fill="#2b2b2e"/>
    <path id="Path_5655" data-name="Path 5655" d="M3953.874-7957.472a2.67,2.67,0,0,0-2.548,2.771,2.672,2.672,0,0,0,2.548,2.772,2.672,2.672,0,0,0,2.548-2.772A2.67,2.67,0,0,0,3953.874-7957.472Z" transform="translate(-3748.044 8134.342)" fill="#2b2b2e"/>
    <path id="Path_5656" data-name="Path 5656" d="M3943.189-7957.472a2.669,2.669,0,0,0-2.546,2.771,2.67,2.67,0,0,0,2.546,2.772,2.672,2.672,0,0,0,2.55-2.772A2.671,2.671,0,0,0,3943.189-7957.472Z" transform="translate(-3757.688 8134.342)" fill="#2b2b2e"/>
    <path id="Path_5658" data-name="Path 5658" d="M3868.407-7957.472a2.669,2.669,0,0,0-2.547,2.771,2.671,2.671,0,0,0,2.547,2.772,2.673,2.673,0,0,0,2.55-2.772A2.671,2.671,0,0,0,3868.407-7957.472Z" transform="translate(-3825.205 8134.342)" fill="#2b2b2e"/>
    <path id="Path_5683" data-name="Path 5683" d="M3932.507-7957.472a2.67,2.67,0,0,0-2.548,2.771,2.672,2.672,0,0,0,2.548,2.772,2.671,2.671,0,0,0,2.549-2.772A2.67,2.67,0,0,0,3932.507-7957.472Z" transform="translate(-3767.335 8134.342)" fill="#2b2b2e"/>
    <path id="Path_5684" data-name="Path 5684" d="M3964.556-7957.472a2.67,2.67,0,0,0-2.547,2.771,2.671,2.671,0,0,0,2.547,2.772,2.674,2.674,0,0,0,2.55-2.772A2.672,2.672,0,0,0,3964.556-7957.472Z" transform="translate(-3738.399 8134.342)" fill="#2b2b2e"/>
    <path id="Path_5689" data-name="Path 5689" d="M3847.042-7968.153a2.665,2.665,0,0,0-2.548,2.769,2.672,2.672,0,0,0,2.548,2.771,2.672,2.672,0,0,0,2.548-2.771A2.665,2.665,0,0,0,3847.042-7968.153Z" transform="translate(-3844.494 8122.918)" fill="#2b2b2e"/>
    <path id="Path_5690" data-name="Path 5690" d="M3879.093-7968.153a2.666,2.666,0,0,0-2.549,2.769,2.673,2.673,0,0,0,2.549,2.771,2.672,2.672,0,0,0,2.548-2.771A2.665,2.665,0,0,0,3879.093-7968.153Z" transform="translate(-3815.56 8122.918)" fill="#2b2b2e"/>
    <path id="Path_5691" data-name="Path 5691" d="M3857.726-7968.153a2.665,2.665,0,0,0-2.549,2.769,2.672,2.672,0,0,0,2.549,2.771,2.672,2.672,0,0,0,2.547-2.771A2.665,2.665,0,0,0,3857.726-7968.153Z" transform="translate(-3834.849 8122.918)" fill="#2b2b2e"/>
    <path id="Path_5692" data-name="Path 5692" d="M3889.775-7968.153a2.665,2.665,0,0,0-2.548,2.769,2.672,2.672,0,0,0,2.548,2.771,2.672,2.672,0,0,0,2.548-2.771A2.665,2.665,0,0,0,3889.775-7968.153Z" transform="translate(-3805.913 8122.918)" fill="#2b2b2e"/>
    <path id="Path_5693" data-name="Path 5693" d="M3900.458-7968.153a2.665,2.665,0,0,0-2.548,2.769,2.672,2.672,0,0,0,2.548,2.771,2.671,2.671,0,0,0,2.547-2.771A2.665,2.665,0,0,0,3900.458-7968.153Z" transform="translate(-3796.269 8122.918)" fill="#2b2b2e"/>
    <path id="Path_5694" data-name="Path 5694" d="M3911.141-7968.153a2.665,2.665,0,0,0-2.548,2.769,2.672,2.672,0,0,0,2.548,2.771,2.672,2.672,0,0,0,2.548-2.771A2.665,2.665,0,0,0,3911.141-7968.153Z" transform="translate(-3786.624 8122.918)" fill="#2b2b2e"/>
    <path id="Path_5695" data-name="Path 5695" d="M3921.824-7968.153a2.666,2.666,0,0,0-2.549,2.769,2.672,2.672,0,0,0,2.549,2.771,2.671,2.671,0,0,0,2.549-2.771A2.664,2.664,0,0,0,3921.824-7968.153Z" transform="translate(-3776.979 8122.918)" fill="#2b2b2e"/>
    <path id="Path_5696" data-name="Path 5696" d="M3953.874-7968.153a2.665,2.665,0,0,0-2.548,2.769,2.672,2.672,0,0,0,2.548,2.771,2.672,2.672,0,0,0,2.548-2.771A2.665,2.665,0,0,0,3953.874-7968.153Z" transform="translate(-3748.044 8122.918)" fill="#2b2b2e"/>
    <path id="Path_5697" data-name="Path 5697" d="M3943.189-7968.153a2.663,2.663,0,0,0-2.546,2.769,2.67,2.67,0,0,0,2.546,2.771,2.672,2.672,0,0,0,2.55-2.771A2.666,2.666,0,0,0,3943.189-7968.153Z" transform="translate(-3757.688 8122.918)" fill="#2b2b2e"/>
    <path id="Path_5699" data-name="Path 5699" d="M3868.407-7968.153a2.664,2.664,0,0,0-2.547,2.769,2.671,2.671,0,0,0,2.547,2.771,2.673,2.673,0,0,0,2.55-2.771A2.666,2.666,0,0,0,3868.407-7968.153Z" transform="translate(-3825.205 8122.918)" fill="#2b2b2e"/>
    <path id="Path_5726" data-name="Path 5726" d="M3932.507-7968.153a2.665,2.665,0,0,0-2.548,2.769,2.672,2.672,0,0,0,2.548,2.771,2.671,2.671,0,0,0,2.549-2.771A2.664,2.664,0,0,0,3932.507-7968.153Z" transform="translate(-3767.335 8122.918)" fill="#2b2b2e"/>
    <path id="Path_5727" data-name="Path 5727" d="M3964.556-7968.153a2.665,2.665,0,0,0-2.547,2.769,2.671,2.671,0,0,0,2.547,2.771,2.674,2.674,0,0,0,2.55-2.771A2.667,2.667,0,0,0,3964.556-7968.153Z" transform="translate(-3738.399 8122.918)" fill="#2b2b2e"/>
    <path id="Path_5755" data-name="Path 5755" d="M3847.042-7978.838a2.67,2.67,0,0,0-2.548,2.77,2.671,2.671,0,0,0,2.548,2.771,2.671,2.671,0,0,0,2.548-2.771A2.67,2.67,0,0,0,3847.042-7978.838Z" transform="translate(-3844.494 8111.493)" fill="#2b2b2e"/>
    <path id="Path_5756" data-name="Path 5756" d="M3879.093-7978.838a2.671,2.671,0,0,0-2.549,2.77,2.672,2.672,0,0,0,2.549,2.771,2.671,2.671,0,0,0,2.548-2.771A2.67,2.67,0,0,0,3879.093-7978.838Z" transform="translate(-3815.56 8111.493)" fill="#2b2b2e"/>
    <path id="Path_5757" data-name="Path 5757" d="M3857.726-7978.838a2.67,2.67,0,0,0-2.549,2.77,2.671,2.671,0,0,0,2.549,2.771,2.671,2.671,0,0,0,2.547-2.771A2.67,2.67,0,0,0,3857.726-7978.838Z" transform="translate(-3834.849 8111.493)" fill="#2b2b2e"/>
    <path id="Path_5758" data-name="Path 5758" d="M3889.775-7978.838a2.671,2.671,0,0,0-2.548,2.77,2.671,2.671,0,0,0,2.548,2.771,2.671,2.671,0,0,0,2.548-2.771A2.67,2.67,0,0,0,3889.775-7978.838Z" transform="translate(-3805.913 8111.493)" fill="#2b2b2e"/>
    <path id="Path_5759" data-name="Path 5759" d="M3900.458-7978.838a2.67,2.67,0,0,0-2.548,2.77,2.671,2.671,0,0,0,2.548,2.771,2.67,2.67,0,0,0,2.547-2.771A2.67,2.67,0,0,0,3900.458-7978.838Z" transform="translate(-3796.269 8111.493)" fill="#2b2b2e"/>
    <path id="Path_5760" data-name="Path 5760" d="M3911.141-7978.838a2.67,2.67,0,0,0-2.548,2.77,2.671,2.671,0,0,0,2.548,2.771,2.671,2.671,0,0,0,2.548-2.771A2.671,2.671,0,0,0,3911.141-7978.838Z" transform="translate(-3786.624 8111.493)" fill="#2b2b2e"/>
    <path id="Path_5761" data-name="Path 5761" d="M3921.824-7978.838a2.671,2.671,0,0,0-2.549,2.77,2.671,2.671,0,0,0,2.549,2.771,2.67,2.67,0,0,0,2.549-2.771A2.67,2.67,0,0,0,3921.824-7978.838Z" transform="translate(-3776.979 8111.493)" fill="#2b2b2e"/>
    <path id="Path_5762" data-name="Path 5762" d="M3953.874-7978.838a2.67,2.67,0,0,0-2.548,2.77,2.671,2.671,0,0,0,2.548,2.771,2.671,2.671,0,0,0,2.548-2.771A2.67,2.67,0,0,0,3953.874-7978.838Z" transform="translate(-3748.044 8111.493)" fill="#2b2b2e"/>
    <path id="Path_5763" data-name="Path 5763" d="M3943.189-7978.838a2.669,2.669,0,0,0-2.546,2.77,2.669,2.669,0,0,0,2.546,2.771,2.671,2.671,0,0,0,2.55-2.771A2.671,2.671,0,0,0,3943.189-7978.838Z" transform="translate(-3757.688 8111.493)" fill="#2b2b2e"/>
    <path id="Path_5765" data-name="Path 5765" d="M3868.407-7978.838a2.669,2.669,0,0,0-2.547,2.77,2.67,2.67,0,0,0,2.547,2.771,2.672,2.672,0,0,0,2.55-2.771A2.671,2.671,0,0,0,3868.407-7978.838Z" transform="translate(-3825.205 8111.493)" fill="#2b2b2e"/>
    <path id="Path_5771" data-name="Path 5771" d="M3932.507-7978.838a2.67,2.67,0,0,0-2.548,2.77,2.671,2.671,0,0,0,2.548,2.771,2.67,2.67,0,0,0,2.549-2.771A2.67,2.67,0,0,0,3932.507-7978.838Z" transform="translate(-3767.335 8111.493)" fill="#2b2b2e"/>
    <path id="Path_5772" data-name="Path 5772" d="M3964.556-7978.838a2.67,2.67,0,0,0-2.547,2.77,2.67,2.67,0,0,0,2.547,2.771,2.673,2.673,0,0,0,2.55-2.771A2.672,2.672,0,0,0,3964.556-7978.838Z" transform="translate(-3738.399 8111.493)" fill="#2b2b2e"/>
    <path id="Path_5802" data-name="Path 5802" d="M3847.042-7989.521a2.67,2.67,0,0,0-2.548,2.771,2.667,2.667,0,0,0,2.548,2.769,2.667,2.667,0,0,0,2.548-2.769A2.67,2.67,0,0,0,3847.042-7989.521Z" transform="translate(-3844.494 8100.066)" fill="#2b2b2e"/>
    <path id="Path_5803" data-name="Path 5803" d="M3879.093-7989.521a2.671,2.671,0,0,0-2.549,2.771,2.669,2.669,0,0,0,2.549,2.769,2.667,2.667,0,0,0,2.548-2.769A2.67,2.67,0,0,0,3879.093-7989.521Z" transform="translate(-3815.56 8100.066)" fill="#2b2b2e"/>
    <path id="Path_5804" data-name="Path 5804" d="M3857.726-7989.521a2.67,2.67,0,0,0-2.549,2.771,2.668,2.668,0,0,0,2.549,2.769,2.667,2.667,0,0,0,2.547-2.769A2.67,2.67,0,0,0,3857.726-7989.521Z" transform="translate(-3834.849 8100.066)" fill="#2b2b2e"/>
    <path id="Path_5805" data-name="Path 5805" d="M3889.775-7989.521a2.67,2.67,0,0,0-2.548,2.771,2.668,2.668,0,0,0,2.548,2.769,2.667,2.667,0,0,0,2.548-2.769A2.67,2.67,0,0,0,3889.775-7989.521Z" transform="translate(-3805.913 8100.066)" fill="#2b2b2e"/>
    <path id="Path_5806" data-name="Path 5806" d="M3900.458-7989.521a2.67,2.67,0,0,0-2.548,2.771,2.667,2.667,0,0,0,2.548,2.769,2.667,2.667,0,0,0,2.547-2.769A2.669,2.669,0,0,0,3900.458-7989.521Z" transform="translate(-3796.269 8100.066)" fill="#2b2b2e"/>
    <path id="Path_5807" data-name="Path 5807" d="M3911.141-7989.521a2.67,2.67,0,0,0-2.548,2.771,2.667,2.667,0,0,0,2.548,2.769,2.668,2.668,0,0,0,2.548-2.769A2.67,2.67,0,0,0,3911.141-7989.521Z" transform="translate(-3786.624 8100.066)" fill="#2b2b2e"/>
    <path id="Path_5808" data-name="Path 5808" d="M3921.824-7989.521a2.671,2.671,0,0,0-2.549,2.771,2.668,2.668,0,0,0,2.549,2.769,2.667,2.667,0,0,0,2.549-2.769A2.669,2.669,0,0,0,3921.824-7989.521Z" transform="translate(-3776.979 8100.066)" fill="#2b2b2e"/>
    <path id="Path_5809" data-name="Path 5809" d="M3953.874-7989.521a2.67,2.67,0,0,0-2.548,2.771,2.667,2.667,0,0,0,2.548,2.769,2.667,2.667,0,0,0,2.548-2.769A2.67,2.67,0,0,0,3953.874-7989.521Z" transform="translate(-3748.044 8100.066)" fill="#2b2b2e"/>
    <path id="Path_5810" data-name="Path 5810" d="M3943.189-7989.521a2.668,2.668,0,0,0-2.546,2.771,2.666,2.666,0,0,0,2.546,2.769,2.668,2.668,0,0,0,2.55-2.769A2.67,2.67,0,0,0,3943.189-7989.521Z" transform="translate(-3757.688 8100.066)" fill="#2b2b2e"/>
    <path id="Path_5812" data-name="Path 5812" d="M3868.407-7989.521a2.669,2.669,0,0,0-2.547,2.771,2.667,2.667,0,0,0,2.547,2.769,2.668,2.668,0,0,0,2.55-2.769A2.671,2.671,0,0,0,3868.407-7989.521Z" transform="translate(-3825.205 8100.066)" fill="#2b2b2e"/>
    <path id="Path_5818" data-name="Path 5818" d="M3932.507-7989.521a2.67,2.67,0,0,0-2.548,2.771,2.667,2.667,0,0,0,2.548,2.769,2.667,2.667,0,0,0,2.549-2.769A2.669,2.669,0,0,0,3932.507-7989.521Z" transform="translate(-3767.335 8100.066)" fill="#2b2b2e"/>
    <path id="Path_5819" data-name="Path 5819" d="M3964.556-7989.521a2.669,2.669,0,0,0-2.547,2.771,2.667,2.667,0,0,0,2.547,2.769,2.669,2.669,0,0,0,2.55-2.769A2.672,2.672,0,0,0,3964.556-7989.521Z" transform="translate(-3738.399 8100.066)" fill="#2b2b2e"/>
    <path id="Path_5851" data-name="Path 5851" d="M3847.042-8000.2a2.669,2.669,0,0,0-2.548,2.771,2.67,2.67,0,0,0,2.548,2.771,2.67,2.67,0,0,0,2.548-2.771A2.669,2.669,0,0,0,3847.042-8000.2Z" transform="translate(-3844.494 8088.641)" fill="#2b2b2e"/>
    <path id="Path_5852" data-name="Path 5852" d="M3879.093-8000.2a2.671,2.671,0,0,0-2.549,2.771,2.671,2.671,0,0,0,2.549,2.771,2.67,2.67,0,0,0,2.548-2.771A2.669,2.669,0,0,0,3879.093-8000.2Z" transform="translate(-3815.56 8088.641)" fill="#2b2b2e"/>
    <path id="Path_5853" data-name="Path 5853" d="M3857.726-8000.2a2.67,2.67,0,0,0-2.549,2.771,2.67,2.67,0,0,0,2.549,2.771,2.67,2.67,0,0,0,2.547-2.771A2.669,2.669,0,0,0,3857.726-8000.2Z" transform="translate(-3834.849 8088.641)" fill="#2b2b2e"/>
    <path id="Path_5854" data-name="Path 5854" d="M3889.775-8000.2a2.67,2.67,0,0,0-2.548,2.771,2.67,2.67,0,0,0,2.548,2.771,2.67,2.67,0,0,0,2.548-2.771A2.669,2.669,0,0,0,3889.775-8000.2Z" transform="translate(-3805.913 8088.641)" fill="#2b2b2e"/>
    <path id="Path_5855" data-name="Path 5855" d="M3900.458-8000.2a2.669,2.669,0,0,0-2.548,2.771,2.67,2.67,0,0,0,2.548,2.771,2.669,2.669,0,0,0,2.547-2.771A2.669,2.669,0,0,0,3900.458-8000.2Z" transform="translate(-3796.269 8088.641)" fill="#2b2b2e"/>
    <path id="Path_5856" data-name="Path 5856" d="M3911.141-8000.2a2.669,2.669,0,0,0-2.548,2.771,2.67,2.67,0,0,0,2.548,2.771,2.67,2.67,0,0,0,2.548-2.771A2.67,2.67,0,0,0,3911.141-8000.2Z" transform="translate(-3786.624 8088.641)" fill="#2b2b2e"/>
    <path id="Path_5857" data-name="Path 5857" d="M3921.824-8000.2a2.67,2.67,0,0,0-2.549,2.771,2.671,2.671,0,0,0,2.549,2.771,2.669,2.669,0,0,0,2.549-2.771A2.669,2.669,0,0,0,3921.824-8000.2Z" transform="translate(-3776.979 8088.641)" fill="#2b2b2e"/>
    <path id="Path_5858" data-name="Path 5858" d="M3953.874-8000.2a2.669,2.669,0,0,0-2.548,2.771,2.67,2.67,0,0,0,2.548,2.771,2.67,2.67,0,0,0,2.548-2.771A2.669,2.669,0,0,0,3953.874-8000.2Z" transform="translate(-3748.044 8088.641)" fill="#2b2b2e"/>
    <path id="Path_5859" data-name="Path 5859" d="M3943.189-8000.2a2.668,2.668,0,0,0-2.546,2.771,2.668,2.668,0,0,0,2.546,2.771,2.67,2.67,0,0,0,2.55-2.771A2.67,2.67,0,0,0,3943.189-8000.2Z" transform="translate(-3757.688 8088.641)" fill="#2b2b2e"/>
    <path id="Path_5861" data-name="Path 5861" d="M3868.407-8000.2a2.669,2.669,0,0,0-2.547,2.771,2.669,2.669,0,0,0,2.547,2.771,2.671,2.671,0,0,0,2.55-2.771A2.67,2.67,0,0,0,3868.407-8000.2Z" transform="translate(-3825.205 8088.641)" fill="#2b2b2e"/>
    <path id="Path_5867" data-name="Path 5867" d="M3932.507-8000.2a2.669,2.669,0,0,0-2.548,2.771,2.67,2.67,0,0,0,2.548,2.771,2.669,2.669,0,0,0,2.549-2.771A2.669,2.669,0,0,0,3932.507-8000.2Z" transform="translate(-3767.335 8088.641)" fill="#2b2b2e"/>
    <path id="Path_5868" data-name="Path 5868" d="M3964.556-8000.2a2.669,2.669,0,0,0-2.547,2.771,2.669,2.669,0,0,0,2.547,2.771,2.672,2.672,0,0,0,2.55-2.771A2.671,2.671,0,0,0,3964.556-8000.2Z" transform="translate(-3738.399 8088.641)" fill="#2b2b2e"/>
    <path id="Path_5902" data-name="Path 5902" d="M3847.042-8010.889a2.671,2.671,0,0,0-2.548,2.773,2.672,2.672,0,0,0,2.548,2.771,2.672,2.672,0,0,0,2.548-2.771A2.671,2.671,0,0,0,3847.042-8010.889Z" transform="translate(-3844.494 8077.216)" fill="#2b2b2e"/>
    <path id="Path_5903" data-name="Path 5903" d="M3879.093-8010.889a2.672,2.672,0,0,0-2.549,2.773,2.673,2.673,0,0,0,2.549,2.771,2.672,2.672,0,0,0,2.548-2.771A2.671,2.671,0,0,0,3879.093-8010.889Z" transform="translate(-3815.56 8077.216)" fill="#2b2b2e"/>
    <path id="Path_5904" data-name="Path 5904" d="M3857.726-8010.889a2.671,2.671,0,0,0-2.549,2.773,2.672,2.672,0,0,0,2.549,2.771,2.672,2.672,0,0,0,2.547-2.771A2.671,2.671,0,0,0,3857.726-8010.889Z" transform="translate(-3834.849 8077.216)" fill="#2b2b2e"/>
    <path id="Path_5905" data-name="Path 5905" d="M3889.775-8010.889a2.672,2.672,0,0,0-2.548,2.773,2.672,2.672,0,0,0,2.548,2.771,2.672,2.672,0,0,0,2.548-2.771A2.671,2.671,0,0,0,3889.775-8010.889Z" transform="translate(-3805.913 8077.216)" fill="#2b2b2e"/>
    <path id="Path_5906" data-name="Path 5906" d="M3900.458-8010.889a2.671,2.671,0,0,0-2.548,2.773,2.672,2.672,0,0,0,2.548,2.771,2.672,2.672,0,0,0,2.547-2.771A2.671,2.671,0,0,0,3900.458-8010.889Z" transform="translate(-3796.269 8077.216)" fill="#2b2b2e"/>
    <path id="Path_5907" data-name="Path 5907" d="M3911.141-8010.889a2.671,2.671,0,0,0-2.548,2.773,2.672,2.672,0,0,0,2.548,2.771,2.672,2.672,0,0,0,2.548-2.771A2.672,2.672,0,0,0,3911.141-8010.889Z" transform="translate(-3786.624 8077.216)" fill="#2b2b2e"/>
    <path id="Path_5908" data-name="Path 5908" d="M3921.824-8010.889a2.672,2.672,0,0,0-2.549,2.773,2.673,2.673,0,0,0,2.549,2.771,2.672,2.672,0,0,0,2.549-2.771A2.671,2.671,0,0,0,3921.824-8010.889Z" transform="translate(-3776.979 8077.216)" fill="#2b2b2e"/>
    <path id="Path_5909" data-name="Path 5909" d="M3953.874-8010.889a2.671,2.671,0,0,0-2.548,2.773,2.672,2.672,0,0,0,2.548,2.771,2.672,2.672,0,0,0,2.548-2.771A2.671,2.671,0,0,0,3953.874-8010.889Z" transform="translate(-3748.044 8077.216)" fill="#2b2b2e"/>
    <path id="Path_5910" data-name="Path 5910" d="M3943.189-8010.889a2.67,2.67,0,0,0-2.546,2.773,2.67,2.67,0,0,0,2.546,2.771,2.673,2.673,0,0,0,2.55-2.771A2.672,2.672,0,0,0,3943.189-8010.889Z" transform="translate(-3757.688 8077.216)" fill="#2b2b2e"/>
    <path id="Path_5912" data-name="Path 5912" d="M3868.407-8010.889a2.67,2.67,0,0,0-2.547,2.773,2.671,2.671,0,0,0,2.547,2.771,2.673,2.673,0,0,0,2.55-2.771A2.672,2.672,0,0,0,3868.407-8010.889Z" transform="translate(-3825.205 8077.216)" fill="#2b2b2e"/>
    <path id="Path_5918" data-name="Path 5918" d="M3932.507-8010.889a2.671,2.671,0,0,0-2.548,2.773,2.672,2.672,0,0,0,2.548,2.771,2.672,2.672,0,0,0,2.549-2.771A2.671,2.671,0,0,0,3932.507-8010.889Z" transform="translate(-3767.335 8077.216)" fill="#2b2b2e"/>
    <path id="Path_5919" data-name="Path 5919" d="M3964.556-8010.889a2.671,2.671,0,0,0-2.547,2.773,2.672,2.672,0,0,0,2.547,2.771,2.674,2.674,0,0,0,2.55-2.771A2.673,2.673,0,0,0,3964.556-8010.889Z" transform="translate(-3738.399 8077.216)" fill="#2b2b2e"/>
    <path id="Path_5955" data-name="Path 5955" d="M3847.042-8021.569a2.665,2.665,0,0,0-2.548,2.767,2.671,2.671,0,0,0,2.548,2.771,2.671,2.671,0,0,0,2.548-2.771A2.665,2.665,0,0,0,3847.042-8021.569Z" transform="translate(-3844.494 8065.79)" fill="#2b2b2e"/>
    <path id="Path_5956" data-name="Path 5956" d="M3879.093-8021.569a2.666,2.666,0,0,0-2.549,2.767,2.672,2.672,0,0,0,2.549,2.771,2.671,2.671,0,0,0,2.548-2.771A2.665,2.665,0,0,0,3879.093-8021.569Z" transform="translate(-3815.56 8065.79)" fill="#2b2b2e"/>
    <path id="Path_5957" data-name="Path 5957" d="M3857.726-8021.569a2.665,2.665,0,0,0-2.549,2.767,2.671,2.671,0,0,0,2.549,2.771,2.671,2.671,0,0,0,2.547-2.771A2.665,2.665,0,0,0,3857.726-8021.569Z" transform="translate(-3834.849 8065.79)" fill="#2b2b2e"/>
    <path id="Path_5958" data-name="Path 5958" d="M3889.775-8021.569a2.665,2.665,0,0,0-2.548,2.767,2.671,2.671,0,0,0,2.548,2.771,2.671,2.671,0,0,0,2.548-2.771A2.665,2.665,0,0,0,3889.775-8021.569Z" transform="translate(-3805.913 8065.79)" fill="#2b2b2e"/>
    <path id="Path_5959" data-name="Path 5959" d="M3900.458-8021.569a2.665,2.665,0,0,0-2.548,2.767,2.671,2.671,0,0,0,2.548,2.771,2.67,2.67,0,0,0,2.547-2.771A2.665,2.665,0,0,0,3900.458-8021.569Z" transform="translate(-3796.269 8065.79)" fill="#2b2b2e"/>
    <path id="Path_5960" data-name="Path 5960" d="M3911.141-8021.569a2.665,2.665,0,0,0-2.548,2.767,2.671,2.671,0,0,0,2.548,2.771,2.671,2.671,0,0,0,2.548-2.771A2.665,2.665,0,0,0,3911.141-8021.569Z" transform="translate(-3786.624 8065.79)" fill="#2b2b2e"/>
    <path id="Path_5961" data-name="Path 5961" d="M3921.824-8021.569a2.666,2.666,0,0,0-2.549,2.767,2.671,2.671,0,0,0,2.549,2.771,2.67,2.67,0,0,0,2.549-2.771A2.665,2.665,0,0,0,3921.824-8021.569Z" transform="translate(-3776.979 8065.79)" fill="#2b2b2e"/>
    <path id="Path_5962" data-name="Path 5962" d="M3953.874-8021.569a2.665,2.665,0,0,0-2.548,2.767,2.671,2.671,0,0,0,2.548,2.771,2.671,2.671,0,0,0,2.548-2.771A2.665,2.665,0,0,0,3953.874-8021.569Z" transform="translate(-3748.044 8065.79)" fill="#2b2b2e"/>
    <path id="Path_5963" data-name="Path 5963" d="M3943.189-8021.569a2.663,2.663,0,0,0-2.546,2.767,2.669,2.669,0,0,0,2.546,2.771,2.671,2.671,0,0,0,2.55-2.771A2.666,2.666,0,0,0,3943.189-8021.569Z" transform="translate(-3757.688 8065.79)" fill="#2b2b2e"/>
    <path id="Path_5965" data-name="Path 5965" d="M3868.407-8021.569a2.664,2.664,0,0,0-2.547,2.767,2.67,2.67,0,0,0,2.547,2.771,2.672,2.672,0,0,0,2.55-2.771A2.666,2.666,0,0,0,3868.407-8021.569Z" transform="translate(-3825.205 8065.79)" fill="#2b2b2e"/>
    <path id="Path_5971" data-name="Path 5971" d="M3932.507-8021.569a2.665,2.665,0,0,0-2.548,2.767,2.671,2.671,0,0,0,2.548,2.771,2.67,2.67,0,0,0,2.549-2.771A2.665,2.665,0,0,0,3932.507-8021.569Z" transform="translate(-3767.335 8065.79)" fill="#2b2b2e"/>
    <path id="Path_5972" data-name="Path 5972" d="M3964.556-8021.569a2.665,2.665,0,0,0-2.547,2.767,2.67,2.67,0,0,0,2.547,2.771,2.673,2.673,0,0,0,2.55-2.771A2.667,2.667,0,0,0,3964.556-8021.569Z" transform="translate(-3738.399 8065.79)" fill="#2b2b2e"/>
    <path id="Path_6010" data-name="Path 6010" d="M3847.042-8032.254a2.671,2.671,0,0,0-2.548,2.771,2.67,2.67,0,0,0,2.548,2.771,2.67,2.67,0,0,0,2.548-2.771A2.671,2.671,0,0,0,3847.042-8032.254Z" transform="translate(-3844.494 8054.365)" fill="#2b2b2e"/>
    <path id="Path_6011" data-name="Path 6011" d="M3879.093-8032.254a2.672,2.672,0,0,0-2.549,2.771,2.671,2.671,0,0,0,2.549,2.771,2.67,2.67,0,0,0,2.548-2.771A2.671,2.671,0,0,0,3879.093-8032.254Z" transform="translate(-3815.56 8054.365)" fill="#2b2b2e"/>
    <path id="Path_6012" data-name="Path 6012" d="M3857.726-8032.254a2.671,2.671,0,0,0-2.549,2.771,2.67,2.67,0,0,0,2.549,2.771,2.67,2.67,0,0,0,2.547-2.771A2.671,2.671,0,0,0,3857.726-8032.254Z" transform="translate(-3834.849 8054.365)" fill="#2b2b2e"/>
    <path id="Path_6013" data-name="Path 6013" d="M3889.775-8032.254a2.671,2.671,0,0,0-2.548,2.771,2.67,2.67,0,0,0,2.548,2.771,2.67,2.67,0,0,0,2.548-2.771A2.671,2.671,0,0,0,3889.775-8032.254Z" transform="translate(-3805.913 8054.365)" fill="#2b2b2e"/>
    <path id="Path_6014" data-name="Path 6014" d="M3900.458-8032.254a2.671,2.671,0,0,0-2.548,2.771,2.67,2.67,0,0,0,2.548,2.771,2.669,2.669,0,0,0,2.547-2.771A2.67,2.67,0,0,0,3900.458-8032.254Z" transform="translate(-3796.269 8054.365)" fill="#2b2b2e"/>
    <path id="Path_6015" data-name="Path 6015" d="M3911.141-8032.254a2.671,2.671,0,0,0-2.548,2.771,2.67,2.67,0,0,0,2.548,2.771,2.67,2.67,0,0,0,2.548-2.771A2.671,2.671,0,0,0,3911.141-8032.254Z" transform="translate(-3786.624 8054.365)" fill="#2b2b2e"/>
    <path id="Path_6016" data-name="Path 6016" d="M3921.824-8032.254a2.671,2.671,0,0,0-2.549,2.771,2.671,2.671,0,0,0,2.549,2.771,2.669,2.669,0,0,0,2.549-2.771A2.67,2.67,0,0,0,3921.824-8032.254Z" transform="translate(-3776.979 8054.365)" fill="#2b2b2e"/>
    <path id="Path_6017" data-name="Path 6017" d="M3953.874-8032.254a2.671,2.671,0,0,0-2.548,2.771,2.67,2.67,0,0,0,2.548,2.771,2.67,2.67,0,0,0,2.548-2.771A2.671,2.671,0,0,0,3953.874-8032.254Z" transform="translate(-3748.044 8054.365)" fill="#2b2b2e"/>
    <path id="Path_6018" data-name="Path 6018" d="M3943.189-8032.254a2.669,2.669,0,0,0-2.546,2.771,2.668,2.668,0,0,0,2.546,2.771,2.67,2.67,0,0,0,2.55-2.771A2.671,2.671,0,0,0,3943.189-8032.254Z" transform="translate(-3757.688 8054.365)" fill="#2b2b2e"/>
    <path id="Path_6020" data-name="Path 6020" d="M3868.407-8032.254a2.67,2.67,0,0,0-2.547,2.771,2.669,2.669,0,0,0,2.547,2.771,2.671,2.671,0,0,0,2.55-2.771A2.672,2.672,0,0,0,3868.407-8032.254Z" transform="translate(-3825.205 8054.365)" fill="#2b2b2e"/>
    <path id="Path_6026" data-name="Path 6026" d="M3932.507-8032.254a2.671,2.671,0,0,0-2.548,2.771,2.67,2.67,0,0,0,2.548,2.771,2.669,2.669,0,0,0,2.549-2.771A2.67,2.67,0,0,0,3932.507-8032.254Z" transform="translate(-3767.335 8054.365)" fill="#2b2b2e"/>
    <path id="Path_6027" data-name="Path 6027" d="M3964.556-8032.254a2.67,2.67,0,0,0-2.547,2.771,2.669,2.669,0,0,0,2.547,2.771,2.672,2.672,0,0,0,2.55-2.771A2.673,2.673,0,0,0,3964.556-8032.254Z" transform="translate(-3738.399 8054.365)" fill="#2b2b2e"/>
  </g>
</svg>
