<svg xmlns="http://www.w3.org/2000/svg" width="16" height="16" viewBox="0 0 16 16">
  <g id="Layer_2" data-name="Layer 2" transform="translate(0.363 0.271)">
    <g id="invisible_box" data-name="invisible box" transform="translate(0 0.092)">
      <rect id="Rectangle_1046" data-name="Rectangle 1046" width="16" height="16" transform="translate(-0.363 -0.363)" fill="none"/>
    </g>
    <g id="icons_Q2" data-name="icons Q2" transform="translate(0.657 0.618)">
      <path id="Path_6591" data-name="Path 6591" d="M9.227,2a7.194,7.194,0,1,0,5.12,2.107A7.227,7.227,0,0,0,9.227,2Zm5.289,4.6h-1.61a9.132,9.132,0,0,0-.985-2.628,6.077,6.077,0,0,1,2.6,2.628Zm.624,2.628a5.748,5.748,0,0,1-.164,1.314H13.1c.033-.427.066-.854.066-1.314s-.033-.887-.066-1.314h1.872a5.748,5.748,0,0,1,.164,1.314Zm-11.825,0a5.748,5.748,0,0,1,.164-1.314H5.351c-.033.427-.066.854-.066,1.314s.033.887.066,1.314H3.478a5.749,5.749,0,0,1-.164-1.314Zm3.285,0c0-.46.033-.887.066-1.314H8.57V10.54H6.664C6.632,10.113,6.6,9.686,6.6,9.226ZM9.884,3.544a3.843,3.843,0,0,1,.985,1.215,7.128,7.128,0,0,1,.69,1.84H9.884Zm-1.314,0V6.6H6.894a7.128,7.128,0,0,1,.69-1.84A3.843,3.843,0,0,1,8.57,3.544Zm0,8.311v3.055a3.843,3.843,0,0,1-.985-1.215,7.128,7.128,0,0,1-.69-1.84Zm1.314,3.055V11.854h1.675a7.128,7.128,0,0,1-.69,1.84,3.843,3.843,0,0,1-.985,1.215Zm0-4.369V7.913h1.905c.033.427.066.854.066,1.314s-.033.887-.066,1.314ZM6.533,3.971A9.132,9.132,0,0,0,5.548,6.6H3.938a6.077,6.077,0,0,1,2.6-2.628Zm-2.6,7.884h1.61a9.132,9.132,0,0,0,.985,2.628,6.077,6.077,0,0,1-2.6-2.628Zm7.982,2.628a9.132,9.132,0,0,0,.985-2.628h1.61A6.077,6.077,0,0,1,11.92,14.482Z" transform="translate(-2 -2)" fill="#948f8a"/>
    </g>
  </g>
</svg>
