<svg xmlns="http://www.w3.org/2000/svg" width="200.319" height="29.819" viewBox="0 0 200.319 29.819"><g transform="translate(0 0)"><path d="M143.864,2141.627a10.611,10.611,0,0,0-8.725,4.663l1.751,1.733a8.2,8.2,0,1,1,.046,8.515l-1.733,1.752a10.613,10.613,0,1,0,8.66-16.663" transform="translate(-129.007 -2137.333)" fill="#2b2b2e"/><path d="M133.609,2143.536a12.494,12.494,0,1,1,.063-12.153l1.77-1.752a14.906,14.906,0,1,0-.081,15.676Z" transform="translate(-107.812 -2122.493)" fill="#2b2b2e"/><path d="M405.465,2153.217a5.076,5.076,0,1,1,5.247-5.073,5.168,5.168,0,0,1-5.247,5.073m5.247-10.565a7.852,7.852,0,0,0-5.247-1.988,7.485,7.485,0,1,0,7.738,7.481c0-.117,0-.233-.009-.348h.009v-11.484h-2.491Z" transform="translate(-332.67 -2133.21)" fill="#2b2b2e"/><path d="M483.793,2158.174a5.279,5.279,0,0,1,4.616,2.664h-9.232a5.279,5.279,0,0,1,4.616-2.664m0,10.144a5.166,5.166,0,0,1-5.246-5.072H491.53a7.741,7.741,0,1,0-7.737,7.479,7.82,7.82,0,0,0,5.471-2.19l-1.761-1.7a5.3,5.3,0,0,1-3.71,1.485" transform="translate(-393.423 -2148.3)" fill="#2b2b2e"/><path d="M327.142,2168.259a5.075,5.075,0,1,1,5.247-5.072,5.167,5.167,0,0,1-5.247,5.072m0-12.553a7.485,7.485,0,1,0,7.738,7.481,7.621,7.621,0,0,0-7.738-7.481" transform="translate(-271.923 -2148.252)" fill="#2b2b2e"/><path d="M560.953,2155.765a7.845,7.845,0,0,1,5.33,2.068l-1.759,1.7a5.32,5.32,0,0,0-3.571-1.363,5.071,5.071,0,0,0-.341,10.136c.114,0,.228,0,.341,0a5.32,5.32,0,0,0,3.571-1.363l1.759,1.7a7.844,7.844,0,0,1-5.33,2.068,7.479,7.479,0,1,1,0-14.948" transform="translate(-453.272 -2148.299)" fill="#2b2b2e"/><path d="M260.611,2155.765a7.845,7.845,0,0,1,5.33,2.068l-1.759,1.7a5.32,5.32,0,0,0-3.571-1.363,5.071,5.071,0,0,0-.342,10.136q.171.005.342,0a5.32,5.32,0,0,0,3.571-1.363l1.76,1.7a7.846,7.846,0,0,1-5.33,2.068,7.479,7.479,0,1,1,0-14.948" transform="translate(-220.327 -2148.299)" fill="#2b2b2e"/><path d="M636.036,2145.789l-.109-5.338h-2.642V2154.5h2.75v-5.283c.054-4.548,1.634-6.318,6.018-6.59v-2.4c-3.7,0-5.283,1.525-5.909,5.555Zm20.206,1.116a6.6,6.6,0,0,0-6.808-6.89c-4.221,0-7.053,2.778-7.053,7.407,0,5.01,2.914,7.516,7.162,7.516,3.3,0,6.155-2.015,6.563-5.337h-2.614a3.869,3.869,0,0,1-3.948,3.1c-2.56,0-4.411-1.688-4.466-4.738h11.165Zm-6.917-4.657a3.948,3.948,0,0,1,4.166,4h-8.415a4.008,4.008,0,0,1,4.248-4m17.374-2.233a5.331,5.331,0,0,0-5.174,4.466h-.109v-9.042h-2.75V2154.5h2.641l.109-4h.109a5.331,5.331,0,0,0,5.174,4.466c3.7,0,6.236-2.941,6.236-7.462,0-4.548-2.533-7.489-6.236-7.489m-.926,12.745a4.308,4.308,0,0,1-4.357-4.521v-1.5a4.323,4.323,0,0,1,4.357-4.52c2.641,0,4.384,2.042,4.384,5.283,0,3.213-1.743,5.256-4.384,5.256m49.915-12.309h-3.921l-.082-3.676h-2.642v3.676h-2.4v1.879h2.4v8.551c0,3.023,1.225,3.758,4.3,3.758.708.027,1.47-.027,2.342-.082v-2.287c-.708.054-1.307.082-1.824.082-1.5,0-2.07-.3-2.07-1.8v-8.224h3.894Z" transform="translate(-515.37 -2132.535)" fill="#1922fb"/><path d="M832.612,2163.237a7.435,7.435,0,1,0-7.434,7.516,7.233,7.233,0,0,0,7.434-7.516m-3.773.872-3.661,3.661-3.661-3.661a2.872,2.872,0,0,1-.523-3.137c.287-.523,1.987-2.275,4.184.261,2.092-2.536,3.9-.784,4.183-.261a2.873,2.873,0,0,1-.522,3.137" transform="translate(-658.435 -2148.349)" fill="#1922fb"/><path d="M899.2,2170.752a7.462,7.462,0,1,0-7.434-7.516,7.26,7.26,0,0,0,7.434,7.516m0-2.288c-2.75,0-4.629-1.906-4.629-5.229,0-3.24,1.879-5.119,4.629-5.119,2.778,0,4.657,1.879,4.657,5.119,0,3.322-1.879,5.229-4.657,5.229" transform="translate(-715.848 -2148.349)" fill="#1922fb"/><path d="M917.481,2195.328a.713.713,0,0,0-.976.095,2.423,2.423,0,0,1-1.7.708,2.323,2.323,0,0,1-1.684-.708.694.694,0,1,0-1.086.865,3.739,3.739,0,0,0,5.54,0,.689.689,0,0,0-.094-.96" transform="translate(-731.451 -2178.856)" fill="#1922fb"/><path d="M911.278,2177.657a.976.976,0,1,0-1.952,0,.971.971,0,0,0,.976.976.981.981,0,0,0,.976-.976" transform="translate(-729.466 -2164.521)" fill="#1922fb"/><path d="M932.748,2176.752a.976.976,0,1,0,.976.976.981.981,0,0,0-.976-.976" transform="translate(-746.876 -2164.576)" fill="#1922fb"/></g></svg>