<svg xmlns="http://www.w3.org/2000/svg" width="190.117" height="29.999" viewBox="0 0 190.117 29.999"><g transform="translate(-437.85 -473.993)"><path d="M473.955,493.127a10.675,10.675,0,0,0-8.778,4.691l1.762,1.743a8.253,8.253,0,1,1,.047,8.566l-1.743,1.762a10.677,10.677,0,1,0,8.713-16.763" transform="translate(-21.158 -14.814)" fill="#2b2b2e"/><path d="M463.8,495.163a12.57,12.57,0,1,1,.063-12.227l1.781-1.763a15,15,0,1,0-.081,15.77Z" transform="translate(0)" fill="#2b2b2e"/><path d="M1228.684,520.76a1.5,1.5,0,1,0-1.5-1.5A1.5,1.5,0,0,0,1228.684,520.76Zm8.356-12.911a1.5,1.5,0,1,0-1.5-1.5A1.5,1.5,0,0,0,1237.04,507.849Z" transform="translate(-611.143 -23.895)" fill="#1922fb" stroke="#1922fb" stroke-width="1.14"/><path d="M978.061,491.543a5.364,5.364,0,0,0-5.206,4.494h-.11l-.109-4.056h-2.658v19.183h2.767v-9.071h.11a5.364,5.364,0,0,0,5.206,4.494c3.727,0,6.276-2.959,6.276-7.509,0-4.577-2.548-7.536-6.276-7.536m-.932,12.825a4.335,4.335,0,0,1-4.385-4.549v-1.508a4.35,4.35,0,0,1,4.385-4.549c2.658,0,4.412,2.055,4.412,5.316,0,3.234-1.754,5.289-4.412,5.289m8.6-1.726c0,2.576,2,3.919,4.823,3.919a5.351,5.351,0,0,0,5.728-5.042h.137l.109,4.6h2.631V497c0-2.96-1.726-5.453-6.44-5.453-4.439,0-6.879,2.74-6.933,5.919h2.768a3.833,3.833,0,0,1,4.138-3.672c2.823,0,3.727,1.507,3.727,2.658,0,1.89-1.617,2.165-5.042,2.11-3.809-.055-5.645,1.562-5.645,4.083m2.878-.3c0-1.261.959-2.028,2.439-2.11,4-.164,4.96-.822,5.234-2.439h.137v2.138a4.9,4.9,0,0,1-5.042,4.549c-1.918,0-2.768-.822-2.768-2.137m21.073-10.359h-3.946l-.082-3.7H1003v3.7h-2.412v1.891H1003v8.6c0,3.042,1.233,3.782,4.329,3.782.713.027,1.48-.028,2.357-.082v-2.3c-.713.055-1.315.082-1.836.082-1.507,0-2.083-.3-2.083-1.809v-8.276h3.919Zm10.221-.438a5.017,5.017,0,0,0-5.07,4.6h-.164v-9.208h-2.8v19.183h2.8V498.8c0-2.987,1.589-4.878,4-4.878a3.4,3.4,0,0,1,3.59,3.754v8.44h2.768V496.8a4.913,4.913,0,0,0-5.124-5.261" transform="translate(-411.998 -10.023)" fill="#1922fb"/><path d="M1227.889,522.35h3.143c3.781,0,6.111-1.644,6.111-4.357,0-2.083-1.233-3.206-3.946-3.809l-3.891-.877c-1.206-.274-1.918-.959-1.918-1.781,0-1.261,1.26-2,3.288-2h3.2v-2.192h-3.259c-3.672,0-5.974,1.671-5.974,4.275,0,2.083,1.507,3.343,3.891,3.865l3.864.877c1.453.3,1.946.822,1.946,1.754,0,1.288-1.26,2.055-3.288,2.055h-2.991Z" transform="translate(-609.176 -25.813)" fill="#1922fb"/><path d="M656.817,521.715h-2.479v-1.31a7.636,7.636,0,0,1-7.152,1.582,7.343,7.343,0,0,1-4.163-3.075A7.547,7.547,0,0,1,654.3,509.09v-1.276h2.513Zm-2.493-6.969a5.015,5.015,0,1,0-5.009,5.028,4.972,4.972,0,0,0,5.009-5.028" transform="translate(-157.885 -25.741)" fill="#2b2b2e"/><path d="M764.952,515.4A4.956,4.956,0,0,0,768,519.364a5.332,5.332,0,0,0,5.677-1.061l1.829,1.679a7.383,7.383,0,0,1-2.692,1.764,7.674,7.674,0,0,1-8.988-2.6,7.5,7.5,0,0,1,4.452-11.778,6.932,6.932,0,0,1,8.493,6.706c.006.428,0,.855,0,1.329Zm.293-2.518h8.779a4.354,4.354,0,0,0-4.124-3.163,4.769,4.769,0,0,0-4.656,3.163" transform="translate(-251.273 -25.703)" fill="#2b2b2e"/><path d="M836.379,515.4a4.956,4.956,0,0,0,3.049,3.966A5.332,5.332,0,0,0,845.1,518.3l1.829,1.679a7.383,7.383,0,0,1-2.692,1.764,7.674,7.674,0,0,1-8.988-2.6,7.5,7.5,0,0,1,4.452-11.778,6.932,6.932,0,0,1,8.493,6.706c.006.428,0,.855,0,1.329Zm.294-2.518h8.779a4.353,4.353,0,0,0-4.124-3.163,4.768,4.768,0,0,0-4.655,3.163" transform="translate(-306.574 -25.703)" fill="#2b2b2e"/><path d="M596.21,509.4l-1.772,1.692c-2.634-1.908-5.383-1.811-7.232.311a5.031,5.031,0,0,0,7.253,6.962l1.756,1.689a7.442,7.442,0,0,1-10.327.253,7.524,7.524,0,0,1-.1-11.043,7.449,7.449,0,0,1,10.421.136" transform="translate(-112.712 -25.715)" fill="#2b2b2e"/><path d="M729.413,509.787a2.054,2.054,0,0,0-.387.244q-3.855,3.856-7.706,7.715a1.011,1.011,0,0,0-.322.8c.015,1.512.007,3.024.007,4.536v.47h-2.479V509.647H721v4.892c.188-.174.3-.27.4-.374,1.409-1.416,2.82-2.831,4.22-4.256a.862.862,0,0,1,.686-.294c1,.018,1.992.007,2.989.007l.123.165" transform="translate(-217.313 -27.58)" fill="#2b2b2e"/><path d="M915.387,509.787a2.053,2.053,0,0,0-.387.244q-3.855,3.856-7.706,7.715a1.011,1.011,0,0,0-.322.8c.015,1.512.007,3.024.007,4.536v.47H904.5V509.647h2.469v4.892c.188-.174.3-.27.4-.374,1.409-1.416,2.82-2.831,4.22-4.256a.862.862,0,0,1,.686-.294c1,.018,1.992.007,2.989.007l.123.165" transform="translate(-361.303 -27.58)" fill="#2b2b2e"/></g></svg>