<svg xmlns="http://www.w3.org/2000/svg" width="88.037" height="88.041" viewBox="0 0 88.037 88.041">
  <path id="Union_11" data-name="Union 11" d="M14251.766,17933.287a8.259,8.259,0,0,1,5.963-7.932v-8.711a19.468,19.468,0,0,1-11.324-5.5,18.941,18.941,0,0,1-5.51-11.326h-8.711a8.255,8.255,0,1,1,0-4.588h8.713a19.265,19.265,0,0,1,16.832-16.83v-8.709a8.253,8.253,0,1,1,4.584,0v8.709a19.215,19.215,0,0,1,11.725,5.945l-3.346,3.131c-.1-.107-.189-.223-.293-.326a14.675,14.675,0,1,0-10.379,25.047,14.433,14.433,0,0,0,10.334-4.256c.123-.123.23-.26.35-.391l3.338,3.139c-.135.148-.26.307-.4.455a18.929,18.929,0,0,1-11.324,5.5v8.711a8.256,8.256,0,1,1-10.547,7.932Zm4.586,0a3.669,3.669,0,1,0,3.668-3.668A3.674,3.674,0,0,0,14256.352,17933.287Zm-35.764-35.768a3.666,3.666,0,1,0,3.664-3.668A3.671,3.671,0,0,0,14220.588,17897.52Zm35.764-35.764a3.669,3.669,0,1,0,3.668-3.668A3.673,3.673,0,0,0,14256.352,17861.756Zm31.506,38.059h-19.906a8.255,8.255,0,1,1,0-4.588h19.906a8.255,8.255,0,1,1,0,4.588Zm4.264-2.295a3.668,3.668,0,1,0,3.668-3.668A3.671,3.671,0,0,0,14292.121,17897.52Zm-35.77,0a3.669,3.669,0,1,0,3.668-3.668A3.671,3.671,0,0,0,14256.352,17897.52Z" transform="translate(-14216.002 -17853.502)" fill="#2b2b2e"/>
</svg>
