<svg xmlns="http://www.w3.org/2000/svg" width="162.367" height="30.324" viewBox="0 0 162.367 30.324"><path d="M583.52,489.431a10.463,10.463,0,0,0-8.658,4.742l1.738,1.762a8.029,8.029,0,0,1,11.167-2.862,8.459,8.459,0,0,1,2.793,11.444,8.029,8.029,0,0,1-11.168,2.862,8.235,8.235,0,0,1-2.747-2.785l-1.72,1.781a10.372,10.372,0,0,0,14.657,2.716,10.963,10.963,0,0,0,2.65-15.02,10.459,10.459,0,0,0-8.713-4.641" transform="translate(-568.777 -485.064)" fill="#1922fb"/><path d="M579.915,496.444a12.241,12.241,0,0,1-16.889,4.833,12.876,12.876,0,0,1-4.716-17.307,12.241,12.241,0,0,1,16.889-4.833,12.562,12.562,0,0,1,4.779,4.948l1.756-1.782A14.589,14.589,0,0,0,561.4,477.27a15.378,15.378,0,0,0-4.91,20.841,14.589,14.589,0,0,0,20.336,5.032,14.976,14.976,0,0,0,4.83-4.9Z" transform="translate(-554.315 -475.044)" fill="#1922fb"/><path d="M949.546,502.625a5.163,5.163,0,1,1,5.207-5.159,5.188,5.188,0,0,1-5.207,5.159m5.207-10.744a7.589,7.589,0,1,0,2.472,5.586c0-.119,0-.237-.009-.354h.009V485.433h-2.472Z" transform="translate(-827.087 -482.28)" fill="#2b2b2e"/><path d="M1008.439,502.51a5.216,5.216,0,0,1,4.581,2.709h-9.161a5.216,5.216,0,0,1,4.58-2.709m0,10.315a5.187,5.187,0,0,1-5.206-5.158h12.883a7.642,7.642,0,1,0-2.249,5.379l-1.748-1.732a5.2,5.2,0,0,1-3.681,1.51" transform="translate(-868.54 -492.468)" fill="#2b2b2e"/><path d="M890.657,512.781a5.163,5.163,0,1,1,5.207-5.158,5.188,5.188,0,0,1-5.207,5.158m0-12.766a7.608,7.608,0,1,0,7.679,7.608,7.652,7.652,0,0,0-7.679-7.608" transform="translate(-785.639 -492.436)" fill="#2b2b2e"/><path d="M1066.453,500.06a7.679,7.679,0,0,1,5.289,2.1L1070,503.892a5.207,5.207,0,0,0-3.543-1.386,5.158,5.158,0,0,0-.339,10.308c.113,0,.226,0,.339,0a5.206,5.206,0,0,0,3.543-1.386l1.746,1.73a7.633,7.633,0,1,1-5.289-13.1" transform="translate(-909.375 -492.467)" fill="#2b2b2e"/><path d="M840.632,500.06a7.68,7.68,0,0,1,5.289,2.1l-1.746,1.729a5.208,5.208,0,0,0-3.543-1.386,5.158,5.158,0,0,0-.339,10.308c.113,0,.226,0,.339,0a5.207,5.207,0,0,0,3.543-1.386l1.746,1.73a7.633,7.633,0,1,1-5.289-13.1" transform="translate(-750.435 -492.467)" fill="#2b2b2e"/><path d="M680.009,507.7a7.414,7.414,0,1,1-7.409-7.622,7.478,7.478,0,0,1,7.409,7.622m-2.478-.026a4.94,4.94,0,1,0-4.95,5.057,4.954,4.954,0,0,0,4.95-5.057" transform="translate(-632.348 -492.477)" fill="#1922fb"/><path d="M721.767,500.606h2.418v1.867a3.921,3.921,0,0,0,.267-.29,5.161,5.161,0,0,1,7.466-1.019,5.023,5.023,0,0,1,1.81,3.374,8.55,8.55,0,0,1,.083,1.213c.007,2.8,0,5.6,0,8.407v.484h-2.468v-.514q0-3.929,0-7.86a4.668,4.668,0,0,0-.45-2.07,2.623,2.623,0,0,0-2.01-1.553,3.976,3.976,0,0,0-3.652,1.014,3.456,3.456,0,0,0-1.029,2.567q.005,3.929,0,7.86v.543h-2.44Z" transform="translate(-672.173 -492.436)" fill="#1922fb"/><path d="M772.349,508.327a4.986,4.986,0,0,0,3,4,5.156,5.156,0,0,0,5.592-1.071l1.8,1.695a7.259,7.259,0,0,1-2.652,1.781,7.451,7.451,0,0,1-8.852-2.628,7.622,7.622,0,0,1,4.385-11.889,6.871,6.871,0,0,1,8.365,6.769c.006.432,0,.863,0,1.341Zm.289-2.542h8.647a4.308,4.308,0,0,0-4.062-3.193,4.7,4.7,0,0,0-4.585,3.193" transform="translate(-705.997 -492.455)" fill="#1922fb"/></svg>