<svg xmlns="http://www.w3.org/2000/svg" width="529.043" height="529.042" viewBox="0 0 529.043 529.042">
  <g id="Сгруппировать_1215" data-name="Сгруппировать 1215" transform="translate(0 -0.001)">
    <path id="Контур_4284" data-name="Контур 4284" d="M3889.66-7754.49a2.434,2.434,0,0,1,2.433,2.433,2.436,2.436,0,0,1-2.433,2.433,2.437,2.437,0,0,1-2.434-2.433A2.435,2.435,0,0,1,3889.66-7754.49Z" transform="translate(-3751.329 8278.669)" fill="#d1ccc1"/>
    <path id="Контур_4285" data-name="Контур 4285" d="M3900.343-7754.49a2.435,2.435,0,0,1,2.434,2.433,2.437,2.437,0,0,1-2.434,2.433,2.436,2.436,0,0,1-2.433-2.433A2.434,2.434,0,0,1,3900.343-7754.49Z" transform="translate(-3781.425 8278.669)" fill="#d1ccc1"/>
    <path id="Контур_4286" data-name="Контур 4286" d="M3911.026-7754.49a2.435,2.435,0,0,1,2.433,2.433,2.436,2.436,0,0,1-2.433,2.433,2.437,2.437,0,0,1-2.434-2.433A2.435,2.435,0,0,1,3911.026-7754.49Z" transform="translate(-3811.522 8278.669)" fill="#d1ccc1"/>
    <path id="Контур_4287" data-name="Контур 4287" d="M3921.711-7754.49a2.435,2.435,0,0,1,2.434,2.433,2.437,2.437,0,0,1-2.434,2.433,2.437,2.437,0,0,1-2.436-2.433A2.435,2.435,0,0,1,3921.711-7754.49Z" transform="translate(-3841.62 8278.669)" fill="#d1ccc1"/>
    <path id="Контур_4288" data-name="Контур 4288" d="M3953.759-7754.49a2.435,2.435,0,0,1,2.434,2.433,2.437,2.437,0,0,1-2.434,2.433,2.436,2.436,0,0,1-2.433-2.433A2.435,2.435,0,0,1,3953.759-7754.49Z" transform="translate(-3931.91 8278.669)" fill="#d1ccc1"/>
    <path id="Контур_4289" data-name="Контур 4289" d="M3964.442-7754.49a2.433,2.433,0,0,1,2.433,2.433,2.435,2.435,0,0,1-2.433,2.433,2.437,2.437,0,0,1-2.434-2.433A2.435,2.435,0,0,1,3964.442-7754.49Z" transform="translate(-3962.007 8278.669)" fill="#d1ccc1"/>
    <path id="Контур_4292" data-name="Контур 4292" d="M3889.66-7765.173a2.436,2.436,0,0,1,2.433,2.433,2.437,2.437,0,0,1-2.433,2.434,2.437,2.437,0,0,1-2.434-2.434A2.436,2.436,0,0,1,3889.66-7765.173Z" transform="translate(-3751.329 8269.938)" fill="#d1ccc1"/>
    <path id="Контур_4293" data-name="Контур 4293" d="M3900.343-7765.173a2.436,2.436,0,0,1,2.434,2.433,2.437,2.437,0,0,1-2.434,2.434,2.437,2.437,0,0,1-2.433-2.434A2.435,2.435,0,0,1,3900.343-7765.173Z" transform="translate(-3781.425 8269.938)" fill="#d1ccc1"/>
    <path id="Контур_4294" data-name="Контур 4294" d="M3911.026-7765.173a2.436,2.436,0,0,1,2.433,2.433,2.437,2.437,0,0,1-2.433,2.434,2.437,2.437,0,0,1-2.434-2.434A2.436,2.436,0,0,1,3911.026-7765.173Z" transform="translate(-3811.522 8269.938)" fill="#d1ccc1"/>
    <path id="Контур_4295" data-name="Контур 4295" d="M3921.711-7765.173a2.436,2.436,0,0,1,2.434,2.433,2.437,2.437,0,0,1-2.434,2.434,2.438,2.438,0,0,1-2.436-2.434A2.436,2.436,0,0,1,3921.711-7765.173Z" transform="translate(-3841.62 8269.938)" fill="#d1ccc1"/>
    <path id="Контур_4296" data-name="Контур 4296" d="M3953.759-7765.173a2.436,2.436,0,0,1,2.434,2.433,2.437,2.437,0,0,1-2.434,2.434,2.437,2.437,0,0,1-2.433-2.434A2.436,2.436,0,0,1,3953.759-7765.173Z" transform="translate(-3931.91 8269.938)" fill="#d1ccc1"/>
    <path id="Контур_4297" data-name="Контур 4297" d="M3964.444-7765.173a2.436,2.436,0,0,1,2.433,2.433,2.437,2.437,0,0,1-2.433,2.434,2.439,2.439,0,0,1-2.436-2.434A2.438,2.438,0,0,1,3964.444-7765.173Z" transform="translate(-3962.009 8269.938)" fill="#d1ccc1"/>
    <path id="Контур_4300" data-name="Контур 4300" d="M3889.66-7786.541a2.438,2.438,0,0,1,2.433,2.435,2.436,2.436,0,0,1-2.433,2.434,2.437,2.437,0,0,1-2.434-2.434A2.438,2.438,0,0,1,3889.66-7786.541Z" transform="translate(-3751.329 8252.476)" fill="#d1ccc1"/>
    <path id="Контур_4301" data-name="Контур 4301" d="M3900.343-7786.541a2.438,2.438,0,0,1,2.434,2.435,2.437,2.437,0,0,1-2.434,2.434,2.436,2.436,0,0,1-2.433-2.434A2.438,2.438,0,0,1,3900.343-7786.541Z" transform="translate(-3781.425 8252.476)" fill="#d1ccc1"/>
    <path id="Контур_4302" data-name="Контур 4302" d="M3911.026-7786.541a2.438,2.438,0,0,1,2.433,2.435,2.437,2.437,0,0,1-2.433,2.434,2.437,2.437,0,0,1-2.434-2.434A2.438,2.438,0,0,1,3911.026-7786.541Z" transform="translate(-3811.522 8252.476)" fill="#d1ccc1"/>
    <path id="Контур_4303" data-name="Контур 4303" d="M3921.711-7786.541a2.438,2.438,0,0,1,2.434,2.435,2.437,2.437,0,0,1-2.434,2.434,2.437,2.437,0,0,1-2.436-2.434A2.439,2.439,0,0,1,3921.711-7786.541Z" transform="translate(-3841.62 8252.476)" fill="#d1ccc1"/>
    <path id="Контур_4304" data-name="Контур 4304" d="M3953.759-7786.541a2.438,2.438,0,0,1,2.434,2.435,2.437,2.437,0,0,1-2.434,2.434,2.437,2.437,0,0,1-2.433-2.434A2.438,2.438,0,0,1,3953.759-7786.541Z" transform="translate(-3931.91 8252.476)" fill="#d1ccc1"/>
    <path id="Контур_4305" data-name="Контур 4305" d="M3964.444-7786.541a2.438,2.438,0,0,1,2.433,2.435,2.437,2.437,0,0,1-2.433,2.434,2.438,2.438,0,0,1-2.436-2.434A2.44,2.44,0,0,1,3964.444-7786.541Z" transform="translate(-3962.009 8252.476)" fill="#d1ccc1"/>
    <path id="Контур_4308" data-name="Контур 4308" d="M3889.66-7818.589a2.436,2.436,0,0,1,2.433,2.433,2.437,2.437,0,0,1-2.433,2.434,2.437,2.437,0,0,1-2.434-2.434A2.437,2.437,0,0,1,3889.66-7818.589Z" transform="translate(-3751.329 8226.284)" fill="#d1ccc1"/>
    <path id="Контур_4309" data-name="Контур 4309" d="M3900.343-7818.589a2.437,2.437,0,0,1,2.434,2.433,2.437,2.437,0,0,1-2.434,2.434,2.437,2.437,0,0,1-2.433-2.434A2.436,2.436,0,0,1,3900.343-7818.589Z" transform="translate(-3781.425 8226.284)" fill="#d1ccc1"/>
    <path id="Контур_4310" data-name="Контур 4310" d="M3911.026-7818.589a2.436,2.436,0,0,1,2.433,2.433,2.437,2.437,0,0,1-2.433,2.434,2.437,2.437,0,0,1-2.434-2.434A2.437,2.437,0,0,1,3911.026-7818.589Z" transform="translate(-3811.522 8226.284)" fill="#d1ccc1"/>
    <path id="Контур_4311" data-name="Контур 4311" d="M3921.711-7818.589a2.437,2.437,0,0,1,2.434,2.433,2.437,2.437,0,0,1-2.434,2.434,2.438,2.438,0,0,1-2.436-2.434A2.437,2.437,0,0,1,3921.711-7818.589Z" transform="translate(-3841.62 8226.284)" fill="#d1ccc1"/>
    <path id="Контур_4312" data-name="Контур 4312" d="M3953.759-7818.589a2.437,2.437,0,0,1,2.434,2.433,2.437,2.437,0,0,1-2.434,2.434,2.437,2.437,0,0,1-2.433-2.434A2.436,2.436,0,0,1,3953.759-7818.589Z" transform="translate(-3931.91 8226.284)" fill="#d1ccc1"/>
    <path id="Контур_4313" data-name="Контур 4313" d="M3964.444-7818.589a2.436,2.436,0,0,1,2.433,2.433,2.437,2.437,0,0,1-2.433,2.434,2.439,2.439,0,0,1-2.436-2.434A2.438,2.438,0,0,1,3964.444-7818.589Z" transform="translate(-3962.009 8226.284)" fill="#d1ccc1"/>
    <path id="Контур_4316" data-name="Контур 4316" d="M3889.66-7829.272a2.437,2.437,0,0,1,2.433,2.433,2.435,2.435,0,0,1-2.433,2.434,2.436,2.436,0,0,1-2.434-2.434A2.437,2.437,0,0,1,3889.66-7829.272Z" transform="translate(-3751.329 8217.554)" fill="#d1ccc1"/>
    <path id="Контур_4317" data-name="Контур 4317" d="M3900.343-7829.272a2.437,2.437,0,0,1,2.434,2.433,2.436,2.436,0,0,1-2.434,2.434,2.435,2.435,0,0,1-2.433-2.434A2.437,2.437,0,0,1,3900.343-7829.272Z" transform="translate(-3781.425 8217.554)" fill="#d1ccc1"/>
    <path id="Контур_4318" data-name="Контур 4318" d="M3911.026-7829.272a2.437,2.437,0,0,1,2.433,2.433,2.435,2.435,0,0,1-2.433,2.434,2.436,2.436,0,0,1-2.434-2.434A2.437,2.437,0,0,1,3911.026-7829.272Z" transform="translate(-3811.522 8217.554)" fill="#d1ccc1"/>
    <path id="Контур_4319" data-name="Контур 4319" d="M3921.711-7829.272a2.437,2.437,0,0,1,2.434,2.433,2.436,2.436,0,0,1-2.434,2.434,2.436,2.436,0,0,1-2.436-2.434A2.438,2.438,0,0,1,3921.711-7829.272Z" transform="translate(-3841.62 8217.554)" fill="#d1ccc1"/>
    <path id="Контур_4320" data-name="Контур 4320" d="M3953.759-7829.272a2.437,2.437,0,0,1,2.434,2.433,2.436,2.436,0,0,1-2.434,2.434,2.435,2.435,0,0,1-2.433-2.434A2.437,2.437,0,0,1,3953.759-7829.272Z" transform="translate(-3931.91 8217.554)" fill="#d1ccc1"/>
    <path id="Контур_4321" data-name="Контур 4321" d="M3964.444-7829.272a2.437,2.437,0,0,1,2.433,2.433,2.435,2.435,0,0,1-2.433,2.434,2.437,2.437,0,0,1-2.436-2.434A2.439,2.439,0,0,1,3964.444-7829.272Z" transform="translate(-3962.009 8217.554)" fill="#d1ccc1"/>
    <path id="Контур_4324" data-name="Контур 4324" d="M3889.66-7850.64a2.436,2.436,0,0,1,2.433,2.434,2.437,2.437,0,0,1-2.433,2.434,2.437,2.437,0,0,1-2.434-2.434A2.437,2.437,0,0,1,3889.66-7850.64Z" transform="translate(-3751.329 8200.091)" fill="#d1ccc1"/>
    <path id="Контур_4325" data-name="Контур 4325" d="M3900.343-7850.64a2.437,2.437,0,0,1,2.434,2.434,2.437,2.437,0,0,1-2.434,2.434,2.437,2.437,0,0,1-2.433-2.434A2.436,2.436,0,0,1,3900.343-7850.64Z" transform="translate(-3781.425 8200.091)" fill="#d1ccc1"/>
    <path id="Контур_4326" data-name="Контур 4326" d="M3911.026-7850.64a2.437,2.437,0,0,1,2.433,2.434,2.437,2.437,0,0,1-2.433,2.434,2.437,2.437,0,0,1-2.434-2.434A2.437,2.437,0,0,1,3911.026-7850.64Z" transform="translate(-3811.522 8200.091)" fill="#d1ccc1"/>
    <path id="Контур_4327" data-name="Контур 4327" d="M3921.711-7850.64a2.437,2.437,0,0,1,2.434,2.434,2.437,2.437,0,0,1-2.434,2.434,2.438,2.438,0,0,1-2.436-2.434A2.437,2.437,0,0,1,3921.711-7850.64Z" transform="translate(-3841.62 8200.091)" fill="#d1ccc1"/>
    <path id="Контур_4328" data-name="Контур 4328" d="M3953.759-7850.64a2.437,2.437,0,0,1,2.434,2.434,2.437,2.437,0,0,1-2.434,2.434,2.437,2.437,0,0,1-2.433-2.434A2.437,2.437,0,0,1,3953.759-7850.64Z" transform="translate(-3931.91 8200.091)" fill="#d1ccc1"/>
    <path id="Контур_4329" data-name="Контур 4329" d="M3964.444-7850.64a2.437,2.437,0,0,1,2.433,2.434,2.437,2.437,0,0,1-2.433,2.434,2.439,2.439,0,0,1-2.436-2.434A2.438,2.438,0,0,1,3964.444-7850.64Z" transform="translate(-3962.009 8200.091)" fill="#d1ccc1"/>
    <path id="Контур_4332" data-name="Контур 4332" d="M3889.66-7861.321a2.433,2.433,0,0,1,2.433,2.432,2.436,2.436,0,0,1-2.433,2.433,2.437,2.437,0,0,1-2.434-2.433A2.434,2.434,0,0,1,3889.66-7861.321Z" transform="translate(-3751.329 8191.362)" fill="#d1ccc1"/>
    <path id="Контур_4333" data-name="Контур 4333" d="M3900.343-7861.321a2.434,2.434,0,0,1,2.434,2.432,2.437,2.437,0,0,1-2.434,2.433,2.436,2.436,0,0,1-2.433-2.433A2.433,2.433,0,0,1,3900.343-7861.321Z" transform="translate(-3781.425 8191.362)" fill="#d1ccc1"/>
    <path id="Контур_4334" data-name="Контур 4334" d="M3911.026-7861.321a2.434,2.434,0,0,1,2.433,2.432,2.436,2.436,0,0,1-2.433,2.433,2.437,2.437,0,0,1-2.434-2.433A2.434,2.434,0,0,1,3911.026-7861.321Z" transform="translate(-3811.522 8191.362)" fill="#d1ccc1"/>
    <path id="Контур_4335" data-name="Контур 4335" d="M3921.711-7861.321a2.434,2.434,0,0,1,2.434,2.432,2.437,2.437,0,0,1-2.434,2.433,2.437,2.437,0,0,1-2.436-2.433A2.434,2.434,0,0,1,3921.711-7861.321Z" transform="translate(-3841.62 8191.362)" fill="#d1ccc1"/>
    <path id="Контур_4336" data-name="Контур 4336" d="M3953.759-7861.321a2.434,2.434,0,0,1,2.434,2.432,2.437,2.437,0,0,1-2.434,2.433,2.436,2.436,0,0,1-2.433-2.433A2.434,2.434,0,0,1,3953.759-7861.321Z" transform="translate(-3931.91 8191.362)" fill="#d1ccc1"/>
    <path id="Контур_4337" data-name="Контур 4337" d="M3964.444-7861.321a2.434,2.434,0,0,1,2.433,2.432,2.436,2.436,0,0,1-2.433,2.433,2.438,2.438,0,0,1-2.436-2.433A2.436,2.436,0,0,1,3964.444-7861.321Z" transform="translate(-3962.009 8191.362)" fill="#d1ccc1"/>
    <path id="Контур_4340" data-name="Контур 4340" d="M3889.66-7872a2.436,2.436,0,0,1,2.433,2.433,2.436,2.436,0,0,1-2.433,2.433,2.437,2.437,0,0,1-2.434-2.433A2.437,2.437,0,0,1,3889.66-7872Z" transform="translate(-3751.329 8182.63)" fill="#d1ccc1"/>
    <path id="Контур_4341" data-name="Контур 4341" d="M3900.343-7872a2.437,2.437,0,0,1,2.434,2.433,2.437,2.437,0,0,1-2.434,2.433,2.436,2.436,0,0,1-2.433-2.433A2.436,2.436,0,0,1,3900.343-7872Z" transform="translate(-3781.425 8182.63)" fill="#d1ccc1"/>
    <path id="Контур_4342" data-name="Контур 4342" d="M3911.026-7872a2.436,2.436,0,0,1,2.433,2.433,2.436,2.436,0,0,1-2.433,2.433,2.437,2.437,0,0,1-2.434-2.433A2.437,2.437,0,0,1,3911.026-7872Z" transform="translate(-3811.522 8182.63)" fill="#d1ccc1"/>
    <path id="Контур_4343" data-name="Контур 4343" d="M3921.711-7872a2.437,2.437,0,0,1,2.434,2.433,2.437,2.437,0,0,1-2.434,2.433,2.437,2.437,0,0,1-2.436-2.433A2.437,2.437,0,0,1,3921.711-7872Z" transform="translate(-3841.62 8182.63)" fill="#d1ccc1"/>
    <path id="Контур_4344" data-name="Контур 4344" d="M3953.759-7872a2.437,2.437,0,0,1,2.434,2.433,2.437,2.437,0,0,1-2.434,2.433,2.436,2.436,0,0,1-2.433-2.433A2.436,2.436,0,0,1,3953.759-7872Z" transform="translate(-3931.91 8182.63)" fill="#d1ccc1"/>
    <path id="Контур_4345" data-name="Контур 4345" d="M3964.444-7872a2.436,2.436,0,0,1,2.433,2.433,2.436,2.436,0,0,1-2.433,2.433,2.438,2.438,0,0,1-2.436-2.433A2.438,2.438,0,0,1,3964.444-7872Z" transform="translate(-3962.009 8182.63)" fill="#d1ccc1"/>
    <path id="Контур_4348" data-name="Контур 4348" d="M3889.66-7882.688a2.436,2.436,0,0,1,2.433,2.433,2.433,2.433,0,0,1-2.433,2.432,2.434,2.434,0,0,1-2.434-2.432A2.437,2.437,0,0,1,3889.66-7882.688Z" transform="translate(-3751.329 8173.9)" fill="#d1ccc1"/>
    <path id="Контур_4349" data-name="Контур 4349" d="M3900.343-7882.688a2.437,2.437,0,0,1,2.434,2.433,2.434,2.434,0,0,1-2.434,2.432,2.433,2.433,0,0,1-2.433-2.432A2.436,2.436,0,0,1,3900.343-7882.688Z" transform="translate(-3781.425 8173.9)" fill="#d1ccc1"/>
    <path id="Контур_4350" data-name="Контур 4350" d="M3911.026-7882.688a2.436,2.436,0,0,1,2.433,2.433,2.434,2.434,0,0,1-2.433,2.432,2.434,2.434,0,0,1-2.434-2.432A2.437,2.437,0,0,1,3911.026-7882.688Z" transform="translate(-3811.522 8173.9)" fill="#d1ccc1"/>
    <path id="Контур_4351" data-name="Контур 4351" d="M3921.711-7882.688a2.437,2.437,0,0,1,2.434,2.433,2.434,2.434,0,0,1-2.434,2.432,2.434,2.434,0,0,1-2.436-2.432A2.437,2.437,0,0,1,3921.711-7882.688Z" transform="translate(-3841.62 8173.9)" fill="#d1ccc1"/>
    <path id="Контур_4352" data-name="Контур 4352" d="M3953.759-7882.688a2.437,2.437,0,0,1,2.434,2.433,2.434,2.434,0,0,1-2.434,2.432,2.434,2.434,0,0,1-2.433-2.432A2.436,2.436,0,0,1,3953.759-7882.688Z" transform="translate(-3931.91 8173.9)" fill="#d1ccc1"/>
    <path id="Контур_4353" data-name="Контур 4353" d="M3964.444-7882.688a2.436,2.436,0,0,1,2.433,2.433,2.434,2.434,0,0,1-2.433,2.432,2.436,2.436,0,0,1-2.436-2.432A2.438,2.438,0,0,1,3964.444-7882.688Z" transform="translate(-3962.009 8173.9)" fill="#d1ccc1"/>
    <path id="Контур_4356" data-name="Контур 4356" d="M3889.66-7893.372a2.437,2.437,0,0,1,2.433,2.434,2.436,2.436,0,0,1-2.433,2.434,2.437,2.437,0,0,1-2.434-2.434A2.437,2.437,0,0,1,3889.66-7893.372Z" transform="translate(-3751.329 8165.17)" fill="#d1ccc1"/>
    <path id="Контур_4357" data-name="Контур 4357" d="M3900.343-7893.372a2.437,2.437,0,0,1,2.434,2.434,2.437,2.437,0,0,1-2.434,2.434,2.436,2.436,0,0,1-2.433-2.434A2.437,2.437,0,0,1,3900.343-7893.372Z" transform="translate(-3781.425 8165.17)" fill="#d1ccc1"/>
    <path id="Контур_4358" data-name="Контур 4358" d="M3911.026-7893.372a2.437,2.437,0,0,1,2.433,2.434,2.437,2.437,0,0,1-2.433,2.434,2.437,2.437,0,0,1-2.434-2.434A2.437,2.437,0,0,1,3911.026-7893.372Z" transform="translate(-3811.522 8165.17)" fill="#d1ccc1"/>
    <path id="Контур_4359" data-name="Контур 4359" d="M3921.711-7893.372a2.437,2.437,0,0,1,2.434,2.434,2.437,2.437,0,0,1-2.434,2.434,2.437,2.437,0,0,1-2.436-2.434A2.438,2.438,0,0,1,3921.711-7893.372Z" transform="translate(-3841.62 8165.17)" fill="#d1ccc1"/>
    <path id="Контур_4360" data-name="Контур 4360" d="M3953.759-7893.372a2.437,2.437,0,0,1,2.434,2.434,2.437,2.437,0,0,1-2.434,2.434,2.437,2.437,0,0,1-2.433-2.434A2.437,2.437,0,0,1,3953.759-7893.372Z" transform="translate(-3931.91 8165.17)" fill="#d1ccc1"/>
    <path id="Контур_4361" data-name="Контур 4361" d="M3964.444-7893.372a2.437,2.437,0,0,1,2.433,2.434,2.437,2.437,0,0,1-2.433,2.434,2.438,2.438,0,0,1-2.436-2.434A2.439,2.439,0,0,1,3964.444-7893.372Z" transform="translate(-3962.009 8165.17)" fill="#d1ccc1"/>
    <path id="Контур_4362" data-name="Контур 4362" d="M3676-8042.938a2.438,2.438,0,0,1,2.433,2.435,2.435,2.435,0,0,1-2.433,2.433,2.435,2.435,0,0,1-2.433-2.433A2.438,2.438,0,0,1,3676-8042.938Z" transform="translate(-3149.387 8042.939)" fill="#d1ccc1"/>
    <path id="Контур_4373" data-name="Контур 4373" d="M3846.927-8042.938a2.438,2.438,0,0,1,2.433,2.435,2.435,2.435,0,0,1-2.433,2.433,2.435,2.435,0,0,1-2.434-2.433A2.438,2.438,0,0,1,3846.927-8042.938Z" transform="translate(-3630.94 8042.939)" fill="#d1ccc1"/>
    <path id="Контур_4374" data-name="Контур 4374" d="M3878.976-8042.938a2.44,2.44,0,0,1,2.436,2.435,2.436,2.436,0,0,1-2.436,2.433,2.434,2.434,0,0,1-2.433-2.433A2.438,2.438,0,0,1,3878.976-8042.938Z" transform="translate(-3721.231 8042.939)" fill="#d1ccc1"/>
    <path id="Контур_4385" data-name="Контур 4385" d="M3857.61-8042.938a2.438,2.438,0,0,1,2.434,2.435,2.435,2.435,0,0,1-2.434,2.433,2.434,2.434,0,0,1-2.433-2.433A2.438,2.438,0,0,1,3857.61-8042.938Z" transform="translate(-3661.036 8042.939)" fill="#d1ccc1"/>
    <path id="Контур_4386" data-name="Контур 4386" d="M3889.66-8042.938a2.438,2.438,0,0,1,2.433,2.435,2.434,2.434,0,0,1-2.433,2.433,2.435,2.435,0,0,1-2.434-2.433A2.438,2.438,0,0,1,3889.66-8042.938Z" transform="translate(-3751.329 8042.939)" fill="#d1ccc1"/>
    <path id="Контур_4387" data-name="Контур 4387" d="M3900.343-8042.938a2.438,2.438,0,0,1,2.434,2.435,2.435,2.435,0,0,1-2.434,2.433,2.434,2.434,0,0,1-2.433-2.433A2.438,2.438,0,0,1,3900.343-8042.938Z" transform="translate(-3781.425 8042.939)" fill="#d1ccc1"/>
    <path id="Контур_4388" data-name="Контур 4388" d="M3911.026-8042.938a2.438,2.438,0,0,1,2.433,2.435,2.435,2.435,0,0,1-2.433,2.433,2.435,2.435,0,0,1-2.434-2.433A2.438,2.438,0,0,1,3911.026-8042.938Z" transform="translate(-3811.522 8042.939)" fill="#d1ccc1"/>
    <path id="Контур_4389" data-name="Контур 4389" d="M3921.711-8042.938a2.438,2.438,0,0,1,2.434,2.435,2.435,2.435,0,0,1-2.434,2.433,2.435,2.435,0,0,1-2.436-2.433A2.439,2.439,0,0,1,3921.711-8042.938Z" transform="translate(-3841.62 8042.939)" fill="#d1ccc1"/>
    <path id="Контур_4390" data-name="Контур 4390" d="M3953.759-8042.938a2.438,2.438,0,0,1,2.434,2.435,2.435,2.435,0,0,1-2.434,2.433,2.435,2.435,0,0,1-2.433-2.433A2.438,2.438,0,0,1,3953.759-8042.938Z" transform="translate(-3931.91 8042.939)" fill="#d1ccc1"/>
    <path id="Контур_4391" data-name="Контур 4391" d="M3943.078-7754.49a2.433,2.433,0,0,1,2.431,2.433,2.434,2.434,0,0,1-2.431,2.433,2.437,2.437,0,0,1-2.435-2.433A2.435,2.435,0,0,1,3943.078-7754.49Z" transform="translate(-3901.814 8278.669)" fill="#d1ccc1"/>
    <path id="Контур_4392" data-name="Контур 4392" d="M3943.078-7765.173a2.434,2.434,0,0,1,2.431,2.433,2.435,2.435,0,0,1-2.431,2.434,2.438,2.438,0,0,1-2.435-2.434A2.436,2.436,0,0,1,3943.078-7765.173Z" transform="translate(-3901.814 8269.938)" fill="#d1ccc1"/>
    <path id="Контур_4393" data-name="Контур 4393" d="M3943.078-7786.541a2.436,2.436,0,0,1,2.431,2.435,2.435,2.435,0,0,1-2.431,2.434,2.437,2.437,0,0,1-2.435-2.434A2.439,2.439,0,0,1,3943.078-7786.541Z" transform="translate(-3901.814 8252.476)" fill="#d1ccc1"/>
    <path id="Контур_4394" data-name="Контур 4394" d="M3943.078-7818.589a2.434,2.434,0,0,1,2.431,2.433,2.435,2.435,0,0,1-2.431,2.434,2.438,2.438,0,0,1-2.435-2.434A2.437,2.437,0,0,1,3943.078-7818.589Z" transform="translate(-3901.814 8226.284)" fill="#d1ccc1"/>
    <path id="Контур_4395" data-name="Контур 4395" d="M3943.078-7829.272a2.435,2.435,0,0,1,2.431,2.433,2.433,2.433,0,0,1-2.431,2.434,2.436,2.436,0,0,1-2.435-2.434A2.438,2.438,0,0,1,3943.078-7829.272Z" transform="translate(-3901.814 8217.554)" fill="#d1ccc1"/>
    <path id="Контур_4396" data-name="Контур 4396" d="M3943.078-7850.64a2.435,2.435,0,0,1,2.431,2.434,2.435,2.435,0,0,1-2.431,2.434,2.438,2.438,0,0,1-2.435-2.434A2.437,2.437,0,0,1,3943.078-7850.64Z" transform="translate(-3901.814 8200.091)" fill="#d1ccc1"/>
    <path id="Контур_4397" data-name="Контур 4397" d="M3943.078-7861.321a2.432,2.432,0,0,1,2.431,2.432,2.434,2.434,0,0,1-2.431,2.433,2.437,2.437,0,0,1-2.435-2.433A2.434,2.434,0,0,1,3943.078-7861.321Z" transform="translate(-3901.814 8191.362)" fill="#d1ccc1"/>
    <path id="Контур_4398" data-name="Контур 4398" d="M3943.078-7872a2.434,2.434,0,0,1,2.431,2.433,2.434,2.434,0,0,1-2.431,2.433,2.437,2.437,0,0,1-2.435-2.433A2.437,2.437,0,0,1,3943.078-7872Z" transform="translate(-3901.814 8182.63)" fill="#d1ccc1"/>
    <path id="Контур_4399" data-name="Контур 4399" d="M3943.078-7882.688a2.434,2.434,0,0,1,2.431,2.433,2.432,2.432,0,0,1-2.431,2.432,2.434,2.434,0,0,1-2.435-2.432A2.437,2.437,0,0,1,3943.078-7882.688Z" transform="translate(-3901.814 8173.9)" fill="#d1ccc1"/>
    <path id="Контур_4400" data-name="Контур 4400" d="M3943.078-7893.372a2.435,2.435,0,0,1,2.431,2.434,2.435,2.435,0,0,1-2.431,2.434,2.437,2.437,0,0,1-2.435-2.434A2.438,2.438,0,0,1,3943.078-7893.372Z" transform="translate(-3901.814 8165.17)" fill="#d1ccc1"/>
    <path id="Контур_4401" data-name="Контур 4401" d="M3943.078-8042.938a2.436,2.436,0,0,1,2.431,2.435,2.433,2.433,0,0,1-2.431,2.433,2.435,2.435,0,0,1-2.435-2.433A2.439,2.439,0,0,1,3943.078-8042.938Z" transform="translate(-3901.814 8042.939)" fill="#d1ccc1"/>
    <path id="Контур_4402" data-name="Контур 4402" d="M3932.394-7754.49a2.435,2.435,0,0,1,2.433,2.433,2.436,2.436,0,0,1-2.433,2.433,2.437,2.437,0,0,1-2.435-2.433A2.435,2.435,0,0,1,3932.394-7754.49Z" transform="translate(-3871.716 8278.669)" fill="#d1ccc1"/>
    <path id="Контур_4403" data-name="Контур 4403" d="M3932.394-7765.173a2.436,2.436,0,0,1,2.433,2.433,2.437,2.437,0,0,1-2.433,2.434,2.437,2.437,0,0,1-2.435-2.434A2.436,2.436,0,0,1,3932.394-7765.173Z" transform="translate(-3871.716 8269.938)" fill="#d1ccc1"/>
    <path id="Контур_4404" data-name="Контур 4404" d="M3932.394-7786.541a2.438,2.438,0,0,1,2.433,2.435,2.437,2.437,0,0,1-2.433,2.434,2.437,2.437,0,0,1-2.435-2.434A2.438,2.438,0,0,1,3932.394-7786.541Z" transform="translate(-3871.716 8252.476)" fill="#d1ccc1"/>
    <path id="Контур_4407" data-name="Контур 4407" d="M3889.66-7797.224a2.437,2.437,0,0,1,2.433,2.434,2.437,2.437,0,0,1-2.433,2.436,2.438,2.438,0,0,1-2.434-2.436A2.437,2.437,0,0,1,3889.66-7797.224Z" transform="translate(-3751.329 8243.745)" fill="#d1ccc1"/>
    <path id="Контур_4408" data-name="Контур 4408" d="M3900.343-7797.224a2.437,2.437,0,0,1,2.434,2.434,2.438,2.438,0,0,1-2.434,2.436,2.437,2.437,0,0,1-2.433-2.436A2.437,2.437,0,0,1,3900.343-7797.224Z" transform="translate(-3781.425 8243.745)" fill="#d1ccc1"/>
    <path id="Контур_4409" data-name="Контур 4409" d="M3911.026-7797.224a2.437,2.437,0,0,1,2.433,2.434,2.438,2.438,0,0,1-2.433,2.436,2.438,2.438,0,0,1-2.434-2.436A2.437,2.437,0,0,1,3911.026-7797.224Z" transform="translate(-3811.522 8243.745)" fill="#d1ccc1"/>
    <path id="Контур_4410" data-name="Контур 4410" d="M3921.711-7797.224a2.437,2.437,0,0,1,2.434,2.434,2.438,2.438,0,0,1-2.434,2.436,2.438,2.438,0,0,1-2.436-2.436A2.438,2.438,0,0,1,3921.711-7797.224Z" transform="translate(-3841.62 8243.745)" fill="#d1ccc1"/>
    <path id="Контур_4411" data-name="Контур 4411" d="M3953.759-7797.224a2.437,2.437,0,0,1,2.434,2.434,2.438,2.438,0,0,1-2.434,2.436,2.438,2.438,0,0,1-2.433-2.436A2.437,2.437,0,0,1,3953.759-7797.224Z" transform="translate(-3931.91 8243.745)" fill="#d1ccc1"/>
    <path id="Контур_4412" data-name="Контур 4412" d="M3964.444-7797.224a2.437,2.437,0,0,1,2.433,2.434,2.438,2.438,0,0,1-2.433,2.436,2.439,2.439,0,0,1-2.436-2.436A2.439,2.439,0,0,1,3964.444-7797.224Z" transform="translate(-3962.009 8243.745)" fill="#d1ccc1"/>
    <path id="Контур_4415" data-name="Контур 4415" d="M3943.078-7797.224a2.435,2.435,0,0,1,2.431,2.434,2.436,2.436,0,0,1-2.431,2.436,2.438,2.438,0,0,1-2.435-2.436A2.438,2.438,0,0,1,3943.078-7797.224Z" transform="translate(-3901.814 8243.745)" fill="#d1ccc1"/>
    <path id="Контур_4416" data-name="Контур 4416" d="M3932.394-7797.224a2.437,2.437,0,0,1,2.433,2.434,2.438,2.438,0,0,1-2.433,2.436,2.438,2.438,0,0,1-2.435-2.436A2.437,2.437,0,0,1,3932.394-7797.224Z" transform="translate(-3871.716 8243.745)" fill="#d1ccc1"/>
    <path id="Контур_4417" data-name="Контур 4417" d="M3932.394-7818.589a2.436,2.436,0,0,1,2.433,2.433,2.437,2.437,0,0,1-2.433,2.434,2.437,2.437,0,0,1-2.435-2.434A2.437,2.437,0,0,1,3932.394-7818.589Z" transform="translate(-3871.716 8226.284)" fill="#d1ccc1"/>
    <path id="Контур_4418" data-name="Контур 4418" d="M3932.394-7829.272a2.437,2.437,0,0,1,2.433,2.433,2.435,2.435,0,0,1-2.433,2.434,2.436,2.436,0,0,1-2.435-2.434A2.437,2.437,0,0,1,3932.394-7829.272Z" transform="translate(-3871.716 8217.554)" fill="#d1ccc1"/>
    <path id="Контур_4419" data-name="Контур 4419" d="M3932.394-7850.64a2.437,2.437,0,0,1,2.433,2.434,2.437,2.437,0,0,1-2.433,2.434,2.437,2.437,0,0,1-2.435-2.434A2.437,2.437,0,0,1,3932.394-7850.64Z" transform="translate(-3871.716 8200.091)" fill="#d1ccc1"/>
    <path id="Контур_4431" data-name="Контур 4431" d="M3836.244-8042.938a2.438,2.438,0,0,1,2.433,2.435,2.435,2.435,0,0,1-2.433,2.433,2.435,2.435,0,0,1-2.434-2.433A2.438,2.438,0,0,1,3836.244-8042.938Z" transform="translate(-3600.843 8042.939)" fill="#d1ccc1"/>
    <path id="Контур_4435" data-name="Контур 4435" d="M3889.66-7839.956a2.437,2.437,0,0,1,2.433,2.434,2.436,2.436,0,0,1-2.433,2.434,2.437,2.437,0,0,1-2.434-2.434A2.437,2.437,0,0,1,3889.66-7839.956Z" transform="translate(-3751.329 8208.823)" fill="#d1ccc1"/>
    <path id="Контур_4436" data-name="Контур 4436" d="M3900.343-7839.956a2.437,2.437,0,0,1,2.434,2.434,2.437,2.437,0,0,1-2.434,2.434,2.436,2.436,0,0,1-2.433-2.434A2.437,2.437,0,0,1,3900.343-7839.956Z" transform="translate(-3781.425 8208.823)" fill="#d1ccc1"/>
    <path id="Контур_4437" data-name="Контур 4437" d="M3911.026-7839.956a2.437,2.437,0,0,1,2.433,2.434,2.437,2.437,0,0,1-2.433,2.434,2.437,2.437,0,0,1-2.434-2.434A2.437,2.437,0,0,1,3911.026-7839.956Z" transform="translate(-3811.522 8208.823)" fill="#d1ccc1"/>
    <path id="Контур_4438" data-name="Контур 4438" d="M3921.711-7839.956a2.437,2.437,0,0,1,2.434,2.434,2.437,2.437,0,0,1-2.434,2.434,2.437,2.437,0,0,1-2.436-2.434A2.438,2.438,0,0,1,3921.711-7839.956Z" transform="translate(-3841.62 8208.823)" fill="#d1ccc1"/>
    <path id="Контур_4439" data-name="Контур 4439" d="M3953.759-7839.956a2.437,2.437,0,0,1,2.434,2.434,2.437,2.437,0,0,1-2.434,2.434,2.437,2.437,0,0,1-2.433-2.434A2.437,2.437,0,0,1,3953.759-7839.956Z" transform="translate(-3931.91 8208.823)" fill="#d1ccc1"/>
    <path id="Контур_4440" data-name="Контур 4440" d="M3964.444-7839.956a2.437,2.437,0,0,1,2.433,2.434,2.437,2.437,0,0,1-2.433,2.434,2.438,2.438,0,0,1-2.436-2.434A2.439,2.439,0,0,1,3964.444-7839.956Z" transform="translate(-3962.009 8208.823)" fill="#d1ccc1"/>
    <path id="Контур_4452" data-name="Контур 4452" d="M3868.295-8042.938a2.438,2.438,0,0,1,2.433,2.435,2.434,2.434,0,0,1-2.433,2.433,2.435,2.435,0,0,1-2.435-2.433A2.439,2.439,0,0,1,3868.295-8042.938Z" transform="translate(-3691.135 8042.939)" fill="#d1ccc1"/>
    <path id="Контур_4459" data-name="Контур 4459" d="M3889.66-7775.857a2.437,2.437,0,0,1,2.433,2.434,2.435,2.435,0,0,1-2.433,2.433,2.435,2.435,0,0,1-2.434-2.433A2.437,2.437,0,0,1,3889.66-7775.857Z" transform="translate(-3751.329 8261.207)" fill="#d1ccc1"/>
    <path id="Контур_4460" data-name="Контур 4460" d="M3900.343-7775.857a2.437,2.437,0,0,1,2.434,2.434,2.435,2.435,0,0,1-2.434,2.433,2.435,2.435,0,0,1-2.433-2.433A2.437,2.437,0,0,1,3900.343-7775.857Z" transform="translate(-3781.425 8261.207)" fill="#d1ccc1"/>
    <path id="Контур_4461" data-name="Контур 4461" d="M3911.026-7775.857a2.437,2.437,0,0,1,2.433,2.434,2.435,2.435,0,0,1-2.433,2.433,2.435,2.435,0,0,1-2.434-2.433A2.437,2.437,0,0,1,3911.026-7775.857Z" transform="translate(-3811.522 8261.207)" fill="#d1ccc1"/>
    <path id="Контур_4462" data-name="Контур 4462" d="M3921.711-7775.857a2.437,2.437,0,0,1,2.434,2.434,2.435,2.435,0,0,1-2.434,2.433,2.436,2.436,0,0,1-2.436-2.433A2.438,2.438,0,0,1,3921.711-7775.857Z" transform="translate(-3841.62 8261.207)" fill="#d1ccc1"/>
    <path id="Контур_4463" data-name="Контур 4463" d="M3953.759-7775.857a2.437,2.437,0,0,1,2.434,2.434,2.435,2.435,0,0,1-2.434,2.433,2.435,2.435,0,0,1-2.433-2.433A2.437,2.437,0,0,1,3953.759-7775.857Z" transform="translate(-3931.91 8261.207)" fill="#d1ccc1"/>
    <path id="Контур_4464" data-name="Контур 4464" d="M3964.444-7775.857a2.437,2.437,0,0,1,2.433,2.434,2.435,2.435,0,0,1-2.433,2.433,2.437,2.437,0,0,1-2.436-2.433A2.439,2.439,0,0,1,3964.444-7775.857Z" transform="translate(-3962.009 8261.207)" fill="#d1ccc1"/>
    <path id="Контур_4467" data-name="Контур 4467" d="M3943.078-7775.857a2.435,2.435,0,0,1,2.431,2.434,2.433,2.433,0,0,1-2.431,2.433,2.436,2.436,0,0,1-2.435-2.433A2.438,2.438,0,0,1,3943.078-7775.857Z" transform="translate(-3901.814 8261.207)" fill="#d1ccc1"/>
    <path id="Контур_4468" data-name="Контур 4468" d="M3932.394-7775.857a2.437,2.437,0,0,1,2.433,2.434,2.435,2.435,0,0,1-2.433,2.433,2.435,2.435,0,0,1-2.435-2.433A2.437,2.437,0,0,1,3932.394-7775.857Z" transform="translate(-3871.716 8261.207)" fill="#d1ccc1"/>
    <path id="Контур_4480" data-name="Контур 4480" d="M3772.145-8042.938a2.438,2.438,0,0,1,2.434,2.435,2.435,2.435,0,0,1-2.434,2.433,2.435,2.435,0,0,1-2.435-2.433A2.438,2.438,0,0,1,3772.145-8042.938Z" transform="translate(-3420.26 8042.939)" fill="#d1ccc1"/>
    <path id="Контур_4495" data-name="Контур 4495" d="M3825.56-8042.938A2.44,2.44,0,0,1,3828-8040.5a2.436,2.436,0,0,1-2.436,2.433,2.435,2.435,0,0,1-2.433-2.433A2.438,2.438,0,0,1,3825.56-8042.938Z" transform="translate(-3570.746 8042.939)" fill="#d1ccc1"/>
    <path id="Контур_4500" data-name="Контур 4500" d="M3889.66-7807.906a2.433,2.433,0,0,1,2.433,2.432,2.436,2.436,0,0,1-2.433,2.433,2.437,2.437,0,0,1-2.434-2.433A2.434,2.434,0,0,1,3889.66-7807.906Z" transform="translate(-3751.329 8235.016)" fill="#d1ccc1"/>
    <path id="Контур_4501" data-name="Контур 4501" d="M3900.343-7807.906a2.434,2.434,0,0,1,2.434,2.432,2.437,2.437,0,0,1-2.434,2.433,2.436,2.436,0,0,1-2.433-2.433A2.433,2.433,0,0,1,3900.343-7807.906Z" transform="translate(-3781.425 8235.016)" fill="#d1ccc1"/>
    <path id="Контур_4502" data-name="Контур 4502" d="M3911.026-7807.906a2.434,2.434,0,0,1,2.433,2.432,2.436,2.436,0,0,1-2.433,2.433,2.437,2.437,0,0,1-2.434-2.433A2.434,2.434,0,0,1,3911.026-7807.906Z" transform="translate(-3811.522 8235.016)" fill="#d1ccc1"/>
    <path id="Контур_4503" data-name="Контур 4503" d="M3921.711-7807.906a2.434,2.434,0,0,1,2.434,2.432,2.437,2.437,0,0,1-2.434,2.433,2.437,2.437,0,0,1-2.436-2.433A2.434,2.434,0,0,1,3921.711-7807.906Z" transform="translate(-3841.62 8235.016)" fill="#d1ccc1"/>
    <path id="Контур_4504" data-name="Контур 4504" d="M3953.759-7807.906a2.434,2.434,0,0,1,2.434,2.432,2.437,2.437,0,0,1-2.434,2.433,2.436,2.436,0,0,1-2.433-2.433A2.434,2.434,0,0,1,3953.759-7807.906Z" transform="translate(-3931.91 8235.016)" fill="#d1ccc1"/>
    <path id="Контур_4505" data-name="Контур 4505" d="M3964.444-7807.906a2.434,2.434,0,0,1,2.433,2.432,2.436,2.436,0,0,1-2.433,2.433,2.438,2.438,0,0,1-2.436-2.433A2.436,2.436,0,0,1,3964.444-7807.906Z" transform="translate(-3962.009 8235.016)" fill="#d1ccc1"/>
    <path id="Контур_4508" data-name="Контур 4508" d="M3943.078-7807.906a2.432,2.432,0,0,1,2.431,2.432,2.434,2.434,0,0,1-2.431,2.433,2.437,2.437,0,0,1-2.435-2.433A2.434,2.434,0,0,1,3943.078-7807.906Z" transform="translate(-3901.814 8235.016)" fill="#d1ccc1"/>
    <path id="Контур_4509" data-name="Контур 4509" d="M3932.394-7807.906a2.434,2.434,0,0,1,2.433,2.432,2.436,2.436,0,0,1-2.433,2.433,2.437,2.437,0,0,1-2.435-2.433A2.434,2.434,0,0,1,3932.394-7807.906Z" transform="translate(-3871.716 8235.016)" fill="#d1ccc1"/>
    <path id="Контур_4514" data-name="Контур 4514" d="M3943.078-7839.956a2.435,2.435,0,0,1,2.431,2.434,2.435,2.435,0,0,1-2.431,2.434,2.437,2.437,0,0,1-2.435-2.434A2.438,2.438,0,0,1,3943.078-7839.956Z" transform="translate(-3901.814 8208.823)" fill="#d1ccc1"/>
    <path id="Контур_4515" data-name="Контур 4515" d="M3932.394-7839.956a2.437,2.437,0,0,1,2.433,2.434,2.437,2.437,0,0,1-2.433,2.434,2.437,2.437,0,0,1-2.435-2.434A2.437,2.437,0,0,1,3932.394-7839.956Z" transform="translate(-3871.716 8208.823)" fill="#d1ccc1"/>
    <path id="Контур_4516" data-name="Контур 4516" d="M3932.394-7861.321a2.434,2.434,0,0,1,2.433,2.432,2.436,2.436,0,0,1-2.433,2.433,2.437,2.437,0,0,1-2.435-2.433A2.434,2.434,0,0,1,3932.394-7861.321Z" transform="translate(-3871.716 8191.362)" fill="#d1ccc1"/>
    <path id="Контур_4517" data-name="Контур 4517" d="M3932.394-7872a2.436,2.436,0,0,1,2.433,2.433,2.436,2.436,0,0,1-2.433,2.433,2.437,2.437,0,0,1-2.435-2.433A2.437,2.437,0,0,1,3932.394-7872Z" transform="translate(-3871.716 8182.63)" fill="#d1ccc1"/>
    <path id="Контур_4518" data-name="Контур 4518" d="M3932.394-7882.688a2.436,2.436,0,0,1,2.433,2.433,2.434,2.434,0,0,1-2.433,2.432,2.434,2.434,0,0,1-2.435-2.432A2.437,2.437,0,0,1,3932.394-7882.688Z" transform="translate(-3871.716 8173.9)" fill="#d1ccc1"/>
    <path id="Контур_4519" data-name="Контур 4519" d="M3932.394-7893.372a2.437,2.437,0,0,1,2.433,2.434,2.437,2.437,0,0,1-2.433,2.434,2.437,2.437,0,0,1-2.435-2.434A2.437,2.437,0,0,1,3932.394-7893.372Z" transform="translate(-3871.716 8165.17)" fill="#d1ccc1"/>
    <path id="Контур_4522" data-name="Контур 4522" d="M3889.66-7904.056a2.436,2.436,0,0,1,2.433,2.434,2.438,2.438,0,0,1-2.433,2.435,2.438,2.438,0,0,1-2.434-2.435A2.437,2.437,0,0,1,3889.66-7904.056Z" transform="translate(-3751.329 8156.438)" fill="#d1ccc1"/>
    <path id="Контур_4523" data-name="Контур 4523" d="M3900.343-7904.056a2.437,2.437,0,0,1,2.434,2.434,2.438,2.438,0,0,1-2.434,2.435,2.438,2.438,0,0,1-2.433-2.435A2.436,2.436,0,0,1,3900.343-7904.056Z" transform="translate(-3781.425 8156.438)" fill="#d1ccc1"/>
    <path id="Контур_4524" data-name="Контур 4524" d="M3911.026-7904.056a2.437,2.437,0,0,1,2.433,2.434,2.438,2.438,0,0,1-2.433,2.435,2.438,2.438,0,0,1-2.434-2.435A2.437,2.437,0,0,1,3911.026-7904.056Z" transform="translate(-3811.522 8156.438)" fill="#d1ccc1"/>
    <path id="Контур_4525" data-name="Контур 4525" d="M3921.711-7904.056a2.437,2.437,0,0,1,2.434,2.434,2.438,2.438,0,0,1-2.434,2.435,2.439,2.439,0,0,1-2.436-2.435A2.437,2.437,0,0,1,3921.711-7904.056Z" transform="translate(-3841.62 8156.438)" fill="#d1ccc1"/>
    <path id="Контур_4526" data-name="Контур 4526" d="M3953.759-7904.056a2.437,2.437,0,0,1,2.434,2.434,2.438,2.438,0,0,1-2.434,2.435,2.438,2.438,0,0,1-2.433-2.435A2.437,2.437,0,0,1,3953.759-7904.056Z" transform="translate(-3931.91 8156.438)" fill="#d1ccc1"/>
    <path id="Контур_4527" data-name="Контур 4527" d="M3964.444-7904.056a2.437,2.437,0,0,1,2.433,2.434,2.438,2.438,0,0,1-2.433,2.435,2.44,2.44,0,0,1-2.436-2.435A2.438,2.438,0,0,1,3964.444-7904.056Z" transform="translate(-3962.009 8156.438)" fill="#d1ccc1"/>
    <path id="Контур_4530" data-name="Контур 4530" d="M3943.078-7904.056a2.435,2.435,0,0,1,2.431,2.434,2.436,2.436,0,0,1-2.431,2.435,2.439,2.439,0,0,1-2.435-2.435A2.437,2.437,0,0,1,3943.078-7904.056Z" transform="translate(-3901.814 8156.438)" fill="#d1ccc1"/>
    <path id="Контур_4535" data-name="Контур 4535" d="M3932.394-7904.056a2.437,2.437,0,0,1,2.433,2.434,2.438,2.438,0,0,1-2.433,2.435,2.438,2.438,0,0,1-2.435-2.435A2.437,2.437,0,0,1,3932.394-7904.056Z" transform="translate(-3871.716 8156.438)" fill="#d1ccc1"/>
    <path id="Контур_4536" data-name="Контур 4536" d="M3932.394-8042.938a2.438,2.438,0,0,1,2.433,2.435,2.435,2.435,0,0,1-2.433,2.433,2.435,2.435,0,0,1-2.435-2.433A2.438,2.438,0,0,1,3932.394-8042.938Z" transform="translate(-3871.716 8042.939)" fill="#d1ccc1"/>
    <path id="Контур_4537" data-name="Контур 4537" d="M3964.444-8038.071a2.436,2.436,0,0,1-2.436-2.433,2.44,2.44,0,0,1,2.436-2.435,2.438,2.438,0,0,1,2.433,2.435A2.435,2.435,0,0,1,3964.444-8038.071Z" transform="translate(-3962.009 8042.939)" fill="#d1ccc1"/>
    <path id="Контур_4542" data-name="Контур 4542" d="M3889.66-7946.79a2.437,2.437,0,0,1,2.433,2.436,2.437,2.437,0,0,1-2.433,2.434,2.437,2.437,0,0,1-2.434-2.434A2.438,2.438,0,0,1,3889.66-7946.79Z" transform="translate(-3751.329 8121.516)" fill="#d1ccc1"/>
    <path id="Контур_4543" data-name="Контур 4543" d="M3900.343-7946.79a2.438,2.438,0,0,1,2.434,2.436,2.437,2.437,0,0,1-2.434,2.434,2.437,2.437,0,0,1-2.433-2.434A2.437,2.437,0,0,1,3900.343-7946.79Z" transform="translate(-3781.425 8121.516)" fill="#d1ccc1"/>
    <path id="Контур_4544" data-name="Контур 4544" d="M3911.026-7946.79a2.438,2.438,0,0,1,2.433,2.436,2.437,2.437,0,0,1-2.433,2.434,2.437,2.437,0,0,1-2.434-2.434A2.438,2.438,0,0,1,3911.026-7946.79Z" transform="translate(-3811.522 8121.516)" fill="#d1ccc1"/>
    <path id="Контур_4545" data-name="Контур 4545" d="M3921.711-7946.79a2.438,2.438,0,0,1,2.434,2.436,2.437,2.437,0,0,1-2.434,2.434,2.438,2.438,0,0,1-2.436-2.434A2.438,2.438,0,0,1,3921.711-7946.79Z" transform="translate(-3841.62 8121.516)" fill="#d1ccc1"/>
    <path id="Контур_4546" data-name="Контур 4546" d="M3953.759-7946.79a2.438,2.438,0,0,1,2.434,2.436,2.437,2.437,0,0,1-2.434,2.434,2.437,2.437,0,0,1-2.433-2.434A2.438,2.438,0,0,1,3953.759-7946.79Z" transform="translate(-3931.91 8121.516)" fill="#d1ccc1"/>
    <path id="Контур_4547" data-name="Контур 4547" d="M3943.078-7946.79a2.436,2.436,0,0,1,2.431,2.436,2.435,2.435,0,0,1-2.431,2.434,2.438,2.438,0,0,1-2.435-2.434A2.438,2.438,0,0,1,3943.078-7946.79Z" transform="translate(-3901.814 8121.516)" fill="#d1ccc1"/>
    <path id="Контур_4563" data-name="Контур 4563" d="M3814.879-8042.938a2.438,2.438,0,0,1,2.433,2.435,2.434,2.434,0,0,1-2.433,2.433,2.436,2.436,0,0,1-2.435-2.433A2.44,2.44,0,0,1,3814.879-8042.938Z" transform="translate(-3540.649 8042.939)" fill="#d1ccc1"/>
    <path id="Контур_4569" data-name="Контур 4569" d="M3932.394-7946.79a2.438,2.438,0,0,1,2.433,2.436,2.437,2.437,0,0,1-2.433,2.434,2.437,2.437,0,0,1-2.435-2.434A2.438,2.438,0,0,1,3932.394-7946.79Z" transform="translate(-3871.716 8121.516)" fill="#d1ccc1"/>
    <path id="Контур_4570" data-name="Контур 4570" d="M3964.444-7946.79a2.438,2.438,0,0,1,2.433,2.436,2.437,2.437,0,0,1-2.433,2.434,2.439,2.439,0,0,1-2.436-2.434A2.439,2.439,0,0,1,3964.444-7946.79Z" transform="translate(-3962.009 8121.516)" fill="#d1ccc1"/>
    <path id="Контур_4575" data-name="Контур 4575" d="M3889.66-7914.737a2.435,2.435,0,0,1,2.433,2.433,2.435,2.435,0,0,1-2.433,2.432,2.436,2.436,0,0,1-2.434-2.432A2.435,2.435,0,0,1,3889.66-7914.737Z" transform="translate(-3751.329 8147.708)" fill="#d1ccc1"/>
    <path id="Контур_4576" data-name="Контур 4576" d="M3900.343-7914.737a2.435,2.435,0,0,1,2.434,2.433,2.436,2.436,0,0,1-2.434,2.432,2.435,2.435,0,0,1-2.433-2.432A2.435,2.435,0,0,1,3900.343-7914.737Z" transform="translate(-3781.425 8147.708)" fill="#d1ccc1"/>
    <path id="Контур_4577" data-name="Контур 4577" d="M3911.026-7914.737a2.435,2.435,0,0,1,2.433,2.433,2.436,2.436,0,0,1-2.433,2.432,2.436,2.436,0,0,1-2.434-2.432A2.435,2.435,0,0,1,3911.026-7914.737Z" transform="translate(-3811.522 8147.708)" fill="#d1ccc1"/>
    <path id="Контур_4578" data-name="Контур 4578" d="M3921.711-7914.737a2.435,2.435,0,0,1,2.434,2.433,2.436,2.436,0,0,1-2.434,2.432,2.436,2.436,0,0,1-2.436-2.432A2.436,2.436,0,0,1,3921.711-7914.737Z" transform="translate(-3841.62 8147.708)" fill="#d1ccc1"/>
    <path id="Контур_4579" data-name="Контур 4579" d="M3953.759-7914.737a2.435,2.435,0,0,1,2.434,2.433,2.436,2.436,0,0,1-2.434,2.432,2.436,2.436,0,0,1-2.433-2.432A2.435,2.435,0,0,1,3953.759-7914.737Z" transform="translate(-3931.91 8147.708)" fill="#d1ccc1"/>
    <path id="Контур_4580" data-name="Контур 4580" d="M3943.078-7914.737a2.433,2.433,0,0,1,2.431,2.433,2.434,2.434,0,0,1-2.431,2.432,2.436,2.436,0,0,1-2.435-2.432A2.436,2.436,0,0,1,3943.078-7914.737Z" transform="translate(-3901.814 8147.708)" fill="#d1ccc1"/>
    <path id="Контур_4597" data-name="Контур 4597" d="M3804.194-8042.938a2.438,2.438,0,0,1,2.433,2.435,2.435,2.435,0,0,1-2.433,2.433,2.435,2.435,0,0,1-2.433-2.433A2.438,2.438,0,0,1,3804.194-8042.938Z" transform="translate(-3510.551 8042.939)" fill="#d1ccc1"/>
    <path id="Контур_4607" data-name="Контур 4607" d="M3889.66-7925.422a2.437,2.437,0,0,1,2.433,2.434,2.436,2.436,0,0,1-2.433,2.433,2.437,2.437,0,0,1-2.434-2.433A2.437,2.437,0,0,1,3889.66-7925.422Z" transform="translate(-3751.329 8138.978)" fill="#d1ccc1"/>
    <path id="Контур_4608" data-name="Контур 4608" d="M3900.343-7925.422a2.437,2.437,0,0,1,2.434,2.434,2.437,2.437,0,0,1-2.434,2.433,2.436,2.436,0,0,1-2.433-2.433A2.437,2.437,0,0,1,3900.343-7925.422Z" transform="translate(-3781.425 8138.978)" fill="#d1ccc1"/>
    <path id="Контур_4609" data-name="Контур 4609" d="M3911.026-7925.422a2.437,2.437,0,0,1,2.433,2.434,2.436,2.436,0,0,1-2.433,2.433,2.437,2.437,0,0,1-2.434-2.433A2.437,2.437,0,0,1,3911.026-7925.422Z" transform="translate(-3811.522 8138.978)" fill="#d1ccc1"/>
    <path id="Контур_4610" data-name="Контур 4610" d="M3921.711-7925.422a2.437,2.437,0,0,1,2.434,2.434,2.437,2.437,0,0,1-2.434,2.433,2.437,2.437,0,0,1-2.436-2.433A2.438,2.438,0,0,1,3921.711-7925.422Z" transform="translate(-3841.62 8138.978)" fill="#d1ccc1"/>
    <path id="Контур_4611" data-name="Контур 4611" d="M3953.759-7925.422a2.437,2.437,0,0,1,2.434,2.434,2.437,2.437,0,0,1-2.434,2.433,2.436,2.436,0,0,1-2.433-2.433A2.437,2.437,0,0,1,3953.759-7925.422Z" transform="translate(-3931.91 8138.978)" fill="#d1ccc1"/>
    <path id="Контур_4612" data-name="Контур 4612" d="M3943.078-7925.422a2.435,2.435,0,0,1,2.431,2.434,2.434,2.434,0,0,1-2.431,2.433,2.437,2.437,0,0,1-2.435-2.433A2.438,2.438,0,0,1,3943.078-7925.422Z" transform="translate(-3901.814 8138.978)" fill="#d1ccc1"/>
    <path id="Контур_4627" data-name="Контур 4627" d="M3793.511-8042.938a2.438,2.438,0,0,1,2.434,2.435,2.435,2.435,0,0,1-2.434,2.433,2.435,2.435,0,0,1-2.434-2.433A2.438,2.438,0,0,1,3793.511-8042.938Z" transform="translate(-3480.455 8042.939)" fill="#d1ccc1"/>
    <path id="Контур_4637" data-name="Контур 4637" d="M3889.66-7936.1a2.437,2.437,0,0,1,2.433,2.433,2.433,2.433,0,0,1-2.433,2.432,2.434,2.434,0,0,1-2.434-2.432A2.437,2.437,0,0,1,3889.66-7936.1Z" transform="translate(-3751.329 8130.247)" fill="#d1ccc1"/>
    <path id="Контур_4638" data-name="Контур 4638" d="M3900.343-7936.1a2.437,2.437,0,0,1,2.434,2.433,2.434,2.434,0,0,1-2.434,2.432,2.433,2.433,0,0,1-2.433-2.432A2.436,2.436,0,0,1,3900.343-7936.1Z" transform="translate(-3781.425 8130.247)" fill="#d1ccc1"/>
    <path id="Контур_4639" data-name="Контур 4639" d="M3911.026-7936.1a2.437,2.437,0,0,1,2.433,2.433,2.434,2.434,0,0,1-2.433,2.432,2.434,2.434,0,0,1-2.434-2.432A2.437,2.437,0,0,1,3911.026-7936.1Z" transform="translate(-3811.522 8130.247)" fill="#d1ccc1"/>
    <path id="Контур_4640" data-name="Контур 4640" d="M3921.711-7936.1a2.437,2.437,0,0,1,2.434,2.433,2.434,2.434,0,0,1-2.434,2.432,2.434,2.434,0,0,1-2.436-2.432A2.437,2.437,0,0,1,3921.711-7936.1Z" transform="translate(-3841.62 8130.247)" fill="#d1ccc1"/>
    <path id="Контур_4641" data-name="Контур 4641" d="M3953.759-7936.1a2.437,2.437,0,0,1,2.434,2.433,2.434,2.434,0,0,1-2.434,2.432,2.434,2.434,0,0,1-2.433-2.432A2.437,2.437,0,0,1,3953.759-7936.1Z" transform="translate(-3931.91 8130.247)" fill="#d1ccc1"/>
    <path id="Контур_4642" data-name="Контур 4642" d="M3943.078-7936.1a2.435,2.435,0,0,1,2.431,2.433,2.432,2.432,0,0,1-2.431,2.432,2.434,2.434,0,0,1-2.435-2.432A2.437,2.437,0,0,1,3943.078-7936.1Z" transform="translate(-3901.814 8130.247)" fill="#d1ccc1"/>
    <path id="Контур_4657" data-name="Контур 4657" d="M3782.828-8042.938a2.438,2.438,0,0,1,2.433,2.435,2.435,2.435,0,0,1-2.433,2.433,2.435,2.435,0,0,1-2.434-2.433A2.438,2.438,0,0,1,3782.828-8042.938Z" transform="translate(-3450.358 8042.939)" fill="#d1ccc1"/>
    <path id="Контур_4667" data-name="Контур 4667" d="M3889.66-7957.472a2.436,2.436,0,0,1,2.433,2.434,2.438,2.438,0,0,1-2.433,2.435,2.438,2.438,0,0,1-2.434-2.435A2.437,2.437,0,0,1,3889.66-7957.472Z" transform="translate(-3751.329 8112.785)" fill="#d1ccc1"/>
    <path id="Контур_4668" data-name="Контур 4668" d="M3900.343-7957.472a2.437,2.437,0,0,1,2.434,2.434,2.438,2.438,0,0,1-2.434,2.435,2.438,2.438,0,0,1-2.433-2.435A2.436,2.436,0,0,1,3900.343-7957.472Z" transform="translate(-3781.425 8112.785)" fill="#d1ccc1"/>
    <path id="Контур_4669" data-name="Контур 4669" d="M3911.026-7957.472a2.437,2.437,0,0,1,2.433,2.434,2.438,2.438,0,0,1-2.433,2.435,2.438,2.438,0,0,1-2.434-2.435A2.437,2.437,0,0,1,3911.026-7957.472Z" transform="translate(-3811.522 8112.785)" fill="#d1ccc1"/>
    <path id="Контур_4670" data-name="Контур 4670" d="M3921.711-7957.472a2.437,2.437,0,0,1,2.434,2.434,2.438,2.438,0,0,1-2.434,2.435,2.439,2.439,0,0,1-2.436-2.435A2.437,2.437,0,0,1,3921.711-7957.472Z" transform="translate(-3841.62 8112.785)" fill="#d1ccc1"/>
    <path id="Контур_4671" data-name="Контур 4671" d="M3953.759-7957.472a2.437,2.437,0,0,1,2.434,2.434,2.438,2.438,0,0,1-2.434,2.435,2.438,2.438,0,0,1-2.433-2.435A2.437,2.437,0,0,1,3953.759-7957.472Z" transform="translate(-3931.91 8112.785)" fill="#d1ccc1"/>
    <path id="Контур_4672" data-name="Контур 4672" d="M3943.078-7957.472a2.435,2.435,0,0,1,2.431,2.434,2.436,2.436,0,0,1-2.431,2.435,2.439,2.439,0,0,1-2.435-2.435A2.437,2.437,0,0,1,3943.078-7957.472Z" transform="translate(-3901.814 8112.785)" fill="#d1ccc1"/>
    <path id="Контур_4687" data-name="Контур 4687" d="M3761.463-8042.938a2.438,2.438,0,0,1,2.433,2.435,2.434,2.434,0,0,1-2.433,2.433,2.436,2.436,0,0,1-2.435-2.433A2.44,2.44,0,0,1,3761.463-8042.938Z" transform="translate(-3390.164 8042.939)" fill="#d1ccc1"/>
    <path id="Контур_4699" data-name="Контур 4699" d="M3932.394-7957.472a2.437,2.437,0,0,1,2.433,2.434,2.438,2.438,0,0,1-2.433,2.435,2.438,2.438,0,0,1-2.435-2.435A2.437,2.437,0,0,1,3932.394-7957.472Z" transform="translate(-3871.716 8112.785)" fill="#d1ccc1"/>
    <path id="Контур_4700" data-name="Контур 4700" d="M3964.444-7957.472a2.437,2.437,0,0,1,2.433,2.434,2.438,2.438,0,0,1-2.433,2.435,2.44,2.44,0,0,1-2.436-2.435A2.438,2.438,0,0,1,3964.444-7957.472Z" transform="translate(-3962.009 8112.785)" fill="#d1ccc1"/>
    <path id="Контур_4708" data-name="Контур 4708" d="M3889.66-7968.154a2.433,2.433,0,0,1,2.433,2.431,2.437,2.437,0,0,1-2.433,2.434,2.437,2.437,0,0,1-2.434-2.434A2.434,2.434,0,0,1,3889.66-7968.154Z" transform="translate(-3751.329 8104.055)" fill="#d1ccc1"/>
    <path id="Контур_4709" data-name="Контур 4709" d="M3900.343-7968.154a2.434,2.434,0,0,1,2.434,2.431,2.437,2.437,0,0,1-2.434,2.434,2.437,2.437,0,0,1-2.433-2.434A2.433,2.433,0,0,1,3900.343-7968.154Z" transform="translate(-3781.425 8104.055)" fill="#d1ccc1"/>
    <path id="Контур_4710" data-name="Контур 4710" d="M3911.026-7968.154a2.434,2.434,0,0,1,2.433,2.431,2.437,2.437,0,0,1-2.433,2.434,2.437,2.437,0,0,1-2.434-2.434A2.434,2.434,0,0,1,3911.026-7968.154Z" transform="translate(-3811.522 8104.055)" fill="#d1ccc1"/>
    <path id="Контур_4711" data-name="Контур 4711" d="M3921.711-7968.154a2.434,2.434,0,0,1,2.434,2.431,2.437,2.437,0,0,1-2.434,2.434,2.438,2.438,0,0,1-2.436-2.434A2.434,2.434,0,0,1,3921.711-7968.154Z" transform="translate(-3841.62 8104.055)" fill="#d1ccc1"/>
    <path id="Контур_4712" data-name="Контур 4712" d="M3953.759-7968.154a2.434,2.434,0,0,1,2.434,2.431,2.437,2.437,0,0,1-2.434,2.434,2.437,2.437,0,0,1-2.433-2.434A2.434,2.434,0,0,1,3953.759-7968.154Z" transform="translate(-3931.91 8104.055)" fill="#d1ccc1"/>
    <path id="Контур_4713" data-name="Контур 4713" d="M3943.078-7968.154a2.432,2.432,0,0,1,2.431,2.431,2.435,2.435,0,0,1-2.431,2.434,2.438,2.438,0,0,1-2.435-2.434A2.434,2.434,0,0,1,3943.078-7968.154Z" transform="translate(-3901.814 8104.055)" fill="#d1ccc1"/>
    <path id="Контур_4729" data-name="Контур 4729" d="M3750.778-8042.938a2.438,2.438,0,0,1,2.434,2.435,2.435,2.435,0,0,1-2.434,2.433,2.434,2.434,0,0,1-2.433-2.433A2.438,2.438,0,0,1,3750.778-8042.938Z" transform="translate(-3360.065 8042.939)" fill="#d1ccc1"/>
    <path id="Контур_4742" data-name="Контур 4742" d="M3932.394-7968.154a2.434,2.434,0,0,1,2.433,2.431,2.437,2.437,0,0,1-2.433,2.434,2.437,2.437,0,0,1-2.435-2.434A2.434,2.434,0,0,1,3932.394-7968.154Z" transform="translate(-3871.716 8104.055)" fill="#d1ccc1"/>
    <path id="Контур_4743" data-name="Контур 4743" d="M3964.444-7968.154a2.434,2.434,0,0,1,2.433,2.431,2.437,2.437,0,0,1-2.433,2.434,2.439,2.439,0,0,1-2.436-2.434A2.435,2.435,0,0,1,3964.444-7968.154Z" transform="translate(-3962.009 8104.055)" fill="#d1ccc1"/>
    <path id="Контур_4747" data-name="Контур 4747" d="M3676-7978.838a2.437,2.437,0,0,1,2.433,2.434,2.436,2.436,0,0,1-2.433,2.433,2.436,2.436,0,0,1-2.433-2.433A2.437,2.437,0,0,1,3676-7978.838Z" transform="translate(-3149.387 8095.324)" fill="#d1ccc1"/>
    <path id="Контур_4758" data-name="Контур 4758" d="M3740.1-8042.938a2.438,2.438,0,0,1,2.433,2.435,2.434,2.434,0,0,1-2.433,2.433,2.435,2.435,0,0,1-2.434-2.433A2.438,2.438,0,0,1,3740.1-8042.938Z" transform="translate(-3329.969 8042.939)" fill="#d1ccc1"/>
    <path id="Контур_4770" data-name="Контур 4770" d="M3740.1-7978.838a2.437,2.437,0,0,1,2.433,2.434,2.436,2.436,0,0,1-2.433,2.433,2.437,2.437,0,0,1-2.434-2.433A2.437,2.437,0,0,1,3740.1-7978.838Z" transform="translate(-3329.969 8095.324)" fill="#d1ccc1"/>
    <path id="Контур_4771" data-name="Контур 4771" d="M3846.927-7978.838a2.437,2.437,0,0,1,2.433,2.434,2.436,2.436,0,0,1-2.433,2.433,2.437,2.437,0,0,1-2.434-2.433A2.437,2.437,0,0,1,3846.927-7978.838Z" transform="translate(-3630.94 8095.324)" fill="#d1ccc1"/>
    <path id="Контур_4772" data-name="Контур 4772" d="M3878.976-7978.838a2.439,2.439,0,0,1,2.436,2.434,2.438,2.438,0,0,1-2.436,2.433,2.436,2.436,0,0,1-2.433-2.433A2.437,2.437,0,0,1,3878.976-7978.838Z" transform="translate(-3721.231 8095.324)" fill="#d1ccc1"/>
    <path id="Контур_4773" data-name="Контур 4773" d="M3857.61-7978.838a2.437,2.437,0,0,1,2.434,2.434,2.437,2.437,0,0,1-2.434,2.433,2.436,2.436,0,0,1-2.433-2.433A2.437,2.437,0,0,1,3857.61-7978.838Z" transform="translate(-3661.036 8095.324)" fill="#d1ccc1"/>
    <path id="Контур_4774" data-name="Контур 4774" d="M3889.66-7978.838a2.437,2.437,0,0,1,2.433,2.434,2.436,2.436,0,0,1-2.433,2.433,2.437,2.437,0,0,1-2.434-2.433A2.437,2.437,0,0,1,3889.66-7978.838Z" transform="translate(-3751.329 8095.324)" fill="#d1ccc1"/>
    <path id="Контур_4775" data-name="Контур 4775" d="M3900.343-7978.838a2.437,2.437,0,0,1,2.434,2.434,2.437,2.437,0,0,1-2.434,2.433,2.436,2.436,0,0,1-2.433-2.433A2.437,2.437,0,0,1,3900.343-7978.838Z" transform="translate(-3781.425 8095.324)" fill="#d1ccc1"/>
    <path id="Контур_4776" data-name="Контур 4776" d="M3911.026-7978.838a2.437,2.437,0,0,1,2.433,2.434,2.436,2.436,0,0,1-2.433,2.433,2.437,2.437,0,0,1-2.434-2.433A2.437,2.437,0,0,1,3911.026-7978.838Z" transform="translate(-3811.522 8095.324)" fill="#d1ccc1"/>
    <path id="Контур_4777" data-name="Контур 4777" d="M3921.711-7978.838a2.437,2.437,0,0,1,2.434,2.434,2.437,2.437,0,0,1-2.434,2.433,2.437,2.437,0,0,1-2.436-2.433A2.438,2.438,0,0,1,3921.711-7978.838Z" transform="translate(-3841.62 8095.324)" fill="#d1ccc1"/>
    <path id="Контур_4778" data-name="Контур 4778" d="M3953.759-7978.838a2.437,2.437,0,0,1,2.434,2.434,2.437,2.437,0,0,1-2.434,2.433,2.436,2.436,0,0,1-2.433-2.433A2.437,2.437,0,0,1,3953.759-7978.838Z" transform="translate(-3931.91 8095.324)" fill="#d1ccc1"/>
    <path id="Контур_4779" data-name="Контур 4779" d="M3943.078-7978.838a2.435,2.435,0,0,1,2.431,2.434,2.434,2.434,0,0,1-2.431,2.433,2.437,2.437,0,0,1-2.435-2.433A2.438,2.438,0,0,1,3943.078-7978.838Z" transform="translate(-3901.814 8095.324)" fill="#d1ccc1"/>
    <path id="Контур_4780" data-name="Контур 4780" d="M3836.244-7978.838a2.437,2.437,0,0,1,2.433,2.434,2.436,2.436,0,0,1-2.433,2.433,2.437,2.437,0,0,1-2.434-2.433A2.437,2.437,0,0,1,3836.244-7978.838Z" transform="translate(-3600.843 8095.324)" fill="#d1ccc1"/>
    <path id="Контур_4781" data-name="Контур 4781" d="M3868.295-7978.838a2.437,2.437,0,0,1,2.433,2.434,2.436,2.436,0,0,1-2.433,2.433,2.437,2.437,0,0,1-2.435-2.433A2.438,2.438,0,0,1,3868.295-7978.838Z" transform="translate(-3691.135 8095.324)" fill="#d1ccc1"/>
    <path id="Контур_4782" data-name="Контур 4782" d="M3772.145-7978.838a2.437,2.437,0,0,1,2.434,2.434,2.437,2.437,0,0,1-2.434,2.433,2.436,2.436,0,0,1-2.435-2.433A2.437,2.437,0,0,1,3772.145-7978.838Z" transform="translate(-3420.26 8095.324)" fill="#d1ccc1"/>
    <path id="Контур_4783" data-name="Контур 4783" d="M3761.463-7978.838a2.437,2.437,0,0,1,2.433,2.434,2.436,2.436,0,0,1-2.433,2.433,2.438,2.438,0,0,1-2.435-2.433A2.439,2.439,0,0,1,3761.463-7978.838Z" transform="translate(-3390.164 8095.324)" fill="#d1ccc1"/>
    <path id="Контур_4784" data-name="Контур 4784" d="M3750.778-7978.838a2.437,2.437,0,0,1,2.434,2.434,2.437,2.437,0,0,1-2.434,2.433,2.436,2.436,0,0,1-2.433-2.433A2.437,2.437,0,0,1,3750.778-7978.838Z" transform="translate(-3360.065 8095.324)" fill="#d1ccc1"/>
    <path id="Контур_4785" data-name="Контур 4785" d="M3825.56-7978.838A2.439,2.439,0,0,1,3828-7976.4a2.438,2.438,0,0,1-2.436,2.433,2.436,2.436,0,0,1-2.433-2.433A2.437,2.437,0,0,1,3825.56-7978.838Z" transform="translate(-3570.746 8095.324)" fill="#d1ccc1"/>
    <path id="Контур_4786" data-name="Контур 4786" d="M3814.879-7978.838a2.437,2.437,0,0,1,2.433,2.434,2.436,2.436,0,0,1-2.433,2.433,2.438,2.438,0,0,1-2.435-2.433A2.439,2.439,0,0,1,3814.879-7978.838Z" transform="translate(-3540.649 8095.324)" fill="#d1ccc1"/>
    <path id="Контур_4787" data-name="Контур 4787" d="M3932.394-7978.838a2.437,2.437,0,0,1,2.433,2.434,2.436,2.436,0,0,1-2.433,2.433,2.437,2.437,0,0,1-2.435-2.433A2.437,2.437,0,0,1,3932.394-7978.838Z" transform="translate(-3871.716 8095.324)" fill="#d1ccc1"/>
    <path id="Контур_4788" data-name="Контур 4788" d="M3964.444-7978.838a2.437,2.437,0,0,1,2.433,2.434,2.436,2.436,0,0,1-2.433,2.433,2.438,2.438,0,0,1-2.436-2.433A2.439,2.439,0,0,1,3964.444-7978.838Z" transform="translate(-3962.009 8095.324)" fill="#d1ccc1"/>
    <path id="Контур_4789" data-name="Контур 4789" d="M3804.194-7978.838a2.437,2.437,0,0,1,2.433,2.434,2.436,2.436,0,0,1-2.433,2.433,2.436,2.436,0,0,1-2.433-2.433A2.437,2.437,0,0,1,3804.194-7978.838Z" transform="translate(-3510.551 8095.324)" fill="#d1ccc1"/>
    <path id="Контур_4790" data-name="Контур 4790" d="M3793.511-7978.838a2.437,2.437,0,0,1,2.434,2.434,2.437,2.437,0,0,1-2.434,2.433,2.437,2.437,0,0,1-2.434-2.433A2.437,2.437,0,0,1,3793.511-7978.838Z" transform="translate(-3480.455 8095.324)" fill="#d1ccc1"/>
    <path id="Контур_4791" data-name="Контур 4791" d="M3782.828-7978.838a2.437,2.437,0,0,1,2.433,2.434,2.436,2.436,0,0,1-2.433,2.433,2.437,2.437,0,0,1-2.434-2.433A2.437,2.437,0,0,1,3782.828-7978.838Z" transform="translate(-3450.358 8095.324)" fill="#d1ccc1"/>
    <path id="Контур_4792" data-name="Контур 4792" d="M3676-7989.521a2.436,2.436,0,0,1,2.433,2.433,2.434,2.434,0,0,1-2.433,2.432,2.434,2.434,0,0,1-2.433-2.432A2.436,2.436,0,0,1,3676-7989.521Z" transform="translate(-3149.387 8086.593)" fill="#d1ccc1"/>
    <path id="Контур_4793" data-name="Контур 4793" d="M3740.1-7989.521a2.436,2.436,0,0,1,2.433,2.433,2.433,2.433,0,0,1-2.433,2.432,2.434,2.434,0,0,1-2.434-2.432A2.437,2.437,0,0,1,3740.1-7989.521Z" transform="translate(-3329.969 8086.593)" fill="#d1ccc1"/>
    <path id="Контур_4804" data-name="Контур 4804" d="M3729.412-8042.938a2.438,2.438,0,0,1,2.434,2.435,2.435,2.435,0,0,1-2.434,2.433,2.434,2.434,0,0,1-2.433-2.433A2.438,2.438,0,0,1,3729.412-8042.938Z" transform="translate(-3299.872 8042.939)" fill="#d1ccc1"/>
    <path id="Контур_4816" data-name="Контур 4816" d="M3729.412-7978.838a2.437,2.437,0,0,1,2.434,2.434,2.437,2.437,0,0,1-2.434,2.433,2.436,2.436,0,0,1-2.433-2.433A2.437,2.437,0,0,1,3729.412-7978.838Z" transform="translate(-3299.872 8095.324)" fill="#d1ccc1"/>
    <path id="Контур_4817" data-name="Контур 4817" d="M3729.412-7989.521a2.437,2.437,0,0,1,2.434,2.433,2.434,2.434,0,0,1-2.434,2.432,2.434,2.434,0,0,1-2.433-2.432A2.436,2.436,0,0,1,3729.412-7989.521Z" transform="translate(-3299.872 8086.593)" fill="#d1ccc1"/>
    <path id="Контур_4818" data-name="Контур 4818" d="M3846.927-7989.521a2.436,2.436,0,0,1,2.433,2.433,2.434,2.434,0,0,1-2.433,2.432,2.434,2.434,0,0,1-2.434-2.432A2.437,2.437,0,0,1,3846.927-7989.521Z" transform="translate(-3630.94 8086.593)" fill="#d1ccc1"/>
    <path id="Контур_4819" data-name="Контур 4819" d="M3878.976-7989.521a2.438,2.438,0,0,1,2.436,2.433,2.436,2.436,0,0,1-2.436,2.432,2.433,2.433,0,0,1-2.433-2.432A2.436,2.436,0,0,1,3878.976-7989.521Z" transform="translate(-3721.231 8086.593)" fill="#d1ccc1"/>
    <path id="Контур_4820" data-name="Контур 4820" d="M3857.61-7989.521a2.437,2.437,0,0,1,2.434,2.433,2.434,2.434,0,0,1-2.434,2.432,2.434,2.434,0,0,1-2.433-2.432A2.436,2.436,0,0,1,3857.61-7989.521Z" transform="translate(-3661.036 8086.593)" fill="#d1ccc1"/>
    <path id="Контур_4821" data-name="Контур 4821" d="M3889.66-7989.521a2.436,2.436,0,0,1,2.433,2.433,2.433,2.433,0,0,1-2.433,2.432,2.434,2.434,0,0,1-2.434-2.432A2.437,2.437,0,0,1,3889.66-7989.521Z" transform="translate(-3751.329 8086.593)" fill="#d1ccc1"/>
    <path id="Контур_4822" data-name="Контур 4822" d="M3900.343-7989.521a2.437,2.437,0,0,1,2.434,2.433,2.434,2.434,0,0,1-2.434,2.432,2.433,2.433,0,0,1-2.433-2.432A2.436,2.436,0,0,1,3900.343-7989.521Z" transform="translate(-3781.425 8086.593)" fill="#d1ccc1"/>
    <path id="Контур_4823" data-name="Контур 4823" d="M3911.026-7989.521a2.436,2.436,0,0,1,2.433,2.433,2.434,2.434,0,0,1-2.433,2.432,2.434,2.434,0,0,1-2.434-2.432A2.437,2.437,0,0,1,3911.026-7989.521Z" transform="translate(-3811.522 8086.593)" fill="#d1ccc1"/>
    <path id="Контур_4824" data-name="Контур 4824" d="M3921.711-7989.521a2.437,2.437,0,0,1,2.434,2.433,2.434,2.434,0,0,1-2.434,2.432,2.434,2.434,0,0,1-2.436-2.432A2.437,2.437,0,0,1,3921.711-7989.521Z" transform="translate(-3841.62 8086.593)" fill="#d1ccc1"/>
    <path id="Контур_4825" data-name="Контур 4825" d="M3953.759-7989.521a2.437,2.437,0,0,1,2.434,2.433,2.434,2.434,0,0,1-2.434,2.432,2.434,2.434,0,0,1-2.433-2.432A2.436,2.436,0,0,1,3953.759-7989.521Z" transform="translate(-3931.91 8086.593)" fill="#d1ccc1"/>
    <path id="Контур_4826" data-name="Контур 4826" d="M3943.078-7989.521a2.434,2.434,0,0,1,2.431,2.433,2.432,2.432,0,0,1-2.431,2.432,2.434,2.434,0,0,1-2.435-2.432A2.437,2.437,0,0,1,3943.078-7989.521Z" transform="translate(-3901.814 8086.593)" fill="#d1ccc1"/>
    <path id="Контур_4827" data-name="Контур 4827" d="M3836.244-7989.521a2.436,2.436,0,0,1,2.433,2.433,2.434,2.434,0,0,1-2.433,2.432,2.434,2.434,0,0,1-2.434-2.432A2.437,2.437,0,0,1,3836.244-7989.521Z" transform="translate(-3600.843 8086.593)" fill="#d1ccc1"/>
    <path id="Контур_4828" data-name="Контур 4828" d="M3868.295-7989.521a2.436,2.436,0,0,1,2.433,2.433,2.433,2.433,0,0,1-2.433,2.432,2.434,2.434,0,0,1-2.435-2.432A2.437,2.437,0,0,1,3868.295-7989.521Z" transform="translate(-3691.135 8086.593)" fill="#d1ccc1"/>
    <path id="Контур_4829" data-name="Контур 4829" d="M3772.145-7989.521a2.437,2.437,0,0,1,2.434,2.433,2.434,2.434,0,0,1-2.434,2.432,2.434,2.434,0,0,1-2.435-2.432A2.436,2.436,0,0,1,3772.145-7989.521Z" transform="translate(-3420.26 8086.593)" fill="#d1ccc1"/>
    <path id="Контур_4830" data-name="Контур 4830" d="M3761.463-7989.521a2.436,2.436,0,0,1,2.433,2.433,2.433,2.433,0,0,1-2.433,2.432,2.435,2.435,0,0,1-2.435-2.432A2.438,2.438,0,0,1,3761.463-7989.521Z" transform="translate(-3390.164 8086.593)" fill="#d1ccc1"/>
    <path id="Контур_4831" data-name="Контур 4831" d="M3750.778-7989.521a2.437,2.437,0,0,1,2.434,2.433,2.434,2.434,0,0,1-2.434,2.432,2.433,2.433,0,0,1-2.433-2.432A2.436,2.436,0,0,1,3750.778-7989.521Z" transform="translate(-3360.065 8086.593)" fill="#d1ccc1"/>
    <path id="Контур_4832" data-name="Контур 4832" d="M3825.56-7989.521a2.438,2.438,0,0,1,2.436,2.433,2.436,2.436,0,0,1-2.436,2.432,2.434,2.434,0,0,1-2.433-2.432A2.436,2.436,0,0,1,3825.56-7989.521Z" transform="translate(-3570.746 8086.593)" fill="#d1ccc1"/>
    <path id="Контур_4833" data-name="Контур 4833" d="M3814.879-7989.521a2.436,2.436,0,0,1,2.433,2.433,2.433,2.433,0,0,1-2.433,2.432,2.435,2.435,0,0,1-2.435-2.432A2.438,2.438,0,0,1,3814.879-7989.521Z" transform="translate(-3540.649 8086.593)" fill="#d1ccc1"/>
    <path id="Контур_4834" data-name="Контур 4834" d="M3932.394-7989.521a2.436,2.436,0,0,1,2.433,2.433,2.434,2.434,0,0,1-2.433,2.432,2.434,2.434,0,0,1-2.435-2.432A2.437,2.437,0,0,1,3932.394-7989.521Z" transform="translate(-3871.716 8086.593)" fill="#d1ccc1"/>
    <path id="Контур_4835" data-name="Контур 4835" d="M3964.444-7989.521a2.436,2.436,0,0,1,2.433,2.433,2.434,2.434,0,0,1-2.433,2.432,2.436,2.436,0,0,1-2.436-2.432A2.438,2.438,0,0,1,3964.444-7989.521Z" transform="translate(-3962.009 8086.593)" fill="#d1ccc1"/>
    <path id="Контур_4836" data-name="Контур 4836" d="M3804.194-7989.521a2.436,2.436,0,0,1,2.433,2.433,2.434,2.434,0,0,1-2.433,2.432,2.434,2.434,0,0,1-2.433-2.432A2.436,2.436,0,0,1,3804.194-7989.521Z" transform="translate(-3510.551 8086.593)" fill="#d1ccc1"/>
    <path id="Контур_4837" data-name="Контур 4837" d="M3793.511-7989.521a2.437,2.437,0,0,1,2.434,2.433,2.434,2.434,0,0,1-2.434,2.432,2.434,2.434,0,0,1-2.434-2.432A2.437,2.437,0,0,1,3793.511-7989.521Z" transform="translate(-3480.455 8086.593)" fill="#d1ccc1"/>
    <path id="Контур_4838" data-name="Контур 4838" d="M3782.828-7989.521a2.436,2.436,0,0,1,2.433,2.433,2.434,2.434,0,0,1-2.433,2.432,2.434,2.434,0,0,1-2.434-2.432A2.437,2.437,0,0,1,3782.828-7989.521Z" transform="translate(-3450.358 8086.593)" fill="#d1ccc1"/>
    <path id="Контур_4839" data-name="Контур 4839" d="M3676-8000.2a2.436,2.436,0,0,1,2.433,2.434,2.437,2.437,0,0,1-2.433,2.434,2.437,2.437,0,0,1-2.433-2.434A2.436,2.436,0,0,1,3676-8000.2Z" transform="translate(-3149.387 8077.863)" fill="#d1ccc1"/>
    <path id="Контур_4840" data-name="Контур 4840" d="M3740.1-8000.2a2.436,2.436,0,0,1,2.433,2.434,2.437,2.437,0,0,1-2.433,2.434,2.437,2.437,0,0,1-2.434-2.434A2.436,2.436,0,0,1,3740.1-8000.2Z" transform="translate(-3329.969 8077.863)" fill="#d1ccc1"/>
    <path id="Контур_4841" data-name="Контур 4841" d="M3729.412-8000.2a2.436,2.436,0,0,1,2.434,2.434,2.437,2.437,0,0,1-2.434,2.434,2.437,2.437,0,0,1-2.433-2.434A2.436,2.436,0,0,1,3729.412-8000.2Z" transform="translate(-3299.872 8077.863)" fill="#d1ccc1"/>
    <path id="Контур_4852" data-name="Контур 4852" d="M3718.729-8042.938a2.439,2.439,0,0,1,2.435,2.435,2.435,2.435,0,0,1-2.435,2.433,2.435,2.435,0,0,1-2.434-2.433A2.438,2.438,0,0,1,3718.729-8042.938Z" transform="translate(-3269.775 8042.939)" fill="#d1ccc1"/>
    <path id="Контур_4864" data-name="Контур 4864" d="M3718.729-7978.838a2.438,2.438,0,0,1,2.435,2.434,2.437,2.437,0,0,1-2.435,2.433,2.437,2.437,0,0,1-2.434-2.433A2.437,2.437,0,0,1,3718.729-7978.838Z" transform="translate(-3269.775 8095.324)" fill="#d1ccc1"/>
    <path id="Контур_4865" data-name="Контур 4865" d="M3718.729-7989.521a2.437,2.437,0,0,1,2.435,2.433,2.434,2.434,0,0,1-2.435,2.432,2.434,2.434,0,0,1-2.434-2.432A2.437,2.437,0,0,1,3718.729-7989.521Z" transform="translate(-3269.775 8086.593)" fill="#d1ccc1"/>
    <path id="Контур_4866" data-name="Контур 4866" d="M3718.729-8000.2a2.436,2.436,0,0,1,2.435,2.434,2.438,2.438,0,0,1-2.435,2.434,2.437,2.437,0,0,1-2.434-2.434A2.436,2.436,0,0,1,3718.729-8000.2Z" transform="translate(-3269.775 8077.863)" fill="#d1ccc1"/>
    <path id="Контур_4867" data-name="Контур 4867" d="M3846.927-8000.2a2.436,2.436,0,0,1,2.433,2.434,2.437,2.437,0,0,1-2.433,2.434,2.437,2.437,0,0,1-2.434-2.434A2.436,2.436,0,0,1,3846.927-8000.2Z" transform="translate(-3630.94 8077.863)" fill="#d1ccc1"/>
    <path id="Контур_4868" data-name="Контур 4868" d="M3878.976-8000.2a2.438,2.438,0,0,1,2.436,2.434,2.439,2.439,0,0,1-2.436,2.434,2.437,2.437,0,0,1-2.433-2.434A2.436,2.436,0,0,1,3878.976-8000.2Z" transform="translate(-3721.231 8077.863)" fill="#d1ccc1"/>
    <path id="Контур_4869" data-name="Контур 4869" d="M3857.61-8000.2a2.436,2.436,0,0,1,2.434,2.434,2.437,2.437,0,0,1-2.434,2.434,2.437,2.437,0,0,1-2.433-2.434A2.436,2.436,0,0,1,3857.61-8000.2Z" transform="translate(-3661.036 8077.863)" fill="#d1ccc1"/>
    <path id="Контур_4870" data-name="Контур 4870" d="M3889.66-8000.2a2.436,2.436,0,0,1,2.433,2.434,2.437,2.437,0,0,1-2.433,2.434,2.437,2.437,0,0,1-2.434-2.434A2.436,2.436,0,0,1,3889.66-8000.2Z" transform="translate(-3751.329 8077.863)" fill="#d1ccc1"/>
    <path id="Контур_4871" data-name="Контур 4871" d="M3900.343-8000.2a2.436,2.436,0,0,1,2.434,2.434,2.437,2.437,0,0,1-2.434,2.434,2.437,2.437,0,0,1-2.433-2.434A2.436,2.436,0,0,1,3900.343-8000.2Z" transform="translate(-3781.425 8077.863)" fill="#d1ccc1"/>
    <path id="Контур_4872" data-name="Контур 4872" d="M3911.026-8000.2a2.436,2.436,0,0,1,2.433,2.434,2.437,2.437,0,0,1-2.433,2.434,2.437,2.437,0,0,1-2.434-2.434A2.436,2.436,0,0,1,3911.026-8000.2Z" transform="translate(-3811.522 8077.863)" fill="#d1ccc1"/>
    <path id="Контур_4873" data-name="Контур 4873" d="M3921.711-8000.2a2.436,2.436,0,0,1,2.434,2.434,2.437,2.437,0,0,1-2.434,2.434,2.438,2.438,0,0,1-2.436-2.434A2.437,2.437,0,0,1,3921.711-8000.2Z" transform="translate(-3841.62 8077.863)" fill="#d1ccc1"/>
    <path id="Контур_4874" data-name="Контур 4874" d="M3953.759-8000.2a2.436,2.436,0,0,1,2.434,2.434,2.437,2.437,0,0,1-2.434,2.434,2.437,2.437,0,0,1-2.433-2.434A2.436,2.436,0,0,1,3953.759-8000.2Z" transform="translate(-3931.91 8077.863)" fill="#d1ccc1"/>
    <path id="Контур_4875" data-name="Контур 4875" d="M3943.078-8000.2a2.434,2.434,0,0,1,2.431,2.434,2.435,2.435,0,0,1-2.431,2.434,2.438,2.438,0,0,1-2.435-2.434A2.436,2.436,0,0,1,3943.078-8000.2Z" transform="translate(-3901.814 8077.863)" fill="#d1ccc1"/>
    <path id="Контур_4876" data-name="Контур 4876" d="M3836.244-8000.2a2.436,2.436,0,0,1,2.433,2.434,2.437,2.437,0,0,1-2.433,2.434,2.437,2.437,0,0,1-2.434-2.434A2.436,2.436,0,0,1,3836.244-8000.2Z" transform="translate(-3600.843 8077.863)" fill="#d1ccc1"/>
    <path id="Контур_4877" data-name="Контур 4877" d="M3868.295-8000.2a2.436,2.436,0,0,1,2.433,2.434,2.437,2.437,0,0,1-2.433,2.434,2.438,2.438,0,0,1-2.435-2.434A2.436,2.436,0,0,1,3868.295-8000.2Z" transform="translate(-3691.135 8077.863)" fill="#d1ccc1"/>
    <path id="Контур_4878" data-name="Контур 4878" d="M3772.145-8000.2a2.436,2.436,0,0,1,2.434,2.434,2.437,2.437,0,0,1-2.434,2.434,2.437,2.437,0,0,1-2.435-2.434A2.436,2.436,0,0,1,3772.145-8000.2Z" transform="translate(-3420.26 8077.863)" fill="#d1ccc1"/>
    <path id="Контур_4879" data-name="Контур 4879" d="M3761.463-8000.2a2.436,2.436,0,0,1,2.433,2.434,2.437,2.437,0,0,1-2.433,2.434,2.439,2.439,0,0,1-2.435-2.434A2.438,2.438,0,0,1,3761.463-8000.2Z" transform="translate(-3390.164 8077.863)" fill="#d1ccc1"/>
    <path id="Контур_4880" data-name="Контур 4880" d="M3750.778-8000.2a2.436,2.436,0,0,1,2.434,2.434,2.437,2.437,0,0,1-2.434,2.434,2.437,2.437,0,0,1-2.433-2.434A2.436,2.436,0,0,1,3750.778-8000.2Z" transform="translate(-3360.065 8077.863)" fill="#d1ccc1"/>
    <path id="Контур_4881" data-name="Контур 4881" d="M3825.56-8000.2a2.438,2.438,0,0,1,2.436,2.434,2.439,2.439,0,0,1-2.436,2.434,2.437,2.437,0,0,1-2.433-2.434A2.436,2.436,0,0,1,3825.56-8000.2Z" transform="translate(-3570.746 8077.863)" fill="#d1ccc1"/>
    <path id="Контур_4882" data-name="Контур 4882" d="M3814.879-8000.2a2.436,2.436,0,0,1,2.433,2.434,2.437,2.437,0,0,1-2.433,2.434,2.439,2.439,0,0,1-2.435-2.434A2.438,2.438,0,0,1,3814.879-8000.2Z" transform="translate(-3540.649 8077.863)" fill="#d1ccc1"/>
    <path id="Контур_4883" data-name="Контур 4883" d="M3932.394-8000.2a2.436,2.436,0,0,1,2.433,2.434,2.437,2.437,0,0,1-2.433,2.434,2.437,2.437,0,0,1-2.435-2.434A2.436,2.436,0,0,1,3932.394-8000.2Z" transform="translate(-3871.716 8077.863)" fill="#d1ccc1"/>
    <path id="Контур_4884" data-name="Контур 4884" d="M3964.444-8000.2a2.436,2.436,0,0,1,2.433,2.434,2.437,2.437,0,0,1-2.433,2.434,2.439,2.439,0,0,1-2.436-2.434A2.438,2.438,0,0,1,3964.444-8000.2Z" transform="translate(-3962.009 8077.863)" fill="#d1ccc1"/>
    <path id="Контур_4885" data-name="Контур 4885" d="M3804.194-8000.2a2.436,2.436,0,0,1,2.433,2.434,2.437,2.437,0,0,1-2.433,2.434,2.437,2.437,0,0,1-2.433-2.434A2.436,2.436,0,0,1,3804.194-8000.2Z" transform="translate(-3510.551 8077.863)" fill="#d1ccc1"/>
    <path id="Контур_4886" data-name="Контур 4886" d="M3793.511-8000.2a2.436,2.436,0,0,1,2.434,2.434,2.437,2.437,0,0,1-2.434,2.434,2.437,2.437,0,0,1-2.434-2.434A2.436,2.436,0,0,1,3793.511-8000.2Z" transform="translate(-3480.455 8077.863)" fill="#d1ccc1"/>
    <path id="Контур_4887" data-name="Контур 4887" d="M3782.828-8000.2a2.436,2.436,0,0,1,2.433,2.434,2.437,2.437,0,0,1-2.433,2.434,2.437,2.437,0,0,1-2.434-2.434A2.436,2.436,0,0,1,3782.828-8000.2Z" transform="translate(-3450.358 8077.863)" fill="#d1ccc1"/>
    <path id="Контур_4888" data-name="Контур 4888" d="M3676-8010.888a2.437,2.437,0,0,1,2.433,2.434,2.438,2.438,0,0,1-2.433,2.435,2.438,2.438,0,0,1-2.433-2.435A2.437,2.437,0,0,1,3676-8010.888Z" transform="translate(-3149.387 8069.131)" fill="#d1ccc1"/>
    <path id="Контур_4889" data-name="Контур 4889" d="M3740.1-8010.888a2.436,2.436,0,0,1,2.433,2.434,2.438,2.438,0,0,1-2.433,2.435,2.438,2.438,0,0,1-2.434-2.435A2.437,2.437,0,0,1,3740.1-8010.888Z" transform="translate(-3329.969 8069.131)" fill="#d1ccc1"/>
    <path id="Контур_4890" data-name="Контур 4890" d="M3729.412-8010.888a2.437,2.437,0,0,1,2.434,2.434,2.438,2.438,0,0,1-2.434,2.435,2.438,2.438,0,0,1-2.433-2.435A2.437,2.437,0,0,1,3729.412-8010.888Z" transform="translate(-3299.872 8069.131)" fill="#d1ccc1"/>
    <path id="Контур_4891" data-name="Контур 4891" d="M3718.729-8010.888a2.437,2.437,0,0,1,2.435,2.434,2.439,2.439,0,0,1-2.435,2.435,2.438,2.438,0,0,1-2.434-2.435A2.437,2.437,0,0,1,3718.729-8010.888Z" transform="translate(-3269.775 8069.131)" fill="#d1ccc1"/>
    <path id="Контур_4902" data-name="Контур 4902" d="M3708.047-8042.938a2.438,2.438,0,0,1,2.433,2.435,2.435,2.435,0,0,1-2.433,2.433,2.436,2.436,0,0,1-2.436-2.433A2.44,2.44,0,0,1,3708.047-8042.938Z" transform="translate(-3239.678 8042.939)" fill="#d1ccc1"/>
    <path id="Контур_4914" data-name="Контур 4914" d="M3708.047-7978.838a2.437,2.437,0,0,1,2.433,2.434,2.436,2.436,0,0,1-2.433,2.433,2.438,2.438,0,0,1-2.436-2.433A2.439,2.439,0,0,1,3708.047-7978.838Z" transform="translate(-3239.678 8095.324)" fill="#d1ccc1"/>
    <path id="Контур_4915" data-name="Контур 4915" d="M3708.047-7989.521a2.436,2.436,0,0,1,2.433,2.433,2.434,2.434,0,0,1-2.433,2.432,2.436,2.436,0,0,1-2.436-2.432A2.438,2.438,0,0,1,3708.047-7989.521Z" transform="translate(-3239.678 8086.593)" fill="#d1ccc1"/>
    <path id="Контур_4916" data-name="Контур 4916" d="M3708.047-8000.2a2.436,2.436,0,0,1,2.433,2.434,2.437,2.437,0,0,1-2.433,2.434,2.439,2.439,0,0,1-2.436-2.434A2.438,2.438,0,0,1,3708.047-8000.2Z" transform="translate(-3239.678 8077.863)" fill="#d1ccc1"/>
    <path id="Контур_4917" data-name="Контур 4917" d="M3708.047-8010.888a2.437,2.437,0,0,1,2.433,2.434,2.438,2.438,0,0,1-2.433,2.435,2.44,2.44,0,0,1-2.436-2.435A2.438,2.438,0,0,1,3708.047-8010.888Z" transform="translate(-3239.678 8069.131)" fill="#d1ccc1"/>
    <path id="Контур_4918" data-name="Контур 4918" d="M3846.927-8010.888a2.437,2.437,0,0,1,2.433,2.434,2.438,2.438,0,0,1-2.433,2.435,2.438,2.438,0,0,1-2.434-2.435A2.437,2.437,0,0,1,3846.927-8010.888Z" transform="translate(-3630.94 8069.131)" fill="#d1ccc1"/>
    <path id="Контур_4919" data-name="Контур 4919" d="M3878.976-8010.888a2.438,2.438,0,0,1,2.436,2.434,2.44,2.44,0,0,1-2.436,2.435,2.438,2.438,0,0,1-2.433-2.435A2.436,2.436,0,0,1,3878.976-8010.888Z" transform="translate(-3721.231 8069.131)" fill="#d1ccc1"/>
    <path id="Контур_4920" data-name="Контур 4920" d="M3857.61-8010.888a2.437,2.437,0,0,1,2.434,2.434,2.438,2.438,0,0,1-2.434,2.435,2.438,2.438,0,0,1-2.433-2.435A2.437,2.437,0,0,1,3857.61-8010.888Z" transform="translate(-3661.036 8069.131)" fill="#d1ccc1"/>
    <path id="Контур_4921" data-name="Контур 4921" d="M3889.66-8010.888a2.436,2.436,0,0,1,2.433,2.434,2.438,2.438,0,0,1-2.433,2.435,2.438,2.438,0,0,1-2.434-2.435A2.437,2.437,0,0,1,3889.66-8010.888Z" transform="translate(-3751.329 8069.131)" fill="#d1ccc1"/>
    <path id="Контур_4922" data-name="Контур 4922" d="M3900.343-8010.888a2.437,2.437,0,0,1,2.434,2.434,2.438,2.438,0,0,1-2.434,2.435,2.438,2.438,0,0,1-2.433-2.435A2.436,2.436,0,0,1,3900.343-8010.888Z" transform="translate(-3781.425 8069.131)" fill="#d1ccc1"/>
    <path id="Контур_4923" data-name="Контур 4923" d="M3911.026-8010.888a2.437,2.437,0,0,1,2.433,2.434,2.438,2.438,0,0,1-2.433,2.435,2.438,2.438,0,0,1-2.434-2.435A2.437,2.437,0,0,1,3911.026-8010.888Z" transform="translate(-3811.522 8069.131)" fill="#d1ccc1"/>
    <path id="Контур_4924" data-name="Контур 4924" d="M3921.711-8010.888a2.437,2.437,0,0,1,2.434,2.434,2.438,2.438,0,0,1-2.434,2.435,2.439,2.439,0,0,1-2.436-2.435A2.437,2.437,0,0,1,3921.711-8010.888Z" transform="translate(-3841.62 8069.131)" fill="#d1ccc1"/>
    <path id="Контур_4925" data-name="Контур 4925" d="M3953.759-8010.888a2.437,2.437,0,0,1,2.434,2.434,2.438,2.438,0,0,1-2.434,2.435,2.438,2.438,0,0,1-2.433-2.435A2.437,2.437,0,0,1,3953.759-8010.888Z" transform="translate(-3931.91 8069.131)" fill="#d1ccc1"/>
    <path id="Контур_4926" data-name="Контур 4926" d="M3943.078-8010.888a2.435,2.435,0,0,1,2.431,2.434,2.436,2.436,0,0,1-2.431,2.435,2.439,2.439,0,0,1-2.435-2.435A2.437,2.437,0,0,1,3943.078-8010.888Z" transform="translate(-3901.814 8069.131)" fill="#d1ccc1"/>
    <path id="Контур_4927" data-name="Контур 4927" d="M3836.244-8010.888a2.437,2.437,0,0,1,2.433,2.434,2.438,2.438,0,0,1-2.433,2.435,2.438,2.438,0,0,1-2.434-2.435A2.437,2.437,0,0,1,3836.244-8010.888Z" transform="translate(-3600.843 8069.131)" fill="#d1ccc1"/>
    <path id="Контур_4928" data-name="Контур 4928" d="M3868.295-8010.888a2.436,2.436,0,0,1,2.433,2.434,2.438,2.438,0,0,1-2.433,2.435,2.439,2.439,0,0,1-2.435-2.435A2.437,2.437,0,0,1,3868.295-8010.888Z" transform="translate(-3691.135 8069.131)" fill="#d1ccc1"/>
    <path id="Контур_4929" data-name="Контур 4929" d="M3772.145-8010.888a2.437,2.437,0,0,1,2.434,2.434,2.438,2.438,0,0,1-2.434,2.435,2.438,2.438,0,0,1-2.435-2.435A2.437,2.437,0,0,1,3772.145-8010.888Z" transform="translate(-3420.26 8069.131)" fill="#d1ccc1"/>
    <path id="Контур_4930" data-name="Контур 4930" d="M3761.463-8010.888a2.436,2.436,0,0,1,2.433,2.434,2.438,2.438,0,0,1-2.433,2.435,2.44,2.44,0,0,1-2.435-2.435A2.438,2.438,0,0,1,3761.463-8010.888Z" transform="translate(-3390.164 8069.131)" fill="#d1ccc1"/>
    <path id="Контур_4931" data-name="Контур 4931" d="M3750.778-8010.888a2.437,2.437,0,0,1,2.434,2.434,2.438,2.438,0,0,1-2.434,2.435,2.438,2.438,0,0,1-2.433-2.435A2.436,2.436,0,0,1,3750.778-8010.888Z" transform="translate(-3360.065 8069.131)" fill="#d1ccc1"/>
    <path id="Контур_4932" data-name="Контур 4932" d="M3825.56-8010.888a2.438,2.438,0,0,1,2.436,2.434,2.44,2.44,0,0,1-2.436,2.435,2.438,2.438,0,0,1-2.433-2.435A2.437,2.437,0,0,1,3825.56-8010.888Z" transform="translate(-3570.746 8069.131)" fill="#d1ccc1"/>
    <path id="Контур_4933" data-name="Контур 4933" d="M3814.879-8010.888a2.436,2.436,0,0,1,2.433,2.434,2.438,2.438,0,0,1-2.433,2.435,2.44,2.44,0,0,1-2.435-2.435A2.438,2.438,0,0,1,3814.879-8010.888Z" transform="translate(-3540.649 8069.131)" fill="#d1ccc1"/>
    <path id="Контур_4934" data-name="Контур 4934" d="M3932.394-8010.888a2.437,2.437,0,0,1,2.433,2.434,2.438,2.438,0,0,1-2.433,2.435,2.438,2.438,0,0,1-2.435-2.435A2.437,2.437,0,0,1,3932.394-8010.888Z" transform="translate(-3871.716 8069.131)" fill="#d1ccc1"/>
    <path id="Контур_4935" data-name="Контур 4935" d="M3964.444-8010.888a2.437,2.437,0,0,1,2.433,2.434,2.438,2.438,0,0,1-2.433,2.435,2.44,2.44,0,0,1-2.436-2.435A2.438,2.438,0,0,1,3964.444-8010.888Z" transform="translate(-3962.009 8069.131)" fill="#d1ccc1"/>
    <path id="Контур_4936" data-name="Контур 4936" d="M3804.194-8010.888a2.437,2.437,0,0,1,2.433,2.434,2.438,2.438,0,0,1-2.433,2.435,2.438,2.438,0,0,1-2.433-2.435A2.437,2.437,0,0,1,3804.194-8010.888Z" transform="translate(-3510.551 8069.131)" fill="#d1ccc1"/>
    <path id="Контур_4937" data-name="Контур 4937" d="M3793.511-8010.888a2.437,2.437,0,0,1,2.434,2.434,2.438,2.438,0,0,1-2.434,2.435,2.438,2.438,0,0,1-2.434-2.435A2.437,2.437,0,0,1,3793.511-8010.888Z" transform="translate(-3480.455 8069.131)" fill="#d1ccc1"/>
    <path id="Контур_4938" data-name="Контур 4938" d="M3782.828-8010.888a2.437,2.437,0,0,1,2.433,2.434,2.438,2.438,0,0,1-2.433,2.435,2.438,2.438,0,0,1-2.434-2.435A2.437,2.437,0,0,1,3782.828-8010.888Z" transform="translate(-3450.358 8069.131)" fill="#d1ccc1"/>
    <path id="Контур_4939" data-name="Контур 4939" d="M3676-8021.57a2.434,2.434,0,0,1,2.433,2.431,2.437,2.437,0,0,1-2.433,2.434,2.437,2.437,0,0,1-2.433-2.434A2.434,2.434,0,0,1,3676-8021.57Z" transform="translate(-3149.387 8060.402)" fill="#d1ccc1"/>
    <path id="Контур_4940" data-name="Контур 4940" d="M3740.1-8021.57a2.433,2.433,0,0,1,2.433,2.431,2.437,2.437,0,0,1-2.433,2.434,2.437,2.437,0,0,1-2.434-2.434A2.434,2.434,0,0,1,3740.1-8021.57Z" transform="translate(-3329.969 8060.402)" fill="#d1ccc1"/>
    <path id="Контур_4941" data-name="Контур 4941" d="M3729.412-8021.57a2.434,2.434,0,0,1,2.434,2.431,2.437,2.437,0,0,1-2.434,2.434,2.437,2.437,0,0,1-2.433-2.434A2.433,2.433,0,0,1,3729.412-8021.57Z" transform="translate(-3299.872 8060.402)" fill="#d1ccc1"/>
    <path id="Контур_4942" data-name="Контур 4942" d="M3718.729-8021.57a2.434,2.434,0,0,1,2.435,2.431,2.438,2.438,0,0,1-2.435,2.434,2.437,2.437,0,0,1-2.434-2.434A2.434,2.434,0,0,1,3718.729-8021.57Z" transform="translate(-3269.775 8060.402)" fill="#d1ccc1"/>
    <path id="Контур_4943" data-name="Контур 4943" d="M3708.047-8021.57a2.434,2.434,0,0,1,2.433,2.431,2.437,2.437,0,0,1-2.433,2.434,2.439,2.439,0,0,1-2.436-2.434A2.435,2.435,0,0,1,3708.047-8021.57Z" transform="translate(-3239.678 8060.402)" fill="#d1ccc1"/>
    <path id="Контур_4954" data-name="Контур 4954" d="M3697.36-8042.938a2.439,2.439,0,0,1,2.436,2.435,2.435,2.435,0,0,1-2.436,2.433,2.433,2.433,0,0,1-2.431-2.433A2.436,2.436,0,0,1,3697.36-8042.938Z" transform="translate(-3209.58 8042.939)" fill="#d1ccc1"/>
    <path id="Контур_4966" data-name="Контур 4966" d="M3697.36-7978.838a2.438,2.438,0,0,1,2.436,2.434,2.437,2.437,0,0,1-2.436,2.433,2.435,2.435,0,0,1-2.431-2.433A2.436,2.436,0,0,1,3697.36-7978.838Z" transform="translate(-3209.58 8095.324)" fill="#d1ccc1"/>
    <path id="Контур_4967" data-name="Контур 4967" d="M3697.36-7989.521a2.437,2.437,0,0,1,2.436,2.433,2.434,2.434,0,0,1-2.436,2.432,2.432,2.432,0,0,1-2.431-2.432A2.435,2.435,0,0,1,3697.36-7989.521Z" transform="translate(-3209.58 8086.593)" fill="#d1ccc1"/>
    <path id="Контур_4968" data-name="Контур 4968" d="M3697.36-8000.2a2.437,2.437,0,0,1,2.436,2.434,2.438,2.438,0,0,1-2.436,2.434,2.436,2.436,0,0,1-2.431-2.434A2.434,2.434,0,0,1,3697.36-8000.2Z" transform="translate(-3209.58 8077.863)" fill="#d1ccc1"/>
    <path id="Контур_4969" data-name="Контур 4969" d="M3697.36-8010.888a2.437,2.437,0,0,1,2.436,2.434,2.439,2.439,0,0,1-2.436,2.435,2.436,2.436,0,0,1-2.431-2.435A2.435,2.435,0,0,1,3697.36-8010.888Z" transform="translate(-3209.58 8069.131)" fill="#d1ccc1"/>
    <path id="Контур_4970" data-name="Контур 4970" d="M3697.36-8021.57a2.434,2.434,0,0,1,2.436,2.431,2.438,2.438,0,0,1-2.436,2.434,2.436,2.436,0,0,1-2.431-2.434A2.432,2.432,0,0,1,3697.36-8021.57Z" transform="translate(-3209.58 8060.402)" fill="#d1ccc1"/>
    <path id="Контур_4971" data-name="Контур 4971" d="M3846.927-8021.57a2.434,2.434,0,0,1,2.433,2.431,2.437,2.437,0,0,1-2.433,2.434,2.437,2.437,0,0,1-2.434-2.434A2.434,2.434,0,0,1,3846.927-8021.57Z" transform="translate(-3630.94 8060.402)" fill="#d1ccc1"/>
    <path id="Контур_4972" data-name="Контур 4972" d="M3878.976-8021.57a2.435,2.435,0,0,1,2.436,2.431,2.439,2.439,0,0,1-2.436,2.434,2.437,2.437,0,0,1-2.433-2.434A2.433,2.433,0,0,1,3878.976-8021.57Z" transform="translate(-3721.231 8060.402)" fill="#d1ccc1"/>
    <path id="Контур_4973" data-name="Контур 4973" d="M3857.61-8021.57a2.434,2.434,0,0,1,2.434,2.431,2.437,2.437,0,0,1-2.434,2.434,2.437,2.437,0,0,1-2.433-2.434A2.433,2.433,0,0,1,3857.61-8021.57Z" transform="translate(-3661.036 8060.402)" fill="#d1ccc1"/>
    <path id="Контур_4974" data-name="Контур 4974" d="M3889.66-8021.57a2.433,2.433,0,0,1,2.433,2.431,2.437,2.437,0,0,1-2.433,2.434,2.437,2.437,0,0,1-2.434-2.434A2.434,2.434,0,0,1,3889.66-8021.57Z" transform="translate(-3751.329 8060.402)" fill="#d1ccc1"/>
    <path id="Контур_4975" data-name="Контур 4975" d="M3900.343-8021.57a2.434,2.434,0,0,1,2.434,2.431,2.437,2.437,0,0,1-2.434,2.434,2.437,2.437,0,0,1-2.433-2.434A2.433,2.433,0,0,1,3900.343-8021.57Z" transform="translate(-3781.425 8060.402)" fill="#d1ccc1"/>
    <path id="Контур_4976" data-name="Контур 4976" d="M3911.026-8021.57a2.434,2.434,0,0,1,2.433,2.431,2.437,2.437,0,0,1-2.433,2.434,2.437,2.437,0,0,1-2.434-2.434A2.434,2.434,0,0,1,3911.026-8021.57Z" transform="translate(-3811.522 8060.402)" fill="#d1ccc1"/>
    <path id="Контур_4977" data-name="Контур 4977" d="M3921.711-8021.57a2.434,2.434,0,0,1,2.434,2.431,2.437,2.437,0,0,1-2.434,2.434,2.438,2.438,0,0,1-2.436-2.434A2.434,2.434,0,0,1,3921.711-8021.57Z" transform="translate(-3841.62 8060.402)" fill="#d1ccc1"/>
    <path id="Контур_4978" data-name="Контур 4978" d="M3953.759-8021.57a2.434,2.434,0,0,1,2.434,2.431,2.437,2.437,0,0,1-2.434,2.434,2.437,2.437,0,0,1-2.433-2.434A2.434,2.434,0,0,1,3953.759-8021.57Z" transform="translate(-3931.91 8060.402)" fill="#d1ccc1"/>
    <path id="Контур_4979" data-name="Контур 4979" d="M3943.078-8021.57a2.432,2.432,0,0,1,2.431,2.431,2.435,2.435,0,0,1-2.431,2.434,2.438,2.438,0,0,1-2.435-2.434A2.434,2.434,0,0,1,3943.078-8021.57Z" transform="translate(-3901.814 8060.402)" fill="#d1ccc1"/>
    <path id="Контур_4980" data-name="Контур 4980" d="M3836.244-8021.57a2.434,2.434,0,0,1,2.433,2.431,2.437,2.437,0,0,1-2.433,2.434,2.437,2.437,0,0,1-2.434-2.434A2.434,2.434,0,0,1,3836.244-8021.57Z" transform="translate(-3600.843 8060.402)" fill="#d1ccc1"/>
    <path id="Контур_4981" data-name="Контур 4981" d="M3868.295-8021.57a2.433,2.433,0,0,1,2.433,2.431,2.437,2.437,0,0,1-2.433,2.434,2.438,2.438,0,0,1-2.435-2.434A2.434,2.434,0,0,1,3868.295-8021.57Z" transform="translate(-3691.135 8060.402)" fill="#d1ccc1"/>
    <path id="Контур_4982" data-name="Контур 4982" d="M3772.145-8021.57a2.434,2.434,0,0,1,2.434,2.431,2.437,2.437,0,0,1-2.434,2.434,2.437,2.437,0,0,1-2.435-2.434A2.434,2.434,0,0,1,3772.145-8021.57Z" transform="translate(-3420.26 8060.402)" fill="#d1ccc1"/>
    <path id="Контур_4983" data-name="Контур 4983" d="M3761.463-8021.57a2.433,2.433,0,0,1,2.433,2.431,2.437,2.437,0,0,1-2.433,2.434,2.439,2.439,0,0,1-2.435-2.434A2.435,2.435,0,0,1,3761.463-8021.57Z" transform="translate(-3390.164 8060.402)" fill="#d1ccc1"/>
    <path id="Контур_4984" data-name="Контур 4984" d="M3750.778-8021.57a2.434,2.434,0,0,1,2.434,2.431,2.437,2.437,0,0,1-2.434,2.434,2.437,2.437,0,0,1-2.433-2.434A2.433,2.433,0,0,1,3750.778-8021.57Z" transform="translate(-3360.065 8060.402)" fill="#d1ccc1"/>
    <path id="Контур_4985" data-name="Контур 4985" d="M3825.56-8021.57a2.435,2.435,0,0,1,2.436,2.431,2.439,2.439,0,0,1-2.436,2.434,2.437,2.437,0,0,1-2.433-2.434A2.434,2.434,0,0,1,3825.56-8021.57Z" transform="translate(-3570.746 8060.402)" fill="#d1ccc1"/>
    <path id="Контур_4986" data-name="Контур 4986" d="M3814.879-8021.57a2.433,2.433,0,0,1,2.433,2.431,2.437,2.437,0,0,1-2.433,2.434,2.439,2.439,0,0,1-2.435-2.434A2.435,2.435,0,0,1,3814.879-8021.57Z" transform="translate(-3540.649 8060.402)" fill="#d1ccc1"/>
    <path id="Контур_4987" data-name="Контур 4987" d="M3932.394-8021.57a2.434,2.434,0,0,1,2.433,2.431,2.437,2.437,0,0,1-2.433,2.434,2.437,2.437,0,0,1-2.435-2.434A2.434,2.434,0,0,1,3932.394-8021.57Z" transform="translate(-3871.716 8060.402)" fill="#d1ccc1"/>
    <path id="Контур_4988" data-name="Контур 4988" d="M3964.444-8021.57a2.434,2.434,0,0,1,2.433,2.431,2.437,2.437,0,0,1-2.433,2.434,2.439,2.439,0,0,1-2.436-2.434A2.435,2.435,0,0,1,3964.444-8021.57Z" transform="translate(-3962.009 8060.402)" fill="#d1ccc1"/>
    <path id="Контур_4989" data-name="Контур 4989" d="M3804.194-8021.57a2.434,2.434,0,0,1,2.433,2.431,2.437,2.437,0,0,1-2.433,2.434,2.437,2.437,0,0,1-2.433-2.434A2.434,2.434,0,0,1,3804.194-8021.57Z" transform="translate(-3510.551 8060.402)" fill="#d1ccc1"/>
    <path id="Контур_4990" data-name="Контур 4990" d="M3793.511-8021.57a2.434,2.434,0,0,1,2.434,2.431,2.437,2.437,0,0,1-2.434,2.434,2.437,2.437,0,0,1-2.434-2.434A2.434,2.434,0,0,1,3793.511-8021.57Z" transform="translate(-3480.455 8060.402)" fill="#d1ccc1"/>
    <path id="Контур_4991" data-name="Контур 4991" d="M3782.828-8021.57a2.434,2.434,0,0,1,2.433,2.431,2.437,2.437,0,0,1-2.433,2.434,2.437,2.437,0,0,1-2.434-2.434A2.434,2.434,0,0,1,3782.828-8021.57Z" transform="translate(-3450.358 8060.402)" fill="#d1ccc1"/>
    <path id="Контур_4992" data-name="Контур 4992" d="M3676-8032.254a2.437,2.437,0,0,1,2.433,2.434,2.436,2.436,0,0,1-2.433,2.433,2.436,2.436,0,0,1-2.433-2.433A2.437,2.437,0,0,1,3676-8032.254Z" transform="translate(-3149.387 8051.671)" fill="#d1ccc1"/>
    <path id="Контур_4993" data-name="Контур 4993" d="M3740.1-8032.254a2.437,2.437,0,0,1,2.433,2.434,2.436,2.436,0,0,1-2.433,2.433,2.436,2.436,0,0,1-2.434-2.433A2.437,2.437,0,0,1,3740.1-8032.254Z" transform="translate(-3329.969 8051.671)" fill="#d1ccc1"/>
    <path id="Контур_4994" data-name="Контур 4994" d="M3729.412-8032.254a2.437,2.437,0,0,1,2.434,2.434,2.436,2.436,0,0,1-2.434,2.433,2.436,2.436,0,0,1-2.433-2.433A2.437,2.437,0,0,1,3729.412-8032.254Z" transform="translate(-3299.872 8051.671)" fill="#d1ccc1"/>
    <path id="Контур_4995" data-name="Контур 4995" d="M3718.729-8032.254a2.438,2.438,0,0,1,2.435,2.434,2.436,2.436,0,0,1-2.435,2.433,2.436,2.436,0,0,1-2.434-2.433A2.437,2.437,0,0,1,3718.729-8032.254Z" transform="translate(-3269.775 8051.671)" fill="#d1ccc1"/>
    <path id="Контур_4996" data-name="Контур 4996" d="M3708.047-8032.254a2.437,2.437,0,0,1,2.433,2.434,2.436,2.436,0,0,1-2.433,2.433,2.438,2.438,0,0,1-2.436-2.433A2.439,2.439,0,0,1,3708.047-8032.254Z" transform="translate(-3239.678 8051.671)" fill="#d1ccc1"/>
    <path id="Контур_4997" data-name="Контур 4997" d="M3697.36-8032.254a2.438,2.438,0,0,1,2.436,2.434,2.436,2.436,0,0,1-2.436,2.433,2.434,2.434,0,0,1-2.431-2.433A2.436,2.436,0,0,1,3697.36-8032.254Z" transform="translate(-3209.58 8051.671)" fill="#d1ccc1"/>
    <path id="Контур_5008" data-name="Контур 5008" d="M3686.679-8042.938a2.438,2.438,0,0,1,2.433,2.435,2.434,2.434,0,0,1-2.433,2.433,2.435,2.435,0,0,1-2.433-2.433A2.438,2.438,0,0,1,3686.679-8042.938Z" transform="translate(-3179.484 8042.939)" fill="#d1ccc1"/>
    <path id="Контур_5020" data-name="Контур 5020" d="M3686.679-7978.838a2.437,2.437,0,0,1,2.433,2.434,2.436,2.436,0,0,1-2.433,2.433,2.436,2.436,0,0,1-2.433-2.433A2.437,2.437,0,0,1,3686.679-7978.838Z" transform="translate(-3179.484 8095.324)" fill="#d1ccc1"/>
    <path id="Контур_5021" data-name="Контур 5021" d="M3686.679-7989.521a2.436,2.436,0,0,1,2.433,2.433,2.433,2.433,0,0,1-2.433,2.432,2.434,2.434,0,0,1-2.433-2.432A2.436,2.436,0,0,1,3686.679-7989.521Z" transform="translate(-3179.484 8086.593)" fill="#d1ccc1"/>
    <path id="Контур_5022" data-name="Контур 5022" d="M3686.679-8000.2a2.436,2.436,0,0,1,2.433,2.434,2.437,2.437,0,0,1-2.433,2.434,2.437,2.437,0,0,1-2.433-2.434A2.436,2.436,0,0,1,3686.679-8000.2Z" transform="translate(-3179.484 8077.863)" fill="#d1ccc1"/>
    <path id="Контур_5023" data-name="Контур 5023" d="M3686.679-8010.888a2.436,2.436,0,0,1,2.433,2.434,2.438,2.438,0,0,1-2.433,2.435,2.438,2.438,0,0,1-2.433-2.435A2.437,2.437,0,0,1,3686.679-8010.888Z" transform="translate(-3179.484 8069.131)" fill="#d1ccc1"/>
    <path id="Контур_5024" data-name="Контур 5024" d="M3686.679-8021.57a2.433,2.433,0,0,1,2.433,2.431,2.437,2.437,0,0,1-2.433,2.434,2.437,2.437,0,0,1-2.433-2.434A2.434,2.434,0,0,1,3686.679-8021.57Z" transform="translate(-3179.484 8060.402)" fill="#d1ccc1"/>
    <path id="Контур_5025" data-name="Контур 5025" d="M3686.679-8032.254a2.437,2.437,0,0,1,2.433,2.434,2.436,2.436,0,0,1-2.433,2.433,2.436,2.436,0,0,1-2.433-2.433A2.437,2.437,0,0,1,3686.679-8032.254Z" transform="translate(-3179.484 8051.671)" fill="#d1ccc1"/>
    <path id="Контур_5026" data-name="Контур 5026" d="M3846.927-8032.254a2.437,2.437,0,0,1,2.433,2.434,2.436,2.436,0,0,1-2.433,2.433,2.436,2.436,0,0,1-2.434-2.433A2.437,2.437,0,0,1,3846.927-8032.254Z" transform="translate(-3630.94 8051.671)" fill="#d1ccc1"/>
    <path id="Контур_5027" data-name="Контур 5027" d="M3878.976-8032.254a2.439,2.439,0,0,1,2.436,2.434,2.438,2.438,0,0,1-2.436,2.433,2.436,2.436,0,0,1-2.433-2.433A2.437,2.437,0,0,1,3878.976-8032.254Z" transform="translate(-3721.231 8051.671)" fill="#d1ccc1"/>
    <path id="Контур_5028" data-name="Контур 5028" d="M3857.61-8032.254a2.437,2.437,0,0,1,2.434,2.434,2.436,2.436,0,0,1-2.434,2.433,2.436,2.436,0,0,1-2.433-2.433A2.437,2.437,0,0,1,3857.61-8032.254Z" transform="translate(-3661.036 8051.671)" fill="#d1ccc1"/>
    <path id="Контур_5029" data-name="Контур 5029" d="M3889.66-8032.254a2.437,2.437,0,0,1,2.433,2.434,2.436,2.436,0,0,1-2.433,2.433,2.436,2.436,0,0,1-2.434-2.433A2.437,2.437,0,0,1,3889.66-8032.254Z" transform="translate(-3751.329 8051.671)" fill="#d1ccc1"/>
    <path id="Контур_5030" data-name="Контур 5030" d="M3900.343-8032.254a2.437,2.437,0,0,1,2.434,2.434,2.436,2.436,0,0,1-2.434,2.433,2.435,2.435,0,0,1-2.433-2.433A2.437,2.437,0,0,1,3900.343-8032.254Z" transform="translate(-3781.425 8051.671)" fill="#d1ccc1"/>
    <path id="Контур_5031" data-name="Контур 5031" d="M3911.026-8032.254a2.437,2.437,0,0,1,2.433,2.434,2.436,2.436,0,0,1-2.433,2.433,2.436,2.436,0,0,1-2.434-2.433A2.437,2.437,0,0,1,3911.026-8032.254Z" transform="translate(-3811.522 8051.671)" fill="#d1ccc1"/>
    <path id="Контур_5032" data-name="Контур 5032" d="M3921.711-8032.254a2.437,2.437,0,0,1,2.434,2.434,2.436,2.436,0,0,1-2.434,2.433,2.436,2.436,0,0,1-2.436-2.433A2.438,2.438,0,0,1,3921.711-8032.254Z" transform="translate(-3841.62 8051.671)" fill="#d1ccc1"/>
    <path id="Контур_5033" data-name="Контур 5033" d="M3953.759-8032.254a2.437,2.437,0,0,1,2.434,2.434,2.436,2.436,0,0,1-2.434,2.433,2.436,2.436,0,0,1-2.433-2.433A2.437,2.437,0,0,1,3953.759-8032.254Z" transform="translate(-3931.91 8051.671)" fill="#d1ccc1"/>
    <path id="Контур_5034" data-name="Контур 5034" d="M3943.078-8032.254a2.435,2.435,0,0,1,2.431,2.434,2.434,2.434,0,0,1-2.431,2.433,2.436,2.436,0,0,1-2.435-2.433A2.438,2.438,0,0,1,3943.078-8032.254Z" transform="translate(-3901.814 8051.671)" fill="#d1ccc1"/>
    <path id="Контур_5035" data-name="Контур 5035" d="M3836.244-8032.254a2.437,2.437,0,0,1,2.433,2.434,2.436,2.436,0,0,1-2.433,2.433,2.436,2.436,0,0,1-2.434-2.433A2.437,2.437,0,0,1,3836.244-8032.254Z" transform="translate(-3600.843 8051.671)" fill="#d1ccc1"/>
    <path id="Контур_5036" data-name="Контур 5036" d="M3868.295-8032.254a2.437,2.437,0,0,1,2.433,2.434,2.436,2.436,0,0,1-2.433,2.433,2.436,2.436,0,0,1-2.435-2.433A2.438,2.438,0,0,1,3868.295-8032.254Z" transform="translate(-3691.135 8051.671)" fill="#d1ccc1"/>
    <path id="Контур_5037" data-name="Контур 5037" d="M3772.145-8032.254a2.437,2.437,0,0,1,2.434,2.434,2.436,2.436,0,0,1-2.434,2.433,2.436,2.436,0,0,1-2.435-2.433A2.437,2.437,0,0,1,3772.145-8032.254Z" transform="translate(-3420.26 8051.671)" fill="#d1ccc1"/>
    <path id="Контур_5038" data-name="Контур 5038" d="M3761.463-8032.254a2.437,2.437,0,0,1,2.433,2.434,2.436,2.436,0,0,1-2.433,2.433,2.438,2.438,0,0,1-2.435-2.433A2.439,2.439,0,0,1,3761.463-8032.254Z" transform="translate(-3390.164 8051.671)" fill="#d1ccc1"/>
    <path id="Контур_5039" data-name="Контур 5039" d="M3750.778-8032.254a2.437,2.437,0,0,1,2.434,2.434,2.436,2.436,0,0,1-2.434,2.433,2.436,2.436,0,0,1-2.433-2.433A2.437,2.437,0,0,1,3750.778-8032.254Z" transform="translate(-3360.065 8051.671)" fill="#d1ccc1"/>
    <path id="Контур_5040" data-name="Контур 5040" d="M3825.56-8032.254a2.439,2.439,0,0,1,2.436,2.434,2.438,2.438,0,0,1-2.436,2.433,2.436,2.436,0,0,1-2.433-2.433A2.437,2.437,0,0,1,3825.56-8032.254Z" transform="translate(-3570.746 8051.671)" fill="#d1ccc1"/>
    <path id="Контур_5041" data-name="Контур 5041" d="M3814.879-8032.254a2.437,2.437,0,0,1,2.433,2.434,2.436,2.436,0,0,1-2.433,2.433,2.438,2.438,0,0,1-2.435-2.433A2.439,2.439,0,0,1,3814.879-8032.254Z" transform="translate(-3540.649 8051.671)" fill="#d1ccc1"/>
    <path id="Контур_5042" data-name="Контур 5042" d="M3932.394-8032.254a2.437,2.437,0,0,1,2.433,2.434,2.436,2.436,0,0,1-2.433,2.433,2.436,2.436,0,0,1-2.435-2.433A2.437,2.437,0,0,1,3932.394-8032.254Z" transform="translate(-3871.716 8051.671)" fill="#d1ccc1"/>
    <path id="Контур_5043" data-name="Контур 5043" d="M3964.444-8032.254a2.437,2.437,0,0,1,2.433,2.434,2.436,2.436,0,0,1-2.433,2.433,2.438,2.438,0,0,1-2.436-2.433A2.439,2.439,0,0,1,3964.444-8032.254Z" transform="translate(-3962.009 8051.671)" fill="#d1ccc1"/>
    <path id="Контур_5044" data-name="Контур 5044" d="M3804.194-8032.254a2.437,2.437,0,0,1,2.433,2.434,2.436,2.436,0,0,1-2.433,2.433,2.436,2.436,0,0,1-2.433-2.433A2.437,2.437,0,0,1,3804.194-8032.254Z" transform="translate(-3510.551 8051.671)" fill="#d1ccc1"/>
    <path id="Контур_5045" data-name="Контур 5045" d="M3793.511-8032.254a2.437,2.437,0,0,1,2.434,2.434,2.436,2.436,0,0,1-2.434,2.433,2.436,2.436,0,0,1-2.434-2.433A2.437,2.437,0,0,1,3793.511-8032.254Z" transform="translate(-3480.455 8051.671)" fill="#d1ccc1"/>
    <path id="Контур_5046" data-name="Контур 5046" d="M3782.828-8032.254a2.437,2.437,0,0,1,2.433,2.434,2.436,2.436,0,0,1-2.433,2.433,2.436,2.436,0,0,1-2.434-2.433A2.437,2.437,0,0,1,3782.828-8032.254Z" transform="translate(-3450.358 8051.671)" fill="#d1ccc1"/>
    <path id="Контур_5052" data-name="Контур 5052" d="M3932.394-7936.1a2.437,2.437,0,0,1,2.433,2.433,2.434,2.434,0,0,1-2.433,2.432,2.434,2.434,0,0,1-2.435-2.432A2.437,2.437,0,0,1,3932.394-7936.1Z" transform="translate(-3871.716 8130.247)" fill="#d1ccc1"/>
    <path id="Контур_5053" data-name="Контур 5053" d="M3964.444-7936.1a2.437,2.437,0,0,1,2.433,2.433,2.434,2.434,0,0,1-2.433,2.432,2.436,2.436,0,0,1-2.436-2.432A2.439,2.439,0,0,1,3964.444-7936.1Z" transform="translate(-3962.009 8130.247)" fill="#d1ccc1"/>
    <path id="Контур_5060" data-name="Контур 5060" d="M3932.394-7925.422a2.437,2.437,0,0,1,2.433,2.434,2.436,2.436,0,0,1-2.433,2.433,2.437,2.437,0,0,1-2.435-2.433A2.437,2.437,0,0,1,3932.394-7925.422Z" transform="translate(-3871.716 8138.978)" fill="#d1ccc1"/>
    <path id="Контур_5061" data-name="Контур 5061" d="M3964.444-7925.422a2.437,2.437,0,0,1,2.433,2.434,2.436,2.436,0,0,1-2.433,2.433,2.438,2.438,0,0,1-2.436-2.433A2.439,2.439,0,0,1,3964.444-7925.422Z" transform="translate(-3962.009 8138.978)" fill="#d1ccc1"/>
    <path id="Контур_5064" data-name="Контур 5064" d="M3932.394-7914.737a2.435,2.435,0,0,1,2.433,2.433,2.436,2.436,0,0,1-2.433,2.432,2.436,2.436,0,0,1-2.435-2.432A2.435,2.435,0,0,1,3932.394-7914.737Z" transform="translate(-3871.716 8147.708)" fill="#d1ccc1"/>
    <path id="Контур_5065" data-name="Контур 5065" d="M3964.444-7914.737a2.435,2.435,0,0,1,2.433,2.433,2.436,2.436,0,0,1-2.433,2.432,2.437,2.437,0,0,1-2.436-2.432A2.437,2.437,0,0,1,3964.444-7914.737Z" transform="translate(-3962.009 8147.708)" fill="#d1ccc1"/>
  </g>
</svg>
