<?xml version="1.0" encoding="utf-8"?>
<svg id="Layer_2" data-name="Layer 2" width="48" height="48" viewBox="3.794 4.01 40.155 40.034" xmlns="http://www.w3.org/2000/svg">
  <g id="invisible_box" data-name="invisible box">
    <rect id="Rectangle_1084" data-name="Rectangle 1084" width="48" height="48" transform="translate(0)" fill="none"/>
    <rect id="Rectangle_1085" data-name="Rectangle 1085" width="48" height="48" transform="translate(0)" fill="none"/>
  </g>
  <g id="icons_Q2" data-name="icons Q2" transform="translate(4 4.098)">
    <path id="Path_6659" data-name="Path 6659" d="M41,4.1H7A2.9,2.9,0,0,0,4,7V41.1A2.9,2.9,0,0,0,7,44H41a2.9,2.9,0,0,0,2.9-2.9V7A2.9,2.9,0,0,0,41,4.1Zm-25.1,34h-6v-19h6Zm-3-21.6A3.5,3.5,0,0,1,9.5,13a3.4,3.4,0,1,1,6.8,0,3.5,3.5,0,0,1-3.4,3.5ZM38,38.1H32.1V28.8c0-2.2,0-5-3.1-5s-3.5,2.4-3.5,4.9v9.4H19.6v-19h5.6v2.6h.1a6.2,6.2,0,0,1,5.6-3.1c6,0,7.1,3.9,7.1,9.1Z" transform="translate(-4 -4.098)" fill="#2b2b2e"/>
  </g>
</svg>