<?xml version="1.0" encoding="utf-8"?>
<svg id="Layer_2" data-name="Layer 2" width="48" height="48" viewBox="9.394 9.334 28.885 29.064" xmlns="http://www.w3.org/2000/svg">
  <g id="invisible_box" data-name="invisible box">
    <rect id="Rectangle_1082" data-name="Rectangle 1082" width="48" height="48" fill="none"/>
    <rect id="Rectangle_1083" data-name="Rectangle 1083" width="48" height="48" fill="none"/>
  </g>
  <g id="icons_Q2" data-name="icons Q2">
    <path id="Path_6658" data-name="Path 6658" d="M15.9,38.1h-6v-19h6Zm-3-21.6A3.5,3.5,0,0,1,9.5,13a3.4,3.4,0,1,1,6.8,0,3.5,3.5,0,0,1-3.4,3.5ZM38,38.1H32.1V28.8c0-2.2,0-5-3.1-5s-3.5,2.4-3.5,4.9v9.4H19.6v-19h5.6v2.6h.1a6.2,6.2,0,0,1,5.6-3.1c6,0,7.1,3.9,7.1,9.1Z" fill="#2b2b2e"/>
  </g>
</svg>